<?xml version="1.0" standalone="no"?>
<!DOCTYPE svg PUBLIC "-//W3C//DTD SVG 20010904//EN"
 "http://www.w3.org/TR/2001/REC-SVG-20010904/DTD/svg10.dtd">
<svg version="1.0" xmlns="http://www.w3.org/2000/svg"
 width="1920.000000pt" height="1920.000000pt" viewBox="0 0 1920.000000 1920.000000"
 preserveAspectRatio="xMidYMid meet">
<metadata>
Created by potrace 1.14, written by Peter Selinger 2001-2017
</metadata>
<g transform="translate(0.000000,1920.000000) scale(0.100000,-0.100000)"
fill="#000000" stroke="none">
<path d="M12638 12023 c6 -2 18 -2 25 0 6 3 1 5 -13 5 -14 0 -19 -2 -12 -5z"/>
<path d="M5748 11999 c-7 -5 -1057 -9 -2333 -9 -2063 1 -2321 -1 -2337 -15
-12 -10 -18 -29 -18 -57 0 -24 -3 -171 -5 -328 -14 -734 -14 -753 0 -787 8
-18 20 -33 27 -34 7 0 22 -3 33 -5 11 -3 380 -4 820 -3 440 0 1365 1 2055 0
1080 -1 1262 1 1304 14 64 19 76 31 76 70 0 37 38 214 49 230 4 6 9 30 10 55
3 48 15 78 39 96 8 6 16 35 19 70 3 32 11 70 18 84 8 14 21 42 30 63 10 20 21
37 27 37 5 0 7 4 3 9 -3 5 -1 12 4 15 4 3 21 32 36 63 16 32 31 60 34 63 4 3
12 17 18 33 7 15 17 27 23 27 5 0 10 7 10 15 0 8 5 15 10 15 6 0 10 6 10 13 0
15 51 67 66 67 12 0 53 41 53 53 1 18 32 65 46 71 14 5 14 8 0 36 -8 16 -19
30 -23 30 -4 1 -26 5 -49 9 -23 4 -48 4 -55 0z"/>
<path d="M7463 11990 c-15 -3 -45 -5 -65 -5 -20 1 -34 -3 -32 -7 3 -4 -5 -6
-18 -4 -13 1 -41 -3 -63 -10 -37 -12 -128 -28 -215 -40 -19 -2 -44 -8 -55 -13
-31 -13 -159 -51 -172 -51 -25 0 -108 -33 -116 -45 -4 -8 -32 -19 -62 -26 -30
-7 -55 -16 -55 -20 0 -8 -107 -63 -124 -64 -5 0 -25 -14 -44 -32 -19 -17 -48
-37 -66 -44 -41 -16 -67 -39 -59 -52 3 -5 2 -7 -4 -4 -6 4 -20 -5 -33 -18 -17
-18 -27 -22 -36 -14 -13 10 -26 -2 -30 -29 -3 -20 -25 -42 -40 -42 -8 0 -14
-7 -14 -16 0 -8 -4 -12 -10 -9 -5 3 -10 -1 -10 -11 0 -9 -13 -29 -29 -45 -16
-15 -27 -30 -23 -33 3 -3 0 -6 -7 -6 -7 0 -10 -4 -7 -9 3 -5 -10 -29 -29 -54
-37 -49 -58 -94 -50 -107 2 -4 -4 -15 -15 -25 -11 -10 -20 -26 -20 -37 0 -10
-4 -18 -10 -18 -5 0 -10 -7 -10 -15 0 -8 -4 -15 -9 -15 -4 0 -11 -23 -14 -51
-4 -28 -16 -67 -29 -86 -13 -23 -16 -33 -7 -28 8 4 4 -3 -8 -16 -18 -20 -20
-28 -11 -37 7 -7 9 -12 6 -12 -16 0 59 -69 82 -76 14 -4 864 -6 1890 -5 1026
2 2110 2 2410 2 1540 -2 2977 -1 2995 3 11 2 23 -1 26 -6 3 -5 15 -10 27 -13
33 -6 70 -37 78 -65 11 -38 11 -39 13 -57 0 -9 4 -14 7 -10 10 9 59 -54 84
-108 12 -27 26 -57 31 -65 5 -8 12 -22 16 -30 4 -8 14 -22 22 -32 9 -10 16
-22 17 -26 3 -20 36 -82 44 -82 6 0 10 -7 10 -15 0 -7 6 -18 13 -22 12 -7 38
-59 40 -80 1 -9 11 -23 40 -54 21 -23 22 -30 7 -39 -9 -5 -6 -10 9 -15 11 -3
21 -14 21 -22 0 -9 6 -24 14 -32 12 -14 69 -116 100 -178 6 -13 14 -23 19 -23
4 0 7 -16 7 -36 0 -19 7 -42 15 -51 8 -8 13 -19 10 -24 -4 -5 1 -9 9 -9 9 0
16 -9 16 -21 0 -11 5 -17 10 -14 6 3 13 -2 17 -12 3 -10 13 -26 21 -35 8 -10
15 -31 14 -48 0 -16 4 -30 10 -30 6 0 9 -3 5 -6 -9 -10 17 -32 31 -27 7 3 12
2 11 -3 -2 -17 13 -54 23 -54 6 0 8 -6 5 -13 -5 -14 17 -39 27 -30 3 4 6 -1 6
-10 0 -10 14 -36 30 -59 17 -22 30 -49 30 -58 0 -9 9 -25 19 -34 11 -10 23
-31 26 -46 3 -16 13 -34 21 -41 8 -6 14 -17 14 -25 0 -7 6 -19 14 -26 13 -14
47 -73 46 -83 -1 -26 4 -35 30 -61 17 -16 46 -59 66 -96 19 -38 38 -68 42 -68
4 0 16 -19 27 -43 11 -23 25 -46 32 -50 7 -4 13 -12 13 -17 0 -5 13 -29 30
-53 16 -25 30 -50 30 -55 0 -11 56 -118 73 -139 5 -7 6 -13 1 -13 -5 0 -4 -4
3 -8 6 -4 13 -14 15 -22 2 -8 13 -26 26 -40 29 -32 58 -86 66 -126 4 -18 16
-40 27 -50 10 -9 19 -23 19 -31 0 -7 4 -13 9 -13 5 0 17 -21 27 -47 10 -27 23
-51 30 -55 6 -4 15 -19 18 -33 4 -14 11 -25 16 -25 6 0 10 -9 10 -20 0 -11 5
-20 10 -20 6 0 10 -7 10 -16 0 -9 9 -27 20 -41 11 -14 20 -34 20 -44 0 -11 3
-19 8 -19 4 0 12 -8 17 -19 6 -10 23 -37 38 -60 15 -23 25 -45 23 -50 -3 -4 2
-17 12 -27 9 -10 28 -41 42 -69 14 -27 27 -52 30 -55 15 -15 49 -71 70 -115
60 -131 64 -136 98 -151 38 -16 45 -13 93 38 14 16 31 28 37 28 7 0 12 10 12
23 0 13 9 33 21 46 12 12 22 28 23 34 5 28 18 57 25 57 5 0 14 14 21 31 7 17
30 51 52 77 21 26 38 54 38 63 0 10 14 29 32 44 22 19 31 34 30 56 0 16 3 29
7 29 4 0 12 15 19 33 7 18 27 51 46 73 18 21 36 49 40 62 4 12 12 19 18 16 7
-5 8 -2 3 5 -4 8 1 21 14 32 12 11 21 24 21 29 0 6 7 10 15 10 8 0 15 8 15 17
0 29 53 133 67 133 8 0 12 4 9 9 -4 5 -1 11 4 13 10 3 17 22 19 52 1 4 8 6 16
2 11 -4 15 2 15 24 0 17 5 30 10 30 6 0 10 5 10 11 0 6 13 31 30 56 16 24 30
46 30 48 0 9 65 101 77 108 7 4 13 15 13 23 0 25 50 115 60 109 6 -3 10 1 10
10 0 8 7 18 16 22 8 3 13 12 10 19 -3 8 -2 14 3 14 5 0 28 40 52 90 42 85 61
106 72 78 3 -7 6 3 6 23 1 35 53 129 71 129 5 0 11 14 15 30 4 17 10 30 14 30
4 0 13 16 20 35 7 19 17 35 22 35 5 0 9 7 9 15 0 8 7 15 15 15 8 0 15 8 15 18
1 24 31 61 37 45 3 -7 13 -13 23 -13 16 0 18 -6 15 -32 -2 -18 -6 -53 -9 -78
-9 -71 -10 -213 -3 -360 5 -127 8 -465 6 -665 -1 -49 0 -147 3 -216 5 -116 -6
-479 -16 -574 -8 -66 3 -115 26 -115 10 0 16 -4 13 -10 -8 -13 -77 -11 663
-13 529 -2 644 -4 651 -16 6 -9 11 -10 15 -2 4 6 26 11 48 11 23 0 60 9 83 20
l42 20 -2 2318 c-1 1274 2 2327 7 2340 4 13 4 22 -2 22 -6 0 -10 10 -10 23 0
15 -11 28 -34 41 -32 17 -75 18 -740 17 -598 -1 -712 -3 -736 -16 -33 -17 -80
-70 -80 -91 0 -8 -7 -14 -15 -14 -8 0 -15 -7 -15 -15 0 -9 -7 -18 -16 -22 -13
-5 -13 -7 -2 -14 8 -5 9 -9 2 -9 -7 0 -15 -12 -19 -27 -3 -15 -15 -39 -26 -54
-10 -15 -19 -33 -19 -41 0 -7 -18 -33 -40 -58 -22 -25 -40 -51 -40 -58 0 -8
-8 -26 -18 -40 -11 -15 -31 -53 -45 -84 -15 -31 -31 -59 -36 -63 -5 -3 -12
-19 -16 -35 -4 -17 -15 -35 -25 -40 -11 -6 -17 -16 -14 -23 2 -7 -7 -30 -21
-51 -14 -20 -25 -41 -25 -45 0 -5 -7 -14 -15 -21 -9 -7 -13 -15 -11 -18 3 -2
-1 -14 -9 -26 -8 -11 -15 -27 -15 -36 0 -8 -11 -24 -25 -34 -13 -10 -22 -22
-19 -27 3 -5 1 -9 -5 -9 -5 0 -8 -8 -6 -17 4 -26 -6 -38 -17 -22 -8 11 -9 11
-5 -1 5 -18 -29 -90 -43 -90 -6 0 -10 -7 -10 -15 0 -9 -7 -18 -16 -22 -8 -3
-13 -11 -10 -18 7 -18 -28 -84 -54 -102 -11 -8 -17 -19 -14 -25 4 -7 2 -8 -4
-4 -8 5 -12 0 -12 -13 0 -13 -7 -21 -17 -22 -10 0 -13 -3 -6 -5 16 -7 2 -40
-49 -115 -20 -31 -40 -68 -43 -82 -4 -15 -16 -29 -26 -32 -11 -4 -17 -10 -14
-15 3 -5 1 -11 -5 -15 -5 -3 -10 -15 -10 -26 0 -10 -5 -19 -10 -19 -6 0 -9 -3
-9 -7 3 -18 -3 -30 -31 -63 -16 -19 -30 -41 -30 -47 0 -7 -5 -13 -11 -13 -6 0
-8 -9 -4 -20 5 -14 2 -20 -9 -20 -9 0 -16 -3 -15 -7 2 -14 -13 -53 -20 -53 -4
0 -16 -19 -26 -42 -10 -24 -29 -57 -42 -74 -12 -17 -23 -36 -23 -42 0 -7 -5
-12 -11 -12 -7 0 -17 -6 -23 -14 -28 -36 -96 14 -100 73 -2 32 -24 73 -36 66
-11 -7 -50 57 -50 83 0 11 -3 22 -7 24 -11 4 -53 65 -53 76 0 5 -6 15 -14 21
-8 7 -13 21 -11 31 2 11 1 19 -3 18 -18 -3 -42 16 -42 34 0 11 -11 34 -24 51
-13 18 -27 42 -30 54 -4 11 -13 26 -21 33 -8 6 -12 17 -9 25 5 12 -9 34 -44
71 -7 7 -20 34 -29 59 -8 25 -22 51 -32 58 -21 15 -51 62 -51 80 0 25 -40 96
-62 112 -13 8 -23 19 -24 23 0 4 -8 24 -17 44 -10 21 -17 44 -17 53 0 8 -4 15
-10 15 -5 0 -10 9 -10 21 0 11 -4 17 -10 14 -6 -4 -10 8 -10 29 0 30 -4 35
-29 41 -21 4 -30 13 -34 35 -4 16 -27 61 -52 102 -25 40 -45 80 -45 90 0 10
-4 18 -9 18 -5 0 -12 11 -15 25 -4 14 -11 24 -16 22 -6 -1 -23 21 -38 48 -15
28 -31 55 -35 60 -22 26 -71 123 -75 144 -1 13 -10 30 -18 38 -8 8 -12 19 -9
23 3 5 -3 14 -14 19 -11 6 -36 44 -55 85 -31 63 -43 78 -82 100 l-46 26 -3364
2 c-1849 2 -3376 1 -3391 -2z"/>
<path d="M16090 11111 c0 -25 6 -27 13 -6 4 8 2 17 -3 20 -6 4 -10 -3 -10 -14z"/>
<path d="M14851 11064 c0 -11 3 -14 6 -6 3 7 2 16 -1 19 -3 4 -6 -2 -5 -13z"/>
<path d="M15929 10773 c-1 -5 -1 -11 0 -15 0 -5 -3 -8 -7 -8 -4 0 -8 -12 -8
-26 0 -23 1 -24 13 -8 7 9 10 21 7 25 -3 5 -1 9 4 9 5 0 9 7 9 15 0 15 -16 22
-18 8z"/>
<path d="M1027 10759 c7 -7 15 -10 18 -7 3 3 -2 9 -12 12 -14 6 -15 5 -6 -5z"/>
<path d="M13516 10371 c-4 -7 -5 -15 -2 -18 9 -9 19 4 14 18 -4 11 -6 11 -12
0z"/>
<path d="M12726 10242 c-3 -5 -21 -12 -39 -15 -19 -3 -45 -16 -58 -29 l-24
-24 1 -864 c0 -476 4 -955 7 -1065 4 -110 9 -382 13 -605 7 -448 3 -422 76
-460 39 -20 65 -28 38 -10 -12 7 -10 9 7 7 12 0 19 -5 17 -9 -3 -4 0 -8 5 -8
6 0 11 4 11 9 0 5 254 9 603 9 365 0 612 4 627 10 27 10 59 42 44 42 -5 0 -4
4 3 8 8 5 12 162 14 607 2 557 -1 664 -21 690 -4 6 -13 28 -20 50 -7 22 -24
63 -38 90 -46 94 -75 150 -81 155 -3 3 -13 19 -21 35 -8 17 -29 50 -46 75 -18
25 -41 63 -53 85 -12 22 -35 63 -52 90 -16 28 -35 61 -42 75 -6 14 -19 33 -28
43 -9 10 -19 31 -22 45 -3 15 -17 40 -31 55 -14 16 -26 32 -26 37 0 5 -25 52
-56 104 -52 89 -61 110 -63 144 -1 6 -12 22 -26 34 -14 12 -25 26 -25 31 0 5
-11 22 -25 39 -14 16 -25 38 -25 48 0 10 -14 44 -31 75 -17 31 -28 63 -25 72
4 9 -1 17 -14 20 -11 3 -17 9 -15 14 3 4 0 11 -7 16 -14 9 -42 52 -63 98 -20
46 -76 98 -133 125 -29 14 -52 28 -52 32 0 5 -9 8 -21 8 -11 0 -17 5 -14 10 3
6 1 10 -4 10 -6 0 -11 -6 -11 -12 0 -8 -3 -9 -8 -3 -9 13 -238 19 -246 7z"/>
<path d="M1180 10150 c-41 -3 -81 -9 -88 -13 -28 -18 -34 -70 -38 -307 -9
-461 -5 -2485 3 -2515 18 -59 7 -58 703 -62 1019 -6 8448 -8 8637 -3 95 3 173
9 173 14 0 5 6 4 13 -3 8 -6 17 -7 23 -2 5 5 27 11 49 14 48 7 184 35 193 41
4 2 30 7 57 10 65 9 157 32 220 56 28 10 71 24 98 31 26 6 47 15 47 20 0 4 15
11 33 14 17 4 41 14 52 21 11 8 25 14 32 14 16 0 52 16 83 38 46 31 99 63 104
64 2 0 23 16 46 36 124 110 176 163 211 214 21 31 49 64 61 75 13 10 43 56 67
103 24 47 49 92 56 100 7 8 16 32 20 53 4 20 10 37 14 37 9 0 37 71 33 83 -2
6 3 26 11 46 8 20 15 55 16 79 1 24 6 55 12 70 6 15 13 128 16 252 5 218 -1
296 -32 420 -6 21 -15 87 -17 127 -1 7 -5 10 -8 8 -6 -4 -43 76 -45 95 -2 27
-141 250 -155 250 -4 0 -46 38 -93 83 -48 46 -116 101 -152 122 -36 21 -65 42
-65 47 0 4 -6 8 -14 8 -8 0 -37 11 -64 25 -28 14 -55 25 -61 25 -6 0 -11 4
-11 9 0 5 -15 12 -32 16 -18 4 -46 12 -63 20 -76 34 -109 45 -131 45 -21 0
-49 9 -100 32 -11 5 -36 11 -55 13 -94 9 -159 17 -209 25 -155 26 -479 32
-1685 35 -693 1 -1273 5 -1290 8 -16 4 -453 7 -970 8 l-940 2 -18 -29 c-11
-19 -15 -38 -11 -54 3 -14 7 -32 8 -40 5 -32 20 -77 44 -125 14 -27 25 -55 25
-62 0 -7 4 -13 9 -13 4 0 8 -5 8 -11 0 -6 15 -28 33 -48 17 -20 41 -50 52 -66
32 -46 143 -163 149 -157 3 3 6 1 6 -5 0 -6 23 -25 50 -43 28 -18 50 -36 50
-40 0 -4 15 -13 33 -21 17 -7 34 -16 37 -19 3 -3 35 -20 71 -37 37 -17 70 -36
74 -42 3 -6 14 -11 24 -11 10 0 24 -7 31 -15 7 -9 21 -13 31 -10 10 3 36 -3
59 -15 61 -31 275 -83 395 -96 66 -7 69 -8 105 -18 71 -19 296 -23 2065 -30
1010 -4 1132 -7 1190 -27 116 -41 182 -110 204 -214 18 -84 17 -113 -9 -193
-17 -55 -58 -99 -87 -97 -18 1 -20 -1 -11 -12 6 -7 9 -15 7 -16 -41 -32 -78
-50 -130 -64 -60 -15 -332 -17 -3987 -19 l-3923 -3 -9 25 c-13 34 -13 325 1
377 6 25 21 50 37 62 27 20 44 20 1692 22 916 1 1693 4 1728 8 92 8 114 21
110 63 -2 22 -10 39 -22 46 -11 6 -28 19 -38 29 -10 9 -27 17 -38 17 -11 0
-20 5 -20 10 0 6 -5 10 -12 10 -6 0 -18 7 -27 15 -9 8 -35 31 -58 51 -24 20
-43 42 -43 49 0 7 -7 15 -15 19 -8 3 -15 12 -15 20 0 8 -16 23 -35 32 -19 9
-35 22 -35 28 0 7 -18 30 -40 52 -22 21 -40 44 -40 49 0 6 -14 23 -30 39 -16
16 -37 49 -47 75 -9 25 -21 49 -27 53 -5 3 -11 14 -12 23 -1 10 -12 24 -23 32
-12 8 -21 21 -21 30 0 9 -9 34 -19 57 -37 79 -49 112 -61 166 -28 124 -35 142
-65 164 -28 19 -44 21 -225 24 -366 5 -3865 7 -3940 2z"/>
<path d="M13677 9996 c-4 -10 -1 -13 8 -9 8 3 12 9 9 14 -7 12 -11 11 -17 -5z"/>
<path d="M13433 9705 c0 -8 4 -12 9 -9 4 3 8 9 8 15 0 5 -4 9 -8 9 -5 0 -9 -7
-9 -15z"/>
<path d="M6127 9616 c-3 -8 1 -17 9 -20 8 -3 14 1 14 9 0 20 -17 28 -23 11z"/>
<path d="M13515 9540 c4 -6 11 -8 16 -5 14 9 11 15 -7 15 -8 0 -12 -5 -9 -10z"/>
<path d="M13725 9240 c-3 -5 -1 -10 4 -10 6 0 11 5 11 10 0 6 -2 10 -4 10 -3
0 -8 -4 -11 -10z"/>
<path d="M16652 9170 c0 -14 2 -19 5 -12 2 6 2 18 0 25 -3 6 -5 1 -5 -13z"/>
<path d="M2595 8941 c-3 -2 -5 -10 -5 -18 0 -10 5 -11 18 -4 18 9 24 11 44 11
6 0 8 3 5 7 -8 8 -56 11 -62 4z"/>
<path d="M10633 8805 c4 -8 2 -17 -3 -20 -6 -4 -10 -12 -10 -18 1 -14 23 22
26 41 1 6 -2 12 -8 12 -6 0 -8 -7 -5 -15z"/>
<path d="M14590 8470 c0 -6 -4 -8 -10 -5 -5 3 -10 0 -10 -8 0 -19 9 -27 26
-20 16 6 19 29 4 38 -5 3 -10 1 -10 -5z"/>
<path d="M15116 7501 c-4 -7 -5 -15 -2 -18 9 -9 19 4 14 18 -4 11 -6 11 -12 0z"/>
</g>
</svg>
