<?xml version="1.0" encoding="UTF-8" standalone="no"?>
<!-- Generator: Adobe Illustrator 16.0.0, SVG Export Plug-In . SVG Version: 6.00 Build 0)  -->

<svg
   version="1.1"
   id="Layer_1"
   x="0px"
   y="0px"
   width="128px"
   height="171px"
   viewBox="0 0 128 171"
   enable-background="new 0 0 128 171"
   xml:space="preserve"
   sodipodi:docname="genealogy-card-gold.svg"
   inkscape:version="1.1 (c68e22c387, 2021-05-23)"
   xmlns:inkscape="http://www.inkscape.org/namespaces/inkscape"
   xmlns:sodipodi="http://sodipodi.sourceforge.net/DTD/sodipodi-0.dtd"
   xmlns="http://www.w3.org/2000/svg"
   xmlns:svg="http://www.w3.org/2000/svg"
   xmlns:rdf="http://www.w3.org/1999/02/22-rdf-syntax-ns#"
   xmlns:cc="http://creativecommons.org/ns#"
   xmlns:dc="http://purl.org/dc/elements/1.1/"><defs
   id="defs13">
	

		
		
		
		
	</defs><sodipodi:namedview
   id="namedview11"
   pagecolor="#ffffff"
   bordercolor="#666666"
   borderopacity="1.0"
   inkscape:pageshadow="2"
   inkscape:pageopacity="0.0"
   inkscape:pagecheckerboard="0"
   showgrid="false"
   inkscape:zoom="4.8187135"
   inkscape:cx="64.021238"
   inkscape:cy="84.151092"
   inkscape:window-width="1920"
   inkscape:window-height="1013"
   inkscape:window-x="-9"
   inkscape:window-y="-9"
   inkscape:window-maximized="1"
   inkscape:current-layer="Layer_1" />
<title
   id="title2">Untitled</title>
<path
   id="Polygon_3"
   fill="#028b43"
   d="m 128,121.156 c 0,2.69 -1.354,5.201 -3.6,6.681 l -56,36.886 c -2.67,1.759 -6.13,1.759 -8.8,0 L 3.6,127.837 C 1.353,126.358 0,123.847 0,121.156 V 45.465 c 0,-2.69 1.353,-5.201 3.6,-6.681 L 59.6,1.9 c 2.67,-1.758 6.13,-1.758 8.8,0 l 56,36.886 c 2.246,1.479 3.6,3.989 3.6,6.679 z"
   style="fill:#efb30c;fill-opacity:1" /><path
   id="Polygon_5"
   fill="#028b43"
   d="m 128,125.156 c 0,2.69 -1.354,5.201 -3.6,6.681 l -56,36.886 c -2.67,1.759 -6.13,1.759 -8.8,0 L 3.6,131.837 C 1.353,130.358 0,127.847 0,125.156 V 49.465 c 0,-2.69 1.353,-5.201 3.6,-6.681 L 59.6,5.9 c 2.67,-1.758 6.13,-1.758 8.8,0 l 56,36.886 c 2.246,1.479 3.6,3.989 3.6,6.679 z"
   style="fill:#efb30c;fill-opacity:1" /><path
   id="Subtraction_1"
   fill="#ffffff"
   d="m 64,161.581 c -1.593,0.001 -3.15,-0.474 -4.471,-1.366 l -56,-37.736 C 1.321,120.995 -0.001,118.507 0,115.846 V 38.106 C -0.002,35.445 1.321,32.957 3.529,31.471 L 21.3,19.499 h 85.4 l 17.771,11.972 c 2.207,1.486 3.531,3.973 3.529,6.635 v 77.74 c 0.002,2.661 -1.321,5.148 -3.529,6.635 l -56,37.735 c -1.321,0.891 -2.877,1.367 -4.471,1.365 z M 59.714,150.23 c -0.209,-0.002 -0.409,0.084 -0.55,0.238 -0.119,0.13 -0.178,0.304 -0.162,0.479 0.018,0.18 0.11,0.344 0.255,0.452 l 4.279,3.3 c 0.131,0.099 0.292,0.152 0.456,0.151 h 0.048 c 0.142,0.001 0.28,-0.039 0.4,-0.113 l 4.279,-3.189 c 0.154,-0.107 0.256,-0.275 0.277,-0.462 0.017,-0.185 -0.048,-0.367 -0.178,-0.5 -0.123,-0.139 -0.295,-0.226 -0.48,-0.243 -0.025,0 -0.051,0 -0.076,0 -0.162,0 -0.318,0.052 -0.449,0.148 l -3.821,2.852 -3.822,-2.957 c -0.131,-0.1 -0.291,-0.156 -0.456,-0.156 z" /><rect
   id="Rectangle_2051"
   y="51.998001"
   fill="#ffffff"
   width="128"
   height="54"
   x="0" />
<metadata
   id="metadata1008"><rdf:RDF><cc:Work
       rdf:about=""><dc:title>Untitled</dc:title></cc:Work></rdf:RDF></metadata></svg>
