<?xml version="1.0" encoding="UTF-8" standalone="no"?>
<svg
   width="12px"
   height="11px"
   viewBox="0 0 12 11"
   version="1.1"
   id="svg11"
   sodipodi:docname="ic-node-silver.svg"
   inkscape:version="1.1 (c68e22c387, 2021-05-23)"
   xmlns:inkscape="http://www.inkscape.org/namespaces/inkscape"
   xmlns:sodipodi="http://sodipodi.sourceforge.net/DTD/sodipodi-0.dtd"
   xmlns="http://www.w3.org/2000/svg"
   xmlns:svg="http://www.w3.org/2000/svg"
   xmlns:rdf="http://www.w3.org/1999/02/22-rdf-syntax-ns#"
   xmlns:cc="http://creativecommons.org/ns#"
   xmlns:dc="http://purl.org/dc/elements/1.1/">
  <defs
     id="defs15" />
  <sodipodi:namedview
     id="namedview13"
     pagecolor="#ffffff"
     bordercolor="#666666"
     borderopacity="1.0"
     inkscape:pageshadow="2"
     inkscape:pageopacity="0.0"
     inkscape:pagecheckerboard="0"
     showgrid="false"
     inkscape:zoom="74.909091"
     inkscape:cx="6.0006068"
     inkscape:cy="5.5066748"
     inkscape:window-width="1920"
     inkscape:window-height="1013"
     inkscape:window-x="-9"
     inkscape:window-y="-9"
     inkscape:window-maximized="1"
     inkscape:current-layer="Group-2334" />
  <title
     id="title2">Untitled</title>
  <g
     id="Group-2334"
     fill-rule="nonzero"
     style="fill:none;stroke:none;stroke-width:1">
    <path
       d="M 6.0080543,10.715186 C 4.2450452,10.746844 2.6015837,9.8266981 1.7070731,8.3071409 0.8125624,6.7875837 0.80561356,4.9040803 1.6888447,3.377964 2.5721597,1.8518474 4.2087867,0.91959952 5.9719813,0.93824719 7.7349903,0.90658919 9.3784518,1.8267348 10.272962,3.346292 c 0.894511,1.5195572 0.90146,3.4030607 0.01819,4.9291771 -0.8832732,1.5261166 -2.5199,2.4583639 -4.2830947,2.4397169 z"
       id="Path_2184"
       fill="#9621f9"
       style="fill:#688389;fill-opacity:1" />
    <path
       d="M 6.088044,9.7105423 C 5.0527043,9.7226013 4.055063,9.3224632 3.3150089,8.5983129 2.5749547,7.8741627 2.1532378,6.8854483 2.1428083,5.8500909 c 0.00579,-2.1592154 1.757407,-3.9067527 3.9166299,-3.9075 1.0353397,-0.012062 2.0329811,0.3880792 2.7730352,1.1122294 0.7400541,0.7241503 1.161771,1.7128647 1.1722006,2.748222 -0.00579,2.1592154 -1.757407,3.9067527 -3.91663,3.9075 z"
       id="Path_2185"
       fill="#ffffff" />
    <ellipse
       id="Ellipse_67"
       fill="#9621f9"
       transform="scale(-1)"
       cx="-6.0009999"
       cy="-5.7340002"
       rx="3.128"
       ry="3.063"
       style="fill:#688389;fill-opacity:1" />
  </g>
  <metadata
     id="metadata881">
    <rdf:RDF>
      <cc:Work
         rdf:about="">
        <dc:title>Untitled</dc:title>
      </cc:Work>
    </rdf:RDF>
  </metadata>
</svg>
