<?xml version="1.0" standalone="no"?>
<!DOCTYPE svg PUBLIC "-//W3C//DTD SVG 20010904//EN" "http://www.w3.org/TR/2001/REC-SVG-20010904/DTD/svg10.dtd">
<svg version="1.0" xmlns="http://www.w3.org/2000/svg" width="80.000000pt" height="80.000000pt"
    viewBox="0 0 512.000000 512.000000" preserveAspectRatio="xMidYMid meet">

    <g transform="translate(0.000000,512.000000) scale(0.100000,-0.100000)" fill="#000000" stroke="none">
        <path d="M2430 5114 c-181 -23 -333 -69 -483 -146 -305 -157 -546 -437 -651
-760 -62 -188 -68 -249 -75 -693 l-6 -400 -59 -7 c-168 -21 -321 -162 -362
-333 -11 -50 -14 -254 -14 -1211 0 -737 4 -1171 10 -1205 31 -164 166 -305
331 -344 97 -22 2781 -22 2878 0 165 39 300 180 331 344 6 34 10 468 10 1205
0 957 -3 1161 -14 1211 -41 171 -194 312 -362 333 l-59 7 -6 400 c-7 444 -13
505 -75 693 -146 445 -532 787 -997 883 -99 20 -318 33 -397 23z m400 -483
c283 -91 496 -312 586 -606 l28 -90 4 -407 3 -408 -891 0 -891 0 3 408 4 407
28 90 c91 296 307 519 586 605 129 39 125 39 295 35 136 -2 159 -6 245 -34z
m1070 -3071 l0 -1110 -1340 0 -1340 0 0 1110 0 1110 1340 0 1340 0 0 -1110z" />
        <path d="M2497 2219 c-135 -15 -276 -122 -340 -256 -30 -64 -32 -74 -32 -183
0 -108 2 -119 32 -182 34 -72 95 -145 149 -179 l34 -21 0 -167 c0 -159 1 -169
26 -219 79 -159 309 -159 388 0 25 50 26 60 26 219 l0 167 34 21 c54 34 115
107 149 179 30 63 32 74 32 182 0 109 -2 119 -32 183 -86 181 -264 279 -466
256z" />
    </g>
</svg>