<?xml version="1.0" encoding="UTF-8"?>
<svg width="53px" height="53px" viewBox="0 0 53 53" version="1.1" xmlns="http://www.w3.org/2000/svg" xmlns:xlink="http://www.w3.org/1999/xlink">
    <title>Untitled</title>
    <g id="Page-1" stroke="none" stroke-width="1" fill="none" fill-rule="evenodd" stroke-linecap="round">
        <g id="Layer-2" transform="translate(1.000000, 1.000000)" fill="#828D99" fill-rule="nonzero" stroke="#FFFFFF">
            <path d="M25.32,50.64 C11.3361501,50.64 0,39.3038499 0,25.32 C0,11.3361501 11.3361501,0 25.32,0 C39.3038499,0 50.64,11.3361501 50.64,25.32 C50.64,32.0352815 47.9723648,38.4755226 43.2239437,43.2239437 C38.4755226,47.9723648 32.0352815,50.64 25.32,50.64 Z M25.32,4.292 C13.7065563,4.292 4.292,13.7065563 4.292,25.32 C4.292,36.9334437 13.7065563,46.348 25.32,46.348 C36.9334437,46.348 46.348,36.9334437 46.348,25.32 C46.348,19.7430277 44.1325564,14.3944736 40.1890414,10.4509586 C36.2455264,6.50744364 30.8969723,4.292 25.32,4.292 Z" id="Path_2908" stroke-width="2"></path>
            <path d="M24.676,32.289 C23.4907969,32.289 22.53,31.3282031 22.53,30.143 C22.5201502,26.846585 24.6657997,23.9309209 27.816,22.96 C29.1742459,22.5464691 30.0994801,21.2897774 30.091,19.87 C30.091,17.2344972 27.9545028,15.098 25.319,15.098 C22.6834972,15.098 20.547,17.2344972 20.547,19.87 C20.547,20.636692 20.1379748,21.3451446 19.474,21.7284906 C18.8100253,22.1118366 17.9919747,22.1118366 17.328,21.7284906 C16.6640252,21.3451446 16.255,20.636692 16.255,19.87 C16.2207487,16.6092382 17.940712,13.5814062 20.7590444,11.9410577 C23.5773768,10.3007091 27.0596232,10.3007091 29.8779556,11.9410577 C32.696288,13.5814062 34.4162513,16.6092382 34.382,19.87 C34.3921558,23.1670572 32.2459507,26.0833306 29.095,27.054 C27.7385542,27.4700718 26.8144807,28.7251869 26.82,30.144 C26.8194488,31.328032 25.8600316,32.2878967 24.676,32.289 Z" id="Path_2909"></path>
            <circle id="Ellipse_95" cx="24.685" cy="36.83" r="2.575"></circle>
        </g>
    </g>
</svg>