<svg xmlns="http://www.w3.org/2000/svg" width="58" height="58" viewBox="0 0 58 58">
  <g id="profile_kosong" transform="translate(22037 -1512)">
    <circle id="Ellipse_98" data-name="Ellipse 98" cx="29" cy="29" r="29" transform="translate(-22037 1512)" fill="#fff"/>
    <g id="profile_kosong-2" data-name="profile_kosong" transform="translate(-38663 -9254)">
      <path id="profile_close_add" d="M362.9,373.933a12.663,12.663,0,0,1-7.434-2.486.8.8,0,0,1,0-1.313,12.422,12.422,0,0,1,7.45-2.47,7.8,7.8,0,0,0,1.551-.156c.18-.036.342-.108.514-.157a7.781,7.781,0,0,0,.938-.291c.188-.078.356-.188.536-.28a8.2,8.2,0,0,0,.782-.424c.145-.1.27-.217.41-.322a8.245,8.245,0,0,0,.674-.53l-.014-.014a7.837,7.837,0,1,0-11.607-.955h0c.038.052.088.092.125.142a8.078,8.078,0,0,0,.719.813l-.016.014a15.162,15.162,0,0,0-3.927,2.111,3.954,3.954,0,0,0,0,6.347,15.524,15.524,0,0,0,9.28,3.08,1.579,1.579,0,0,0,1.612-1.563,1.549,1.549,0,0,0-1.593-1.546Zm-4.679-14.086a4.69,4.69,0,1,1,4.69,4.69A4.69,4.69,0,0,1,358.225,359.847Z" transform="translate(16290.991 10431.053)" fill="#e1e1e1" fill-rule="evenodd"/>
      <path id="question_cr" d="M525.8,207.979h0a1.371,1.371,0,0,1,1.371,1.371h0a1.371,1.371,0,0,1-1.371,1.371h0a1.371,1.371,0,0,1-1.371-1.371h0A1.371,1.371,0,0,1,525.8,207.979Zm0-1.371a1.371,1.371,0,0,1-.614-2.606l1.984-.991v-.517H524.43a1.371,1.371,0,0,1-2.743,0v-1.371a1.371,1.371,0,0,1,1.371-1.371h5.485a1.371,1.371,0,0,1,1.371,1.371v2.743a1.371,1.371,0,0,1-.758,1.226l-2.743,1.371a1.36,1.36,0,0,1-.612.145Z" transform="translate(16137 10598.531)" fill="#e1e1e1" fill-rule="evenodd"/>
    </g>
  </g>
</svg>
