<?xml version="1.0" encoding="UTF-8"?>
<svg width="51px" height="45px" viewBox="0 0 51 45" version="1.1" xmlns="http://www.w3.org/2000/svg" xmlns:xlink="http://www.w3.org/1999/xlink">
    <title>Untitled</title>
    <g id="Page-1" stroke="none" stroke-width="1" fill="none" fill-rule="evenodd">
        <g id="Path-4262" fill="#828D99" fill-rule="nonzero">
            <path d="M39.364,15.106 C42.3763175,13.2932888 43.7508417,9.65012897 42.686637,6.29939067 C41.6224323,2.94865237 38.3976869,0.766234631 34.8914607,1.0238328 C31.3852345,1.28143098 28.5140719,3.91170767 27.951,7.382 C26.253068,6.75480536 24.386932,6.75480536 22.689,7.382 C22.1300526,3.90598058 19.2569195,1.26890275 15.7458329,1.00928018 C12.2347462,0.749657612 9.00499134,2.93546561 7.94085922,6.2914686 C6.87672709,9.64747158 8.25683262,13.2949888 11.276,15.106 C4.791,17.126 -8.81455833e-08,24.034 -8.81455833e-08,32.234 C-8.81455833e-08,32.5527938 0.179346078,32.8444673 0.464,32.988 C3.56589687,34.4466748 6.85424519,35.4703297 10.236,36.03 C10.1637812,36.7316888 10.1274006,37.4366046 10.127,38.142 C10.1268547,38.4607938 10.3063461,38.7524673 10.591,38.896 C13.0066384,40.0355776 15.5397105,40.9074319 18.145,41.496 C19.9062583,43.6464773 22.5393267,44.8934359 25.319,44.8934359 C28.0986733,44.8934359 30.7317417,43.6464773 32.493,41.496 C35.0982676,40.9073548 37.6313314,40.0355034 40.047,38.896 C40.3316539,38.7524673 40.5111453,38.4607938 40.511,38.142 C40.5109281,37.4366218 40.4748813,36.7317062 40.403,36.03 C43.7846958,35.470081 47.0730105,34.4464366 50.175,32.988 C50.4596539,32.8444673 50.6390002,32.5527938 50.6390002,32.234 C50.64,24.034 45.849,17.126 39.364,15.106 Z M35.448,2.692 C37.8760212,2.69330843 40.0560267,4.17998883 40.9437657,6.43990209 C41.8315047,8.69981534 41.2462024,11.2727638 39.4682262,12.9262719 C37.69025,14.5797801 35.0816582,14.9771355 32.892,13.928 C32.7130945,11.6107604 31.483735,9.50276056 29.555,8.206 C29.7656925,5.10525745 32.3401106,2.69640943 35.448,2.692 L35.448,2.692 Z M25.32,8.6 C28.5828983,8.6 31.228,11.2451017 31.228,14.508 C31.228,17.7708983 28.5828983,20.416 25.32,20.416 C22.0571017,20.416 19.412,17.7708983 19.412,14.508 C19.412,11.2451017 22.0571017,8.6 25.32,8.6 Z M9.284,8.6 C9.29008072,5.41896494 11.8141055,2.81402267 14.9933656,2.70759828 C18.1726257,2.6011739 20.8652037,5.0314926 21.084,8.205 C19.1550023,9.50197335 17.9256088,11.6103998 17.747,13.928 C15.9160242,14.8054144 13.7628337,14.6815266 12.0445749,13.5999006 C10.326316,12.5182745 9.28356729,10.6303517 9.283,8.6 L9.284,8.6 Z M10.478,34.356 C7.45352849,33.8361233 4.50508674,32.9436638 1.7,31.699 C1.937,23.099 7.9,16.199 15.2,16.199 C16.1441571,16.1993744 17.0846387,16.3165987 18,16.548 C18.5243458,18.4147798 19.7401085,20.0117198 21.4,21.014 C15.946,22.714 11.689,27.879 10.478,34.356 Z M25.32,43.204 C21.1226359,43.204 17.72,39.8013641 17.72,35.604 C17.72,31.4066359 21.1226359,28.004 25.32,28.004 C29.5173641,28.004 32.92,31.4066359 32.92,35.604 C32.92,37.6196453 32.119288,39.5527351 30.6940115,40.9780115 C29.2687351,42.403288 27.3356453,43.204 25.32,43.204 L25.32,43.204 Z M33.784,39.422 C35.5397651,35.526525 34.4100013,30.9357144 31.0469458,28.2999424 C27.6838902,25.6641704 22.9561098,25.6641704 19.5930542,28.2999424 C16.2299987,30.9357144 15.1002349,35.526525 16.856,39.422 C15.13671,38.9407427 13.4548959,38.3344608 11.824,37.608 C12.061,29.008 18.024,22.108 25.324,22.108 C32.624,22.108 38.583,29.015 38.824,37.608 C37.193037,38.3351458 35.5108397,38.9414454 33.791,39.422 L33.784,39.422 Z M40.162,34.356 C38.95,27.878 34.693,22.714 29.236,21.014 C30.8958915,20.0117198 32.1116542,18.4147798 32.636,16.548 C33.5554494,16.3145103 34.500367,16.1962696 35.449,16.196 C42.749,16.196 48.708,23.103 48.949,31.696 C46.1426621,32.9410365 43.1928506,33.833504 40.167,34.353 L40.162,34.356 Z" id="Path_4262"></path>
        </g>
    </g>
</svg>