<?xml version="1.0" encoding="UTF-8"?>
<svg width="1366px" height="768px" viewBox="0 0 1366 768" version="1.1" xmlns="http://www.w3.org/2000/svg" xmlns:xlink="http://www.w3.org/1999/xlink">
    <title>bg-login</title>
    <defs>
        <linearGradient x1="50%" y1="0%" x2="50%" y2="100%" id="linearGradient-1">
            <stop stop-color="#29BB89" offset="0%"></stop>
            <stop stop-color="#31E3A6" offset="100%"></stop>
        </linearGradient>
    </defs>
    <g id="penyesuaian-warna" stroke="none" stroke-width="1" fill="none" fill-rule="evenodd">
        <g id="login" fill-rule="nonzero">
            <g id="bg-login">
                <rect id="Rectangle" fill="url(#linearGradient-1)" x="0" y="0" width="1366" height="768"></rect>
                <g id="Group" opacity="0.4" style="mix-blend-mode: darken;" fill="#29BB89">
                    <rect id="Rectangle" x="0" y="0" width="1366" height="768"></rect>
                </g>
                <path d="M0,324.422425 L0,0 L529,0 C518.320768,42.1478003 533.536311,89.1005296 525.219741,132.145516 C520.761353,156.755856 509.5653,180.150225 492.5205,200.471207 C475.395629,220.115054 452.893027,235.971105 426.933006,246.68625 C357.896025,275.655386 278.392452,267.580713 203.968602,267.640526 C164.039616,267.640526 123.638097,270.132709 85.8355069,281.497064 C54.5834384,290.948368 25.7321493,305.303167 0.803305047,323.804364 L0,324.422425 Z M1228.76449,407.57429 C1192.0375,430.606538 1151.57395,448.105452 1109.92795,463.846486 C1071.28538,478.448891 1031.74415,491.613029 995.040804,509.551414 C963.726751,524.474747 935.150837,543.168395 910.211616,565.044548 C885.24484,587.592215 865.111127,613.636075 850.710575,642.011808 C832.193359,678.12829 821.598579,717.10133 798.824531,751.679665 C795.135278,757.292901 791.138586,762.726354 787,768 L1366,768 L1366,281.366362 C1330.12248,330.375488 1283.55219,373.183274 1228.76449,407.514362 L1228.76449,407.57429 Z" id="Shape" fill="#29BB89" opacity="0.2" style="mix-blend-mode: multiply;"></path>
                <path d="M100.173168,716.090561 C100.173168,716.887122 99.5274283,717.532861 98.730868,717.532861 C97.939612,717.520199 97.3012305,716.881817 97.2885679,716.090561 C97.2885679,715.294001 97.9343077,714.648261 98.730868,714.648261 C99.5274283,714.648261 100.173168,715.294001 100.173168,716.090561 Z M98.730868,690.081872 C97.9343077,690.081872 97.2885679,690.727612 97.2885679,691.524172 C97.2885679,692.320733 97.9343077,692.966472 98.730868,692.966472 C99.5274283,692.966472 100.173168,692.320733 100.173168,691.524172 C100.173168,690.727612 99.5274283,690.081872 98.730868,690.081872 Z M98.730868,665.586416 C98.1758966,665.514919 97.6296529,665.770868 97.3294393,666.243072 C97.0292258,666.715276 97.0292258,667.318511 97.3294393,667.790715 C97.6296529,668.26292 98.1758966,668.518869 98.730868,668.447372 C99.2858393,668.518869 99.8320831,668.26292 100.132297,667.790715 C100.43251,667.318511 100.43251,666.715276 100.132297,666.243072 C99.8320831,665.770868 99.2858393,665.514919 98.730868,665.586416 Z M98.730868,641.067315 C97.9343077,641.067315 97.2885679,641.713055 97.2885679,642.509615 C97.2885679,643.306176 97.9343077,643.951915 98.730868,643.951915 C99.5274283,643.951915 100.173168,643.306176 100.173168,642.509615 C100.173168,641.713055 99.5274283,641.067315 98.730868,641.067315 Z M98.730868,616.548215 C97.939612,616.560877 97.3012305,617.199259 97.2885679,617.990515 C97.2885679,618.787075 97.9343077,619.432815 98.730868,619.432815 C99.5274283,619.432815 100.173168,618.787075 100.173168,617.990515 C100.147645,617.21248 99.5093205,616.595085 98.730868,616.595503 L98.730868,616.548215 Z M98.730868,592.052758 C97.9343077,592.052758 97.2885679,592.698498 97.2885679,593.495058 C97.3012305,594.286314 97.939612,594.924696 98.730868,594.937358 C99.5274283,594.937358 100.173168,594.291619 100.173168,593.495058 C100.147645,592.717024 99.5093205,592.099628 98.730868,592.100047 L98.730868,592.052758 Z M98.730868,567.533658 C97.9343077,567.533658 97.2885679,568.179397 97.2885679,568.975958 C97.2885679,569.772518 97.9343077,570.418258 98.730868,570.418258 C99.5274283,570.418258 100.173168,569.772518 100.173168,568.975958 C100.173168,568.179397 99.5274283,567.533658 98.730868,567.533658 L98.730868,567.533658 Z M98.730868,543.014557 C97.939612,543.027219 97.3012305,543.665601 97.2885679,544.456857 C97.2885679,545.253417 97.9343077,545.899157 98.730868,545.899157 C99.5274283,545.899157 100.173168,545.253417 100.173168,544.456857 C100.147645,543.678823 99.5093205,543.061427 98.730868,543.061845 L98.730868,543.014557 Z M75.0866051,714.600973 C74.2900448,714.600973 73.644305,715.246712 73.644305,716.043273 C73.644305,716.839833 74.2900448,717.485573 75.0866051,717.485573 C75.8831654,717.485573 76.5289051,716.839833 76.5289051,716.043273 C76.5061174,715.300513 75.9227153,714.69664 75.1811821,714.648261 L75.0866051,714.600973 Z M75.0866051,690.081872 C74.2900448,690.081872 73.644305,690.727612 73.644305,691.524172 C73.644305,692.320733 74.2900448,692.966472 75.0866051,692.966472 C75.8831654,692.966472 76.5289051,692.320733 76.5289051,691.524172 C76.5061174,690.781412 75.9227153,690.17754 75.1811821,690.129161 L75.0866051,690.081872 Z M75.0866051,665.586416 C74.2900448,665.586416 73.644305,666.232156 73.644305,667.028716 C73.644305,667.825276 74.2900448,668.471016 75.0866051,668.471016 C75.8831654,668.471016 76.5289051,667.825276 76.5289051,667.028716 C76.5061174,666.285956 75.9227153,665.682083 75.1811821,665.633704 L75.0866051,665.586416 Z M75.0866051,641.067315 C74.2900448,641.067315 73.644305,641.713055 73.644305,642.509615 C73.644305,643.306176 74.2900448,643.951915 75.0866051,643.951915 C75.8831654,643.951915 76.5289051,643.306176 76.5289051,642.509615 C76.5061174,641.766855 75.9227153,641.162983 75.1811821,641.114604 L75.0866051,641.067315 Z M75.0866051,616.548215 C74.2900448,616.548215 73.644305,617.193954 73.644305,617.990515 C73.644305,618.787075 74.2900448,619.432815 75.0866051,619.432815 C75.8831654,619.432815 76.5289051,618.787075 76.5289051,617.990515 C76.5061174,617.247754 75.9227153,616.643882 75.1811821,616.595503 L75.0866051,616.548215 Z M75.0866051,592.052758 C74.2900448,592.052758 73.644305,592.698498 73.644305,593.495058 C73.644305,594.291619 74.2900448,594.937358 75.0866051,594.937358 C75.8831654,594.937358 76.5289051,594.291619 76.5289051,593.495058 C76.5061174,592.752298 75.9227153,592.148426 75.1811821,592.100047 L75.0866051,592.052758 Z M75.0866051,567.533658 C74.2900448,567.533658 73.644305,568.179397 73.644305,568.975958 C73.644305,569.772518 74.2900448,570.418258 75.0866051,570.418258 C75.8831654,570.418258 76.5289051,569.772518 76.5289051,568.975958 C76.5061174,568.233197 75.9227153,567.629325 75.1811821,567.580946 L75.0866051,567.533658 Z M75.0866051,543.014557 C74.7040833,543.014557 74.3372287,543.166513 74.0667449,543.436997 C73.7962612,543.707481 73.644305,544.074335 73.644305,544.456857 C73.644305,545.253417 74.2900448,545.899157 75.0866051,545.899157 C75.8831654,545.899157 76.5289051,545.253417 76.5289051,544.456857 C76.5061174,543.714097 75.9227153,543.110225 75.1811821,543.061845 L75.0866051,543.014557 Z M75.0866051,518.519101 C74.2900448,518.519101 73.644305,519.16484 73.644305,519.961401 C73.644305,520.757961 74.2900448,521.403701 75.0866051,521.403701 C75.8831654,521.403701 76.5289051,520.757961 76.5289051,519.961401 C76.5061174,519.21864 75.9227153,518.614768 75.1811821,518.566389 L75.0866051,518.519101 Z M51.4423422,714.600973 C50.6457819,714.600973 50.0000422,715.246712 50.0000422,716.043273 C50.0000422,716.839833 50.6457819,717.485573 51.4423422,717.485573 C52.2389025,717.485573 52.8846422,716.839833 52.8846422,716.043273 C52.8674597,715.333118 52.3357505,714.741216 51.6314963,714.648261 L51.4423422,714.600973 Z M51.4423422,690.081872 C50.8589863,690.081872 50.3330714,690.433277 50.1098307,690.972228 C49.8865901,691.511178 50.0099871,692.131537 50.4224821,692.544032 C50.834977,692.956527 51.4553359,693.079924 51.9942865,692.856684 C52.5332371,692.633443 52.8846422,692.107528 52.8846422,691.524172 C52.8674597,690.814018 52.3357505,690.222115 51.6314963,690.129161 L51.4423422,690.081872 Z M51.4423422,665.586416 C50.8589863,665.586416 50.3330714,665.937821 50.1098307,666.476772 C49.8865901,667.015722 50.0099871,667.636081 50.4224821,668.048576 C50.834977,668.461071 51.4553359,668.584468 51.9942865,668.361227 C52.5332371,668.137987 52.8846422,667.612072 52.8846422,667.028716 C52.8674597,666.318561 52.3357505,665.726659 51.6314963,665.633704 L51.4423422,665.586416 Z M51.4423422,641.067315 C50.8589863,641.067315 50.3330714,641.41872 50.1098307,641.957671 C49.8865901,642.496621 50.0099871,643.11698 50.4224821,643.529475 C50.834977,643.94197 51.4553359,644.065367 51.9942865,643.842127 C52.5332371,643.618886 52.8846422,643.092971 52.8846422,642.509615 C52.8674597,641.799461 52.3357505,641.207558 51.6314963,641.114604 L51.4423422,641.067315 Z M51.4423422,616.548215 C50.6457819,616.548215 50.0000422,617.193954 50.0000422,617.990515 C50.0000422,618.787075 50.6457819,619.432815 51.4423422,619.432815 C52.2389025,619.432815 52.8846422,618.787075 52.8846422,617.990515 C52.8674597,617.28036 52.3357505,616.688458 51.6314963,616.595503 L51.4423422,616.548215 Z M51.4423422,592.052758 C50.6457819,592.052758 50.0000422,592.698498 50.0000422,593.495058 C50.0000422,594.291619 50.6457819,594.937358 51.4423422,594.937358 C52.2389025,594.937358 52.8846422,594.291619 52.8846422,593.495058 C52.8674597,592.784904 52.3357505,592.193001 51.6314963,592.100047 L51.4423422,592.052758 Z M51.4423422,567.533658 C50.8589863,567.533658 50.3330714,567.885063 50.1098307,568.424013 C49.8865901,568.962964 50.0099871,569.583323 50.4224821,569.995818 C50.834977,570.408313 51.4553359,570.53171 51.9942865,570.308469 C52.5332371,570.085228 52.8846422,569.559314 52.8846422,568.975958 C52.8674597,568.265803 52.3357505,567.673901 51.6314963,567.580946 L51.4423422,567.533658 Z M51.4423422,543.014557 C50.6457819,543.014557 50.0000422,543.660297 50.0000422,544.456857 C50.0000422,545.253417 50.6457819,545.899157 51.4423422,545.899157 C52.2389025,545.899157 52.8846422,545.253417 52.8846422,544.456857 C52.8674597,543.746703 52.3357505,543.1548 51.6314963,543.061845 L51.4423422,543.014557 Z M51.4423422,518.519101 C50.8589863,518.519101 50.3330714,518.870506 50.1098307,519.409456 C49.8865901,519.948407 50.0099871,520.568766 50.4224821,520.981261 C50.834977,521.393756 51.4553359,521.517153 51.9942865,521.293912 C52.5332371,521.070671 52.8846422,520.544757 52.8846422,519.961401 C52.8674597,519.251246 52.3357505,518.659344 51.6314963,518.566389 L51.4423422,518.519101 Z M51.4423422,494 C50.6457819,494 50.0000422,494.64574 50.0000422,495.4423 C50.0000422,496.23886 50.6457819,496.8846 51.4423422,496.8846 C52.2389025,496.8846 52.8846422,496.23886 52.8846422,495.4423 C52.845029,494.750307 52.3187847,494.184346 51.6314963,494.094577 L51.4423422,494 Z" id="Shape" fill="#FFFFFF"></path>
                <path d="M1314.11421,100.173126 C1314.90546,100.160463 1315.54384,99.5220818 1315.55651,98.7308258 C1315.55651,97.9342655 1314.91077,97.2885258 1314.11421,97.2885258 C1313.31765,97.2885258 1312.67191,97.9342655 1312.67191,98.7308258 C1312.67191,99.5273861 1313.31765,100.173126 1314.11421,100.173126 Z M1288.10552,98.7308258 C1288.10552,97.9342655 1288.75126,97.2885258 1289.54782,97.2885258 C1290.34438,97.2885258 1290.99012,97.9342655 1290.99012,98.7308258 C1290.99012,99.5273861 1290.34438,100.173126 1289.54782,100.173126 C1288.75126,100.173126 1288.10552,99.5273861 1288.10552,98.7308258 Z M1263.58642,98.7308258 C1263.58642,97.9342655 1264.23216,97.2885258 1265.02872,97.2885258 C1265.82528,97.2885258 1266.47102,97.9342655 1266.47102,98.7308258 C1266.47102,99.5273861 1265.82528,100.173126 1265.02872,100.173126 C1264.22824,100.17323 1263.57568,99.5311959 1263.56277,98.7308258 L1263.58642,98.7308258 Z M1239.09096,98.7308258 C1239.09096,97.9342655 1239.7367,97.2885258 1240.53326,97.2885258 C1241.32982,97.2885258 1241.97556,97.9342655 1241.97556,98.7308258 C1241.97556,99.5273861 1241.32982,100.173126 1240.53326,100.173126 C1239.7367,100.173126 1239.09096,99.5273861 1239.09096,98.7308258 Z M1214.57186,98.7308258 C1214.57186,97.9342655 1215.2176,97.2885258 1216.01416,97.2885258 C1216.81072,97.2885258 1217.45646,97.9342655 1217.45646,98.7308258 C1217.45646,99.5273861 1216.81072,100.173126 1216.01416,100.173126 C1215.21368,100.17323 1214.56113,99.5311959 1214.54821,98.7308258 L1214.57186,98.7308258 Z M1190.0764,98.7308258 C1190.0764,97.9342655 1190.72214,97.2885258 1191.5187,97.2885258 C1192.31526,97.2885258 1192.961,97.9342655 1192.961,98.7308258 C1192.94834,99.5220818 1192.30996,100.160463 1191.5187,100.173126 C1191.1321,100.179464 1190.75914,100.030311 1190.48352,99.7591373 C1190.2079,99.4879636 1190.05271,99.1174797 1190.05276,98.7308258 L1190.0764,98.7308258 Z M1165.5573,98.7308258 C1165.5573,97.9342655 1166.20304,97.2885258 1166.9996,97.2885258 C1167.79616,97.2885258 1168.4419,97.9342655 1168.4419,98.7308258 C1168.4419,99.5273861 1167.79616,100.173126 1166.9996,100.173126 C1166.20304,100.173126 1165.5573,99.5273861 1165.5573,98.7308258 Z M1141.0382,98.7308258 C1141.0382,97.9342655 1141.68394,97.2885258 1142.4805,97.2885258 C1143.27706,97.2885258 1143.9228,97.9342655 1143.9228,98.7308258 C1143.9228,99.5273861 1143.27706,100.173126 1142.4805,100.173126 C1141.68003,100.17323 1141.02747,99.5311959 1141.01456,98.7308258 L1141.0382,98.7308258 Z M1312.62462,75.0865629 C1312.62462,74.2900026 1313.27036,73.6442629 1314.06692,73.6442629 C1314.62189,73.5727658 1315.16813,73.8287149 1315.46835,74.3009192 C1315.76856,74.7731234 1315.76856,75.3763582 1315.46835,75.8485624 C1315.16813,76.3207667 1314.62189,76.5767158 1314.06692,76.5052187 C1313.30078,76.5324462 1312.6516,75.9460907 1312.60097,75.18114 L1312.62462,75.0865629 Z M1288.10552,75.0865629 C1288.09592,74.5011509 1288.44117,73.9680229 1288.97929,73.7373133 C1289.51741,73.5066038 1290.14161,73.6240962 1290.55902,74.0346651 C1290.97643,74.445234 1291.10422,75.0674035 1290.88244,75.6092625 C1290.66066,76.1511215 1290.13331,76.50514 1289.54782,76.505227 C1288.79523,76.5077508 1288.1672,75.9311989 1288.10552,75.18114 L1288.10552,75.0865629 Z M1263.58642,75.0865629 C1263.58642,74.7040412 1263.73837,74.3371865 1264.00886,74.0667028 C1264.27934,73.7962191 1264.64619,73.6442629 1265.02872,73.6442629 C1265.82528,73.6442629 1266.47102,74.2900026 1266.47102,75.0865629 C1266.47102,75.8831232 1265.82528,76.528863 1265.02872,76.528863 C1264.23216,76.528863 1263.58642,75.8831232 1263.58642,75.0865629 Z M1239.09096,75.0865629 C1239.08136,74.5011509 1239.42662,73.9680229 1239.96473,73.7373133 C1240.50285,73.5066038 1241.12705,73.6240962 1241.54446,74.0346651 C1241.96187,74.445234 1242.08967,75.0674035 1241.86788,75.6092625 C1241.6461,76.1511215 1241.11875,76.50514 1240.53326,76.5052187 C1239.77162,76.5202583 1239.12961,75.9403806 1239.06732,75.18114 L1239.09096,75.0865629 Z M1214.57186,75.0865629 C1214.57186,74.2900026 1215.2176,73.6442629 1216.01416,73.6442629 C1216.81072,73.6442629 1217.45646,74.2900026 1217.45646,75.0865629 C1217.45646,75.8831232 1216.81072,76.528863 1216.01416,76.528863 C1215.2176,76.528863 1214.57186,75.8831232 1214.57186,75.0865629 Z M1190.0764,75.0865629 C1190.0764,74.2900026 1190.72214,73.6442629 1191.5187,73.6442629 C1192.07367,73.5727658 1192.61992,73.8287149 1192.92013,74.3009192 C1193.22034,74.7731234 1193.22034,75.3763582 1192.92013,75.8485624 C1192.61992,76.3207667 1192.07367,76.5767158 1191.5187,76.5052187 C1190.75256,76.5324462 1190.10338,75.9460907 1190.05276,75.18114 L1190.0764,75.0865629 Z M1165.5573,75.0865629 C1165.5477,74.5011509 1165.89296,73.9680229 1166.43108,73.7373133 C1166.9692,73.5066038 1167.59339,73.6240962 1168.01081,74.0346651 C1168.42822,74.445234 1168.55601,75.0674035 1168.33423,75.6092625 C1168.11244,76.1511215 1167.58509,76.50514 1166.9996,76.5052187 C1166.23796,76.5202583 1165.59595,75.9403806 1165.53366,75.18114 L1165.5573,75.0865629 Z M1141.0382,75.0865629 C1141.0382,74.2900026 1141.68394,73.6442629 1142.4805,73.6442629 C1143.27706,73.6442629 1143.9228,74.2900026 1143.9228,75.0865629 C1143.9228,75.8831232 1143.27706,76.528863 1142.4805,76.528863 C1141.68394,76.528863 1141.0382,75.8831232 1141.0382,75.0865629 L1141.0382,75.0865629 Z M1116.54274,75.0865629 C1116.54274,74.2900026 1117.18848,73.6442629 1117.98504,73.6442629 C1118.54002,73.5727658 1119.08626,73.8287149 1119.38647,74.3009192 C1119.68669,74.7731234 1119.68669,75.3763582 1119.38647,75.8485624 C1119.08626,76.3207667 1118.54002,76.5767158 1117.98504,76.5052187 C1117.2189,76.5324462 1116.56973,75.9460907 1116.5191,75.18114 L1116.54274,75.0865629 Z M1312.62462,51.4423 C1312.62462,50.6457397 1313.27036,50 1314.06692,50 C1314.85817,50.0126625 1315.49655,50.6510441 1315.50922,51.4423 C1315.50922,52.2388604 1314.86348,52.8846001 1314.06692,52.8846001 C1313.32177,52.90172 1312.68631,52.3482566 1312.60097,51.6078099 L1312.62462,51.4423 Z M1288.10552,51.4423 C1288.10552,50.6457397 1288.75126,50 1289.54782,50 C1290.34438,50 1290.99012,50.6457397 1290.99012,51.4423 C1290.99012,52.2388604 1290.34438,52.8846001 1289.54782,52.8846001 C1288.75126,52.8846001 1288.10552,52.2388604 1288.10552,51.4423 L1288.10552,51.4423 Z M1263.58642,51.4423 C1263.59908,50.6510441 1264.23746,50.0126625 1265.02872,50 C1265.82528,50 1266.47102,50.6457397 1266.47102,51.4423 C1266.47102,52.2388604 1265.82528,52.8846001 1265.02872,52.8846001 C1264.28356,52.90172 1263.64811,52.3482566 1263.56277,51.6078099 L1263.58642,51.4423 Z M1239.09096,51.4423 C1239.09096,50.6457397 1239.7367,50 1240.53326,50 C1241.32982,50 1241.97556,50.6457397 1241.97556,51.4423 C1241.97556,52.2388604 1241.32982,52.8846001 1240.53326,52.8846001 C1239.7367,52.8846001 1239.09096,52.2388604 1239.09096,51.4423 L1239.09096,51.4423 Z M1214.57186,51.4423 C1214.58452,50.6510441 1215.2229,50.0126625 1216.01416,50 C1216.81072,50 1217.45646,50.6457397 1217.45646,51.4423 C1217.45646,52.2388604 1216.81072,52.8846001 1216.01416,52.8846001 C1215.26901,52.90172 1214.63355,52.3482566 1214.54821,51.6078099 L1214.57186,51.4423 Z M1190.0764,51.4423 C1190.0764,50.6457397 1190.72214,50 1191.5187,50 C1192.30996,50.0126625 1192.94834,50.6510441 1192.961,51.4423 C1192.961,52.2388604 1192.31526,52.8846001 1191.5187,52.8846001 C1190.77355,52.90172 1190.13809,52.3482566 1190.05276,51.6078099 L1190.0764,51.4423 Z M1165.5573,51.4423 C1165.5573,50.6457397 1166.20304,50 1166.9996,50 C1167.79616,50 1168.4419,50.6457397 1168.4419,51.4423 C1168.4419,52.2388604 1167.79616,52.8846001 1166.9996,52.8846001 C1166.20304,52.8846001 1165.5573,52.2388604 1165.5573,51.4423 L1165.5573,51.4423 Z M1141.0382,51.4423 C1141.05086,50.6510441 1141.68925,50.0126625 1142.4805,50 C1142.86302,50 1143.22988,50.1519562 1143.50036,50.4224399 C1143.77085,50.6929236 1143.9228,51.0597783 1143.9228,51.4423 C1143.9228,51.8248218 1143.77085,52.1916764 1143.50036,52.4621602 C1143.22988,52.7326439 1142.86302,52.8846001 1142.4805,52.8846001 C1141.73535,52.90172 1141.09989,52.3482566 1141.01456,51.6078099 L1141.0382,51.4423 Z M1116.54274,51.4423 C1116.54274,50.6457397 1117.18848,50 1117.98504,50 C1118.7763,50.0126625 1119.41468,50.6510441 1119.42734,51.4423 C1119.42734,52.2388604 1118.78161,52.8846001 1117.98504,52.8846001 C1117.23989,52.90172 1116.60444,52.3482566 1116.5191,51.6078099 L1116.54274,51.4423 Z M1092.02364,51.4423 C1092.03631,50.6510441 1092.67469,50.0126625 1093.46594,50 C1094.2625,50 1094.90824,50.6457397 1094.90824,51.4423 C1094.90824,52.2388604 1094.2625,52.8846001 1093.46594,52.8846001 C1092.72079,52.90172 1092.08534,52.3482566 1092,51.6078099 L1092.02364,51.4423 Z" id="Shape" fill="#FFFFFF"></path>
                <path d="M1031,464 C1029.34315,464 1028,462.656854 1028,461 C1028,459.343146 1029.34315,458 1031,458 C1032.65685,458 1034,459.343146 1034,461 C1034,462.656854 1032.65685,464 1031,464 Z M979,239 C977.343146,239 976,240.343146 976,242 C976,243.656854 977.343146,245 979,245 C980.656854,245 982,243.656854 982,242 C982,240.343146 980.656854,239 979,239 L979,239 Z M748.5,28 C747.647567,28.1066544 747,28.9700772 747,30 C747,31.0299228 747.647567,31.8933456 748.5,32 C749.352433,31.8933456 750,31.0299228 750,30 C750,28.9700772 749.352433,28.1066544 748.5,28 Z M416,78 C414.895431,78 414,78.8954305 414,80 C414,81.1045695 414.895431,82 416,82 C417.104569,82 418,81.1045695 418,80 C418,78.8954305 417.104569,78 416,78 Z M222.5,39 C221.647567,39.1066544 221,39.9700772 221,41 C221,42.0299228 221.647567,42.8933456 222.5,43 C223.352433,42.8933456 224,42.0299228 224,41 C224,39.9700772 223.352433,39.1066544 222.5,39 L222.5,39 Z M152,259 C150.867095,259.118347 150,260.202216 150,261.5 C150,262.797784 150.867095,263.881653 152,264 C153.132905,263.881653 154,262.797784 154,261.5 C154,260.202216 153.132905,259.118347 152,259 Z M315.5,196 C314.647567,196.106654 314,196.970077 314,198 C314,199.029923 314.647567,199.893346 315.5,200 C316.352433,199.893346 317,199.029923 317,198 C317,196.970077 316.352433,196.106654 315.5,196 L315.5,196 Z M411.664587,353.160167 L411.664587,353.160167 C411.024383,352.99761 410.355989,352.99761 409.715786,353.160167 C408.766754,353.444568 408.08635,354.310854 408.007595,355.335022 C407.928841,356.359191 408.468211,357.326988 409.361713,357.764728 C410.255215,358.202468 411.315929,358.018576 412.024692,357.303058 C412.502868,356.941566 412.870621,356.444211 413.083823,355.870675 L413.210919,355.870675 C415.011442,354.856989 413.401562,352.344811 411.664587,353.160167 L411.664587,353.160167 Z M301.5,433 C300.085696,433.112365 299,434.198061 299,435.5 C299,436.801939 300.085696,437.887635 301.5,438 C302.914304,437.887635 304,436.801939 304,435.5 C304,434.198061 302.914304,433.112365 301.5,433 L301.5,433 Z M168.5,588 C167.119288,588 166,589.119288 166,590.5 C166,591.880712 167.119288,593 168.5,593 C169.880712,593 171,591.880712 171,590.5 C171,589.119288 169.880712,588 168.5,588 Z M333.51046,682.476447 C332.842722,681.841184 331.797318,681.841184 331.129581,682.476447 C330.845747,682.710113 330.507004,682.866698 330.145747,682.931227 C329.247346,681.975397 327.752714,681.918554 326.78499,682.803412 C325.817265,683.688271 325.732897,685.188905 326.595283,686.177666 C327.457669,687.166428 328.949161,687.279119 329.94898,686.431057 C331.270681,686.302051 332.517616,685.755143 333.51046,684.868986 C334.16318,684.206339 334.16318,683.139095 333.51046,682.476447 L333.51046,682.476447 Z M973.9375,722 L972.0625,722 C970.923413,722 970,722.895431 970,724 C970,725.104569 970.923413,726 972.0625,726 L973.9375,726 C975.076587,726 976,725.104569 976,724 C976,722.895431 975.076587,722 973.9375,722 L973.9375,722 Z M1140.94196,605.298814 C1140.36742,605.090734 1139.75691,604.989611 1139.14301,605.000843 C1137.41983,605.011522 1136.02249,606.3451 1136,608.000421 C1136.04393,609.646935 1137.42886,610.968662 1139.14301,611 C1139.75723,610.994339 1140.36583,610.886814 1140.94196,610.682164 C1142.16656,610.313422 1143,609.223375 1143,607.990489 C1143,606.757603 1142.16656,605.667556 1140.94196,605.298814 L1140.94196,605.298814 Z M1073.84,76.4527027 C1073.84,75.0981124 1072.75653,74 1071.42,74 C1070.08347,74 1069,75.0981124 1069,76.4527027 L1069,77.4662162 C1069,78.8655864 1070.11929,80 1071.5,80 C1072.88071,80 1074,78.8655864 1074,77.4662162 L1073.84,76.4527027 Z M1170.89356,163.196606 C1170.98062,161.963303 1170.29411,160.804132 1169.16674,160.280857 C1168.03938,159.757582 1166.70408,159.978322 1165.80797,160.836101 C1164.96566,161.74216 1164.76151,163.065664 1165.29206,164.180776 C1165.82261,165.295889 1166.98154,165.979161 1168.22084,165.907499 C1168.98896,166.139451 1169.82316,165.927522 1170.38495,165.357708 C1170.94674,164.787894 1171.1428,163.95485 1170.89356,163.196606 L1170.89356,163.196606 Z M1164.9654,370.136808 C1163.32766,370.136808 1162,371.449328 1162,373.068404 C1162,374.68748 1163.32766,376 1164.9654,376 C1166.64136,376 1168,374.656854 1168,373 C1168,371.343146 1166.64136,370 1164.9654,370 L1164.9654,370.136808 Z" id="Shape" fill="#E476FF" opacity="0.2"></path>
                <g id="Group" opacity="0.4" transform="translate(204.120922, 102.879909)" fill="#FFFFFF">
                    <path d="M862.235335,564.175757 C863.086444,560.065753 866.303799,556.857696 870.41625,556.018486 L870.41625,558.122826 C867.447934,558.897985 865.1264,561.210486 864.339674,564.175757 L862.235335,564.175757 Z M874.672217,558.122826 C877.640533,558.897985 879.962067,561.210486 880.748793,564.175757 L882.853132,564.175757 C881.990655,560.071908 878.778545,556.869082 874.672217,556.018486 L874.672217,558.122826 Z M870.41625,574.5083 C867.442793,573.742148 865.117412,571.425816 864.339674,568.455368 L862.235335,568.455368 C863.095115,572.565314 866.306304,575.776503 870.41625,576.636283 L870.41625,574.5083 Z M880.748793,568.455368 C879.971055,571.425816 877.645674,573.742148 874.672217,574.5083 L874.672217,576.636283 C878.779121,575.770883 881.987732,572.562272 882.853132,568.455368 L880.748793,568.455368 Z" id="Shape" opacity="0.8"></path>
                    <path d="M3.36005185e-14,8.18091496 C0.85412331,4.06791223 4.06791223,0.85412331 8.18091496,0 L8.18091496,2.12798366 C5.20745819,2.89413515 2.88207745,5.21046772 2.1043394,8.18091496 L3.36005185e-14,8.18091496 Z M12.4368823,2.12798366 C15.4038238,2.89705539 17.7207418,5.21397346 18.4898136,8.18091496 L20.6177972,8.18091496 C19.7523971,4.07401152 16.5437857,0.865400094 12.4368823,0 L12.4368823,2.12798366 Z M8.18091496,18.5134578 C5.21259933,17.7382985 2.89106515,15.4257976 2.1043394,12.4605265 L6.73512984e-14,12.4605265 C0.845369534,16.5736304 4.06538151,19.784336 8.18091496,20.6177972 L8.18091496,18.5134578 Z M18.4898136,12.4605265 C17.7117234,15.4223004 15.3986561,17.7353676 12.4368823,18.5134578 L12.4368823,20.6177972 C16.5432105,19.7672017 19.7553201,16.5643757 20.6177972,12.4605265 L18.4898136,12.4605265 Z" id="Shape" opacity="0.8"></path>
                    <path d="M970.526059,47.2885258 C971.391459,43.1816223 974.60007,39.9730109 978.706974,39.1076108 L978.706974,41.282883 C975.733517,42.0490345 973.408136,44.3653671 972.630398,47.3358143 L970.526059,47.2885258 Z M982.962941,41.282883 C985.936398,42.0490345 988.261779,44.3653671 989.039517,47.3358143 L991.143856,47.3358143 C990.284076,43.2258684 987.072887,40.0146793 982.962941,39.1548993 L982.962941,41.282883 Z M978.706974,57.6683572 C975.738658,56.8931979 973.417124,54.5806969 972.630398,51.6154259 L970.526059,51.6154259 C971.391459,55.7223293 974.60007,58.9309408 978.706974,59.7963409 L978.706974,57.6683572 Z M989.039517,51.6154259 C988.252791,54.5806969 985.931257,56.8931979 982.962941,57.6683572 L982.962941,59.7963409 C987.072887,58.9365609 990.284076,55.7253718 991.143856,51.6154259 L989.039517,51.6154259 Z" id="Shape" opacity="0.8"></path>
                    <path d="M133.779239,515.1612 C134.639019,511.051254 137.850209,507.840065 141.960154,506.980285 L141.960154,509.084624 C138.983194,509.859445 136.6584,512.18424 135.883579,515.1612 L133.779239,515.1612 Z M146.216122,509.084624 C149.193082,509.859445 151.517876,512.18424 152.292697,515.1612 L154.397037,515.1612 C153.542913,511.048197 150.329124,507.834408 146.216122,506.980285 L146.216122,509.084624 Z M141.960154,525.493743 C138.983194,524.718922 136.6584,522.394128 135.883579,519.417167 L133.779239,519.417167 C134.64464,523.524071 137.853251,526.732682 141.960154,527.598082 L141.960154,525.493743 Z M152.292697,519.417167 C151.517876,522.394128 149.193082,524.718922 146.216122,525.493743 L146.216122,527.598082 C150.326068,526.738302 153.537257,523.527113 154.397037,519.417167 L152.292697,519.417167 Z" id="Shape" opacity="0.8"></path>
                </g>
            </g>
        </g>
    </g>
</svg>