<?xml version="1.0" encoding="UTF-8" standalone="no"?>
<!-- Generator: Adobe Illustrator 16.0.0, SVG Export Plug-In . SVG Version: 6.00 Build 0)  -->

<svg
   version="1.1"
   id="Layer_1"
   x="0px"
   y="0px"
   width="128px"
   height="171px"
   viewBox="0 0 128 171"
   enable-background="new 0 0 128 171"
   xml:space="preserve"
   sodipodi:docname="genealogy-card-default.svg"
   inkscape:version="1.1 (c68e22c387, 2021-05-23)"
   xmlns:inkscape="http://www.inkscape.org/namespaces/inkscape"
   xmlns:sodipodi="http://sodipodi.sourceforge.net/DTD/sodipodi-0.dtd"
   xmlns="http://www.w3.org/2000/svg"
   xmlns:svg="http://www.w3.org/2000/svg"
   xmlns:rdf="http://www.w3.org/1999/02/22-rdf-syntax-ns#"
   xmlns:cc="http://creativecommons.org/ns#"
   xmlns:dc="http://purl.org/dc/elements/1.1/"><defs
   id="defs13" /><sodipodi:namedview
   id="namedview11"
   pagecolor="#ffffff"
   bordercolor="#666666"
   borderopacity="1.0"
   inkscape:pageshadow="2"
   inkscape:pageopacity="0.0"
   inkscape:pagecheckerboard="0"
   showgrid="false"
   inkscape:zoom="4.9707602"
   inkscape:cx="64.074706"
   inkscape:cy="53.412353"
   inkscape:window-width="1920"
   inkscape:window-height="1013"
   inkscape:window-x="-9"
   inkscape:window-y="-9"
   inkscape:window-maximized="1"
   inkscape:current-layer="Group-2335" />
<title
   id="title2">Untitled</title>
<g
   id="Page-1">
	<g
   id="Group-2335">
		<path
   id="Polygon_3"
   fill="#028B43"
   d="M128,121.156c0,2.69-1.354,5.201-3.6,6.681l-56,36.886c-2.67,1.759-6.13,1.759-8.8,0    l-56-36.886c-2.247-1.479-3.6-3.99-3.6-6.681V45.465c0-2.69,1.353-5.201,3.6-6.681L59.6,1.9c2.67-1.758,6.13-1.758,8.8,0    l56,36.886c2.246,1.479,3.6,3.989,3.6,6.679V121.156z"
   style="fill:#828d99;fill-opacity:1" />
		<path
   id="Polygon_5"
   fill="#028B43"
   d="M128,125.156c0,2.69-1.354,5.201-3.6,6.681l-56,36.886c-2.67,1.759-6.13,1.759-8.8,0    l-56-36.886c-2.247-1.479-3.6-3.99-3.6-6.681V49.465c0-2.69,1.353-5.201,3.6-6.681L59.6,5.9c2.67-1.758,6.13-1.758,8.8,0    l56,36.886c2.246,1.479,3.6,3.989,3.6,6.679V125.156z"
   style="fill:#828d99;fill-opacity:1" />
		<path
   id="Subtraction_1"
   fill="#FFFFFF"
   d="M64,161.581c-1.593,0.001-3.15-0.474-4.471-1.366l-56-37.736    c-2.208-1.484-3.53-3.972-3.529-6.633v-77.74c-0.002-2.661,1.321-5.149,3.529-6.635L21.3,19.499h85.4l17.771,11.972    c2.207,1.486,3.531,3.973,3.529,6.635v77.74c0.002,2.661-1.321,5.148-3.529,6.635l-56,37.735    C67.15,161.107,65.594,161.583,64,161.581z M59.714,150.23c-0.209-0.002-0.409,0.084-0.55,0.238    c-0.119,0.13-0.178,0.304-0.162,0.479c0.018,0.18,0.11,0.344,0.255,0.452l4.279,3.3c0.131,0.099,0.292,0.152,0.456,0.151h0.048    c0.142,0.001,0.28-0.039,0.4-0.113l4.279-3.189c0.154-0.107,0.256-0.275,0.277-0.462c0.017-0.185-0.048-0.367-0.178-0.5    c-0.123-0.139-0.295-0.226-0.48-0.243c-0.025,0-0.051,0-0.076,0c-0.162,0-0.318,0.052-0.449,0.148l-3.821,2.852l-3.822-2.957    C60.039,150.286,59.879,150.23,59.714,150.23z"
   style="fill:#f6f6f6;fill-opacity:1" />
		<rect
   id="Rectangle_2051"
   y="51.998"
   fill="#FFFFFF"
   width="128"
   height="54"
   style="fill:#f5f5f5;fill-opacity:1" />
	</g>
</g>
<metadata
   id="metadata830"><rdf:RDF><cc:Work
       rdf:about=""><dc:title>Untitled</dc:title></cc:Work></rdf:RDF></metadata></svg>
