<?xml version="1.0" encoding="utf-8"?>
<!-- Generator: Adobe Illustrator 16.0.0, SVG Export Plug-In . SVG Version: 6.00 Build 0)  -->
<!DOCTYPE svg PUBLIC "-//W3C//DTD SVG 1.1//EN" "http://www.w3.org/Graphics/SVG/1.1/DTD/svg11.dtd">
<svg version="1.1" id="Layer_1" xmlns="http://www.w3.org/2000/svg" xmlns:xlink="http://www.w3.org/1999/xlink" x="0px" y="0px"
	 width="12px" height="11px" viewBox="0 0 12 11" enable-background="new 0 0 12 11" xml:space="preserve">
<title>Untitled</title>
<g id="Page-1">
	<g id="Group-2334">
		<g id="Group_2333">
			<g id="Group_2218" transform="translate(0.052000, 0.915000)">
				<path id="Path_2184" fill="#028B43" d="M5.956,9.8C4.193,9.832,2.55,8.911,1.655,7.392S0.754,3.989,1.637,2.463
					C2.52,0.937,4.157,0.004,5.92,0.023c1.762-0.032,3.407,0.888,4.301,2.408s0.9,3.404,0.018,4.929
					C9.356,8.887,7.719,9.819,5.956,9.8L5.956,9.8z"/>
				<path id="Path_2185" fill="#FFFFFF" d="M6.036,8.796C5.001,8.808,4.003,8.407,3.263,7.683C2.523,6.959,2.101,5.97,2.091,4.935
					c0.006-2.159,1.758-3.907,3.917-3.908C7.043,1.016,8.04,1.416,8.78,2.14s1.162,1.713,1.173,2.748
					C9.947,7.048,8.195,8.795,6.036,8.796z"/>
				<ellipse id="Ellipse_67" fill="#028B43" cx="5.949" cy="4.819" rx="3.128" ry="3.063"/>
			</g>
		</g>
	</g>
</g>
</svg>
