<svg xmlns="http://www.w3.org/2000/svg" width="14" height="13.793" viewBox="0 0 14 13.793">
  <path id="modal_refresh" d="M333.047,711.027a.863.863,0,0,0-.857.739,5.25,5.25,0,0,1-6.321,4.3,5.162,5.162,0,0,1-2.782-1.6h1.288a.861.861,0,1,0,0-1.721h-3.5a.867.867,0,0,0-.875.86v3.447a.875.875,0,0,0,1.75,0v-1.487a7.024,7.024,0,0,0,12.17-3.56.869.869,0,0,0-.873-.98Zm.07-6.885a.87.87,0,0,0-.875.86v1.481a7.052,7.052,0,0,0-6.207-2.28,6.978,6.978,0,0,0-5.963,5.854.875.875,0,0,0,1.732.238,5.265,5.265,0,0,1,9.092-2.712h-1.271a.861.861,0,1,0,0,1.721h3.5a.884.884,0,0,0,.586-.223.859.859,0,0,0,.289-.637V705a.87.87,0,0,0-.883-.857Z" transform="translate(-320 -704.136)" fill="#ff364a" fill-rule="evenodd"/>
</svg>
