<svg version="1.2" xmlns="http://www.w3.org/2000/svg" viewBox="0 0 128 55" width="128" height="55">
	<title>genealogy-card-bg</title>
	<style>
		.s0 { fill: #2a4fd6 } 
		.s1 { fill: #b1b1b1 } 
		.s2 { fill: #ffffff } 
	</style>
	<path id="Polygon_3" class="s0" d="m128 5.2c0 2.6-1.4 5.2-3.6 6.6l-56 36.9c-2.7 1.8-6.1 1.8-8.8 0l-56-36.9c-2.2-1.4-3.6-4-3.6-6.6v-75.7c0-2.7 1.4-5.2 3.6-6.7l56-36.9c2.7-1.8 6.1-1.8 8.8 0l56 36.9c2.2 1.5 3.6 4 3.6 6.7z"/>
	<path id="Polygon_silver" class="s1" d="m128 9.2c0 2.6-1.4 5.2-3.6 6.6l-56 36.9c-2.7 1.8-6.1 1.8-8.8 0l-56-36.9c-2.2-1.4-3.6-4-3.6-6.6v-75.7c0-2.7 1.4-5.2 3.6-6.7l56-36.9c2.7-1.8 6.1-1.8 8.8 0l56 36.9c2.2 1.5 3.6 4 3.6 6.7z"/>
	<path id="Subtraction_1" fill-rule="evenodd" class="s2" d="m64 45.6c-1.6 0-3.1-0.5-4.5-1.4l-56-37.7c-2.2-1.5-3.5-4-3.5-6.7v-77.7c0-2.7 1.3-5.1 3.5-6.6l17.8-12h85.4l17.8 12c2.2 1.5 3.5 3.9 3.5 6.6v77.7c0 2.7-1.3 5.2-3.5 6.7l-56 37.7c-1.3 0.9-2.9 1.4-4.5 1.4zm-4.3-11.4q-0.3 0-0.5 0.3-0.2 0.2-0.2 0.4 0 0.3 0.3 0.5l4.2 3.3q0.2 0.1 0.5 0.2 0.3-0.1 0.4-0.2l4.3-3.2q0.3-0.1 0.3-0.4 0-0.3-0.2-0.5-0.2-0.2-0.5-0.3 0 0 0 0-0.3 0-0.5 0.2l-3.8 2.8-3.8-2.9q-0.2-0.2-0.5-0.2z"/>
</svg>