<?xml version="1.0" encoding="UTF-8"?>
<svg width="15px" height="15px" viewBox="0 0 15 15" version="1.1" xmlns="http://www.w3.org/2000/svg" xmlns:xlink="http://www.w3.org/1999/xlink">
    <title>archive</title>
    <defs>
        <filter id="filter-1">
            <feColorMatrix in="SourceGraphic" type="matrix" values="0 0 0 0 0.976471 0 0 0 0 0.686275 0 0 0 0 0.243137 0 0 0 1.000000 0"></feColorMatrix>
        </filter>
    </defs>
    <g id="Page-1" stroke="none" stroke-width="1" fill="none" fill-rule="evenodd">
        <g id="5b.-buat-pesan" transform="translate(-1197.000000, -191.000000)">
            <g id="Group-12" transform="translate(302.000000, 166.000000)">
                <g id="Group-2-Copy" transform="translate(878.000000, 15.000000)">
                    <g id="archive" transform="translate(17.000000, 9.000000)" filter="url(#filter-1)">
                        <g transform="translate(0.000000, 1.000000)">
                            <path d="M14.8380026,4.72305787 C14.7041169,4.56488531 14.5075072,4.47418291 14.2986514,4.47418291 L0.701318921,4.47418291 C0.492638952,4.47418291 0.296204978,4.56488531 0.162319332,4.72288209 C0.0373691609,4.87039068 -0.019085465,5.06228367 0.00572878937,5.25279972 L0.808456735,13.6299983 C0.809159854,13.6364728 0.809862974,13.6429181 0.810741873,13.6492168 C0.881346776,14.1777282 1.33017131,14.5762211 1.85484484,14.5762211 L13.1451841,14.5762211 C13.6967812,14.5762211 14.1567678,14.1537929 14.1915429,13.6299983 L14.9942708,5.2529755 C15.0190558,5.06248875 14.962777,4.87056646 14.8380026,4.72305787 Z M13.147938,13.5286612 C13.1474106,13.5277823 13.1448032,13.5272549 13.1451548,13.5276065 L1.86410258,13.5291885 C1.8595616,13.5270792 1.85291126,13.5192277 1.8508312,13.5131047 L1.08492913,5.52300264 L13.9150119,5.52300264 L13.147938,13.5286612 Z" id="Shape" fill="#000000" fill-rule="nonzero"></path>
                            <path d="M13.6750431,2.46027326 C13.5422122,2.3073448 13.3490887,2.21960136 13.1449497,2.21960136 L1.87212986,2.21960136 C1.66816665,2.21960136 1.47416429,2.31065532 1.3397806,2.46935522 C1.2046938,2.6291098 1.14630559,2.83708665 1.17917642,3.03334485 L1.49376375,5.07819175 L2.53033747,4.91878873 L2.2763942,3.26824531 L12.7409198,3.26824531 L12.4871523,4.91878873 L13.5235502,5.07819175 L13.8388406,3.02739763 C13.8681666,2.82085631 13.8085772,2.61408063 13.6750431,2.46027326 Z" id="Path" fill="#000000" fill-rule="nonzero"></path>
                            <path d="M12.1202704,0.24102346 C11.9874395,0.0879192177 11.7941402,8.32660599e-16 11.5896497,8.32660599e-16 L3.42778146,8.32660599e-16 C3.22381825,8.32660599e-16 3.0298159,0.0910539582 2.89543221,0.249753859 C2.76016962,0.409508439 2.70195719,0.617485289 2.7350038,0.815149721 L3.04959113,2.82504573 L4.08563752,2.66285953 L3.8329247,1.04864394 L11.180903,1.04864394 L10.9150652,2.65846504 L11.9497054,2.82938163 L12.2835113,0.808645867 C12.3132181,0.601752993 12.2536287,0.395006602 12.1202704,0.24102346 Z" id="Path" fill="#000000" fill-rule="nonzero"></path>
                            <path d="M9.70212574,7.77740841 L5.29784461,7.77740841 C5.00824732,7.77740841 4.77352263,8.01213309 4.77352263,8.30173038 C4.77352263,8.59132767 5.00824732,8.82605235 5.29784461,8.82605235 L9.70212574,8.82605235 C9.99172303,8.82605235 10.2264477,8.59132767 10.2264477,8.30173038 C10.2264477,8.01213309 9.99172303,7.77740841 9.70212574,7.77740841 Z" id="Path" fill="#000000" fill-rule="nonzero"></path>
                        </g>
                    </g>
                </g>
            </g>
        </g>
    </g>
</svg>