<?xml version="1.0" encoding="UTF-8"?>
<svg width="13px" height="15px" viewBox="0 0 13 15" version="1.1" xmlns="http://www.w3.org/2000/svg" xmlns:xlink="http://www.w3.org/1999/xlink">
    <title>bold</title>
    <defs>
        <filter id="filter-1">
            <feColorMatrix in="SourceGraphic" type="matrix" values="0 0 0 0 0.447059 0 0 0 0 0.494118 0 0 0 0 0.549020 0 0 0 1.000000 0"></feColorMatrix>
        </filter>
    </defs>
    <g id="Page-1" stroke="none" stroke-width="1" fill="none" fill-rule="evenodd">
        <g id="5a.-buat-pesan" transform="translate(-1186.000000, -586.000000)">
            <g id="Group-12" transform="translate(302.000000, 166.000000)">
                <g id="Group-21" transform="translate(20.000000, 85.000000)">
                    <g id="bold" transform="translate(864.000000, 335.000000)" filter="url(#filter-1)">
                        <g transform="translate(0.000000, 0.000000)">
                            <path d="M8.45269052,14.8702578 C10.9084806,14.5912892 12.3035576,12.5973806 12.3035576,10.4529584 C12.3035576,8.91114684 11.5465958,7.66330245 10.2377902,6.97629524 C11.1148874,6.26998315 11.6336874,5.17013299 11.6336874,3.98319121 C11.6336874,2.09207582 10.2656783,0.480339078 8.38056823,0.149929969 C7.05374673,-0.0808203235 5.04533743,0.0321087585 0,0.00137915873 L0,14.9982734 C1.17496045,15.0043665 7.27919477,15.0011735 8.45269052,14.8702578 Z M3.63288902,3.22368088 C4.0581527,3.22687395 6.56881079,3.20879944 7.07395972,3.26829593 C7.74766737,3.35283894 8.0754986,3.71843037 8.0754986,4.38613272 C8.0754986,5.23534184 7.46099448,5.48853148 6.94392283,5.55160186 C6.45579383,5.61262164 4.41545387,5.59240866 3.63288902,5.5962169 L3.63288902,3.22368088 Z M3.63288902,8.83993268 C4.39890265,8.86163967 7.00716897,8.76558404 7.7107567,9.01543414 C8.28621167,9.22184096 8.57798175,9.65996479 8.57798175,10.3186445 C8.57798175,11.0481283 8.21280044,11.518007 7.55025386,11.6420386 L7.53824325,11.6446165 C7.00043131,11.7598598 4.61078749,11.7085364 3.63288902,11.7209864 L3.63288902,8.83993268 Z" id="Shape" fill="#000000" fill-rule="nonzero"></path>
                        </g>
                    </g>
                </g>
            </g>
        </g>
    </g>
</svg>