<?xml version="1.0" encoding="UTF-8"?>
<svg width="10px" height="10px" viewBox="0 0 10 10" version="1.1" xmlns="http://www.w3.org/2000/svg" xmlns:xlink="http://www.w3.org/1999/xlink">
    <title>cancel</title>
    <g id="Page-1" stroke="none" stroke-width="1" fill="none" fill-rule="evenodd">
        <g id="5c.-buat-pesan" transform="translate(-487.000000, -278.000000)" fill-rule="nonzero">
            <g id="Group-12" transform="translate(302.000000, 166.000000)">
                <g id="Group-21" transform="translate(20.000000, 85.000000)">
                    <g id="Group-6" transform="translate(50.000000, 10.000000)">
                        <g id="Group-7" transform="translate(0.000000, 13.000000)">
                            <g id="Group-5" transform="translate(7.000000, 1.000000)">
                                <g id="cancel" transform="translate(108.000000, 3.000000)">
                                    <path d="M8.53730123,1.46290884 C6.58634575,-0.487636279 3.41354189,-0.487636279 1.46258641,1.46290884 C-0.487528804,3.41345395 -0.487528804,6.58707854 1.46258641,8.53762365 C2.43806415,9.51269103 3.71910169,10 5.00015877,10 C6.28121585,10 7.56182349,9.51267149 8.53730123,8.53762365 C10.4878463,6.58709808 10.4878463,3.41345395 8.53730123,1.46290884 Z" id="Path" fill="#F54748"></path>
                                    <path d="M7.06323947,6.47411305 C7.22622945,6.63710303 7.22622945,6.90057191 7.06323947,7.06356189 C6.98194966,7.1448517 6.87523724,7.18571156 6.76850528,7.18571156 C6.66179286,7.18571156 6.5550609,7.1448517 6.47377109,7.06356189 L5.00013923,5.58950013 L3.52691772,7.06313199 C3.44521756,7.1444218 3.3384856,7.18528166 3.23218354,7.18528166 C3.12547112,7.18528166 3.01873916,7.1444218 2.93744935,7.06313199 C2.77445937,6.90014201 2.77445937,6.63626278 2.93744935,6.47368316 L4.41067085,5.00005129 L2.93703899,3.52641943 C2.77404901,3.36342945 2.77404901,3.09955022 2.93703899,2.9369706 C3.09961861,2.77398062 3.36349785,2.77398062 3.52648783,2.9369706 L5.00011969,4.41060246 L6.47375155,2.9369706 C6.63674153,2.77398062 6.90021041,2.77398062 7.06320039,2.9369706 C7.22619037,3.09955022 7.22619037,3.36342945 7.06320039,3.52641943 L5.58956852,5.00005129 L7.06323947,6.47411305 Z" id="Path" fill="#FFFFFF"></path>
                                </g>
                            </g>
                        </g>
                    </g>
                </g>
            </g>
        </g>
    </g>
</svg>