<?xml version="1.0" encoding="UTF-8"?>
<svg width="15px" height="15px" viewBox="0 0 15 15" version="1.1" xmlns="http://www.w3.org/2000/svg" xmlns:xlink="http://www.w3.org/1999/xlink">
    <title>draft</title>
    <defs>
        <filter id="filter-1">
            <feColorMatrix in="SourceGraphic" type="matrix" values="0 0 0 0 0.227451 0 0 0 0 0.584314 0 0 0 0 1.000000 0 0 0 1.000000 0"></feColorMatrix>
        </filter>
    </defs>
    <g id="Page-1" stroke="none" stroke-width="1" fill="none" fill-rule="evenodd">
        <g id="5b.-buat-pesan" transform="translate(-1096.000000, -191.000000)">
            <g id="Group-12" transform="translate(302.000000, 166.000000)">
                <g id="Group-2" transform="translate(778.000000, 15.000000)">
                    <g id="draft" transform="translate(16.000000, 9.000000)" filter="url(#filter-1)">
                        <g transform="translate(0.000000, 1.000000)">
                            <path d="M14.4140625,0 L0.5859375,0 C0.262298584,0 0,0.262298584 0,0.5859375 L0,14.4140625 C0,14.7377014 0.262298584,15 0.5859375,15 L14.4140625,15 C14.7377014,15 15,14.7377014 15,14.4140625 L15,0.5859375 C15,0.262298584 14.7377014,0 14.4140625,0 Z M13.828125,13.828125 L1.171875,13.828125 L1.171875,1.171875 L13.828125,1.171875 L13.828125,13.828125 Z M5.33203125,4.04296875 C5.33203125,3.71932983 5.59432983,3.45703125 5.91796875,3.45703125 L11.7480469,3.45703125 C12.0716858,3.45703125 12.3339844,3.71932983 12.3339844,4.04296875 C12.3339844,4.36660767 12.0716858,4.62890625 11.7480469,4.62890625 L5.91796875,4.62890625 C5.59432983,4.62890625 5.33203125,4.36660767 5.33203125,4.04296875 Z M2.66601562,7.5 C2.66601562,7.17636108 2.92831421,6.9140625 3.25195312,6.9140625 L11.7480469,6.9140625 C12.0716858,6.9140625 12.3339844,7.17636108 12.3339844,7.5 C12.3339844,7.82363892 12.0716858,8.0859375 11.7480469,8.0859375 L3.25195312,8.0859375 C2.92831421,8.0859375 2.66601562,7.82363892 2.66601562,7.5 Z M2.66601562,10.9570312 C2.66601562,10.6333923 2.92831421,10.3710938 3.25195312,10.3710938 L11.7480469,10.3710938 C12.0716858,10.3710938 12.3339844,10.6333923 12.3339844,10.9570312 C12.3339844,11.2806702 12.0716858,11.5429688 11.7480469,11.5429688 L3.25195312,11.5429688 C2.92831421,11.5429688 2.66601562,11.2806702 2.66601562,10.9570312 Z" id="Shape" fill="#000000" fill-rule="nonzero"></path>
                        </g>
                    </g>
                </g>
            </g>
        </g>
    </g>
</svg>