<?xml version="1.0" encoding="UTF-8"?>
<svg width="19px" height="16px" viewBox="0 0 19 16" version="1.1" xmlns="http://www.w3.org/2000/svg" xmlns:xlink="http://www.w3.org/1999/xlink">
    <title>send</title>
    <defs>
        <filter id="filter-1">
            <feColorMatrix in="SourceGraphic" type="matrix" values="0 0 0 0 1.000000 0 0 0 0 1.000000 0 0 0 0 1.000000 0 0 0 1.000000 0"></feColorMatrix>
        </filter>
    </defs>
    <g id="Page-1" stroke="none" stroke-width="1" fill="none" fill-rule="evenodd">
        <g id="5a.-buat-pesan" transform="translate(-1194.000000, -648.000000)">
            <g id="Group-12" transform="translate(302.000000, 166.000000)">
                <g id="Group-21" transform="translate(20.000000, 85.000000)">
                    <g id="Group-3" transform="translate(844.000000, 385.000000)">
                        <g id="send" transform="translate(28.000000, 12.000000)" filter="url(#filter-1)">
                            <g transform="translate(0.000000, 0.000000)">
                                <path d="M17.4388183,6.34616467 L2.47773802,0.138185919 C1.84745126,-0.123374215 1.13538621,-0.00831238355 0.619473153,0.438317299 C0.103560095,0.885019416 -0.112221582,1.57328981 0.0564053884,2.234506 L1.38807315,7.45672683 L7.90809871,7.45672683 C8.20812144,7.45672683 8.45139192,7.69996109 8.45139192,8.00002004 C8.45139192,8.30004277 8.20815766,8.54331325 7.90809871,8.54331325 L1.38807315,8.54331325 L0.0564053884,13.7654979 C-0.112221582,14.4267503 0.103523878,15.1150207 0.619473153,15.5616866 C1.13643651,16.0092217 1.84857399,16.122871 2.47777424,15.8618179 L17.4388545,9.65387541 C18.1200264,9.37123691 18.5431511,8.73750952 18.5431511,8.00002004 C18.5431511,7.26253056 18.1200264,6.62876695 17.4388183,6.34616467 Z" id="Path" fill="#000000" fill-rule="nonzero"></path>
                            </g>
                        </g>
                    </g>
                </g>
            </g>
        </g>
    </g>
</svg>