<?xml version="1.0" encoding="UTF-8"?>
<svg width="19px" height="16px" viewBox="0 0 19 16" version="1.1" xmlns="http://www.w3.org/2000/svg" xmlns:xlink="http://www.w3.org/1999/xlink">
    <title>subjek</title>
    <defs>
        <filter id="filter-1">
            <feColorMatrix in="SourceGraphic" type="matrix" values="0 0 0 0 1.000000 0 0 0 0 1.000000 0 0 0 0 1.000000 0 0 0 1.000000 0"></feColorMatrix>
        </filter>
    </defs>
    <g id="Page-1" stroke="none" stroke-width="1" fill="none" fill-rule="evenodd">
        <g id="5a.-buat-pesan" transform="translate(-333.000000, -328.000000)">
            <g id="Group-12" transform="translate(302.000000, 166.000000)">
                <g id="Group-21" transform="translate(20.000000, 85.000000)">
                    <g id="subjek" transform="translate(0.000000, 60.000000)" filter="url(#filter-1)">
                        <g transform="translate(11.000000, 17.000000)">
                            <path d="M16.1350347,14.4633334 L3.07333314,14.4633334 C2.22584258,14.4633334 1.53666657,13.7741217 1.53666657,12.9266669 C1.53666657,12.079212 2.22587833,11.3900003 3.07333314,11.3900003 L4.60999971,11.3900003 C5.03410252,11.3900003 5.378333,11.0457698 5.378333,10.621667 C5.378333,10.1975642 5.03410252,9.85333372 4.60999971,9.85333372 L3.07333314,9.85333372 C1.37838777,9.85333372 0,11.2317215 0,12.9266669 C0,14.6216122 1.37838777,16 3.07333314,16 L16.1350347,16 C16.5591376,16 16.903368,15.6557695 16.903368,15.2316667 C16.903368,14.8075639 16.5591376,14.4633334 16.1350347,14.4633334 Z" id="Path" fill="#000000" fill-rule="nonzero"></path>
                            <path d="M17.4473509,0.85918638 C16.3010005,-0.28562664 14.4354772,-0.287164022 13.2868029,0.85918638 L12.1112422,2.03474703 C12.096655,2.04704609 12.0789572,2.05165823 12.0651565,2.06549466 C12.0513558,2.0793311 12.046708,2.09699311 12.0344089,2.11158036 L8.0920976,6.05389166 C7.33298861,6.81453803 6.91499957,7.82567036 6.91499957,8.90058614 L6.91499957,10.621667 C6.91499957,11.0457698 7.25923004,11.3900003 7.68333285,11.3900003 L9.40441371,11.3900003 C10.4793295,11.3900003 11.4904261,10.9720112 12.2526456,10.2121514 L17.4466,5.01819698 C18.5921639,3.87184658 18.5921639,2.00553678 17.4473509,0.85918638 Z M11.1669681,9.1249366 C10.6959931,9.59437429 10.0697782,9.85333372 9.40441371,9.85333372 L8.45166614,9.85333372 L8.45166614,8.90058614 C8.45166614,8.23522167 8.71058981,7.60900681 9.17927669,7.13878254 L12.6160397,3.70201954 L14.6029446,5.68892441 L11.1669681,9.1249366 Z M16.360136,3.93176871 L15.6893728,4.60253189 L13.702468,2.61562702 L14.3724446,1.9456504 C14.920253,1.39859281 15.8122919,1.39937938 16.3593495,1.9456504 C16.9064428,2.49345881 16.9064428,3.38471112 16.360136,3.93176871 Z" id="Shape" fill="#000000" fill-rule="nonzero"></path>
                        </g>
                    </g>
                </g>
            </g>
        </g>
    </g>
</svg>