<?xml version="1.0" encoding="UTF-8"?>
<svg width="13px" height="15px" viewBox="0 0 13 15" version="1.1" xmlns="http://www.w3.org/2000/svg" xmlns:xlink="http://www.w3.org/1999/xlink">
    <title>trash</title>
    <defs>
        <filter id="filter-1">
            <feColorMatrix in="SourceGraphic" type="matrix" values="0 0 0 0 0.984314 0 0 0 0 0.356863 0 0 0 0 0.364706 0 0 0 1.000000 0"></feColorMatrix>
        </filter>
    </defs>
    <g id="Page-1" stroke="none" stroke-width="1" fill="none" fill-rule="evenodd">
        <g id="5b.-buat-pesan" transform="translate(-991.000000, -191.000000)">
            <g id="Group-12" transform="translate(302.000000, 166.000000)">
                <g id="Group-2-Copy-2" transform="translate(673.000000, 15.000000)">
                    <g id="trash" transform="translate(16.000000, 9.000000)" filter="url(#filter-1)">
                        <g transform="translate(0.000000, 1.000000)">
                            <path d="M11.015625,1.875 L8.4375,1.875 L8.4375,1.40625 C8.4375,0.630849609 7.80665039,0 7.03125,0 L5.15625,0 C4.38084961,0 3.75,0.630849609 3.75,1.40625 L3.75,1.875 L1.171875,1.875 C0.525703125,1.875 0,2.40070313 0,3.046875 L0,4.6875 C0,4.94636719 0.209882813,5.15625 0.46875,5.15625 L0.724921875,5.15625 L1.12989258,13.6606348 C1.16566406,14.4116895 1.78265625,15 2.53453125,15 L9.65296875,15 C10.404873,15 11.0218652,14.4116895 11.0576074,13.6606348 L11.4625781,5.15625 L11.71875,5.15625 C11.9776172,5.15625 12.1875,4.94636719 12.1875,4.6875 L12.1875,3.046875 C12.1875,2.40070313 11.6617969,1.875 11.015625,1.875 Z M4.6875,1.40625 C4.6875,1.14779297 4.89779297,0.9375 5.15625,0.9375 L7.03125,0.9375 C7.28970703,0.9375 7.5,1.14779297 7.5,1.40625 L7.5,1.875 L4.6875,1.875 L4.6875,1.40625 Z M0.9375,3.046875 C0.9375,2.91764648 1.04264648,2.8125 1.171875,2.8125 L11.015625,2.8125 C11.1448535,2.8125 11.25,2.91764648 11.25,3.046875 L11.25,4.21875 C11.1055371,4.21875 1.53612305,4.21875 0.9375,4.21875 L0.9375,3.046875 Z M10.1211621,13.6160449 C10.1092383,13.8663867 9.90357422,14.0625 9.65296875,14.0625 L2.53453125,14.0625 C2.28389648,14.0625 2.07823242,13.8663867 2.06633789,13.6160449 L1.66347656,5.15625 L10.5240234,5.15625 L10.1211621,13.6160449 Z" id="Shape" fill="#000000" fill-rule="nonzero"></path>
                            <path d="M6.09375,13.125 C6.35261719,13.125 6.5625,12.9151172 6.5625,12.65625 L6.5625,6.5625 C6.5625,6.30363281 6.35261719,6.09375 6.09375,6.09375 C5.83488281,6.09375 5.625,6.30363281 5.625,6.5625 L5.625,12.65625 C5.625,12.9151172 5.83485352,13.125 6.09375,13.125 Z" id="Path" fill="#000000" fill-rule="nonzero"></path>
                            <path d="M8.4375,13.125 C8.69636719,13.125 8.90625,12.9151172 8.90625,12.65625 L8.90625,6.5625 C8.90625,6.30363281 8.69636719,6.09375 8.4375,6.09375 C8.17863281,6.09375 7.96875,6.30363281 7.96875,6.5625 L7.96875,12.65625 C7.96875,12.9151172 8.17860352,13.125 8.4375,13.125 Z" id="Path" fill="#000000" fill-rule="nonzero"></path>
                            <path d="M3.75,13.125 C4.00886719,13.125 4.21875,12.9151172 4.21875,12.65625 L4.21875,6.5625 C4.21875,6.30363281 4.00886719,6.09375 3.75,6.09375 C3.49113281,6.09375 3.28125,6.30363281 3.28125,6.5625 L3.28125,12.65625 C3.28125,12.9151172 3.49110352,13.125 3.75,13.125 Z" id="Path" fill="#000000" fill-rule="nonzero"></path>
                        </g>
                    </g>
                </g>
            </g>
        </g>
    </g>
</svg>