<?xml version="1.0" encoding="UTF-8"?>
<svg width="14px" height="16px" viewBox="0 0 14 16" version="1.1" xmlns="http://www.w3.org/2000/svg" xmlns:xlink="http://www.w3.org/1999/xlink">
    <title>tujuan-pesan</title>
    <g id="Page-1" stroke="none" stroke-width="1" fill="none" fill-rule="evenodd">
        <g id="5a.-buat-pesan" transform="translate(-335.000000, -268.000000)" fill="#FFFFFF">
            <g id="Group-12" transform="translate(302.000000, 166.000000)">
                <g id="Group-21" transform="translate(20.000000, 85.000000)">
                    <g id="tujuan-pesan" transform="translate(13.000000, 17.000000)">
                        <path d="M12.9672871,9.96762921 C12.1945408,9.39767889 11.3440439,8.94150569 10.4417733,8.61304274 C11.8548592,7.28345665 12.3669952,5.2541661 11.7540508,3.4132668 C11.1411064,1.57236751 9.51471006,0.255121019 7.58663544,0.0380051487 C7.19555497,-0.0126683829 6.79957055,-0.0126683829 6.40849008,0.0380051487 C4.48066332,0.255489469 2.85457536,1.57264617 2.24154076,3.41329933 C1.62850617,5.25395248 2.14010747,7.28307247 3.55255023,8.61304274 C2.65052789,8.94150444 1.80029553,9.39768057 1.02783845,9.96762921 C0.381643141,10.4424281 0,11.1964316 0,11.9983059 C0,12.8001802 0.381643141,13.5541837 1.02783845,14.0289826 C4.57475179,16.6541484 9.42037374,16.6541484 12.9672871,14.0289826 C13.6128634,13.5537778 13.9940222,12.799922 13.9940222,11.9983059 C13.9940222,11.1966898 13.6128634,10.442834 12.9672871,9.96762921 L12.9672871,9.96762921 Z M3.99124464,4.99519813 C3.98933945,3.45496577 5.15784081,2.16530963 6.69079584,2.01574951 C6.89738805,1.98903935 7.10655953,1.98903935 7.31315173,2.01574951 C8.91882192,2.18934395 10.0987842,3.60309673 9.9824517,5.21392836 C9.86611924,6.82476 8.4952617,8.05429543 6.88131007,7.99537239 C5.26735844,7.93644934 3.98980802,6.61022436 3.99124464,4.99519813 L3.99124464,4.99519813 Z M11.7706956,12.4185565 C8.93366077,14.5196531 5.05665272,14.5196531 2.2196179,12.4185565 C2.08288895,12.3203186 2.00182453,12.1622561 2.00182453,11.9938949 C2.00182453,11.8255336 2.08288895,11.6674712 2.2196179,11.5692332 C5.05708345,9.4694424 8.93323004,9.4694424 11.7706956,11.5692332 C11.9071057,11.667683 11.9879185,11.8256686 11.9879185,11.9938949 C11.9879185,12.1621212 11.9071057,12.3201067 11.7706956,12.4185565 L11.7706956,12.4185565 Z" id="profile"></path>
                    </g>
                </g>
            </g>
        </g>
    </g>
</svg>