<?xml version="1.0" encoding="UTF-8"?>
<svg width="13px" height="15px" viewBox="0 0 13 15" version="1.1" xmlns="http://www.w3.org/2000/svg" xmlns:xlink="http://www.w3.org/1999/xlink">
    <title>underline</title>
    <defs>
        <filter id="filter-1">
            <feColorMatrix in="SourceGraphic" type="matrix" values="0 0 0 0 0.447059 0 0 0 0 0.494118 0 0 0 0 0.549020 0 0 0 1.000000 0"></feColorMatrix>
        </filter>
    </defs>
    <g id="Page-1" stroke="none" stroke-width="1" fill="none" fill-rule="evenodd">
        <g id="5a.-buat-pesan" transform="translate(-1238.000000, -586.000000)">
            <g id="Group-12" transform="translate(302.000000, 166.000000)">
                <g id="Group-21" transform="translate(20.000000, 85.000000)">
                    <g id="underline" transform="translate(864.000000, 335.000000)" filter="url(#filter-1)">
                        <g transform="translate(52.875232, 0.000000)">
                            <polygon id="Path" fill="#444444" fill-rule="nonzero" points="0 14.0625 11.25 14.0625 11.25 15 0 15"></polygon>
                            <path d="M8.4375,0 L8.4375,7.875 C8.4375,9.28125 7.40625,10.3125 6,10.3125 L5.25,10.3125 C3.84375,10.3125 2.8125,9.28125 2.8125,7.875 L2.8125,0 L0,0 L0,7.875 C0,10.78125 2.34375,13.125 5.25,13.125 L6.09375,13.125 C9,13.125 11.34375,10.78125 11.34375,7.875 L11.34375,0 L8.4375,0 Z" id="Path" fill="#444444" fill-rule="nonzero"></path>
                        </g>
                    </g>
                </g>
            </g>
        </g>
    </g>
</svg>