<?xml version="1.0" encoding="UTF-8"?>
<svg width="128px" height="171px" viewBox="0 0 128 171" version="1.1" xmlns="http://www.w3.org/2000/svg" xmlns:xlink="http://www.w3.org/1999/xlink">
    <title>Untitled</title>
    <g id="Page-1" stroke="none" stroke-width="1" fill="none" fill-rule="evenodd">
        <g id="Group-2335" fill-rule="nonzero">
            <path d="M101.8445,19.3115 C104.5352,19.3115 107.045615,20.6643226 108.5255,22.9115 L145.4115,78.9115 C147.169744,81.58136 147.169744,85.04164 145.4115,87.7115 L108.5255,143.7115 C107.045615,145.958677 104.5352,147.3115 101.8445,147.3115 L26.1535,147.3115 C23.4628002,147.3115 20.9523849,145.958677 19.4725,143.7115 L-17.4115,87.7115 C-19.1697437,85.04164 -19.1697437,81.58136 -17.4115,78.9115 L19.4745,22.9115 C20.9539948,20.6649147 23.4635093,19.3115 26.1535,19.3115 L101.8445,19.3115 Z" id="Polygon_3" fill="#6184d8" transform="translate(64.000000, 83.311500) rotate(90.000000) translate(-64.000000, -83.311500) "></path>
            <path d="M101.8445,23.3115 C104.5352,23.3115 107.045615,24.6643226 108.5255,26.9115 L145.4115,82.9115 C147.169744,85.58136 147.169744,89.04164 145.4115,91.7115 L108.5255,147.7115 C107.045615,149.958677 104.5352,151.3115 101.8445,151.3115 L26.1535,151.3115 C23.4628002,151.3115 20.9523849,149.958677 19.4725,147.7115 L-17.4115,91.7115 C-19.1697437,89.04164 -19.1697437,85.58136 -17.4115,82.9115 L19.4745,26.9115 C20.9539948,24.6649147 23.4635093,23.3115 26.1535,23.3115 L101.8445,23.3115 Z" id="Polygon_5" fill="#6184d8" transform="translate(64.000000, 87.311500) rotate(90.000000) translate(-64.000000, -87.311500) "></path>
            <path d="M63.9999983,161.581006 C62.4066629,161.582583 60.8493875,161.106797 59.529,160.215 L3.529,122.479 C1.32151118,120.993611 -0.00161121636,118.506711 -1.72409999e-06,115.846 L-1.72409999e-06,38.106 C-0.00174507185,35.4447134 1.32133061,32.9571512 3.529,31.471 L21.3,19.499 L106.7,19.499 L124.47,31.471 C126.67805,32.9569235 128.001521,35.4445248 127.999998,38.106 L127.999998,115.846 C128.001944,118.507065 126.678783,120.994414 124.471,122.48 L68.471,160.216 C67.1504993,161.107443 65.5932326,161.582878 63.9999983,161.581006 Z M59.714,150.22997 C59.5050775,150.228106 59.3051687,150.314975 59.164,150.469 C59.0449385,150.598719 58.986117,150.772642 59.002,150.948 C59.0196019,151.127839 59.1121774,151.291934 59.257,151.4 L63.536,154.7 C63.6672782,154.799188 63.8274644,154.852584 63.992,154.852005 L64.04,154.852005 C64.1813994,154.852362 64.3200362,154.812851 64.44,154.738 L68.719,151.549 C68.8735103,151.442033 68.9744467,151.273684 68.996,151.087 C69.0127648,150.902493 68.9481148,150.719866 68.819,150.587 C68.6950297,150.448264 68.5232321,150.361473 68.338,150.344 C68.313,150.344 68.287,150.344 68.262,150.344 C68.1002689,150.343495 67.9427306,150.395423 67.813,150.492 L63.991,153.344 L60.169,150.387 C60.0388096,150.285899 59.8788347,150.230699 59.714,150.22997 Z" id="Subtraction_1" fill="#FFFFFF"></path>
            <rect id="Rectangle_2051" fill="#FFFFFF" x="0" y="51.998" width="128" height="54"></rect>
        </g>
    </g>
</svg>