<svg id="Layer_1" data-name="Layer 1" xmlns="http://www.w3.org/2000/svg" viewBox="0 0 1106.13 743.43"><defs><style>.cls-1{fill:#e47718;}.cls-2{fill:#01599d;}</style></defs><title>bank-batara-pos</title><path class="cls-1" d="M218.58,354.54c15.6-6.9,26.34-19.15,38-30.17,7.72-7.26,15.24-14.74,24.29-20.4,15.53-9.75,28.27-7.8,40.17,6.14a76.16,76.16,0,0,1,7.73,11.18c.81,1.39.62,1.95-.89,2.33-16.18,4-25,15.66-30.81,30.22s-8.72,30.24-12.46,45.53c-4.75,19.39-10.29,38.49-21.28,55.49-12.57,19.46-30.37,32.61-51.46,41.23-45,18.42-89.08,16.11-131.71-7.87-.44-.24-.83-.56-2.17-1.48,5.61.38,10.23.71,14.86,1,27.66,1.7,55.24,1.57,82.53-4.1,17.84-3.7,34.65-9.95,49.23-21.24,15.56-12.05,25.19-28.25,32.18-46.31,6-15.54,10-31.73,15.55-47.42,5.63-15.94,12.68-31.05,25-43.11,1.61-1.57,1.53-2.36-.87-2.73-4.87-.76-9.23.67-13.43,2.9C275,330,268.09,336,260.62,341.1c-8.77,6-17.86,11.44-28.55,13.32A34.29,34.29,0,0,1,218.58,354.54Z"/><path class="cls-2" d="M785.71,389.66c12.39,9.67,16.59,24.45,25.11,37,2.72-7.83,5.31-15.23,7.85-22.65,6.75-19.76,13.53-39.51,20.16-59.32.86-2.58,2-3.65,4.77-3.38,4.22.42,9.48-1.65,12.43.81,2.76,2.29,3.18,7.43,4.56,11.34,8.31,23.61,16.56,47.24,25,70.82.92,2.56.67,3.31-2.14,3.16-3.78-.19-7.58-.16-11.36,0-1.88.08-2.68-.71-3.21-2.34-1.64-5-3.48-10-5-15-.54-1.81-1.36-2.27-3.13-2.25q-12.48.12-25,0c-1.85,0-2.63.64-3.13,2.37-1.36,4.71-3.05,9.33-4.33,14.06-.69,2.52-1.87,3.29-4.5,3.24-9.45-.19-18.91-.15-28.37,0a4.69,4.69,0,0,1-4.77-2.69c-4.89-8.52-10.06-16.88-15-25.37-3.15-5.41-7.55-8.11-14-7.8-2.57.12-3.46.61-3.41,3.34.17,9.72,0,19.44.12,29.15,0,2.61-.63,3.59-3.34,3.38a57.22,57.22,0,0,0-9.07,0c-2.78.21-3.32-.92-3.31-3.45q.12-39.57,0-79.12c0-2.81.67-3.69,3.56-3.58,12.85.45,25.72-.57,38.56.67,11.29,1.09,18.81,8.81,19.59,20.3C805.37,377,800.31,384.58,785.71,389.66Zm-16.08-12.09v.15c3.77-.28,7.54-.54,11.3-.85a7.4,7.4,0,0,0,6-4c4.5-7.7.14-16.13-8.71-16.51-5.78-.25-11.59,0-17.39-.15-2,0-2.63.59-2.58,2.57q.16,8.13,0,16.26c0,2,.69,2.63,2.62,2.54C763.83,377.48,766.73,377.57,769.63,377.57Zm78.2-14.71L838.25,393c6.12,0,11.9-.05,17.68,0,2.2,0,1.74-1.18,1.34-2.42-1.95-6-3.9-11.95-5.89-17.91C850.32,369.47,849.62,366.15,847.83,362.86Z"/><path class="cls-1" d="M138.32,356.52C94,354.72,64.8,332.35,49.43,291.17c-1.63,46,20.69,76.83,61.6,97a78,78,0,0,1-20.67-.42c-32.13-5-55-26.8-61.51-59.44C21.18,289.73,31.51,255.46,55,224.65a109.94,109.94,0,0,1,11.19-12.29c.74,1.68.3,3.25.2,4.75-1.63,22.55-.53,44.85,6,66.67,9.93,33.18,31.12,56.46,62.27,71Z"/><path class="cls-2" d="M173.12,243.81c-7.29,5.4-14.35,10.65-21.42,15.88-9.41,7-18.78,14-28.3,20.83-2.08,1.49-2.3,2.66-1.26,4.85,7.38,15.46,15.76,30.4,23.7,45.56,8.49,16.19,16.17,32.71,20.24,50.68a6.49,6.49,0,0,1,0,3.55c-3.38-4.78-6.78-9.54-10.15-14.32q-32.47-46-65-92c-1.64-2.3-1.23-3.09,1-4.44q46-28.37,91.84-56.92c2.27-1.41,2.86-1.42,3.41,1.49q10,53.79,20.35,107.53,1.72,9,3.43,18.07l-1.16.34C197.57,311.36,185.41,277.78,173.12,243.81Z"/><path class="cls-2" d="M516.86,381.66c8.7,3.75,13.11,10.08,13.51,18.92.42,9.48-2.53,17.62-10.72,23.21a17.63,17.63,0,0,1-8.88,2.92c-13.61.9-27.24.61-40.87.72-2.28,0-2.66-.87-2.66-2.89q.08-40.12,0-80.25c0-1.87.09-3.07,2.55-3,12.85.42,25.72-.59,38.56.65,9.17.88,14.6,6.17,17.4,14.52,2.72,8.09.14,17.63-6,22.81C519,380,518.07,380.69,516.86,381.66Zm-22.28,30.79v.12c3.65-.16,7.31-.25,11-.51a8.72,8.72,0,0,0,7.61-4.81c4-7.6-.33-16-8.82-16.74-6.27-.51-12.6-.31-18.89-.55-2-.08-2.59.71-2.56,2.64.09,5.79.12,11.6,0,17.39,0,2.08.73,2.58,2.64,2.49C488.53,412.35,491.56,412.45,494.58,412.45Zm-.44-56.18v-.13c-3,0-6.05.07-9.08,0-1.65-.05-2.2.55-2.17,2.19.07,5,0,10.09,0,15.13,0,1.14.18,2,1.61,1.93,6.55-.11,13.14.46,19.65-.52,5.13-.77,7.81-4.74,7.4-10.16s-3.17-8.18-8.72-8.39C500,356.18,497,356.27,494.14,356.27Z"/><path class="cls-2" d="M734.69,427.38c-4.93,0-9.84-.08-14.74,0-2,.05-2.15-1.42-2.57-2.65-1.67-4.88-3.31-9.77-4.86-14.69a2.8,2.8,0,0,0-3.19-2.3q-12.5.17-25,0c-1.83,0-2.57.56-3.08,2.38-1.4,5-3.2,9.8-4.64,14.74-.56,1.93-1.47,2.61-3.46,2.52a96.59,96.59,0,0,0-10.21,0c-2.9.17-3.71-.3-2.6-3.46,7-20.07,13.79-40.21,20.66-60.32,2.23-6.55,4.55-13.07,6.7-19.64.63-1.93,1.47-2.85,3.69-2.72,4.4.25,9.68-1.3,13,.63s3.5,7.72,5,11.84q12.12,34.13,24,68.33C734,423.71,734.91,425.26,734.69,427.38Zm-37.62-63.83-.82.11q-4.28,13.23-8.57,26.47c-.62,1.92-.54,2.95,2,2.87,5.52-.17,11.05-.05,17-.05C703.38,382.91,700.22,373.23,697.07,363.55Z"/><path class="cls-2" d="M610.55,427.38c-4.91,0-9.81-.07-14.7,0-1.74,0-2.07-1-2.47-2.26-1.68-5-3.41-10-5-15-.52-1.62-1.23-2.37-3.14-2.34-8.32.13-16.65.1-25,0-1.81,0-2.61.5-3.12,2.34-1.39,5-3.16,9.82-4.61,14.76-.56,1.9-1.47,2.61-3.47,2.53a105.63,105.63,0,0,0-11,0c-3.5.22-2.5-1.49-1.84-3.4q10-29.08,19.9-58.2c2.48-7.26,5-14.5,7.41-21.79.63-1.91,1.43-3,3.68-2.73a38.42,38.42,0,0,0,4.92,0c8.76,0,8.75,0,11.59,8.09q13,37,26,74.07A7.69,7.69,0,0,1,610.55,427.38ZM573,363.69l-.88-.09c-3.08,9.67-6.16,19.34-9.31,29.2h19.68C579.23,382.94,576.09,373.32,573,363.69Z"/><path class="cls-2" d="M509.42,280.07c14.37,7.79,15.88,26.11,3.08,35.09a18.26,18.26,0,0,1-9.56,3.19c-12,.7-24,.24-35.95.43-2.2,0-2.72-.72-2.71-2.81.07-22.34,0-44.68,0-67,0-1.58-.18-3,2.21-3,11.47.25,23-.41,34.43.49,8.21.65,13.72,5,16.1,12.73s.05,14.39-6.23,19.58C510.35,279.19,509.92,279.62,509.42,280.07Zm-20.2,26.18c3-.15,6.44-.15,9.81-.52,4.84-.53,7.48-3.51,7.64-8.23.19-5.25-2.3-8.57-7.14-9.54-4.12-.84-8.29-.61-12.45-.62-8.58,0-8.6,0-8.57,8.52,0,3.27-1.1,7.62.55,9.53C481,307.63,485.48,305.78,489.22,306.25Zm-.75-47.46v-.22c-2.53,0-5.05.09-7.57,0-1.72-.07-2.5.36-2.44,2.28.13,3.9,0,7.81.05,11.73,0,.94-.3,2.18,1.32,2.14,6.17-.16,12.38.61,18.49-.52,4.15-.76,6.24-4.14,5.85-8.4s-2.58-6.61-7-6.94C494.28,258.61,491.37,258.79,488.47,258.79Z"/><path class="cls-2" d="M640.83,292.11V266.9c0-5.93.08-11.86,0-17.79,0-2.16.39-3.08,2.86-3.14,10.4-.25,10.39-.34,10.39,10,0,19.67,0,39.35.06,59,0,2.84-.68,3.49-3.65,3.94-8,1.2-12.38-2-15.93-9.18-5.62-11.38-12.46-22.17-18.79-33.19-.54-.94-1.16-1.82-2.28-3.56-.1,2-.2,3-.2,4.09,0,12.74-.06,25.48,0,38.21,0,2.46-.37,3.53-3.21,3.54C600,318.85,600,319,600,309c0-19.8.06-39.6-.06-59.4,0-2.87.91-3.23,3.58-3.66,7.76-1.23,11.87,2,15.35,8.85,6.47,12.79,14,25,21.14,37.5Z"/><path class="cls-2" d="M849.63,292.65c0-14.63.09-28.89-.07-43.14,0-2.89.8-3.57,3.6-3.54,9.42.09,9.42,0,9.42,9.34,0,19.93-.07,39.86.07,59.79,0,3-.94,3.38-3.73,3.79-7.64,1.1-12-1.7-15.45-8.71C838,299,831.23,288.47,825,277.67c-.84-1.46-1.75-2.9-3.16-5.23,0,14.75-.14,28.43.09,42.11.06,3.59-1,4.35-4.39,4.27-8.73-.22-8.73-.07-8.73-8.92,0-20.06.06-40.11-.07-60.17,0-3,.88-3.48,3.74-3.84,7.3-.92,11.47,1.59,14.84,8.41,6,12.17,13.26,23.72,20,35.52C847.88,290.75,848.14,291.9,849.63,292.65Z"/><path class="cls-2" d="M713.91,279.57c4,0,8.07.06,12.11,0,1.78,0,2.78.24,2.75,2.42-.11,8.32-.06,16.65,0,25a3.6,3.6,0,0,1-1.31,3c-11.75,10-33.58,15-48.72,3.45-7.54-5.76-11.24-13.88-12.53-23-1.71-12.05-.6-23.74,7.23-33.78A28.76,28.76,0,0,1,696.2,245c6.2-.17,12.34,0,18.11,2.79,6.94,3.38,10.92,9.06,13.15,16.23.59,1.92.14,2.83-2,2.95a17.52,17.52,0,0,0-3.69.75c-4.39,1.16-7.86,2.24-10.52-3.85s-9.35-6.8-15.52-5.91a16.5,16.5,0,0,0-14.13,12,39.88,39.88,0,0,0,.18,24.59c3.71,11.51,15.81,15.65,27.61,9.77,5.24-2.6,6.43-5.22,5.3-10.82-.34-1.73-1.42-1.46-2.51-1.47-3.53,0-7.06-.11-10.59,0-2,.08-2.5-.65-2.56-2.6-.33-10-.39-10,9.55-10Z"/><path class="cls-1" d="M129.39,415c-22.2,10.73-45.21,15.88-69.67,10.17A72.59,72.59,0,0,1,4.56,365.51a104.8,104.8,0,0,1-.4-31.15c1.45.9,1.34,2.39,1.68,3.56,6.51,22.21,17.47,41.5,36.44,55.5,15.39,11.37,33,17,51.72,19.66C105.73,414.74,117.54,414.94,129.39,415Z"/><path class="cls-2" d="M449.65,318.74c-7.14,0-7.07,0-9.6-6.63-1.21-3.15-1.18-7.6-3.87-9.11s-6.61-.53-10-.56c-4.66,0-9.33.06-14-.05a2.5,2.5,0,0,0-2.91,2.11c-1.14,3.85-2.68,7.59-3.76,11.46-.63,2.27-1.78,3-4,2.83-3-.19-6.05-.08-9.07,0-1.78,0-2.84.05-1.93-2.43Q402.9,282.48,415,248.52a3.26,3.26,0,0,1,3.52-2.54c12.06-.29,12-.32,16.13,11,7.09,19.23,14.32,38.41,21.48,57.62,1.56,4.16,1.53,4.17-2.74,4.17Zm-35.26-29c2.85,0,5.11,0,7.36,0,3.25-.05,8.4,1,9.34-.48,1.53-2.47-1.41-6.14-2.42-9.31-1.64-5.16-3.54-10.24-5.57-16Z"/><path class="cls-2" d="M801.83,318.73c-4.71,0-9.21,0-13.71,0-1.56,0-1.75-1.17-2.13-2.23-1.35-3.78-2.84-7.52-4-11.37-.61-2-1.51-2.81-3.69-2.77q-10.78.19-21.57,0a2.86,2.86,0,0,0-3.24,2.34c-1.19,3.85-2.62,7.62-3.75,11.48-.55,1.87-1.38,2.7-3.42,2.58a76.41,76.41,0,0,0-9.08,0c-2.71.17-3.1-.67-2.19-3.11,4-10.72,7.82-21.48,11.71-32.23,4.16-11.45,8.38-22.88,12.42-34.37.78-2.22,1.71-3.33,4.23-3.09,3.75.35,8.22-1.33,11.09.62s3.09,6.64,4.41,10.14q11.19,29.85,22.28,59.75C801.4,317.06,801.52,317.65,801.83,318.73Zm-25.45-29.07c-2.93-8.46-5.78-16.73-8.92-25.8-3.07,9.11-5.86,17.36-8.71,25.8Z"/><path class="cls-2" d="M532,272.74c0-7.57.13-15.15-.07-22.71-.08-3,.59-4.43,3.9-4s7.46-1.31,9.51.62c2.26,2.13.7,6.43.75,9.77.17,12.61,0,25.23.31,37.84.18,8.52,4.73,12.8,13,12.84s12.28-3.63,12.42-11.82c.25-15.13.22-30.27.13-45.41,0-2.84.54-4.19,3.71-3.85a66,66,0,0,0,8.32,0c1.63-.05,2.21.58,2.18,2.21-.39,17.52.86,35.06-.82,52.55a20.43,20.43,0,0,1-16.53,18.34,42.15,42.15,0,0,1-19.88-.3c-8.65-2.34-14.13-8.08-15.67-17C531.59,292.18,532,282.44,532,272.74Z"/><path class="cls-1" d="M157,438.11c-14.63,12.29-30.55,22.4-49.3,27-32.36,7.89-61,1.35-84.46-23.27A53,53,0,0,1,9.49,415.42a155.35,155.35,0,0,0,15.25,12.83c22.67,16.15,48.16,21.65,75.52,20.23,18.23-1,35.94-4.72,53.38-9.9,1.09-.32,2.15-.78,3.31-.35Z"/><path class="cls-2" d="M627.69,391.81c0-10.73-.08-21.46.06-32.18,0-2.58-.54-3.53-3.29-3.42-5.42.22-10.85,0-16.27.12-2.37.07-3.1-.69-3-3a90.65,90.65,0,0,0,0-9.47c-.09-2,.73-2.55,2.65-2.54q27.45.07,54.9,0c2.15,0,2.9.64,2.78,2.79-.22,3.89,1.17,8.83-.73,11.37s-7.06.53-10.79.81c-3.49.25-8.14-1.52-10.15.74-1.72,1.92-.56,6.48-.57,9.87,0,18.93-.07,37.86.06,56.79,0,2.95-.73,4.05-3.76,3.76a42.06,42.06,0,0,0-8.32,0c-3.16.33-3.71-1-3.67-3.83C627.78,413,627.69,402.41,627.69,391.81Z"/><path class="cls-2" d="M361.29,288.64c0-8.45-.26-16.92.12-25.35.18-4-1.19-4.87-4.82-4.58-4,.31-8.07-.1-12.1.13-2.59.15-3.07-.84-3.07-3.2,0-9.61-.08-9.61,9.54-9.61,13.62,0,27.25.07,40.87-.05,2.55,0,3.47.56,3.46,3.31,0,9.49.07,9.46-9.29,9.5-3.38,0-7.87-1.1-9.86.61-2.33,2-.72,6.63-.74,10.1-.09,15.26-.13,30.53,0,45.79,0,2.93-.86,3.76-3.62,3.49-3.37-.33-7.79,1.37-9.87-.66s-.57-6.44-.62-9.81C361.23,301.76,361.29,295.2,361.29,288.64Z"/><path class="cls-2" d="M569.2,506.08c.77-.53,1.41-1.85,2.51-.92.93.78-.07,1.58-.52,2.27-2.82,4.31-5.89,8.48-8.43,13-1.72,3.05-3.68,1.87-5.71,1.05-2.61-1.07-.86-2.77-.28-4.05,3.5-7.7,6.47-15.57,7.82-24,.23-1.42,1-3.42-.33-4.25-1.69-1.05-3,.89-4.08,1.92a83.53,83.53,0,0,0-19.39,27.16c-.92,2.1-1.51,3.61-4.22,2.37-2.4-1.1-3-2.3-1.8-4.87a60.19,60.19,0,0,0,6-23.63c0-1.05.65-2.54-.51-3.08s-2.28.71-3.18,1.53c-6.1,5.6-10.66,12.39-14.74,19.52a84.92,84.92,0,0,0-4.17,8.45c-1,2.23-1.94,3.32-4.48,1.84-2.07-1.22-2.52-1.8-1.26-4.46a71.48,71.48,0,0,0,6.77-25.49c-2.23.42-3.2,2-4.62,3-.61.41-1.19,1.07-2,.37s-.28-1.36.25-1.93l5.7-6.05c2.19-2.34,3.52.69,5.31.9s2.13,1.45,1.81,3.08c-.67,3.43-1.25,6.88-2,11.33,2.33-2.94,4.09-5.19,5.88-7.43a64.75,64.75,0,0,1,7.94-8c2.7-2.39,4.7-.27,6.9.47,1.93.65,2.41,2.28,2.41,4.25a65.19,65.19,0,0,1-1.64,12.88A132.4,132.4,0,0,1,559,487.48c4-3.71,6.79-3.79,10.84-.36,1.43,1.22,1.47,2.78,1.35,4.48-.31,4.69-1.71,9.14-2.8,13.66-.29.54-1.34,1-.78,1.6S568.81,506.66,569.2,506.08Z"/><path class="cls-2" d="M1006,505.38c1.2-2.06,4-3.24,3.47-6.25a1.14,1.14,0,0,1,.43-1c5.54-2.21,8-7.75,12.29-11.39,3.84-3.28,6.16-.56,8.93,1,3,1.64,1.65,4.09.85,6.3-1.93,5.36-3.77,6.44-7.45,4.5-1.26-.67-2.05-1.17-.63-2.74,2.11-2.34,1.95-2.48,2.15-6.56-4.58,2.17-7.38,5.77-10,9.55a1.71,1.71,0,0,0,0,1.77c3,7.5,6.16,14.94,12.28,20.56,2.8,2.58,5.75,5.27,9.9,2.2a1,1,0,0,1,1.37,0,1.2,1.2,0,0,1-.16,1.69,27.64,27.64,0,0,1-5.32,5.32c-2.25,1.49-4.12.35-5.82-1-5-4-8.59-9.17-11.95-14.51a65.74,65.74,0,0,1-4-7.26c-.93-2-1.7-1.68-2.83-.27a36.11,36.11,0,0,0-5.9,11.32c-.52,1.52-.57,3.66-3,2.71-2-.78-4.62-1.36-3.93-4.57.74-3.44,1.44-6.9,2.27-10.32,3.72-15.32,8.67-30.21,16.2-44.14a45.71,45.71,0,0,1,8.14-11.3c2.18-2.12,4.34-2.33,6.77-.66,1.76,1.21,3.5,2.46,5.22,3.73.48.36,1,.84.62,1.56a1.22,1.22,0,0,1-1.66.47c-5.88-3.16-8.51,1.13-11.15,5C1013.93,474.46,1009,489.52,1006,505.38Z"/><path class="cls-2" d="M400.49,506.27c5.1-7.23,9.83-13.54,16.1-18.53,3.9-3.1,6.16-3.36,10.24-.74,1.83,1.17,3,2.69,2.72,5a45,45,0,0,1-12.84,27.52c-2.76,2.8-5.47,2.78-8.33.36-1.53-1.3-3-2.69-4.43-4.1-.59-.58-1.53-1.27-.66-2.2s1.61-.12,2.39.26c5.9,2.88,7.2,2.6,10.75-2.81a42.34,42.34,0,0,0,6.89-18.2c.16-1.29.65-3-1-3.72-1.3-.56-2.35.56-3.3,1.35-8.8,7.29-15.19,16.38-20,26.7-.71,1.51-.24,4.62-3.46,3.84-3.43-.84-4.6-2.93-3.78-6.61a242.24,242.24,0,0,1,8.94-31.59,131.85,131.85,0,0,1,12.12-25.54c.54-.85,1.11-1.69,1.73-2.48,6.64-8.43,7.67-6.11,15.27-.78.49.35,1.11.78.68,1.51a1.32,1.32,0,0,1-2,.49c-4.47-2.7-7.19.11-9.48,3.25-9.81,13.49-15.29,28.81-18.72,45A12.76,12.76,0,0,0,400.49,506.27Z"/><path class="cls-2" d="M814.65,505.7c3.77-4.88,7.14-10,11.72-14.17,1.5-1.35,2.91-2.79,4.49-4,3.82-3,5.85-3,9.95-.53,3.29,2,3,4.89,2.37,8-1.81,8.78-5.17,16.81-11.44,23.41-4.14,4.34-5.9,4.42-10.57.65-.19-.16-.49-.25-.59-.45-1-1.81-4.51-2.78-3.26-4.81,1.07-1.73,3.12,1,4.76,1.56a5.12,5.12,0,0,0,6.39-1.76,41.24,41.24,0,0,0,8.7-21c.13-1.26.47-2.72-.84-3.39s-2.37.48-3.32,1.25c-9.08,7.39-15.49,16.76-20.31,27.34-.64,1.41-.47,4.16-3.06,3.26-2.41-.84-4.89-2-4.1-5.7,3.16-14.8,7.19-29.34,13.4-43.17,3.24-7.21,6.43-14.53,12.17-20.27,3.5-3.48,4.62-3.55,8.76-.7a5.5,5.5,0,0,1,.92.66c1.16,1.22,4.14,1.71,3.43,3.42-1,2.27-2.93-.19-4.49-.34-3-.27-4.64,1.67-6.19,3.64a84.21,84.21,0,0,0-10.42,17.89,139.05,139.05,0,0,0-8.8,27.22A1.85,1.85,0,0,0,814.65,505.7Z"/><path class="cls-2" d="M644.78,490.63c3.84-9.82,7.19-19.85,12.58-29a51.84,51.84,0,0,1,7.48-10.38c2.39-2.43,4.7-2.6,7.35-.65,1.52,1.12,3.1,2.16,4.64,3.25.52.37,1.07.81.79,1.52a1.26,1.26,0,0,1-1.89.66c-5.29-2.82-7.89.8-10.39,4.38C655.14,475,650,491.6,646.24,509.14c2.42-.43,3-3.12,5.3-3.13.55,1.63-.86,2.28-1.46,3.18a34.13,34.13,0,0,0-4.35,8.76c-.43,1.39-.48,3.88-2.78,3.14s-5-1.83-4.35-5.22,1.53-6.87,2.28-10.31c.12-.58.57-1.18-.07-1.82l-7.69,7.53a78.62,78.62,0,0,1-10.49,9.21c-2.67,1.82-4.7.63-6.84-.83a4.5,4.5,0,0,1-1.95-5.57,55.61,55.61,0,0,1,20.29-28.36c3.22-2.44,8.6.15,10.29,4.62-2.55.24-5.16-1.7-7.66.3-8,6.47-14.08,14.33-17.06,24.34-.18.58-.46,1.27.08,1.77a1.76,1.76,0,0,0,2.11,0,13.18,13.18,0,0,0,2.48-1.71A115,115,0,0,0,642.05,496,13,13,0,0,0,644.78,490.63Z"/><path class="cls-2" d="M950.63,502.66c-5,5.46-9.49,10.54-14.72,14.84-1.07.88-2.26,1.61-3.29,2.52-2.46,2.16-4.69,1.52-7.16-.14s-2.82-4-2-6.59c2.41-7.88,6.94-14.51,12.36-20.58a57.89,57.89,0,0,1,5.14-5c4.72-4.11,7.68-3.95,12,.48.44.45,1.07.85.82,1.53-.35,1-1.31.77-1.93.51-3.59-1.5-6.06.39-8.39,2.66-6,5.87-11.15,12.34-13.79,20.47-.37,1.14-1.2,2.66,0,3.49s2.43-.3,3.34-1.13c10-9.1,19.88-18.07,24-31.8a100.84,100.84,0,0,1,13.36-27.85c.49-.73,1-1.43,1.58-2.12,4.66-5.87,10.38-5.77,14.83.27.28.38.7.73.32,1.31a1.4,1.4,0,0,1-2,.48c-4.91-2.72-7.49.53-9.89,3.91-9.73,13.69-14.9,29.27-18.62,45.43-.28,1.21-.44,2.44-.64,3.67,0,.07.12.16.2.26,1.92-.55,3.36-4.17,4.49-3,1.49,1.56-1.61,3.29-2.5,5.07a57,57,0,0,0-2.9,6.54c-.49,1.41-.44,3.89-2.73,3.17s-5-1.74-4.33-5.18,1.62-7.12,2.4-10.69A19.28,19.28,0,0,0,950.63,502.66Z"/><path class="cls-2" d="M730.43,506.74l.87-.73c.79-.65,1.42-2.37,2.6-1.3s-.38,2-1,2.82c-2.93,4.09-6.19,8-8.39,12.53-1,2.16-2.59,2.35-4.67,1.27s-2.22-2.14-1.28-4.2c3.39-7.44,6.68-14.95,7.95-23.12.25-1.63,1.46-4-.3-4.84-1.58-.79-3.11,1.27-4.34,2.41a80.16,80.16,0,0,0-18.3,25.24c-.71,1.53-1.05,3.82-3.52,2.92-2.26-.82-3.83-2.31-3.19-5.19,4.2-18.87,9.64-37.29,19.33-54.2a43.63,43.63,0,0,1,6.71-9.11c2.36-2.38,4.76-2.55,7.42-.66.61.44,1.24.87,1.81,1.36,1.27,1.1,4.08,1.92,3.44,3.4-1,2.17-3-.12-4.57-.35-2.67-.39-4.32,1.34-5.67,3.07a79.54,79.54,0,0,0-5.9,8.77c-6.51,11.06-10.53,23.09-13.62,35.47a15.1,15.1,0,0,0,0,2.67,87.45,87.45,0,0,1,15.31-17.53c2.8-2.4,5.24-3.14,8.68-1.24,2.56,1.41,3.33,3.17,3,5.81a92.45,92.45,0,0,1-3.29,13.93c-.15.45-.6.95-.1,1.34S730.11,507,730.43,506.74Z"/><path class="cls-2" d="M875.48,505.26a94.17,94.17,0,0,1,15.66-18c3.31-3,6.18-2.44,9.4-.52,2.93,1.75,2.15,4.48,1.79,7.11-.64,4.72-2.37,9.18-3.52,13.82a2.27,2.27,0,0,0,.56,0c1.68-.73,2.84-4.15,4.1-3,1.64,1.56-1.25,3.23-2.25,4.76-2.26,3.49-5,6.68-6.81,10.44-1,2.11-2.4,2.57-4.58,1.5s-2.34-2.42-1.34-4.52a96.12,96.12,0,0,0,8-22.76c.32-1.65,1.21-4.08-.23-4.93s-3.12,1.15-4.35,2.28a78.72,78.72,0,0,0-18.35,25.19c-.72,1.56-1.11,4.09-3.84,3-2.27-.91-3.62-2.43-3-5.3,4-17.5,8.94-34.63,17.38-50.58a56.37,56.37,0,0,1,8.24-12.14c2.6-2.8,5.26-3.18,8.26-.72a25.78,25.78,0,0,1,2.14,1.53c1,1,3.49,1.36,2.65,3.06s-2.68,0-4-.37c-2.91-.86-4.59,1-6.1,2.76-4.27,5-7.33,10.82-10.16,16.73-4.3,9-7.17,18.52-9.65,28.16A14.28,14.28,0,0,0,875.48,505.26Z"/><path class="cls-2" d="M461.46,504a118.5,118.5,0,0,1,16.14-17c2.08-1.76,3.91-2.66,7-1.28,3.36,1.49,4.24,3.33,3.9,6.64A62.3,62.3,0,0,1,486,503.76c-.34,1.15-1,2.23-.7,3.51a2.11,2.11,0,0,0,.51-.07c1.48-.63,2.25-3.73,4-2.25,1.2,1-1.17,2.63-2,3.92-2.41,3.69-5.36,7-7.22,11.06-1,2.16-2.42,2.51-4.59,1.48s-2.31-2.41-1.35-4.52c3.52-7.8,7-15.65,8-24.27.15-1.19.77-2.78-.43-3.5s-2.32.75-3.18,1.48a75.73,75.73,0,0,0-19.61,26.51c-1.58,3.46-3.9,3.68-6.11.8-.9-1.17-.66-2.39-.4-3.61,4.12-19.15,9.79-37.75,19.72-54.82a41.35,41.35,0,0,1,6.12-8.13c2.31-2.36,4.66-2.79,7.37-.8,1.52,1.12,3.09,2.18,4.59,3.32.57.42,1.31.92.78,1.81a1.2,1.2,0,0,1-1.68.37c-5.58-3.07-8.13,1.12-10.62,4.68-7.5,10.76-12.3,22.77-15.8,35.34C462.67,498.69,462.1,501.36,461.46,504Z"/><path class="cls-1" d="M167.32,389.68c8.55-.67,17-1.31,25.44-2.78a136.85,136.85,0,0,0,25.09-6.8c6.46-2.45,11-.88,15,4.95,1.71,2.5,2.1,3.92-1.39,5.42-17.4,7.44-35,11-53.58,4.54A40.52,40.52,0,0,1,167.32,389.68Z"/><path class="cls-2" d="M686.25,507.83c1.69.22,2.45-3.23,4-1.43,1.06,1.21-1,2.53-1.81,3.74a39.48,39.48,0,0,0-3.92,8.12c-.5,1.44-.52,3.75-2.95,2.83-2-.76-4.51-1.58-3.72-4.75q1.47-5.85,2.9-11.71a7,7,0,0,0,.11-1.19c-4,3.77-8,7.65-12.13,11.45-1.94,1.79-4,3.49-6,5.13s-4.11,2-6.52.3-3.05-3.6-2.32-6.18c3.32-11.73,10.53-20.74,19.83-28.29,3.54-2.87,6-.08,8.7,1.63,1.2.77,2.11,2.94,3.79.07,1-1.75,2.61.3,3.85.86,1.76.8,1.75,2.24,1.16,3.83-1.5,4-3,8-4.43,12C686.38,505.4,685.61,506.53,686.25,507.83ZM685,490.29c-3.3.28-5.86-1.64-8.39.35a49.86,49.86,0,0,0-17,23.5c-.27.82-1.11,2,.06,2.72.93.56,2,0,2.77-.65C671.11,508.89,679,500.83,685,490.29Z"/><path class="cls-2" d="M1061.59,490.28c1,.32.87-.62,1.17-1,.88-1.2,1.22-3.31,3.51-1.79,1.85,1.23,3.94,2.05,2.55,5.19a90.62,90.62,0,0,0-5.23,14.8c-.21.39-.39.8.06,1.13,0,0,.39-.37.6-.57,1.4-.32,2.19-3.07,3.64-1.75s-.84,2.48-1.51,3.64a41.64,41.64,0,0,0-4.07,8.45c-.4,1.3-.44,3.56-2.64,2.84-2-.66-4.67-1.4-4-4.51.85-4,1.93-8.06,2.91-12.08.14-.58.23-1.18.53-2.77-5.31,5.91-10,11.07-15.31,15.58a28.42,28.42,0,0,1-4.23,3.14,5.32,5.32,0,0,1-8-4.92c.11-3.49,1.63-6.55,3.18-9.57a61.05,61.05,0,0,1,15.8-19.53c4-3.23,10.25-1,11.19,3.84-2.32.11-4.73-1.68-7,0-8.41,6.43-14.59,14.5-17.75,24.71-.63,2,.41,2.27,1.93,1.74a7.71,7.71,0,0,0,2.21-1.42,104.13,104.13,0,0,0,18.42-19.9C1060.63,494,1062.4,492.59,1061.59,490.28Z"/><path class="cls-2" d="M607.08,509.12c.48-.37,1.06-1.13,1.42-1,.89.23.86,1,.52,1.84-1.43,3.35-2.79,6.74-4.26,10.07a1.81,1.81,0,0,1-2.77,1c-1.72-.92-4.14-1.39-3.74-4s1.17-5.4,1.83-8.09c.29-1.17,1-2.27.34-3.9-4.19,4.73-7.62,9.86-12,14.14-1.71,1.67-3.35,2.61-6,1.88-3.93-1.06-5.32-3-4.51-7.07.89-4.43,1.5-8.92,2.91-13.24.23-.72,2-2.47-.86-2.47-.69,0-.59-1-.11-1.51,2.37-2.36,3.31-5.62,5.26-8.25,1.21-1.62,2.69-2.29,4.59-1.6,2.05.73,3.42,1.3,1.59,4.15-4.53,7.09-6.75,15.1-7.82,23.43-.12,1-.43,2.34.46,2.83,1.18.64,2-.65,2.75-1.42a143.2,143.2,0,0,0,19.21-25.6c2.51-4.21,3.86-4.8,7.09-3.25,1.65.79,2.14,1.34.94,3.26a59.17,59.17,0,0,0-7.66,18c-.18.62-1.32,1.11-.71,1.7S606.72,509.74,607.08,509.12Z"/><path class="cls-2" d="M351,508.76c2.31-.39,3.28-3.68,4.63-2.4s-1.35,2.74-2.11,4.2a51.76,51.76,0,0,0-3.4,7.13c-.49,1.46-.2,4.2-2.88,3.32-2.29-.76-4.94-1.86-4.18-5.31.55-2.46,1-4.93,1.61-7.37,4.09-17.08,9.45-33.7,18.29-49a39.59,39.59,0,0,1,6.15-8.11c2.37-2.39,4.76-2.52,7.42-.68a19.92,19.92,0,0,1,1.82,1.35c1.27,1.12,4.1,1.89,3.43,3.44-1,2.21-3-.18-4.56-.34-2.94-.29-4.69,1.64-6.21,3.62a88.85,88.85,0,0,0-11.58,20.69A140,140,0,0,0,351,508.76Z"/><path class="cls-2" d="M765.08,509.14c1.72-.74,2.38-3,4.47-3.11,1.05,1,0,1.59-.45,2.21a35.73,35.73,0,0,0-5.13,9.59c-.5,1.39-.28,4.24-3,3.19-2.25-.87-4.85-2-4-5.46,1.43-5.86,2.69-11.76,4.31-17.57,4.09-14.58,9.23-28.73,17.46-41.57.48-.74,1-1.45,1.55-2.14,5.1-6.41,9.84-6.46,15.07-.18.41.5.88,1,.41,1.63a1.32,1.32,0,0,1-1.71.32c-5.5-3-8.06.94-10.63,4.58C774.58,473.06,765.77,496.47,765.08,509.14Z"/><path class="cls-2" d="M1081.69,516.86c2.79-1.09,5-3.15,7.23-5.08.78-.65,1.83-1.44,2.69-.64,1.07,1-.23,1.8-.83,2.41-2.29,2.34-4.67,4.58-7,6.83-1.55,1.48-3.09,1.48-5.14.66-3.45-1.37-4.31-3.21-3.45-6.93,1.64-7.11,3.39-14.18,5.71-21.08.71-2.12.89-3.35-1.87-3.33-1.07,0-2.58.09-2.61-1.45s1.45-1.55,2.54-1.67c3.87-.43,5.71-2.74,6.85-6.34a56.61,56.61,0,0,1,5.8-12.66c2.5-4.07,7.06-4.62,10.6-1.39,1,.91,1.19,2-.36,2-3.65-.07-5.07,2.55-6.42,5-1.85,3.41-3.24,7.07-5,10.55-1.15,2.34.16,2.54,1.91,2.5s3.78-.1,5.67-.16c1.1,0,2.16.26,2.17,1.5,0,1.08-1,1.23-1.94,1.3-1.12.09-2.3.59-3.35.38-6.32-1.23-8.13,2.8-9.5,7.7-1.58,5.68-3.61,11.25-4.17,17.18A3.1,3.1,0,0,0,1081.69,516.86Z"/><path class="cls-2" d="M800.26,490.47c.12,10.06-3.8,13.55-14,12.1-2.51-.36-3.65.18-4.24,2.7a55.42,55.42,0,0,0-1.66,8.12c-.36,4.29.66,5,4.68,3.17,4.64-2.09,8.52-5.33,12.41-8.53a21.39,21.39,0,0,1,2.08-1.61,1.1,1.1,0,0,1,1.65.26A1.5,1.5,0,0,1,801,508c-4.5,4.93-8.79,10.18-15,13-4.11,1.84-6.77-1.77-9.84-3.43-2.49-1.36-2-3.78-1.37-6.06s.72-5.22,2-7.2c1.47-2.21-.94-5.38.31-5.59,2.87-.46,3-2.65,4.06-4.23a47.71,47.71,0,0,1,5.79-7.9c1.68-1.72,3.55-3,6-1.78,1.36.69,2.07-.45,3.09-.7,3.2-.78,4.3.08,4.26,3.32C800.25,488.45,800.26,489.46,800.26,490.47Zm-15.68,9.61h3c5.74,0,7.16-1.34,7.18-7,0-.88,0-1.76,0-2.63s.36-2-.8-2.2a3,3,0,0,0-2,.86A25.94,25.94,0,0,0,784.58,500.08Z"/><path class="cls-2" d="M386.32,490.19c1.39,10.92-6.17,14.1-13.86,12.4-2.82-.63-3.89.4-4.41,2.93-.59,2.83-1.65,5.54-1.64,8.49,0,3.79.61,4.31,4.17,2.81,4.34-1.82,8-4.72,11.6-7.68,1-.8,1.93-1.62,2.93-2.39.61-.48,1.33-.89,2-.22s.06,1.4-.41,1.91c-4,4.38-8.05,8.67-13.09,11.9-4.47,2.87-7.55-.42-10.95-2.36-3-1.71-2.4-4.42-1.81-7,.56-2.44,1.32-4.84,2-7.26.36-1.26,1.44-2.51-.13-3.72-.41-.31-.7-1.07-.06-1.22,4.82-1.07,4.68-6.22,7.47-8.95,1.26-1.22,2.31-2.66,3.55-3.9a4.56,4.56,0,0,1,4.84-1.31,3.43,3.43,0,0,0,2.47.2c5-1.7,5.27-1.41,5.29,3.7Zm-5.46,2.38a7.59,7.59,0,0,0,0-1.51c-.18-.93.57-2.23-.55-2.75s-2.08.57-2.88,1.31a27.49,27.49,0,0,0-5.87,8.27c-.88,1.78-.28,2.06,1.42,2.2C378.83,500.58,380.93,498.64,380.86,492.57Z"/><path class="cls-2" d="M991.33,490.38c.06,10.36-3.64,13.7-13.88,12.19-2.48-.37-3.68.12-4.3,2.61a42.57,42.57,0,0,0-1.71,9.64c0,2.39.77,3.2,3.2,2.32,4.48-1.62,8.14-4.46,11.78-7.37,1.09-.87,2.13-1.78,3.23-2.63.77-.59,1.63-1.61,2.57-.5.78.92-.29,1.59-.84,2.19a81.46,81.46,0,0,1-11.91,11c-4.78,3.49-8.27.28-12-2-3.11-1.94-2-4.86-1.45-7.52.48-2.33,1.26-4.61,1.95-6.9.34-1.15,1.3-2.25-.15-3.37-.88-.68-.39-1.7.38-1.58,2.59.4,2.65-1.8,3.47-3.12a49,49,0,0,1,5.83-8.35c1.79-1.89,3.78-3.55,6.62-2.15,1.35.66,2-.67,3.12-.77,2.4-.21,4.73-.42,4.06,3.26A16,16,0,0,0,991.33,490.38Zm-5.46,2.29a7.5,7.5,0,0,0,0-1.5c-.2-1,.65-2.49-.82-2.95-1-.32-1.82.69-2.54,1.35a27.47,27.47,0,0,0-5.88,8.23c-.79,1.58-.57,2.13,1.32,2.3C983.77,500.63,986,498.67,985.87,492.67Z"/><path class="cls-2" d="M854.69,488.85l-6.57,4.89c1.14-5.53,5.63-8.33,10.07-7.08,2.85.81,3.21,2.56,2.55,4.88-1.54,5.39-3.2,10.74-4.82,16.14,1.7.37,1.77-1.85,3.24-1.69,1,1.29-.3,2-.86,2.84-2.36,3.41-5,6.67-6.78,10.44-1.46,3.07-3.62,2.15-5.67,1.09-2.63-1.35-.29-2.78.27-4A92.86,92.86,0,0,0,854.69,488.85Z"/><path class="cls-2" d="M440.78,489.36c-2.87,1-4.17,3.38-6.64,4,1.5-5.24,5.72-7.85,9.95-6.71,2.52.68,3.21,2,2.78,4.39-.78,4.49-2.51,8.69-3.79,13-.34,1.17-1.2,2.22-.92,3.6,1.57.38,1.65-1.8,3-1.7,1.1.89.11,1.58-.31,2.19-2.63,3.83-5.51,7.48-7.61,11.67-1.36,2.71-3.42,1.39-5.18.59-2.3-1-.74-2.43-.12-3.67A92.55,92.55,0,0,0,440.78,489.36Z"/><path class="cls-1" d="M433.06,342.72c6.44,0,11.86,0,17.27,0,1.37,0,2.47,0,2.45,1.91-.06,7.52,0,15.05-.5,22.75A181.77,181.77,0,0,0,433.06,342.72Z"/><path class="cls-2" d="M445.8,479.19a19.16,19.16,0,0,1-2.88-.66c-1.45-.56-1.61-1.3-.24-2.34,1.89-1.42,3.66-3,5.47-4.54,2.52-2.11,4.43-.07,5.8,1.37s-.57,2.57-1.7,3.39C450.34,477.81,448.45,479.35,445.8,479.19Z"/><path class="cls-2" d="M855.28,477.4c2.28-1.91,4.4-3.68,6.51-5.47.88-.74,1.79-1.62,3-.95s3.13,1.06,3.5,2.65-1.4,2.24-2.42,3C862.09,479.65,859.19,479.85,855.28,477.4Z"/><path class="cls-1" d="M909.57,395.06q-.08,15.68-.14,31.36c-5,1.13-10,.5-15.07.35l.08.09a7.13,7.13,0,0,1-.18-1.11c0-27.06,0-54.12-.08-81.19,0-2.39.83-2.94,3.05-2.92,10.7.13,21.39.12,32.09.16a19.57,19.57,0,0,0,3.18.88c9.87,1,16,6.56,18,16.59.19,1,.07,2,.91,2.76a65.75,65.75,0,0,1,0,11.57c-1.77,3.22-1.52,7-3.74,10.31-5.12,7.57-11.92,11.1-20.89,10.86C921,394.45,915.28,394.06,909.57,395.06ZM925.4,380c4.07-.46,7.36-2.08,9.16-6,3.16-6.92,1.23-12.79-5.61-17-5.69-1.3-11.48-1-17.26-1.13-1.85,0-2.48.87-2.49,2.51,0,6.55,0,13.1,0,19.65,0,1.47.61,2.37,2.28,2.28C916.13,380.05,920.78,380.75,925.4,380Z"/><path class="cls-1" d="M909.57,395.06c5.71-1,11.44-.61,17.17-.29Z"/><path class="cls-1" d="M1045.72,356.57c1.92-8.18,7.78-12.54,15.2-15,9.21-3,18.4-2,27.12,1.85,7,3,10.21,9.23,11.64,16.45,0,.24,0,.51,0,.76.63,6.21.63,6.21-5.66,6.27-1.51,0-3-.05-4.54.07-3.15.26-4.67-.77-5.17-4.26-.54-3.78-3-6.35-7.17-7.19-5.57-1.14-10.9-1.47-15.79,2.17-3.91,2.89-3.57,8.22.6,10.85,4.67,3,9.88,4.38,15.06,6,5.51,1.75,11.25,2.65,16.15,6.44,8.44,6.53,10.07,15.36,9.2,24.95a23.32,23.32,0,0,1-5.52,13.61,26,26,0,0,1-14.62,8.17c-7.09,1.1-14.15,1.21-21.12-.82l-.72-.24-3.14-1.24-.7-.3-.7-.41c-7.79-4.62-11.91-11.63-13.31-20.42.1-2.17-1.85-5.32,2.58-5.42,2.71-.37,5.47.06,8.18-.83,1.3-.42,2.67-.51,3.49,1.94,1.62,4.87,3.68,9.6,8.61,12.61,5.85,3.58,17.9.77,20.87-5.1s.58-12-5.79-14c-6.84-2.18-13.83-3.95-20.48-6.71-6.23-2.6-11.07-6.69-13.57-13.16C1044.31,368,1044.39,362.33,1045.72,356.57Z"/><path class="cls-1" d="M1061.12,427c7,2,14,1.92,21.12.82C1075.14,429.06,1068.08,429.23,1061.12,427Z"/><path class="cls-1" d="M1045.72,356.57c-1.33,5.76-1.41,11.47.72,17.09A23.22,23.22,0,0,1,1045.72,356.57Z"/><path class="cls-1" d="M1045.13,398.92c-4.43.1-2.48,3.25-2.58,5.42a10.81,10.81,0,0,0-.33-2.22C1041.13,399.13,1042.67,398.63,1045.13,398.92Z"/><path class="cls-1" d="M1057.26,425.47l3.14,1.24Z"/><path class="cls-1" d="M1055.86,424.76l.7.41Z"/><path class="cls-1" d="M157,438.23l-.08-.21a.52.52,0,0,0,.11.1Z"/><path class="cls-1" d="M371.67,391.31c-.21,8.1,3.56,14.06,10.11,18.39,4.69,3.11,14.32,1.95,17.33-4.38.43-.9,1.23-1.75,1.33-2.67.39-3.95,2.78-4.43,6-3.73L417,400.86l.57.8-.18-.18c1.12.11,2.26.14,3.36.36,1.67.33,2.19,1.15,1.58,3-4.43,13.07-13.15,22-26.81,23.94-16.17,2.27-31.17-1.08-40.41-19.85a40.91,40.91,0,0,1-4.62-16.7V371.86c1.78-16.71,9-29.59,25.31-36.14l1.9-.53.78-.2a39.47,39.47,0,0,1,17.17.1c5.74,2,11.35,4.27,15.8,8.67,5.75,5.71,8.43,12.93,10.5,20.55.61,2.24.14,4.74,1.61,6.76.32,4.37.82,8.73.91,13.14.07,3.48-1,4.39-4.4,4.34-15.11-.18-30.22-.07-45.33-.08C372.77,388.47,370.55,388.1,371.67,391.31Zm15.68-17.58h7.95c8.69,0,8.95-.17,6.71-8.71-2.05-7.83-7.07-12-13.39-12.28-11.87-.47-17,10.33-16.83,19.37,0,1.75,1.15,1.62,2.31,1.62Z"/><path class="cls-1" d="M395.6,335.09a39.47,39.47,0,0,0-17.17-.1A32.18,32.18,0,0,1,395.6,335.09Z"/><path class="cls-1" d="M350.44,371.86v20.33A81.84,81.84,0,0,1,350.44,371.86Z"/><path class="cls-1" d="M377.65,335.19l-1.9.53Z"/><polygon class="cls-1" points="417.35 401.48 417.52 401.66 417.56 401.45 417.35 401.48"/><path class="cls-1" d="M1031.84,399.57c-3.13,18-17.89,30.9-38.28,28.9-15-1.47-24.58-9.84-29.45-23.7a60.45,60.45,0,0,1,.86-43.16c3.89-9.85,10.91-16.76,22-20.16,10.89-3.34,29.72.74,36.78,10a46.63,46.63,0,0,1,7.78,16.26,4.77,4.77,0,0,0,.92,2,74.59,74.59,0,0,1,0,29.36c-.26.23-.52.46-.77.7Zm-39.72-44c-9.33,3.55-14,10.26-14.76,20.25a120.71,120.71,0,0,0,.32,19.58c.66,7.78,7.74,15.46,13.82,17.63,10.77,3.86,21.07-3.18,24-13.06a53.52,53.52,0,0,0,1.75-24.33c-1.42-8.84-4.35-16.05-13.25-19.54C1000.13,354.42,996.12,355,992.12,355.54Z"/><polygon class="cls-1" points="1031.84 399.57 1031.66 399.76 1031.88 399.8 1031.84 399.57"/><path class="cls-1" d="M1004,356.07c-3.91-1.45-7.91-1.1-11.92-.53C996.12,355,1000.13,354.42,1004,356.07Z"/><path class="cls-2" d="M569.2,506.08c-.39.58-.9,1.46-1.57.78s.49-1.06.78-1.6C568.68,505.53,568.94,505.8,569.2,506.08Z"/><path class="cls-2" d="M730.43,506.74c-.32.25-.44,1-1,.54s0-.89.1-1.34Z"/><path class="cls-2" d="M1064.25,508c-.21.2-.56.6-.6.57-.45-.33-.27-.74-.06-1.13Z"/><path class="cls-2" d="M607.08,509.12c-.36.62-.86,1.51-1.58.81s.53-1.08.71-1.7Z"/></svg>