<svg id="Layer_1" data-name="Layer 1" xmlns="http://www.w3.org/2000/svg" viewBox="0 0 1106.13 743.43"><defs><style>.cls-1{fill:#17a6a7;}.cls-2,.cls-3{fill:#039;}.cls-3{fill-rule:evenodd;}</style></defs><title>bank bca syariah</title><path class="cls-1" d="M1050.28,346.7c4.23-3,7.6-5.62,11.36-7.61a38,38,0,0,1,21-4.51c13.16,1,21.55,11.79,20.17,25.89-.79,8-2.61,15.84-4.19,23.71-2.81,14.09-5.73,28.17-8.44,42.29-.47,2.47-1.5,3-3.82,3-5.57-.16-11.16-.23-16.72,0-3.1.14-3.26-1-2.73-3.55,3.78-18.38,7.45-36.8,11.15-55.2.31-1.53.54-3.06.84-4.59.86-4.43.67-8.66-3.18-11.7-4.14-3.27-8.83-2.93-13.23-.79a32,32,0,0,0-17.13,20.6c-3.95,13.57-5.93,27.58-8.76,41.41a104.31,104.31,0,0,0-2,10.29c-.28,2.71-1.09,3.68-4,3.54-5.57-.28-11.16-.2-16.73,0-2.58.08-3.23-.53-2.69-3.19,4.2-20.95,8.26-41.92,12.37-62.89,3.81-19.44,7.66-38.87,11.37-58.32.49-2.61,1.31-3.71,4.19-3.56,5.44.28,10.9.22,16.34,0,2.82-.1,3.47.58,2.87,3.47-2.59,12.28-4.92,24.62-7.33,36.95C1050.77,343.18,1050.63,344.46,1050.28,346.7Z"/><path class="cls-1" d="M658.57,406.18c7.31-20.62,18.57-39.06,27.28-58.67,3.62-8.15,7.86-12.49,17.18-10.81,4,.73,8.24.13,13.09.13-3.57,6.83-6.87,13.23-10.23,19.6q-23.32,44.15-46.69,88.29c-1.27,2.4-2.75,4.69-4.1,7.06-6.75,11.87-17,16.38-30.39,14.78-11.43-1.37-11.44-1.27-10.16-12.65,0-.26,0-.52.07-.78.29-2.31-.18-5.24,1.08-6.75s4,.33,6.13.47c3.36.23,6.65-.21,9.18-2.4,6.55-5.67,11.35-11.85,9.6-21.7-4.9-27.54-9.14-55.2-13.82-82.78-.5-2.93.33-3.24,2.78-3.18,5.57.12,11.15.1,16.72,0,2.2,0,3.41.18,3.73,3,2.42,21.1,5.05,42.18,7.61,63.27C657.74,403.89,657.45,404.83,658.57,406.18Z"/><path class="cls-1" d="M763.22,419.32c-4.05,3.8-7.65,6.85-12,9.05C733,437.71,714,426.69,713.21,406.3c-.61-16.93,7-26.82,23.4-30.76,7.1-1.7,14.36-1.9,21.54-2.87,1.93-.26,3.86-.51,5.77-.85,7.52-1.34,8.79-2.95,8.41-10.5-.25-5.08-4.07-8.63-9.88-9-7.41-.51-13.75,1.17-16.74,8.91-.62,1.6-1.73,1.32-2.82,1.22-6.07-.54-12.12-1.19-18.19-1.7-3.06-.26-1.59-2-1.08-3.22,5.32-13.08,15.32-20.15,29-22.32a58.09,58.09,0,0,1,19.73.14c16.57,3,24.51,13.84,22,30.74-1.91,12.66-4.69,25.2-7.09,37.79-1.46,7.7-2.15,15.42,0,23.1.66,2.36-.42,2.51-2.28,2.49-5.7-.08-11.41-.17-17.11,0-2.33.08-3.29-.72-3.55-2.88S763.66,422.26,763.22,419.32Zm-16.76-6.48a19.59,19.59,0,0,0,9.38-2.76c8.75-5.08,9.95-13.94,11.56-22.6.24-1.3-.59-1.4-1.7-1.19-2.67.49-5.38.76-8.05,1.29-6.08,1.19-12.31,2-17.67,5.45a10.79,10.79,0,0,0-4.48,12.58C736.91,410.07,740.81,412.78,746.46,412.84Z"/><path class="cls-1" d="M968.09,419.17c-6.46,6.71-13.48,11.27-22.45,12.23-12.33,1.33-22.89-5.64-26.39-17.53-5.39-18.28,3.55-33.75,21.93-38.26,8.23-2,16.7-2,25-3.36,1-.16,2.05-.33,3.07-.52,6.86-1.28,8.08-2.75,8.08-9.7,0-4.92-3.21-8.68-8.52-9.53-7.11-1.14-15.36.43-18,8.39-.55,1.61-1.68,1.68-3.07,1.54-5.92-.6-11.85-1.28-17.79-1.67-2.61-.17-2.26-1.31-1.6-3,3.8-9.51,10.27-16.6,19.89-20.13a53.15,53.15,0,0,1,35.1-.7,23,23,0,0,1,16.35,22.58c-.1,11.37-3.5,22.22-5.47,33.3-1.77,9.92-4.59,19.72-2.94,30,1,6.57,1,6.58-5.83,6.58-4.14,0-8.3-.13-12.44.05-2.36.1-3.59-.5-3.75-3.05C969.08,424.22,968.56,422.07,968.09,419.17Zm-16.44-6.34a21,21,0,0,0,8.64-2.46c7.55-3.93,9.48-11.2,11.3-18.54C973,386,973,386,967.17,386.91c-1.27.21-2.56.36-3.83.59-6.35,1.13-12.82,1.93-18.42,5.51a10.68,10.68,0,0,0-4.61,12.53C941.61,410,945.78,412.86,951.65,412.83Z"/><path class="cls-1" d="M565.09,431.63c-7.12-.36-14.46-.83-21.45-3.71-10-4.14-16.22-11.69-19.91-21.64-.71-1.93-.34-2.71,1.76-3,5.89-.89,11.77-1.84,17.61-3,2-.39,2.82.22,3.52,1.93,5.32,12.84,18.15,13.09,27.17,10.3a12.71,12.71,0,0,0,5.79-3.81c3.4-3.8,2.53-9.17-2.17-11.37-5-2.35-10.34-4.1-15.5-6.19-3.84-1.56-7.61-3.27-11.44-4.86-18.22-7.57-17.75-29.65-7-40.56,7-7,15.62-10,25.14-10.86,10.58-.94,21.05-.59,30.5,5.17,6.15,3.75,9.74,9.48,11.86,16.28.59,1.89.1,2.52-1.74,2.84-5.74,1-11.46,2.12-17.18,3.26-1.53.3-2.23-.22-3-1.59-4.66-8.27-17.84-12-26.24-7.52-2.9,1.55-5,3.81-4.84,7.37s2.55,5.53,5.58,6.74c7.7,3.07,15.78,5.07,23.45,8.28,10.1,4.23,17.89,10.41,18.36,22.25.52,13.29-6.1,22.7-17.43,29C581,430.8,573.19,431.47,565.09,431.63Z"/><path class="cls-1" d="M841.43,351.34c4.55-4.47,8.14-9.21,13.11-12.59,6.56-4.45,13.5-5.55,21-2.6,1.91.76,2.26,1.53,1.39,3.41-2.41,5.16-4.65,10.4-6.9,15.63-.56,1.3-1.11,2.27-2.82,1.82-9.5-2.47-16.31,2.11-22.06,8.83-6.39,7.45-8.38,16.84-10.39,26.06-2.47,11.25-4.63,22.58-6.62,33.92-.53,3-1.7,3.75-4.53,3.64-5.31-.21-10.64-.29-15.93,0-3.37.2-3.45-1.1-2.93-3.76q7.54-38.07,14.94-76.19c.67-3.43,1.54-6.82,2.06-10.26.3-2,1.23-2.51,3.1-2.48,5.44.09,10.89.14,16.32,0,2.31-.06,2.94.64,2.46,2.85C842.81,343.51,842.16,347.44,841.43,351.34Z"/><path class="cls-1" d="M881.72,429.4c-3.17-.37-8.4,1.69-10.43-.79-1.53-1.88.9-7,1.62-10.7,5-25.66,10.07-51.31,15-77,.58-3.07,1.53-4.41,5-4.19,5.42.35,10.88.18,16.32.06,2.29-.05,2.83.53,2.37,2.89Q903,382.54,894.8,425.44c-.58,3-1.67,4.52-5,4C887.35,429.12,884.85,429.4,881.72,429.4Z"/><path class="cls-1" d="M902.94,324.09c-3,0-6-.08-8.92,0-2,.07-2.83-.29-2.33-2.59,1.24-5.81,2.24-11.67,3.35-17.5.32-1.66,1-2.63,3-2.57,5.95.17,11.9.13,17.84,0,2.15,0,3,.38,2.51,2.79-1.25,5.8-2.34,11.65-3.37,17.49-.31,1.74-1,2.42-2.8,2.36C909.15,324,906,324.09,902.94,324.09Z"/><path class="cls-2" d="M86.69,276.56q34.66.12,71.49,16.48l1.16.5.41,1.16v.08h0c2,6.05,3.73,12.1,5.14,18.14s2.57,12.1,3.4,18.15a192.43,192.43,0,0,1,2,23.77v9.28a209.53,209.53,0,0,1-10.53,60.14l-.41,1.16-1.16.5c-23.19,10.27-46.47,15.33-69.67,15.33H86.69v-5.64h1.82c22,0,44.16-4.72,66.27-14.33q14.41-44.73,8-89.47c-.83-5.8-2-11.76-3.4-17.64-1.24-5.47-2.82-11-4.56-16.49q-35.16-15.4-68.09-15.49Zm-68,16.56a146.43,146.43,0,0,1,67.51-16.56h.5v5.63h-.5a140.94,140.94,0,0,0-64,15.49c-8.36,19.88-13.08,40.1-13.33,60.72s3.89,41.42,13.25,62.8q32.31,14,64.62,14.41v5.64c-22.62-.25-45.23-5.31-67.85-15.33l-1.49-1.41C7.74,403,3.27,381.76,3.18,361v-2.65c.25-21.62,5.31-42.91,14.17-63.79Z"/><path class="cls-3" d="M88.18,404.88C87,389.06,87.77,372.57,83,357.49c-4.39-14.08-21-22.12-21.37-37.61a25.49,25.49,0,0,1,26.1-26.09c16.15-.09,26.17,11.68,27.33,24.77,1.41,15.16-17,25.35-21.78,39.76C88.35,373.07,89.75,389.39,88.18,404.88Z"/><path class="cls-3" d="M94.56,401.07c-.66-13.75-.66-26.93,3.15-38.61,4.22-13.25,13-24.44,26.42-28.08,9.2-2.49,22.7,8.28,20.55,19.3-1.82,8.87-10.69,19.3-24.94,20.46-6.62.58-9.44,5.89-13.58,8.95,18.55-1.82,30.56-9.11,38.93-16.73,1.24,6.46,2.07,17.31-3,21-9.94,7-19.14,1.32-30.82,4.64C104.75,393.94,100.69,398.08,94.56,401.07Z"/><path class="cls-3" d="M81.88,401.07c.75-13.75.67-26.93-3.06-38.61-4.23-13.25-13-24.44-26.43-28.08-9.19-2.49-22.78,8.28-20.54,19.3,1.82,8.87,10.68,19.3,24.93,20.46,6.55.58,9.45,5.89,13.59,8.95C51.73,381.27,39.8,374,31.43,366.36c-1.24,6.46-2.07,17.31,3,21,9.94,7,19.13,1.32,30.81,4.64C71.78,393.94,75.75,398.08,81.88,401.07Z"/><path class="cls-3" d="M126,421.53v-2.24l1.66-.41L126,416.39v-4.14l7.45,10.36-2.65.66L129,420.7Zm0-9.28v4.14l-1.16-1.65-.5,5,1.66-.42v2.24l-1.91.41L123.8,425l-2.65.66,1.74-13.5,2.65-.66.5.74Zm-24.69,16.49v-2.16h.58a9.18,9.18,0,0,0,1.74-.25,1.52,1.52,0,0,0,.83-.58,1.64,1.64,0,0,0,.33-1.07,1.79,1.79,0,0,0-.41-1,1.4,1.4,0,0,0-.83-.49,8.61,8.61,0,0,0-2.24,0V421c.66,0,1.08-.08,1.24-.08a2,2,0,0,0,1-.58,1,1,0,0,0,.25-1,1.08,1.08,0,0,0-.42-.92,1.13,1.13,0,0,0-1-.41,7.26,7.26,0,0,0-1.08.08V416a8,8,0,0,1,2,0,2.79,2.79,0,0,1,1.41.41,2.84,2.84,0,0,1,1.07.91,4,4,0,0,1,.5,1.5,2.85,2.85,0,0,1-.33,1.65,3,3,0,0,1-1.24,1.24,3.23,3.23,0,0,1,1.9,1,2.86,2.86,0,0,1,.83,1.82,6.15,6.15,0,0,1-.25,1.74,4.37,4.37,0,0,1-1,1.41,4.94,4.94,0,0,1-1.66.74c-.41.09-1.49.17-3.06.34Zm15.66-7,2.57.33a5,5,0,0,1-4.48,5,5.76,5.76,0,0,1-4.39-1,7.75,7.75,0,0,1-1.65-9.53,5.56,5.56,0,0,1,3.89-2.49,5.36,5.36,0,0,1,4,.75,4.27,4.27,0,0,1,1.65,2.07l-2.4,1a2.61,2.61,0,0,0-1.16-1.32,2.75,2.75,0,0,0-1.82-.33,3,3,0,0,0-2.07,1.41,4.84,4.84,0,0,0-.33,3.39,5.79,5.79,0,0,0,1.49,3.23,2.8,2.8,0,0,0,2.4.67,2.88,2.88,0,0,0,1.57-1A3.85,3.85,0,0,0,117,421.78ZM101.35,416v2.15c-.33,0-.66.09-1.08.09l-1.49.16.25,2.9,1.74-.17a1.43,1.43,0,0,0,.58-.08v2.16h-.08l-2,.16.25,3.4,1.82-.17v2.16l-4.14.41-1.16-12.67,5-.42a.32.32,0,0,1,.25-.08Zm-16,8.37v-2.16a3.55,3.55,0,0,0,1.16-.16,2.06,2.06,0,0,0,.83-.58,2.21,2.21,0,0,0,.25-1,1.4,1.4,0,0,0-.33-1.16,1.58,1.58,0,0,0-1-.58c-.24,0-.49-.08-.91-.08v-2.15a7.64,7.64,0,0,1,2.41.24A3.07,3.07,0,0,1,89.59,418a3.51,3.51,0,0,1,.66,2.48,5,5,0,0,1-.41,2,5.27,5.27,0,0,1-1.08,1.24,9.32,9.32,0,0,1-1.41.58A12.45,12.45,0,0,1,85.36,424.35Zm0-7.87v2.15h-1l-1.24-.08v3.64h2.23v2.16H83l-.08,4.8-2.57-.08.25-12.68,4.06.09ZM61.42,423.1v-3.89a6.26,6.26,0,0,0,1.49.17,1.65,1.65,0,0,0,.83-.42,2.41,2.41,0,0,0,.42-.91A1.58,1.58,0,0,0,64,417a1.6,1.6,0,0,0-.91-.66,13,13,0,0,0-1.66-.33v-2.16l1.08.17a9.83,9.83,0,0,1,2.82.83,2.78,2.78,0,0,1,1.24,1.49,3.41,3.41,0,0,1,.16,2.07,3.31,3.31,0,0,1-1.24,2.15,4,4,0,0,1-2.65.75A5.27,5.27,0,0,1,64,422.52a13.4,13.4,0,0,1,1.08,2.32l1.07,2.74-3-.58-1.32-3.07c-.17-.25-.25-.58-.42-.83Zm7.29-7.87,2.49.25-.58,6.88c-.09,1.07-.09,1.82-.09,2.07a2.29,2.29,0,0,0,.67,1.32,2.53,2.53,0,0,0,1.65.67,2.43,2.43,0,0,0,1.66-.33,1.93,1.93,0,0,0,.83-1c.08-.41.16-1.16.25-2.15l.58-7,2.57.24-.58,6.63a11,11,0,0,1-.5,3.23,3.74,3.74,0,0,1-.83,1.49,3.45,3.45,0,0,1-1.66.91,5.36,5.36,0,0,1-2.4.17,6.52,6.52,0,0,1-2.73-.66,5.06,5.06,0,0,1-1.41-1.16,3.75,3.75,0,0,1-.58-1.49,21.27,21.27,0,0,1,0-3.23ZM48.58,419l.5-2.07,5.38,1.41-1.32,4.89a5.64,5.64,0,0,1-2.65.74,9.49,9.49,0,0,1-3.07-.25A6.8,6.8,0,0,1,44.27,422a6,6,0,0,1-1.57-2.9,8,8,0,0,1,.17-3.48,7.66,7.66,0,0,1,1.73-3.23,5.28,5.28,0,0,1,2.9-1.58,5.94,5.94,0,0,1,3.15.17,5.91,5.91,0,0,1,3.32,1.9,4.4,4.4,0,0,1,.91,3.07l-2.57-.17a2.63,2.63,0,0,0-.58-1.74,3.26,3.26,0,0,0-1.66-1,3.59,3.59,0,0,0-2.81.33,4.83,4.83,0,0,0-1.83,2.82,5.1,5.1,0,0,0,.09,3.56,3.38,3.38,0,0,0,2.23,1.74,5.85,5.85,0,0,0,1.66.16,8,8,0,0,0,1.57-.41l.42-1.57L48.58,419Zm12.84-5.14-4.31-.74L55,425.59l2.49.41.91-5.22.58.09a5.63,5.63,0,0,1,1.24.33,4.56,4.56,0,0,1,.66.66c.08.25.33.66.58,1.24v-3.89c-.25,0-.5-.08-.83-.08l-1.82-.33.5-3.15,2,.33h.16Z"/><path class="cls-3" d="M456.25,398.33V375h10.27V333.88l-10.27,20.55V303.15h40.34l10.27,118.13H466.52V398.33Zm0-95.18v51.28L446,375h10.28v23.36H436.86L428.91,420h-25V393l27.92-60.22h-5.72L442,303.15ZM403.89,342.5l12.51-29.66-12.51-7ZM304.4,331.15a28.14,28.14,0,0,0,0-9.86v9.86Zm99.49-25.27V342.5l-1.66,4c-24.68-17.64-61.13-1.57-63.21,17.07C337,383,351.78,398.75,389.64,387l-13,34.8c-49.95,5.55-69.33-14.25-72.23-37.36V371.33a71.52,71.52,0,0,1,4.47-17.4c24.6-61.14,64.53-47.39,79.69-48.55l2.24-6.79,13.09,7.29Zm0,87.15-12.51,27h12.51ZM259.5,419.29c26.75-5.3,53-37.44,26.67-63a35.31,35.31,0,0,0,18.23-25.1v-9.86c-1.83-10.19-9.7-18.47-24.52-18.72l-20.38-.42v22.7H268c9,0,7.87,23.36-3.4,23.36H259.5v17.9c12.17,2.32,7.87,19.22,0,24.44v28.74Zm44.9-48v13.09A57.3,57.3,0,0,1,304.4,371.33Zm-80.19-69.92-16.49,32,7.37-.58L195.21,420h56.91a37,37,0,0,0,7.38-.75V390.55a8,8,0,0,1-4.56,1.57H234.48l6.79-26.26H256.6a14.85,14.85,0,0,1,2.9.25v-17.9H245.25L251,324.85h8.54v-22.7Z"/></svg>