<svg id="Layer_1" data-name="Layer 1" xmlns="http://www.w3.org/2000/svg" viewBox="0 0 200 138"><defs><style>.cls-1,.cls-2{fill:#243e90;}.cls-2{fill-rule:evenodd;}</style></defs><title>BCA</title><path class="cls-1" d="M33.16,36.3a70.29,70.29,0,0,1,28.39,6.55l.46.2.16.46v0h0c.79,2.4,1.48,4.8,2,7.2s1,4.81,1.35,7.21a77,77,0,0,1,.79,9.44v3.68A83.3,83.3,0,0,1,62.17,95l-.16.46-.46.2a67.86,67.86,0,0,1-27.67,6.09h-.72V99.46h.72A65.55,65.55,0,0,0,60.2,93.77a78.15,78.15,0,0,0,3.16-35.53c-.33-2.3-.79-4.67-1.35-7-.5-2.17-1.12-4.38-1.81-6.55a67.78,67.78,0,0,0-27-6.15Zm-27,6.58A58.16,58.16,0,0,1,33,36.3h.2v2.24H33A56,56,0,0,0,7.53,44.69,63.91,63.91,0,0,0,2.24,68.8,59.27,59.27,0,0,0,7.5,93.74a66,66,0,0,0,25.66,5.72v2.24A67.86,67.86,0,0,1,6.22,95.61l-.59-.56A61.88,61.88,0,0,1,0,69.82v-1A66.57,66.57,0,0,1,5.63,43.44Z"/><path class="cls-2" d="M33.75,87.26c-.46-6.29-.16-12.83-2-18.82-1.74-5.59-8.35-8.78-8.49-14.93A10.13,10.13,0,0,1,33.59,43.14,10.55,10.55,0,0,1,44.44,53c.56,6-6.74,10.07-8.65,15.79S34.37,81.11,33.75,87.26Z"/><path class="cls-2" d="M36.28,85.74C36,80.28,36,75.05,37.53,70.41c1.68-5.26,5.17-9.7,10.5-11.15,3.65-1,9,3.29,8.15,7.67a10.87,10.87,0,0,1-9.9,8.12c-2.63.23-3.75,2.34-5.39,3.56A25.74,25.74,0,0,0,56.35,72c.49,2.57.82,6.88-1.19,8.36-3.94,2.79-7.59.52-12.23,1.84C40.33,82.91,38.72,84.56,36.28,85.74Z"/><path class="cls-2" d="M31.25,85.74c.3-5.46.26-10.69-1.22-15.33-1.67-5.26-5.16-9.7-10.49-11.15-3.65-1-9,3.29-8.16,7.67a10.88,10.88,0,0,0,9.9,8.12c2.6.23,3.75,2.34,5.4,3.56A25.66,25.66,0,0,1,11.22,72c-.5,2.57-.83,6.88,1.18,8.36,4,2.79,7.6.52,12.24,1.84C27.24,82.91,28.82,84.56,31.25,85.74Z"/><path class="cls-2" d="M48.78,93.87V93l.66-.16-.66-1V90.18l3,4.12-1.05.26-.72-1Zm0-3.69v1.65l-.46-.66-.2,2,.66-.16v.89L48,94l-.14,1.22-1,.26.69-5.36,1.06-.26.19.29ZM39,96.73v-.85h.23a5.46,5.46,0,0,0,.69-.1.73.73,0,0,0,.33-.23.68.68,0,0,0,.13-.43.69.69,0,0,0-.16-.4.6.6,0,0,0-.33-.19,3.06,3.06,0,0,0-.89,0v-.86c.26,0,.43,0,.49,0a.76.76,0,0,0,.4-.23A.42.42,0,0,0,40,93a.43.43,0,0,0-.17-.36.42.42,0,0,0-.39-.16,3,3,0,0,0-.43,0v-.86a3.35,3.35,0,0,1,.79,0,1.11,1.11,0,0,1,.56.17,1.18,1.18,0,0,1,.43.36,1.52,1.52,0,0,1,.19.59,1.08,1.08,0,0,1-.13.66,1.16,1.16,0,0,1-.49.49,1.33,1.33,0,0,1,.76.4,1.17,1.17,0,0,1,.32.72,2.72,2.72,0,0,1-.09.69,1.63,1.63,0,0,1-.4.56,2.11,2.11,0,0,1-.66.3c-.16,0-.59.06-1.21.13ZM45.2,94l1,.13a2.4,2.4,0,0,1-.53,1.35,2.42,2.42,0,0,1-1.25.62,2.27,2.27,0,0,1-1.74-.39,2.71,2.71,0,0,1-1-1.75,2.77,2.77,0,0,1,.33-2,2.22,2.22,0,0,1,1.55-1,2.13,2.13,0,0,1,1.57.29,1.67,1.67,0,0,1,.66.83l-1,.39a1.05,1.05,0,0,0-.46-.53,1.14,1.14,0,0,0-.73-.13,1.26,1.26,0,0,0-.82.56,1.93,1.93,0,0,0-.13,1.35A2.31,2.31,0,0,0,43.32,95a1.06,1.06,0,0,0,1.58-.13A1.53,1.53,0,0,0,45.2,94ZM39,91.66v.86c-.13,0-.26,0-.43,0l-.59.07.1,1.15.69-.07a.61.61,0,0,0,.23,0v.86h0l-.79.06.1,1.35.72-.06v.85l-1.64.16-.47-5,2-.16a.11.11,0,0,1,.1,0ZM32.63,95v-.86a1.49,1.49,0,0,0,.46-.06.94.94,0,0,0,.33-.23.88.88,0,0,0,.1-.4.55.55,0,0,0-.13-.46.61.61,0,0,0-.4-.23c-.1,0-.19,0-.36,0v-.86a2.87,2.87,0,0,1,1,.1,1.26,1.26,0,0,1,.72.49,1.38,1.38,0,0,1,.26,1,2,2,0,0,1-.16.79,2.07,2.07,0,0,1-.43.49,3.31,3.31,0,0,1-.56.23A4.43,4.43,0,0,1,32.63,95Zm0-3.13v.86h-.39l-.5,0v1.45h.89V95h-.92l0,1.9-1,0,.1-5,1.61,0Zm-9.51,2.63V93a2.86,2.86,0,0,0,.6.06.6.6,0,0,0,.33-.16,1,1,0,0,0,.16-.36.62.62,0,0,0-.07-.43.56.56,0,0,0-.36-.26,3.83,3.83,0,0,0-.66-.14v-.85l.43.07a3.65,3.65,0,0,1,1.12.32,1.08,1.08,0,0,1,.49.6,1.32,1.32,0,0,1,.07.82,1.33,1.33,0,0,1-.49.85,1.61,1.61,0,0,1-1.06.3,1.88,1.88,0,0,1,.46.49,4.49,4.49,0,0,1,.43.92L25,96.27,23.82,96l-.53-1.22c-.07-.1-.1-.23-.17-.33ZM26,91.37l1,.1-.23,2.73c0,.43,0,.72,0,.82a.93.93,0,0,0,.27.53,1,1,0,0,0,.65.26,1,1,0,0,0,.66-.13.72.72,0,0,0,.33-.4c0-.16.07-.46.1-.85l.23-2.8,1,.1-.23,2.63a4.09,4.09,0,0,1-.2,1.28,1.38,1.38,0,0,1-.33.6,1.47,1.47,0,0,1-.65.36,2,2,0,0,1-1,.06,2.57,2.57,0,0,1-1.08-.26,1.87,1.87,0,0,1-.56-.46,1.45,1.45,0,0,1-.23-.59,6.68,6.68,0,0,1,0-1.28Zm-8,1.48.19-.82,2.14.56-.52,1.94a2.3,2.3,0,0,1-1.06.29,3.49,3.49,0,0,1-1.21-.1,2.65,2.65,0,0,1-1.25-.65,2.37,2.37,0,0,1-.63-1.16,3.07,3.07,0,0,1,.07-1.38,3,3,0,0,1,.69-1.28,2,2,0,0,1,1.15-.62,2.35,2.35,0,0,1,1.25.06,2.36,2.36,0,0,1,1.31.76,1.7,1.7,0,0,1,.37,1.21l-1-.06a1.06,1.06,0,0,0-.23-.69,1.37,1.37,0,0,0-.66-.4,1.47,1.47,0,0,0-1.12.13,1.91,1.91,0,0,0-.72,1.12,2,2,0,0,0,0,1.42,1.35,1.35,0,0,0,.89.69,2.42,2.42,0,0,0,.66.06,3,3,0,0,0,.62-.16l.16-.63L18,92.85Zm5.09-2-1.71-.3-.85,5,1,.16.36-2.07.23,0a1.93,1.93,0,0,1,.49.13,1.28,1.28,0,0,1,.26.26c0,.1.14.26.23.49V93c-.09,0-.19,0-.32,0l-.73-.13.2-1.25.79.13h.06Z"/><path class="cls-2" d="M179.9,84.66V75.38H184V59.07l-4.08,8.15V46.86h16L200,93.77H184V84.66Zm0-37.8V67.22l-4.08,8.16h4.08v9.28h-7.7l-3.15,8.62h-9.94V82.55L170.2,58.64h-2.27l6.31-11.78ZM159.11,62.49l5-11.78-5-2.76ZM119.61,58a11.16,11.16,0,0,0,0-3.91V58Zm39.5-10V62.49l-.66,1.58c-9.8-7-24.27-.63-25.09,6.77-.83,7.73,5.06,14,20.09,9.31L148.29,94c-19.84,2.2-27.53-5.66-28.68-14.84v-5.2a28.32,28.32,0,0,1,1.77-6.9C131.15,42.75,147,48.21,153,47.75l.88-2.7,5.2,2.9Zm0,34.6-5,10.73h5ZM101.78,93c10.62-2.1,21-14.87,10.59-25a14,14,0,0,0,7.24-10V54.07c-.73-4-3.85-7.34-9.74-7.44l-8.09-.16v9h3.35c3.59,0,3.13,9.28-1.35,9.28h-2v7.1c4.83.92,3.12,7.63,0,9.71V93Zm17.83-19v5.2A22.61,22.61,0,0,1,119.61,73.93ZM87.76,46.17l-6.54,12.7,2.92-.23L76.25,93.28h22.6a14.57,14.57,0,0,0,2.93-.3V81.57a3.21,3.21,0,0,1-1.81.62H91.84l2.7-10.43h6.08a6.6,6.6,0,0,1,1.16.1v-7.1H96.12l2.27-9.28h3.39v-9Z"/></svg>