<svg id="Layer_1" data-name="Layer 1" xmlns="http://www.w3.org/2000/svg" viewBox="0 0 1106.13 743.43"><defs><style>.cls-1{fill:#231f20;}.cls-2{fill:#e21f26;}</style></defs><title>bank-bii</title><path class="cls-1" d="M494.33,347.33c-19.43-50.2-83.17-131.25-197.13-123-72.74,5.24-126.28,51-143.84,74.43V24.88H35.64V736.34H153.36V464.72c0-80.92,37.45-113.86,64.8-137.76,41.06-35.89,98.22-30.64,133.58-1.38C403,368,414.25,454.09,401.93,521.76,388.05,598,337.14,648.53,280.41,659.86s-97.25-1.61-97.25-1.61,17.58,49.49,72,70.48c35.28,13.62,122.17,7.16,178.64-42.05,52.75-45.95,73.43-86.62,84.2-163,13.36-95-14.39-153.09-23.62-176.34Z"/><path class="cls-1" d="M641.34,243.83H766.59v365s-2.06,51.26,7.19,63.56,28.76,14.36,28.76,14.36-29.38,54.7-99.6,49.2c-52.37-4.1-59.55-46.13-59.55-81V245.87l-2-2Z"/><path class="cls-1" d="M909.3,243.83h125.25v365s-2,51.26,7.19,63.56,28.75,14.36,28.75,14.36-29.38,54.7-99.59,49.2c-52.36-4.1-59.54-46.13-59.54-81V245.87l-2.06-2Z"/><path class="cls-2" d="M711.16,125v-42h93.16a96.87,96.87,0,1,0,0,42Z"/><path class="cls-2" d="M969.37,7.08a97,97,0,0,0-94.71,75.86h93.18v42H874.66A97,97,0,1,0,969.37,7.08Z"/></svg>