<svg id="Layer_1" data-name="Layer 1" xmlns="http://www.w3.org/2000/svg" viewBox="0 0 1106.13 743.43"><defs><style>.cls-1{fill:#0a9245;}.cls-2{fill:#025f6b;}.cls-3{fill:#f05b24;}.cls-4{fill:#fefefe;}</style></defs><title>bank-bni-syariah</title><path class="cls-1" d="M394,567.69A64.94,64.94,0,0,0,426.87,577c18.76,0,29.72-9.9,29.72-24.24,0-13.27-7.59-20.86-26.77-28.24-23.18-8.22-37.51-20.23-37.51-40.25,0-22.13,18.34-38.57,45.94-38.57,14.55,0,25.09,3.37,31.41,6.95l-5.06,15a56.57,56.57,0,0,0-27-6.75c-19.39,0-26.76,11.59-26.76,21.29,0,13.28,8.64,19.81,28.24,27.4,24,9.27,36.25,20.86,36.25,41.73,0,21.92-16.23,40.88-49.74,40.88-13.7,0-28.66-4-36.25-9.06Z"/><path class="cls-1" d="M520.65,488,543,548.3c2.32,6.74,4.85,14.75,6.54,20.86H550c1.9-6.11,4-13.91,6.53-21.28L576.72,488h19.59L568.5,560.73c-13.28,35-22.34,52.9-35,63.86-9.06,8-18.13,11.17-22.76,12L506.11,621A49.23,49.23,0,0,0,522.34,612a56.29,56.29,0,0,0,15.6-20.66,13.3,13.3,0,0,0,1.47-4.42,16.2,16.2,0,0,0-1.26-4.85l-37.73-94Z"/><path class="cls-1" d="M684.62,590l-1.48-12.86h-.63c-5.69,8-16.65,15.17-31.2,15.17-20.65,0-31.19-14.54-31.19-29.29,0-24.66,21.92-38.15,61.33-37.94V523c0-8.43-2.32-23.61-23.18-23.61A50.74,50.74,0,0,0,631.72,507l-4.22-12.23c8.43-5.47,20.65-9.06,33.51-9.06,31.19,0,38.78,21.29,38.78,41.73v38.15c0,8.85.42,17.49,1.69,24.45ZM681.87,538c-20.23-.42-43.2,3.16-43.2,23,0,12,8,17.71,17.49,17.71,13.28,0,21.71-8.43,24.66-17.08a19.36,19.36,0,0,0,1-5.9Z"/><path class="cls-1" d="M745.52,519.85c0-12-.21-22.34-.85-31.83H760.9l.64,20h.84c4.63-13.7,15.8-22.34,28.24-22.34a20.15,20.15,0,0,1,5.27.63v17.5a28,28,0,0,0-6.32-.63c-13.07,0-22.35,9.9-24.87,23.81a51.28,51.28,0,0,0-.85,8.64V590H745.52Z"/><path class="cls-1" d="M851.73,459.36c.21,6.32-4.43,11.38-11.8,11.38a11,11,0,0,1-11.17-11.38,11.3,11.3,0,0,1,11.59-11.59C847.3,447.77,851.73,452.83,851.73,459.36ZM831.08,590V488h18.54V590Z"/><path class="cls-1" d="M952.68,590l-1.48-12.86h-.63c-5.69,8-16.65,15.17-31.19,15.17-20.65,0-31.19-14.54-31.19-29.29,0-24.66,21.91-38.15,61.33-37.94V523c0-8.43-2.32-23.61-23.19-23.61A50.77,50.77,0,0,0,899.78,507l-4.22-12.23c8.43-5.47,20.66-9.06,33.51-9.06,31.2,0,38.78,21.29,38.78,41.73v38.15c0,8.85.42,17.49,1.69,24.45ZM949.94,538c-20.24-.42-43.21,3.16-43.21,23,0,12,8,17.71,17.5,17.71,13.27,0,21.7-8.43,24.65-17.08a19.08,19.08,0,0,0,1.06-5.9Z"/><path class="cls-1" d="M1013.58,440.39h18.55V504h.42A34.41,34.41,0,0,1,1045.83,491a38.17,38.17,0,0,1,19-5.27c13.7,0,35.62,8.43,35.62,43.63V590h-18.54V531.44c0-16.44-6.12-30.35-23.61-30.35-12,0-21.5,8.43-24.87,18.54-1.05,2.53-1.26,5.27-1.26,8.86V590h-18.55Z"/><path class="cls-2" d="M387.78,412.83c6.93-5.16,12.65-9.49,17.64-14.7A22.24,22.24,0,0,0,412,381.76q-.25-122.49,0-245c0-6.63-2.26-11.36-7.11-15.42s-10.38-7.37-17.09-11.43h5.72c43.33,0,86.67-.32,130,.14,21.14.23,40.52,7.11,57.57,19.78,32.22,24,25.86,69.82,5.43,90.82A78.06,78.06,0,0,1,574,231.22a83.21,83.21,0,0,1-15.55,7.93c4.86,1.16,8.84,1.92,12.7,3,26.75,7.85,47.77,22.56,57.2,50,13.59,39.49-.82,76.87-37.63,98.92-19,11.39-39.63,18.22-61.47,21.52a24.54,24.54,0,0,1-3.74.2H387.78Zm73.74-94.22c0,18.62.07,37.24-.08,55.85,0,3.32,1,4.19,4.21,4.17q28.86-.21,57.73,0A43.74,43.74,0,0,0,538.52,376a85.62,85.62,0,0,0,26.83-15c17.29-14.6,25.07-33,20.16-55.48-5.24-24.05-34.23-46.06-60.33-46.31-19.86-.18-39.74.05-59.6-.11-3.34,0-4.17,1-4.14,4.2C461.59,281.69,461.52,300.15,461.52,318.61Zm0-131.4c0,14.38.09,28.76-.08,43.13,0,3.29.89,4.22,4.18,4.18q24.6-.24,49.22,0a29.08,29.08,0,0,0,13.08-3c22.28-10.79,32.8-31.7,28.23-56a43.31,43.31,0,0,0-43-35.7c-15.93,0-31.87.08-47.81-.07-3.11,0-3.93.86-3.89,3.92C461.6,158.15,461.52,172.68,461.52,187.21Z"/><path class="cls-2" d="M723.72,181.37c-1.16,1.78-.67,3.36-.67,4.82q0,98.1-.12,196.18a21.39,21.39,0,0,0,5.87,15.25,117.7,117.7,0,0,0,16.76,14.82H665.27c4.38-4,8.57-7.86,12.72-11.73,6.15-5.72,8.86-12.42,8.83-21.18q-.44-121.56-.06-243.12a18.46,18.46,0,0,0-6.21-14.47c-4.55-4.27-9.76-7.7-15-11.32,1.38-1.26,2.82-.66,4.09-.66,21,0,41.93.05,62.89-.12,3.52,0,5.58,1,7.57,4,28.19,42.45,56.39,84.9,87,125.64,23.48,31.24,47.79,61.87,71,93.28.5.67.77,1.78,2.38,1.6v-4.47q0-96.67.1-193.36a17.46,17.46,0,0,0-5.81-13.68c-4.91-4.62-10.55-8.26-16.75-12.57h81.75c-.48,1.52-2.2,1.66-3.41,2.28-5.72,2.92-11.33,6-16.3,10.09a15.6,15.6,0,0,0-6,13q.2,143.39.09,286.76v5.84c-7-3.54-12.64-8.17-18.38-12.57-23.7-18.15-42.33-41.1-60.74-64.27-43.58-54.84-86-110.61-128.44-166.31C725.72,183.88,724.78,182.72,723.72,181.37Z"/><path class="cls-2" d="M1102.94,412.69h-92.29c-.51-1.5,1-1.7,1.7-2.3,2.76-2.31,5.6-4.51,8.38-6.79,8.46-6.93,12.25-15.24,12.18-26.8-.48-79.76-.33-159.53-.12-239.3,0-7.33-2.52-12.53-8-17-4.48-3.67-9.4-6.68-15-10.3h92.28c-2.77,1.65-5.13,2.93-7.36,4.4-3,2-6,4-8.87,6.11-5.56,4-8.06,9.08-8,16.33q.35,122,0,244c0,7.85,2.87,13.47,8.19,18.5A134.21,134.21,0,0,0,1102.94,412.69Z"/><path class="cls-3" d="M103.8,107.41A99.79,99.79,0,0,0,97,131.19c-3.47,24.5.72,47.95,9.9,70.62,11.91,29.39,29.78,55.17,49.43,79.78,2.69,3.37,2.24,4.68-.89,7.05-8.6,6.5-17,13.31-25.32,20.15-2.25,1.84-3.46,2-5.48-.49q-59.4-74.7-119-149.23c-1.38-1.72-2.5-3.33-2.48-5.79.13-14.23.11-28.46,0-42.69,0-2.42.32-3.65,3.24-3.64,31.9.1,63.8.07,95.7.09A10.27,10.27,0,0,1,103.8,107.41Z"/><path class="cls-3" d="M310.74,259.63c0,17.82-.09,35.64.08,53.46,0,3.19-1.1,4.73-3.82,6.05-13.92,6.71-28.1,7-41.46-.35-24.53-13.55-44.58-32.36-58.07-57-8.95-16.35-11.64-34.39-4.59-52.48,11.64-29.85,42.44-41.7,73.72-28.67,11.46,4.78,21.76,11.53,31.64,19,2.21,1.66,2.54,3.61,2.53,6.07C310.71,223.68,310.74,241.66,310.74,259.63Z"/><path class="cls-3" d="M180.14,231.11a167.37,167.37,0,0,1-14.91-21c-12.1-19.32-22.1-39.51-25.48-62.39-1.84-12.5-2-24.89,2.48-37,1.07-2.86,2.58-4,5.83-4q79.26.24,158.53.12c3.23,0,4.28.82,4.22,4.15-.19,11.41-.24,22.82,0,34.23.09,4.31-1.27,4.06-4.5,2.79-44.7-17.62-88.39.88-110.11,34.29-8.56,13.16-12.56,28.12-14.69,43.58C181.31,227.62,181.6,229.41,180.14,231.11Z"/><path class="cls-3" d="M226.23,393.84c-16.81,1-30.21-7.22-42.51-16.94-15.9-12.57-28.28-28.64-40.87-44.41-1.62-2-.63-2.95.81-4.13,9.41-7.75,18.87-15.44,28.16-23.34,2.58-2.19,3.49-.27,4.75,1.23a198,198,0,0,0,31.29,30.24c16.12,12.38,33.93,20.56,54.58,20.89,17.84.28,33.43-5.43,45.84-18.71a16.24,16.24,0,0,1,1.37-1.25,1.39,1.39,0,0,1,.46-.14c1.06.83.61,2,.61,3q0,34,0,68c0,2.32.52,4.59-3.33,4.57-33.28-.11-66.57-.06-101.19-.06l20.46-18.58c.33-.11.88-.07.59-.64C227.23,393.53,226.59,393.76,226.23,393.84Z"/><path class="cls-3" d="M3.55,219.05c11.7,14.77,22.78,28.73,33.84,42.7Q65.5,297.24,93.66,332.7c1.78,2.23,2.15,3.45-.37,5.53q-43.64,35.94-87.11,72.1c-.69.58-1.46,1.06-2.63,1.9Z"/><path class="cls-3" d="M157.8,412.69H42.23c-.52-1.62.84-2,1.57-2.57,21-17.59,42-35.06,62.81-52.81,3.32-2.83,4.7-2.21,7.17.83,13.68,16.87,27.59,33.56,41.39,50.34C156.12,409.64,157.49,410.58,157.8,412.69Z"/><path class="cls-4" d="M226.23,393.84c.36-.08,1-.31,1-.22.29.57-.26.53-.59.64Q226.46,394.07,226.23,393.84Z"/></svg>