<svg id="Layer_1" data-name="Layer 1" xmlns="http://www.w3.org/2000/svg" xmlns:xlink="http://www.w3.org/1999/xlink" viewBox="0 0 200 138"><defs><style>.cls-1{fill:none;}.cls-2{clip-path:url(#clip-path);}.cls-3{fill:#f15b26;}.cls-4{fill:#045f6b;}</style><clipPath id="clip-path"><rect class="cls-1" width="200" height="138"/></clipPath></defs><title>BNI</title><g class="cls-2"><polygon class="cls-3" points="0 60.1 16.87 81.39 0 95.37 0 60.1"/><polygon class="cls-3" points="6.79 95.37 19.49 84.75 28.26 95.37 6.79 95.37"/><path class="cls-3" d="M0,48.72l4.4,5.57L22.51,76.91l5.86-4.67a73.08,73.08,0,0,1-8.14-12.13c-6.39-12.51-1.86-20.3-1.86-20.3H0Z"/><path class="cls-3" d="M25.09,80.4l6-4.93S36.77,83,43.38,84.75c8.67,2.32,12.51-3.36,12.51-3.36v14h-19l4.29-3.71s-2.24,1.49-7.72-2.3C30.19,87.12,25.09,80.4,25.09,80.4Z"/><path class="cls-3" d="M25.64,39.77s-1.91,2.59-.55,8.95c1.45,6.79,7.21,14,7.2,13.81,0,0,.37-7.13,4.56-11.32a16.54,16.54,0,0,1,19-3.61V39.81Z"/><path class="cls-3" d="M55.89,57s-5.64-4.84-10.55-4.84a9.7,9.7,0,0,0-9.7,9.35c0,5.73,2.74,8.91,5.5,11.67,4,4,8.79,8.24,14.75,4.8Z"/><path class="cls-4" d="M120.18,40.35H133.5s11.8,17.87,17.6,25.25,12,15.79,12,15.79v-37c0-1.6-4.2-4-4.2-4H174.3s-5,2.07-5,4V98.23a42.69,42.69,0,0,1-10.32-9c-6.16-7.16-28.08-36.07-28.08-36.07V90.55c0,1.92,4.2,4.82,4.2,4.82H120.18s4.08-2.92,4.08-4.82V44.35C124.26,42.65,120.18,40.35,120.18,40.35Z"/><path class="cls-4" d="M182.9,40.35H200s-4.59,2.17-4.59,4v46.2c0,2,4.59,4.82,4.59,4.82H182.9s4.28-2.89,4.28-4.82V44.35C187.18,42.59,182.9,40.35,182.9,40.35Z"/><path class="cls-4" d="M69.88,40.35s4.43,2.21,4.43,4v46.2c0,2-4.43,4.82-4.43,4.82H95.21c1.58,0,19.31-2.9,19.31-16.57s-13.77-14.95-13.77-14.95a12,12,0,0,0,8.39-11.68c0-10.08-12.35-11.82-13.93-11.82ZM83.34,63V45.75H93.63c1.58,0,7.12,1.85,7.12,8.7,0,5.66-5.54,8.5-7.12,8.5Zm0,4.51H95.21c1.58,0,10.92,2.43,10.92,10.53,0,8.26-9.34,11.19-10.92,11.19H83.34Z"/></g></svg>