<svg id="Layer_1" data-name="Layer 1" xmlns="http://www.w3.org/2000/svg" xmlns:xlink="http://www.w3.org/1999/xlink" viewBox="0 0 1106.13 743.43"><defs><style>.cls-1{fill:none;}.cls-2{clip-path:url(#clip-path);}.cls-3{fill:url(#未命名的渐变_3);}.cls-4{clip-path:url(#clip-path-2);}.cls-5{fill:url(#未命名的渐变_2);}.cls-6{clip-path:url(#clip-path-3);}.cls-7{fill:url(#未命名的渐变_6);}.cls-8{clip-path:url(#clip-path-4);}.cls-9{fill:url(#未命名的渐变_6-2);}.cls-10{clip-path:url(#clip-path-5);}.cls-11{fill:url(#未命名的渐变_6-3);}.cls-12{clip-path:url(#clip-path-6);}.cls-13{fill:url(#未命名的渐变_6-4);}.cls-14{fill:#fff;}</style><clipPath id="clip-path"><rect id="SVGID" class="cls-1" x="3.18" y="257.91" width="227.6" height="227.61"/></clipPath><linearGradient id="未命名的渐变_3" x1="7114.18" y1="-247.33" x2="7118.69" y2="-247.33" gradientTransform="matrix(0, 53.23, 53.23, 0, 13283.06, -378462.56)" gradientUnits="userSpaceOnUse"><stop offset="0" stop-color="#30744e"/><stop offset="0.11" stop-color="#387b57"/><stop offset="0.29" stop-color="#4d906e"/><stop offset="0.51" stop-color="#70b095"/><stop offset="0.6" stop-color="#80c0a7"/><stop offset="0.68" stop-color="#6db597"/><stop offset="0.89" stop-color="#449c73"/><stop offset="1" stop-color="#349365"/></linearGradient><clipPath id="clip-path-2"><path id="SVGID-2" data-name="SVGID" class="cls-1" d="M21,261.91c-4.41,0-7.3,3.72-8,8.94,0,0-5.69,29.88-5.69,93.32s5.69,105,5.69,105c.52,5,3.57,8.95,8,8.95H218c4.41,0,7.9-3.49,8-8.95,0,0-2.19-48.64-2.19-96.14S226,270.85,226,270.85c.11-4.86-3.57-8.94-8-8.94Z"/></clipPath><linearGradient id="未命名的渐变_2" x1="7112.57" y1="-232.81" x2="7117.08" y2="-232.81" gradientTransform="matrix(0, 59.82, 59.82, 0, 14043.57, -425273.24)" gradientUnits="userSpaceOnUse"><stop offset="0" stop-color="#349365"/><stop offset="0.07" stop-color="#419a70"/><stop offset="0.2" stop-color="#62ae8d"/><stop offset="0.3" stop-color="#80c0a7"/><stop offset="0.35" stop-color="#6db597"/><stop offset="0.48" stop-color="#449c73"/><stop offset="0.55" stop-color="#349365"/><stop offset="0.83" stop-color="#30744e"/><stop offset="0.84" stop-color="#30744e"/><stop offset="0.89" stop-color="#307d57"/><stop offset="0.97" stop-color="#31946e"/><stop offset="1" stop-color="#319c76"/></linearGradient><clipPath id="clip-path-3"><path id="SVGID-3" data-name="SVGID" class="cls-1" d="M131.61,284.74c6.21,2.61,31.18,16.11,34.25,20.42-12.57,1.66-37.21,8.08-50.49,14.54l-.77,1.57c14.63-3.23,35.09-4.91,49.2-5.68-5.27,7.73-8.75,11.41-16.77,20.16l-.74,1.69c15.27-9.17,19.57-9.83,33.64-18.08,5.32,7.87,6.6,26,6.81,40.35,4.57-9.11,10.13-43.43,7.82-49.63,9.34-6.41,10.6-11.57,10.6-11.57-8.56.74-13.28.89-17.89,2.34-10.94-6.7-36-15.55-54.94-17.69Z"/></clipPath><linearGradient id="未命名的渐变_6" x1="7089.61" y1="66.23" x2="7094.12" y2="66.23" gradientTransform="matrix(0, -38.71, -38.71, 0, 2723.71, 274903.13)" gradientUnits="userSpaceOnUse"><stop offset="0" stop-color="#2fa47f"/><stop offset="1" stop-color="#349365"/></linearGradient><clipPath id="clip-path-4"><path id="SVGID-4" data-name="SVGID" class="cls-1" d="M38.37,391.39c-1.24,11.43-1.74,19.61-.09,28.76-4.63,1.28-8.69,1.46-12.42,3.05l-.71,1.56a157.2,157.2,0,0,0,17.48,9.6A59.3,59.3,0,0,0,56,453.22l.73-1.59c-1.08-4.39-2.49-8-2-12.8a84,84,0,0,0,22.36,3.59l.72-1.59c-7.48-2.91-15-5.19-21-10.89a61.8,61.8,0,0,1,7.63-14.69l.75-1.6c-6.42,1-12.25,3.31-17.8,4.4-4.38-7.7-6.08-18.24-8.29-28.26Z"/></clipPath><linearGradient id="未命名的渐变_6-2" x1="7089.62" y1="68.25" x2="7094.13" y2="68.25" gradientTransform="matrix(0, -38.72, -38.72, 0, 2694.15, 274985.53)" xlink:href="#未命名的渐变_6"/><clipPath id="clip-path-5"><path id="SVGID-5" data-name="SVGID" class="cls-1" d="M76.48,339.21A112.72,112.72,0,0,0,63.72,339c-6.72.31-16.75.91-21.62,2.33l-.71,1.58c7.74.33,18.36,2.41,22.43,6.49,0,0-11.77,10.62-23.42,33.84,0,0,21.13-19.83,30.29-24.75,0,0,4.8,16,8.13,24l.73-1.6c.93-5.13,3.21-19.07,7.12-27.6,0,0,1.37-.84,8.14-1.49s16.35-1,34.55,2.22l.74-1.56c-4.16-2.46-20.72-9.56-38.24-11.92h.57a82,82,0,0,1,5.42-12.4c-3.72.53-14.29,5.47-21.37,11.11"/></clipPath><linearGradient id="未命名的渐变_6-3" x1="7089.61" y1="67.79" x2="7094.12" y2="67.79" gradientTransform="matrix(0, -38.7, -38.7, 0, 2708.48, 274816.94)" xlink:href="#未命名的渐变_6"/><clipPath id="clip-path-6"><path id="SVGID-6" data-name="SVGID" class="cls-1" d="M120.77,437.21c-.26-3.11-.46-5.74-.62-9.23-3.68,5-6.82,8.91-10.87,13.47-4.3,1.19-9.2,1.14-13.67,1.09-1.77,0-3.47,0-5,0l-.72,1.59a48.12,48.12,0,0,0,12.6,4.36c-3.53,3.22-8.25,5.66-11.57,7.9L90.15,458c7.11-1.69,16.47-4.7,23.44-8.83a40.88,40.88,0,0,0,9.51-.57s.74-1.62.74-1.58c-.45-1.61-1.88-2.59-2.3-4.84A164.32,164.32,0,0,0,138.28,427l.76-1.59c-5.41,3.73-12,8.84-18.27,11.84"/></clipPath><linearGradient id="未命名的渐变_6-4" x1="7089.61" y1="67.02" x2="7094.12" y2="67.02" gradientTransform="matrix(0, -38.71, -38.71, 0, 2709.05, 274903.78)" xlink:href="#未命名的渐变_6"/></defs><title>bank-bnp-paribas</title><g class="cls-2"><rect id="_Path_" data-name="&lt;Path&gt;" class="cls-3" x="3.18" y="257.91" width="227.6" height="227.61"/></g><g class="cls-4"><rect id="_Path_2" data-name="&lt;Path&gt;" class="cls-5" x="7.3" y="261.91" width="218.76" height="216.22"/></g><g class="cls-6"><rect id="_Path_3" data-name="&lt;Path&gt;" class="cls-7" x="114.6" y="283.16" width="90.56" height="76.56"/></g><g class="cls-8"><rect id="_Path_4" data-name="&lt;Path&gt;" class="cls-9" x="25.15" y="389.79" width="52.66" height="63.43"/></g><g class="cls-10"><rect id="_Path_5" data-name="&lt;Path&gt;" class="cls-11" x="40.4" y="328.1" width="89.7" height="55.13"/></g><g class="cls-12"><rect id="_Path_6" data-name="&lt;Path&gt;" class="cls-13" x="89.85" y="425.37" width="49.19" height="32.6"/></g><g id="_Group_" data-name="&lt;Group&gt;"><path id="_Path_7" data-name="&lt;Path&gt;" class="cls-14" d="M180.66,317.76c-14,8.26-18.35,9-33.62,18.1A157.12,157.12,0,0,0,164.53,314c-14.09.74-34.55,2.43-49.16,5.67,12.72-6.8,37.93-14.34,51.24-16.14-3.09-4.26-28.07-17.79-34.28-20.4,19.78,1.53,43.95,8.93,55.67,16.09,4.61-1.44,9.41-1.5,18-2.27-2.18,3.75-2.27,5.93-10.7,11.5,2.34,6.25-3.23,40.55-7.83,49.63-.17-14.35-1.43-32.47-6.79-40.35"/><path id="_Path_8" data-name="&lt;Path&gt;" class="cls-14" d="M77.81,440.83a55.87,55.87,0,0,1-20.29-12.46,63.34,63.34,0,0,1,7.67-14.72c-6.56,1-11.4,1.72-17,2.78-4.6-8-6.69-15.82-9-26.64-1.26,11.47-1.73,19.66-.12,28.78a84.15,84.15,0,0,0-13.13,4.63,162.1,162.1,0,0,0,17.49,9.59,59.73,59.73,0,0,0,13.33,18.85,35.23,35.23,0,0,1-1.21-14.39,83.68,83.68,0,0,0,22.34,3.58"/><path id="_Path_9" data-name="&lt;Path&gt;" class="cls-14" d="M98.82,326.74h0a46.83,46.83,0,0,0-6.22,12.17c20.81,2.83,37.5,13.51,37.5,13.51-18.2-3.23-27.78-2.83-34.57-2.22s-8.13,1.43-8.13,1.43c-4.9,10.76-7.85,29.22-7.85,29.22-3.31-8-8.09-24-8.09-24-9.18,4.91-30.29,24.77-30.29,24.77,11.6-23.26,23.38-33.83,23.38-33.83-4-4.11-14.68-6.15-22.45-6.5,4-1.65,14.38-3.57,22.34-3.94a119.42,119.42,0,0,1,12.78.22c7.1-5.6,17.88-10.33,21.6-10.87"/><path id="_Path_10" data-name="&lt;Path&gt;" class="cls-14" d="M120.89,426.41A168,168,0,0,1,110,439.86a66.75,66.75,0,0,1-19.41,2.7,48.53,48.53,0,0,0,12.62,4.37,87.65,87.65,0,0,1-12.31,9.47c7.12-1.68,16.47-4.7,23.43-8.82a42.76,42.76,0,0,0,9.54-.59,50.69,50.69,0,0,1-1.58-6.42A161.54,161.54,0,0,0,139,425.37a113.07,113.07,0,0,1-17.54,10.25c-.29-3.1-.45-5.71-.61-9.21"/><path d="M316.44,341c15.32.13,20.94,3.24,20.94,11.58a8.81,8.81,0,0,1-2.07,5.91c-2.93,3.53-8.65,5.36-15.94,4.9H319l-4.28,11.15H319c8.46-.24,15.82,2.42,19.59,7a11.17,11.17,0,0,1,2.63,7.21c0,8.72-7.68,13.23-22.84,13.23-2.55,0-6.71,0-9.28-.09-.44-11.65-.63-27.4-.63-32.15,0-5.49.36-17.73.63-28.2a41.31,41.31,0,0,1,7.35-.59m-28.39-8c.48,8.27,1,29.19,1,36.81,0,7,0,30.55-1.23,40.7l-.09.8h36.77c18.06,0,37.17-5.63,37.17-21.67,0-10-7.28-17.47-20.88-21.53,10.09-2.71,16.82-9.6,16.82-17.49,0-13.09-15.05-18-29.19-18.36H287.84Z"/><path id="_Path_11" data-name="&lt;Path&gt;" d="M446.46,332.23H428.57l.73,19.94c.34,9.85.68,20,1.37,29.82-1.15-3.08-2.23-4.66-7.66-12.58,0-.27-18.62-28.88-25.07-37l-.19-.18H377V333c.66,8.27.93,29.18.93,36.81,0,7,0,30.55-1,40.69l-.17.81h18.49v-.81c-1.05-19.29-1.05-38.76-1.05-57.64.65,2.29,1.46,4.25,4.38,8.57.23.51,32.09,46.89,33.64,49.55l.16.33H447.2l0-.81C446,400.34,446,376.82,446,369.79c0-7.63.51-28.54,1-36.81l.23-.75Z"/><path d="M495,341.78c10.32-.19,17.51,1.89,20.92,6.22a10.88,10.88,0,0,1,2.44,7.13c0,11.43-12.87,13.92-23.63,13.92l-4.36-.25s-1-.09-1.81-.18c-.07-2.64-.07-6.13-.07-10,0-5,0-10.88.23-16.35a50.59,50.59,0,0,1,6.28-.45M467.85,333c.73,8.27,1,29.18,1,36.81,0,7,0,30.55-1.09,40.7v.8h22l-.09-.8c-.76-7.3-1.15-21.22-1.22-31.86l4.15.21,3.12.08c28.94,0,43-7.67,43-23.79,0-18.34-19.75-22.55-36.22-22.9H467.85Z"/><path d="M607.83,341.78c10.33-.19,17.53,1.89,21,6.22a10.79,10.79,0,0,1,2.38,7.13c0,11.43-12.85,13.92-23.47,13.92l-4.36-.25s-1.16-.09-1.82-.18c-.13-2.64-.13-6.15-.13-10,0-5,0-10.88.21-16.35a47.38,47.38,0,0,1,6.2-.45M580.75,333c.69,8.27,1.1,29.18,1.1,36.81,0,7-.08,30.55-1.22,40.7v.8h22l-.12-.8c-.7-7.3-1.1-21.22-1.1-31.86l4,.21,3.19.08c28.93,0,43.14-7.67,43.14-23.79,0-18.34-19.86-22.55-36.38-22.9H580.75Z"/><path d="M686.5,355.51c1.74,3.78,6.28,14.28,11.4,26.82-.8,0-1.78,0-1.78,0l-9.62.12s-10-.12-11.63-.16c4.15-10,8.26-19.08,11.63-26.82m-5.37-23.27h-.28l-.16.4c-4.1,11.24-30.49,68.83-34.66,77.66l-.36,1h18.75l.16-.44c1.65-5.42,3.86-11.53,6.27-18.05.76,0,15.65-.23,15.65-.23l12.93.1s2.09.13,2.72.13c3.33,8.5,5.89,14.9,7,18.16l.22.33h21.7L696,332.24H681.13Z"/><path id="_Path_12" data-name="&lt;Path&gt;" d="M739.91,333c.63,8.27.94,29.19.94,36.81,0,7,0,30.55-1.2,40.69v.81h22.14l-.09-.81c-1.17-10.2-1.26-33.66-1.26-40.69,0-5.49.17-17.74.72-27.64,1.69-.11,4.24-.37,6-.37,10.24-.19,17.47,1.92,20.86,6.21a10.7,10.7,0,0,1,2.36,7.14c0,9.13-8.52,13.75-16.46,14.17a23.9,23.9,0,0,1-4.65-.24l-1.55-.26.86,1.45c7.85,11.46,19.61,31.31,24.46,40.71l.15.33H816.8l-.57-1.07c-1-1.33-16.37-24-22.92-33.69,0,0-.29-.27-.57-.58,12.13-3.64,18-10.42,18-20.82,0-18.21-19.75-22.54-36.41-22.9H739.85Z"/><path id="_Path_13" data-name="&lt;Path&gt;" d="M848.1,332.23H827l.12.75c.54,8.27,1,29.18,1,36.81,0,7-.1,30.49-1.09,40.69l-.08.81H848.8l-.11-.81c-.84-10.2-1.11-33.7-1.11-40.69,0-7.63.52-28.54,1.11-36.81v-.75Z"/><path d="M897.09,341h0c15.45.13,21.06,3.24,21.06,11.58a8.65,8.65,0,0,1-2.11,5.91c-2.79,3.53-8.73,5.36-16,4.9h-.36l-4.24,11.15h4.24c8.5-.24,15.78,2.42,19.55,7A10.75,10.75,0,0,1,922,388.8c0,8.72-7.71,13.23-23,13.23-2.45,0-6.56,0-9.14-.09-.64-11.65-.64-27.4-.64-32.15,0-5.49.21-17.73.64-28.2a39.26,39.26,0,0,1,7.2-.59m-28.37-8c.63,8.27,1,29.19,1,36.81,0,7,0,30.55-1.11,40.7l-.18.8h36.82c18,0,37.16-5.63,37.16-21.67,0-10-7.28-17.47-21-21.53,10.1-2.71,16.91-9.6,16.91-17.49,0-13.09-15.07-18-29.08-18.36H868.63Z"/><path d="M987.47,355.47c1.77,3.69,6.28,14.21,11.4,26.78-.78,0-1.73.08-1.73.08l-9.67.14s-10.08-.22-11.58-.22c4.1-10.09,8.11-19.09,11.58-26.78m9.1-23.24h-14.8l-.1.36c-4.42,12-32.3,72.6-34.64,77.63l-.41,1.07h18.84l.11-.47c1.57-5.42,3.76-11.5,6.22-18.15l15.57-.24,12.95.2,2.75,0c3.41,8.49,6,14.95,7,18.15l.21.47h21.8L997,332.23Z"/><path id="_Path_14" data-name="&lt;Path&gt;" d="M1038.27,352.68c0,13.88,13.91,19.47,26.23,24.58,9.59,3.82,19.62,7.85,19.62,14.47a6.92,6.92,0,0,1-1.51,4.88c-2.31,2.71-7,3.85-14.38,3.44s-15.63-2.61-24.94-6.9l-3.65-1.76v17.23l2.49.63,1.45.25c4.59,1.14,13.47,3.23,22.31,3.23,23.2,0,37-9.26,37-24.56,0-14.38-14.3-20-26.94-25-9.31-3.78-19-7.51-19-13.68,0-1.78,0-7,12-7,8.86,0,17.49,3.6,22.37,5.48l4.46,1.86,0-3V332.58l-4.44-.8a101,101,0,0,0-19.78-2.41c-20,0-33.4,9.46-33.4,23.31"/></g></svg>