<svg id="Layer_1" data-name="Layer 1" xmlns="http://www.w3.org/2000/svg" viewBox="0 0 1106.13 743.43"><defs><style>.cls-1{fill:#1d1d1b;}.cls-2{fill:#f6a500;}.cls-3{fill:#b61918;}</style></defs><title>bank-bpd-riau</title><path class="cls-1" d="M274.45,564.6h11.47V516.86l45.93,47.74H347.7l-50.84-51.75,45.38-41.18H327.47l-41.55,38.08V427.92H274.45Zm-91.76,0h11.47V513.22A54,54,0,0,1,195.63,501a36,36,0,0,1,4.55-10.75c4.27-7,11.3-10.87,21.51-10.93,7.89-.06,13.75,2.57,17.12,7.65s4.93,12.26,4.93,21.15V564.6h11.48V505.19c0-10.44-2.32-19-7.11-25.51-4.94-6.72-13.18-10.12-24.6-10.2a39,39,0,0,0-12.21,1.63,25.42,25.42,0,0,0-8.57,4.56,28.74,28.74,0,0,0-5.46,6,61.2,61.2,0,0,0-3.83,6.56h-.37V471.67H182c.48,7.4.73,14.7.73,21.86Zm-30.2-41.18c0,2.43-.13,5.53-.37,9.29a29.77,29.77,0,0,1-3.1,11.11,23.38,23.38,0,0,1-8.2,9.13q-5.85,4-15.85,4a23,23,0,0,1-13.49-4c-3.82-2.66-5.83-6.81-5.83-12.76,0-5.12,1.46-9.11,4.19-12.22a24,24,0,0,1,10.21-6.74,53.66,53.66,0,0,1,14.21-3.1c5-.35,10-.35,14.94-.35h3.29Zm1.09,41.18h11.3a162.25,162.25,0,0,1-.92-19.49v-41c0-23.33-10.62-35-32.62-34.62A66.37,66.37,0,0,0,104,475.86V487a51.28,51.28,0,0,1,27.33-7.65c14.45.07,21.15,8,21.15,23.87v4.74H150.3c-6.07,0-12.41.06-19,.54a72.19,72.19,0,0,0-18.59,4,30.88,30.88,0,0,0-14,9.66c-3.74,4.52-5.51,10.62-5.66,18.4-.09,4.75,1.39,10.28,5.48,16.22,2,2.93,5.37,5,9.47,6.93a37.26,37.26,0,0,0,15.67,3.09A36.41,36.41,0,0,0,141,562.23a27.78,27.78,0,0,0,12.21-12.56h.37ZM69.7,518.13a98.66,98.66,0,0,1-.91,13.3,41.11,41.11,0,0,1-4.55,12.76,23.71,23.71,0,0,1-8.39,8.94q-5.48,3.81-13.67,3.82a20.71,20.71,0,0,1-12.75-3.82,26.43,26.43,0,0,1-8.57-9.31,53.68,53.68,0,0,1-6.19-25.69,54.68,54.68,0,0,1,6-25.88,28,28,0,0,1,8.56-9.47,23.09,23.09,0,0,1,12.94-3.46q8.2,0,13.67,3.46a21.73,21.73,0,0,1,8.39,9.11,37,37,0,0,1,4.55,12.39,105.5,105.5,0,0,1,.91,13.85M3.18,564.6H14.67V549.84H15Q24.15,567,44,566.79q19.14-.37,28.8-14,9.48-13.66,9.48-34.63,0-21.67-8.75-35Q64.42,469.66,44,469.48a32.38,32.38,0,0,0-11.84,2,30.53,30.53,0,0,0-8.74,5.1A26,26,0,0,0,18,482.24,22.78,22.78,0,0,0,15,487.33h-.36V427.92H3.18Z"/><path class="cls-1" d="M1077.79,450.33h25.15v-24h-25.15Zm0,114.27h25.15V468h-25.15Zm-69.8,0h25.14V529.13q0-5.62.37-12.19a51.47,51.47,0,0,1,2.26-12.76,24.46,24.46,0,0,1,6.19-10.31c2.78-2.73,6.63-4.13,11.63-4.13s8.64.68,11.27,2.06V466.46a36,36,0,0,0-7.7-.74,23.79,23.79,0,0,0-18.2,8.62c-4.69,5.44-7.51,10.58-8.26,15.58h-.37V468H1008Zm-67.07-79.37a17.3,17.3,0,0,1,10.33,2.82,17.55,17.55,0,0,1,6.37,7.5A50.8,50.8,0,0,1,961.75,516a61.2,61.2,0,0,1-.75,10.32,37,37,0,0,1-3.57,10.32,20.45,20.45,0,0,1-6.38,7.51,17.24,17.24,0,0,1-10.51,3.2,16.66,16.66,0,0,1-10.32-3.2,24,24,0,0,1-6.76-7.51A41.12,41.12,0,0,1,918.41,516a43.07,43.07,0,0,1,5.24-20.45c3.56-6.6,9.26-10.16,17.27-10.32M893.07,604h25.14V553.53h.38c4.5,5.13,9.09,8.62,13.69,10.52a37.19,37.19,0,0,0,14.64,2.8c15-.18,25.75-5.42,32.09-15.57,6.16-9.86,9-21.64,9-35.28s-2.78-25.58-9-35.27-16.89-15.08-31.52-15-24.65,5.68-30,15.94h-.38V468h-24Zm-27.77-65.3a83.6,83.6,0,0,1-14.82,6.74,51.74,51.74,0,0,1-17.27,3c-7.75,0-14.08-2.26-19.14-6.57s-7.82-10.08-8.44-17.82h66.8c.12-17.27-2.87-31.36-9.39-42.05s-18.94-16.38-36.58-16.31c-14.89,0-26.12,5.17-33.59,14.82s-11.36,21.83-11.26,36.21c.26,32.9,17.2,49.75,50.48,50.1,13.25.14,24.33-2.56,33.21-7.69Zm-59.67-31.91c.5-6.63,2.6-12.1,6.38-16.33s9.07-6.37,16-6.37,12.14,2.36,15.38,6.75,4.82,9.56,5.07,15.95ZM690.41,564.6h25.15V517.69h.38l32.28,46.91H780.1l-40.52-53.48,36-43.16H746l-30,38.66h-.38V423.86H690.41ZM666,468H640.87v47.3a75.86,75.86,0,0,1-.74,10.12,33.53,33.53,0,0,1-3.39,10.33,22.74,22.74,0,0,1-6.56,8.06,18.24,18.24,0,0,1-11.45,3.58c-3.89,0-6.94-1-9.19-2.83a15.41,15.41,0,0,1-4.88-6.75,36,36,0,0,1-1.69-9.2c-.12-1.62-.07-3.19-.18-4.7s-.38-2.93-.38-4.31V468H577.26v61c0,11,2.8,19.93,8.08,27s13.37,10.94,24.76,10.87c13.27-.06,23.83-5.37,31.71-15.38h.38V564.6H666ZM495.07,536.64a13.56,13.56,0,0,1,3-9,16.8,16.8,0,0,1,6.95-5.06,39,39,0,0,1,9.19-2.26,34.42,34.42,0,0,1,4.51-.37h15.2c.12,7.63-1.51,14.34-5.26,19.88-3.87,5.72-9.88,8.56-17.63,8.64a19.91,19.91,0,0,1-11.26-3,9.77,9.77,0,0,1-4.7-8.82m-12.76-42a48.06,48.06,0,0,1,29.83-10.51c7.51-.05,13.06,1.46,16.52,4.5s5.26,8.57,5.26,16.32H520a136.35,136.35,0,0,0-16.52.95,52.75,52.75,0,0,0-15.94,4.68,28.51,28.51,0,0,0-11.64,9.94c-3.16,4.57-4.93,10.39-4.87,17.64.07,9.26,3.75,16.24,10.69,21.2a39.12,39.12,0,0,0,23.08,7.51,35.37,35.37,0,0,0,17.26-4.49,31.26,31.26,0,0,0,12.58-12.21H535a120.56,120.56,0,0,0,1.12,14.45h22.15q-.75-10.87-1.12-21.58-.37-10.12-.38-24.2V506.43c0-27.52-13.51-41.06-41.66-40.71A84.75,84.75,0,0,0,481.56,473Zm-52.84-44.29h25.14v-24H429.47Zm0,114.27h25.14V468H429.47Zm-70.52,0H384.1V529.13q0-5.62.37-12.19a52.4,52.4,0,0,1,2.25-12.76,24.31,24.31,0,0,1,6.2-10.31c2.74-2.76,6.63-4.13,11.63-4.13s8.63.68,11.26,2.06V466.46a41.18,41.18,0,0,0-7.7-.74,23.72,23.72,0,0,0-18.2,8.62q-7.12,8.07-8.25,15.58h-.38V468H359Z"/><path class="cls-1" d="M506.17,603.8h4.65v-8.73a10.17,10.17,0,0,1,.18-1.89,6.17,6.17,0,0,1,.62-1.92,4.13,4.13,0,0,1,1.24-1.51,3.31,3.31,0,0,1,2-.6,2.66,2.66,0,0,1,1.71.49,3,3,0,0,1,.9,1.26,5.62,5.62,0,0,1,.36,1.64c0,.6,0,1.18,0,1.74v9.52h4.63V592.54a11.06,11.06,0,0,0-.34-2.77,5.89,5.89,0,0,0-1.1-2.21,5.46,5.46,0,0,0-1.87-1.48,6.43,6.43,0,0,0-2.75-.53,6.86,6.86,0,0,0-3.27.76,6.58,6.58,0,0,0-2.34,2.07h-.06V577.82h-4.65ZM492.73,586h-4.65v8.72a11.78,11.78,0,0,1-.16,1.9,7.32,7.32,0,0,1-.62,1.92A4.36,4.36,0,0,1,486,600a3.22,3.22,0,0,1-2,.61,2.53,2.53,0,0,1-2.62-1.75,5.25,5.25,0,0,1-.33-1.64c-.05-.61-.06-1.18-.06-1.73V586h-4.64v11.26a10.27,10.27,0,0,0,.35,2.8,6.05,6.05,0,0,0,1.08,2.22,5,5,0,0,0,1.89,1.45,6.36,6.36,0,0,0,2.73.53,7.1,7.1,0,0,0,3.32-.77,7.91,7.91,0,0,0,2.54-2.07h.07v2.42h4.4Zm-46.2,17.84H451v-2.18h.06a5.5,5.5,0,0,0,2.5,2,8,8,0,0,0,3,.59,7,7,0,0,0,3.48-.79,6.39,6.39,0,0,0,2.33-2.07,8.81,8.81,0,0,0,1.28-3,15.73,15.73,0,0,0,0-7.05,8.69,8.69,0,0,0-1.28-3,6.41,6.41,0,0,0-2.33-2,7.25,7.25,0,0,0-3.48-.76,6.34,6.34,0,0,0-3.1.7,7.53,7.53,0,0,0-2.23,2h-.06V577.82h-4.64Zm4.67-9a9.38,9.38,0,0,1,.22-1.94,6,6,0,0,1,.73-1.83,4.26,4.26,0,0,1,1.3-1.37,3.33,3.33,0,0,1,1.91-.54,2.92,2.92,0,0,1,1.86.56,4.06,4.06,0,0,1,1.18,1.38,5.91,5.91,0,0,1,.62,1.83,10,10,0,0,1,.18,1.91,11.07,11.07,0,0,1-.19,1.94,7.23,7.23,0,0,1-.63,1.87,3.81,3.81,0,0,1-1.19,1.42,3.14,3.14,0,0,1-1.9.55,3.31,3.31,0,0,1-1.94-.55,4.09,4.09,0,0,1-1.27-1.41,6.5,6.5,0,0,1-.68-1.87,9.64,9.64,0,0,1-.2-1.95m-44.2,9h4.64v-8.66c0-.58,0-1.2.11-1.9a6.94,6.94,0,0,1,.47-2,3.75,3.75,0,0,1,1-1.53,3.17,3.17,0,0,1,3.38-.21,2.48,2.48,0,0,1,.79,1,3.76,3.76,0,0,1,.3,1.3c0,.46,0,.92,0,1.33V603.8h4.64v-8.66c0-.58,0-1.2.1-1.9a7.7,7.7,0,0,1,.47-2,4.06,4.06,0,0,1,1-1.53,2.73,2.73,0,0,1,1.84-.6,2.65,2.65,0,0,1,1.54.39,2.35,2.35,0,0,1,.8,1,3.35,3.35,0,0,1,.29,1.3c0,.46,0,.92,0,1.33V603.8h4.64V592.54a14.19,14.19,0,0,0-.25-2.77,5.94,5.94,0,0,0-.92-2.21,4.75,4.75,0,0,0-1.74-1.48,6.07,6.07,0,0,0-2.73-.53,7.19,7.19,0,0,0-3.21.78A5.16,5.16,0,0,0,422,588.7a5.07,5.07,0,0,0-2.08-2.4,6.28,6.28,0,0,0-3.19-.75,6.72,6.72,0,0,0-2.76.63,5.91,5.91,0,0,0-2.54,2.28h-.07V586H407ZM393.63,586H389v8.72a11.85,11.85,0,0,1-.17,1.9,7,7,0,0,1-.63,1.92A4.42,4.42,0,0,1,387,600a3.29,3.29,0,0,1-2.05.61,2.66,2.66,0,0,1-1.73-.5,2.69,2.69,0,0,1-.9-1.25,5.89,5.89,0,0,1-.34-1.64c0-.61-.05-1.18-.05-1.73V586h-4.63v11.26a10.69,10.69,0,0,0,.34,2.8,6.08,6.08,0,0,0,1.1,2.22,4.93,4.93,0,0,0,1.88,1.45,6.38,6.38,0,0,0,2.74.53,7.07,7.07,0,0,0,3.3-.77,8.05,8.05,0,0,0,2.55-2.07h.06v2.42h4.41Zm-37,12.47a6,6,0,0,0,1.46,4.23,5.49,5.49,0,0,0,4.19,1.56,13.26,13.26,0,0,0,1.87-.11,9.37,9.37,0,0,0,1.56-.31l-.14-3.67a3.28,3.28,0,0,1-.93.36,5.08,5.08,0,0,1-1.18.12,2.39,2.39,0,0,1-1.1-.23,1.87,1.87,0,0,1-.67-.67,2.83,2.83,0,0,1-.33-.94,6.39,6.39,0,0,1-.08-1.1v-8.31h4.12V586h-4.12v-5.05l-4.65,1.49V586H353.2v3.4h3.43Z"/><path class="cls-1" d="M839,603.8h4.64v-8.73a10,10,0,0,1,.17-1.89,7.44,7.44,0,0,1,.62-1.92,4.18,4.18,0,0,1,1.25-1.51,3.28,3.28,0,0,1,2-.6,2.72,2.72,0,0,1,1.73.49,3.24,3.24,0,0,1,.9,1.26,5.62,5.62,0,0,1,.35,1.65c0,.59,0,1.17,0,1.73v9.52h4.64V592.55a10.7,10.7,0,0,0-.34-2.78,6,6,0,0,0-1.09-2.22,5.35,5.35,0,0,0-1.89-1.47,6.36,6.36,0,0,0-2.73-.53,8.13,8.13,0,0,0-3.3.64,6.11,6.11,0,0,0-2.55,2.19h-.08V586H839Zm-24.64-5.16a2.41,2.41,0,0,1,.52-1.64,3.34,3.34,0,0,1,1.29-.93,6.51,6.51,0,0,1,1.66-.41,14.69,14.69,0,0,1,1.7-.1h2a9.6,9.6,0,0,1-.2,2,4.22,4.22,0,0,1-2.14,2.86,4.05,4.05,0,0,1-1.89.43,4,4,0,0,1-2.09-.52,1.79,1.79,0,0,1-.86-1.66M812,590.89a9.53,9.53,0,0,1,2.6-1.43,8.35,8.35,0,0,1,2.91-.52,4.61,4.61,0,0,1,3.05.83,3.82,3.82,0,0,1,1,3H819a27.5,27.5,0,0,0-3.06.18,8.65,8.65,0,0,0-2.92.86,5.79,5.79,0,0,0-2.19,1.86,5.43,5.43,0,0,0-.87,3.22,4.8,4.8,0,0,0,.54,2.28,5.38,5.38,0,0,0,1.41,1.66,6.47,6.47,0,0,0,2,1,8.1,8.1,0,0,0,2.3.34,6.64,6.64,0,0,0,1.62-.22,6.18,6.18,0,0,0,1.53-.58,5.47,5.47,0,0,0,1.33-1,6,6,0,0,0,1-1.32h.08c0,.28,0,.68,0,1.19a7.73,7.73,0,0,0,.15,1.48h4.1c-.06-.69-.1-1.36-.13-2s-.06-1.31-.09-2,0-1.36-.05-2.06,0-1.51,0-2.41v-2.28q0-4-1.8-5.75c-1.2-1.18-3.17-1.77-5.88-1.77a15.72,15.72,0,0,0-3.17.36,14.17,14.17,0,0,0-3,1ZM783.28,603.8h4.63v-8.66H788l5.95,8.66h5.9l-7.48-9.88,6.64-8h-5.46L788,593.1h-.07V577.82h-4.63Zm-18-17.84v2.42h-.07a5.53,5.53,0,0,0-2.34-2.19,7.25,7.25,0,0,0-3.14-.64,6.59,6.59,0,0,0-3.42.84,7.52,7.52,0,0,0-2.34,2.18,9.41,9.41,0,0,0-1.35,3,13.34,13.34,0,0,0-.43,3.26,14.87,14.87,0,0,0,.39,3.44,8.9,8.9,0,0,0,1.27,2.87,6.48,6.48,0,0,0,2.24,2,7.46,7.46,0,0,0,3.38.72,6.56,6.56,0,0,0,3.42-.86,5.61,5.61,0,0,0,2.12-2h.06a21.68,21.68,0,0,1-.12,2.38,6.1,6.1,0,0,1-.65,2.26,4,4,0,0,1-1.6,1.65,5.89,5.89,0,0,1-3,.65,5.79,5.79,0,0,1-1.23-.15c-.45-.09-.91-.21-1.38-.35s-.94-.32-1.39-.51a10.3,10.3,0,0,1-1.19-.56l-.38,3.95a14.62,14.62,0,0,0,3.22,1,18.33,18.33,0,0,0,2.94.25,11.55,11.55,0,0,0,4.62-.79,7.61,7.61,0,0,0,2.9-2.1,7.39,7.39,0,0,0,1.49-3,15.23,15.23,0,0,0,.42-3.53V586ZM761,600.21a3.14,3.14,0,0,1-1.76-.51,4.29,4.29,0,0,1-1.23-1.28,6.46,6.46,0,0,1-.73-1.76,8.17,8.17,0,0,1-.23-1.87,9.78,9.78,0,0,1,.2-2A5.55,5.55,0,0,1,758,591a4,4,0,0,1,1.28-1.31,3.75,3.75,0,0,1,2-.49,3.31,3.31,0,0,1,3,1.63,5.84,5.84,0,0,1,.69,1.77,10.37,10.37,0,0,1,0,4.25,5.32,5.32,0,0,1-.73,1.77,3.62,3.62,0,0,1-3.13,1.64m-37.49,3.59h4.66v-8.73a10.87,10.87,0,0,1,.16-1.89,7.42,7.42,0,0,1,.61-1.92,4.41,4.41,0,0,1,1.26-1.51,3.29,3.29,0,0,1,2-.6,2.71,2.71,0,0,1,1.72.49,3,3,0,0,1,.89,1.26,4.8,4.8,0,0,1,.36,1.65c0,.59,0,1.17,0,1.73v9.52h4.63V592.55a10.7,10.7,0,0,0-.34-2.78,6,6,0,0,0-1.09-2.22,5.54,5.54,0,0,0-1.89-1.47,6.3,6.3,0,0,0-2.73-.53,8.06,8.06,0,0,0-3.3.64,6.17,6.17,0,0,0-2.55,2.19h-.07V586h-4.41Zm-24.63-5.16a2.46,2.46,0,0,1,.52-1.64,3.38,3.38,0,0,1,1.28-.93,6.73,6.73,0,0,1,1.66-.41,15,15,0,0,1,1.72-.1h2a9,9,0,0,1-.18,2,4,4,0,0,1-4,3.29,4.09,4.09,0,0,1-2.1-.52,1.81,1.81,0,0,1-.85-1.66m-2.35-7.75a9.68,9.68,0,0,1,2.6-1.43,8.3,8.3,0,0,1,2.9-.52,4.61,4.61,0,0,1,3.06.83,3.86,3.86,0,0,1,.95,3h-2.55a27.5,27.5,0,0,0-3.06.18,8.72,8.72,0,0,0-2.92.86,5.62,5.62,0,0,0-2.18,1.86,5.36,5.36,0,0,0-.87,3.22,4.8,4.8,0,0,0,.53,2.28,5.45,5.45,0,0,0,1.39,1.66,6.82,6.82,0,0,0,2,1,8.09,8.09,0,0,0,2.29.34,6.45,6.45,0,0,0,1.62-.22,6.1,6.1,0,0,0,1.54-.58,5.88,5.88,0,0,0,2.35-2.29h.07a11.69,11.69,0,0,1,0,1.19,8.6,8.6,0,0,0,.16,1.48h4.08c0-.69-.08-1.36-.11-2s-.07-1.31-.09-2,0-1.36-.06-2.06,0-1.51,0-2.41v-2.28c0-2.64-.58-4.56-1.79-5.75s-3.16-1.77-5.89-1.77a15.88,15.88,0,0,0-3.17.36,14.85,14.85,0,0,0-3,1ZM665.77,603.8h4.5v-2.18h.07a5.45,5.45,0,0,0,2.5,2,8,8,0,0,0,3,.59,7.09,7.09,0,0,0,3.49-.79,6.48,6.48,0,0,0,2.33-2.07,9,9,0,0,0,1.28-3,16.13,16.13,0,0,0,0-7.05,8.89,8.89,0,0,0-1.28-3,6.49,6.49,0,0,0-2.33-2,7.32,7.32,0,0,0-3.49-.76,6.3,6.3,0,0,0-3.09.7,7.48,7.48,0,0,0-2.23,2h-.07V577.82h-4.64Zm4.68-9a8.81,8.81,0,0,1,.22-1.94,6.15,6.15,0,0,1,.73-1.83,4.23,4.23,0,0,1,1.29-1.37,3.36,3.36,0,0,1,1.92-.54,2.94,2.94,0,0,1,1.86.56,4,4,0,0,1,1.18,1.38,6.48,6.48,0,0,1,.62,1.83,10.88,10.88,0,0,1,.18,1.91,10.19,10.19,0,0,1-.19,1.94,7.23,7.23,0,0,1-.63,1.87,3.91,3.91,0,0,1-1.19,1.42,3.15,3.15,0,0,1-1.91.55,3.33,3.33,0,0,1-1.94-.55,4.17,4.17,0,0,1-1.26-1.41,6.5,6.5,0,0,1-.68-1.87,10.41,10.41,0,0,1-.2-1.95m-44.2,9h4.64v-8.66c0-.58,0-1.22.1-1.9a7.49,7.49,0,0,1,.47-2,3.8,3.8,0,0,1,1.06-1.53,3.15,3.15,0,0,1,3.37-.21,2.36,2.36,0,0,1,.79,1,3.45,3.45,0,0,1,.3,1.31c0,.46,0,.92,0,1.33V603.8h4.64v-8.66a16.28,16.28,0,0,1,.11-1.9,6.77,6.77,0,0,1,.47-2,4,4,0,0,1,1-1.53,2.75,2.75,0,0,1,1.84-.6,2.59,2.59,0,0,1,1.53.39,2.33,2.33,0,0,1,.81,1,3.87,3.87,0,0,1,.3,1.31c0,.46,0,.92,0,1.33V603.8h4.64V592.55a14.3,14.3,0,0,0-.25-2.78,5.92,5.92,0,0,0-.92-2.22,5,5,0,0,0-1.73-1.47,6.11,6.11,0,0,0-2.74-.53,7.09,7.09,0,0,0-3.2.78,5.11,5.11,0,0,0-2.38,2.37,5,5,0,0,0-2.08-2.4,6.24,6.24,0,0,0-3.18-.75,6.86,6.86,0,0,0-2.76.62,6,6,0,0,0-2.54,2.28h-.07V586h-4.33ZM612.71,599a20.53,20.53,0,0,1-2.78,1.26,9,9,0,0,1-3.15.54,5.25,5.25,0,0,1-3.55-1.16,4.7,4.7,0,0,1-1.55-3.34H614a21.56,21.56,0,0,0-.4-4.31,9,9,0,0,0-1.37-3.41,6.69,6.69,0,0,0-2.6-2.24,9.19,9.19,0,0,0-4.12-.81,8.12,8.12,0,0,0-3.63.75,7.17,7.17,0,0,0-2.58,2,8.57,8.57,0,0,0-1.54,3,12.78,12.78,0,0,0-.52,3.65c0,3,.81,5.25,2.44,6.85a9.39,9.39,0,0,0,6.88,2.41,13.78,13.78,0,0,0,3.35-.38,11.72,11.72,0,0,0,2.78-1Zm-11-5.88a5.53,5.53,0,0,1,1.17-3,4.2,4.2,0,0,1,4.62-.85,3.22,3.22,0,0,1,1.14.91,4.08,4.08,0,0,1,.68,1.33,7,7,0,0,1,.29,1.61ZM570.59,603.8h4.63v-8.66h.08l5.94,8.66h5.9l-7.49-9.88,6.66-8h-5.47l-5.54,7.14h-.08V577.82h-4.63Z"/><path class="cls-1" d="M1089.3,598.64a2.51,2.51,0,0,1,.52-1.65,3.39,3.39,0,0,1,1.28-.92,6.29,6.29,0,0,1,1.67-.41,14.44,14.44,0,0,1,1.7-.1h2a10.38,10.38,0,0,1-.18,2,4.1,4.1,0,0,1-.79,1.69,4,4,0,0,1-1.36,1.16,3.88,3.88,0,0,1-1.89.45,4,4,0,0,1-2.09-.52,1.82,1.82,0,0,1-.86-1.67m-2.35-7.75a9.62,9.62,0,0,1,2.59-1.43,8.41,8.41,0,0,1,2.92-.52,4.66,4.66,0,0,1,3,.83,3.82,3.82,0,0,1,1,3h-2.57a27.63,27.63,0,0,0-3.06.18,8.7,8.7,0,0,0-2.92.86,5.76,5.76,0,0,0-2.18,1.86,5.43,5.43,0,0,0-.87,3.22,4.69,4.69,0,0,0,.54,2.28,5.35,5.35,0,0,0,1.4,1.66,5.84,5.84,0,0,0,2,1,7.89,7.89,0,0,0,2.3.36,6.91,6.91,0,0,0,1.61-.21,7.2,7.2,0,0,0,1.55-.59,6.62,6.62,0,0,0,1.34-1,6.45,6.45,0,0,0,1-1.31h.06c0,.27,0,.67.07,1.19a8.53,8.53,0,0,0,.14,1.47H1101c0-.7-.08-1.35-.12-2s0-1.31-.09-2,0-1.36,0-2.06,0-1.51,0-2.41v-2.28c0-2.64-.6-4.55-1.8-5.75s-3.17-1.77-5.9-1.77a14.52,14.52,0,0,0-3.16.36,14.17,14.17,0,0,0-3,1Zm-30.77,12.91h4.66v-8.73a10.75,10.75,0,0,1,.17-1.88,6.23,6.23,0,0,1,.62-1.93,4.05,4.05,0,0,1,1.24-1.51,3.39,3.39,0,0,1,2.05-.61,2.7,2.7,0,0,1,1.71.5,3.05,3.05,0,0,1,.9,1.26,5.55,5.55,0,0,1,.35,1.65c0,.59,0,1.17,0,1.73v9.52h4.64V592.55a10.28,10.28,0,0,0-.35-2.78,6,6,0,0,0-1.09-2.21,5.16,5.16,0,0,0-1.88-1.47,6.2,6.2,0,0,0-2.74-.54,6.8,6.8,0,0,0-3.27.76,6.24,6.24,0,0,0-2.33,2.08h-.07V577.82h-4.66Zm-24.62-5.16a2.45,2.45,0,0,1,.52-1.65,3.39,3.39,0,0,1,1.28-.92,6.29,6.29,0,0,1,1.67-.41,14.53,14.53,0,0,1,1.69-.1h2a9.61,9.61,0,0,1-.19,2,4.22,4.22,0,0,1-.78,1.69,4,4,0,0,1-1.37,1.16,3.83,3.83,0,0,1-1.89.45,3.94,3.94,0,0,1-2.08-.52,1.8,1.8,0,0,1-.86-1.67m-2.35-7.75a9.48,9.48,0,0,1,2.59-1.43,8.35,8.35,0,0,1,2.91-.52,4.67,4.67,0,0,1,3,.83,3.86,3.86,0,0,1,1,3h-2.56a27.67,27.67,0,0,0-3.07.18,8.62,8.62,0,0,0-2.93.86,6,6,0,0,0-2.19,1.86,5.5,5.5,0,0,0-.85,3.22,4.79,4.79,0,0,0,.52,2.28,5.41,5.41,0,0,0,1.42,1.66,5.84,5.84,0,0,0,2,1,7.78,7.78,0,0,0,2.3.36A6.91,6.91,0,0,0,1035,604a7.32,7.32,0,0,0,1.54-.59,6.3,6.3,0,0,0,1.33-1,5.89,5.89,0,0,0,1-1.31h.06c0,.27,0,.67.06,1.19a9.62,9.62,0,0,0,.15,1.47h4.09c0-.7-.08-1.35-.12-2s-.06-1.31-.08-2,0-1.36-.06-2.06,0-1.51,0-2.41v-2.28c0-2.64-.59-4.55-1.78-5.75s-3.17-1.77-5.9-1.77a14.39,14.39,0,0,0-3.16.36,14,14,0,0,0-3,1Zm-14.07-4.68c-.74-.17-1.48-.31-2.26-.46a15.86,15.86,0,0,0-2.8-.2,10.2,10.2,0,0,0-2.61.33,7.24,7.24,0,0,0-2.24,1,4.93,4.93,0,0,0-1.54,1.73,4.79,4.79,0,0,0-.61,2.49,4.65,4.65,0,0,0,.62,2.57,4.89,4.89,0,0,0,1.48,1.49,6.87,6.87,0,0,0,1.94.82c.7.19,1.36.38,1.93.6a5.13,5.13,0,0,1,1.5.75,1.55,1.55,0,0,1,.61,1.32,1.86,1.86,0,0,1-.31,1.07,2.29,2.29,0,0,1-.79.66,3.82,3.82,0,0,1-1,.35,6.12,6.12,0,0,1-1,.11,9,9,0,0,1-2.33-.31,13,13,0,0,1-2.23-.87l-.29,3.81c.85.22,1.74.4,2.63.55a18.18,18.18,0,0,0,2.64.21,11.12,11.12,0,0,0,2.77-.34,7.28,7.28,0,0,0,2.4-1,5.07,5.07,0,0,0,2.31-4.47,4.86,4.86,0,0,0-.6-2.57,5.24,5.24,0,0,0-1.5-1.6,7.31,7.31,0,0,0-1.93-.92c-.71-.2-1.35-.41-1.94-.6a6.27,6.27,0,0,1-1.49-.69,1.24,1.24,0,0,1-.61-1.09,1.62,1.62,0,0,1,.26-.93,2.26,2.26,0,0,1,.64-.63,2.13,2.13,0,0,1,.87-.33,6.36,6.36,0,0,1,1-.09,11.25,11.25,0,0,1,2.18.19,15.56,15.56,0,0,1,2,.58ZM990.79,586h-4.65v8.73a10.94,10.94,0,0,1-.17,1.89,6.22,6.22,0,0,1-.63,1.91A4.16,4.16,0,0,1,984.1,600a3.3,3.3,0,0,1-2.05.6,2.6,2.6,0,0,1-2.62-1.74,6,6,0,0,1-.34-1.65c0-.61-.05-1.18-.05-1.73V586H974.4v11.26a11.27,11.27,0,0,0,.34,2.81,6.28,6.28,0,0,0,1.1,2.21,5.22,5.22,0,0,0,1.88,1.46,6.7,6.7,0,0,0,2.74.52,7.2,7.2,0,0,0,3.31-.76,8.12,8.12,0,0,0,2.55-2.09h.07v2.43h4.4Z"/><polygon class="cls-2" points="648.32 271.82 648.32 271.82 586.1 209.61 586.1 271.82 648.32 271.82"/><polygon class="cls-2" points="572.18 194.16 509.96 131.94 509.96 194.16 572.18 194.16"/><polygon class="cls-2" points="570.89 350.75 570.89 350.75 508.68 288.52 508.68 350.75 570.89 350.75"/><polygon class="cls-3" points="524.45 271.82 586.1 334.04 648.32 271.82 524.45 271.82"/><polygon class="cls-3" points="448.31 194.16 509.96 256.38 572.18 194.16 448.31 194.16"/><polygon class="cls-3" points="447.02 350.75 508.68 412.97 570.89 350.75 447.02 350.75"/></svg>