<svg id="Layer_1" data-name="Layer 1" xmlns="http://www.w3.org/2000/svg" viewBox="0 0 1106.13 743.43"><defs><style>.cls-1{fill:#0e4691;}.cls-2{fill:#dd1717;}.cls-3{fill:#f3d002;}</style></defs><title>bank-bpd-lampung</title><path class="cls-1" d="M135.5,247.89c0,1.43,1.08,2.38,1.73,3.47,3,5,6.1,10.05,9.31,15,1.09,1.67.75,2.84-.5,4.08-2.89,2.88-5.81,5.73-8.65,8.65A206.18,206.18,0,0,0,112,310.87a2.8,2.8,0,0,0-.2.69c4.28.9,8.55,1.66,12.69,2.95,8.84,2.76,17,6.65,23.27,13.74A32.28,32.28,0,0,1,155.59,345a44.94,44.94,0,0,1-1.5,19.09c-.37,1.32-.29,1.87,1.23,2.35,7.42,2.37,14.18,6,19.53,11.76a34.32,34.32,0,0,1,9.22,29.6,18.36,18.36,0,0,0,0,2.47c15.72-4.36,29.72-12.26,43.68-20.27l.26.5c-4.56,3.22-9.08,6.49-13.68,9.65a156.31,156.31,0,0,1-31,16.43,2.53,2.53,0,0,0-1.67,1.69c-3.25,9.38-8.51,17.56-14.85,25.11C153.71,459,137.49,470.56,120,480.59c-9.62,5.52-19.68,10.16-29.72,14.84-.29.14-.45.17-.71-.14,5.79-3.68,11.62-7.27,17.34-11,13.93-9.16,27.06-19.33,38.7-31.32,8.55-8.81,16.17-18.31,21.31-29.59a3.3,3.3,0,0,0,.56-1.85c-2.76.46-5.49.94-8.23,1.37-13.66,2.12-27.15,1.5-40.33-2.89a4,4,0,0,0-4.53,1C89.13,444.09,60.18,461.44,29,475.29c-3.41,1.51-6.86,2.93-10.3,4.37-.57.24-1.17.75-1.74-.1-.44-.66-1-1.24-1.52-1.86L3.18,462.6c1.68-.59,3.16-1.14,4.66-1.64a288.94,288.94,0,0,0,86.9-46.4c1.21-.94,2.34-2,3.6-2.87s1.39-1.56,0-2.56a55.77,55.77,0,0,1-11.25-11.35,41.55,41.55,0,0,1-4.24-6.54c-.72-1.46-1.35-1.82-3-1.17-9.38,3.65-18.6,7.65-27.6,12.14a2.05,2.05,0,0,1-3-.61c-3.83-4.46-7.78-8.82-11.68-13.22-1.35-1.52-1.1-2.71.78-3.54A322.32,322.32,0,0,1,73.69,371.5c1.13-.35,1.87-.6,1.63-2.08-1.91-11.86-.84-23.55,2.16-35.11a112.84,112.84,0,0,1,5.41-15.87,4.76,4.76,0,0,0,.72-2.28c-13.84-1.74-27.73-1.77-41.65-2,4.11-.56,8.22-1.14,12.33-1.68a247.05,247.05,0,0,1,31.33-2.44,1.71,1.71,0,0,0,1.68-1.13,192.32,192.32,0,0,1,24.51-36.48,301,301,0,0,1,21.69-23.06c.45-.44,1.16-.71,1.2-1.5ZM169.4,416a1.75,1.75,0,0,0-.51-.11c-.54,0-1.07.06-1.6.14A86.1,86.1,0,0,1,140,415.9c-12.35-2.1-23.57-6.58-32.62-15.62a49.88,49.88,0,0,1-11.17-16.91c-4.61-11.57-4.47-23.44-2-35.41a99.51,99.51,0,0,1,9.56-26.24c.68-1.3.49-1.75-1-2.08-5.19-1.16-10.4-2.22-15.69-2.92-1.07-.15-1.4.15-1.72,1-1.12,2.92-2.37,5.8-3.4,8.76-4.66,13.43-7,27.22-4.86,41.37,2.58,17.12,10.33,31.3,24.87,41.41a68.42,68.42,0,0,0,21.22,10c14.09,3.85,28.24,3.51,42.45.58C167.88,419.34,169.5,418.66,169.4,416Zm-55.15,2.53a55.84,55.84,0,0,1-10.39-5.41c-1.91-1.39-3.06-1-4.74.37a260.71,260.71,0,0,1-38.72,26.3,288,288,0,0,1-52,23.08c-1.6.52-1.82.93-.67,2.27,3.21,3.76,6.3,7.62,9.37,11.5a1.77,1.77,0,0,0,2.48.64c27.92-11.61,54.22-26.07,78.16-44.66C103.4,428.17,108.89,423.52,114.25,418.51Zm5.2,59.45c.82.44,1.37,0,1.94-.3,15.81-9.31,30.53-20,42.64-33.92,8.1-9.32,14.73-19.54,17.44-31.8,3.1-14.09-.15-26.27-11.58-35.64-7.21-5.91-15.78-8.87-24.82-10.49-16.44-2.94-32.74-1.38-49,1.87-1.25.25-1.27.87-1.16,1.8a57.69,57.69,0,0,0,2.37,10.94c.4,1.29.84,1.61,2.23,1.23a139,139,0,0,1,29.75-5.14c8.88-.45,17.63.16,26,3.38,12.64,4.86,18.85,14.58,17.91,28.08-.46,6.71-2.73,12.91-5.76,18.83-6.93,13.53-16.94,24.59-28,34.81A233.79,233.79,0,0,1,119.45,478Zm7.74-115.71,8.4.39c.82,0,1.51.1,1.8-1,2.72-10.28,1.66-19.76-6-27.73-6.59-6.85-15-10.41-23.92-13.14-1.08-.34-1.29.27-1.6.92-1.44,3-3,6-4.25,9-4.48,10.67-7.33,21.69-7.13,33.38,0,1.54.37,1.93,1.91,1.59A160.87,160.87,0,0,1,127.19,362.25Zm-38-52.57c6.66.18,13,.49,19.28,1.26a1.91,1.91,0,0,0,2.06-1.13c1.52-2.36,3.05-4.71,4.67-7a227.88,227.88,0,0,1,29-33.16c1.06-1,1.23-1.7.4-3-3.05-4.71-6-9.49-8.87-14.3-.71-1.18-1.11-1.26-2.13-.27C120.24,265,108.1,278.79,98,294.32A147.34,147.34,0,0,0,89.15,309.68Zm36.69,100.06a3.42,3.42,0,0,0,.51.45c14,5.42,28.32,5.86,42.91,3.62a1.39,1.39,0,0,0,1.33-1.21c1.47-7.21,1.32-14.22-2.77-20.64-4.24-6.64-10.76-9.87-18.1-11.85-1.35-.36-2-.18-2.68,1.08-1.6,2.92-3.35,5.76-5.17,8.54A149.7,149.7,0,0,1,125.84,409.74ZM70.66,312.67c6.3.75,12.59,1.31,18.83,2.26,11.4,1.74,22.58,4.27,32.83,9.81,7.8,4.21,14.14,9.86,17,18.58a30.32,30.32,0,0,1,.13,17.77c-.33,1.25-.3,1.89,1.29,2a48.76,48.76,0,0,1,9.44,1.74c1.5.42,1.84-.15,2.14-1.36A63.54,63.54,0,0,0,153.8,356c1.34-11.69-1.63-21.86-10.76-29.76-6.67-5.78-14.65-8.92-23.09-11-13.83-3.43-27.9-3.63-42-3.05C75.5,312.29,73.08,312.51,70.66,312.67ZM38.84,386.82c3.9,4.39,7.73,8.66,11.5,13,.75.87,1.37.49,2.1.13a286.85,286.85,0,0,1,27-11.68c1.22-.44,1.29-.94.77-2a52.17,52.17,0,0,1-4-11.71c-.31-1.49-.85-1.54-2.14-1.13-6,1.91-12,4-17.93,6.24S44.59,384.13,38.84,386.82Zm97.84-8.32c-1.27,0-2.54,0-3.8,0a1.85,1.85,0,0,0-1.81.94,126.92,126.92,0,0,1-17.75,21.35c-.9.89-.92,1.35.14,2.11a63.54,63.54,0,0,0,9.21,5.6,1.45,1.45,0,0,0,2.06-.38c1.24-1.47,2.6-2.86,3.86-4.32a134.21,134.21,0,0,0,16.22-22.54c1-1.86,1-1.95-1.15-2.2A58.27,58.27,0,0,0,136.68,378.5Zm-7.51.12c-7,0-22.78,2.69-29.42,4.93-.82.27-1.23.51-.76,1.5a48.21,48.21,0,0,0,10.61,14.67c.82.77,1.29.75,2.09,0a145.36,145.36,0,0,0,11.45-12.6A66.24,66.24,0,0,0,129.17,378.62Zm54.15,35.86a84.07,84.07,0,0,0,11.44-5.27c-3.57,1-7.1,2.07-10.61,3.21C183.32,412.69,183.17,413.4,183.32,414.48Z"/><path class="cls-1" d="M740.08,317.33q0,22.46,0,44.91a32.67,32.67,0,0,0,.3,4.19c.4,3.17,2.66,4.76,6.66,5,.86,0,2.49-.85,2.52.81s-1.63.84-2.48.85c-6.48.08-13,.06-19.45,0-.64,0-1.78.54-1.7-.91s1.1-.71,1.68-.71a9.5,9.5,0,0,0,3.52-.57,6.3,6.3,0,0,0,4.12-5.24,37.68,37.68,0,0,0,.28-5.2V318.15a19.68,19.68,0,0,0-.69-6.29,6.73,6.73,0,0,0-7-4.64l-.8,0c-.68.06-1.12-.05-1.12-.93s.24-1.17,1.13-1.16c5.75,0,11.5,0,17.25,0a1.23,1.23,0,0,1,1.34.86q8.76,19.05,17.61,38.07c1.88,4.07,3.74,8.14,5.65,12.2.18.38.21,1,.73,1.07.7.05.69-.71.88-1.13,3-6.58,5.86-13.19,8.84-19.76,2.52-5.56,5.16-11.07,7.72-16.62q3-6.56,6-13.15a2.22,2.22,0,0,1,2.38-1.57c5.41.08,10.83,0,16.24.05.62,0,1.63-.42,1.61.85s-1,.7-1.64.8c-1.15.18-2.35.18-3.48.45-2.77.64-4.35,2.76-4.36,6q0,25.77,0,51.54c0,4.3,2.38,6.48,6.7,6.63.92,0,2.71-.88,2.66.83s-1.82.75-2.77.76c-7.75.07-15.51,0-23.26,0a3,3,0,0,1-.8,0c-.71-.22-2,.65-2-.79s1.26-.78,2-.84a12.15,12.15,0,0,0,4.7-1.29,4.91,4.91,0,0,0,2.45-3.7,21.67,21.67,0,0,0,.43-4.69q0-21.36,0-42.72a2,2,0,0,0-.5-1.4c-1.28,2.7-2.6,5.38-3.84,8.09-4.09,8.94-8.14,17.9-12.22,26.84q-4.35,9.52-8.75,19c-.32.69-.44,1.43-1.55,1.44s-1.28-.68-1.6-1.4c-1.81-3.95-3.6-7.91-5.43-11.84-2.73-5.84-5.51-11.65-8.22-17.49-1.68-3.66-3.24-7.38-4.9-11.05-2.11-4.68-4.28-9.35-6.42-14Z"/><path class="cls-1" d="M301.79,338.36a51,51,0,0,1,7,2.75c8.65,4.91,9.91,15.9,4.29,23.42-3.93,5.26-9.41,7.55-15.69,8.07-13.58,1.1-27.19.27-40.78.49-.62,0-1.62.4-1.56-.89s1.08-.73,1.66-.74c2.92,0,5.75-.35,7.34-3.21a10.38,10.38,0,0,0,1.07-5.06c0-16,.09-32.07-.05-48.1,0-2.59,0-5.53-3-7.09a5.2,5.2,0,0,0-3.18-.79,22.52,22.52,0,0,1-2.6.05c-.83,0-1.19-.39-1.23-1.21-.05-1,.62-.86,1.2-.86h5.21c8.35,0,16.7,0,25.05,0,5.6,0,11.1.6,16.33,2.83,8.34,3.57,12.46,12.25,9.58,20.5a15.16,15.16,0,0,1-7.53,8.35C303.94,337.39,303,337.8,301.79,338.36Zm-20.23,1.41c-1.66.11-3.33.31-5,.31-1.23,0-1.55.48-1.54,1.68q.08,12.62,0,25.25c0,1.06.3,1.48,1.4,1.69a45.55,45.55,0,0,0,14.73.71c6.61-.87,11.89-5.09,13.22-10.62,1.73-7.21-2-14.15-9.22-17C290.78,340,286.19,339.76,281.56,339.77ZM275,322.52c0,3.8.11,7.61,0,11.41-.07,1.64.61,2,2,2.16a61.17,61.17,0,0,0,13.39,0c5.06-.66,9.16-2.73,11.26-7.73,3.24-7.72-.84-16-9.29-18.64-5.28-1.64-10.66-1.43-16-.44-1.13.21-1.31.81-1.29,1.81C275.07,314.9,275,318.71,275,322.52Z"/><path class="cls-1" d="M498.91,340c0,9.05-.06,17.72,0,26.39,0,2.43,1.87,4.08,4.63,4.7a14.12,14.12,0,0,0,3.78.33c.69,0,.94.27.92.95s-.34.8-.88.79h-1c-8.55,0-17.11,0-25.66,0-.64,0-1.81.6-1.85-.76-.06-1.6,1.24-.69,1.92-.86s1.46,0,2.17-.19c4.12-.85,5.33-2.4,5.55-6.47.87-16.21.11-32.43.37-48.64,0-1.57-.38-3.11-.42-4.7-.06-2.44-2.93-3.94-5.77-4.21a25.26,25.26,0,0,0-2.61,0c-.81,0-1.2-.35-1.25-1.19s.57-.88,1.18-.88h27.07c.61,0,1.2-.05,1.2.89s-.62.84-1.22.86a10.22,10.22,0,0,0-2,.07c-3.77.77-6.24,1.5-6.22,6.66,0,7.62-.05,15.24-.08,22.86,0,.24.05.48.1,1,2.16-2,4.13-3.8,6.11-5.6,5.38-4.88,10.52-10,15.59-15.2a19.52,19.52,0,0,0,3.5-4.69c1.32-2.61-.13-4.79-3.06-4.72-.47,0-.94,0-1.41,0-.85,0-1.42-.19-1.45-1.19s.78-.88,1.38-.88h22.66c.53,0,1.24-.26,1.33.72s-.54,1-1.24,1.1c-4,.46-7.38,2.5-10.31,5.13-8,7.2-15.11,15.28-22.89,22.7-.76.73-.54,1.17.11,1.77,9.86,9,18.78,19,28.75,27.9,3.79,3.38,8,6.08,13.27,6.7.7.08,1.31.25,1.19,1.2s-.85.69-1.38.69H521.35c-.56,0-1.24.21-1.29-.77s.45-.94,1.11-1a5.13,5.13,0,0,0,1.73-.44c3-1.49,3.4-4.18.82-6.62C515.4,356.38,507.25,348.32,498.91,340Z"/><path class="cls-1" d="M1089.51,336.07c4,0,8,0,12,0,.51,0,1.27-.32,1.39.66s-.55.92-1.24,1c-2.41.37-5,.64-5.75,3.56a14,14,0,0,0-.6,3.71c0,6.75,0,13.5,0,20.25,0,3.76-.15,3.85-3.44,5.3a53.07,53.07,0,0,1-24.81,4,36.63,36.63,0,0,1-19.52-6.52,35.34,35.34,0,0,1-13.89-27.94,39.78,39.78,0,0,1,8.32-23.46c9.19-12.28,24.77-15.52,38.26-11.55,2.33.68,4.65,1.45,7,2.1,2.14.59,3.24-.06,3.74-2.2.19-.81.19-1.52,1.39-1.44,1.38.08.93,1,1,1.73.52,5.82,1,11.64,1.47,17.46,0,.68.81,1.76-.57,2.09s-1.75-.75-2-1.65A25.29,25.29,0,0,0,1086,312.9a17.82,17.82,0,0,0-9.53-5.18,28,28,0,0,0-12.74.18,21,21,0,0,0-13.22,10.37c-5.39,9.32-6,19.35-3.89,29.67a32.78,32.78,0,0,0,7,14.86c7.41,8.76,19,11.06,29.64,5.78a3.21,3.21,0,0,0,2.15-3.37c-.13-5.68-.11-11.36,0-17,0-1.79-.35-3.53-.45-5.3-.15-2.72-3.37-5-6.21-4.85-.39,0-.79.1-1.18.12-.86.06-1.42-.2-1.45-1.19s.79-.87,1.39-.87C1081.49,336.06,1085.5,336.07,1089.51,336.07Z"/><path class="cls-1" d="M417.9,319.81v2.38q0,19.55,0,39.1c0,1.46.2,2.93.27,4.39.18,4.32,2.9,5.32,6.28,5.75a6.71,6.71,0,0,1,1.19,0c.63.21,1.81-.67,1.83.76,0,1.58-1.24.71-1.93.87a7.72,7.72,0,0,1-1.8,0c-6,0-12,0-18.05,0-.67,0-1.95.68-1.9-.9,0-1.41,1.2-.77,1.82-.78a8.15,8.15,0,0,0,5.93-2.2c1.41-1.34,1.27-3.11,1.57-4.72a26.45,26.45,0,0,0,.24-4.8c0-14.17-.08-28.34.08-42.51,0-3.19-1.56-5.13-3.78-6.63-2.54-1.7-5.28-3.3-8.61-2.88-.94.12-1.11-.39-1.09-1.19s0-1.3,1-1.3q8.43,0,16.85,0c.82,0,1.17.59,1.56,1.07q14.61,18.17,29.19,36.33c3.25,4,6.53,8.05,9.79,12.09.28.35.49.87,1.06.64s.29-.69.29-1.06c0-13.16,0-26.33-.15-39.5,0-1.86.07-4.08-1.57-5.67a8.32,8.32,0,0,0-6.12-2.17c-.61,0-1.61.49-1.69-.75-.08-1.41,1-.95,1.7-.95q10.23,0,20.45,0c.62,0,1.63-.43,1.61.85s-1,.77-1.63.78a12.38,12.38,0,0,0-4.11.67c-3,1.13-3.8,3.62-3.8,6.52q0,28.88-.08,57.75c0,.81.61,2-.59,2.41s-1.87-.34-2.67-1.39c-3-4-6.32-7.68-9.45-11.54l-10.27-12.66c-3.07-3.82-6.25-7.57-9.35-11.37-3.43-4.21-6.95-8.35-10.27-12.66C420.62,323.1,419.36,321.68,417.9,319.81Z"/><path class="cls-1" d="M970.22,320.32v5.94q0,17.44,0,34.89c0,1.53.21,3.06.27,4.6.17,4.32,3.1,5.32,6.34,5.67a14.82,14.82,0,0,0,2,0c.6,0,1,.07,1,.85s-.45.83-1,.83h-5.61c-5.22,0-10.43,0-15.64,0-.58,0-1.42.35-1.47-.78s.87-1,1.51-.94a8.71,8.71,0,0,0,5.44-1.41c1.91-1.28,2.18-3.33,2.41-5.35a42.73,42.73,0,0,0,.23-4.8c0-14.24-.09-28.48.08-42.71,0-3.22-1.64-5.1-3.84-6.6-2.53-1.73-5.3-3.24-8.61-2.85-1,.12-1-.53-1-1.26s.15-1.23,1.09-1.23q8.32,0,16.65,0a2,2,0,0,1,1.61,1q10.41,13,20.8,25.95,9.12,11.32,18.29,22.62c.25.31.45.74.91.63.66-.15.41-.75.41-1.16,0-3.81,0-7.62,0-11.43,0-8.42,0-16.84,0-25.27a34.33,34.33,0,0,0-.57-6.09c-.47-2.76-3-4.19-6.56-4.5-.81-.07-2.33.84-2.38-.8s1.54-.85,2.31-.86c6.55-.08,13.1-.06,19.65,0,.66,0,1.8-.53,1.74.9-.06,1.26-1.09.71-1.69.72a12.1,12.1,0,0,0-4.1.7c-3,1.16-3.75,3.66-3.75,6.55q0,24.46,0,48.93c0,3.21,0,6.42,0,9.63,0,.56.45,1.46-.65,1.57a2.1,2.1,0,0,1-2.15-.64c-5-6.25-9.93-12.5-15-18.68s-10.13-12.18-15.16-18.29c-4.17-5.06-8.29-10.14-12.42-15.22a11.22,11.22,0,0,1-.71-1.16Z"/><path class="cls-1" d="M829,338.94c0-7.42.05-14.84,0-22.25a20,20,0,0,0-.73-5.79,5.35,5.35,0,0,0-5.28-3.72c-.73,0-1.46.07-2.2.08s-1.44.19-1.44-1,.69-1.06,1.43-1.06l24.06,0c4.86,0,9.7.33,14.28,2.08a18.08,18.08,0,0,1,6.58,30.06,18.84,18.84,0,0,1-13,5.17c-4.21.15-8.46.36-12.55-1-1.14-.37-1.37.1-1.36,1.15.11,7.62-.19,15.24.23,22.85.2,3.69,2.42,5.76,6.31,5.91.8,0,1.61,0,2.41,0,.54,0,.86.16.87.8s-.21.87-.8.87H821a4.12,4.12,0,0,1-1.36-.15c-.37-.14-.2-.59-.21-.9,0-.73.56-.61,1-.61a10.74,10.74,0,0,0,5.9-1.36,5.35,5.35,0,0,0,2.41-4.18A89.42,89.42,0,0,0,829,354C829.05,349,829,344,829,338.94Zm9.82-14.82v10.82c0,3.39,0,3.35,3.27,3.91,5.42.93,10.4.46,14.21-4.14,2.93-3.55,3.52-7.69,3.12-12.07-.58-6.56-4.51-11.42-10.3-12.84a20.56,20.56,0,0,0-8.73.13c-1.29.23-1.61.74-1.59,2C838.9,316,838.86,320,838.86,324.12Z"/><path class="cls-1" d="M887.88,334.51q0-8.33,0-16.64a21.15,21.15,0,0,0-1-7,5,5,0,0,0-4.88-3.69c-.94,0-1.87,0-2.81.06-.75,0-1.25,0-1.24-1s.47-1.06,1.24-1.06c4,0,8,0,12,0,4.95,0,9.89,0,14.84,0,.59,0,1.43-.29,1.45.83s-.82.8-1.42.83a12.1,12.1,0,0,0-2,0c-3.47.83-5.66,1.09-6.16,6.17a35.89,35.89,0,0,0-.26,3.59c0,10.22-.08,20.44,0,30.67a41.15,41.15,0,0,0,1.86,13.34c1.9,5.39,6,8.08,11.31,9.13a22.52,22.52,0,0,0,17.91-4A14.22,14.22,0,0,0,935,355.7c1.93-13.26.62-26.58,1-39.86a16.31,16.31,0,0,0-.75-4.85,5.41,5.41,0,0,0-5.29-3.76c-.86,0-1.73,0-2.6,0-.64,0-1.18,0-1.18-.9s.25-1.19,1.14-1.19c7.35,0,14.7,0,22.05,0,.54,0,1.06,0,1.1.78s-.56.91-1.17.89a10.45,10.45,0,0,0-4.1.63c-2.71,1-4.09,2.69-4.25,5.54-.6,10.41-.14,20.84-.27,31.26a78.68,78.68,0,0,1-1.25,13.86c-1.57,8.26-9.78,15-18.06,16.1a54.91,54.91,0,0,1-13.36.28c-9.12-1-15.72-5.59-18.78-14.54a29,29,0,0,1-1.19-9.25c0-5.41,0-10.82,0-16.23Z"/><path class="cls-1" d="M384.13,373.11c-3.88,0-7.75,0-11.63,0-.62,0-1.61.48-1.75-.7s1-1,1.66-1.2c.85-.32,1.76-.46,2.59-.8a4,4,0,0,0,2.32-4.79c-1.2-5-3.74-9.38-5.4-14.15-.27-.78-.73-.81-1.35-.8-8,0-16,0-24.06,0a1.44,1.44,0,0,0-1.58.91c-1.67,4.36-4,8.48-5.26,13-1.16,4.07.23,6,4.44,6.49.6.08,1.19.17,1.79.23s1.15.19,1.11,1.05-.72.79-1.28.79c-3.4,0-6.81,0-10.22,0-2.88,0-5.75,0-8.62,0-.53,0-1.25.27-1.34-.72s.42-1.18,1.15-1.29c3.43-.54,5.46-2.79,7-5.66,2.33-4.3,4-8.88,6-13.34,2.08-4.74,4.1-9.51,6.14-14.26l6.67-15.54q3.27-7.65,6.51-15.32a13.56,13.56,0,0,0,.82-2.21,1.48,1.48,0,0,1,1.59-1.16,1.41,1.41,0,0,1,1.41,1.09c6.6,15.87,13.13,31.77,19.84,47.59,2,4.66,3.66,9.46,6.23,13.87a9.31,9.31,0,0,0,7.19,5c.5.06,1.21,0,1.43.53.39,1,0,1.44-1.13,1.43C392.28,373.08,388.21,373.11,384.13,373.11Zm-25.4-53.25c-3.83,8.84-7.5,17.34-11.21,25.81-.46,1.06-.12,1.24.88,1.24q10.2,0,20.42,0c1.17,0,1.17-.45.81-1.31Z"/><path class="cls-1" d="M707.05,373.11c-3.95,0-7.89,0-11.83,0-.58,0-1.43.38-1.59-.67s.84-1.06,1.44-1.19a12.16,12.16,0,0,0,3-.94,3.81,3.81,0,0,0,2.19-4.67c-1.19-4.95-3.76-9.37-5.4-14.14-.26-.76-.69-.84-1.33-.84q-12,0-24.07,0c-.74,0-1.31.16-1.58.88-1.69,4.43-4.05,8.6-5.31,13.2-1.06,3.84.26,5.76,4.25,6.32.66.09,1.32.15,2,.23s1.16.15,1.13,1-.67.82-1.25.83h-19c-.5,0-1.11.15-1.15-.69,0-.59.06-1.11.73-1.21,6-.93,7.65-6,9.73-10.53,2.23-4.81,4.2-9.74,6.26-14.62,2.22-5.25,4.41-10.51,6.65-15.75,2.1-4.93,4.26-9.83,6.37-14.76q2.25-5.27,4.43-10.57c.32-.76.62-1.32,1.63-1.36s1.23.58,1.5,1.24c8.07,19.33,16.1,38.68,24.25,58,1.46,3.45,3.21,6.93,7.37,8a17.7,17.7,0,0,0,2.15.41c.74.1,1.06.44,1,1.19s-.71.65-1.21.65Zm-25.42-53.25c-3.82,8.8-7.49,17.29-11.19,25.77-.43,1-.3,1.29.8,1.28q10.21,0,20.42,0c1.08,0,1.28-.32.88-1.27C689,337.19,685.38,328.73,681.63,319.86Z"/><path class="cls-1" d="M604.38,338.75c0,8.41,0,16.83,0,25.25,0,2.9,1.2,4.09,4.06,4.28a87.85,87.85,0,0,0,19.18-.31c5.27-.8,8.65-4.19,11-8.73.75-1.44,1.53-2.88,2.15-4.38.34-.81.85-.71,1.43-.59.75.15.7.7.53,1.25q-2.61,8.37-5.22,16.74c-.3,1-1,.85-1.78.85H587.29a6,6,0,0,1-1.2,0c-.66-.14-1.79.52-1.74-.92,0-1.28,1.09-.73,1.66-.72a8.53,8.53,0,0,0,5.45-1.34,6.41,6.41,0,0,0,2.59-5.19c.78-11.87.1-23.73.33-35.6.08-4-.07-8,0-12A51.65,51.65,0,0,0,594,312c-.24-3.18-2.68-4.81-6-4.75-.8,0-1.6,0-2.41,0s-1.17-.41-1.21-1.23c0-1,.65-.84,1.22-.84h28.87c.5,0,1.1-.12,1.15.72,0,.68-.25.85-.91,1a10.56,10.56,0,0,1-2.7.31c-4.54-.28-7.52,2.39-7.56,6.88C604.33,322.31,604.38,330.53,604.38,338.75Z"/><path class="cls-2" d="M918.56,401.87c3.14,0,6,0,8.79,0,.92,0,.94,1,1.23,1.64,3,6.53,6.07,13.08,9.13,19.61.28.61.31,1.63,1.27,1.55.77-.06.77-1,1-1.55,3-6.53,6.06-13.06,9-19.64a2.41,2.41,0,0,1,2.71-1.69c1.86.11,3.74,0,5.61,0,.55,0,1.17-.16,1.59.32,0,.19-.06.29-.09.3-4.29,1.32-4.29,1.32-4.29,6,0,6.48,0,13,0,19.44,0,3.19.54,3.72,3.76,4.11.26,0,.52.07.58.64H945.42c.12-.29.15-.49.21-.5,3.63-.67,4.14-1,4.18-5,.05-6.19,0-12.37-.42-18.7-1.07,2.21-2.18,4.4-3.21,6.63-2.51,5.47-5,11-7.48,16.44-.26.58-.37,1.39-1.25,1.36s-1-1-1.22-1.5c-2.73-6.53-5.93-12.85-8.82-19.31-.6-1.35-1.21-2.69-2-4.51,0,7.38-.08,14.23,0,21.07,0,2.64.53,2.93,3.24,3.34.37.05,1-.12,1,.41,0,.72-.64.53-1,.53-2.94,0-5.88,0-8.82,0-.37,0-.91.09-.9-.48s.56-.4.92-.46c2.2-.37,3.26-1.29,3.29-3.51.1-7.29.12-14.57,0-21.86a3.65,3.65,0,0,0-3.44-3.75,2.77,2.77,0,0,1-.71-.26S918.87,402.44,918.56,401.87Z"/><path class="cls-2" d="M548.85,432.7H535.2c-.1-.46.07-.62.37-.67,3.29-.5,3.83-1,3.89-4.42.09-6.34,0-12.69,0-19-.89-.16-.88.58-1.07,1-3.31,7.21-6.59,14.45-9.9,21.66-.31.67-.45,1.79-1.48,1.61-.74-.14-.93-1.11-1.23-1.77-3.51-7.67-7-15.35-10.8-23q0,5,0,10c0,3.34-.06,6.69,0,10,.09,3,.43,3.32,3.4,3.83.36.06.86-.09.88.51,0,.37-.3.41-.56.41H508.6c-.12-.73.1-.85.38-.89,2.92-.45,3.8-1.32,3.83-4.26.06-6.82.05-13.64,0-20.45,0-2.65-.84-3.56-3.62-4.45-.31-.1-.71-.07-.66-.53s.45-.42.77-.42c2.47,0,4.95,0,7.42,0,.91,0,1.06.67,1.33,1.24,3.12,6.72,6.21,13.45,9.34,20.16.26.56.31,1.46,1.15,1.47s.82-.93,1.08-1.47c3-6.53,6.09-13.05,9-19.63a2.54,2.54,0,0,1,2.85-1.79c2.35.1,4.7,0,7.33,0-.55,1.14-1.23.78-1.74.89-1.61.38-2.85,1.07-2.84,3,0,7.75,0,15.51,0,23.26,0,1.84,1.08,2.76,2.83,3C547.57,432.06,548.15,431.8,548.85,432.7Z"/><path class="cls-2" d="M281.51,416.76c2.07,1.12,4,1.71,5.15,3.52a8,8,0,0,1-4.41,11.65,15.34,15.34,0,0,1-5.08.89c-5.27,0-10.55.05-15.82,0-.5,0-1.43.39-1.43-.51,0-.7.86-.35,1.33-.42,1.88-.32,2.91-1.56,2.93-3.89.05-5.81,0-11.62,0-17.43,0-1.33,0-2.67,0-4-.11-2.5-.93-3.39-3.42-3.81-.35-.07-.9.09-.87-.51s.59-.44.94-.43c6,.18,12-.47,18,.45,4.76.74,7.71,3.95,7.52,8.25C286.19,413.55,284.39,415.37,281.51,416.76Zm-12.74,7.33c0,1.73,0,3.47,0,5.2a1.23,1.23,0,0,0,1.22,1.47,19.62,19.62,0,0,0,6.75.07c3.13-.66,5.33-2.77,5.58-5.47a6.49,6.49,0,0,0-4.58-6.93,20,20,0,0,0-6.71-.8c-1.64,0-2.49.41-2.28,2.26A34.59,34.59,0,0,1,268.77,424.09Zm3.87-8.13c1.13-.11,2.26-.17,3.38-.34,3.25-.48,5.12-2.3,5.41-5.21a6.07,6.07,0,0,0-4.27-6.08,13.94,13.94,0,0,0-7.11-.49c-1,.17-1.33.57-1.3,1.55.05,2.2,0,4.4,0,6.6C268.77,415.87,268.77,415.87,272.64,416Z"/><path class="cls-2" d="M692.47,432.64h-13.8c4.71-2.11,4.71-2.11,4.71-7.64,0-5.82,0-11.63,0-17.44,0-3.51-.32-3.85-3.73-4.43-.52-.08-1-.27-.95-.8s.55-.48.92-.47c5.73.13,11.48-.45,17.18.49a7.5,7.5,0,0,1,6.51,7c.08,3.72-1.48,6-5.8,7.66-1.6.61-1.84.82-.74,2.2,2.35,3,4.56,6,6.75,9.12a8,8,0,0,0,5.21,3.35c.44.08,1.25,0,1.13.78-.1.63-.77.3-1.18.39a2.67,2.67,0,0,1-.4,0c-7.54.11-7.51.1-12.74-7.9-1.29-2-2.85-3.76-4.14-5.74-.79-1.22-1.88-.82-2.83-.71s-.61,1.18-.61,1.82c0,2.8.06,5.61.07,8.41,0,2.14,1.06,3.18,3.19,3.17A1.14,1.14,0,0,1,692.47,432.64Zm-4.55-22.3a13.65,13.65,0,0,0,0,1.81c.17,1.48-.8,3.62.44,4.32,1.56.87,3.64,0,5.43-.56a5.3,5.3,0,0,0,.9-.43,6.36,6.36,0,0,0,2.82-7.79,6.28,6.28,0,0,0-7-4c-1.85.28-2.93.9-2.59,3.05A22.74,22.74,0,0,1,687.92,410.34Z"/><path class="cls-2" d="M755.29,416.48c3.34-2.88,6.26-5.84,9.18-8.79.28-.28.58-.55.85-.85,2.37-2.7,2.27-3.21-.91-4.42,0-.46.29-.55.65-.55,3.21,0,6.41,0,9.62,0,.37,0,.9-.15,1,.38s-.44.56-.79.64c-2.7.64-4.72,2.33-6.61,4.23l-7.51,7.52c-.57.57-1.27,1.05-.34,1.94,4.48,4.3,8.89,8.67,13.42,12.92,1.68,1.57,4,2.06,6,3.19H764.79c3-2.3,3-2.29.22-5.12-1.6-1.61-3.23-3.2-4.72-4.91s-3.55-2.52-4.86-4.83c0,4.2,0,8,0,11.72,0,1.39,1,1.85,2.17,2.25.66.23,1.5-.19,2,.51-.1.75-.67.57-1.09.57q-5.4,0-10.82,0c-.46,0-1.26.32-1.27-.49,0-.65.71-.39,1.12-.44a3.12,3.12,0,0,0,3.1-3.28c.06-7.55.05-15.11,0-22.66,0-2.05-1.54-2.73-3.22-3.19-.39-.1-1.07.22-1-.54,0-.55.6-.4,1-.4q5.63,0,11.23,0c.36,0,.91-.15,1,.42s-.5.45-.86.52c-3,.58-3.37.95-3.42,3.86C755.25,409.87,755.29,413.08,755.29,416.48Z"/><path class="cls-2" d="M371.83,417.88c0,3.75-.05,7.08,0,10.4.06,2.68.57,3.17,3.23,3.65.4.07,1.07-.21,1,.54,0,.55-.61.4-1,.4H363.91c-.36,0-.91.14-.94-.43s.51-.45.86-.51c2.51-.43,3.39-1.3,3.4-3.82.06-7.22,0-14.44,0-21.65,0-2.2-1-3.2-3.37-3.66-.36-.07-.86.1-.93-.47,0-.33.25-.45.53-.45h12.6c.12.67-.05.83-.35.89-3.59.61-3.86.88-3.9,4.44,0,3,0,6.09,0,9.27,3.43-2.92,6.41-6,9.43-9a10.16,10.16,0,0,0,1-1c1.92-2.53,1.77-3-1.24-4,.92-.76,8.85-1,11.24-.29,0,.12,0,.34,0,.35-4.07,1.05-6.82,3.93-9.6,6.8-1.76,1.82-3.58,3.6-5.38,5.39-.53.53-1.1,1-.29,1.81,4.49,4.48,9,9,13.75,13.12,1.67,1.46,3.85,1.87,5.79,3H381.59c0-.22,0-.43.08-.46,2.94-1.46,3-1.61.61-3.86-3-2.8-5.47-6.19-8.86-8.62A12.26,12.26,0,0,1,371.83,417.88Z"/><path class="cls-2" d="M1091.86,416.31c-3.76.35-3.55,3-3.59,5.51s0,5.21,0,7.81a1.69,1.69,0,0,1-1.07,1.87c-6.58,2.86-13.23,3.36-19.69,0-4.42-2.32-6.7-6.32-7.43-11.32a16.64,16.64,0,0,1,2.79-11.93c4.27-6.43,10.06-8.27,18.57-6.57a15.14,15.14,0,0,1,2.08.64c1.06.36,2.07.56,2.66-.72a.65.65,0,0,1,.81-.4c.46.11.31.52.34.82.25,2.44.52,4.88.72,7.33,0,.45.43,1.18-.32,1.35s-1-.26-1.21-1a8.56,8.56,0,0,0-6.07-6.13c-6-1.53-11.69-.22-14,7.28-2,6.54-1.38,12.75,3.47,18,3.3,3.54,9,4.08,13.18,1.65.75-.43.56-1,.57-1.51,0-2.67,0-5.34,0-8s-.7-3.5-3.36-4.1c-.27-.06-.51-.12-.69-.76A64.73,64.73,0,0,1,1091.86,416.31Z"/><path class="cls-2" d="M423.74,425.11c0-4.46,0-8.3,0-12.14,0-2.14.06-4.28-.06-6.41-.14-2.73-.85-3.4-3.61-3.78-.26,0-.54,0-.7-.73a72.68,72.68,0,0,1,11.05-.07c-.23.44-.26.63-.35.65-4.1,1-4.13,1-4.14,5.28,0,7.89,0,15.77,0,23.65,0,.7.27,1.65-.6,1.92s-1.17-.71-1.61-1.24c-3.64-4.35-7.24-8.73-10.87-13.09-2.61-3.14-5.24-6.27-8.19-9.79v18.26c0,3.42.53,4,3.9,4.41.16,0,.31.18.46.48a63.23,63.23,0,0,1-11,.28c.12-.39.13-.6.19-.61,3.87-.88,4.2-1.27,4.2-5.33,0-6.15,0-12.29,0-18.44a5.41,5.41,0,0,0-4.94-5.33c-.52,0-1.19.21-1.13-.64s.77-.58,1.25-.58c1.94,0,3.88.05,5.81,0a2.44,2.44,0,0,1,2.13,1.21q6,7.22,11.91,14.46C419.39,419.88,421.37,422.25,423.74,425.11Z"/><path class="cls-2" d="M1035.45,432.74a88.7,88.7,0,0,1-11.42,0c.41-.91.94-.63,1.36-.73,1.84-.42,3.09-1.34,3.09-3.46,0-7,0-14,0-21,0-2-2.64-4.27-4.85-4.42-.5,0-1.17.29-1.2-.55s.7-.65,1.18-.65c2,0,4,0,6,0a2.28,2.28,0,0,1,1.95,1.15q6,7.21,11.93,14.46c2,2.4,4,4.8,6,7.24.65-.63.38-1.26.38-1.81,0-5.21.05-10.42,0-15.63,0-3.19-.54-3.74-3.57-4.44-.31-.07-.7,0-.69-.5s.29-.41.56-.41h10.6c-.44.54-.53.77-.66.8-3.78.7-4,.93-4,4.77,0,7.88,0,15.76,0,23.65,0,.82.44,2-.54,2.35s-1.28-.85-1.81-1.48c-3.59-4.31-7.21-8.6-10.81-12.9l-8.09-9.69c0,6.82,0,13.2,0,19.58,0,2,1.08,2.88,3.19,3.05A1.43,1.43,0,0,1,1035.45,432.74Z"/><path class="cls-2" d="M353.46,424.52c0-6.18.08-12.29,0-18.41-.05-2.35-.91-3-3.39-3.32-.32,0-.67,0-.87-.75,3.66-.4,7.27-.13,10.84-.17.11.94-.39.8-.75.86-3,.49-3.45,1-3.49,4-.06,3.88,0,7.75,0,11.62v13.43c0,.65.16,1.46-.65,1.7s-1-.56-1.36-1q-7.82-9.34-15.59-18.73c-1.12-1.35-2.23-2.72-3.67-4.48v10.54c0,2.67,0,5.35,0,8,0,3.11.64,3.79,3.75,4.12.27,0,.53.06.63.72a86.07,86.07,0,0,1-11,0c.08-.76.45-.71.76-.75,2.65-.37,3.53-1.2,3.55-3.81.07-6.88.07-13.76,0-20.64,0-2.1-2.53-4.28-5-4.46-.44,0-1,.19-1.08-.51s.61-.72,1.11-.73c2.07,0,4.15,0,6.22,0,1.23,0,1.69,1,2.29,1.69,5.42,6.55,10.8,13.13,16.21,19.68C352.34,423.69,352.63,424.35,353.46,424.52Z"/><path class="cls-2" d="M588.72,428.14c0-1.47,0-2.94,0-4.41,0-.37-.1-.87.48-.91s.62.36.72.77a28,28,0,0,0,.87,3.26c1.79,4.69,8.29,6.66,12.05,3.69,3.14-2.48,2.6-6-1.31-8.59-3-2-6.17-3.52-9.11-5.56-3.11-2.17-4.91-6-4-9.43.89-3.26,4.34-5.72,8.09-5.86a15.31,15.31,0,0,1,5.69.81c1.32.46,2.63,1,3.87-.52.62-.78,1.1-.11,1.1.76,0,2.81,0,5.61,0,8.42,0,.53.3,1.35-.63,1.41s-.88-.92-.88-1.3a8,8,0,0,0-2.83-5.7c-2.11-2.09-7.55-2.77-9.35-.52-1.57,2-1.74,4.28.06,6.07,2.38,2.38,5.48,3.68,8.31,5.39a24.59,24.59,0,0,1,4.61,3.09c2.51,2.47,3.42,5.34,2.23,8.72a9.51,9.51,0,0,1-7.91,5.89,25,25,0,0,1-8.55-1.07c-.85-.25-2-.7-2.47.72,0,.15-.44.29-.66.26-.47,0-.38-.47-.39-.77C588.71,431.22,588.72,429.68,588.72,428.14Z"/><path class="cls-2" d="M970.75,418.87c0,3.35,0,6.67,0,10,0,2.16,1.25,3.08,3.32,3.07.36,0,.86-.11.92.47,0,.34-.25.44-.53.44H961.55c.29-.52.36-.79.47-.82,3.67-.75,4.09-1.25,4.1-5V408.76c0-4.87,0-4.87-4.34-6.33,0-.31.14-.54.44-.54,5.26.1,10.55-.53,15.78.43,5,.93,8,4.67,7.45,9.44-.47,4.41-4.12,7.41-9.07,7.41A28.38,28.38,0,0,1,970.75,418.87Zm-.07-8.4c0,1.8,0,3.6,0,5.39,0,.52-.06,1,.64,1.28a6.66,6.66,0,0,0,7.16-1.65,7.91,7.91,0,0,0,.57-8.81,6.3,6.3,0,0,0-6.45-3c-1.36.18-2.15.61-2,2.23A41.13,41.13,0,0,1,970.68,410.47Z"/><path class="cls-2" d="M324.86,432.58a90,90,0,0,1-12.28.18c0-.64.24-.71.47-.81,2.94-1.26,3.08-1.66,1.67-4.64,0-.06-.12-.09-.13-.15-.46-4.59-3.43-5.31-7.26-4.71a6.68,6.68,0,0,1-1,0c-5.86,0-6.29.34-7.89,6.06-.53,1.92-.12,2.59,1.81,3.21.5.17,1.21,0,1.53.78-.16.12-.3.32-.44.32-2.87,0-5.74.05-8.61.05-.33,0-.7,0-.8-.41a.51.51,0,0,1,.39-.61c3-.79,3.59-3.56,4.61-5.8,2.76-6,5.25-12.18,7.84-18.29.82-1.92,1.65-3.82,2.4-5.76a1.3,1.3,0,0,1,1.18-.87c.75-.12.85.51,1,1q3.9,9.42,7.79,18.84c.78,1.88,1.55,3.77,2.36,5.65C321,430,321,430,324.86,432.58Zm-23-11.88H311c.54,0,1.2,0,.85-.82-1.52-3.68-3.06-7.34-4.74-11.35C305.27,412.73,303.62,416.55,301.82,420.7Z"/><path class="cls-2" d="M472.26,432.59c-1.39.59-2.84.21-4.24.27-1.6.07-3.2,0-4.8,0-.33,0-.7,0-.81-.39a.49.49,0,0,1,.36-.62c3-.83,3.68-3.68,4.71-6,3.15-7,6-14.12,9-21.18a11.44,11.44,0,0,0,1.18-2.68c.1-.66.6-.82,1.14-.9.75-.13.87.49,1.06,1,2.61,6.27,5.19,12.55,7.8,18.83,1,2.49,2.09,5,3.18,7.45.74,1.68,1.65,3.21,3.75,3.44.31,0,.69.15.75.54s-.18.49-.48.5h-11.8c-.06-.84.36-.85.64-1,2.63-1.1,2.85-1.63,1.67-4.2-.08-.18-.27-.33-.29-.5-.5-4.54-3.39-5.37-7.26-4.74a5.57,5.57,0,0,1-1,0c-6,0-6,0-7.81,5.87-.67,2.15-.31,2.73,1.88,3.45C471.33,431.92,472,431.76,472.26,432.59Zm0-11.89h9.17c.54,0,1.2,0,.85-.82-1.52-3.68-3.06-7.34-4.74-11.35C475.74,412.73,474.09,416.55,472.29,420.7Z"/><path class="cls-2" d="M571.68,432.86c3.26-2.28,3.26-2.28,1.86-6-1.66-4.41-1.66-4.41-6.24-4.41a36.57,36.57,0,0,1-4.8,0c-2-.27-2.89.68-3.43,2.39-.36,1.13-.9,2.2-1.29,3.32-.84,2.42-.54,2.92,1.91,3.71.39.13,1,0,1.21.72-1.21.67-2.54.25-3.8.31-1.73.08-3.47,0-5.21,0-.31,0-.69.06-.83-.36a.47.47,0,0,1,.32-.63c3-.78,3.62-3.54,4.64-5.77,2.76-6,5.27-12.19,7.86-18.3.84-2,1.63-4,2.44-5.94a1.27,1.27,0,0,1,1.09-.75c.73-.12.88.44,1.08.93,2.61,6.34,5.21,12.69,7.85,19,1.09,2.61,2.23,5.21,3.39,7.79a4.3,4.3,0,0,0,3.47,2.93c.34,0,.84.12.76.69-.05.34-.35.37-.62.37ZM560.94,420.7c3.24,0,6.11,0,9,0,.51,0,1.46.24,1-.84-1.5-3.68-3.05-7.33-4.73-11.34Z"/><path class="cls-2" d="M903.83,432.85c-.07-.84.35-.85.62-1,2.65-1.12,2.86-1.64,1.68-4.21-.08-.17-.27-.32-.29-.5-.5-4.53-3.39-5.38-7.26-4.73a5.34,5.34,0,0,1-.8,0c-6.17,0-6.17,0-8,5.87-.67,2.15-.32,2.73,1.87,3.45.44.15,1.11,0,1.38.81-1.39.6-2.85.22-4.24.28-1.6.07-3.21,0-4.81,0-.32,0-.69,0-.81-.39a.5.5,0,0,1,.36-.62c3-.82,3.69-3.68,4.72-6,3.14-7,6-14.12,9-21.18a11.44,11.44,0,0,0,1.18-2.68c.1-.66.6-.81,1.14-.9.75-.13.87.48,1.06.95q3.92,9.42,7.8,18.83,1.56,3.75,3.18,7.46c.74,1.67,1.65,3.21,3.75,3.44.31,0,.69.15.75.53a.43.43,0,0,1-.47.5Zm-5.49-24.35c-1.69,3.9-3.18,7.39-4.73,10.85-.45,1-.37,1.4.86,1.37,2.6-.07,5.21,0,7.81,0,.87,0,1-.29.7-1.08C901.48,416.08,900,412.51,898.34,408.5Z"/><path class="cls-2" d="M676.27,432.66H664c-.17-.69.39-.68.69-.8,2.52-1,2.75-1.59,1.64-4.08a2.53,2.53,0,0,1-.26-.52c-.58-4.71-3.66-5.45-7.62-4.82-.32.06-.67,0-1,0-1.7.15-3.9-.78-5,.42-1.46,1.59-2.09,3.94-2.68,6.1-.39,1.43,0,2.49,1.75,2.7a9.12,9.12,0,0,1,1.6.54c0,.43-.17.62-.47.62q-4.2,0-8.41,0c-.31,0-.68.09-.87-.29a.44.44,0,0,1,.23-.66c2.95-.79,3.64-3.51,4.67-5.75,2.75-6,5.27-12.05,7.85-18.1.87-2,1.66-4.09,2.46-6.14a1.27,1.27,0,0,1,1.24-.81c.76-.06.82.62,1,1.05,3.28,7.93,6.53,15.86,9.81,23.78.47,1.16,1.1,2.26,1.6,3.41.78,1.79,2.47,2.36,4.27,2.79Zm-17.8-24.15L653.2,420.7h9.11c.67,0,1.25,0,.85-1C661.64,416.12,660.14,412.5,658.47,408.51Z"/><path class="cls-2" d="M801.94,432.86c3.15-2.36,3.15-2.36,1.83-6.14-1.49-4.27-1.49-4.27-6-4.27-1.87,0-3.74.08-5.6,0-1.31-.08-2.12.25-2.53,1.61s-1.09,2.54-1.57,3.84c-1,2.65-.67,3.17,2,4,.36.11.83,0,1,.47a.49.49,0,0,1-.5.5l-8.41,0c-.31,0-.69.09-.87-.31a.45.45,0,0,1,.26-.65c2.95-.78,3.62-3.52,4.66-5.76,2.75-6,5.27-12,7.85-18.09.86-2,1.65-4.09,2.46-6.14a1.25,1.25,0,0,1,1.24-.8c.76-.05.82.63,1,1.06q4.92,11.88,9.79,23.78c.38.92.81,1.81,1.26,2.7.76,1.5,1.6,2.92,3.54,3.13.35,0,.85.11.83.65,0,.32-.3.42-.58.42ZM791.17,420.7c3.27,0,6.19,0,9.12,0,1.29,0,1-.57.69-1.35-1.11-2.64-2.17-5.31-3.31-7.93-.37-.85-.49-1.87-1.38-2.56Z"/><path class="cls-2" d="M744,432.65H731.76c-.17-.68.39-.67.7-.79,2.51-1,2.74-1.59,1.64-4.08-.08-.18-.24-.34-.26-.52-.59-4.7-3.66-5.45-7.62-4.82-.32.06-.67,0-1,0-1.7.15-3.9-.78-5,.42-1.46,1.59-2.09,3.93-2.68,6.1-.39,1.42,0,2.49,1.74,2.7a8.14,8.14,0,0,1,1.6.54c0,.43-.16.62-.45.62-2.8,0-5.61,0-8.41,0-.31,0-.68.09-.88-.28a.44.44,0,0,1,.22-.66c2.95-.8,3.64-3.51,4.67-5.76,2.75-6,5.27-12,7.85-18.08.87-2,1.67-4.09,2.47-6.15a1.25,1.25,0,0,1,1.22-.82c.76-.07.83.6,1,1q4.9,11.79,9.78,23.58c.48,1.16,1.11,2.25,1.55,3.42.73,1.95,2.52,2.47,4.35,3ZM721,420.7h9.17c.54,0,1.2,0,.85-.82-1.52-3.68-3.07-7.34-4.75-11.35Z"/><path class="cls-2" d="M1021.61,402.51a3.85,3.85,0,0,1-.68.27c-2.9.42-3.63,1.17-3.68,4.15-.06,4,0,8,0,12,0,2.05-.18,4.11-.37,6.16a9.68,9.68,0,0,1-8.19,8.28c-3.7.49-7.54.8-11-1.12a8.34,8.34,0,0,1-4.44-7c-.44-5.54-.17-11.09-.24-16.63a18.62,18.62,0,0,0-.19-3c-.27-1.67-1-2.86-3-2.56-.45.06-1.21.29-1.29-.51-.1-1,.75-.74,1.28-.74,3.67,0,7.35,0,11,0,.42,0,1.09-.21,1.12.43s-.66.48-1.06.49c-1.87.06-3.12.88-3.15,2.84-.12,6.87-.64,13.77.38,20.6.71,4.76,5.68,6.94,10.74,5.16,3.63-1.28,5.79-3.62,6.08-7.55.44-5.93.24-11.87.13-17.81a3.06,3.06,0,0,0-3.33-3.23c-.36,0-.86.1-.89-.5,0-.35.29-.42.55-.42h10.26Z"/><path class="cls-2" d="M623.06,432.58c.36-.32.49-.51.63-.53,3.56-.5,3.61-1.55,3.93-4.33.23-2.11,0-4.27.06-6.4a3.15,3.15,0,0,0-.67-1.82c-2.94-4.43-5.84-8.88-8.78-13.3-1-1.48-2.07-2.93-4.09-3.08a.84.84,0,0,1-.84-.72c-.07-.6.48-.54.84-.54q6.12,0,12.22,0a.48.48,0,0,1,.53.46c-.08.45-.45.39-.76.46-2.86.63-3.34,1.5-1.88,3.93,1.92,3.17,4,6.22,6,9.35.63,1,1,1,1.67,0,1.93-3.12,4-6.16,5.92-9.3,1.29-2.1.86-2.83-2.81-4.61h11.4c-6.75,2.22-7.83,9.18-11.73,13.69-3.72,4.29-2.14,9.34-2.18,14.15,0,1.35,1.33,1.68,2.41,2,.55.16,1.2-.18,2.06.61Z"/><path class="cls-2" d="M446,402.25c-.16.73-.74.49-1.14.58-2.44.6-2.94,1.5-1.62,3.7,1.94,3.23,4.08,6.34,6.11,9.52.59.92,1,1.12,1.67,0,2-3.18,4.1-6.26,6-9.46,1.2-2,.67-2.81-2.31-4.47h11.17c-1.4,1.14-3,1-4.09,2.05a26.7,26.7,0,0,0-3.28,4.24c-1.51,2.26-2.89,4.61-4.45,6.83-2,2.8-3.19,5.75-2.66,9.27a37,37,0,0,1,.06,3.8c.12,2.91.57,3.36,3.52,3.67.32,0,.68,0,.83.65h-13.4c4.75-.67,4-4.26,4.42-7.49.58-4.14-1.59-7.06-3.56-10.14s-4-6-6.06-9c-1-1.41-2-2.79-4-2.94-.51,0-.92-.31-.86-.88s.5-.38.8-.38q6.21,0,12.42.06C445.76,401.92,445.89,402.15,446,402.25Z"/><path class="cls-2" d="M832.3,432.64H818.23c.54-.4.68-.57.83-.6,3.41-.52,3.79-1.38,3.88-4.34.2-7.54.06-15.09.09-22.63,0-.87-.28-1.17-1.15-1.15-1.6,0-3.22-.18-4.8,0-2.16.21-3,1.86-3.63,3.72-.15.49.22,1.46-.74,1.33s-.22-1-.43-1.5a1.34,1.34,0,0,1-.07-.4c-.38-4.79,0-5.21,4.77-5.2,6.54,0,13.09,0,19.63,0,1.32,0,1.73.38,1.67,1.68a12,12,0,0,0,.22,4.17c.16.51.12,1.17-.59,1.25s-.79-.36-.85-1a4.26,4.26,0,0,0-4.5-4h-1c-3.9,0-3.9,0-3.9,4,0,6.47,0,12.95,0,19.42,0,3-.46,4.42,3.94,4.69C831.78,432.07,831.9,432.28,832.3,432.64Z"/><path class="cls-2" d="M867.91,402.24c-.2.23-.24.31-.29.32-5,1.47-5,1.47-5,6.67,0,6.28,0,12.56,0,18.84,0,2.61.38,2.95,3,3,1.53,0,3.07,0,4.61,0,4.09.18,6.72-1.87,8.49-5.35.27-.53.24-1.6,1.12-1.33,1.09.33.08,1.19,0,1.61-.58,2.23-.81,5-2.29,6.42s-4.21.35-6.4.37c-5.21.06-10.42,0-15.64,0-.66,0-1.42.21-2-.3.06-.21.07-.31.1-.32,3.92-.76,4.24-1.44,4.28-6.06,0-6.15,0-12.29,0-18.44a19.18,19.18,0,0,0-.32-2.92c-.27-1.84-1.71-1.66-3-1.7-.43,0-1,.13-1-.59s.5-.69,1-.69q6.4,0,12.82,0C867.47,401.9,867.62,402.07,867.91,402.24Z"/><path class="cls-3" d="M169.4,416c.1,2.68-1.52,3.36-3.81,3.84-14.21,2.93-28.36,3.27-42.45-.58a68.42,68.42,0,0,1-21.22-10C87.38,399.15,79.63,385,77.05,367.85c-2.13-14.15.2-27.94,4.86-41.37,1-3,2.28-5.84,3.4-8.76.32-.85.65-1.15,1.72-1,5.29.7,10.5,1.76,15.69,2.92,1.45.33,1.64.78,1,2.08A99.51,99.51,0,0,0,94.12,348c-2.42,12-2.56,23.84,2,35.41a49.88,49.88,0,0,0,11.17,16.91c9,9,20.27,13.52,32.62,15.62a86.1,86.1,0,0,0,27.33.11c.53-.08,1.06-.11,1.6-.14A1.75,1.75,0,0,1,169.4,416Z"/><path class="cls-3" d="M114.25,418.51c-5.36,5-10.85,9.66-16.55,14.09-23.94,18.59-50.24,33-78.16,44.66a1.77,1.77,0,0,1-2.48-.64c-3.07-3.88-6.16-7.74-9.37-11.5-1.15-1.34-.93-1.75.67-2.27a288,288,0,0,0,52-23.08,260.71,260.71,0,0,0,38.72-26.3c1.68-1.38,2.83-1.76,4.74-.37A55.84,55.84,0,0,0,114.25,418.51Z"/><path class="cls-3" d="M119.45,478a233.79,233.79,0,0,0,20-16.35c11.06-10.22,21.07-21.28,28-34.81,3-5.92,5.3-12.12,5.76-18.83.94-13.5-5.27-23.22-17.91-28.08-8.4-3.22-17.15-3.83-26-3.38a139,139,0,0,0-29.75,5.14c-1.39.38-1.83.06-2.23-1.23a57.69,57.69,0,0,1-2.37-10.94c-.11-.93-.09-1.55,1.16-1.8,16.23-3.25,32.53-4.81,49-1.87,9,1.62,17.61,4.58,24.82,10.49,11.43,9.37,14.68,21.55,11.58,35.64-2.71,12.26-9.34,22.48-17.44,31.8-12.11,13.94-26.83,24.61-42.64,33.92C120.82,478,120.27,478.4,119.45,478Z"/><path class="cls-3" d="M89.15,309.68A147.34,147.34,0,0,1,98,294.32c10.13-15.53,22.27-29.36,35.55-42.24,1-1,1.42-.91,2.13.27,2.89,4.81,5.82,9.59,8.87,14.3.83,1.29.66,2-.4,3a227.88,227.88,0,0,0-29,33.16c-1.62,2.3-3.15,4.65-4.67,7a1.91,1.91,0,0,1-2.06,1.13C102.14,310.17,95.81,309.86,89.15,309.68Z"/><path class="cls-3" d="M70.66,312.67c2.42-.16,4.84-.38,7.26-.48,14.13-.58,28.2-.38,42,3.05,8.44,2.09,16.42,5.23,23.09,11,9.13,7.9,12.1,18.07,10.76,29.76a63.54,63.54,0,0,1-1.45,7.47c-.3,1.21-.64,1.78-2.14,1.36a48.76,48.76,0,0,0-9.44-1.74c-1.59-.12-1.62-.76-1.29-2a30.32,30.32,0,0,0-.13-17.77c-2.89-8.72-9.23-14.37-17-18.58-10.25-5.54-21.43-8.07-32.83-9.81C83.25,314,77,313.42,70.66,312.67Z"/><path class="cls-3" d="M38.84,386.82c5.75-2.69,11.5-5,17.28-7.19S68,375.3,74.05,373.39c1.29-.41,1.83-.36,2.14,1.13a52.17,52.17,0,0,0,4,11.71c.52,1.08.45,1.58-.77,2a286.85,286.85,0,0,0-26.95,11.68c-.73.36-1.35.74-2.1-.13C46.57,395.48,42.74,391.21,38.84,386.82Z"/><path class="cls-3" d="M136.68,378.5a58.27,58.27,0,0,1,7,.55c2.15.25,2.19.34,1.15,2.2a134.21,134.21,0,0,1-16.22,22.54c-1.26,1.46-2.62,2.85-3.86,4.32a1.45,1.45,0,0,1-2.06.38,63.54,63.54,0,0,1-9.21-5.6c-1.06-.76-1-1.22-.14-2.11a126.92,126.92,0,0,0,17.75-21.35,1.85,1.85,0,0,1,1.81-.94C134.14,378.53,135.41,378.5,136.68,378.5Z"/><path class="cls-3" d="M183.32,414.48c-.15-1.08,0-1.79.83-2.06,3.51-1.14,7-2.24,10.61-3.21A84.07,84.07,0,0,1,183.32,414.48Z"/></svg>