<svg id="Layer_1" data-name="Layer 1" xmlns="http://www.w3.org/2000/svg" viewBox="0 0 1106.13 743.43"><defs><style>.cls-1{fill:#f4c70e;}.cls-2{fill:#0d5792;}.cls-3{fill:#0383b0;}</style></defs><title>bank-sulteng</title><path class="cls-1" d="M493.58,375.91c16.3,1.14,32.27-.81,48.25-4.09-35,24.11-71.07,46.3-111.17,62.66,8.89,2.19,17.33,3.44,25.11,7a45.12,45.12,0,0,1,4.3,2.12c10.78,6.41,10.65,19-.22,25.47-3.68,2.18-7.05,1.66-10.13-1.13s-4.6-6-3.18-9.9c1.27-3.48,4.37-4.81,8-5.21,1.13-.12,3.18,2.55,3.46-.87.19-2.37-.68-4.11-3.1-4.73a15.85,15.85,0,0,0-8.56.34c-8,2.38-15.9,4.91-23.84,7.4-22.58,7.09-44.63,15.75-67.32,22.52a29,29,0,0,1-4.7.72c-.21-2.13,1.57-2.32,2.6-3A904.65,904.65,0,0,0,507.27,346.38c11.86-12.39,23.37-25.1,34.29-38.32a7.77,7.77,0,0,1,6.94-3.15c21.4.52,41.73-3.62,60.45-14.44,1.08-.62,2.51-1.83,3.46-.73,1.36,1.57-.72,2.44-1.53,3.39-23.55,27.3-52.12,48.18-83.54,65.45C516.29,364.65,504.89,370,493.58,375.91Z"/><path class="cls-2" d="M1066,453.36a2.3,2.3,0,0,0-2.46.94c-8.7,9-19.22,11.73-30.67,7.06-11.83-4.83-16.62-15.22-17-27.34-1.25-40.14,31.45-66.76,71.42-58.43a82.06,82.06,0,0,1,13.38,3.75c2,.78,2.58,1.7,2.17,4-4.73,26-9.22,52-14,77.94a65.73,65.73,0,0,1-6.15,17.59c-9.39,18.51-26,22.85-44.75,22.58-7.34-.11-14.67-1.06-21.61-3.94-2.46-1-3.62-1.92-2.51-4.9a121.18,121.18,0,0,0,4-13.8c.56-2.37,1.22-2.68,3.52-1.75a52.63,52.63,0,0,0,20.66,3.52c10.31-.12,17.27-5.11,21.08-14.49A37.46,37.46,0,0,0,1066,453.36Zm2.73-58.91c-6.47-.07-11.6,1.95-15.82,6.3-8.07,8.32-11.24,18.5-10.61,29.87.29,5.13,1.89,9.94,7.41,11.86,5.83,2,10.34-.71,14-4.85,4.51-5,6.72-11.2,7.94-17.76s2.17-13,3.72-19.33c1-4-.07-5.72-4.08-5.86C1070.19,394.65,1069.08,394.49,1068.71,394.45Z"/><path class="cls-3" d="M469.67,287.86A227.83,227.83,0,0,1,474.76,316c1.08,8.9,2.21,17.82,2.09,26.82,1.66.46,1.91-1,2.46-1.76,11.49-15.45,22.17-31.4,29.07-49.53,3.91-10.28,6.34-20.83,4.36-31.95a20.14,20.14,0,0,0-.75-3.27c-1.4-4-2.88-8.06-7.9-8.62s-8.31,2.37-11.73,7c2.85-.75,4.87-1.36,6.54.59a11.75,11.75,0,0,1,2.93,5.4c.8,4.19-1.56,7.71-6,9.08-4.72,1.46-9.64,0-12.11-3.49a10.93,10.93,0,0,1,.52-13.42c4.56-5.34,10.16-9.28,17.15-10.84,6.32-1.41,11.23,1.1,15.35,5.74,7.85,8.84,11.56,19.41,13,30.92.25,1.91.45,3.82.66,5.72.92,8.3-.37,15.37-5.94,22.63-43.26,56.33-93,105.76-152,145.61-2,1.34-3.69,3.71-6.62,3.12,23.17-34.41,43.12-70.44,56.94-109.69l1.28.21v45.2l1.36.2C448.53,361.19,462.28,326.64,469.67,287.86Z"/><path class="cls-2" d="M602.14,341.36a54.6,54.6,0,0,1,23.06,4.29c2.57,1.1,3.79,2.26,2.52,5.32-2.13,5.16-3.91,10.47-5.69,15.77-.86,2.58-2.09,1.87-3.95,1.09-7.62-3.2-15.48-5.1-23.86-3.55a19.77,19.77,0,0,0-5.85,2.11c-7.29,3.95-8.45,12.26-2.45,18,4.08,3.92,9.11,6.5,13.94,9.33C608,398.51,615.47,404,619.28,413c7.69,18.24-1.48,40.09-20.72,48.21-17.8,7.52-35.6,6.1-53.18-1.53-3.85-1.67-3.93-3.63-2.39-7a110,110,0,0,0,5.06-13c1-3.19,2-4,5.25-2.19a48.49,48.49,0,0,0,23.53,5.87,24.59,24.59,0,0,0,9.41-1.66c10.08-4,12-15.33,3.78-22.38-4.29-3.68-9.45-6-14.18-9-1.88-1.2-3.74-2.46-5.57-3.75-23.86-16.82-16.46-48.87,6.8-60.08A52.07,52.07,0,0,1,602.14,341.36Z"/><path class="cls-2" d="M952.85,388.37c8.45-8.66,17.55-14.23,29.55-14s19.88,7.61,20.94,19.46c1.1,12.34-2.15,24.19-4.14,36.17-1.7,10.27-3.79,20.48-5.53,30.75-.43,2.52-1.33,3.54-4,3.46-6.25-.17-12.51-.11-18.76,0-2.34,0-2.94-.51-2.48-3,3-16.23,5.8-32.48,8.55-48.75a38.84,38.84,0,0,0,.43-8.14c-.32-7.67-6.19-11-13.07-7.32-4.88,2.58-7.82,7-10.26,11.73-5.43,10.65-6,22.52-8.42,33.92q-1.92,9.17-3.37,18.43c-.37,2.37-1.25,3.25-3.69,3.19-6.25-.15-12.51-.18-18.76,0-2.89.08-3.11-1.2-2.69-3.5,4.93-27.1,10.31-54.13,14.23-81.41.27-1.9.81-3.21,3.26-3.13,5.6.17,11.22.09,16.84,0,2,0,2.88.49,2.43,2.81C953.32,382.06,953.18,385.23,952.85,388.37Z"/><path class="cls-2" d="M686.14,450.43c-5.09,5.41-9.54,9.91-15.45,12.62a33.31,33.31,0,0,1-12.51,3c-11.71.51-19.62-5.73-21.77-17.26-2.08-11.16.81-22,2.67-32.85,2-11.82,4.34-23.59,6.33-35.41.53-3.13,1.34-4.76,5.06-4.49a159.93,159.93,0,0,0,16.82.06c3.15-.11,4.08.5,3.42,4-3,15.87-5.74,31.8-8.43,47.73a34.94,34.94,0,0,0-.44,8.6c.55,7.06,5.64,10,12.2,7.3,4.18-1.74,6.88-5.07,9.2-8.81,6.28-10.13,7-21.81,9.27-33.06,1.48-7.37,2.75-14.78,4-22.18.44-2.55,1.44-3.76,4.38-3.62,5.92.28,11.86.25,17.78,0,3.31-.13,3.56,1,3,3.92-4.9,26.9-10.5,53.68-14.18,80.8-.3,2.24-1,3.42-3.56,3.33-5.28-.18-10.58-.2-15.86,0-3.07.12-3.42-1.21-3-3.77C685.62,457.46,685.75,454.47,686.14,450.43Z"/><path class="cls-2" d="M64.36,398.87c.25.52.31.94.5,1,23.14,8.7,23.78,41.88-.54,56.88a52.11,52.11,0,0,1-20.79,6.95c-12.3,1.62-24.62,1.11-36.93-.14-3.16-.32-3.83-1.28-3.2-4.55q10.86-56.31,21.35-112.69c.28-1.52.54-2.65,2.42-3,13.18-2.34,26.47-3.78,39.56-.36,11.23,2.92,19.75,9.58,21.42,21.95,1.83,13.53-4.8,23-15.85,29.9C69.78,396.41,67,397.54,64.36,398.87ZM30.82,452c10.53,0,17.57-1.53,24-5.36,8.47-5,12.91-14.87,10.91-25.23C64,412.2,57.23,408.07,48.69,406.1c-5.37-1.24-10.82-.88-16.25-1.09-2.77-.1-3.88.71-4.38,3.55-2,11-4.39,21.93-6.3,32.95C20,452,20.15,452,30.82,452Zm.35-58.6c7.18-.08,14.06.67,20.83-1,7.18-1.77,13.49-5,17.64-11.48,7-11,2.16-23.57-10.36-26.66-6-1.49-12.11-.88-18.17-.28-1.77.17-2.66,1.24-3,3.14C35.89,369.12,33.55,381.05,31.17,393.44Z"/><path class="cls-2" d="M833.53,425.84c1-19,9.31-37.2,30.27-47.5a39.54,39.54,0,0,1,29.06-2.59c11.81,3.42,18.42,11.86,19,23.71.56,11.68-5.45,21-16.54,25.62-10.56,4.43-21.7,5.27-33,5.39-5,.06-5.31.51-3.76,5.16,2.25,6.78,7.77,9.08,14.11,9.71a44.53,44.53,0,0,0,23.46-3.84c3.27-1.52,3.84-.38,4,2.48.1,2.56.33,5.12.58,7.67.79,8,.8,8-7,10.61a67.61,67.61,0,0,1-27,3.71C845,464.27,833.63,451.48,833.53,425.84Zm35.3-14.94A33.08,33.08,0,0,0,883.28,408c3.57-1.61,5.4-4.35,4.86-8.43-.51-3.9-3.33-5.19-6.64-5.87-6.44-1.33-13.84,2.44-18.15,9.24-1.46,2.29-3.59,5.15-2.64,7.36.8,1.88,4.34.4,6.66.62C867.53,410.91,867.69,410.9,868.83,410.9Z"/><path class="cls-2" d="M310.54,413.58c9.61-9.3,19.43-18.69,29.11-28.21,10.46-10.28,11.6-10.73,27.64-8.69-6.05,5.74-11.78,11.19-17.53,16.61-5.59,5.27-11,10.73-16.89,15.68-2.86,2.41-2.81,4.26-1.24,7.27,7.46,14.35,14.73,28.8,22.05,43.22.62,1.24,1.16,2.52,2,4.44-5.29,0-10.06-.06-14.83,0-2.9.05-3.13-2.38-4-4.12C330.67,447,324.52,434.19,318.14,421c-5.92,4.79-11.81,8.68-12.52,17.18-.6,7.31-2.73,14.48-3.8,21.76-.49,3.28-1.82,4.11-5,4.09-11-.08-11.13,0-9.1-10.81q10-53.34,20.21-106.63c2.11-11.13,2.16-11,13.42-11,3.52,0,3.88,1.19,3.3,4.13q-7.08,35.79-14,71.62A12.78,12.78,0,0,0,310.54,413.58Z"/><path class="cls-2" d="M154.36,443.21c-3.63,5.68-7.18,10.73-12,14.74-12.11,10.19-28.88,10.52-38.45.68-6-6.11-8.06-13.81-7.93-22,.57-36.37,29.57-69.87,75.58-61,8.72,1.68,8.62,1.79,7,10.45-3.57,19.51-8.48,38.78-10.25,58.59a138.28,138.28,0,0,0-.69,15.36c.07,3.31-1.12,4-4.15,4-10.66,0-10.62.13-9.68-10.59C154.15,450.25,155,447.13,154.36,443.21Zm8.79-55.41c-6.83-1.66-13.53-1.93-20.05.2-19.58,6.4-34.15,30.7-30.89,51.16,2,12.66,12.89,17.72,23.89,11.07a31.47,31.47,0,0,0,4.27-3.08A49.49,49.49,0,0,0,156,421.28C158.83,410.3,160.78,399.12,163.15,387.8Z"/><path class="cls-2" d="M819.87,352.55c-1.28,7.21-2,13.58-3.63,19.72-1,3.74.23,4.07,3.26,4,3.68-.15,7.38,0,11.06-.07,2.17-.07,2.86.7,2.44,2.81-1,5-2,10.05-2.8,15.11-.32,2.06-1.48,2.14-3,2.13-4.17,0-8.34.06-12.5,0-1.91,0-2.81.47-3.18,2.54-2.08,11.81-5.08,23.48-6.28,35.44-.8,7.95,1.08,9.85,9.08,9.48,3.75-.17,4.84.74,4,4.45A105.27,105.27,0,0,0,816.61,460c-.35,3.41-2,5.06-5.4,5.36-5.1.44-10.13,1.2-15.3.31-11.23-1.93-17-8.89-16.69-20.34.29-9.67,2.64-19,4.28-28.48,1-5.67,2.16-11.31,3.32-17,.47-2.32.57-3.75-2.72-3.74-7.1,0-7.1-.19-6-7.35.15-.95.18-1.92.37-2.86.59-3,.44-6.51,2.06-8.76s5.36-.74,8.15-.89c1.85-.09,2.51-.89,2.8-2.52.25-1.41,1.1-2.82,1-4.17-.86-8.82,4.68-11.31,11.85-12.74C809.31,355.81,814.16,354.14,819.87,352.55Z"/><path class="cls-2" d="M252.65,463.9c-7.83,0-7.79,0-6.3-7.81,2.92-15.43,5.75-30.87,8.72-46.28a43,43,0,0,0,.58-8.61c-.13-11.56-9.06-17.39-19.75-12.7-11,4.83-17.54,13.83-20.92,24.93-4.59,15-6.29,30.7-9.23,46.09-.72,3.73-2.17,4.92-5.62,4.39a6.14,6.14,0,0,0-1,0c-10.13,0-9.83.06-8-9.76,4.63-24.52,9.89-48.93,13.46-73.64.51-3.47,1.54-4.52,5-4.4,12.2.4,9.25-1.73,7.93,10-.16,1.41-1.12,3.39-.09,4,1.86,1.08,2.58-1.26,3.56-2.34,7.53-8.36,16.55-13.49,28.09-13.45,12.32.05,20.48,7.16,22.21,19.46,1.35,9.6-1.42,18.79-3.06,28.05-2.06,11.65-4.6,23.22-6.85,34.84C260.08,463.89,260.14,463.9,252.65,463.9Z"/><path class="cls-2" d="M738.75,464.12c-3.25-.32-8.57,1.73-10.87-.74s.51-7.51,1.22-11.37c5.64-31,11.44-62,17.15-93,1.16-6.28,2.29-12.58,3.2-18.91.37-2.59,1.39-3.53,4-3.46,6.08.15,12.18.2,18.26,0,3.07-.11,3.36,1.08,2.87,3.66-2.38,12.56-4.65,25.15-7,37.73q-7,38.25-14,76.49c-1.74,9.59-1.7,9.6-11.32,9.6Z"/><path class="cls-3" d="M721.92,487.33a5.13,5.13,0,0,1,0-1c.37-2.29-.25-6.81.67-6.54,3.52,1.06,7.08-2.74,10.16.33,1.61,1.61,2.69.44,4-.23,3.9-1.91,7.15-.46,7.75,3.8.47,3.3.21,6.7.27,10,0,1.11-.48,1.93-1.62,2s-1.59-.87-1.59-2c0-2.4.06-4.8,0-7.19-.07-2,.41-4.69-2.69-4.6-2.79.08-4.18,2-4.1,4.86.05,2.23,0,4.47,0,6.71,0,1,0,2.07-1.29,2.16-1.54.1-1.75-1-1.75-2.25,0-2.56,0-5.12,0-7.68,0-1.83-.26-3.81-2.62-3.82a3.61,3.61,0,0,0-3.92,3.9c-.06,2.55,0,5.11,0,7.67,0,1.29-.36,2.28-1.85,2.17-1.25-.1-1.37-1.13-1.37-2.13C721.92,491.49,721.93,489.41,721.92,487.33Z"/><path class="cls-3" d="M900.85,487.4v-.48c0-7.67.14-8.05,2.54-7.17,2.87,1,5.82-2.53,8.41.44,1.58,1.82,2.79.23,4.12-.36,3.92-1.75,7.18-.16,7.67,4.08a92.8,92.8,0,0,1,.17,9.59c0,1.23-.25,2.34-1.79,2.21-1.2-.11-1.41-1.09-1.41-2.13,0-2.4.05-4.81,0-7.21-.06-2.07.07-4.66-3-4.39-2.46.21-3.9,1.94-3.76,4.67a52.69,52.69,0,0,1,0,5.76c-.08,1.25.79,3.32-1.56,3.25-1.94-.06-1.25-1.9-1.3-3-.1-2.24,0-4.49-.1-6.72-.13-1.95-.49-4.15-3.12-3.94a3.87,3.87,0,0,0-3.74,4.2c0,2.09.06,4.17,0,6.25-.05,1.29.63,3.36-1.63,3.23s-1.35-2.15-1.44-3.44C900.76,490.6,900.85,489,900.85,487.4Z"/><path class="cls-3" d="M478.55,486.25c-1.92,2.47-2,5-2.74,7.19-.45,1.28-.93,2.41-2.56,2.37s-2.09-1.17-2.48-2.48c-1.14-3.83-2.34-7.64-3.47-11.48-.24-.82-1.06-1.89.3-2.44s2.18.1,2.58,1.37a37,37,0,0,0,3.76,9c.72-2.49,1.45-5,2.14-7.49.37-1.35.3-3.1,2.34-3,1.69.07,1.75,1.62,2.1,2.81.82,2.74,1.6,5.49,2.74,9.4,1.32-4.13,2.35-7.2,3.27-10.31.35-1.19.78-2.26,2.21-1.89,1.82.46.79,1.85.54,2.74-1.1,3.83-2.39,7.62-3.5,11.45-.41,1.41-1.07,2.35-2.6,2.28s-2-1.19-2.34-2.56C480.28,491.08,479.47,489,478.55,486.25Z"/><path class="cls-3" d="M818.77,480.33v-6.11c0-1-.06-2,1.3-2.1s1.72.66,1.72,1.75c0,6.71,0,13.41,0,20.11,0,.55-.5,1.1-.77,1.65-3.49-2.44-7.89,2.68-11.19-1.35-2.86-3.49-2.75-7.42-1.32-11.3S813.18,478.35,818.77,480.33Zm0,7.22c.45-3.14-.71-5.55-4.08-5.64s-3.79,2.78-3.84,5.45.26,5.66,3.56,5.75C817.51,493.19,819.17,491,818.73,487.55Z"/><path class="cls-3" d="M550.93,484.25v3.84c0,8-.25,8.21-8.21,7.89-3.87-.16-6.54-4.23-6.11-9.33.41-4.94,3.73-8.75,7.37-7.47,4.12,1.45,4.12-.2,4-3.28,0-1.29-1.17-3.78,1.49-3.67,2.5.1,1.27,2.49,1.36,3.86C551.06,478.79,550.93,481.53,550.93,484.25ZM548,487.56c.24-3.37-1.09-5.66-4.44-5.67-3.68,0-3.55,3.18-3.58,5.67s.16,5.71,3.7,5.55C546.77,493,548.44,490.76,548,487.56Z"/><path class="cls-3" d="M648.19,480.83c4.34-2.47,7.59-2.52,10,1.13,2.12,3.25,1.27,10.27-1.42,12.49a5.84,5.84,0,0,1-5.34,1.35c-6.07-1.48-6.07-1.47-6.07-8.62,0-4.15,0-8.29,0-12.43,0-1-.48-2.49,1.24-2.59,2.11-.14,1.53,1.57,1.57,2.71C648.24,476.58,648.19,478.3,648.19,480.83Zm0,6.31c-.5,3.11.55,5.81,4.13,6,3,.13,3.76-2.5,3.78-5.08,0-2.74.19-6-3.59-6.12C649.6,481.79,647.92,483.75,648.22,487.14Z"/><path class="cls-3" d="M872.33,484.71c3.68-1.12,4.22-6.37,9.2-5.06-2.12,2.5-5.34,4.63-5.35,6.76,0,2.32,3,4.63,4.65,7,.41.59,1.38,1.25.57,2a2,2,0,0,1-3-.37c-1.75-2.06-3.37-4.21-5.29-6.65-1.27,1.77-.68,3.52-.78,5.1-.08,1.22-.22,2.32-1.75,2.27-1.22,0-1.48-1-1.48-2q0-9.82,0-19.66c0-1.1.31-1.88,1.55-1.91,1.59,0,1.7,1,1.69,2.26C872.31,477.72,872.33,481.07,872.33,484.71Z"/><path class="cls-3" d="M617.51,485.05c1.59-1.75,3.13-3.55,4.8-5.23a1.66,1.66,0,0,1,2.54-.14c.62.73-.11,1.45-.67,2a4.36,4.36,0,0,1-.69.67c-4.4,2.72-3.3,5.53-.37,8.66,1.11,1.19,3.68,3,1.93,4.4S622,494,620.78,492.7s-2.28-2.86-3.63-4.58c-1.2,2.36-.49,4.29-.73,6.11-.13.92-.55,1.49-1.5,1.49a1.39,1.39,0,0,1-1.5-1.51q0-10.33,0-20.67c0-1,.56-1.41,1.51-1.43,1.35,0,1.52.84,1.52,1.9,0,3.49,0,7,0,10.47Z"/><path class="cls-3" d="M635.2,496c-5,.07-8-2.8-8.34-7.7-.37-4.64,2.42-8.75,6.48-9.26,3.15-.41,5.68.72,7.11,3.71,1.77,3.7.81,5.2-3.32,5.29a25.11,25.11,0,0,0-2.88,0c-1.42.21-3.69-.81-3.83,1.6-.13,2.23,1.61,3.33,3.75,3.61.47.06,1-.12,1.43.07,1.55.72,4.22-2.69,4.5.45C640.29,495.94,636.83,495.53,635.2,496ZM634,486c1.26-.53,3.61,1,3.79-1.42.15-2-1.63-3-3.62-2.94s-3.72,1.08-3.66,3S632.74,485.54,634,486Z"/><path class="cls-3" d="M662.23,487.53c0-4.82,2.56-8.16,6.72-8.52,3.61-.3,6.22,1.31,7.22,4.92.69,2.53.4,4.51-3.06,4.15a20.79,20.79,0,0,0-4.32,0c-1.11.12-2.83-.81-3.11,1.16a3.32,3.32,0,0,0,2.39,3.7c1.74.7,3.46.34,5.2,0,.82-.16,2-1.11,2.42.3s-1,1.73-2,2.13C667.49,497.75,662.18,494.12,662.23,487.53Zm7.11-1.54c1.26-.64,3.6,1.1,3.76-1.41.13-1.95-1.53-3-3.52-3s-3.67.94-3.75,2.85C665.73,487.25,668.21,485.26,669.34,486Z"/><path class="cls-3" d="M896.16,494a8.59,8.59,0,0,1-9.77,1c-3.32-1.62-4.71-6.7-3.13-11.1A7,7,0,0,1,890.7,479a6,6,0,0,1,5.59,3.88c1.59,3.86.76,5.11-3.49,5.17a14.53,14.53,0,0,0-2.88.05c-1.33.29-3.67-1.16-3.77,1.44a3.55,3.55,0,0,0,3.69,3.69,47.76,47.76,0,0,0,6-.5Zm-10-8.12a33.44,33.44,0,0,0,4.26,0c1.19-.16,3.25.91,3.26-1.4s-1.8-2.89-3.67-2.84C887.61,481.68,886.26,483,886.16,485.9Z"/><path class="cls-3" d="M975.49,482.69c1.35-3.9,4.38-3.74,7-3.64a4.86,4.86,0,0,1,5,4.36,31.7,31.7,0,0,1,.22,4.78c0,7.81,0,7.86-7.55,7.78-2.64,0-4.69-1.23-5.27-4s1-4.28,3.19-5.26a14.21,14.21,0,0,1,3.71-.75c1.18-.18,2.77.33,2.54-1.8a2.46,2.46,0,0,0-2.9-2.46C979.58,481.89,977.76,482.31,975.49,482.69Zm6.52,5.67c-1.75.15-3.69.19-3.86,2.52-.14,1.74,1,2.6,2.7,2.48,1.88-.13,3.33-1,3.55-3.06C984.59,488.49,983.44,488.23,982,488.36Z"/><path class="cls-3" d="M838.53,488.93v3.84c0,1.9.07,3.91-2.79,2.29-1.24-.71-2.07.42-3.09.65-3.28.75-5.93-.19-6.79-3.53s1.31-5,4.24-5.87a14,14,0,0,1,2.84-.33c1.09-.09,2.38.12,2.27-1.63a2.35,2.35,0,0,0-1.87-2.46,20.49,20.49,0,0,0-3.32,0c-1.15,0-2.75,1.83-3.29.21-.72-2.16,1.79-2.34,3.12-2.76C835.77,477.48,838.53,480.58,838.53,488.93Zm-5.6-.58c-1.7.2-3.68.08-3.95,2.43-.21,1.78.94,2.65,2.58,2.58,1.87-.07,3.37-.92,3.67-3C835.48,488.68,834.47,488.17,832.93,488.35Z"/><path class="cls-3" d="M705,482.66c1.31-3.84,4.33-3.67,7-3.61a4.91,4.91,0,0,1,5,4.33,28.28,28.28,0,0,1,.19,4.79c0,7.73,0,7.78-7.48,7.79-2.65,0-4.71-1.21-5.28-4-.53-2.59.88-4.33,3.16-5.27a15.34,15.34,0,0,1,3.72-.74c1.2-.16,2.76.28,2.54-1.82a2.36,2.36,0,0,0-2.49-2.4C709.41,481.86,707.42,482.31,705,482.66Zm5.58,10.77c1.42-.38,3.07-.92,3.36-3,.23-1.71-.77-2.22-2.3-2.06-1.71.18-3.68.09-4,2.42C707.47,492.55,708.63,493.28,710.61,493.43Z"/><path class="cls-3" d="M958.38,482.85c2.56-4.06,5.62-4.28,8.79-3.56,3,.67,4,2.95,3.8,5.85-.06,1.11,0,2.24,0,3.36,0,7.42,0,7.49-7.28,7.46-2.58,0-4.76-1.09-5.31-3.93-.5-2.62.92-4.33,3.19-5.27a14.82,14.82,0,0,1,3.72-.77c1.21-.15,2.74.3,2.62-1.78a2.46,2.46,0,0,0-2.92-2.46C963.14,481.87,961.3,482.34,958.38,482.85Zm5.89,10.57c1.72-.26,3.31-.85,3.62-2.94.24-1.6-.49-2.34-2.15-2.15-1.88.22-4,.15-4.06,2.83C961.65,492.69,962.76,493.3,964.27,493.42Z"/><path class="cls-3" d="M765.66,482.21c1.78-3.35,4.72-3.44,7.7-3,2.74.35,4.18,2.1,4.27,4.9,0,1.43.16,2.87.16,4.3,0,7.4,0,7.45-7.23,7.61-2.64.06-4.76-1.12-5.43-3.8s.92-4.56,3.39-5.52a18.48,18.48,0,0,1,3.26-.67c1.1-.22,2.83.57,2.8-1.56s-1.38-2.55-3.19-2.77S767.91,483.29,765.66,482.21Zm6.34,6.17c-1.82.11-3.62.44-3.61,2.75,0,1.73,1.27,2.48,2.91,2.22,1.83-.29,3.29-1.18,3.33-3.3C774.67,488.14,773.28,488.31,772,488.38Z"/><path class="cls-3" d="M992.24,487.4v-5.27c0-2,.27-3.83,2.93-2.21a2.38,2.38,0,0,0,2.2,0c5.94-1.59,8.26.09,8.49,6.22.1,2.55,0,5.11,0,7.67,0,1.11-.56,1.88-1.71,1.85s-1.51-.92-1.51-2c0-2.39.06-4.79,0-7.19-.08-2.06,0-4.53-3-4.52s-4.14,1.95-4.12,4.76c0,2.23,0,4.47,0,6.7,0,1.21-.14,2.36-1.73,2.22-1.16-.1-1.52-1-1.51-2.05V487.4Z"/><path class="cls-3" d="M582.58,489.4c-.4,1.77.27,6-.6,5.75-3-.74-5.31,1.42-8,.74-2.19-.56-3.82-1.79-4.09-4.14a4.58,4.58,0,0,1,2.61-4.73,9,9,0,0,1,4.62-1.07c1.14,0,2.34,0,2.19-1.68-.12-1.45-.7-2.48-2.3-2.51-.95,0-1.91.11-2.86.15-1.13,0-2.6,1.91-3.26.15-.72-1.94,1.59-2.1,2.76-2.54,5.08-1.94,8.78.68,8.91,6.15C582.6,486.79,582.58,487.91,582.58,489.4Zm-3.21,1.32c.17-2-.76-2.53-2.29-2.35-1.7.19-3.71,0-4,2.42-.2,1.83,1,2.63,2.61,2.58C577.57,493.3,579.11,492.61,579.37,490.72Z"/><path class="cls-3" d="M587.44,487.63a26.92,26.92,0,0,1,0-4.31c.29-1.76-1.45-6.27,3.36-2.88.16.11.56-.14.86-.19,8-1.3,9.1-.37,9.17,7.63,0,1.76,0,3.52,0,5.28,0,1.14,0,2.44-1.49,2.52-1.92.1-1.75-1.43-1.76-2.71,0-2.39,0-4.8-.07-7.19-.08-2-.4-4.1-3.1-3.86a3.94,3.94,0,0,0-4,4c-.08,2.08.08,4.17-.06,6.24-.08,1.27.82,3.41-1.33,3.46-2.56.06-1.47-2.3-1.63-3.69A38.7,38.7,0,0,1,587.44,487.63Z"/><path class="cls-3" d="M782.54,487.56c0-1.59-.06-3.2,0-4.79.09-2-.53-4.89,3.17-2.64a2.08,2.08,0,0,0,1.29,0c7.52-1.25,8.83-.19,9,7.37,0,2.08,0,4.16,0,6.23,0,1.05-.39,2-1.61,1.93s-1.51-.92-1.51-2q0-3.84,0-7.67c0-2-.09-4.05-2.81-4.08s-4.14,1.49-4.25,4.12c-.11,2.4,0,4.8,0,7.19,0,1.16,0,2.4-1.58,2.42s-1.61-1.21-1.61-2.38C782.55,491.4,782.54,489.48,782.54,487.56Z"/><path class="cls-3" d="M843.16,487.51c0-1.59-.06-3.19,0-4.79.1-2-.51-4.94,3.2-2.61a2.21,2.21,0,0,0,1.33,0c7.59-1.26,8.8-.25,8.83,7.47q0,3.11,0,6.23c0,1.05-.36,1.94-1.61,1.88s-1.47-1-1.46-2c0-2.55,0-5.11,0-7.66,0-2.08-.37-4.09-2.9-4.09s-4.1,1.52-4.11,4.25c0,2.4,0,4.79,0,7.19,0,1.22-.18,2.35-1.7,2.32s-1.55-1.3-1.55-2.44C843.16,491.35,843.16,489.43,843.16,487.51Z"/><path class="cls-3" d="M506.41,487.6a34.92,34.92,0,0,1,0,3.83c-.22,2,1.21,6.06-3.44,3a.54.54,0,0,0-.47.06c-2.84,2-6,2.54-8.05-.51-2.73-4.09-1-9-1.21-13.56a1.13,1.13,0,0,1,1.31-1.08c1.27.06,1.53.92,1.53,2,0,2.56,0,5.11,0,7.67,0,2.07.5,4.12,3,4.12s4.13-1.51,4.17-4.24c0-1.76-.13-3.53.06-5.27.16-1.51-1.05-4.22,1.66-4.09,2.54.12,1.22,2.77,1.45,4.32A25.73,25.73,0,0,1,506.41,487.6Z"/><path class="cls-3" d="M749.15,482.35c1.72-3.61,4.72-3.54,7.65-3.18a4.63,4.63,0,0,1,4.36,4.84c.06,1.44.06,2.87.06,4.31,0,7.28,0,7.34-7.1,7.63-2.85.12-5.08-1.14-5.51-4.17s1.76-4.31,4.21-5.58c1.72-.89,6.16,1.71,5-2.63-1-3.5-4.44-1.61-7-.95C750.43,482.73,750,482.5,749.15,482.35Zm8.9,8.44c.15-1.7-.22-2.56-1.74-2.46-2,.14-4.35,0-4.7,2.71-.18,1.44,1,2.29,2.4,2.32C756.06,493.4,757.66,492.64,758.05,490.79Z"/><path class="cls-3" d="M558.72,487v6.65c0,1-.06,2.05-1.36,2.08s-1.42-1-1.42-2V474.05c0-1,.06-2,1.43-1.94s1.35,1,1.35,2V484.9c3.64-1.09,4.34-6,8.39-5.6,1,1.33,0,2-.68,2.5-4.75,3.13-4,6.26-.39,9.79.94.92,3.2,2.43,1.61,3.77-1.81,1.54-3-.82-4-2.12C562.23,491.54,560.91,489.79,558.72,487Z"/><path class="cls-3" d="M532.73,487.65V491c0,3.37,0,3.37-3.42,3.25a.89.89,0,0,0-.43.2c-3,2-6.32,2.58-8.32-.93-2.31-4-.92-8.75-1-13.17,0-.67.64-1.06,1.35-1.05,1.27,0,1.58.91,1.6,1.93,0,2.56,0,5.12.05,7.67.07,2,.41,4.21,2.93,4.13,2.35-.08,4.29-1.39,4.41-4.12.1-2.4,0-4.8.06-7.19,0-1-.43-2.52,1.4-2.4,1.63.11,1.31,1.52,1.33,2.57C532.76,483.82,532.73,485.74,532.73,487.65Z"/><path class="cls-3" d="M701.14,481.74c-2.36,1.25-5.62-2-6.6,1.09-1.09,3.41,2.94,2.91,4.66,4.18s2.84,2.57,2.43,4.79c-.44,2.4-2.18,3.46-4.3,4a6.58,6.58,0,0,1-6.28-1.42,1.66,1.66,0,0,1-.31-1.3c.18-.83.84-.76,1.51-.56a18,18,0,0,0,2.76.78c1.3.19,2.67.14,3.24-1.33s-.54-2.37-1.65-3a18.69,18.69,0,0,0-2.21-.92c-2.06-.93-3.5-2.39-3.24-4.78s2-3.61,4.16-4C697.72,478.67,699.91,479,701.14,481.74Z"/><path class="cls-3" d="M941.79,496c-3-.29-4.57-1.74-4.64-4.62-.06-2.71,1-6.9-.27-7.86-4.1-3,.45-4.68.29-6.89-.06-1,.59-1.4,1.53-1.41s1.38.78,1.3,1.59c-.17,1.84.5,2.65,2.4,2.47,1-.09,2.09.13,2,1.41s-1.25,1.22-2.19,1.31c-3.15.28-2.16,2.77-2.06,4.39.16,2.29-1.44,5.33,2,6.59.94.35,2.56-.28,2.21,1.52C944.11,495.77,942.73,495.83,941.79,496Z"/><path class="cls-3" d="M514.6,489.47c0,2.55.11,5.11,0,7.65s-1.24,4.29-3.93,4.65c-1,.13-2,0-2.45-1-.52-1.3.48-1.6,1.46-1.85,2.4-.61,1.94-2.6,2-4.28,0-4.31,0-8.61,0-12.92,0-1-.23-2.43,1.5-2.37s1.48,1.39,1.49,2.48c0,2.55,0,5.1,0,7.65Z"/><path class="cls-3" d="M680.29,487.34a15.87,15.87,0,0,1,0-2.39c.27-1.81-.85-5.05.79-5.14,2.36-.12,4.66-.58,7-.71.88,0,1.37.71,1.39,1.62,0,.65-.1,1.35-.94,1.34-5.34-.1-4.81,3.7-5.1,7.26-.17,2.14,1.42,6.09-1.33,6.1-3.71,0-1.07-4.05-1.8-6.18A6,6,0,0,1,680.29,487.34Z"/><path class="cls-3" d="M948,487.62c0-1-.07-1.92,0-2.87.15-1.7-.72-4.62.63-4.85,2.25-.39,4.67-.54,7-.71.88-.06,1.37.66,1.38,1.59,0,.72-.29,1.31-1,1.29-5.17-.16-4.55,3.53-4.91,6.9-.23,2.26,1.72,6.4-1.48,6.42s-.94-4.14-1.62-6.34A5.24,5.24,0,0,1,948,487.62Z"/><path class="cls-3" d="M928.5,487.23c0-2.07,0-4.15,0-6.22,0-.86.29-1.59,1.28-1.69,1.27-.13,1.68.69,1.68,1.76,0,4.31,0,8.62,0,12.93,0,.86-.3,1.62-1.28,1.69-1.21.09-1.7-.63-1.7-1.76Z"/><path class="cls-3" d="M514.81,474.75c-.16,1.35-.8,2-1.93,1.9a1.77,1.77,0,0,1-1.61-2,1.72,1.72,0,0,1,2-1.63C514.52,473,514.72,474,514.81,474.75Z"/><path class="cls-3" d="M931.87,475c-.28,1-.89,1.74-2,1.64a1.67,1.67,0,0,1-1.55-2,1.56,1.56,0,0,1,1.9-1.6A1.73,1.73,0,0,1,931.87,475Z"/></svg>