<svg id="Layer_1" data-name="Layer 1" xmlns="http://www.w3.org/2000/svg" viewBox="0 0 1106.13 743.43"><defs><style>.cls-1{fill:#029240;}.cls-2{fill:#d6c404;}.cls-3{fill:#da2820;}.cls-4{fill:#27221f;}.cls-5{fill:#8ec745;}</style></defs><title>bank-bpd-aceh</title><path class="cls-1" d="M1102.94,431.52c-8,0-16-.12-24,.07-2.68.07-3.23-.75-3.21-3.29q.16-26.24,0-52.49,0-8-.52-16c-.89-14.53-12.39-21.26-25.72-15.16-6.16,2.82-9.62,7.78-11.27,14.15s-1.82,12.83-1.84,19.32c0,16.68-.08,33.37.06,50.05,0,2.83-.85,3.45-3.49,3.38-7.07-.17-14.14-.13-21.21,0-2.14,0-3-.41-3-2.81q.1-72,0-143.91c0-2.22.52-3,2.86-2.94,7.18.16,14.37.19,21.55,0,2.64-.07,3.27.71,3.25,3.29-.12,15.53-.06,31.05-.06,46.58v3.72l.93.63a55.77,55.77,0,0,1,3.7-4.27c11.78-11.28,28.22-14.31,42.8-8.09,9.57,4.08,15.27,11.28,17.8,21.24.32,1.26,0,2.79,1.28,3.75Z"/><path class="cls-2" d="M515.84,441.1c-10.83-12.24-21.11-24.89-29.14-39.21-9.19-16.38-14.67-33.69-13.09-52.74,1.25-15,6.62-28.76,12.85-42.26,7.83-17,16.8-33.51,22.8-51.33,4.8-14.22,7.89-28.75,8.07-43.82h.7c3.12,7.43,6.69,14.66,9.07,22.41,7.09,23.16,5.91,46.33.44,69.56-.27,1.12-.43,2.26-.64,3.39-3.2,10.92-6.44,21.83-9.57,32.77-1,3.63-2.76,7.1-2.77,11v0a1.21,1.21,0,0,0-.63,1.44c-6.17,20.09-9.44,40.41-4.55,61.32.59,2.53.63,5.27,2.34,7.46.75,5.34,3,10.14,5.36,14.9.76,1.53,1.57,3,2.37,4.55A8.29,8.29,0,0,1,515.84,441.1Z"/><path class="cls-1" d="M86.15,358.15c31.26,11.75,28,51.35,10.1,67.55-6.32,5.72-13.94,8.1-22.25,8.52-22.7,1.15-45.41.54-68.12.75-2.2,0-2.69-.68-2.69-2.76q.08-69.52,0-139c0-2.15.61-2.74,2.74-2.72,20.74.29,41.47-.06,62.22.45,32.29.81,43.26,34.9,29.71,56.11A35.44,35.44,0,0,1,86.15,358.15ZM49.21,410.4V410c5.67,0,11.35.2,17,0,10.61-.47,16.46-6.72,16.88-17.65.41-10.58-5.39-18-15.39-19.27-12.21-1.58-24.5-.66-36.76-.94-2-.05-1.91,1-1.9,2.41,0,11.11.08,22.22-.05,33.33,0,2.33.93,2.62,2.87,2.59C37.64,410.34,43.43,410.4,49.21,410.4Zm-2-62.5c5.79-.07,11.59.12,17.35-.57,8.77-1.07,14-7.35,13.86-16.58-.12-9.44-4.93-14.83-14.16-15.55-11-.87-22-.26-33-.49-2,0-2.22.88-2.21,2.51.06,9.39.08,18.77,0,28.15,0,2,.54,2.61,2.53,2.56C36.75,347.81,42,347.89,47.17,347.9Z"/><path class="cls-1" d="M771.18,431.52c-9.66,0-19.39-.06-29.1.05-1.94,0-2.28-1.12-2.76-2.43-3.51-9.56-7.1-19.09-10.48-28.69-.78-2.21-1.77-3-4.18-3q-25.54.18-51.11,0c-2.26,0-3.2.76-3.89,2.84-3.16,9.43-6.55,18.79-9.69,28.23-.73,2.17-1.58,3.11-4.07,3.05-8.23-.2-16.46-.16-24.69,0-2.71.05-3-.58-2.08-3.08Q651,370.16,672.71,311.74c3.35-9,6.8-18,10-27,.74-2.05,1.64-2.86,3.91-2.82,8.34.15,16.69.11,25,0,2,0,3,.43,3.81,2.47q27.48,72,55.12,143.94C771,429.29,771.59,430.2,771.18,431.52Zm-52.77-59.23c-6.5-18.26-12.89-36.23-19.6-55.07-6.37,18.28-12.38,35.54-18.42,52.78-.53,1.52-.59,2.33,1.44,2.32C693.88,372.26,705.92,372.29,718.41,372.29Z"/><path class="cls-1" d="M985.15,401.63a43.1,43.1,0,0,1-38.46,32c-8.26.65-16.45.33-24.43-2.16-15.36-4.79-24.63-15.65-29.16-30.59a76.55,76.55,0,0,1,.56-47.88c14.22-41.4,61.94-38.78,79.72-17.09,7.73,9.44,11.15,20.41,12.58,32.18.57,4.7.5,9.48.91,14.21.23,2.66-.53,3.48-3.34,3.46-20.51-.13-41,0-61.53-.15-3.61,0-4.17.95-3.63,4.28,1,6.34,2.84,12.16,7.62,16.72,10.65,10.2,26,6.74,31-7.07.69-1.93,1.31-2.7,3.6-2.25C968.71,398.89,976.93,400.2,985.15,401.63ZM939,368c5.91,0,11.81-.1,17.72.05,2.26.05,2.76-.73,2.52-2.82a33.82,33.82,0,0,0-2.87-11.37A19.18,19.18,0,0,0,936.51,343c-10.38,1.16-17.82,10.9-17.87,23.41,0,1.85,1.16,1.65,2.31,1.66Z"/><path class="cls-1" d="M420.33,330.28l-23,27.88c-2.22,2.68-4.29,5.5-6.68,8-1.68,1.75-1.54,3.14-.51,5.14q15.12,29.51,30.09,59.09c.66,1.32,1.32,2.63,2.26,4.52-8.83,0-17.1,0-25.37,0-1.66,0-1.8-1.61-2.34-2.69-7.2-14.51-14.37-29-21.84-44.14-3.79,4.54-7.42,8.77-10.88,13.15-.54.68-.37,2-.37,3,0,9.27-.09,18.54,0,27.81,0,2.27-.58,3-2.9,2.93-6-.15-12.06-.21-18.07,0-2.89.11-3.64-.71-3.63-3.6.1-31.76.06-63.51.06-95.27,0-14.14.07-28.28-.06-42.42,0-2.6.64-3.36,3.26-3.28,6,.2,12.06.21,18.08,0,2.63-.09,3.28.69,3.27,3.28-.11,22.83-.07,45.67-.07,68.5v4.58c1.36-1.66,2.15-2.57,2.89-3.53,7.88-10.16,15.8-20.29,23.6-30.51a5.36,5.36,0,0,1,4.87-2.51C401.85,330.37,410.64,330.28,420.33,330.28Z"/><path class="cls-1" d="M183.78,424c-2.34,2-4.35,3.87-6.49,5.56-8.95,7-19.07,9.11-30.13,6.89a27.86,27.86,0,0,1-14.59-8.22c-11.93-12.17-12.43-42.63,11.79-50.93,7.81-2.67,15.91-4.11,23.84-6.25,3.79-1,7.51-2.32,11.29-3.4a2.77,2.77,0,0,0,2.27-3.29c-.17-2.66-.09-5.34-1.06-7.89a9.31,9.31,0,0,0-3.72-4.86c-9.56-6-22.61-2-26.67,8.32-.77,1.95-1.59,2.43-3.52,2-5.77-1.28-11.55-2.49-17.36-3.56-2.08-.39-2.13-1.26-1.65-3.06,4.24-16.17,14.17-24.9,30.68-26.82a71,71,0,0,1,26.9,1.53c11.71,3.16,18.39,11.16,19.73,23.22,1.49,13.3.5,26.63.61,39.95.08,9.61-.42,19.24,1.38,28.77a53.28,53.28,0,0,0,3.24,10.61c.73,1.76.48,2.46-1.62,2.43-6.49-.1-13-.12-19.47,0-1.93,0-2.63-.74-3-2.44C185.51,429.76,184.66,427,183.78,424Zm-2-30.54v-6.73c0-1,0-1.88-1.52-1.35C172.72,388,164.73,389,157.3,392c-6.26,2.48-9.06,7.8-7.85,14.48a13.34,13.34,0,0,0,12.8,11.12,19.11,19.11,0,0,0,19.08-16.67C181.58,398.49,181.62,396.05,181.77,393.41Z"/><path class="cls-1" d="M809.1,377.06c.16,5.88.47,12.81,2.92,19.45,4,10.71,14.49,16.2,25.45,13.2,7.49-2,10.86-7.76,12.86-14.65,1.51-5.22,1.51-5.18,6.87-4.21,6.15,1.12,12.31,2.24,18.49,3.17,2.43.37,2.94,1.22,2.33,3.63-6.3,24.74-24.1,37.69-50,36.22-27-1.54-44.22-18.77-46.92-47.36-1.08-11.48-.58-22.93,3.31-34,6.65-18.95,21.81-30.42,41.91-31.66a70.63,70.63,0,0,1,16.62.77c17.78,3.1,28.26,14.16,33.74,31.6.51,1.62.12,2.21-1.6,2.51-7.52,1.31-15,2.73-22.53,4.21-1.76.35-2.52.21-3-1.85-2.41-9.6-7.68-14.07-16.86-14.68-9.4-.63-17.24,4.17-20.63,12.76a37.34,37.34,0,0,0-1.8,6A70.41,70.41,0,0,0,809.1,377.06Z"/><path class="cls-1" d="M252.36,345.06a77.58,77.58,0,0,1,7.46-8.25c8.75-7.83,18.91-10.44,30.32-8.09,12.8,2.64,21,12,22.63,25.73a104.65,104.65,0,0,1,.77,12.13c.08,21.67,0,43.34.12,65,0,2.86-.85,3.47-3.5,3.39q-9-.27-18.08,0c-2.51.08-3-.79-3-3.14q.1-28.51-.05-57c0-3.47-.26-6.95-.59-10.41-.76-7.82-4.45-13-10.33-14.61-6.62-1.85-14.34,1-18.77,6.9-3.76,5-4.5,10.86-4.79,16.77-.91,19.11-.39,38.24-.37,57.36,0,3.33-.77,4.36-4.17,4.18-5.89-.31-11.82-.16-17.73-.05-2,0-2.8-.43-2.79-2.67q.1-49.71,0-99.44c0-1.93.5-2.64,2.51-2.61,6,.11,12.06.1,18.08,0,1.83,0,2.4.58,2.34,2.39C252.28,336.46,252.36,340.29,252.36,345.06Z"/><path class="cls-3" d="M515.84,441.1a8.29,8.29,0,0,0,3.62-.59c11.9-1.79,22.7-6.56,32.65-13,34.25-22.2,54.78-53.69,61.46-93.81,2.79-16.75-.06-32.87-11.45-46.46-8.84-10.53-20.62-16.19-33.58-19.82-1.21-.34-2.43-.63-3.75-1,7.35-1.75,22,.79,31,5.49,16.73,8.7,24.9,23.34,27.89,41.24,3.78,22.54-.57,44.1-9.3,64.82-12.89,30.62-33.08,55.07-62.56,71.12C536.05,457.68,519.24,463,501,462.3c-28.33-1.13-49.27-19.38-54.66-47.37-4.22-21.88.12-42.57,8.77-62.66a143.79,143.79,0,0,1,7.8-15.35c.35,2.93-.63,4.59-1.22,6.28-6.14,17.47-8.84,35.29-4.86,53.62,4.08,18.78,13.59,33.62,32.05,41.28A50.09,50.09,0,0,0,515.84,441.1Z"/><path class="cls-1" d="M511.73,421.06c-1.71-2.19-1.75-4.93-2.34-7.46-4.89-20.91-1.62-41.23,4.55-61.32a1.45,1.45,0,0,0,.63-1.44v0c2.23-3.34,4.29-6.81,6.73-10,3.36-4.35,6.61-8.87,11.46-11.8.28-.09.83.14.63-.52l-.06.06c4.81.29,9.66-.05,14.44.92,24.92,5.09,38.38,26.66,32.53,52.32-2.44,10.69-7.09,20.4-13.56,30.14A147.36,147.36,0,0,0,564,393.83c-2-8.05-4.7-15.74-9.92-22.33C544,358.78,528.91,359,519.21,372c-6,8-8.19,17.23-8.87,27C509.82,406.38,510.86,413.71,511.73,421.06Z"/><path class="cls-4" d="M727.82,491.37c2.07-2.2,4.13-4.4,7.49-4.5,4.78-.15,8.35,2.81,8.59,8,.34,7.4.25,14.81.21,22.22,0,3.35-2.73,1.42-4.19,1.78-1.64.41-2.8,0-2.75-2.25.14-5.9.07-11.81,0-17.71,0-2.41.08-5.14-3.25-5.63-2.52-.37-4.83,1.91-5,5.51-.31,5.77-.42,11.57-.21,17.35.12,3.26-1.77,2.73-3.71,2.81s-3.49.16-3.38-2.75c.22-5.77.12-11.57,0-17.35-.06-2.33.23-5.19-3.25-5.58-2.64-.3-4.88,1.76-5.11,5.4-.36,5.76-.47,11.56-.26,17.34.11,3.08-1.44,2.94-3.57,3s-3.61,0-3.53-3c.24-8.21,0-16.43.15-24.65,0-1.35-1.38-3.83,1.78-3.83,2.24,0,5.21-1.06,4.66,3.23C720,485.3,722.83,485.44,727.82,491.37Z"/><path class="cls-4" d="M292.77,515.46c0,4.75-.17,8.88.05,13,.17,3.3-2.06,2.31-3.7,2.39s-3.39.54-3.35-2.42c.16-12.4,0-24.8.12-37.2,0-1.38-1.26-3.89,1.93-3.7,2.16.13,5.54-1.39,4.39,3.88,1.1-1,1.58-1.49,2.08-1.93,4.36-3.89,9.67-3.45,13.37,1.1,4.89,6,4.88,19.16,0,25.22C303.62,520.79,298.74,520.86,292.77,515.46Zm0-12.52c.09,2.66.23,5.33,1.83,7.61,2.38,3.38,6.69,3.31,8.33-.42a16.28,16.28,0,0,0,0-13.75c-1.87-4-6.49-4-8.75-.13A13.1,13.1,0,0,0,292.72,502.94Z"/><path class="cls-4" d="M564.68,490.57c0-4.51.17-8.57,0-12.61-.18-3.31,2.07-2.31,3.7-2.38s3.39-.59,3.35,2.36c-.15,12.39,0,24.79-.09,37.18,0,1.72,1,4.06-2.52,3.93-2.65-.1-4.66-.13-3.78-3.63-.38.05-.69,0-.78.12-5.4,6.87-13.45,4.64-16.61-3.14a25.83,25.83,0,0,1-.7-16.72C549.61,486.66,557.17,484.3,564.68,490.57ZM553.4,502.73a15.26,15.26,0,0,0,1,6.8c.92,2,2.29,3.46,4.72,3.44a4.69,4.69,0,0,0,4.47-3.27,17.71,17.71,0,0,0-.1-13.49,4.51,4.51,0,0,0-4.31-2.94,4.88,4.88,0,0,0-4.47,2.76C553.44,498.1,553.37,500.41,553.4,502.73Z"/><path class="cls-4" d="M660.72,505.27c-4.24,2.69-3.55,6.72-3.3,10.42.2,2.94-1,3.3-3.53,3.36-2.72.06-3.51-.67-3.47-3.46.16-12.28.19-24.57,0-36.85,0-3.12,1.31-3.19,3.67-3.26s3.45.42,3.35,3.18c-.23,6.24-.07,12.49-.07,19.75,1.89-2.52,3.25-4.29,4.57-6.08,3.86-5.26,3.85-5.27,11.72-4.57-2.44,3.19-4.6,6.25-7,9.09-1.35,1.58-1.36,2.85-.46,4.63,2.79,5.57,5.41,11.23,8.11,16.89-6.07,1.56-6.88,1.2-9.33-4.09Q662.84,509.78,660.72,505.27Z"/><path class="cls-4" d="M237.7,497.59a67.53,67.53,0,0,0,4.61-6.39c1.69-3,3.93-4.3,7.33-3.72a28.09,28.09,0,0,0,3.88,0,67,67,0,0,1-5.08,6.53c-3.26,3.27-3.87,6.36-1.23,10.49,2.4,3.77,3.89,8.12,5.93,12.14.92,1.82.64,2.17-1.43,2.38-3.59.38-5.78-.61-7-4.26-1.08-3.26-2.84-6.3-4.3-9.46-3.84,2.14-3.43,5.66-3.39,9.1.05,5,0,4.92-5,4.58-1.52-.1-1.95-.61-1.95-2.07q.06-19.62,0-39.26c0-3.44,2.48-1.83,4-2.07,1.66-.29,3.11-.27,3,2.32-.17,6.46-.05,12.92-.05,19.38Z"/><path class="cls-4" d="M430.34,508.49c1.69-6.23,3.37-12.47,5.09-18.69.52-1.89,5.78-3.42,7.18-2.11.64.61.14,1.29-.05,1.92q-5.35,17.55-10.74,35.11c-1.28,4.15-3.92,6.72-8.48,6.93-4.27.19-4.58-.14-4.94-4.43-.13-1.56-.34-2.49,1.91-2.43,4.38.1,6.72-3.4,5.39-7.73-2.76-8.93-5.52-17.87-8.43-26.76-.78-2.35-.25-2.76,2.13-2.89,3.28-.18,4.87.71,5.62,4.14,1.24,5.73,3.09,11.33,4.69,17Z"/><path class="cls-4" d="M462.22,516c-.83.65-1.43,1.19-2.1,1.65-3.2,2.21-6.61,2.8-10.09.82s-4.44-5.2-4.22-8.89c.23-3.92,2.07-6.83,6-8.08,2.52-.81,5.11-1.43,7.66-2.17,1.34-.38,2.68-.71,2.4-2.7s-1-3.05-2.94-3.29c-2.14-.26-4.28-.32-5.42,2-1.71,3.41-4.24,1-5.94.46-1.91-.59-.29-2.49.26-3.64,2.27-4.68,7.31-6.39,14.18-5,4.38.92,6.36,3.75,6.67,9.2.42,7.13-1,14.35,1.15,21.37.23.76-.09,1-.75,1.17A5.57,5.57,0,0,1,462.22,516Zm-.45-9.48c.83-2.66-.72-2.51-2.73-1.82-1.3.45-2.66.73-3.91,1.29-2.43,1.09-3,3.06-2,5.39s3.19,2.83,5.47,1.75C461.25,511.91,462,509.56,461.77,506.55Z"/><path class="cls-4" d="M592.93,516.06c-.55.45-1.06.91-1.61,1.32-3.22,2.42-6.71,3.18-10.36,1.19s-4.62-5.33-4.35-9.15a8.47,8.47,0,0,1,6.44-8.1c2.43-.73,4.91-1.32,7.35-2,1.22-.35,2.49-.65,2.24-2.46-.22-1.61-.65-3-2.43-3.36-2.35-.44-4.61-.57-6,2-1.74,3.13-4.18.7-6,.28-1.57-.37-.21-2.15.22-3.15,2.18-5,7.1-6.83,14.24-5.44,4.44.85,6.6,3.6,6.77,9.07.15,5.08.06,10.17.09,15.26a19.79,19.79,0,0,1,.14,2.76c-.2,1.57,2.4,3.52,0,4.57C596.77,520,594.35,518.74,592.93,516.06Zm-.56-11.92c-1.69.45-3.33.85-5,1.31-2.41.69-4.34,1.9-3.85,4.79.32,2,1.46,3.47,3.68,3.42a5,5,0,0,0,5.14-4.22A10.34,10.34,0,0,0,592.37,504.14Z"/><path class="cls-4" d="M414.09,518.84c-2.76-.32-6.27,1.94-7.5-2.9-2.48,2.2-5,3.82-8.2,3.73a8.36,8.36,0,0,1-8.15-7.17c-.91-4.74,1-9.05,5.07-10.65,2.78-1.09,5.75-1.71,8.63-2.55,1.25-.37,2.43-.72,2.2-2.51-.21-1.63-.72-3-2.48-3.31-2.34-.43-4.56-.55-6,2-1.72,3.05-4.19.7-6,.23-1.62-.41-.16-2.17.27-3.15,2.21-5,7.11-6.81,14.25-5.42,4.52.88,6.64,3.76,6.8,9.43.08,3,0,6,0,9,0,2.2-.09,4.41.09,6.59S413.71,516.5,414.09,518.84Zm-8-12.1c.6-2.54-.59-2.84-2.72-2-1.39.53-2.91.77-4.23,1.43-2.23,1.12-2.67,3.1-1.72,5.26s3,2.81,5.18,1.9C405.42,512.12,406.29,509.73,406.09,506.74Z"/><path class="cls-4" d="M271.64,505.67a54,54,0,0,1-5.55,0c-3-.31-3,1.16-2.29,3.3s2,4,4.43,4.39,3.44-1.05,4.59-2.88c1.82-2.9,4.4-.66,6.37-.15s.15,2.08-.28,3a10.36,10.36,0,0,1-9.92,6.34c-4.46.05-8.29-1.61-10.34-5.74a22.78,22.78,0,0,1,0-21,10.14,10.14,0,0,1,10.11-6c4.81.2,8,2.77,9.91,7,1.43,3.1,1.68,6.45,1.88,9.81.1,1.51-.44,2.09-1.95,2C276.27,505.61,274,505.67,271.64,505.67Zm-2.86-5.2c1.38-.32,3.77.9,4.57-.57s-.2-3.57-1.48-5a4.06,4.06,0,0,0-5.3-1.11,5.33,5.33,0,0,0-2.93,5.81c.44,2,2.77.45,4.18.9A4,4,0,0,0,268.78,500.47Z"/><path class="cls-4" d="M490.07,516c-.83.66-1.43,1.21-2.09,1.67-3.21,2.22-6.64,2.81-10.12.81s-4.47-5.22-4.22-8.91c.26-3.91,2.12-6.84,6-8.07,2.54-.81,5.12-1.45,7.69-2.16,1.4-.39,2.64-.84,2.32-2.77-.27-1.65-.89-2.9-2.67-3.16-2.25-.34-4.44-.43-5.74,2-1.73,3.24-4.23.83-6,.33s-.21-2.38.29-3.45c2.19-4.76,7.14-6.51,14.12-5.14,4.45.87,6.6,3.64,6.76,9.12.14,4.86,0,9.73.08,14.6,0,1.27.29,2.54.25,3.8,0,1.42,2.07,3.07.09,4.14C494.53,520.1,491.29,518.63,490.07,516Zm-.42-9.21c.49-2.29-.35-3-2.68-2.11-1.28.51-2.66.75-3.91,1.3a3.79,3.79,0,0,0-1.95,5.66c1.36,2.39,3.38,2.53,5.6,1.38C489.17,511.75,489.78,509.49,489.65,506.8Z"/><path class="cls-4" d="M330.28,505.67a27.6,27.6,0,0,0-4.17.05c-1.42.21-3.75-1.06-4.1,1a5.82,5.82,0,0,0,3.2,6.09c2,1.1,4.3.92,5.14-1.1,1.47-3.54,3.78-2.23,6.16-1.85,1.66.26,2.17.74,1.42,2.44-1.89,4.29-5,7-9.72,7.3-4.59.31-8.67-1.14-10.9-5.36a22.51,22.51,0,0,1-.07-21.67,10,10,0,0,1,10-5.71c4.67.22,7.79,2.65,9.76,6.71,1.55,3.2,1.78,6.67,2,10.16.09,1.64-.66,2-2.06,1.94C334.68,505.63,332.48,505.67,330.28,505.67Zm-3.44-5.21h3.81c.91,0,1.59-.15,1.37-1.36-.34-1.84-.77-3.65-2.34-4.87a4,4,0,0,0-5.13-.19,5.35,5.35,0,0,0-2.48,5.4c.44,2.06,2.69.61,4.07,1A2.35,2.35,0,0,0,326.84,500.46Z"/><path class="cls-4" d="M815.74,516c-.85.69-1.45,1.23-2.11,1.69-3.2,2.24-6.63,2.83-10.11.86s-4.45-5.21-4.23-8.89c.24-3.92,2-6.86,6-8.1,2.65-.84,5.34-1.52,8-2.29,1.13-.32,2.29-.62,2.07-2.24-.2-1.42-.41-2.91-2-3.35-2.42-.66-4.94-1-6.41,1.76-1.78,3.32-4.22.86-6,.38s-.28-2.38.23-3.47c2.23-4.76,7.14-6.49,14.13-5.13,4.44.86,6.42,3.61,6.77,9.11.44,7.13-1,14.37,1.16,21.41.21.68,0,1-.71,1.25A5.46,5.46,0,0,1,815.74,516Zm-.39-9.39c.09-2.64.08-2.65-2.6-1.89a35.54,35.54,0,0,0-4,1.25,3.87,3.87,0,0,0-2.13,5.65c1.14,2.21,3.57,2.72,5.92,1.32S815.26,509.05,815.35,506.57Z"/><path class="cls-4" d="M692.62,505.68c-2.72,0-4.92.06-7.11,0-1.64-.07-2,.62-1.65,2.09.57,2.5,1.52,4.71,4.21,5.45s3.89-1.13,5.36-3.16,4-.36,5.92.16c2.06.57.39,2.13,0,3a10.43,10.43,0,0,1-9.87,6.44c-4.76.07-8.68-1.78-10.74-6.25a23,23,0,0,1,0-20.12c2-4.17,5.36-6.58,10.23-6.41s8.14,2.82,10.09,7.21l.15.31c1.27,3.4,2.77,7.44,1.25,10.38C699.23,507.2,695,505.13,692.62,505.68Zm-3.92-5.21h1.73c3.84,0,4.5-1.2,2.48-4.63a5.89,5.89,0,0,0-1.59-1.78,4,4,0,0,0-5.11.17,5.32,5.32,0,0,0-2.18,5.49c.45,1.6,2.61.47,4,.74A3.17,3.17,0,0,0,688.7,500.47Z"/><path class="cls-4" d="M843.76,515.89c-1.08.83-1.85,1.51-2.7,2.05-3.17,2-6.53,2.45-9.83.5s-4.31-5.08-4.13-8.63c.19-3.73,1.76-6.77,5.49-8.09,2.72-1,5.56-1.59,8.32-2.42,1.19-.36,2.58-.58,2.29-2.42-.25-1.57-.66-3-2.45-3.39-2.35-.47-4.71-.6-6,2-1.66,3.24-4,.75-5.68.38-2.2-.47-.53-2.32-.08-3.36,2.16-4.94,7.26-6.76,14.34-5.31,4.41.9,6.35,3.7,6.64,9.21.36,7-1,14.14,1.11,21.06.24.78.13,1.51-.81,1.43C847.75,518.7,844.45,520.43,843.76,515.89Zm-.54-9.08c.12-2.92.12-2.93-2.69-2.12a33.06,33.06,0,0,0-3.95,1.27,3.84,3.84,0,0,0-2,5.7C836,514,838,514.2,840.22,513,842.72,511.69,843.18,509.34,843.22,506.81Z"/><path class="cls-4" d="M863.94,491.49a8.69,8.69,0,0,1,1.08-1.73,8.85,8.85,0,0,1,9.86-2.34c3.6,1.25,5.22,4.27,5.33,7.82.24,7.28.21,14.57.17,21.85,0,3.36-2.71,1.46-4.18,1.81s-2.82.12-2.78-2.21c.12-6.24.06-12.49-.12-18.73-.07-2.29-.93-4.44-3.72-4.65s-4.35,1.3-5.22,3.7a12.18,12.18,0,0,0-.58,3.05c-.13,1.38-.14,2.78-.14,4.16,0,3.82-.24,7.65.06,11.45.23,3-1,3.39-3.52,3.37s-3.63-.37-3.55-3.34c.24-8.2.1-16.42.08-24.63,0-1.95-.48-3.86,2.8-3.67,2.61.15,4.41.29,3.47,3.71Z"/><path class="cls-4" d="M612.41,492c2.35-2.6,4-4.22,6.35-4.82,5.15-1.32,9.79,1.36,10.63,6.64,1.24,7.81.54,15.73.41,23.59,0,3-3.09,1.12-4.72,1.54s-2.13-.56-2.11-2.16c.07-5.1,0-10.2,0-15.3a19.9,19.9,0,0,0-.08-2.44c-.32-2.68-.5-5.55-4.19-5.73-2.82-.13-5.14,2.17-5.31,5.75-.27,5.55-.41,11.13-.16,16.68.14,3.08-1.2,3.23-3.63,3.32-2.72.1-3.53-.67-3.47-3.45.2-8.11,0-16.22.11-24.34,0-1.55-1.11-3.88,2.26-3.81C611.13,487.49,613.49,487.26,612.41,492Z"/><path class="cls-4" d="M510.06,491.31c1.91-2.13,3.89-4,6.83-4.36,5-.59,8.85,1.94,9.57,6.88,1.14,7.82.49,15.73.39,23.6,0,2.94-2.91,1.09-4.44,1.48-1.35.34-2.44.06-2.4-1.88.1-5.09.06-10.19,0-15.29a30.74,30.74,0,0,0-.3-4.5c-.3-1.93-1.12-3.6-3.33-3.91s-4,.82-5.16,2.78a9.92,9.92,0,0,0-1,5.06c0,5-.27,10,0,14.94.17,3.19-1.63,2.84-3.65,2.88s-3.47.15-3.4-2.76c.2-8.57.11-17.14,0-25.72,0-2,.11-3.3,2.72-3.07,2.12.19,4.4-.34,3.71,3.07C509.66,490.66,509.84,490.86,510.06,491.31Z"/><path class="cls-4" d="M369.65,503.08c.14,2.08.05,4.17.87,6.15s2.3,3.51,4.65,3.57,3.89-1.35,4.49-3.59c1.15-4.29,3.93-1.36,5.81-1.14,2.66.3,1,2.32.64,3.44-1.69,5.18-5.25,7.87-10.46,8.16a11.25,11.25,0,0,1-11.31-7.07,23.36,23.36,0,0,1,.06-18.89c2.14-5,6.48-7.23,12.1-6.79,4.78.38,7.94,3.06,9.59,7.78.56,1.61.35,2.28-1.35,2.6-2.49.48-4.66,1.66-6.21-2.1-1.29-3.13-6.11-2.28-7.83,1.09C369.6,498.42,369.73,500.77,369.65,503.08Z"/><path class="cls-4" d="M772.09,476.57c0,3,.09,5.52,0,8-.09,1.87.12,3.18,2.51,2.92,3.38-.37,2,2.26,2.21,3.78.26,1.77.11,3.28-2.39,2.88-1.41-.23-2.4,0-2.34,1.93.13,4.5,0,9,.1,13.53,0,1.7.33,3.46,2.74,2.87,1.23-.3,2.15-.38,2,1.2-.16,1.75,1.76,4.12-.88,5.18-5,2-10.53.31-10.63-5.75q-.13-8.14-.28-16.29c0-1.34.39-2.74-1.91-2.77-2.1,0-1.11-2-1.06-3,.07-1.23-1.19-3.24,1.29-3.57,1.07-.15,1.91-.38,1.65-1.6C763.91,480.38,768.46,479.2,772.09,476.57Z"/><path class="cls-4" d="M788,490.82c2-3.13,4.3-4.65,7.77-3.64,1.72.5,2.64,1.39,1.81,3.25-.92,2.08-.27,5.9-4.81,4-1.4-.59-2.84.87-3.34,2.42a17,17,0,0,0-.89,4.39c-.22,4.5-.31,9-.38,13.52,0,4.17-1.49,5.23-5.63,4.25-1.34-.32-1.23-1.15-1.23-2.06,0-9.14,0-18.28,0-27.42,0-2.24,1.3-2,2.71-2C785.93,487.56,788.61,486.7,788,490.82Z"/><path class="cls-4" d="M350.83,490.88c2.24-2.83,4.22-4.7,7.46-3.81,1.91.53,3.29,1.21,2.14,3.59a14.77,14.77,0,0,0-.89,3c-.26,1.13-.43,1.74-2,1.23-3.42-1.1-5,0-5.74,3.79-1.09,5.51-.77,11.11-.54,16.64.14,3.3-1,3.74-3.91,3.76s-3.23-.91-3.18-3.4c.15-8.11,0-16.23.12-24.34,0-1.29-1.3-3.73,1.46-3.72C347.73,487.61,351.1,485.68,350.83,490.88Z"/><path class="cls-4" d="M757.92,503.5c0,4.4-.14,8.8.05,13.18.14,3.07-1.92,2.29-3.45,2.23s-3.62,1.06-3.58-2.1c.12-9,.14-18,0-27-.05-3.4,2.27-2.07,3.8-2.23,1.72-.18,3.42-.45,3.25,2.45C757.74,494.48,757.93,499,757.92,503.5Z"/><path class="cls-4" d="M757.85,479.5c.58,2.81-.21,3.85-3.44,3.93-3.54.1-3.43-1.52-3.5-4-.08-2.72.24-4,3.59-4S758.3,476.86,757.85,479.5Z"/><path class="cls-5" d="M532.75,329.08c-4.85,2.93-8.1,7.45-11.46,11.8-2.44,3.17-4.5,6.64-6.73,10,0-3.89,1.73-7.36,2.77-11,3.13-10.94,6.37-21.85,9.57-32.77,6.59-3.86,13.41-6.69,21.34-5.1a29.55,29.55,0,0,1,12,5.84c2.13,1.61,1.75,2.4-.47,3.45a127.16,127.16,0,0,0-23.29,14.28c-1.16.91-2.54,1.61-3.19,3.05l.06-.06Z"/><path class="cls-5" d="M514.57,350.84a1.45,1.45,0,0,1-.63,1.44A1.21,1.21,0,0,1,514.57,350.84Z"/></svg>