<svg id="Layer_1" data-name="Layer 1" xmlns="http://www.w3.org/2000/svg" xmlns:xlink="http://www.w3.org/1999/xlink" viewBox="0 0 1106.13 743.43"><defs><style>.cls-1{fill:#fff;}.cls-2{fill:#019966;}.cls-3{fill:#8d8201;}.cls-4{fill:url(#linear-gradient);}.cls-5{fill:url(#linear-gradient-2);}.cls-6{fill:url(#linear-gradient-3);}.cls-7{fill:url(#linear-gradient-4);}.cls-8{fill:url(#linear-gradient-5);}.cls-9{fill:url(#linear-gradient-6);}.cls-10{fill:url(#linear-gradient-7);}.cls-11{fill:url(#linear-gradient-8);}.cls-12{fill:url(#linear-gradient-9);}.cls-13{fill:url(#linear-gradient-10);}.cls-14{fill:url(#linear-gradient-11);}</style><linearGradient id="linear-gradient" x1="74.9" y1="361.55" x2="142.73" y2="361.55" gradientUnits="userSpaceOnUse"><stop offset="0" stop-color="#857425"/><stop offset="0.06" stop-color="#9f8e22"/><stop offset="0.15" stop-color="#b8a920"/><stop offset="0.23" stop-color="#ccbd1e"/><stop offset="0.34" stop-color="#dacc1c"/><stop offset="0.46" stop-color="#e2d41b"/><stop offset="0.65" stop-color="#e5d71b"/><stop offset="0.76" stop-color="#e3d51b"/><stop offset="0.82" stop-color="#dbcc1c"/><stop offset="0.87" stop-color="#cdbe1d"/><stop offset="0.91" stop-color="#baab1f"/><stop offset="0.95" stop-color="#a19122"/><stop offset="0.98" stop-color="#857425"/></linearGradient><linearGradient id="linear-gradient-2" x1="74.9" y1="399.39" x2="142.72" y2="399.39" xlink:href="#linear-gradient"/><linearGradient id="linear-gradient-3" x1="107.48" y1="361.58" x2="74.57" y2="394.49" xlink:href="#linear-gradient"/><linearGradient id="linear-gradient-4" x1="142.85" y1="363.86" x2="178.93" y2="399.95" xlink:href="#linear-gradient"/><linearGradient id="linear-gradient-5" x1="107.84" y1="399.34" x2="115.46" y2="399.34" xlink:href="#linear-gradient"/><linearGradient id="linear-gradient-6" x1="104.9" y1="343.55" x2="122.25" y2="360.89" xlink:href="#linear-gradient"/><linearGradient id="linear-gradient-7" x1="83" y1="337.62" x2="110.97" y2="337.62" xlink:href="#linear-gradient"/><linearGradient id="linear-gradient-8" x1="144.17" y1="373.77" x2="158.63" y2="373.77" xlink:href="#linear-gradient"/><linearGradient id="linear-gradient-9" x1="162.54" y1="377.42" x2="137.49" y2="308.59" xlink:href="#linear-gradient"/><linearGradient id="linear-gradient-10" x1="153.65" y1="388.7" x2="199.06" y2="388.7" xlink:href="#linear-gradient"/><linearGradient id="linear-gradient-11" x1="145.86" y1="344.18" x2="184.22" y2="344.18" xlink:href="#linear-gradient"/></defs><title>bank-bpd-bali</title><circle class="cls-1" cx="140.08" cy="371.71" r="92.94" transform="translate(-240.63 485.09) rotate(-85.93)"/><path d="M75.63,438.18c2-1.55,3.86-3.35,5.81-5l1.09-.95c.19.6.35,1.1.5,1.6a9.81,9.81,0,0,0,6.14,6.6c1.3.5,2.59,1,3.91,1.44a21.63,21.63,0,0,1,12.61,10.35c.27.49.49.7,1.12.52a23.86,23.86,0,0,1,17,1.62,50.11,50.11,0,0,0,5.4,2.27,8.38,8.38,0,0,0,7.82-1.15c.49-.35,1-.71,1.64-1.21.05,3.4.1,6.65.15,9.9,0,.52-.12.83-.8.79-3.35-.18-6.68-.32-10-.73a87.49,87.49,0,0,1-20.67-5.12,96.41,96.41,0,0,1-28.13-16.87c-1.16-1-2.29-2-3.45-3C75.31,438.88,75.25,438.57,75.63,438.18Z"/><path d="M73.18,307.46l6.43,7c-.54.17-1,.34-1.43.47a10,10,0,0,0-6.91,6.39c-.51,1.35-1,2.71-1.48,4.08a21.09,21.09,0,0,1-10,12.05,1.07,1.07,0,0,0-.62,1.48,23.09,23.09,0,0,1-1.48,16.41c-.69,1.5-1.36,3-2,4.56a8.56,8.56,0,0,0,1.43,9.41l.73.91-10.55.2c-.4-.24-.26-.63-.25-1A86.11,86.11,0,0,1,57.92,327.9a111.24,111.24,0,0,1,6-9.41c1.42-2,2.91-4,4.51-6,1.27-1.54,2.58-3,4-4.48C72.58,307.8,72.76,307.45,73.18,307.46Z"/><path d="M47.31,373.59l9.6.56c-.27.52-.5,1-.75,1.44a9.72,9.72,0,0,0-.37,9c.6,1.36,1.22,2.71,1.89,4a21.08,21.08,0,0,1,1.49,15.84c-.17.62-.12.93.48,1.26A23.24,23.24,0,0,1,70.4,418.39c.48,1.28,1,2.55,1.5,3.84,1.53,4.21,4.48,6.51,9.27,6.58L74,436.23c-.57.47-.83-.08-1.11-.37a88.21,88.21,0,0,1-24.43-48.48c-.71-4.33-1.07-8.68-1.4-13C47.05,374.07,47,373.77,47.31,373.59Z"/><path d="M233.43,370.27l-9.69-.54c.32-.59.59-1.08.84-1.57a9.73,9.73,0,0,0,.33-8.79c-.63-1.42-1.28-2.83-2-4.23a21,21,0,0,1-1.39-15.66c.16-.58.18-.94-.45-1.28a23.3,23.3,0,0,1-10.82-12.92c-.53-1.42-1.13-2.82-1.68-4.23a8.76,8.76,0,0,0-7.73-6l-1.05-.13c0-.37.27-.49.45-.68,2.1-2.12,4.23-4.22,6.31-6.36.47-.48.71-.51,1.21,0a94.78,94.78,0,0,1,10.85,13.37c.18.26.23.66.65.72l0,0a5.51,5.51,0,0,0,1.09,1.93h0L221,325l0,0c0,.12,0,.27.23.23l0,0a.4.4,0,0,0,.22.48,65.57,65.57,0,0,1,3.79,7.3,84.42,84.42,0,0,1,4,10.7c.11.32.48.55.34.94s.08.54.24.77v0a8.35,8.35,0,0,0,.27,1.32c.48,1.28.49,2.7,1.17,3.92a14.15,14.15,0,0,0,.66,3.95,18.61,18.61,0,0,1,.37,2.94A86.06,86.06,0,0,1,233.43,370.27Z"/><path d="M206.8,435.62l-6-6.64c.41-.13.73-.25,1-.34a10.08,10.08,0,0,0,7.24-6.6c.49-1.36,1-2.71,1.47-4.08A21,21,0,0,1,220.46,406a1.25,1.25,0,0,0,.69-1.74,23.06,23.06,0,0,1,1.56-16.4c.78-1.7,1.52-3.42,2.16-5.18a8.1,8.1,0,0,0-1.3-8.1l-1.12-1.42L232.9,373c.35.21.25.56.25.86a78.63,78.63,0,0,1-1.36,15.47,86.28,86.28,0,0,1-8.71,25A101.56,101.56,0,0,1,209.39,434c-.47.53-1,1-1.4,1.6S207.2,436,206.8,435.62Z"/><path d="M141.76,289.44c0-3.49,0-6.77,0-10.05,0-.66.36-.62.82-.61A90,90,0,0,1,175,285.5a100.26,100.26,0,0,1,29.61,19.27c.29.26.65.44.13.88-2.27,1.94-4.51,3.91-6.76,5.87a1.49,1.49,0,0,1-.34.05c-.81-5.23-4.45-7.69-9.18-9.15a23.15,23.15,0,0,1-9-4.76,23.88,23.88,0,0,1-4.79-6.08c-.26-.46-.5-.67-1.07-.51a24,24,0,0,1-17.16-1.74A40.12,40.12,0,0,0,150.8,287a8.16,8.16,0,0,0-7.05,1.06C143.13,288.44,142.54,288.89,141.76,289.44Z"/><path d="M82.29,312.84l-7.37-6.95c-.53-.49,0-.67.25-.89a89.32,89.32,0,0,1,49.4-25.16,119.55,119.55,0,0,1,12.23-1.42c.7-.05.9.12.86.84-.13,2.68-.22,5.37-.29,8.05,0,.67-.15.82-.77.45a10.67,10.67,0,0,0-10.9-.15,37.31,37.31,0,0,1-8.25,3.45,22.59,22.59,0,0,1-10.81-.29c-.55-.14-.79-.09-1.07.43a23.64,23.64,0,0,1-12.93,11c-1.69.65-3.37,1.35-5,2.1a8.29,8.29,0,0,0-5.07,7.3c0,.31-.08.63-.13.94A1.15,1.15,0,0,1,82.29,312.84Z"/><path d="M205,437.5l-7.45-6.91c0,.3-.06.47-.07.64a8.93,8.93,0,0,1-6.12,8.39c-1.45.57-2.89,1.18-4.35,1.74a23.13,23.13,0,0,0-12.34,10.3,1.48,1.48,0,0,1-2,.88,20.71,20.71,0,0,0-14.48,1.31c-1.61.76-3.2,1.54-4.82,2.29a10.22,10.22,0,0,1-9.55-.28,2.18,2.18,0,0,0-1.22-.49q-.2,4.25-.4,8.47c-.15,1,.31,1.17,1.21,1.11q5.61-.39,11.15-1.26a91.85,91.85,0,0,0,32.09-11.2,89,89,0,0,0,18.07-13.86C205,438.31,205.48,438,205,437.5Z"/><path d="M140.08,234.82c-75.48,0-136.9,61.41-136.9,136.89s61.42,136.9,136.9,136.9S277,447.2,277,371.71,215.57,234.82,140.08,234.82Zm0,268.72A131.83,131.83,0,1,1,271.91,371.71,131.83,131.83,0,0,1,140.08,503.54Z"/><path class="cls-2" d="M140.08,239.88A131.83,131.83,0,1,0,271.91,371.71,131.83,131.83,0,0,0,140.08,239.88Zm0,224.77A92.94,92.94,0,1,1,233,371.71,92.94,92.94,0,0,1,140.08,464.65Z"/><path d="M243.88,366.77a31.73,31.73,0,0,1,5.32,1.14c.33.08.76.38,1,0s-.35-.63-.66-.8a43.72,43.72,0,0,1-3.92-2.4,4.06,4.06,0,0,1-1.7-2.12,1.44,1.44,0,0,1,.41-1.56,1.35,1.35,0,0,1,1.49-.28c1.44.55,2.16,1.8,2.95,3,.57.86,1.05,1.78,1.58,2.66.18.28.27.79.75.58s.08-.56,0-.84c-.38-1.91-1.14-3.75-1.1-5.75a2.35,2.35,0,0,1,.7-1.83,1.36,1.36,0,0,1,2.3.38,3.78,3.78,0,0,1,.32,2.7c-.34,1.49-.7,3-1.05,4.46-.07.27-.29.59.11.73s.48-.22.61-.46c.53-1,1.05-2,1.56-3.05a8.32,8.32,0,0,1,1.91-2.42,1.93,1.93,0,0,1,2.37-.21,1.77,1.77,0,0,1,.11,2.19,7.18,7.18,0,0,1-2.51,2.42c-.9.64-1.85,1.21-2.76,1.83-.22.15-.54.33-.4.67s.49.31.83.22c1.27-.35,2.55-.65,3.81-1a7.23,7.23,0,0,1,2.45-.17,1.94,1.94,0,0,1,1.88,1.57c0,.75-.68,1.45-1.69,1.64-1.89.36-3.65-.35-5.45-.7-.38-.08-.75-.21-1.13-.32a.44.44,0,0,0-.61.25c-.16.34.1.43.3.56L257,371.9a8.92,8.92,0,0,1,1.75,1.55,1.92,1.92,0,0,1,.23,2.63,1.94,1.94,0,0,1-2.53-.25,11.3,11.3,0,0,1-2.22-3c-.4-.71-.8-1.43-1.21-2.14-.13-.23-.22-.59-.61-.42s-.18.47-.12.75a24.29,24.29,0,0,1,.92,5.56,2.3,2.3,0,0,1-.49,1.49c-.37.44-.79,1-1.4.84a1.94,1.94,0,0,1-1.31-1.3,5.14,5.14,0,0,1,.1-3.15c.26-1.18.64-2.34.94-3.51.07-.26.38-.62-.12-.81s-.45.27-.59.47a25.52,25.52,0,0,1-3.22,4.51c-1.11,1.05-2.32,1.32-3,.61s-.36-2,.72-3a24.69,24.69,0,0,1,4.43-2.76c.18-.11.37-.2.56-.31s.5-.24.34-.55-.37-.06-.57,0c-1.45.33-2.91.66-4.36,1a5.91,5.91,0,0,1-1.92.07c-1-.09-1.94-.93-1.9-1.72.06-1,.88-1.31,1.66-1.59A3.34,3.34,0,0,1,243.88,366.77Z"/><path d="M28.94,360.61a22.78,22.78,0,0,1-1,4.9c-.07.33-.32.79.07.95s.5-.39.67-.66c1-1.59,1.55-3.46,2.93-4.83,1-1,2.19-1.25,2.85-.64s.55,1.86-.45,2.95a27.22,27.22,0,0,1-4.61,3.46c-.26.18-.74.24-.53.76s.62.2.9.13c1.66-.43,3.3-.92,5-1.2a3.4,3.4,0,0,1,1.88.21,1.68,1.68,0,0,1,1.23,1.6,1.63,1.63,0,0,1-1.33,1.38,8,8,0,0,1-3.91-.16c-1-.23-1.93-.5-2.9-.72-.25-.06-.6-.18-.75.17s.21.48.42.63A33.5,33.5,0,0,1,34,372.72a2.65,2.65,0,0,1,1,1.93,1.38,1.38,0,0,1-2.1,1.35,5.32,5.32,0,0,1-2.31-2.31c-.61-1.05-1.2-2.11-1.8-3.16-.16-.27-.27-.67-.69-.5s-.22.57-.15.85c.35,1.38.67,2.77.89,4.17a4.53,4.53,0,0,1-.09,2c-.26,1-1,1.7-1.78,1.51a1.89,1.89,0,0,1-1.42-1.79,9.53,9.53,0,0,1,.53-3.78c.24-.82.48-1.64.71-2.47a.49.49,0,0,0-.22-.65c-.35-.16-.4.2-.52.38-1.15,1.76-2.07,3.67-3.76,5-1.2,1-2.67.64-2.88-.64A2,2,0,0,1,20,373c1.3-1.55,3.15-2.29,4.84-3.28.36-.22,1.15-.35,1-.79-.24-.6-.9-.06-1.32.05-1.41.34-2.82.71-4.27.93a3.15,3.15,0,0,1-2.44-.52,1.41,1.41,0,0,1-.77-1.32,1.62,1.62,0,0,1,1.15-1.3,6.87,6.87,0,0,1,3.89.12c.93.22,1.85.52,2.79.74.34.09.8.49,1,0s-.36-.6-.66-.78c-1.27-.8-2.57-1.55-3.83-2.35a4.25,4.25,0,0,1-1.56-1.59c-.41-.77-.6-1.6.15-2.25a1.68,1.68,0,0,1,2.25.2,9.77,9.77,0,0,1,2.48,3c.42.75.85,1.49,1.31,2.21.15.25.24.73.65.53s.17-.59.1-.89c-.26-1.14-.53-2.28-.85-3.41a8,8,0,0,1-.19-2.66,2,2,0,0,1,1.67-1.93,1.89,1.89,0,0,1,1.55,1.89C29,360,28.94,360.28,28.94,360.61Z"/><path d="M62.57,298.27a4.93,4.93,0,0,0-3.8-1.22,5.84,5.84,0,0,0-2.26.79,5.23,5.23,0,0,0,.06-2.22A4.87,4.87,0,0,0,55,292.9a5.09,5.09,0,0,0-3.42-1.27h0a6.7,6.7,0,0,0-3.89,1.4,17.47,17.47,0,0,0-2.9,2.77l-6,6.89,1.09.95.79-.91a1.69,1.69,0,0,1,1.28-.71c.16,0,.61.1,1.77,1.11l9.81,8.53c1.06.92,1.27,1.35,1.3,1.49a1.59,1.59,0,0,1-.48,1.48l-.79.91,1.09.94L61.13,309a15.4,15.4,0,0,0,2.92-4.36,5.89,5.89,0,0,0,.2-3.54A5.36,5.36,0,0,0,62.57,298.27Zm-10.3-2.43a3.55,3.55,0,0,1,1.08,1.62,3,3,0,0,1,0,1.92,8.2,8.2,0,0,1-1.69,2.6c-.36.42-.71.79-1,1.11s-.42.41-.61.58l-5.29-4.6A10.61,10.61,0,0,1,46,297.24a5.81,5.81,0,0,1,3.41-2.19A3.39,3.39,0,0,1,52.27,295.84Zm5,14.15-5.66-4.93c.1-.15.23-.31.37-.5s.6-.73,1-1.19a8.55,8.55,0,0,1,2.65-2.16A3.89,3.89,0,0,1,58,300.8a4,4,0,0,1,1.91.9,3.37,3.37,0,0,1,1.18,2.68A5.74,5.74,0,0,1,59.44,308,14.42,14.42,0,0,1,57.27,310Z"/><path d="M85.43,286.05a2.73,2.73,0,0,1-1.66.54h0a7,7,0,0,1-2.6-1.13l-15.86-9.41-.89.66,4.29,17.8a8.81,8.81,0,0,1,.38,3.14c0,.11-.14.45-.85,1.2l-.25.28.82,1.1,5.79-4.31-.85-1.14-.35.23a3.49,3.49,0,0,1-1.53.69.55.55,0,0,1-.49-.21,4.36,4.36,0,0,1-.56-1.54l-.74-3.07,5.77-4.29L78.29,288a5.64,5.64,0,0,1,1.58,1.19.59.59,0,0,1,.08.54c0,.14-.2.47-.91,1.05l-.33.27.85,1.14L86.63,287l-.84-1.14Zm-15.86,2.72-1.65-6.92,6.1,3.61Z"/><path d="M100.86,273.26l0,.37a9.62,9.62,0,0,1-.24,3,3.74,3.74,0,0,1-.93,1.62A10.28,10.28,0,0,1,97,279.82l-1.34.61a10.13,10.13,0,0,1-2,.79.61.61,0,0,1-.4-.1,3.54,3.54,0,0,1-.79-1.27l-5.28-11.49a6.16,6.16,0,0,1-.69-2,1.37,1.37,0,0,1,.37-.81,5,5,0,0,1,1.75-1.09l.42-.18L88.48,263l-9.07,4.17.6,1.31,1.09-.5a1.77,1.77,0,0,1,1.47-.12c.09.05.47.3,1.14,1.75l5.42,11.8a4.22,4.22,0,0,1,.6,1.87,1.62,1.62,0,0,1-1.06,1.18l-1.09.5.6,1.31L103,279.45l-.83-6.49Z"/><path d="M114.66,274.53a2.21,2.21,0,0,1-1.17,0,.89.89,0,0,1-.52-.28,5.9,5.9,0,0,1-.66-1.74L108.79,260c-.42-1.48-.32-1.92-.28-2a1.71,1.71,0,0,1,1.23-.93l1.13-.32-.39-1.39L101.34,258l.39,1.39,1.11-.32a2.48,2.48,0,0,1,1.18,0,.9.9,0,0,1,.51.29,5.9,5.9,0,0,1,.66,1.74l3.52,12.51a4.2,4.2,0,0,1,.3,2,1.73,1.73,0,0,1-1.25.93l-1.11.31.39,1.39,9.14-2.57-.39-1.39Z"/><path d="M155,253.87a18.25,18.25,0,0,0-6.92-1.64l-8.59-.71-.12,1.44,1.2.1a1.72,1.72,0,0,1,1.33.61c.07.09.27.5.13,2.08l-1.06,13a4,4,0,0,1-.42,1.93,1.57,1.57,0,0,1-1.47.49l-1.2-.1-.12,1.44,9.39.77c.56.05,1.1.07,1.62.07a10.8,10.8,0,0,0,7.66-2.61,10.5,10.5,0,0,0,3.25-7.07,11,11,0,0,0-1-5.86A8.59,8.59,0,0,0,155,253.87Zm-9.1.54a11.89,11.89,0,0,1,2.6-.12,7.17,7.17,0,0,1,5.29,2.71,10.18,10.18,0,0,1-1,12.48,7,7,0,0,1-5.54,1.83,14.26,14.26,0,0,1-2.67-.55Z"/><path d="M192.17,265.55a2.39,2.39,0,0,1,1-.59,2.22,2.22,0,0,1,1.06.14l.43.15.48-1.36-6.51-2.29-.48,1.36.43.15a4,4,0,0,1,1.18.61.7.7,0,0,1,.22.35.68.68,0,0,1,0,.4,9,9,0,0,1-1.39,2.06l-6.49,8.18V264.4a9.17,9.17,0,0,1,.22-2.57.86.86,0,0,1,.44-.52,1.4,1.4,0,0,1,.94.08l.93.33.47-1.36-8.21-2.9-.48,1.36.42.15a3,3,0,0,1,.69.32,2.35,2.35,0,0,1,.47.51,1.15,1.15,0,0,1,.22.46,6.94,6.94,0,0,1,.21,1.35v3.07L173,271.5l0-10.68a9.4,9.4,0,0,1,.15-2.32.64.64,0,0,1,.42-.41,1.38,1.38,0,0,1,.94.07l.76.26.48-1.36-7.86-2.76-.48,1.36.42.15a2.45,2.45,0,0,1,1,.59,1.46,1.46,0,0,1,.38.82c0,.16.05.69.05,2.31l.08,18.06,1.1.39,8-9.89,0,12.71,1.16.4,10.87-13.69A15.62,15.62,0,0,1,192.17,265.55Z"/><path d="M196.4,287.56a1,1,0,0,1-.15-.57,6.18,6.18,0,0,1,.82-1.67l6.69-11.15c.79-1.32,1.17-1.54,1.27-1.58a1.7,1.7,0,0,1,1.52.26l1,.61.75-1.24-8.15-4.89-.74,1.24,1,.6a2.28,2.28,0,0,1,.83.83,1,1,0,0,1,.14.57,6,6,0,0,1-.82,1.68l-6.69,11.14c-.79,1.33-1.17,1.56-1.26,1.6a1.7,1.7,0,0,1-1.53-.28l-1-.59-.74,1.23,8.14,4.89.74-1.23-1-.61A2.28,2.28,0,0,1,196.4,287.56Z"/><path d="M217.42,292.25h0a5.75,5.75,0,0,0,4.11-2.23,5.29,5.29,0,0,0,1.26-3.38,6.37,6.37,0,0,0-.89-3.35,13.48,13.48,0,0,0-3-3.24l-6-5-.91,1.12.92.76a1.72,1.72,0,0,1,.75,1.26c0,.11-.06.54-1.08,1.78l-8.25,10.05c-.94,1.14-1.32,1.33-1.41,1.36a1.58,1.58,0,0,1-1.51-.44l-.93-.76-.92,1.11,7.34,6,.92-1.11-.94-.77a1.69,1.69,0,0,1-.74-1.26c0-.11.06-.55,1.07-1.79l3.38-4.1c.29.35.59.68.87,1a13.4,13.4,0,0,0,1.19,1.12A6.89,6.89,0,0,0,217.42,292.25Zm-.93-11.19a7.26,7.26,0,0,1,1.27.8,4,4,0,0,1,1.23,1.65,3.2,3.2,0,0,1,.09,2,5,5,0,0,1-1,2,3.9,3.9,0,0,1-2.54,1.53,3.1,3.1,0,0,1-2.47-.67,8.37,8.37,0,0,1-.72-.68c-.2-.22-.43-.47-.67-.75Z"/><path d="M235.67,295.85l-.73-.84-17.45,5.5a8.7,8.7,0,0,1-3.11.59c-.11,0-.46-.1-1.26-.76l-.29-.24-1,.9,4.7,5.48,1.07-.92-.25-.34a3.46,3.46,0,0,1-.8-1.48.57.57,0,0,1,.18-.5,4.5,4.5,0,0,1,1.5-.67l3-.94,4.67,5.45-1.27,2.54a5.6,5.6,0,0,1-1.08,1.66.6.6,0,0,1-.53.12c-.15,0-.48-.18-1.12-.84l-.29-.31-1.08.92,5.74,6.7,1.08-.92-.26-.34a2.66,2.66,0,0,1-.64-1.62,7,7,0,0,1,.94-2.67Zm-5.61,3-3.18,6.34L223.27,301Z"/><path d="M67.74,446.59l.72.78a1.91,1.91,0,0,1,.45.84.7.7,0,0,1,0,.46,4.84,4.84,0,0,1-1,1.14l-8.51,7.92a2.21,2.21,0,0,1-1,.67.48.48,0,0,1-.35,0c-.06-.07,0-.26.08-.51a4,4,0,0,0,.51-1.76,1.53,1.53,0,0,0-.42-1,1.8,1.8,0,0,0-1.25-.58,1.73,1.73,0,0,0-1.21.52,2.14,2.14,0,0,0-.66,1.75,3.22,3.22,0,0,0,.95,2.05,4.18,4.18,0,0,0,2.62,1.35,4.87,4.87,0,0,0,.66,0,5.07,5.07,0,0,0,2.08-.43A10,10,0,0,0,64,457.9l6.09-5.67c1-.89,1.3-1,1.35-1a1.41,1.41,0,0,1,1.12.56l.72.77,1-.92-5.58-6Z"/><path d="M114.6,491.42a5.87,5.87,0,0,1-.52-2.3l-1.51-15.57-1-.31-10,11.84a6.77,6.77,0,0,1-1.93,1.8,2.31,2.31,0,0,1-1.21,0l-.37,0-.38,1.23,6,1.85.39-1.27-.39-.15a3,3,0,0,1-1.21-.67.43.43,0,0,1-.09-.38,3.71,3.71,0,0,1,.76-1.13l1.7-2,5.73,1.77.23,2.35a4.33,4.33,0,0,1,0,1.63.41.41,0,0,1-.28.29,2.21,2.21,0,0,1-1.14-.1l-.41-.11-.4,1.28,7.27,2.24.39-1.27-.39-.15A2.17,2.17,0,0,1,114.6,491.42Zm-4.24-7.28-4.3-1.32,3.74-4.38Z"/><path d="M165,474.72l.32,1.32.44-.1a2.28,2.28,0,0,1,.83-.09.89.89,0,0,1,.39.19.69.69,0,0,1,.2.34,3.37,3.37,0,0,1-.31,1.64l-1.78,5.23-4.24-4c-.88-.84-1-1.14-1-1.19a.45.45,0,0,1,.16-.49,1.71,1.71,0,0,1,.79-.41l.8-.2-.32-1.32-7.94,1.93.32,1.32.43-.1a1.3,1.3,0,0,1,.54,0,4,4,0,0,1,1.22.38,15.15,15.15,0,0,1,1.4,1.21l6.12,5.73.92,3.78a3.36,3.36,0,0,1,.18,1.58,1.29,1.29,0,0,1-1,.72l-1,.25.32,1.32,7.89-1.92-.32-1.32-1,.24a1.58,1.58,0,0,1-1.23-.09c-.05,0-.31-.27-.62-1.56l-1-4L169,477.9a10.69,10.69,0,0,1,.78-1.92,3.4,3.4,0,0,1,.8-1,2.17,2.17,0,0,1,.69-.42l.75-.18-.32-1.32Z"/><path d="M224.71,456.19l-.32.28a2.3,2.3,0,0,1-1.29.62,6,6,0,0,1-2.28-.64l-14.4-6.08-.74.72,5.63,14.46a7.14,7.14,0,0,1,.67,2.57,2.55,2.55,0,0,1-.56,1.06l-.22.31.9.92,4.46-4.37-.92-1-.32.27c-.78.65-1.09.73-1.17.74a.43.43,0,0,1-.38-.1,3.78,3.78,0,0,1-.63-1.21l-.95-2.45,4.29-4.19,2.17.91a4.87,4.87,0,0,1,1.43.8.41.41,0,0,1,.11.39c0,.09-.09.37-.63.95l-.29.31.94.95,5.43-5.32Zm-10,1.17-3.21,3.14-2.07-5.37Z"/><path class="cls-3" d="M86.63,389.28a14.47,14.47,0,0,0-2.1,0c-2.32.35-3.77,2.18-3.94,4.83a19.2,19.2,0,0,0,2.63,10.26A31.86,31.86,0,0,0,100,419.76a29.67,29.67,0,0,0,14.43,1.59,42,42,0,0,0,11.66-2.66c8.46-3.54,13.18-9.94,13.59-19,.3-6.6-1.7-12.68-6.75-17.33-6.63-6.09-18.5-5.29-24,1.56-1.43,1.78-1.9,3.15-2.19,6.35-5.06-2.8-8.34-8.89-2.54-14.23a13.82,13.82,0,0,1,1.45-1.18,32.08,32.08,0,0,1,12.07-5.05,26.43,26.43,0,0,0,9.5-3.63,15.56,15.56,0,0,0,5.94-7c2-5.13.13-9.84-5-12a1.58,1.58,0,0,1-1.14-1.8c.09-3.84.1-7.68.09-11.52,0-.74.19-.93.92-.95a22.32,22.32,0,0,1,18.88,8.6c5.05,6.23,5.24,14.84.65,22.18a36.61,36.61,0,0,1-9.46,9.92c-.69.51-.76.72,0,1.24a43.53,43.53,0,0,1,11.63,11.37c7.14,10.64,6,22.72-3,31.87a38.67,38.67,0,0,1-22.49,11.23c-14.62,2.18-27.09-2.43-37.82-12.3a52.14,52.14,0,0,1-9.07-10.21c-3-4.75-5-9.83-4.77-15.56a13,13,0,0,1,2.33-7.4c2.31-3.15,5.69-3.39,8.39-.57A15.41,15.41,0,0,1,86.63,389.28Z"/><path class="cls-4" d="M106.7,390.24c-.91-1.35-6.18-10-.41-14.3,6.43-4.83,17.72-5,21.61-8.09,3.17-2.53,8.82-6.44,7.35-14.91s-6.07-6.57-6.25-8,.74-12,.74-12H128c-.73,0-.93.21-.92.95,0,3.84,0,7.68-.09,11.52a1.58,1.58,0,0,0,1.14,1.8c5.08,2.15,7,6.86,5,12a15.56,15.56,0,0,1-5.94,7,26.43,26.43,0,0,1-9.5,3.63,32.08,32.08,0,0,0-12.07,5.05,13.82,13.82,0,0,0-1.45,1.18c-3,2.72-3.54,5.63-2.75,8.2C102.32,387.76,106.83,390.43,106.7,390.24Z"/><path class="cls-5" d="M142.68,398.93c-.6-9.07-6-20.91-14.43-23S111,378.7,111,378.7a14.71,14.71,0,0,0-4.08,3.46c-1.21,1.82-1.07,7.59-.19,8.08.29-3.2.76-4.57,2.19-6.35,5.51-6.85,17.38-7.65,24-1.56,5,4.65,7,10.73,6.75,17.33-.41,9.09-5.13,15.49-13.59,19a42,42,0,0,1-11.66,2.66A29.67,29.67,0,0,1,100,419.76a31.86,31.86,0,0,1-16.75-15.37,19.17,19.17,0,0,1-2.63-10.26c.17-2.65,1.62-4.48,3.94-4.83a14.47,14.47,0,0,1,2.1,0,15.41,15.41,0,0,0-3.34-6.06c-2.7-2.82-6.08-2.58-8.39.57,0,0,4-2.64,6.45.14s2.14,3.57,2.14,3.57-4.54,1-4.67,6.55a23.89,23.89,0,0,0,3,11.67c.85,1.42,4.28,8.1,10.57,11.8s12,6.22,19.11,5.79,16.94-1.81,21.18-5.62S143.29,408,142.68,398.93Z"/><path class="cls-3" d="M100.52,322c1.64.56,3.21,1.31,4.88,1.8,6.07,1.81,12.06,1.27,18-.49,5.35-1.59,10.44-3.88,15.61-6a89.48,89.48,0,0,1,17.77-5.3,32.81,32.81,0,0,1,15.06,1.06c5.79,1.66,11.29,3.87,16.06,7.64a28.24,28.24,0,0,1,10.55,18.1,43.73,43.73,0,0,1-.39,16.64c-.67,3.12-2.49,5.74-4.33,8.3A39.81,39.81,0,0,1,178,377.31a31.23,31.23,0,0,1-6.72,2.25v-7.5c0-.32.22-.44.47-.56,6.89-3.37,11-9.17,13.76-16.05a25.74,25.74,0,0,0,2.22-8.09,22.08,22.08,0,0,0-4.35-14.69c-4.42-6-10.59-9.28-17.74-10.83a34.85,34.85,0,0,0-16.77.23c-3.34.92-6.5,2.46-9.78,3.6-6.4,2.22-12.92,4-19.75,4.12-7,.16-13.3-1.69-18.29-6.92-.22-.23-.54-.4-.57-.77Z"/><path class="cls-3" d="M153.65,415.76c2,.43,4,.92,6,1.23,5.93.92,11.67.57,17-2.53,4.34-2.55,7.27-6.38,9.51-10.78a48.35,48.35,0,0,0,5.11-25.06,33.41,33.41,0,0,0-1.08-7.7c-.11-.39-.25-.72.17-1.14a38.4,38.4,0,0,0,8-11.61,2.33,2.33,0,0,1,.23-.36,34.81,34.81,0,0,1,4.36,11.36,45.67,45.67,0,0,1,.67,13.9c-.32,3.3-.53,6.61-1,9.89a40,40,0,0,1-8.18,18.72c-4.6,5.91-10.87,9.07-18.07,10.45a25.88,25.88,0,0,1-17.65-2.62A19.22,19.22,0,0,1,153.65,415.76Z"/><path class="cls-3" d="M88.91,344.18a32.49,32.49,0,0,0,3.79,2.07,14.88,14.88,0,0,0,5.71,1.35c.76,0,.89.3.89,1,0,7.29,0,14.59,0,21.88q0,17.05,0,34.11a3.34,3.34,0,0,0,.87,2.38,30.21,30.21,0,0,1,3.69,5.22,8.09,8.09,0,0,1,.91,2.38,1.58,1.58,0,0,1-1.66,2.09,10.14,10.14,0,0,1-4.56-1.09,27,27,0,0,1-10.64-7.75,5.69,5.69,0,0,1-1.33-2.91A2.8,2.8,0,0,1,88,402a1.47,1.47,0,0,0,.77-1.51q0-27.6,0-55.2A2.11,2.11,0,0,1,88.91,344.18Z"/><path class="cls-6" d="M91.51,345.61a15,15,0,0,1-2.6-1.43,2.11,2.11,0,0,0-.11,1.12q0,27.6,0,55.2A1.47,1.47,0,0,1,88,402a2.8,2.8,0,0,0-1.48,2.89,5.69,5.69,0,0,0,1.33,2.91l4.82,4.52s-3.1-4.49-2.06-7.78S91.51,345.61,91.51,345.61Z"/><path class="cls-3" d="M159.42,347.29A24,24,0,0,1,170,353.48a1.2,1.2,0,0,1,.27,1c0,5.81,0,11.63,0,17.44q0,16.51,0,33a1.08,1.08,0,0,0,.56,1.05,10.78,10.78,0,0,1,2.15,1.71c2.1,2.16,1.82,4.1-.8,5.54a13.28,13.28,0,0,1-4.2,1.37,18.8,18.8,0,0,1-8.56-.53c-3.38-1-4.08-3.2-1.94-6a4.63,4.63,0,0,1,.83-1,3.74,3.74,0,0,0,1.41-3.49c-.09-7.59-.06-15.18-.1-22.77q-.06-16.2-.16-32.39C159.42,348.07,159.42,347.71,159.42,347.29Z"/><path class="cls-7" d="M159.42,347.29c0,.42,0,.78,0,1.14q.07,16.2.16,32.39c0,7.59,0,15.18.1,22.77a3.74,3.74,0,0,1-1.41,3.49,4.63,4.63,0,0,0-.83,1c-2.14,2.81-1.44,5,1.94,6a18.55,18.55,0,0,0,4.64.78,5.47,5.47,0,0,0-3.58-2.58c-2.25-.26-1.24-3.25.58-4.87,3.61-3.19,1.28-57.57,1.28-57.57l-.13-1.36S162.16,348,159.42,347.29Z"/><path class="cls-3" d="M125.79,393.08c0,4,0,7.94,0,11.92a2.22,2.22,0,0,0,.76,1.8,12.92,12.92,0,0,1,2.59,3.33c1.22,2.33.63,4.05-1.78,5.1a15.43,15.43,0,0,1-5.27,1.11c-3.58.21-7.15.36-10.65-.67-3.91-1.16-4.7-3.87-2-6.93a11.67,11.67,0,0,1,2.36-2.08,1.6,1.6,0,0,0,.79-1.53c0-7,0-14,0-21a1.45,1.45,0,0,1,.85-1.45,21.46,21.46,0,0,1,11.7-2.83c.67,0,.79.3.79.9,0,4.11,0,8.21,0,12.32Z"/><path class="cls-8" d="M113.41,382.69a1.45,1.45,0,0,0-.85,1.45c0,7,0,14,0,21a1.6,1.6,0,0,1-.79,1.53,11.67,11.67,0,0,0-2.36,2.08c-2.69,3.06-1.9,5.77,2,6.93l3.48.82s1.58-1.44-.62-2.47-5.48-1.77-2.09-4.54c3.63-3,2.41-3,2.54-8.3s-.31-19-.31-19Z"/><path class="cls-3" d="M112.2,369.55v-2.48q0-14.73.08-29.46c0-1.74,0-1.75,1.64-2.34a39.75,39.75,0,0,1,10.83-2.21c.82-.06,1,.14,1,.91-.09,7.65-.14,15.31-.19,23,0,1.91-.09,3.81,0,5.72a2.34,2.34,0,0,1-1,2.07,13.53,13.53,0,0,1-4.45,2.44C117.47,368,114.77,368.44,112.2,369.55Z"/><path class="cls-9" d="M112.2,369.55v-2.48q0-14.73.08-29.46c0-1.74,0-1.75,1.5-2.34l1.13-.42-.44,33.82Z"/><path class="cls-3" d="M145.86,330c1.92,1.69,3.79,3.37,5.76,5a19.11,19.11,0,0,0,12.5,4.49A49.6,49.6,0,0,1,176,340.56a34,34,0,0,1,10.35,4.89c.63.41.42,1,.38,1.5a27.31,27.31,0,0,1-2.47,8.94c-.36.8-.74,1.58-1.14,2.43a41.54,41.54,0,0,0-13.29-9.15c-3.15-1.45-6.5-2.43-9.75-3.66a28.34,28.34,0,0,1-8.42-4.61A16.92,16.92,0,0,1,145.86,330Z"/><path class="cls-3" d="M83,328.49a33.51,33.51,0,0,0,4.53,5c4.92,4.23,10.6,5.5,16.9,4.43a29.78,29.78,0,0,0,5.59-1.51c.67-.25.92-.23.92.59,0,2.92,0,5.84,0,8.77,0,.42,0,.73-.58.77-5.6.4-11.15.41-16.5-1.64-6.13-2.36-9.38-7-10.49-13.3C83.24,330.66,83.16,329.71,83,328.49Z"/><path class="cls-10" d="M83,328.49c6.61,20.69,28,14.35,28,17.28,0,.42,0,.73-.58.77-5.6.4-11.15.41-16.5-1.64-6.13-2.36-9.38-7-10.49-13.3C83.24,330.66,83.16,329.71,83,328.49Z"/><path class="cls-3" d="M144.17,371.61a71.64,71.64,0,0,0,9,2,33.73,33.73,0,0,0,4.7.39c.65,0,.83.23.81.86,0,1.44,0,2.89,0,4.33,0,.46-.08.7-.6.58A23.72,23.72,0,0,1,144.17,371.61Z"/><path class="cls-11" d="M144.17,371.61a71.64,71.64,0,0,0,9,2,33.73,33.73,0,0,0,4.7.39c.65,0,.83.23.81.86,0,.36,0,.72,0,1.09C158.61,375.94,149.42,376.22,144.17,371.61Z"/><path class="cls-3" d="M100.49,322.1l-.23-.12.09-.1.17.16Z"/><path class="cls-12" d="M100.52,322s2.16,1.62,3.74,2.63c7.33,4.73,21.46,3.25,36.48-2.79a48.15,48.15,0,0,1,27.84-3c10.2,1.73,17.78,10.74,20.06,15.48,2.51,5.23,6.08,19.62-5.5,31.68a37.74,37.74,0,0,1-11.85,8.2v-2.18c0-.32.22-.44.47-.56,6.89-3.37,11-9.17,13.76-16.05a25.74,25.74,0,0,0,2.22-8.09,22.08,22.08,0,0,0-4.35-14.69c-4.42-6-10.59-9.28-17.74-10.83a34.85,34.85,0,0,0-16.77.23c-3.34.92-6.5,2.46-9.78,3.6-6.4,2.22-12.92,4-19.75,4.12-7,.16-13.3-1.69-18.29-6.92a2.94,2.94,0,0,1-.54-.83"/><path class="cls-13" d="M153.65,415.76c2,.43,4,.92,6,1.23,5.93.92,11.67.57,17-2.53,4.34-2.55,7.27-6.38,9.51-10.78a48.35,48.35,0,0,0,5.11-25.06,33.41,33.41,0,0,0-1.08-7.7c-.11-.39-.25-.72.17-1.14,3.22-3.18,7.43-11.07,8.18-12,0,0,1.32,1,0,4s-5.75,7.86-5.56,9.07c.78,4.9,2,11.76,1.12,18.59-.92,7.25-5.79,17-8.3,20.14S173,423,159.8,418.47Z"/><path class="cls-14" d="M145.86,330a17.32,17.32,0,0,0,4.43,9.6,25,25,0,0,0,9.75,5.88c3.25,1.23,6.6,2.21,9.75,3.66a41.54,41.54,0,0,1,13.29,9.15c.4-.85.78-1.63,1.14-2.43,0,0-7.3-7.27-16.47-10.38S155.39,342.7,145.86,330Z"/><path d="M358,332.84a18,18,0,0,0,6.58-5.17,16.06,16.06,0,0,0,3.41-10,17.18,17.18,0,0,0-4.32-11.52c-2.84-3.29-7-5.61-12.31-6.88A60.25,60.25,0,0,0,337.6,298h-30a1.14,1.14,0,0,0-1.15,1.15V301a1.15,1.15,0,0,0,1.15,1.16h2.61c2.3,0,4,.61,5.06,1.85.45.51,1.2,2.15,1.2,7.37v44.79c0,4.77-.62,6.42-1,7-1.05,1.52-2.78,2.25-5.29,2.25h-2.61a1.15,1.15,0,0,0-1.15,1.16v1.89a1.15,1.15,0,0,0,1.15,1.16h32.73c8,0,13.85-.74,17.82-2.25A20,20,0,0,0,367.7,360a18.29,18.29,0,0,0,3.47-10.55,16.39,16.39,0,0,0-5.32-12.34A20.18,20.18,0,0,0,358,332.84Zm-4.83-8.95a10.76,10.76,0,0,1-5.22,4.46c-2.35,1-6,1.52-10.77,1.52-1.92,0-3.68-.06-5.25-.18-1.18-.08-2.27-.2-3.25-.35V304.57a34.46,34.46,0,0,1,8-.87c6,0,10.64,1.35,13.72,4a12.06,12.06,0,0,1,4.56,9.51A12.84,12.84,0,0,1,353.13,323.89ZM328.64,336c.71-.09,1.55-.16,2.52-.2,1.49-.07,3.28-.1,5.37-.1a30,30,0,0,1,11.81,2.05,13.66,13.66,0,0,1,6.62,5.41,13.93,13.93,0,0,1,2,7.18,11.84,11.84,0,0,1-4.45,9.43c-3,2.58-7.5,3.89-13.36,3.89a50.47,50.47,0,0,1-10.55-1.15Z"/><path d="M444.1,365.41a9.73,9.73,0,0,1-5.93-2.05c-1.44-1.25-3.12-4.15-5-8.6l-24.13-57.67a1.16,1.16,0,0,0-1.07-.71H406.2a1.17,1.17,0,0,0-1.07.7l-24.39,57.07c-2,4.84-3.89,8.06-5.51,9.58-.38.37-1.55,1.08-5,1.69a1.16,1.16,0,0,0-.95,1.14v1.89a1.16,1.16,0,0,0,1.16,1.16h21.83a1.16,1.16,0,0,0,1.15-1.16v-1.89a1.15,1.15,0,0,0-1.07-1.15c-4.05-.29-5.42-1-5.88-1.31a2.33,2.33,0,0,1-1.08-1.89c0-.8.29-2.42,1.65-5.57l4.4-10.25h25.32l3.89,9.27c1.62,3.84,2,5.74,2,6.66a2.42,2.42,0,0,1-1,2c-.53.43-1.82,1-4.93,1.13a1.15,1.15,0,0,0-1.1,1.15v1.89a1.16,1.16,0,0,0,1.16,1.16H444a1.16,1.16,0,0,0,1.16-1.16v-1.89A1.15,1.15,0,0,0,444.1,365.41ZM414.33,340.3H394l10.3-23.91Z"/><path d="M522.42,298H498.29a1.14,1.14,0,0,0-1.15,1.15V301a1.15,1.15,0,0,0,1.15,1.16h2.4c2.37,0,4.09.59,5.13,1.76.34.38,1.13,1.84,1.13,7.21v36.73l-40.33-49.48a1.15,1.15,0,0,0-.9-.42H446.91a1.15,1.15,0,0,0-1.16,1.15V301a1.16,1.16,0,0,0,1.16,1.16,15.29,15.29,0,0,1,4.14.4,15.68,15.68,0,0,1,4.25,1.94,27.94,27.94,0,0,1,4.1,4.14v47.79c0,4.75-.57,6.31-.92,6.8-1,1.46-2.75,2.16-5.34,2.16h-2.4a1.15,1.15,0,0,0-1.15,1.16v1.89a1.15,1.15,0,0,0,1.15,1.16h24.13a1.16,1.16,0,0,0,1.16-1.16v-1.89a1.16,1.16,0,0,0-1.16-1.16h-2.45c-2.34,0-4.07-.59-5.11-1.75-.33-.37-1.1-1.84-1.1-7.21V317l43.66,53.33a1.15,1.15,0,0,0,.9.42h1.84a1.16,1.16,0,0,0,1.15-1.15V311.14c0-4.76.58-6.31.92-6.81,1-1.46,2.74-2.16,5.29-2.16h2.45a1.16,1.16,0,0,0,1.16-1.16v-1.89A1.15,1.15,0,0,0,522.42,298Z"/><path d="M600.48,365.41A21.77,21.77,0,0,1,592,363c-2.85-1.45-6.36-4.26-10.45-8.35h0L556.84,330l9.77-9.72c7.62-7.79,9.82-10,10.33-10.44a43,43,0,0,1,6.36-5,20.19,20.19,0,0,1,4.24-2.06,14.1,14.1,0,0,1,3.78-.56,1.16,1.16,0,0,0,1.13-1.16v-1.89a1.15,1.15,0,0,0-1.16-1.15H565.83a1.14,1.14,0,0,0-1.15,1.15V301a1.15,1.15,0,0,0,1.15,1.16h1.59a4.62,4.62,0,0,1,2.89.62A1.5,1.5,0,0,1,571,304a5.7,5.7,0,0,1-1.18,2.93c-2.06,3-8.18,9.19-18.19,18.36L546.54,330V311.39c0-4.05.29-5.68.54-6.34a3.27,3.27,0,0,1,1.65-1.84,8.84,8.84,0,0,1,4.12-1h2.35a1.15,1.15,0,0,0,1.15-1.16v-1.89A1.14,1.14,0,0,0,555.2,298H525.64a1.15,1.15,0,0,0-1.15,1.15V301a1.16,1.16,0,0,0,1.15,1.16h2.46a8.39,8.39,0,0,1,4.12,1.07,3.63,3.63,0,0,1,1.6,1.56c.27.7.59,2.42.59,6.59v44.79c0,5.09-.63,6.68-1,7.17-1.07,1.38-2.81,2-5.32,2h-2.46a1.16,1.16,0,0,0-1.15,1.16v1.89a1.16,1.16,0,0,0,1.15,1.16H555.2a1.15,1.15,0,0,0,1.15-1.16v-1.89a1.15,1.15,0,0,0-1.15-1.16h-2.35a8.26,8.26,0,0,1-4.09-1.08,3.49,3.49,0,0,1-1.64-1.61c-.27-.68-.58-2.36-.58-6.53V336.6l22,21.73a17.57,17.57,0,0,1,3,3.33,3.61,3.61,0,0,1,.37,1.68c0,.16,0,.65-.86,1.31-.45.34-1.43.75-3.56.75a1.19,1.19,0,0,0-.82.34,1.15,1.15,0,0,0-.34.82v1.89a1.16,1.16,0,0,0,1.16,1.16h33a1.16,1.16,0,0,0,1.15-1.16v-1.89A1.15,1.15,0,0,0,600.48,365.41Z"/><path d="M680.84,332.84a18,18,0,0,0,6.58-5.17,16.06,16.06,0,0,0,3.41-10,17.18,17.18,0,0,0-4.32-11.52c-2.84-3.29-7-5.61-12.31-6.88A60.25,60.25,0,0,0,660.48,298h-30a1.15,1.15,0,0,0-1.15,1.15V301a1.16,1.16,0,0,0,1.15,1.16h2.61c2.3,0,4,.61,5.06,1.85.45.51,1.2,2.15,1.2,7.37v44.79c0,4.77-.62,6.42-1,7-1,1.52-2.78,2.25-5.29,2.25h-2.61a1.16,1.16,0,0,0-1.15,1.16v1.89a1.16,1.16,0,0,0,1.15,1.16h32.73c8,0,13.85-.74,17.82-2.25a20,20,0,0,0,9.51-7.33,18.3,18.3,0,0,0,3.48-10.55,16.4,16.4,0,0,0-5.33-12.34A20.18,20.18,0,0,0,680.84,332.84ZM676,323.89a10.76,10.76,0,0,1-5.22,4.46c-2.35,1-6,1.52-10.77,1.52-1.92,0-3.68-.06-5.25-.18-1.18-.08-2.27-.2-3.25-.35V304.57a34.46,34.46,0,0,1,8-.87c6,0,10.64,1.35,13.72,4a12.06,12.06,0,0,1,4.56,9.51A12.84,12.84,0,0,1,676,323.89ZM651.52,336c.71-.09,1.55-.16,2.52-.2,1.49-.07,3.28-.1,5.37-.1a30,30,0,0,1,11.81,2.05,13.66,13.66,0,0,1,6.62,5.41,13.93,13.93,0,0,1,2,7.18,11.84,11.84,0,0,1-4.45,9.43c-3,2.58-7.5,3.89-13.36,3.89a50.47,50.47,0,0,1-10.55-1.15Z"/><path d="M740.84,300c-3.69-1.32-8.76-2-15.06-2H700.36a1.15,1.15,0,0,0-1.15,1.15V301a1.16,1.16,0,0,0,1.15,1.16H703c2.3,0,4,.61,5.06,1.85.33.38,1.1,1.86,1.1,7.37v44.79c0,4.87-.53,6.4-.83,6.88-1,1.58-2.79,2.34-5.33,2.34h-2.61a1.16,1.16,0,0,0-1.15,1.16v1.89a1.16,1.16,0,0,0,1.15,1.16h29.71a1.16,1.16,0,0,0,1.16-1.16v-1.89a1.16,1.16,0,0,0-1.16-1.16h-2.66c-2.29,0-3.93-.6-5-1.87-.34-.37-1.13-1.84-1.13-7.35V337.4c1.73.35,3.38.61,4.94.8a44.44,44.44,0,0,0,5.56.37c7.09,0,12.68-1.9,16.62-5.63a19.41,19.41,0,0,0,6-14.65,17.83,17.83,0,0,0-3.94-11.51A21.41,21.41,0,0,0,740.84,300Zm-.47,19.37a13.73,13.73,0,0,1-3.55,9.87,11,11,0,0,1-8.33,3.75,29.84,29.84,0,0,1-3.44-.25c-1.13-.14-2.4-.33-3.79-.58v-27a26.84,26.84,0,0,1,5.54-.73,14.21,14.21,0,0,1,7.1,1.76,11.69,11.69,0,0,1,4.74,5.27A18.12,18.12,0,0,1,740.37,319.32Z"/><path d="M811,301.59c-5.52-2.41-13.63-3.62-24.1-3.62H758.65a1.14,1.14,0,0,0-1.15,1.15V301a1.15,1.15,0,0,0,1.15,1.16h2.61c2.3,0,4,.61,5.06,1.85.34.4,1.15,1.9,1.15,7.37v44.79c0,4.81-.59,6.4-.94,6.93-1,1.55-2.73,2.29-5.27,2.29h-2.61a1.15,1.15,0,0,0-1.15,1.16v1.89a1.15,1.15,0,0,0,1.15,1.16h31c13.74,0,24.14-3.78,30.92-11.22,6-6.67,9.09-15.07,9.09-25a37.55,37.55,0,0,0-5.1-19.62A29.37,29.37,0,0,0,811,301.59Zm4.7,32.35c0,9.16-2.52,16.5-7.51,21.81a24.83,24.83,0,0,1-18.84,8,49.44,49.44,0,0,1-9.74-1.21V305.4a41.23,41.23,0,0,1,9.33-1.24c7.81,0,14.29,2.67,19.26,7.92S815.68,324.71,815.68,333.94Z"/><path d="M910.72,332.84a18.08,18.08,0,0,0,6.58-5.17,16.12,16.12,0,0,0,3.41-10,17.18,17.18,0,0,0-4.32-11.52c-2.84-3.29-7-5.61-12.31-6.88A60.37,60.37,0,0,0,890.36,298h-30a1.15,1.15,0,0,0-1.16,1.15V301a1.16,1.16,0,0,0,1.16,1.16H863a6.41,6.41,0,0,1,5.06,1.85c.45.51,1.2,2.14,1.2,7.37v44.79c0,4.77-.62,6.42-1,7-1,1.52-2.77,2.25-5.28,2.25H860.4a1.16,1.16,0,0,0-1.16,1.16v1.89a1.16,1.16,0,0,0,1.16,1.16h32.72c8,0,13.85-.74,17.82-2.25a20,20,0,0,0,9.51-7.33,18.3,18.3,0,0,0,3.48-10.55,16.43,16.43,0,0,0-5.32-12.34A20.39,20.39,0,0,0,910.72,332.84Zm-4.83-8.95a10.81,10.81,0,0,1-5.22,4.46c-2.35,1-6,1.52-10.77,1.52-1.92,0-3.69-.06-5.26-.18-1.18-.08-2.27-.2-3.25-.35V304.57a34.55,34.55,0,0,1,8.05-.87c6,0,10.64,1.35,13.71,4a12.06,12.06,0,0,1,4.56,9.51A12.84,12.84,0,0,1,905.89,323.89ZM881.39,336c.71-.09,1.56-.16,2.53-.2,1.49-.07,3.27-.1,5.37-.1a30,30,0,0,1,11.81,2.05,13.66,13.66,0,0,1,6.62,5.41,14,14,0,0,1,2,7.18,11.87,11.87,0,0,1-4.45,9.43c-3,2.58-7.51,3.89-13.36,3.89a50.56,50.56,0,0,1-10.56-1.15Z"/><path d="M996.86,365.41a9.76,9.76,0,0,1-5.94-2.05c-1.44-1.26-3.12-4.15-5-8.6l-24.13-57.67a1.16,1.16,0,0,0-1.07-.71H959a1.16,1.16,0,0,0-1.06.7L933.5,354.15c-2,4.84-3.9,8.06-5.51,9.58-.39.37-1.55,1.08-5,1.69a1.16,1.16,0,0,0-1,1.14v1.89a1.15,1.15,0,0,0,1.15,1.16H945a1.16,1.16,0,0,0,1.16-1.16v-1.89a1.15,1.15,0,0,0-1.08-1.15c-4-.29-5.41-1-5.88-1.31a2.31,2.31,0,0,1-1.07-1.89c0-.8.29-2.42,1.65-5.57l4.4-10.25h25.31l3.9,9.27c1.61,3.84,2,5.74,2,6.66a2.38,2.38,0,0,1-1,2c-.53.43-1.81,1-4.92,1.13a1.15,1.15,0,0,0-1.1,1.15v1.89a1.16,1.16,0,0,0,1.15,1.16h27.36a1.16,1.16,0,0,0,1.15-1.16v-1.89A1.14,1.14,0,0,0,996.86,365.41ZM967.08,340.3H946.75L957,316.39Z"/><path d="M1063,348.51l-1.69-.36a1.14,1.14,0,0,0-1.31.69,33.13,33.13,0,0,1-5.11,9.1,13.5,13.5,0,0,1-5.42,3.85c-2,.74-5.63,1.11-10.8,1.11h-5.06c-5.84,0-7.22-.3-7.55-.43a2.54,2.54,0,0,1-1.29-1c-.31-.61-.69-2-.69-5.3V312.57c0-5.15.44-6.79.7-7.31a5.16,5.16,0,0,1,2.51-2.18c.9-.44,2.83-.94,7.23-.91a1.17,1.17,0,0,0,.82-.34,1.14,1.14,0,0,0,.35-.82v-1.89a1.15,1.15,0,0,0-1.16-1.15h-31.39a1.15,1.15,0,0,0-1.16,1.15V301a1.16,1.16,0,0,0,1.16,1.16h2.61a6.41,6.41,0,0,1,5.06,1.85c.34.4,1.14,1.9,1.14,7.37v44.74c0,4.86-.55,6.43-.88,6.93-1,1.58-2.78,2.34-5.32,2.34h-2.61a1.16,1.16,0,0,0-1.16,1.16v1.89a1.16,1.16,0,0,0,1.16,1.16h53.68a1.16,1.16,0,0,0,1.11-.81l5.93-18.82a1.13,1.13,0,0,0-.11-.93A1.1,1.1,0,0,0,1063,348.51Z"/><path d="M1089.54,304.23h0c1.08-1.39,2.8-2.06,5.27-2.06h2.51a1.15,1.15,0,0,0,1.15-1.16v-1.89a1.14,1.14,0,0,0-1.15-1.15h-29.71a1.15,1.15,0,0,0-1.15,1.15V301a1.16,1.16,0,0,0,1.15,1.16h2.46a8.39,8.39,0,0,1,4.12,1.07,3.48,3.48,0,0,1,1.6,1.62c.27.68.59,2.36.59,6.53v44.79c0,5.09-.63,6.68-1,7.17-1.07,1.38-2.81,2-5.32,2h-2.46a1.16,1.16,0,0,0-1.15,1.16v1.89a1.16,1.16,0,0,0,1.15,1.16h29.71a1.15,1.15,0,0,0,1.15-1.16v-1.89a1.15,1.15,0,0,0-1.15-1.16h-2.51a8.25,8.25,0,0,1-4.08-1.08,3.44,3.44,0,0,1-1.64-1.61c-.27-.68-.59-2.36-.59-6.53V311.39C1088.5,306.31,1089.15,304.72,1089.54,304.23Z"/><path d="M344.74,420.35c0,3.38-7.29,11.39-23.25,12.28-4.27.24-10.2-1.19-10.2-6.58,0-1.9-.3-2.2,6.58-11.28-1.66-.12-5.46-.29-5.46-2.31,0-2.55,8.31-2.67,10.09-3.2,3.85-3.74,7.77-8.73,13.7-8.73-.41,1-.83,1.79-5.75,7.54,13.4-1.84,16.55-5.87,16.43-7.48-.06-1.3-1.72-3.38-8.6-2.9a71.87,71.87,0,0,0-16.67,4.15c.35.18.83.42.83.89,0,.89-1.37,1.24-2.14,1.37a42,42,0,0,0-8.25,2.25,5.84,5.84,0,0,1-1.83.41c-1,0-1.48-.59-1.48-1.6a14.92,14.92,0,0,1,2.72-5c1.25-1.66,3-3.92,5-4.69,5.75-2.19,16.85-4.51,23-4.51,10.2,0,12.63,4,12.63,7.24,0,9.61-18,12-24.92,13.41L326,412.7C330.21,413.47,344.74,414.65,344.74,420.35Zm-24.68-1.07c-.77.83-2.07,2.14-2.07,3.38,0,2.55,4.69,3.27,6.59,3.27,5.27-.06,13.46-3.92,13.46-6.29,0-3.09-12.22-4-14.65-4Z"/><path d="M369.65,423.14c-3.62,4.21-10.15,9.79-16,9.79-4.33,0-6.35-3.86-6.47-7.77-.23-7.78,8.37-15.73,16.08-15.67,1.9,0,4.27.48,4.27,2.85,0,2.91-2.91,7.3-14.3,11l-.11,1.3c-.19,2.26,1.78,3,3.67,3,4.22,0,9.2-4.33,12.34-6.83Zm-7.36-9.55c0-.42-.29-.77-.71-.66a13,13,0,0,0-8,7.54C358.79,418.69,362.35,414.6,362.29,413.59Z"/><path d="M373,419.1c-2.07,3.27-4.57,4.81-7.12,7.36l-.23-2.61a21.16,21.16,0,0,0,3.91-4.33c-1.24-.12-1.6-.6-1.6-1.84,0-4.27,6.05-8.54,7.48-8.54a1.05,1.05,0,0,1,1.07,1,4,4,0,0,1-.42,1.66c5.58-.77,8.84-1.49,9.43-.77a5.93,5.93,0,0,1,1.43,3.14c0,1.84-1.13,2.73-2.49,3.85-1.73,1.49-4.64,4.4-4.64,6.77a1.83,1.83,0,0,0,1.85,1.66c2.55,0,6.28-3.86,8.24-5.34l.41,2.2c-2.25,2.55-9.07,9.13-12.45,9.13-2.5,0-4-2.31-4-4.57,0-4,3.08-7.18,5.45-10l-.12-.12Z"/><path d="M410.09,421.77l.59,2.26c-3.62,3.61-10.08,9-14.83,8.78-4-.18-8.37-2.44-9.43-6.76a2,2,0,0,1-1.31.77,1.11,1.11,0,0,1-1-1.13c0-.77,1-1.6,1.43-2.08l12.87-11.8c.12-2,1.24-3.86,3.38-3.86,1.78,0,2.14.53,2.32,2.2.23,2.25,1.12,4.27,1.12,6.88,0,4.86-3.91,8.48-7.71,10.8,3.8.65,6.11-1.13,9-3.33ZM389.92,423c2.19.12,3.5,2,4.63,3.5,3.56-2.2,4.5-3.2,4.68-6.65-.18-1.24-.41-2.84-.77-4.86Z"/><path d="M420.41,427.94c-1.13.89-4.93,4-6.29,4-1.67,0-5.1-3.92-5.22-7-.24-7.42,15.19-15,22.07-15.19a3.64,3.64,0,0,1,3.85,2.85c0,.71-1.54,1.3-2.07,1.48a2.38,2.38,0,0,1,1.71,2.43c0,1.9-5.16,6.05-5.16,8.84,0,1,.89,1.42,1.85,1.42,2.49,0,5.87-3,8.42-4.74l.47,2.2c-2.55,2.9-10.5,9.25-13.41,9.25-1.95,0-2.84-1.42-2.84-3.14,0-1.9,1.42-5.05,2.2-6.65l-.13-.12Zm-7.18-1.54c.06.3.29,1.37,1.18,1.19,1.19-.24,3-.06,14.77-11.93l-.11-.12C415,419.87,413.23,423.49,413.23,426.4Z"/><path d="M459.67,428.42c-1.37,1.3-3.5,3.73-5.52,3.73a2.56,2.56,0,0,1-2.61-2.49c-.06-1.72,1.36-4.45,5.22-10.32a1.82,1.82,0,0,0,.36-.77.41.41,0,0,0-.42-.42c-.59,0-1.9,1.43-2.31,1.84-3.08,3.27-6.41,6.83-9.2,10.27a3.69,3.69,0,0,1-2.55,1.66c-2.84,0-3.68-4.63-3.68-6.76.06-5.82,6.35-13.77,9.91-13.29.89.11,2.67.11,2.67,1.36s-1.66,3-2.37,3.8a44,44,0,0,0-3.27,3.62c-.65.89-1.72,1.83-1.72,3.08,0,.12.19.54.42.54s1-.78,1.18-.95c2.91-3,13.47-13.59,17.33-13.59a2.42,2.42,0,0,1,2.43,2.73c0,2.61-4.21,7.41-5.51,9.73l.11.12,13.17-10.38c.6-.48,2.08-1.67,2.79-1.67.48,0,1.07,1.43,1.25,1.67a5,5,0,0,1,1.06,2.37c0,1-1.18,2.31-1.83,3-4.63,5.1-5,6.05-5.05,7.41-.06.71.71,1.66,1.43,1.48,1.24-.29,1.9-.29,9.19-5.28l.36,2.79c-2.79,2.2-11.33,9.2-14.65,9.2a3.3,3.3,0,0,1-3-3.45c0-3,2.91-7.17,4.39-9.61l-.12-.11Z"/><path d="M491.39,427.94c-1.13.89-4.93,4-6.29,4-1.66,0-5.1-3.92-5.21-7-.25-7.42,15.18-15,22.06-15.19a3.65,3.65,0,0,1,3.86,2.85c0,.71-1.54,1.3-2.08,1.48a2.38,2.38,0,0,1,1.72,2.43c0,1.9-5.16,6.05-5.16,8.84,0,1,.89,1.42,1.84,1.42,2.49,0,5.87-3,8.42-4.74l.48,2.2c-2.55,2.9-10.5,9.25-13.41,9.25-2,0-2.85-1.42-2.85-3.14,0-1.9,1.43-5.05,2.2-6.65l-.12-.12Zm-7.18-1.54c.06.3.3,1.37,1.19,1.19,1.19-.24,3-.06,14.77-11.93l-.12-.12C485.94,419.87,484.21,423.49,484.21,426.4Z"/><path d="M562.86,425.63a1,1,0,0,0,1.07.95c1.07,0,1.72-.65,5.22-3.26l1.07,1.54c-2.85,2.85-7.89,7.65-12.1,7.65-2.14,0-3-1.66-3-3.56,0-.47-.89-.42,4.34-10l-12.94.42-12.16,12.1c-1.43,1.43-3.68,3.92-5.82,3.92-.89,0-2.07-.18-2.07-1.31,0-1.95,4.56-7.65,10.14-9.61l4.63-5.1c-3.8.12-5.76.36-5.76-1.19,0-1.12,4.34-6.11,7.48-7.11,2.32-.78,5.51-1.25,5.51-.42,0,1.07-4.32.53-4.32,1.6,0,.42.53.54.83.54.94-.06,3.38-.18,3.61-.18l13.29-11c5.82-4.8,12.94-10.2,15.61-10.2,1.24,0,2.08,1.48,2.08,2.55,0,1.25-1.25,3.26-1.85,4.33l-7.35,12.87c4.39,0,1.72-.59,5.45.24a41.56,41.56,0,0,0-4.45,6.76l-4.74.24Zm9-27.82-.12-.12-17.14,14.18.12.11,9.07-.65Z"/><path d="M604.73,420.23l.47,2.61c-3.14,2.79-9.25,10.09-13.59,10.09-2.25,0-3.32-1.9-3.32-3.92,0-3.56,3.21-7.47,5.11-10.2l-.12-.12a46.79,46.79,0,0,0-9.14,9.08c-.89,1.12-3.08,4-4.69,4-2.61,0-3.26-3.74-3.31-5.75-.19-4.1,3.55-10.09,7-13a3,3,0,0,1,2.32-.71c3.56.12,3.26,1,3.26,1.31,0,2.31-7.48,8.3-7.48,9.73a.66.66,0,0,0,.66.65c.41,0,1-.54,1.19-.83,4.74-6.06,15.66-13.35,17.37-13.35.24,0,.6.3,1,1.13a14.11,14.11,0,0,1,.89,3.2c0,2.31-7.3,6.82-7.3,10.92a1.1,1.1,0,0,0,1.07,1.06c1.42,0,4-2.07,5.1-3Z"/><path d="M628,413.65c-2,3.08-4.82,6.94-4.82,10.73,0,.95.07,3,1.37,3,2,0,7.48-4.81,9.38-6.05l.41,2c-2.79,3.08-8.9,9.31-13.23,9.31-2.25,0-3.14-2.37-3.14-4.27a30,30,0,0,1,.47-4.51c-2.08,1.78-7.59,7.53-10.26,7.53s-4.33-5.69-4.33-7.77c0-7,11.8-12.93,16.85-13.23,1.24-.06,1.72.77,2.48,1.66,2-3.38,7.19-15.66,11.52-15.66a2.12,2.12,0,0,1,1.9,2.26c0,1.78-1.61,4.21-2.55,5.69ZM609.05,424.8a1,1,0,0,0,.89,1.13c.71.17,10.26-6.95,11.21-10.44C610.71,418.87,609.4,420.88,609.05,424.8Z"/><path d="M643.63,427.94c-1.13.89-4.93,4-6.29,4-1.67,0-5.1-3.92-5.22-7-.24-7.42,15.19-15,22.07-15.19a3.65,3.65,0,0,1,3.86,2.85c0,.71-1.55,1.3-2.08,1.48a2.38,2.38,0,0,1,1.71,2.43c0,1.9-5.16,6.05-5.16,8.84,0,1,.89,1.42,1.85,1.42,2.49,0,5.87-3,8.42-4.74l.47,2.2c-2.54,2.9-10.5,9.25-13.41,9.25-2,0-2.84-1.42-2.84-3.14,0-1.9,1.43-5.05,2.2-6.65l-.13-.12Zm-7.18-1.54c.06.3.3,1.37,1.19,1.19,1.19-.24,3-.06,14.77-11.93l-.12-.12C638.17,419.87,636.45,423.49,636.45,426.4Z"/><path d="M714.8,417.44c5.58-7.29,7.6-10.56,9.61-14.47,1-1.9.78-2.55.12-2.55s-1.42.77-1.84,1.24l-14.24,15.43-8.9,12c-1,1.36-2.49,3.62-4.38,3.62-2.49,0-3.68-4.69-4.34-6.53l12.4-15.66c6.23-11.15,5.16-12.34,4.15-12.34a6,6,0,0,0-1.83.71c-18.28,8.55-15.43,8.66-18.45,8.66-1,0-1.73-.77-1.43-2.19.59-3.2,1.07-6.47,1.55-7,.53-.71.17-.59,5.46-4.33a3.57,3.57,0,0,1,1.48-.83c.3,0,.71.23.71.59s-.83,1.42-3.15,3.44l.12.12,6.71-3.08c.71-.3,9.07-4.27,11.21-4.16,1.42.06,1.66.89,2.26,1.9l1.42,2.49a4.46,4.46,0,0,1,.71,2.26c0,2-3,8.12-3.68,10.32l.12.12L720,398c2.2-2.07,7.24-6.52,9.67-6.58,1.31-.06,4.33,1,4.33,4.09,0,4.39-6.41,13.17-8.83,16.91l.11.12c7.3-6.29,14.12-12.76,21.9-18.93.77-.65,1.95-1.89,3-1.89,1.6,0,4.1,3.85,4.1,5.1s-1.85,3.26-2.56,4.15l-9.2,11.21c-2.72,3.32-6.82,9-6.82,13.47,0,1.19.66,2.9,2.08,2.9,1.66,0,6.29-2.66,14.3-10.44l.23,2.26c-1.42,4.09-14.17,14.18-19.28,14.18-3.91,0-5.21-3.74-5.21-7.18,0-7.12,7.53-16,11.68-21.42l-.12-.12c-10.08,8.55-13.34,11.22-22.66,23-.89,1.13-3.74,4.51-5.22,4.51-2.31,0-3.15-4.27-3.15-6s1.43-3.44,2.38-4.69Z"/><path d="M772.79,423.14c-3.61,4.21-10.14,9.79-16,9.79-4.33,0-6.35-3.86-6.47-7.77-.24-7.78,8.37-15.73,16.08-15.67,1.9,0,4.27.48,4.27,2.85,0,2.91-2.91,7.3-14.3,11l-.12,1.3c-.18,2.26,1.78,3,3.68,3,4.21,0,9.19-4.33,12.34-6.83Zm-7.35-9.55c0-.42-.3-.77-.71-.66a13.05,13.05,0,0,0-8,7.54C761.94,418.69,765.5,414.6,765.44,413.59Z"/><path d="M792,428.42c-1.37,1.3-3.5,3.73-5.52,3.73a2.57,2.57,0,0,1-2.61-2.49c-.06-1.72,1.37-4.45,5.23-10.32a1.93,1.93,0,0,0,.35-.77.41.41,0,0,0-.42-.42c-.59,0-1.89,1.43-2.31,1.84-3.08,3.27-6.41,6.83-9.19,10.27a3.73,3.73,0,0,1-2.56,1.66c-2.84,0-3.68-4.63-3.68-6.76.07-5.82,6.35-13.77,9.91-13.29.89.11,2.67.11,2.67,1.36s-1.66,3-2.37,3.8a44,44,0,0,0-3.27,3.62c-.65.89-1.71,1.83-1.71,3.08,0,.12.18.54.41.54s1-.78,1.19-.95c2.9-3,13.47-13.59,17.32-13.59a2.42,2.42,0,0,1,2.43,2.73c0,2.61-4.21,7.41-5.51,9.73l.12.12,13.17-10.38c.59-.48,2.07-1.67,2.79-1.67.47,0,1.06,1.43,1.24,1.67a5,5,0,0,1,1.06,2.37c0,1-1.18,2.31-1.83,3-4.63,5.1-5,6.05-5,7.41-.07.71.71,1.66,1.42,1.48,1.25-.29,1.9-.29,9.2-5.28l.35,2.79c-2.79,2.2-11.33,9.2-14.65,9.2a3.3,3.3,0,0,1-3-3.45c0-3,2.91-7.17,4.39-9.61l-.12-.11Z"/><path d="M818.75,420.76c-1.07,3.74.36,6.83,2.61,6.53,1.9-.3,3-1.9,4-3.08a4.07,4.07,0,0,1-.83-2.32c0-3.44,4.74-9.25,8.24-9.25,1.42,0,1.78,1.48,1.78,2.61,0,2.49-1.84,5.22-2.84,7.41,2.43.48,4.38-.83,6.28-2.19l.59,2c-2.66,2.78-5.69,3.73-9.49,3.79-2.54,2.67-6.7,6.29-10.62,6.29s-4.39-5.76-4.39-8.6c0-7.47,3.5-13.82,8.19-19.4,4.8-5.76,14.12-13,16.61-13,1.19,0,1.72,1.06,1.72,2.19,0,5.4-8.78,14.3-12.57,18Zm2.14-6.28.11.12c12.4-12.34,13.71-15.73,14.72-17.86l-.12-.12A58.91,58.91,0,0,0,820.89,414.48Z"/><path d="M847.46,427.94c-1.13.89-4.93,4-6.3,4-1.66,0-5.09-3.92-5.21-7-.25-7.42,15.19-15,22.06-15.19a3.64,3.64,0,0,1,3.86,2.85c0,.71-1.54,1.3-2.08,1.48a2.39,2.39,0,0,1,1.73,2.43c0,1.9-5.17,6.05-5.17,8.84,0,1,.89,1.42,1.84,1.42,2.49,0,5.87-3,8.42-4.74l.48,2.2c-2.55,2.9-10.5,9.25-13.41,9.25-1.95,0-2.84-1.42-2.84-3.14,0-1.9,1.42-5.05,2.19-6.65l-.12-.12Zm-7.19-1.54c.07.3.3,1.37,1.19,1.19,1.19-.24,3-.06,14.77-11.93l-.12-.12C842,419.87,840.27,423.49,840.27,426.4Z"/><path d="M894.43,420.23l.47,2.61c-3.14,2.79-9.25,10.09-13.58,10.09-2.26,0-3.33-1.9-3.33-3.92,0-3.56,3.21-7.47,5.11-10.2l-.12-.12a47.06,47.06,0,0,0-9.14,9.08c-.89,1.12-3.08,4-4.69,4-2.6,0-3.26-3.74-3.31-5.75-.18-4.1,3.55-10.09,7-13a3,3,0,0,1,2.32-.71c3.56.12,3.26,1,3.26,1.31,0,2.31-7.48,8.3-7.48,9.73a.66.66,0,0,0,.66.65c.41,0,.95-.54,1.19-.83,4.74-6.06,15.66-13.35,17.37-13.35.24,0,.6.3,1,1.13a14.11,14.11,0,0,1,.89,3.2c0,2.31-7.3,6.82-7.3,10.92a1.1,1.1,0,0,0,1.07,1.06c1.42,0,4-2.07,5.1-3Z"/><path d="M909.78,423.38l-.11-.12C907.53,425.63,901.3,431,898,431s-4.45-4.33-4.45-6.94c0-7.77,12.93-14.06,17.5-14.48.83-.06,3.15.18,3.15,1.48,0,1.07-1.19,1.9-2,2.44l-6.75,3.67c-3.75,2-8.13,3.68-7.6,8,.06.48.41.6,1,.6,1.66.18,5.28-1.25,7.54-3.68l6.34-7c.6-.65,1.3-1.66,2.26-1.66,1.18,0,2.25,2,2.25,3a8.49,8.49,0,0,1-1.24,3l-4.45,8.31.11.11,9-6.46L921,424l-12.51,9.37c-6.23,9.91-11.45,13.71-13.76,13.71a1.36,1.36,0,0,1-1.37-1.43c0-4.27,9-11.74,12.28-14.12Z"/><path d="M937.07,416.2c1.24-1.13,7-6.77,8.53-6.77.48,0,1.13.18,1.37,3.27.12,1.42-1.48,2.79-2.43,3.62-1.9,1.71-6.11,6.4-6.11,9.07,0,.95.53,1.31,1.48,1.31,2.26,0,7.36-4.16,9.14-5.58l.35,2.55c-3,2.91-9.31,9.73-13.7,9.73-2.2,0-3.5-1.84-3.5-3.92a14.15,14.15,0,0,1,1.24-5l-.12-.12c-2.3,2-6.28,7.36-9.54,7.36-2.91,0-4.52-3.32-4.52-5.87,0-5.76,4.45-11.69,8.25-14.18a4.39,4.39,0,0,1,2.62-.65c.82,0,3.85-.54,3.61,1.24-.12,1-1.72,2.61-2.37,3.15a21.07,21.07,0,0,1-4.51,4.27c-1.84,1.3-3.26,2.61-3.26,5.1,0,.3.06.89.48.89,1.06,0,4.32-1.72,7.11-4.21Z"/><path d="M976.33,420.23l.48,2.61c-3.15,2.79-9.26,10.09-13.59,10.09-2.25,0-3.33-1.9-3.33-3.92,0-3.56,3.21-7.47,5.11-10.2l-.12-.12a47.06,47.06,0,0,0-9.14,9.08c-.89,1.12-3.08,4-4.68,4-2.61,0-3.26-3.74-3.32-5.75-.18-4.1,3.55-10.09,7-13a2.94,2.94,0,0,1,2.31-.71c3.56.12,3.26,1,3.26,1.31,0,2.31-7.47,8.3-7.47,9.73a.66.66,0,0,0,.65.65c.42,0,1-.54,1.19-.83,4.74-6.06,15.66-13.35,17.38-13.35.23,0,.6.3,1,1.13a14.11,14.11,0,0,1,.89,3.2c0,2.31-7.29,6.82-7.29,10.92a1.09,1.09,0,0,0,1.06,1.06c1.42,0,4-2.07,5.1-3Z"/><path d="M1035.22,420.35c0,3.38-7.29,11.39-23.25,12.28-4.27.24-10.21-1.19-10.21-6.58,0-1.9-.29-2.2,6.58-11.28-1.65-.12-5.45-.29-5.45-2.31,0-2.55,8.3-2.67,10.08-3.2,3.86-3.74,7.78-8.73,13.71-8.73-.42,1-.83,1.79-5.76,7.54,13.41-1.84,16.55-5.87,16.43-7.48,0-1.3-1.71-3.38-8.6-2.9a72,72,0,0,0-16.67,4.15c.36.18.83.42.83.89,0,.89-1.36,1.24-2.13,1.37a41.84,41.84,0,0,0-8.25,2.25,5.84,5.84,0,0,1-1.84.41c-1,0-1.48-.59-1.48-1.6a14.83,14.83,0,0,1,2.73-5c1.24-1.66,3-3.92,5-4.69,5.76-2.19,16.85-4.51,23-4.51,10.2,0,12.64,4,12.64,7.24,0,9.61-18,12-24.92,13.41l-1.19,1.07C1020.69,413.47,1035.22,414.65,1035.22,420.35Zm-24.68-1.07c-.77.83-2.07,2.14-2.07,3.38,0,2.55,4.69,3.27,6.58,3.27,5.28-.06,13.47-3.92,13.47-6.29,0-3.09-12.22-4-14.66-4Z"/><path d="M1047.79,427.94c-1.13.89-4.93,4-6.3,4-1.66,0-5.09-3.92-5.21-7-.25-7.42,15.18-15,22.06-15.19a3.65,3.65,0,0,1,3.86,2.85c0,.71-1.54,1.3-2.08,1.48a2.39,2.39,0,0,1,1.73,2.43c0,1.9-5.17,6.05-5.17,8.84,0,1,.89,1.42,1.84,1.42,2.49,0,5.87-3,8.42-4.74l.48,2.2c-2.55,2.9-10.5,9.25-13.41,9.25-2,0-2.84-1.42-2.84-3.14,0-1.9,1.42-5.05,2.19-6.65l-.12-.12Zm-7.19-1.54c.06.3.3,1.37,1.19,1.19,1.19-.24,3-.06,14.77-11.93l-.12-.12C1042.33,419.87,1040.6,423.49,1040.6,426.4Z"/><path d="M1085.86,423.2c-3.26,3.38-8.84,9.37-13.94,9.37-4.34,0-5.28-4.21-5.28-7.71a29.47,29.47,0,0,1,6.52-17.68c5.22-6.47,10.86-12,12.75-12,1,0,1.26,1.43,1.19,2.2-.41,5.64-1.95,10.86-14.83,23.31a6.6,6.6,0,0,0-.41,4.1c.53,1.36,1.36,2.55,3,2.55,3.26,0,7.83-3.8,10.21-5.93Zm-12.28-7.95c4.21-3.92,7.89-9.61,9-13-2.9,1.42-6.28,6.76-9.07,12.87Z"/><path d="M1101.52,424.27c-2.67,3.26-7.89,8.6-12.4,8.6-3.51,0-5.1-4-5.1-7.06,0-7.24,7.41-14.3,11-14.3,1,0,2.61.36,2.61,1.66,0,3-5.87,8.25-8.36,10-.47,2.43.42,3.74,3.14,3.74,3.14,0,6.23-3.15,8.6-4.87Zm-5.7-16.5c0-2.43,2.85-4.56,5.16-4.56a1.87,1.87,0,0,1,2,1.83c0,2.38-2.19,5.28-4.75,5.28A2.38,2.38,0,0,1,1095.82,407.77Z"/></svg>