<svg id="Layer_1" data-name="Layer 1" xmlns="http://www.w3.org/2000/svg" viewBox="0 0 1106.13 743.43"><defs><style>.cls-1{fill:#05662c;}.cls-2{fill:#f66013;}.cls-3,.cls-4{stroke:#05662c;stroke-miterlimit:10;}.cls-4{stroke-width:0.75px;}</style></defs><title>bank-bpd-bengkulu</title><path class="cls-1" d="M73.4,447.12V412.58c10.74,0,21.21.05,31.68,0,9.29-.07,18.63.26,27.86-.56,11.28-1,18.75-10.67,18-22-.76-11.66-9.44-20.06-20.95-20.11-16.82-.08-33.65-.06-50.48-.08H73.74V335.24h5.72c16.65,0,33.29,0,49.94,0,12.43,0,21.51-9,21.54-21.16,0-12.5-8.53-21.33-21.15-21.42-20.22-.13-40.45,0-60.68-.12-8.77-.05-15.25-5-17-12.68-2-8.57,1.33-16.36,9.14-20.31a17.76,17.76,0,0,1,7.73-1.69c20.94-.15,41.9-.75,62.81.05,21.78.84,38.27,11.53,47.63,31.32,9.56,20.21,7.62,40.07-5.35,58.39-2.76,3.89-2.87,6.06,0,10,23.16,31.19,8.49,76.33-28.5,87.58-6.05,1.85-12.68,2.29-19.06,2.42-16.82.32-33.65.11-50.47.09A16,16,0,0,1,73.4,447.12Z"/><path class="cls-2" d="M114.8,408.24H104.67c-15.21,0-30.43-.21-45.63.05-15.76.26-25.57,13.23-21.54,28a20.6,20.6,0,0,0,19.65,15.34c20.58.12,41.17,0,61.75.11,9.13,0,16.32,6.2,17.22,14.46.95,8.68-3.89,16.9-11.88,18.62-5.17,1.12-10.65,1.15-16,1.13-18.06-.05-36.12-.2-54.18-.57-20.2-.42-41.68-16.61-47.62-35.9-6.18-20.07-3.91-38.8,9.88-55.32,2.7-3.22,0-5-1.43-6.89-9.79-13-13.12-27.52-11-43.48,3.53-26.41,27-46.91,53.65-46.86,17,0,34,.12,51-.09,4.78,0,6.48.77,6,6.29-.74,7.59,0,15.33.39,23,.17,3.74-1.23,4.95-5,4.91-16.29-.16-32.57,0-48.86-.1-8.73-.05-16.31,2.12-21.16,10.06-4.62,7.55-4.56,15.17-.28,22.86s11.49,10.43,19.76,10.51c15.93.16,31.86,0,47.79,0,7.69,0,7.66,0,7.63,7.5C114.77,390.45,114.8,399,114.8,408.24Z"/><path class="cls-3" d="M827.15,340.53c.22-3.86.36-6.43.53-9.39H845.8c.16,2.11.47,4.17.47,6.24q.06,27.64,0,55.3c0,32.52-24.17,48.48-54.82,36.37-7.5-3-16.35-11.86-15.2-20.11,5.52,0,11.18-.12,16.82.12,1,0,2.45,1.36,3,2.44,4,8,11.21,8.13,18.47,7.43,6.65-.65,10.74-5,12-11.36,1-5.1.85-10.41.61-15.91a28.46,28.46,0,0,1-22.27,10.43c-14.21.19-24.4-6.67-29-20.16a48.73,48.73,0,0,1,0-32.12C784,326,813.92,321.77,827.15,340.53Zm-34.54,22.65c.45,4.17.54,7.05,1.1,9.82,1.78,8.83,7.18,13.88,14.93,14.22,9,.39,15.93-4,17.44-13.11,1.06-6.43.41-13.42-.86-19.89s-6.4-10.06-13.19-10.53c-8.25-.58-13.57,2.09-16.53,8.93C793.91,356.3,793.34,360.41,792.61,363.18Z"/><path class="cls-3" d="M558.58,338.79c4.43-2.9,7.69-5.8,11.49-7.39,16.3-6.84,32.57-.15,39.24,16.31,5.62,13.87,5.72,28.07-1,41.56-9.61,19.31-32.91,22.8-48.52,7.76-.22-.22-.64-.22-1.5-.49-.26,2.43-.51,4.78-.79,7.42h-18c-.11-1.7-.3-3.25-.3-4.8,0-27,.09-54-.12-81,0-4.2,1.26-6.71,4.91-8.42,4.64-2.18,9.19-4.54,14.58-7.21Zm35.59,28.88c-1.23-5.17-1.76-9.86-3.48-14.06-2.53-6.2-7.29-9.86-14.43-10s-12.12,2.9-15,9.08c-4.52,9.53-4.47,19.39-.37,29,2.54,5.94,7.2,9.59,14.07,9.83s12.37-2.66,15.09-8.93C592.08,377.8,592.88,372.46,594.17,367.67Z"/><path class="cls-3" d="M925.58,404.28c-7.65,0-14.09.21-20.5-.14a7.33,7.33,0,0,1-4.92-3c-5.83-9-11.36-18.16-17-27.27-.45-.73-1-1.38-1.76-2.31-5,3.35-9.21,6.45-8.44,13.51.67,6.15.14,12.42.14,18.92H853.42c-.08-1.8-.24-3.53-.24-5.25,0-27,.07-54-.1-81,0-3.69,1-6,4.3-7.63,4.92-2.34,9.75-4.9,15.51-7.81v53.92l1.2.74c2.11-2.21,4.21-4.43,6.33-6.64,2.85-3,6.31-5.54,8.46-8.95,7.77-12.35,19.38-11.75,31.22-10.12l-25.74,25.93Z"/><path class="cls-3" d="M691.74,372.15H638.67c.43,7.6,1.62,14.28,8.89,17.41,7.46,3.2,16.11,4.11,21.52-2.28,6.4-7.56,13.51-4.58,20.84-5.21-4.69,20.66-24.56,26.27-41.45,23.37-19.81-3.39-32.32-21.94-29.28-43.14,3.16-22.08,20.93-36.1,42.21-33.31C681.05,331.57,694,349.53,691.74,372.15Zm-20.08-12.44c-.07-10.35-5.94-16.14-15.5-16.33C645,343.16,638,351.5,639,359.71Z"/><path class="cls-3" d="M717.92,404.08H698.48v-73h18.07c.16,3.06.31,6,.5,9.72,2.91-2.75,5-5.42,7.69-7.16,9.43-6.09,19.52-6.61,29.68-2.11,7.15,3.17,11.05,9.3,11.55,16.88.79,11.93.86,23.91,1.12,35.88.14,6.4,0,12.8,0,19.94-6.1,0-11.77.2-17.39-.2-.94-.06-2.4-2.69-2.42-4.16-.2-12.69-.11-25.4-.15-38.1a39.69,39.69,0,0,0-.33-5.87c-1.16-7.63-4.6-11.23-11-11.68-9-.64-14.59,2.56-16.62,10.13A42.75,42.75,0,0,0,718,365C717.83,377.8,717.92,390.65,717.92,404.08Z"/><path class="cls-3" d="M997.68,331.19v72.63H979.3c-.13-2.91-.25-5.69-.4-9a8.33,8.33,0,0,0-2,1.07c-8.43,9.51-20.52,12.64-32.58,8.69-9.13-3-14.2-9.71-14.53-18.67-.68-18.16-.2-36.36-.2-54.84H948.7c0,13,0,25.64,0,38.3a73.22,73.22,0,0,0,.58,10.69c1,6.63,4.31,9.82,10.25,10.66,7.4,1,13.51-1.33,16-7a30.36,30.36,0,0,0,2.42-10.86c.36-11.62.25-23.25.32-34.88,0-2.13,0-4.25,0-6.81Z"/><path class="cls-3" d="M1054.11,330.75v38.81c0,2,0,3.94.05,5.9.32,10.22,4.24,15,12.54,15.49,9.56.51,15.64-4.31,16.24-14.51.74-12.66.4-25.38.48-38.07,0-7.63,0-7.63,7.41-7.63h12.11v73.09h-18.12c-.21-3-.42-5.88-.72-10-6.88,9.26-15.36,12.69-25.64,12.29-13.45-.51-22.27-7.12-23.23-20.38-1.25-17.27-.76-34.67-.79-52,0-1,2.1-2.74,3.31-2.81C1042.9,330.57,1048.09,330.75,1054.11,330.75Z"/><path class="cls-3" d="M233.73,302.46v38.41c6.56-8.78,14.41-11.59,23.3-11.8,14.12-.33,24.63,5.87,30.44,18.68,6.75,14.91,6.27,30.08-2.17,44.19-9.27,15.52-34.61,20-50.94,3.38-.34,3.16-.61,5.78-.92,8.66H222.56c-.12-1.37-.36-2.89-.37-4.4,0-28.78.06-57.56-.05-86.33C222.11,305.57,228.9,306.39,233.73,302.46Zm-1.14,63.78c1.09,5.65,1.54,10.32,2.94,14.67,3,9.45,10.47,14.58,20.6,14.87s17-3.82,20.6-13c4-10.19,4.2-20.64-.31-30.75-3.46-7.74-9.54-12.23-18.28-12.77-9.49-.58-17,2.82-21.08,11.51C234.71,355.8,233.89,361.55,232.59,366.24Z"/><path class="cls-3" d="M309.15,352.77h-9.86c-1.07-9.07,4.36-17.4,14.09-21a46.88,46.88,0,0,1,30.54-.77c8.57,2.61,12.82,8.44,13,17.58.19,13.23.26,26.47.07,39.7-.08,5.15.75,8.72,7.47,7.2-.37,4.24,2.3,8.77-4.25,10.06-7.79,1.54-11.83-1-14.83-10.37-6.47,6.71-14.3,10.45-23.32,10.47a44.23,44.23,0,0,1-15.67-2.44c-8.35-3.21-11.12-10.42-10.81-19.07.31-8.91,4.69-15.19,12.92-17.8,7.6-2.42,15.64-3.48,23.5-5.12,1.57-.33,3.18-.48,4.74-.85,6.29-1.46,8.85-4.09,8.84-9,0-5.6-3.24-10.53-8.81-11.24a51.9,51.9,0,0,0-16.41.34C313.33,341.83,312.43,343.52,309.15,352.77Zm36,14.35c-6.34,1.14-12.12,2.08-17.86,3.25-4.35.89-8.83,1.61-12.92,3.24-5.17,2.06-7.22,6.72-6.53,12.82.56,5,3.89,7.72,8.31,8.67,6.95,1.47,13.91,1.21,20.3-2.52,4.49-2.63,8.1-6.19,8.61-11.6C345.45,376.39,345.1,371.73,345.1,367.12Z"/><path class="cls-3" d="M503,331.31c-8.7,8-16.6,15.42-24.78,22.55-2.89,2.51-3.25,4.29-1,7.52,9,13.09,17.77,26.38,26.61,39.6.56.83,1.07,1.7,2.05,3.28-4.67,0-8.58.27-12.41-.14-1.41-.15-3-1.67-3.92-3-6.86-10.24-13.57-20.59-20.34-30.9-1-1.46-2-2.89-3.37-4.91-3.85,3.58-7.49,6.71-10.76,10.17-.91,1-1,2.95-1,4.47-.1,7.84-.05,15.69-.05,23.92H442.43V398q0-40.26,0-80.51c0-10,.5-10.62,11.32-13.89v59.64c2.39-1.94,3.89-3,5.2-4.24,7.63-7.29,15.79-14.13,22.64-22.09C487.48,330.07,494.26,330.11,503,331.31Z"/><path class="cls-3" d="M432.21,404H421.5c0-7.37,0-14.47,0-21.57,0-8.4.05-16.8,0-25.21-.14-15.34-10.25-22.06-24.76-16.51-7.57,2.89-12.68,10.66-12.77,19.95-.13,12.69-.05,25.38-.05,38.08,0,1.58,0,3.16,0,5.15H372.69v-72.6H383v10.6a18.24,18.24,0,0,0,2.73-2.15c8.31-10.92,19.57-12.47,31.79-9.39,8.63,2.17,14.22,8.39,14.49,17.26C432.6,366.12,432.21,384.69,432.21,404Z"/><path class="cls-3" d="M1026.63,302.31V403.84h-19c-.1-1.48-.3-3-.3-4.57,0-27.34,0-54.69-.09-82,0-3.47.85-5.7,4.08-7.2C1016.26,307.75,1021.05,305.15,1026.63,302.31Z"/><path class="cls-4" d="M229.23,418.91V425h5.55V428h-5.55v11.5c0,2.64.75,4.14,2.91,4.14a8.33,8.33,0,0,0,2.25-.27l.17,2.91a9.45,9.45,0,0,1-3.43.53,5.38,5.38,0,0,1-4.19-1.63c-1.1-1.15-1.5-3-1.5-5.55V428h-3.3V425h3.3v-5.11Z"/><path class="cls-4" d="M259.76,446.36l-.31-2.69h-.13a7.93,7.93,0,0,1-6.52,3.17c-4.32,0-6.52-3-6.52-6.12,0-5.15,4.58-8,12.82-7.93v-.44c0-1.76-.49-4.93-4.85-4.93A10.62,10.62,0,0,0,248.7,429l-.88-2.55a13.19,13.19,0,0,1,7-1.9c6.52,0,8.11,4.45,8.11,8.72v8a30.54,30.54,0,0,0,.35,5.11Zm-.58-10.88c-4.22-.09-9,.66-9,4.8a3.43,3.43,0,0,0,3.66,3.7,5.28,5.28,0,0,0,5.15-3.57,3.85,3.85,0,0,0,.22-1.23Z"/><path class="cls-4" d="M278,430.81c0-2.2,0-4-.17-5.77h3.43l.22,3.52h.09a7.85,7.85,0,0,1,7.05-4c2.95,0,7.53,1.76,7.53,9.08v12.73h-3.88V434.07c0-3.44-1.27-6.3-4.93-6.3a5.51,5.51,0,0,0-5.2,4,5.81,5.81,0,0,0-.26,1.81v12.82H278Z"/><path class="cls-4" d="M329.62,425c-.09,1.54-.18,3.26-.18,5.86v12.37c0,4.89-1,7.89-3,9.74s-5.06,2.55-7.75,2.55a13.67,13.67,0,0,1-7.09-1.76l1-2.95a12,12,0,0,0,6.25,1.68c4,0,6.87-2.07,6.87-7.45V442.7h-.09a7.6,7.6,0,0,1-6.78,3.57c-5.29,0-9.07-4.49-9.07-10.4,0-7.22,4.71-11.32,9.6-11.32a7.09,7.09,0,0,1,6.65,3.7h.09l.18-3.21Zm-4,8.41a5.7,5.7,0,0,0-.22-1.76,5.59,5.59,0,0,0-5.42-4.1c-3.7,0-6.34,3.13-6.34,8.06,0,4.19,2.11,7.67,6.3,7.67a5.66,5.66,0,0,0,5.37-4,6.75,6.75,0,0,0,.31-2.07Z"/><path class="cls-4" d="M363.05,425c-.09,1.54-.18,3.26-.18,5.86v12.37c0,4.89-1,7.89-3,9.74s-5.06,2.55-7.75,2.55A13.72,13.72,0,0,1,345,453.8l1-2.95a12,12,0,0,0,6.25,1.68c4,0,6.88-2.07,6.88-7.45V442.7H359a7.62,7.62,0,0,1-6.79,3.57c-5.28,0-9.07-4.49-9.07-10.4,0-7.22,4.71-11.32,9.6-11.32a7.09,7.09,0,0,1,6.65,3.7h.09l.18-3.21Zm-4,8.41a5.41,5.41,0,0,0-.22-1.76,5.58,5.58,0,0,0-5.42-4.1c-3.7,0-6.34,3.13-6.34,8.06,0,4.19,2.11,7.67,6.3,7.67a5.66,5.66,0,0,0,5.37-4,6.75,6.75,0,0,0,.31-2.07Z"/><path class="cls-4" d="M396,440.54c0,2.21.05,4.14.18,5.82h-3.44l-.22-3.48h-.08a8,8,0,0,1-7.05,4c-3.35,0-7.36-1.85-7.36-9.34V425h3.88v11.8c0,4.06,1.23,6.79,4.75,6.79a5.6,5.6,0,0,0,5.11-3.53,5.41,5.41,0,0,0,.36-2V425H396Z"/><path class="cls-4" d="M411.19,415.08h3.88v13.31h.09a7.09,7.09,0,0,1,2.77-2.74,8,8,0,0,1,4-1.1c2.86,0,7.44,1.76,7.44,9.12v12.69h-3.87V434.11c0-3.43-1.28-6.34-4.94-6.34a5.57,5.57,0,0,0-5.2,3.88,4.67,4.67,0,0,0-.26,1.85v12.86h-3.88Z"/><path class="cls-4" d="M481,415.08v25.77c0,1.9,0,4,.18,5.51h-3.48l-.18-3.7h-.09a7.88,7.88,0,0,1-7.27,4.18c-5.15,0-9.12-4.36-9.12-10.83,0-7.1,4.37-11.46,9.56-11.46a7.14,7.14,0,0,1,6.44,3.26h.08V415.08Zm-3.88,18.64a6.89,6.89,0,0,0-.17-1.63,5.71,5.71,0,0,0-5.6-4.5c-4,0-6.38,3.53-6.38,8.24,0,4.32,2.11,7.89,6.29,7.89a5.84,5.84,0,0,0,5.69-4.63,6.85,6.85,0,0,0,.17-1.67Z"/><path class="cls-4" d="M508.06,446.36l-.31-2.69h-.14a7.9,7.9,0,0,1-6.51,3.17c-4.32,0-6.52-3-6.52-6.12,0-5.15,4.58-8,12.81-7.93v-.44c0-1.76-.48-4.93-4.84-4.93A10.62,10.62,0,0,0,497,429l-.88-2.55a13.16,13.16,0,0,1,7-1.9c6.52,0,8.11,4.45,8.11,8.72v8a30.54,30.54,0,0,0,.35,5.11Zm-.58-10.88c-4.23-.09-9,.66-9,4.8a3.43,3.43,0,0,0,3.66,3.7,5.29,5.29,0,0,0,5.15-3.57,4.15,4.15,0,0,0,.22-1.23Z"/><path class="cls-4" d="M526.29,430.81c0-2.2,0-4-.18-5.77h3.44l.22,3.52h.09a7.85,7.85,0,0,1,7-4c3,0,7.53,1.76,7.53,9.08v12.73h-3.88V434.07c0-3.44-1.27-6.3-4.93-6.3a5.5,5.5,0,0,0-5.2,4,5.81,5.81,0,0,0-.26,1.81v12.82h-3.88Z"/><path class="cls-4" d="M582.36,418.91V425h5.55V428h-5.55v11.5c0,2.64.75,4.14,2.91,4.14a8.33,8.33,0,0,0,2.25-.27l.17,2.91a9.37,9.37,0,0,1-3.43.53,5.38,5.38,0,0,1-4.19-1.63c-1.1-1.15-1.49-3-1.49-5.55V428h-3.31V425h3.31v-5.11Z"/><path class="cls-4" d="M618.92,440.54c0,2.21.05,4.14.18,5.82h-3.44l-.22-3.48h-.08a8,8,0,0,1-7.05,4c-3.35,0-7.36-1.85-7.36-9.34V425h3.88v11.8c0,4.06,1.23,6.79,4.76,6.79a5.45,5.45,0,0,0,5.46-5.51V425h3.87Z"/><path class="cls-4" d="M634.16,430.81c0-2.2,0-4-.17-5.77h3.39l.18,3.43h.13a7.36,7.36,0,0,1,6.69-3.92,6.31,6.31,0,0,1,6,4.28h.09a8.67,8.67,0,0,1,2.38-2.78,7.24,7.24,0,0,1,4.71-1.5c2.82,0,7,1.85,7,9.25v12.56h-3.79V434.29c0-4.1-1.49-6.57-4.62-6.57a5,5,0,0,0-4.58,3.53,6.26,6.26,0,0,0-.31,1.94v13.17h-3.79V433.58c0-3.39-1.5-5.86-4.45-5.86A5.79,5.79,0,0,0,638,433.5v12.86h-3.79Z"/><path class="cls-4" d="M679.53,446.36c.09-1.46.18-3.61.18-5.51V415.08h3.83v13.39h.09a7.94,7.94,0,0,1,7.27-3.92c5.29,0,9,4.41,9,10.88,0,7.62-4.81,11.41-9.56,11.41a7.6,7.6,0,0,1-7.14-4h-.13l-.18,3.53Zm4-8.55a7.06,7.06,0,0,0,.18,1.41,6,6,0,0,0,5.81,4.54c4.06,0,6.48-3.3,6.48-8.19,0-4.28-2.2-7.93-6.34-7.93a6.18,6.18,0,0,0-5.91,4.75,7.52,7.52,0,0,0-.22,1.59Z"/><path class="cls-4" d="M731.42,440.54c0,2.21.05,4.14.18,5.82h-3.44l-.22-3.48h-.09a8,8,0,0,1-7,4c-3.35,0-7.36-1.85-7.36-9.34V425h3.88v11.8c0,4.06,1.23,6.79,4.75,6.79a5.48,5.48,0,0,0,5.47-5.51V425h3.87Z"/><path class="cls-4" d="M746.66,415.08h3.88v13.31h.09a7.09,7.09,0,0,1,2.77-2.74,8,8,0,0,1,4-1.1c2.86,0,7.44,1.76,7.44,9.12v12.69h-3.87V434.11c0-3.43-1.28-6.34-4.94-6.34a5.57,5.57,0,0,0-5.2,3.88,4.67,4.67,0,0,0-.26,1.85v12.86h-3.88Z"/></svg>