<svg id="Layer_1" data-name="Layer 1" xmlns="http://www.w3.org/2000/svg" viewBox="0 0 1106.13 743.43"><defs><style>.cls-1{fill:#ec6a29;}.cls-2{fill:#254383;}</style></defs><title>bank-bri-syariah</title><path class="cls-1" d="M1102.94,430.92c-6.07,0-12.14-.25-18.2,0-3,.11-3.56-.94-3.54-3.7.1-15.57,0-31.15,0-46.73a24.38,24.38,0,0,0-2.28-10.63c-2.84-6-7.93-8.44-14.22-8.28-7,.19-12.06,3.7-15.25,9.92a16.06,16.06,0,0,0-1.63,7.63c0,16,0,32.08.08,48.12,0,2.78-.59,3.81-3.56,3.66-5.14-.25-10.31-.16-15.46,0-2.13.06-3-.42-3-2.79q.11-59.46,0-118.91c0-2.21.78-2.68,2.79-2.64,5.38.11,10.77.15,16.15,0,2.48-.07,3.05.81,3,3.16-.1,14.31-.06,28.63-.06,43v4.6a33.56,33.56,0,0,1,16-11.84,28.42,28.42,0,0,1,36.44,17.37c1.09,3,1,6.28,2.69,9.08Z"/><path class="cls-2" d="M3.19,371.74q0-46.22,0-92.43c0-20.45,14.53-35.1,35-35.11q92.45-.06,184.87,0c20.13,0,34.94,14.87,34.94,34.92q0,92.26,0,184.53c0,21.08-14.51,35.59-35.61,35.6q-92.26,0-184.53,0c-20,0-34.65-14.74-34.66-34.72Q3.18,418.14,3.19,371.74Zm24.26-3.07q0,41.74,0,83.47a41.3,41.3,0,0,0,.41,6.49c1.58,9.84,9.1,16.23,19,16.24,9,0,18.09,0,27.13,0a9.78,9.78,0,0,0,4.66-.88,59.31,59.31,0,0,0,17.87-13.69c11.38-13.15,11.25-27-.24-40Q73.9,395,50.47,370.63c-1.76-1.85-2-2.78,0-4.74q22.65-21.75,45-43.78A71.77,71.77,0,0,0,108,306.71c8.68-15.12-2.54-32.62-14-37.16a12.23,12.23,0,0,0-4.35-.88c-15.68,0-31.37-.26-47.05.1-10.6.23-15.17,5.49-15.17,16.1Zm99.24-100.06c2.4,2.84,4.44,5.12,6.34,7.52,11.18,14.09,11.53,28.2,1.11,42.86a85,85,0,0,1-9.38,10.94C112.53,342.14,100.3,354.37,88,366.49c-1.64,1.61-1.57,2.46,0,4.05q10.93,11.4,21.64,23c6.73,7.32,14.26,13.94,20,22.13,13,18.44,10.35,39.62-6.68,53.63-2.39,2-5.08,3.55-8,5.55H215.06a14.06,14.06,0,0,0,1.72,0c1.85-.22,2.19-1,.86-2.41-.63-.65-1.28-1.29-1.92-1.95q-48.58-50-97.22-99.95c-1.75-1.8-1.88-2.64,0-4.48Q137.39,347.8,156,329.25c6.95-6.95,14.06-13.77,19.78-21.86,4.17-5.88,4.47-12.09,1.81-18.56-3.88-9.44-11.93-14.78-20.09-20a3.39,3.39,0,0,0-1.67-.25Zm68,.12c2.54,2.68,4.75,4.82,6.74,7.15,6.43,7.52,9.3,16.2,7.91,26.07-1,7.11-5.35,12.56-9.6,17.93-13.18,16.65-28.3,31.47-43.94,45.76-2,1.83-1.79,2.62-.06,4.4q38.06,38.91,76,77.94c.43.43.75,1.22,1.78.86V399.1q0-57.89,0-115.78c0-9.31-3.94-13.95-13.21-14.49C212,268.34,203.65,268.73,194.73,268.73Z"/><path class="cls-2" d="M375.74,365.36c8.67,2.71,15.65,7,19.51,15.4,5.66,12.25,3,29.31-6,39.26-6,6.62-13.88,8.31-22.17,9.45a172,172,0,0,1-24.32,1.27q-21.48-.11-43,0c-2,0-3.09-.17-3.09-2.7q.12-58.76,0-117.52c0-2.23.82-2.62,2.8-2.62,21.08.07,42.16-.19,63.23.15,12,.19,22,5.06,27.2,16.47,4.95,10.77,4.48,21.57-2.2,31.69C384.91,360.54,380.56,363.07,375.74,365.36Zm-44.63,26.58h0c0,3.32.06,6.64,0,10,0,1.53.26,2.28,2,2.25,6.18-.1,12.37.17,18.54-.14,7.79-.38,12.28-4.9,12.41-11.89.15-7.45-3.57-11.44-11.66-12.35-6.39-.72-12.81-.18-19.22-.37-1.69,0-2.15.66-2.11,2.24C331.17,385.07,331.11,388.51,331.11,391.94Zm0-47.8q0,4.8,0,9.62c0,1.17-.13,2.33,1.66,2.26,6.05-.25,12.14.58,18.16-.51s9-4.88,8.86-11.46c-.1-6.29-3.16-9.88-9.28-10.78-5.8-.85-11.65-.29-17.48-.47-1.55-.05-2,.66-1.93,2.07C331.16,338,331.12,341.05,331.12,344.14Z"/><path class="cls-2" d="M517.83,430.72h-17c-6.07,0-12.14-.14-18.2.07-2.38.09-3.42-.82-4.36-2.82-5.58-11.76-11.26-23.48-16.95-35.2-.95-1.95-2-3.83-3.13-5.71-2.32-4-6-5.7-10.46-6.23-2.54-.3-3.57.32-3.53,3.23.18,12.71.08,25.42.08,38.13,0,2.06-.09,4.12,0,6.18.1,1.77-.5,2.4-2.33,2.38-9.85-.07-19.7-.12-29.54,0-2.58,0-2.33-1.38-2.33-3q0-24.9,0-49.81c0-22.21.05-44.42-.06-66.64,0-2.64.59-3.44,3.35-3.42,19,.14,38,.05,57,.1a77,77,0,0,1,15,1.54c11.24,2.26,18.73,9.05,21.76,20,4.11,14.84,2.39,28.59-9.53,39.73-3.84,3.58-8.63,5.42-13.51,7,.1.39.09.73.2.77,8.44,3,13.05,10,16.77,17.31,5.76,11.41,10.83,23.18,16.18,34.8C517.47,429.47,517.56,429.9,517.83,430.72Zm-73.56-85.59c0,3.42,0,6.85,0,10.28,0,1.32.2,2.17,1.82,2.1,6.7-.25,13.45.65,20.07-1.29,6.31-1.86,9.06-5.6,8.7-12.38-.33-6.24-3.51-9.57-10-10.57-6.14-.95-12.31-.35-18.46-.57-1.66-.06-2.21.52-2.16,2.15C444.33,338.28,444.27,341.7,444.27,345.13Z"/><path class="cls-1" d="M647,345.73c7.7,0,14.9,0,22.1,0,1.29,0,1.77.68,2.13,1.77,5.43,16.82,11.5,33.43,16.66,50.34,1,3.11,1.32,6.43,3.13,9.61,2.18-7.82,4.22-15.4,6.41-22.94,3.56-12.27,7.26-24.51,10.78-36.8.43-1.51,1-2,2.52-2,6.3.07,12.6.1,18.89,0,2.2,0,2.1.77,1.48,2.43-9,24.14-17.8,48.36-27,72.42-4.36,11.38-9.5,22.49-17.44,32-6.68,8-14.9,13.67-25.14,16.28-2.57.65-3.42-.12-3.95-2.5-.92-4.12-2-8.22-3.26-12.23-.7-2.22-.42-3.11,2-3.92a37.16,37.16,0,0,0,22-19.37,6.67,6.67,0,0,0,.17-5.88q-13.63-34-27.08-68C649.92,353.31,648.57,349.71,647,345.73Z"/><path class="cls-2" d="M557.92,369.59c0,19.24,0,38.48.05,57.73,0,2.62-.55,3.53-3.36,3.47-9.16-.19-18.33-.13-27.49,0-2.24,0-3.21-.37-3.2-2.94q.11-58.59,0-117.18c0-2.47,1-2.74,3-2.72,9.28.08,18.56.14,27.84,0,2.64,0,3.2.77,3.18,3.29C557.87,330.64,557.92,350.11,557.92,369.59Z"/><path class="cls-1" d="M983.85,421.05c-8.26,9.13-18,12.45-29.41,11.29C940.05,430.87,930.2,418,932,403.59c1.88-14.83,12.68-21.53,22.83-24.86a74.35,74.35,0,0,1,24.33-3.42c2.72,0,3-1.16,2.76-3.3a13.69,13.69,0,0,0-12.78-12.58c-8.62-.78-16.91.51-24.54,4.67-2.38,1.3-2.85.5-3.39-1.59a86.49,86.49,0,0,0-2.76-8.81c-.78-2,.09-3,1.72-3.73a64.82,64.82,0,0,1,33.33-5.88c8.88.75,16.67,3.57,22.53,10.65s7.37,15.85,7.55,24.72c.31,15,.2,30,.39,45,.08,6.37.23,6.37-6.31,6.37-3.31,0-6.64-.1-10,0-2.07.08-2.86-.74-3-2.74S984.22,423.85,983.85,421.05Zm-1.47-23.58c0-2.38-.14-3.88,0-5.35.3-2.6-1-3.12-3.22-2.89-2.73.27-5.5.2-8.19.63-5.43.86-10.82,2.07-14.64,6.51-3.41,3.95-4.09,8.46-2.42,13.42,1.54,4.58,5,6.66,9.44,7.26a16.71,16.71,0,0,0,10.52-2.18C981.18,410.82,983.06,404.3,982.38,397.47Z"/><path class="cls-1" d="M788.67,421.42a32,32,0,0,1-21.76,11c-14.43,1.26-25.47-5.23-28.93-18.49-3.16-12.15.53-24.2,13.79-31.63,9.75-5.46,20.51-6.94,31.45-6.95,3.54,0,3.94-1.29,3.62-4.19-.7-6.21-5.59-11-12.43-11.69a42,42,0,0,0-24.59,4.58c-2.26,1.21-2.89.8-3.44-1.42a60.45,60.45,0,0,0-2.65-8.84c-.85-2-.16-2.93,1.47-3.71a64,64,0,0,1,33.32-6c6.28.51,12.17,2,17.34,5.7,9.73,6.91,12.45,17.17,12.73,28.24.34,13.05.16,26.11.14,39.17a56.26,56.26,0,0,0,.88,10.93c.45,2.33-.35,2.78-2.41,2.75-4.81-.09-9.63-.11-14.43,0-1.91,0-2.66-.74-2.92-2.51C789.51,426.1,789.77,423.75,788.67,421.42Zm-1.18-23.59c0-2.71,0-4.54,0-6.36.07-1.53-.35-2.37-2.1-2.26-6.25.39-12.52.47-18.42,3.14-7.39,3.36-10.67,11.06-7.65,18.43,2.53,6.17,11.77,8.37,19.09,4.49S788.27,404.93,787.49,397.83Z"/><path class="cls-1" d="M604.65,432.28a69.22,69.22,0,0,1-22.58-4.3c-2.72-1.05-3.59-2.6-2.6-5.43a57.71,57.71,0,0,0,2.45-8.89c.47-2.7,1.53-2.85,3.68-1.77a45.85,45.85,0,0,0,18.76,4.77,23.41,23.41,0,0,0,6.46-.75c4.49-1,7.18-3.58,7.58-7.69s-1.39-7-4.87-9.06c-5-3-10.85-4.17-16-6.79-5.68-2.86-10.89-6.33-14.09-12.06-5.95-10.63-1.23-25.52,10.4-31.71,13.15-7,26.62-5.93,40.09-.65,1.64.65,1.91,1.63,1.46,3.19q-1.53,5.26-2.89,10.56c-.5,1.91-1.28,2.26-3.15,1.35a33.35,33.35,0,0,0-18.95-3.53c-6.91.85-10.74,7-7.68,12.44,1.59,2.82,4.56,4.07,7.39,5.27,6.06,2.57,12.41,4.42,18,8.1,7.9,5.16,11.76,12.47,11.29,21.65-.5,9.8-5.66,16.9-14.56,21.15C618.39,431.19,611.5,432,604.65,432.28Z"/><path class="cls-1" d="M850.14,361c2.4-3.77,4.57-7.56,7.85-10.59a22.94,22.94,0,0,1,18.46-6.44c1.78.17,2.52.82,2.47,2.77-.15,5.26-.08,10.53,0,15.8,0,1.55-.31,2.31-2.15,2-15.21-2.5-23.72,7.58-23.94,21.8-.21,13.62-.11,27.25,0,40.88,0,2.74-.51,3.84-3.52,3.68-5-.26-10.08-.15-15.11,0-2.29.06-3.19-.52-3.19-3q0-39.85-.31-79.7c0-2,.64-2.52,2.53-2.47,4.58.12,9.16.11,13.74,0,1.74,0,2.37.41,2.41,2.28C849.47,352.3,849.86,356.64,850.14,361Z"/><path class="cls-1" d="M892.7,388c0-13,.06-26.08-.05-39.12,0-2.29.36-3.27,2.93-3.18,5.48.19,11,.12,16.47,0,1.9,0,2.57.52,2.56,2.5q-.08,40,0,80c0,2.11-.68,2.76-2.75,2.71-5.26-.11-10.53-.16-15.79,0-2.68.1-3.49-.7-3.46-3.45.15-13.15.07-26.31.07-39.46Z"/><path class="cls-1" d="M916,322.18c0,6.68-5.23,11.57-12.29,11.49s-11.78-4.81-11.78-11.56,5-11.72,12-11.74A11.63,11.63,0,0,1,916,322.18Z"/></svg>