<svg id="Layer_1" data-name="Layer 1" xmlns="http://www.w3.org/2000/svg" xmlns:xlink="http://www.w3.org/1999/xlink" viewBox="0 0 200 138"><defs><style>.cls-1{fill:none;}.cls-2{clip-path:url(#clip-path);}.cls-3,.cls-4{fill:#2356a7;}.cls-3{fill-rule:evenodd;}</style><clipPath id="clip-path"><rect class="cls-1" width="200" height="138"/></clipPath></defs><title>BRI</title><g class="cls-2"><path class="cls-3" d="M8.87,58.4c.36.62,3.11,3.46,3.61,4l3.78,3.85c1.32,1.68,2.22,2.43,2.18,5.42a6.26,6.26,0,0,1-2.93,4.67,4.23,4.23,0,0,1-3.09.74H8.61A3.51,3.51,0,0,1,6,75.85c-.88-.95-.92-1.26-.92-2.91,0-.8-.09-29.56,0-30.44a3.36,3.36,0,0,1,1.58-2.24,4.89,4.89,0,0,1,3-.77c2.72,0,4.56-.31,6.57,1a5.71,5.71,0,0,1,2.63,5c0,2.42-1.32,3.93-2.39,5.23-1.63,2-7.2,6.44-7.63,7.65ZM22.45,39.5a38,38,0,0,1,4.79,0c2.32.48,4.87,2.39,4.9,5a4.63,4.63,0,0,1-1.21,3.77,56.46,56.46,0,0,1-6.12,6.17c-.7.59-3.68,3.4-3.63,3.88L32.56,70c1.29,1.35,6.53,6.35,6.8,7.06H22.78a8.59,8.59,0,0,1,.74-1.15,7.4,7.4,0,0,0,1.33-4.26c0-3.61-1.47-5.31-3.65-7.55l-5.44-5.76a13.66,13.66,0,0,1,1.7-1.94c1.19-1.22,2.9-2.53,3.85-3.57a15.25,15.25,0,0,0,1.69-2,8.61,8.61,0,0,0,1.51-5.9c-.33-3.74-1.82-4.28-2.06-5.37Zm12.49,0c4.86-.08,7.9-.46,7.82,6.31l-.12,6.55c-.07,6.82,0,13.83,0,20.7L28.06,58.26a10.9,10.9,0,0,1,1.72-2l2-1.81c.38-.38.62-.52,1-.89a23.56,23.56,0,0,0,2.82-2.95c1.5-1.92,1.75-2.87,1.76-5.87,0-3.25-2-4.07-2.39-5.23ZM8.19,34.92a8,8,0,0,0-7,4.71,10.39,10.39,0,0,0-.89,4.95V62.21c0,3.87-.11,7.89,0,11.73a8.36,8.36,0,0,0,4.74,7c1.65.86,2.91.85,5,.85H39.41c3.39,0,5.82-2.53,6.94-4.72.86-1.68.87-2.88.87-5V42.72a7.23,7.23,0,0,0-1.53-4.34,8.9,8.9,0,0,0-3.25-2.66c-1.7-.85-2.89-.82-5-.82H14c-1.88,0-4-.08-5.82,0Z"/><path class="cls-3" d="M98.8,70.08l5.75,0,0-15.67c.28.24,3.87,7.51,4,7.81l4,7.86h7.72l0-23.43c-.63-.06-5.22-.08-5.64,0l-.12,15.38c-.19-.2-4.22-8.43-4.77-9.6l-2.89-5.82h-8l0,23.43Z"/><path class="cls-3" d="M157.87,65.65V60.07a15.34,15.34,0,0,1,4.35.3c1.24.34,2.25,1,2.17,2.49a2.56,2.56,0,0,1-2.15,2.52,16.6,16.6,0,0,1-4.36.27Zm0-9.73,0-4.82a18.47,18.47,0,0,1,4,.15,2.18,2.18,0,0,1,2,2.26c0,2.48-4.22,2.62-5.91,2.41Zm-6.27,14.16c.86.1,7.39,0,8.83,0,4.8,0,10.92-1.12,10.16-7.39A5.19,5.19,0,0,0,168,58.66a6.45,6.45,0,0,0-1.74-.47c0-.49.21-.17,1.27-.82,3.57-2.15,3.19-7.6-.19-9.63-2.22-1.33-4.46-1.09-7.35-1.09-1.1,0-7.9-.07-8.38.05V70.08Z"/><path class="cls-3" d="M60.45,60.23a21,21,0,0,1,4.27.12,2.28,2.28,0,0,1,2.11,2.37c0,1.38-.2,2-1.64,2.47a12.75,12.75,0,0,1-4.73.44v-5.4Zm0-9.11a16.49,16.49,0,0,1,3.91.15c1.28.29,1.87.78,1.85,2.24s-.86,1.82-2,2.15a11.85,11.85,0,0,1-3.76.24V51.12Zm-6.28,19c5.24-.2,16.22,1.26,18.44-3.73a8.69,8.69,0,0,0,.45-4,4.79,4.79,0,0,0-4.15-4.12c-.42-.05-.3,0-.4-.2.13-.21,0-.08.36-.18l.38-.1A3.31,3.31,0,0,0,70,57.4a5,5,0,0,0,2.48-3.75c0-2.5,0-4.34-2.55-5.84-2.29-1.33-4.35-1.16-7.28-1.16s-5.67.07-8.46,0V70.1Z"/><path class="cls-3" d="M178.26,51.1c2.48,0,6.93-.24,6,3.42-.51,2-3.77,1.91-6,1.86V51.1Zm-6.27,19h6.26V60.85a4.84,4.84,0,0,1,3.43.62c1.4,1.12,1.95,3.65,2.61,5.51.18.5.35,1,.5,1.52a12.76,12.76,0,0,0,.48,1.6h6.35c.06-.81-2.65-7.86-3.26-9.4-.73-1.85-1.5-1.52-2-2.32A5.37,5.37,0,0,0,190.57,54c.3-3.18-.39-5-2.47-6.15-2.24-1.24-4.58-1.21-7.44-1.21s-5.82-.07-8.66,0V70.09Z"/><path class="cls-3" d="M122.39,70.06l6.26,0V59.51c.81.39,6.27,9.48,7.31,10.41.31.27.91.18,1.45.18,1.05,0,5.81.05,6.43,0,0-.68-3.65-5.24-4.18-5.94-1.49-2-3-3.8-4.48-5.81-.59-.82-.53-.74.1-1.56L141,49.6c.42-.51,2-2.49,2.25-2.93l-7.39,0c-.34,0-1.77,2.14-2,2.48-.84,1.15-1.7,2.29-2.56,3.41-.34.45-2.38,3.25-2.6,3.36v-9.3h-6.26v23.4Z"/><path class="cls-3" d="M85.17,51.56c.24.17,1.83,6,2,6.74a17.09,17.09,0,0,1,.64,2.34H82.1l1.48-4.55c.26-.77.48-1.49.74-2.28.14-.39.26-.79.38-1.13s.22-1,.47-1.12ZM72.48,70.08c1.53.07,3.87,0,5.49,0,.77,0,.75-.2,1-.79a22.71,22.71,0,0,0,1.54-4.21c.88-.11,6.58,0,7.92,0,.61,0,.77-.08,1,.41a32,32,0,0,1,1.08,3.3c.52,1.51.73,1.3,1.61,1.3l5.75,0-8.89-23.4H81.49a36.63,36.63,0,0,0-2.38,5.75c-1.47,3.6-3,8.09-4.47,11.79-.44,1.1-2.11,4.89-2.16,5.88Z"/><polygon class="cls-3" points="199.72 70.1 199.72 46.66 193.47 46.66 193.47 70.09 199.72 70.1 199.72 70.1"/><path class="cls-4" d="M5.43,100.08H6.74V91.22h0l3,8.86H11l3-8.71h0v8.71h1.31V89.66H13.5L11,96.91c-.33,1-.38,1.1-.55,1.67h0A14.26,14.26,0,0,0,10,97L7.49,89.66H5.43v10.42ZM22.6,97.65a2,2,0,0,1-2,1.55c-1.13,0-2.19-.77-2.3-2.57H24c.11-4.07-2.78-4.26-3.42-4.26-2.3,0-3.54,1.7-3.54,4s1.27,3.88,3.61,3.88a3.15,3.15,0,0,0,3.3-2.44l-1.31-.16Zm-4.21-2.07a2.17,2.17,0,0,1,2.15-2.16,2,2,0,0,1,1.9,1.2,3.35,3.35,0,0,1,.21,1Zm7.11,4.5h1.28V89.66H25.5v10.42Zm4.27-5.21c.16-.63.37-1.45,2-1.45,1.87,0,1.86,1.07,1.83,1.88a13.18,13.18,0,0,1-2.3.44c-.83.1-3,.35-3,2.35,0,1.25.91,2.16,2.57,2.16a4,4,0,0,0,2.78-1.1,2.81,2.81,0,0,0,.26.93h1.34c-.41-.73-.41-1.22-.41-3.15V95.22c0-1.32,0-2.85-2.92-2.85S28.67,94,28.52,94.71l1.25.16Zm3.8,1.9A2.35,2.35,0,0,1,33,98.54a2.5,2.5,0,0,1-1.82.71c-1.14,0-1.51-.65-1.51-1.19,0-1,1-1.16,1.79-1.28a13.27,13.27,0,0,0,2.11-.47v.46ZM36.3,103a2.44,2.44,0,0,0,.83.16c1.46,0,1.92-1.23,2.48-2.73,0-.09,0-.16.07-.19l2.88-7.67h-1.3l-1.6,4.38a12.74,12.74,0,0,0-.51,1.73h0a18.12,18.12,0,0,0-.54-1.74L37,92.54H35.64l2.86,7.55a1.88,1.88,0,0,1-.12.31c-.35,1-.52,1.5-1.48,1.5a2.31,2.31,0,0,1-.73-.12L36.3,103Zm8.1-8.1c.16-.63.37-1.45,2-1.45,1.87,0,1.86,1.07,1.83,1.88a13.18,13.18,0,0,1-2.3.44c-.83.1-3,.35-3,2.35,0,1.25.91,2.16,2.57,2.16a4,4,0,0,0,2.78-1.1,2.81,2.81,0,0,0,.26.93h1.34c-.41-.73-.41-1.22-.41-3.15V95.22c0-1.32,0-2.85-2.92-2.85S43.3,94,43.15,94.71l1.25.16Zm3.8,1.9a2.35,2.35,0,0,1-.57,1.77,2.49,2.49,0,0,1-1.81.71c-1.15,0-1.52-.65-1.52-1.19,0-1,1-1.16,1.79-1.28a13.27,13.27,0,0,0,2.11-.47v.46Zm3.26,3.31h1.28V96A3.54,3.54,0,0,1,53,94.42a2,2,0,0,1,1.74-.94c1.58,0,1.58,1.36,1.58,2v4.58H57.6V95.44a3.67,3.67,0,0,0-.34-2A2.53,2.53,0,0,0,55,92.37a2.71,2.71,0,0,0-2.37,1.24h0V92.54H51.46v7.54Zm8.07,0h1.28V92.54H59.53v7.54Zm0-9h1.28V89.66H59.53v1.46Zm7.46,9h3.75a4.78,4.78,0,0,0,3.36-1,5.68,5.68,0,0,0,1.5-4.22,5.47,5.47,0,0,0-1.27-3.88,4.46,4.46,0,0,0-3.75-1.27H67v10.42Zm1.38-9.18h2.18a3.41,3.41,0,0,1,2.51.66,4.1,4.1,0,0,1,1.12,3.22c0,4.08-2.36,4.06-3.58,4.06H68.37V90.9Zm14.12,6.75a2,2,0,0,1-2,1.55c-1.13,0-2.19-.77-2.3-2.57h5.65c.11-4.07-2.78-4.26-3.42-4.26-2.3,0-3.54,1.7-3.54,4s1.27,3.88,3.61,3.88a3.15,3.15,0,0,0,3.3-2.44l-1.31-.16Zm-4.21-2.07a2.17,2.17,0,0,1,2.15-2.16,2.05,2.05,0,0,1,1.9,1.2,3.35,3.35,0,0,1,.21,1Zm7.12,4.5h1.28V96a3.7,3.7,0,0,1,.26-1.54,2,2,0,0,1,1.75-.94c1.57,0,1.57,1.36,1.57,2v4.58h1.28V95.44a3.77,3.77,0,0,0-.33-2A2.54,2.54,0,0,0,89,92.37a2.71,2.71,0,0,0-2.37,1.24h0V92.54H85.4v7.54Zm7.86.62c-.06,2.16,2,2.43,3,2.43a3.3,3.3,0,0,0,2.94-1.36,6.27,6.27,0,0,0,.46-2.71V92.54H98.46v.91h0a2.56,2.56,0,0,0-2.16-1.08c-2.36,0-3.28,2-3.28,3.88,0,2,1.15,3.83,3.26,3.83a2.62,2.62,0,0,0,2.1-1c0,1.5,0,3-2.13,3-1.5,0-1.67-.8-1.73-1.19l-1.23-.19Zm1-4.52c0-1.82.92-2.76,2-2.76.89,0,2.1.64,2.1,2.79a3.3,3.3,0,0,1-.48,2,2,2,0,0,1-1.6.84,1.92,1.92,0,0,1-1.6-.86,3.89,3.89,0,0,1-.47-2Zm8.31-1.31c.16-.63.36-1.45,2-1.45,1.88,0,1.86,1.07,1.83,1.88a13,13,0,0,1-2.3.44c-.82.1-3,.35-3,2.35,0,1.25.91,2.16,2.57,2.16a4,4,0,0,0,2.78-1.1,2.81,2.81,0,0,0,.26.93h1.34c-.41-.73-.41-1.22-.41-3.15V95.22c0-1.32,0-2.85-2.92-2.85s-3.26,1.66-3.4,2.34l1.25.16Zm3.79,1.9a2.39,2.39,0,0,1-.56,1.77,2.52,2.52,0,0,1-1.82.71c-1.15,0-1.51-.65-1.51-1.19,0-1,1-1.16,1.78-1.28a13.27,13.27,0,0,0,2.11-.47v.46Zm3.26,3.31h1.28V96a3.54,3.54,0,0,1,.26-1.54,2,2,0,0,1,1.75-.94c1.57,0,1.57,1.36,1.57,2v4.58h1.28V95.44a3.67,3.67,0,0,0-.34-2,2.51,2.51,0,0,0-2.25-1.11,2.71,2.71,0,0,0-2.37,1.24h0V92.54h-1.15v7.54Zm11.8-3.35a3.27,3.27,0,0,0,.26,1.28c.53,1.28,1.67,2.24,4.17,2.24s3.86-1.38,3.86-3.11c0-2.28-2.19-2.78-4.09-3.2s-2.49-.76-2.49-1.66c0-1.29,1.5-1.55,2.4-1.55,2.15,0,2.46,1.23,2.53,2l1.32-.1c-.07-2.05-1.67-3.13-3.91-3.13s-3.65,1.27-3.65,2.88c0,2.08,2,2.56,3.41,2.88,2.1.51,3.15.77,3.15,2S127.27,99,125.83,99A3.11,3.11,0,0,1,123,97.68a3,3,0,0,1-.28-1.06l-1.3.11Zm15.21.92a2,2,0,0,1-2,1.55c-1.14,0-2.2-.77-2.3-2.57H138c.12-4.07-2.78-4.26-3.42-4.26-2.3,0-3.53,1.7-3.53,4s1.26,3.88,3.61,3.88a3.15,3.15,0,0,0,3.3-2.44l-1.31-.16Zm-4.22-2.07a2.18,2.18,0,0,1,2.15-2.16,2.06,2.06,0,0,1,1.91,1.2,3.66,3.66,0,0,1,.2,1Zm9.87,3.35a2.74,2.74,0,0,1-.56.06c-.71,0-.71-.44-.71-1V93.53h1.27v-1h-1.27V89.9l-1.28.77v1.87h-.94v1h.94v4.34c0,1.25,0,2.31,1.77,2.31a4.11,4.11,0,0,0,1-.12l-.18-1.13Zm6.24,1.15h1.15V92.54h-1.28v4a3.71,3.71,0,0,1-.26,1.57,1.94,1.94,0,0,1-1.74,1,1.42,1.42,0,0,1-1.44-.93,4.89,4.89,0,0,1-.12-1.5V92.54h-1.28v4.67a3.82,3.82,0,0,0,.35,1.94,2.57,2.57,0,0,0,2.22,1.1A2.73,2.73,0,0,0,148.54,99h0v1.11Zm3.13,0H153V89.66h-1.28v10.42Zm8.19,0H161V92.54h-1.28v4a3.71,3.71,0,0,1-.26,1.57,2,2,0,0,1-1.75,1,1.43,1.43,0,0,1-1.44-.93,5.32,5.32,0,0,1-.11-1.5V92.54h-1.28v4.67a3.92,3.92,0,0,0,.34,1.94,2.59,2.59,0,0,0,2.23,1.1A2.73,2.73,0,0,0,159.85,99h0v1.11Zm2.6-2.26c.13.76.5,2.43,3.23,2.43,2,0,3-1.13,3-2.38,0-1.56-1.07-1.86-3-2.37-1.24-.32-1.78-.47-1.78-1.11,0-.86,1.12-1,1.63-1a1.45,1.45,0,0,1,1.66,1.23l1.25-.17c-.1-.58-.35-2.11-3-2.11-1.81,0-2.77,1-2.77,2.17,0,1.57,1.48,2,2.63,2.24l.84.2c.76.19,1.27.41,1.27,1s-.41,1.2-1.73,1.2a1.7,1.7,0,0,1-1.95-1.57l-1.27.19Zm12,2.26h1.38v-4.9h5.41v4.9h1.38V89.66H181.3v4.28h-5.41V89.66h-1.38v10.42Zm11.36-5.21c.16-.63.36-1.45,2-1.45,1.88,0,1.86,1.07,1.83,1.88a12.94,12.94,0,0,1-2.29.44c-.83.1-3,.35-3,2.35,0,1.25.92,2.16,2.57,2.16a4,4,0,0,0,2.78-1.1,2.81,2.81,0,0,0,.26.93h1.34c-.41-.73-.41-1.22-.41-3.15V95.22c0-1.32,0-2.85-2.92-2.85s-3.26,1.66-3.4,2.34l1.25.16Zm3.79,1.9a2.34,2.34,0,0,1-.56,1.77,2.52,2.52,0,0,1-1.82.71c-1.15,0-1.51-.65-1.51-1.19,0-1,1-1.16,1.79-1.28a13.39,13.39,0,0,0,2.1-.47v.46Zm6,2.16a2.93,2.93,0,0,1-.57.06c-.71,0-.71-.44-.71-1V93.53h1.28v-1h-1.28V89.9l-1.28.77v1.87h-.93v1h.93v4.34c0,1.25,0,2.31,1.77,2.31a4,4,0,0,0,1-.12l-.17-1.13Zm1.28,1.15h1.28V92.54H197v7.54Zm0-9h1.28V89.66H197v1.46Z"/></g></svg>