<svg id="Layer_1" data-name="Layer 1" xmlns="http://www.w3.org/2000/svg" viewBox="0 0 1106.13 743.43"><defs><style>.cls-1{fill:#d3001b;}.cls-2{fill:#0056a0;}.cls-3{fill:#184c7a;}.cls-4{fill:#a78a63;}.cls-5{fill:#055399;}.cls-6{fill:#04549b;}.cls-7{fill:#0158a9;}.cls-8{fill:#0a5699;}.cls-9{fill:#1e4c73;}.cls-10{fill:#0f5798;}.cls-11{fill:#0e5797;}.cls-12{fill:#0258a8;}.cls-13{fill:#0659a6;}.cls-14{fill:#0358a7;}.cls-15{fill:#0c5699;}.cls-16{fill:#0759a5;}.cls-17{fill:#cb0720;}.cls-18{fill:#cc051e;}.cls-19{fill:#1f4d73;}.cls-20{fill:#114c81;}.cls-21{fill:#0d5698;}.cls-22{fill:#cb051e;}.cls-23{fill:#05559b;}.cls-24{fill:#155893;}.cls-25{fill:#205687;}.cls-26{fill:#104c83;}.cls-27{fill:#105593;}.cls-28{fill:#1c5d98;}.cls-29{fill:#155188;}.cls-30{fill:#144c7e;}.cls-31{fill:#185994;}.cls-32{fill:#0f4d84;}.cls-33{fill:#255b8b;}.cls-34{fill:#1e5b91;}.cls-35{fill:#08569b;}.cls-36{fill:#0b4d88;}.cls-37{fill:#0258a9;}.cls-38{fill:#155c9b;}.cls-39{fill:#a28b6f;}.cls-40{fill:#285e8f;}</style></defs><title>bank-btn-syariah</title><path class="cls-1" d="M495,444.57c-2.4.81-4.92.78-7.39,1.14-6.67,1-13.34,2.14-20.05,2.8-5,.48-9.83,1.53-14.77,2.15-6.58.81-13.15,1.73-19.72,2.64-5.34.74-10.7,1.46-16.07,2.06-4.61.51-9.19,1.35-13.79,2a27,27,0,0,1-3,.1c-1.88.36-3.85.13-5.68.83-.72.27-1-.13-1.09-.74s.19-1.45.82-1.33c2.18.42,4-1.4,6.13-.84a4.39,4.39,0,0,0-3.26.39,3.48,3.48,0,0,1-1.91.43c-1.29-.2-2.12,0-1.86,1.61.12.78-.64.7-1.12.79-.7.14-1.48-.22-2.11.36-2.51.8-5.16.78-7.74,1.18-4.66.72-9.31,1.53-14,2-5.3.53-10.57,1.29-15.84,2-7.2,1-14.44,1.68-21.6,3.1-4.36.86-8.85,1.08-13.28,1.68s-9.06,1.37-13.6,2c-3.39.47-6.8.79-10.19,1.26-6.7.93-13.42,1.73-20.11,2.72-3.11.46-6.25.8-9.37,1.25-4.14.59-8.25,1.51-12.4,1.92-3.21.32-6.38.85-9.57,1.27-4.68.61-9.36,1.33-14.05,1.92-5.36.67-10.7,1.46-16.06,2.12-4.49.56-8.94,1.47-13.44,1.88-3.42.32-6.77,1-10.19,1.3a11.78,11.78,0,0,0-4.25.84h-2.8a56.41,56.41,0,0,0,1.56-7.43,46.8,46.8,0,0,1,2.91-12.58,25.31,25.31,0,0,1,3.84-6.6c1.74-2.26,2.84-4.91,5.11-6.94,2.82-2.52,5.49-5.13,8.86-6.94,6.72-3.61,13.93-5,21.5-5.14,7.09-.14,14.17-.57,21.26-.84,5.82-.22,11.64-.5,17.46-.79,6.22-.31,12.44-.48,18.66-.81,5.48-.29,11-.43,16.46-.72,6.55-.33,13.11-.48,19.65-.82,6-.32,11.91-.57,17.86-.85,6.3-.29,12.59-.48,18.88-.8,5.7-.3,11.4-.48,17.09-.8,6.15-.35,12.32-.31,18.45-.76,5.76-.42,11.51-.44,17.26-.81,6.22-.4,12.44-.5,18.66-.84,5.62-.3,11.27-.37,16.88-.74s11.11-.5,16.65-.84,11.1-.51,16.66-.76q9.14-.4,18.28-.87c4.95-.25,9.91-.39,14.86-.71,5.69-.38,11.39-.53,17.08-.88,5.28-.33,10.58-.41,15.86-.77s10.72-.55,16.08-.86q3.85-.21,7.72-.32c1,0,1.51.12,1.11,1.47a59.61,59.61,0,0,0-1.32,6.54c-.12.68-.39,1.08-1.12,1.16-4.31.53-8.62,1-12.92,1.62-4.55.62-9.09,1.32-13.63,1.94a30,30,0,0,1-3,.11c-.67.11-1.63.58-1.8-.41-.13-.8.73-1.38,1.53-1.55a5.26,5.26,0,0,0,2.24-.74,11.24,11.24,0,0,1-2.86.73c-.38,0-1,.17-1,.56.06,2.17-1.51,1.7-2.75,1.77a1.18,1.18,0,0,0-.7.33c-2,.35-4.09.8-6.16,1-4,.47-8.06,1.32-12.15,1.47-3.13.21-6.28.24-9.32,1.19a3.27,3.27,0,0,1-2.09-.41,7,7,0,0,0-5.12,0c-.08.08-.2.12-.27.22.22-.14.38-.33.6-.48a6.78,6.78,0,0,1,2.73,0,.75.75,0,0,1,.58.74c0,.44-.39.36-.72.41C497.75,444.17,496.38,444.38,495,444.57Z"/><path class="cls-2" d="M22.39,399.89c-2.92-1.09-5.39-3-8.08-4.49-3.73-2.09-7.42-4.27-11.13-6.41V300.54a8.81,8.81,0,0,0,1.62-.75c1.93-1.81,4.43-2.7,6.65-4,8.39-5,16.84-9.93,25.29-14.84a6.17,6.17,0,0,1,2.46-1.14,2.31,2.31,0,0,0,1.23-.79c4.62-2.77,9.17-5.68,14-8,.91-.58,2.07-.72,2.76-1.65a45.7,45.7,0,0,1,6.9-3.94c.91-.51,1.82-1,2.73-1.58,1.91-1.81,4.44-2.64,6.62-4,1.92-1.24,4-2.29,6-3.42a1.28,1.28,0,0,1,1.49-.14c6.39,3.65,12.82,7.24,19.23,10.86a3.71,3.71,0,0,1,.68.69c.44.45,1.07.52,1.59.81h0c1.58,1.5,3.68,2.12,5.51,3.21l12.5,7.26c.66.38,1.12,1.13,2,1.12h0c.6.52,1.39.71,2,1.21l9.24,5.16c.67.38,1.31.83,2,1.24.37.32.63.81,1.23.78a98.81,98.81,0,0,1,10.78,6.38c.72.94,1.87,1.14,2.85,1.63,2.26,1.09,4.6,2.06,6.39,3.91a6.11,6.11,0,0,1,.15,2.37c0,27.27,0,54.54.08,81.81,0,3.23-1.18,5.22-3.87,6.6a1.76,1.76,0,0,0-.8.57c-4.4,2.65-8.8,5.31-13.22,7.93-.41.24-1.1.83-1.29-.3a4.25,4.25,0,0,1-.54-2.68c0-6.21,0-12.43,0-18.65.1-9.25,0-18.51,0-27.77,0-11.92,0-23.85,0-35.77a4.35,4.35,0,0,0-2.49-4.31c-7.77-4.39-15.45-8.93-23.11-13.51a4.32,4.32,0,0,1-1.55-1.22,1.55,1.55,0,0,1-.21-.59,2.61,2.61,0,0,0-2.15-3.25c-2.09-.37-3.46-1.73-5.13-2.68.13,1,2.34.42,1.58,2.1a1.74,1.74,0,0,1-1.11.29c-3.53-1.28-6.58-3.48-9.83-5.3q-5.83-3.29-11.59-6.72a2.82,2.82,0,0,0-3.28-.05c-11.08,6.28-21.91,13-33,19.22a6,6,0,0,1-1.8.83,2.14,2.14,0,0,0-2,1.38,3.46,3.46,0,0,1-2,1c-.89-.1-1.19.6-1.6,1.18a143.86,143.86,0,0,1-12.39,7.32A5,5,0,0,0,23,315.18Q23,346.59,23,378c.14,6.55,0,13.1.05,19.66A3.35,3.35,0,0,1,22.39,399.89Z"/><path class="cls-3" d="M4.8,299.79a1.49,1.49,0,0,1-1.62.75v-.4Z"/><path class="cls-2" d="M498.63,379a52,52,0,0,1-3.21-10c-1-2.33-.33-4.8-.55-7.19-.12-1.22-1.6-1.81-1.5-3.15-.42.06-.55,1-1.18.39-3.29-9.13-6.49-18.29-9.24-27.6,0-.12,0-.32,0-.35-.27-.14-.15.24-.32.26a30,30,0,0,0-2.32,9.16c-.86,6.35-2.77,12.46-3.73,18.76s-2.82,12.7-4,19.09a2.19,2.19,0,0,1-.36.67c-.6.11-.57.57-.64,1a53.12,53.12,0,0,1-1.24,7,2.63,2.63,0,0,1-.49,1.25c-.56.63-1.4,1-.38,2.29.6.77.27,2.8-1.06,3.82-.47,0-.62.15-.53.65a3.19,3.19,0,0,1,0,1.68,1.84,1.84,0,0,1-.44.44c-1.27,1.84-3.31,1.54-5.06,1.56-7.58.1-15.17.08-22.75,0a3.73,3.73,0,0,0-2.14.26c-.68.45-1.59.39-2.21,1a3.26,3.26,0,0,1-1.08,0,1.28,1.28,0,0,1-1.1-1.6c.45-2.72.85-5.46,1.45-8.15.44-2,.32-4,.85-6,.88-4.14,1.77-8.28,2.64-12.42q2.31-11,4.61-22c1.52-7.27,3.28-14.5,4.49-21.82,1.15-7,3.14-13.77,4.34-20.72,0-.1.18-.17.28-.26.59-.57-.05-1.42.44-2a.57.57,0,0,1,.07-.34c.94-.94.85-2.29.93-3.36.47-5.68,2.36-11,3.3-16.61.29-1.72.1-3.56,1.15-5.11a7.25,7.25,0,0,1,3.13-.41c8.84,0,17.68.07,26.51,0,.74,0,1.64.37,2.14-.59a.92.92,0,0,1,.65-.52c1.2,0,2.41,0,3.6,0,1.42-.24,1.35,1.2,2,1.81,2.72,6.48,4.76,13.21,7,19.88q2.49,7.51,5.2,15c3.45,9.48,6.72,19,9.93,28.61a11.11,11.11,0,0,0,.68,1.3,36.46,36.46,0,0,0,2.09-8.82c.66-4.81,2.21-9.41,2.92-14.18,1.14-7.63,3.51-15,4.45-22.66a11.88,11.88,0,0,1,.4-1.53c0-.43.55-.71.3-1.2a.79.79,0,0,1,.07-.37c.85-.93.31-2.18.75-3.2l.09-.43c.84-2.68,1.27-5.46,1.91-8.19a9.58,9.58,0,0,1,1.4-3.83.79.79,0,0,1,1,.35c0,.08,0,.21.15.24.06-2.06,1.67-1.57,2.8-1.58,7.67-.05,15.33,0,23,0,1.47,0,2.93,0,4.4,0a3.51,3.51,0,0,1,3.49,1.82c-.61,5.71-2.7,11.12-3.53,16.78-.93,6.34-2.67,12.51-4,18.78a5.86,5.86,0,0,1-.86,2.55c-.1,1-.92,1-1.62,1-1.13.09-1.49.69-1.24,1.74s.31,2,.48,2.94c.12.66.17,1.67-.38,1.82-1.9.54-.81,1.74-.78,2.71a10.58,10.58,0,0,1,0,1.49,20.75,20.75,0,0,1,.14-2.95,1.24,1.24,0,0,1,1.24-1.08c.61,0,1,.29.64,1l0,0c-.43.56.08,1.31-.37,1.86-.7.44-.24,1.2-.49,1.76s.1,1.37-.3,2c-1.14,5.17-2.46,10.3-3.38,15.51-1.1,6.23-2.49,12.39-3.87,18.56-.72,3.25-1.53,6.49-2,9.78-.92,5.79-2.5,11.45-3.6,17.21-.29,1.54-.81,3-1.22,4.55l-.33.09-.31-.14c-.86-.65-1.8-.16-2.7-.17-10-.08-19.9.15-29.86-.14a6.2,6.2,0,0,0-2.31.44c-.87.38-1.28,0-1.67-.81-1.3-2.76-1.81-5.79-3-8.6-.42-1-.74-2.12-1.09-3.18-.45-1.35-1.16-2.59.09-3.12-.75.88-1.14.26-1.44-1.13C499.7,381.08,499.66,379.81,498.63,379Z"/><path class="cls-2" d="M334.15,307.75a11.8,11.8,0,0,1,.49-3.19c.8-.79.24-1.91.71-2.78.15-2.75,1.12-5.35,1.59-8a91.21,91.21,0,0,1,2.13-10.37c1.1.23,1.14-.55,1.29-1.29s0-1.42.73-2a5.34,5.34,0,0,1,3.54-1c18.27,0,36.55,0,54.82,0,14.27,0,28.54,0,42.81,0a6.75,6.75,0,0,1,3.52.51.35.35,0,0,1,.11.33c0,.11-.06.17-.09.17-.29,1.62-.59,3.24-.88,4.86-1.48,1-.74,2.67-1.11,4-.12.44-.06,1.07-.58,1.16s-.72-.48-.94-.89c-.09,1.14.7,2.09.62,3.29s-.61,2.26-.81,3.42c-.25,1.43-.6,2.84-.73,4.3a5.79,5.79,0,0,1-.94,3,4.56,4.56,0,0,0-1,3.88c.32,1.54-1.22,1.44-2.23,1.45-3.7.06-7.41.07-11.11,0-6.55-.06-13.11.19-19.66-.13-1-.05-1,.61-1.21,1.2-.88,2.3-1,4.76-1.49,7.13-.77,3.64-2,7.21-2,11a53.77,53.77,0,0,1-2.06,9.21c-.69,1-.41,2.14-.74,3.19-.23,2.95-1.42,5.71-1.77,8.63-.92,7.47-3.34,14.64-4.34,22.1-.56,4.19-1.82,8.28-2.73,12.43-1.08,5-2.13,9.94-3.19,14.91-.18.85-.36,1.56-1.57,1.55-11.92,0-23.84,0-35.76,0a2.93,2.93,0,0,1-.69-.18c2.24-8.6,3.18-17.45,5.55-26a53.74,53.74,0,0,0,1-5.81c0-.43.54-.72.29-1.2a1,1,0,0,1,.08-.38c.85-.92.31-2.17.74-3.2.82-3.69,1.65-7.38,2.44-11.07,1.73-8.16,3.47-16.32,5-24.5,1.17-6.16,2.89-12.21,3.71-18.44-.65-.59-1.41-.21-2.1-.21-9.82,0-19.65,0-29.47,0C335.36,308.73,334.31,309.1,334.15,307.75Z"/><path class="cls-2" d="M41.67,389.8l-.15-.42a3.17,3.17,0,0,1-.55-2.27c0-6.5-.09-13,0-19.5,0-14.37,0-28.74,0-43.11a3.56,3.56,0,0,1,2-3.56c3.84-2,7.39-4.47,11.34-6.25,1-.07,2.11.08,2.59-1.17a1.48,1.48,0,0,1,.94-.57c.44-.14,1.21.29,1.18-.68,2.44-2.22,5.47-3.53,8.25-5.21,3.63-2.21,7.37-4.28,11.11-6.33a2.35,2.35,0,0,1,2.25-.4c.5,1.24,1.64,1.22,2.69,1.38a55.63,55.63,0,0,1,10,5.85c-.44,1.57.95,0,1.07.62A15.65,15.65,0,0,1,99.35,311c.65,1.35,1.9,1.68,3.22,1.88a24.53,24.53,0,0,1,7.21,4.13c.48,1.39,1.69,1.54,2.89,1.72a1.42,1.42,0,0,1,.49.25c1.59,1.14,2.85,2.85,5.11,2.82a1.06,1.06,0,0,1,.9.71,4.32,4.32,0,0,1,.3,1.77c0,14.49.09,29,0,43.47.14,6.29,0,12.58.06,18.87a4,4,0,0,1-.62,2.46c0,7-.09,14-.05,21a2.23,2.23,0,0,1-1.18,2.24l-14.8,8.29c-.51.31-1.18.26-1.62.72-.72.11-1,1.82-2.07.61a3.92,3.92,0,0,1-.57-2.29c0-6.47-.08-12.94,0-19.41-.08-7.6-.1-15.2,0-22.8-.1-7.09-.08-14.18,0-21.26.08-6.73,0-13.46,0-20.19a3.49,3.49,0,0,0-1.92-3.42c-2.56-1.42-5.07-2.94-7.6-4.41a12.15,12.15,0,0,1-2.81-1.89A1.82,1.82,0,0,0,84.43,325a4.05,4.05,0,0,1-2.14-1c-1.48-1.28-2.77-1-4.25.05a19.06,19.06,0,0,1-4.72,2.55,4.49,4.49,0,0,0-2.88,1.83,53.32,53.32,0,0,1-7,4.24,3.75,3.75,0,0,0-2.1,3.69c.07,6.7,0,13.41,0,20.12.09,7.1.07,14.19,0,21.29,0,7.58.1,15.17,0,22.75,0,6.89.29,13.77-.15,20.65-.21.62-.63.87-1.22.52-2.94-1.78-6.1-3.2-8.88-5.19-1.35-1-2-2.46-4.18-2.58-1.61-.09-3-1.9-4.53-2.82-.84-.49-.6-1.55-.61-2.37,0-3.46,0-6.92,0-10.38C41.76,395.51,42,392.65,41.67,389.8Z"/><path class="cls-4" d="M99.18,400.2l0,21.73c-2.79-1.11-5.17-2.95-7.76-4.41q-5-2.83-10-5.72a2,2,0,0,0-2.25,0C73.77,414.9,68.4,418,63.07,421.2a7.83,7.83,0,0,1-2.31,1c-.11-.1-.15-.2-.11-.3s.07-.15.1-.15l.12-21.27c2-1.7,4.38-2.73,6.54-4.13,3.4-2.18,7-4,10.45-6.17a3.56,3.56,0,0,1,4.26-.17c3.7,2.45,7.8,4.22,11.51,6.67C95.45,397.92,97.4,398.92,99.18,400.2Z"/><path class="cls-4" d="M41.54,367.36q0,11,0,22c-6,2.7-11.42,6.46-17.17,9.62a5.71,5.71,0,0,1-2,.89q0-11.06.05-22.1c2.78-1.8,5.88-3,8.65-4.85s5.87-3.36,8.8-5.06C40.39,367.59,40.88,367.19,41.54,367.36Z"/><path class="cls-4" d="M118.87,389.11q0-10.75,0-21.53A2.57,2.57,0,0,1,121,368c5.51,3.05,10.92,6.3,16.55,9.16.24.12.35.39.53.58l-.12,21.67c-1.77,0-2.87-1.38-4.26-2.13-4.19-2.25-8.25-4.73-12.42-7C120.5,389.85,120,388.79,118.87,389.11Z"/><path class="cls-5" d="M340.14,278.52l.13-.38a3.52,3.52,0,0,1,2-.19q50.76,0,101.51,0c.71,0,1.61-.45,2.16.47-.33.89-1.05.8-1.82.8q-49.6-.09-99.22,0c-1.37,0-2.83-.22-4,.8C339.86,280.16,339.83,280.1,340.14,278.52Z"/><path class="cls-6" d="M200.88,396.59c.82,0,.8.62.8,1.2.22,1.27,1.24.77,1.91.77,4.67,0,9.33,0,14,0h61c.92,0,1.88-.24,2.72.38a5.41,5.41,0,0,1,3.89-.83c.85.15,1.84.35,2.45-.75.19-.33.85-.27,1.29,0a.44.44,0,0,1,0,.68,35.85,35.85,0,0,1-10.06,1.71,3.66,3.66,0,0,1-2,.19q-37.26,0-74.53,0c-.66,0-2,.79-1.9-1C200.35,398.14,201.13,397.46,200.88,396.59Z"/><path class="cls-7" d="M340.16,280.13c.88-1.17,2.08-1.23,3.45-1.22q49.9,0,99.83,0a3.87,3.87,0,0,0,2.32-.4.91.91,0,0,1,0,1.21c-13.85-.46-27.69-.14-41.54-.18-19.74-.05-39.49,0-59.23-.07a8.87,8.87,0,0,0-3.95,1.14c-.36.17-.13,1.49-.24,2.27a1.77,1.77,0,0,1-1,1.4c-.65.24-.35-.73-.77-.93-.34-.77.35-1.34.38-2C339.79,281,339.79,280.45,340.16,280.13Z"/><path class="cls-8" d="M401.77,327.76c-.17-1.7.29-3.43-.28-5.12-.26-.77.94-.6,1.05-1.34.4-2.67,1.31-5.26,1.26-8,0-1.85,1.28-3.29,1.42-5.08,0-.29.46-.49.82-.42,5.16.88,10.37.24,15.55.4s10.59-.15,15.89,0c.24,0,2.58.46,1.3-1.68-.81-1.35.47-2.88,1.32-3.8,1-1.14.65-2.34,1-3.48.57-1.92.56-3.95,1.41-5.83.63-1.4-.72-2.75-.7-4.2,0-.46-.75-1.11.07-1.35s.61.62.78,1.07.27.58.49,1a4.18,4.18,0,0,0,.31-2.81c-.38-1.24.06-2.09,1.47-2.22-1,4.31-1.94,8.62-2.87,12.94-.67,3.06-1.33,6.13-1.86,9.21-.24,1.35-.72,1.84-2.18,1.83-10.06-.08-20.13,0-30.19-.07-1.56,0-2.25.31-2.56,2.08-.79,4.57-1.9,9.08-3,13.57C402,325.6,402.65,326.79,401.77,327.76Z"/><path class="cls-5" d="M284.92,278.17l-.81.76a5.32,5.32,0,0,1-2.74.26q-25.81,0-51.63,0c-1.54,0-3,.07-3.64,1.75a2.37,2.37,0,0,0-.72,2.51c.17.75,0,1.3-.8,1.5.59-1.82-.1-3.9,1.12-5.61.23-.73.28-1.43,1.47-1.42,19.07,0,38.14,0,57.2,0A1.21,1.21,0,0,1,284.92,278.17Z"/><path class="cls-6" d="M498.63,379c.82-.06,1.13.3,1.22,1.14a30.39,30.39,0,0,0,.72,3.14l.35-.08c.77-.26.12-1.76,1.1-1.54s-.09,1.43.49,2.08c.2.22,0,.76-.41.63-1.82-.56-.94.56-.78,1.21.85,3.5,2.93,6.59,3.37,10.28a4.85,4.85,0,0,0,1.93,3.15,5.67,5.67,0,0,1,2.9-.39q15.09,0,30.18,0a4,4,0,0,1,2.52.37l0,0c.26.43.15.79-.31.93a3.94,3.94,0,0,1-1.19.05H506.89a2.12,2.12,0,0,1-1.35-.2c-2.12-5.55-3.89-11.23-5.69-16.9C499.44,381.58,499,380.28,498.63,379Z"/><path class="cls-5" d="M457.8,279.73c-.8,3.44-1.88,6.79-1.81,10.41,0,1.21-1.25,2.44-1.26,3.67,0,2.47-1.57,4.66-1,7.3a8,8,0,0,1-.67,3.24c-.21.5-.46.32-.76.22.75-5.22,1.8-10.37,2.95-15.51.71-3.2,1.25-6.43,1.81-9.66a2.91,2.91,0,0,1,.5-1.26,2.14,2.14,0,0,1,1.36-.2h29.59a2,2,0,0,1,1.35.21v.79a4,4,0,0,1-2.33.25c-8.94,0-17.88,0-26.82,0A4.28,4.28,0,0,0,457.8,279.73Z"/><path class="cls-9" d="M445.78,279.74c0-.4,0-.8,0-1.21-.58-.69-1.37-.38-2.06-.38q-51.72,0-103.43,0c.47-.73,1.21-.39,1.82-.39q51.06,0,102.11,0h2.63c-.93.85-.31,1.78-1,2.36C445.8,280,445.79,279.86,445.78,279.74Z"/><path class="cls-10" d="M152.45,391.79l-.42-.63c1.58.37,2-1.43,3.32-1.82.58-.18,1.34-1.59,1.49-2.7a10.73,10.73,0,0,0,0-1.39V302.84c0-.8,0-1.6,0-2.4.58.46.33,1.11.33,1.67,0,28.17,0,56.34.06,84.51,0,2-.54,3.21-2.4,3.92C154,390.85,153.41,391.66,152.45,391.79Z"/><path class="cls-9" d="M200.47,399c.31,1.32,1.39.79,2.14.79q28,0,56.09,0h20.16c-.5.68-1.23.39-1.85.39q-37.37,0-74.74,0C201.67,400.14,199.93,401.09,200.47,399Z"/><path class="cls-11" d="M60.75,421.78c0,.15,0,.3,0,.45-2.55-.87-4.7-2.48-7-3.81C50,416.26,46.35,414,42.6,411.86a1.66,1.66,0,0,1-1-1.69c0-6.79,0-13.58.07-20.37.56.63.32,1.4.32,2.11,0,5.14-.07,10.27.06,15.4,0,1.37-.93,3.62,2,3.61.43,0-.09,1.56.94,1.61,1.29.07,1.91,1.91,3.61,1.11.77-.37,1.78.18,1.92,1.46a1.77,1.77,0,0,0,1.19,1.47c2.82,1.15,5,3.56,8.16,4.13C59.92,420.7,60.21,421.58,60.75,421.78Z"/><path class="cls-12" d="M567.71,280.89c-1.8-1.59-4-1.36-6.14-1.35q-12.45.06-24.89,0c-1.7,0-3,.12-2.16,2.69-.95-.7-.52-1.88-1.49-2.08-1.09,0-1.1-.05-.33-1.4a2,2,0,0,1,.66-.29c10-.18,20.07,0,30.1-.09a6.69,6.69,0,0,0,3.14-.33c2.55-.22,1.16,1.5,1.23,2.49A1.15,1.15,0,0,1,567.71,280.89Z"/><path class="cls-9" d="M284.92,278.17q-28.62,0-57.24-.07a2,2,0,0,0-2,1.23c-.24-1.83,1.05-1.59,2.16-1.59h34.56q12.09,0,24.17.07c.63,0,1.34-.28,1.88.33Z"/><path class="cls-13" d="M223.68,288.15c2.29,1.36,1.46,3.73,1,5.26a27.67,27.67,0,0,0-.76,5.28c-.16,1.47-.74,2.8-2.66,2.64a1.38,1.38,0,0,1,.09-.39c.68-.71.39-1.57.36-2.39Q222.7,293.34,223.68,288.15Z"/><path class="cls-14" d="M557.84,327.72c-.07-.43-.22-.79-.75-.69s-.72.43-.73,1c0,1.55-.15,3.11-.24,4.89-.92-.61-.63-1.31-.67-1.89a7.49,7.49,0,0,0-.4-2.92c-.59-1.25-.51-1.19.75-1.37.78-.12.87-.94.79-1.6-.11-1-.32-1.95-.52-2.91-.49-2.28-.36-2.51,1.93-2.74.52-.05,1,0,1.36-.49v1.17c-.1.25-.23.55-.46.59-1.56.26-1.33,1.25-1,2.29a6,6,0,0,1,.28,1.51C558.06,325.61,558.54,326.74,557.84,327.72Z"/><path class="cls-15" d="M468.2,394.19c1.09-.85.91-2.2,1.06-3.3s-.91-.36-1.8-.49c3.24-3,3.48-6.83,3.59-10.71,0-.53,0-1.75,1.15-.71-1.47,6.64-2,13.47-4,20-.3.26,0,1.2-.91.78a1.72,1.72,0,0,1-.3-.88,3.05,3.05,0,0,1,.85-2.29h0C468.33,395.86,467.42,394.88,468.2,394.19Z"/><path class="cls-16" d="M492.19,359c.68-.79,1-.38,1.82.4,2.16,2,1.28,4.38,1.19,6.69,0,.49-.68,1.09.67.93.57-.06.09,1.32-.45,1.93A59.88,59.88,0,0,1,492.19,359Z"/><path class="cls-17" d="M496.21,443c.86-.92,4.66-1.2,5.8-.26a1.46,1.46,0,0,0,1.58.35,18.09,18.09,0,0,1,9.13-.85,164.82,164.82,0,0,1-17.7,2.32,16.77,16.77,0,0,1,4.79-1c-1.31-.91-2.5-.42-3.6-.57Z"/><path class="cls-18" d="M390.16,459c.06-.42-.13-1,.71-.83a12.93,12.93,0,0,0,2,.11c.55-.68-.49-1.41.18-2s1.38-.29,2.08-.36a4.18,4.18,0,0,0,1.49-.4c1.85-.94,3.75-1.21,5.63.18-2.58-.39-4.87,1.22-7.41.9-.91-.12-1.12.37-1,1,.26,1.5.59-.06.92,0,1.84.06,3.67,0,5.51,0C396.91,458.11,393.61,459,390.16,459Z"/><path class="cls-9" d="M567.83,280.52c-.24-.86.79-2.36-1.18-2.37a3.86,3.86,0,0,1-2.52.37c-9.66,0-19.32,0-29,0a3.78,3.78,0,0,0-2.51.38l0,0a.25.25,0,0,1-.4,0c0-.93.4-1.23,1.33-1.22,11.19,0,22.37,0,33.55,0C568.79,277.75,568.79,277.81,567.83,280.52Z"/><path class="cls-9" d="M505.54,399.78q17.38,0,34.75,0c.7,0,1.69.43,2-.78l.3,0c.19.87-.15,1.22-1,1.2-1.19,0-2.39,0-3.59,0q-15.17,0-30.35,0C506.89,400.17,506.09,400.56,505.54,399.78Z"/><path class="cls-19" d="M467.4,399.77l.76-.79c.13,1.18-.59,1.23-1.49,1.22l-29.58-.06c-1.26,0-2.53,0-3.79,0-.51,0-1.16.14-1-.76.7-.23,1.28.16,1.89.35h1.19a8.22,8.22,0,0,1,3.7-.53h25.67A3.69,3.69,0,0,1,467.4,399.77Z"/><path class="cls-9" d="M489.82,278.15h-32.3c.21-.47.64-.4,1-.4l35.67.06c.14.07.19.14.14.21s-.09.11-.14.11Z"/><path class="cls-20" d="M334.15,307.75a2.21,2.21,0,0,0,1.9.81c10.28-.13,20.57.2,30.85-.17a3.13,3.13,0,0,1,.92.24s0,.13,0,.19-.09.1-.13.15l-31.38-.08a11.1,11.1,0,0,1-2,0C333.48,308.7,333.81,308.19,334.15,307.75Z"/><path class="cls-21" d="M204.07,382.16c.07,1.9-.63,3.7-.79,5.56-.06.83-1.88,2.31.69,2.58.22,0-.2,1.15.13,1.88s-.52.14-.8.2a1.85,1.85,0,0,0-1.72,1.83,11.23,11.23,0,0,1-.71,2.39c-.71-1.25.12-2.34.47-3.4C202.52,389.58,202.47,385.66,204.07,382.16Z"/><path class="cls-22" d="M531,439.74c.06-.42-.14-1,.7-.83a15.91,15.91,0,0,0,2.31,0c-.91-2,0-2.53,1.72-2.31.76.09,1.17-.55,1.78-.71s1.51-.66,2.12.21c-1.13,1.8-3.83.54-4.82,2.57.42.51,1,.22,1.49.36A14.21,14.21,0,0,1,531,439.74Z"/><path class="cls-23" d="M434.18,399.77a2.67,2.67,0,0,1-1.89-.35A125.82,125.82,0,0,0,435,385c0-.33,0-.67.37-.85.19,2.92-.51,5.75-1,8.58-.09.52,1.17,1.54-.42,1.8-.22,0-.56,1.23-.39,1.39C434.84,397.1,432.27,398.81,434.18,399.77Z"/><path class="cls-5" d="M532.22,278.94h.4c.17.39-.64,1.11.41,1.2a71.52,71.52,0,0,0-2.45,9.33c-.22.91,0,2-1.05,2.65Z"/><path class="cls-2" d="M558.21,324.56c-1.66-2.52-1.47-3.24,1.15-4.39C559,321.64,558.6,323.1,558.21,324.56Z"/><path class="cls-24" d="M107.94,271.75c-2-.85-4.36-1-5.51-3.21A28.93,28.93,0,0,1,107.94,271.75Z"/><path class="cls-25" d="M150.5,296.53c-1.26,0-2.44-.13-2.85-1.63C148.67,295.33,149.79,295.57,150.5,296.53Z"/><path class="cls-20" d="M57.21,269.3c-.39,1.43-1.52,1.64-2.76,1.65C55.11,270,56.29,269.84,57.21,269.3Z"/><path class="cls-2" d="M221.71,298.55c.87.94,1.07,1.79-.36,2.39C221.42,300.14,221,299.26,221.71,298.55Z"/><path class="cls-26" d="M399,340.16c.14-1.09-.91-2.45.74-3.19A6.65,6.65,0,0,1,399,340.16Z"/><path class="cls-27" d="M356.55,363c-.26,1.06.94,2.47-.74,3.2A10.65,10.65,0,0,1,356.55,363Z"/><path class="cls-20" d="M494.21,278.12v-.32c1.63-.21,1.21,1.13,1.47,1.95C494.38,279.94,495.05,278.34,494.21,278.12Z"/><path class="cls-27" d="M529.44,292.55c-.27,1.06.93,2.47-.75,3.2A10.37,10.37,0,0,1,529.44,292.55Z"/><path class="cls-27" d="M209.27,356.93c-.11,1,.84,2.24-.73,2.85A7.07,7.07,0,0,1,209.27,356.93Z"/><path class="cls-20" d="M66.84,263.78a3.66,3.66,0,0,1-2.73,1.58A5.06,5.06,0,0,1,66.84,263.78Z"/><path class="cls-28" d="M122.44,280.13c-1.27.7-1.65-.18-2-1.12C121.36,278.93,121.75,279.8,122.44,280.13Z"/><path class="cls-9" d="M340.16,280.13c-.05.51.09,1.13-.71,1.2.41-.89.06-2,.69-2.81C340.56,279.05,339.92,279.6,340.16,280.13Z"/><path class="cls-3" d="M300.52,279c-.95-.17-2.12.51-2.8-.71C298.56,278.85,299.72,278.2,300.52,279Z"/><path class="cls-20" d="M335.35,301.78c-.28.92.65,2.14-.71,2.78C335,303.65,334.77,302.62,335.35,301.78Z"/><path class="cls-29" d="M136.87,288.52c-.14.28-.37.69-.64.52a1.54,1.54,0,0,1-.59-1.3A1.21,1.21,0,0,1,136.87,288.52Z"/><path class="cls-26" d="M40.43,279c.2,1.2-.44,1.11-1.23.79A1.14,1.14,0,0,1,40.43,279Z"/><path class="cls-20" d="M288.92,398.08c0-.23,0-.45,0-.68.64-.46,1.29.13,1.94,0A3.56,3.56,0,0,1,288.92,398.08Z"/><path class="cls-28" d="M124.44,281.34a2.36,2.36,0,0,1-2-1.21A2.82,2.82,0,0,1,124.44,281.34Z"/><path class="cls-30" d="M298.09,394.94c0-1.45,1.11-.42,1.6-.77A2,2,0,0,1,298.09,394.94Z"/><path class="cls-31" d="M101.22,421.32c.2-1,1-.66,1.62-.72A2,2,0,0,1,101.22,421.32Z"/><path class="cls-27" d="M355.73,366.56c.85.63-.26.78-.29,1.2C355.35,367.31,355.22,366.85,355.73,366.56Z"/><path class="cls-27" d="M208.47,360.15c.9.65-.34.77-.3,1.2C208.08,360.91,208,360.45,208.47,360.15Z"/><path class="cls-14" d="M556.66,333.36c.06-.67-.24-1.39.3-2C556.93,332.05,557.31,332.78,556.66,333.36Z"/><path class="cls-32" d="M482.62,331.3l-.09-.92c.11,0,.29,0,.33,0,.17.3.6.59.09,1A.49.49,0,0,1,482.62,331.3Z"/><path class="cls-14" d="M557.45,329.62c.07-.63-.25-1.33.37-1.86C557.7,328.38,558.09,329.11,557.45,329.62Z"/><path class="cls-27" d="M528.62,296.12c.85.63-.26.79-.3,1.2C528.23,296.88,528.1,296.42,528.62,296.12Z"/><path class="cls-24" d="M102.42,268.54c-.69,0-1.3-.07-1.59-.81A2.63,2.63,0,0,1,102.42,268.54Z"/><path class="cls-33" d="M452.19,304.91c-.08.69.34,1.49-.44,2C452,306.29,451.49,305.46,452.19,304.91Z"/><path class="cls-22" d="M330.06,462.63c4.07-2.1,8.37-.9,12.6-.92C338.5,462.58,334.26,462.25,330.06,462.63Z"/><path class="cls-22" d="M227,444.14c-1.81.66-3.67.43-5.51.46-2.6,0-2.6,0-3.38,2.2-.43-1.31-.43-1.31-1.78-1.91C219.81,443.07,223.44,444,227,444.14Z"/><path class="cls-17" d="M496.21,443c-.47,1.31-1.33.74-2.48.51,1-.74,1.76-.41,2.48-.51Z"/><path class="cls-13" d="M104.43,290.94c-.47-1.07-1.66-1.06-2.46-1.66-.26-.2-.63-.35-.41-.74a.62.62,0,0,1,.86-.2,6.53,6.53,0,0,1,1.38.73,7.72,7.72,0,0,0,4.29,2c1.28.07,2,1.56,2.88,2.54.33.37-.4.57-.53.92A14,14,0,0,1,104.43,290.94Z"/><path class="cls-34" d="M104.43,290.94l6,3.58v.42c-2.64-.92-4.84-2.65-7.25-4Z"/><path class="cls-20" d="M43.57,298.92l-2,1.49A1.58,1.58,0,0,1,43.57,298.92Z"/><path class="cls-20" d="M39.52,301.32a1,1,0,0,1-1.16.75C38.07,300.78,39.15,301.59,39.52,301.32Z"/><path class="cls-2" d="M324.85,298.85c.11-3.08-1.73-6-3.12-8.78a15.34,15.34,0,0,0-6.79-6.49A35.84,35.84,0,0,0,300.52,279c-.86-.52-2,.23-2.8-.71l-9.25-.11c-1.07-.41-2.17-.11-3.25-.19-.51.12-1,.2-1.2.83a1.36,1.36,0,0,0,1,.53c-1.44-.09-2.85-.26-4.28-.25-5.67.06-11.34,0-17,0-11.34,0-22.68,0-34,0-.86,0-2.17-.2-2.33.64-.24,1.15-1.06.56-1.48.93a2.23,2.23,0,0,0-.77,2.08,3.42,3.42,0,0,1-.52,2.21,7.69,7.69,0,0,0-.9,3.21,7.15,7.15,0,0,1,.41,5.49,8.57,8.57,0,0,0-.62,3.66,3.73,3.73,0,0,1-2.21,4,38,38,0,0,0-1.13,3.87c-.92,4.89-2.15,9.71-3,14.63-.66,4-1.81,8-2.61,12-.88,4.36-2.16,8.6-2.66,13.09-.44,4-1.71,8-2.63,12-.32.93,0,2-.73,2.85a.79.79,0,0,0-.07.37c.25.49-.32.77-.3,1.2-.44,3.59-1.78,7-2.08,10.65-.27,3.41-1.73,6.69-2,10.16a57.07,57.07,0,0,0-1.32,6.34c-.08.65-1.12,1.87.68,2.11.21,0,.21,1.16-.25,1.31-2.44.78-1.87,3-2.31,4.68h0c.54.49.28,1.41,1,1.82a4.37,4.37,0,0,0,2.34.34c2.33-.05,4.66,0,7,0h67.15a8.36,8.36,0,0,1,2.39.13c.3.16.63.41.92.28,2.29-1,5-.12,7.18-1.44.67-.21,1.42,0,2.07-.35,2.41-.8,5.1-.77,7.21-2.44.39-.55,1.13-.39,1.6-.77,1-.51,2-1,2.92-1.52a33.91,33.91,0,0,0,14-14.34,42.72,42.72,0,0,0,4-12,25.7,25.7,0,0,0-1-15.59A21.77,21.77,0,0,0,306.48,336c-1.28-.52-2.79-.48-3.9-1.4.11-.44.41-.39.65-.47,6.1-2.07,11.74-4.75,15.95-10a29.22,29.22,0,0,0,5.32-10.77c.6-2.16.05-4.48.57-6.53C325.76,304.1,324.75,301.53,324.85,298.85Zm-38.34-19.49c-.38,0-.75,0-1.12,0A6,6,0,0,1,286.51,279.36ZM281,365.79c-2.4,3-5.71,4.33-9.4,4.87a2.6,2.6,0,0,0-1.49.38c-4,.3-8.11.09-12.16.12-4.53,0-9.06,0-13.59,0-1.54,0-2.09-.61-1.87-2a10.41,10.41,0,0,1,1.39-4.33c.79-2.06.77-4.28,1.19-6.42.62-3.17,1.35-6.32,1.87-9.5a1.27,1.27,0,0,1,1.37-1.16,167.11,167.11,0,0,1,17.48-.1c4.16.25,8.44.26,12.4,2.07,1.74.8,3.29,1.7,4.06,3.56C283.89,357.31,284.07,362.32,281,365.79Zm6.76-48a13.61,13.61,0,0,1-.85,2.31,5.12,5.12,0,0,1-2.74,2.84l-1.63,1a16.67,16.67,0,0,1-4,1.45c-8.05,0-16.1,0-24.15.06-1.65,0-1.75-.73-1.46-1.91,1.13-4.55,1.35-9.29,3-13.72.31-.83-.13-2.2.37-2.63.82-.7,2.15-.24,3.27-.24,4.72,0,9.45-.11,14.17,0a50.39,50.39,0,0,1,8.42.86c2.13.42,3.53,2.15,4.71,3.94.75.7,0,1.75.57,2.5C287.5,315.44,288.13,316.59,287.74,317.81Z"/><path class="cls-35" d="M281,365.79a13,13,0,0,0,1.59-10.53,6.42,6.42,0,0,0-3.64-4.77,23.06,23.06,0,0,0-8-2c-6.84-.47-13.68-.36-20.53-.31-3.08,0-3.7.87-4,4a111.7,111.7,0,0,1-2.34,12.39c-.24,0-.25-.28-.39-.4.46-2.87.8-5.77,1.41-8.61a53.07,53.07,0,0,0,1.55-7.52c0-.57.9-1.28,1.26-1,1.5,1.24,2.8-.19,4.18-.08a2.22,2.22,0,0,1,1.48-.51c4,0,8.09-.24,12.13.11,2-.23,4-.9,6,0h0c-.9.46-2.1,0-3,1,.29.11.46.24.61.22,4.06-.6,7.73,1.09,11.32,2.41,1.48.54,2.29,3,2.63,4.87.21,1.24,1.15,2.48.93,3.52-.33,1.52,0,3.36-.95,4.51a5.56,5.56,0,0,0-1.07,2.15C282,366.07,281.67,366.2,281,365.79Z"/><path class="cls-7" d="M281.31,399h-69c-3.46,0-6.93.05-10.39.11-.44,0-.83.08-.92-.43s.3-.69.66-.88c.46.56,1.09.39,1.67.39q38.46,0,76.91,0C281,398.14,281.41,398.13,281.31,399Z"/><path class="cls-7" d="M226.1,280.93c-.09-1.75.92-2,2.42-2q27.79.06,55.59,0c1.22.1,2.48-.23,4,.39a2.8,2.8,0,0,1-2.07.4c-18.87-.42-37.73-.1-56.6-.16-1,0-2-.3-2.2,1.26C227.18,281.19,226.45,280.51,226.1,280.93Z"/><path class="cls-13" d="M243.7,364.17l.39.4c-.36,1.45-.67,2.93-1.1,4.36s-.19,2.12,1.56,2.11c8.51-.06,17,0,25.54,0-.62.57-1.39.33-2.1.33-7.78,0-15.57,0-23.35,0a21.1,21.1,0,0,1-2.75-.35,1.69,1.69,0,0,1-1.28-2.31c1.62-2,1-4.25,1-6.41,0-.47-.21-1,.48-1s.33.6.36,1a7,7,0,0,0,.1,1.78C242.75,364.5,243.2,365.26,243.7,364.17Z"/><path class="cls-13" d="M287.33,318.15v-4c.13-.17.26-.17.39,0,1.47,1.81,1.21,3.8,1,6-.32,2.75-2.72,3.17-4,4.78-1-.68,1.11-1.62-.57-1.94l2.31-2.81C287.14,319.65,287,318.8,287.33,318.15Z"/><path class="cls-7" d="M265.71,346.57c-1.11.65-2.33.37-3.5.39-3.37,0-6.74,0-10.11,0v-.8h.8a83,83,0,0,1,12.81,0Z"/><path class="cls-35" d="M265.71,346.17H252.9c.52-.61,1.22-.39,1.86-.4q4.55,0,9.09,0C264.49,345.78,265.19,345.56,265.71,346.17Z"/><path class="cls-3" d="M278.56,325.37a21.34,21.34,0,0,1,4-1.45A4.92,4.92,0,0,1,278.56,325.37Z"/><path class="cls-36" d="M287.72,314.15h-.39c-.63-.72-.2-1.62-.43-2.41C288.45,312.12,287.32,313.4,287.72,314.15Z"/><path class="cls-35" d="M271.71,346.57c.45-.13.86-.66,1.36-.14a.33.33,0,0,1,0,.32.9.9,0,0,1-1.33-.18Z"/><path class="cls-35" d="M252.1,346.17c-.49,0-1,.1-1.54-.39.82-.62,1.2-.21,1.54.39Z"/><path class="cls-37" d="M542.22,399c-1.18.39-2.36,0-3.54,0-10.69,0-21.37,0-32.06,0a2.24,2.24,0,0,1,2.77-.95,5.51,5.51,0,0,0,1.78.14H539c.53,0,1.18.14,1.57-.1C541.73,397.33,542,398,542.22,399Z"/><path class="cls-7" d="M467.8,396.59c-.13.8-.27,1.6-.4,2.4a2.46,2.46,0,0,1-1.71.38c-8.94.05-17.87,0-26.8,0-.65,0-1.35.15-1.9-.39.16-1,1-.94,1.69-.93q12.18,0,24.38.13A9.33,9.33,0,0,0,467.8,396.59Z"/><path class="cls-23" d="M437,399H467.4v.78h-32C435.33,398.27,436.49,399.33,437,399Z"/><path class="cls-7" d="M457.8,279.73c.32-1.31,1.39-.77,2.14-.77,9.95,0,19.91,0,29.87,0,0,1.09-.86.6-1.32.6-9,0-18,0-27,0C460.29,279.52,459,279.66,457.8,279.73Z"/><path class="cls-7" d="M468.2,394.19c-.32.77,1,1.8-.4,2.4C467.56,395.73,466.63,394.75,468.2,394.19Z"/><path class="cls-4" d="M60.87,356.06c2-1.07,4-2.1,6-3.22q6-3.45,11.93-7a2.49,2.49,0,0,1,2.94,0c4.54,2.92,9.51,5.13,13.92,8.28a20.12,20.12,0,0,0,3.55,1.63v21.47c-3.09-1-5.69-3-8.47-4.56-3.15-1.78-6.24-3.68-9.44-5.38a2.15,2.15,0,0,0-2.25.08Q70,372.6,60.87,377.77Z"/><path class="cls-38" d="M112.82,319a37.62,37.62,0,0,1,5.59,3.18C115.83,322.36,114.26,320.8,112.82,319Z"/><path class="cls-38" d="M109.63,317.35A8.6,8.6,0,0,1,112.8,319c-1.42.79-2.23-.81-3.44-.89Z"/><path class="cls-30" d="M99.17,311.36c1,.77,2.46.82,3.22,2C101.07,313.09,99.6,313.06,99.17,311.36Z"/><path class="cls-26" d="M55.22,315a3,3,0,0,1,2-1.29C57,314.88,56.38,315.36,55.22,315Z"/><path class="cls-20" d="M80.79,300.67l2.34,1.51C82.11,302.05,80.92,302.19,80.79,300.67Z"/><path class="cls-9" d="M73.17,326.15a5.88,5.88,0,0,1-2.77,1.55A3.83,3.83,0,0,1,73.17,326.15Z"/><path class="cls-20" d="M86.44,325.72l-1.92-1.2C85.32,324.66,86.5,324.18,86.44,325.72Z"/><path class="cls-20" d="M58.09,313.38a1,1,0,0,1,1.15-.78C59.57,313.91,58.47,313.11,58.09,313.38Z"/><path class="cls-20" d="M93.19,307.82c.42.19.91.28,1.14.76C94,308.31,92.89,309.1,93.19,307.82Z"/><path class="cls-39" d="M1057.37,384.16c0-.55.23-1.21-.43-1.6a3.78,3.78,0,0,0-2.15-.24H777.63a3.73,3.73,0,0,0-2.14.24h0a.31.31,0,0,0-.36.35,78.93,78.93,0,0,0,0,13.75h0a2.3,2.3,0,0,0,.36,2.75,3.77,3.77,0,0,0,2.15.23q138.38,0,276.76,0a3.77,3.77,0,0,0,2.15-.23h0c1.26,0,.82-1,.83-1.6C1057.4,393.27,1057.39,388.72,1057.37,384.16Z"/><path class="cls-39" d="M761.67,386.83q0-34.2,0-68.41c0-1.4-.24-2-1.84-2-6.13.09-12.26.07-18.4,0-1.3,0-1.9.35-1.57,1.71V319h0c0,9.66-.11,19.32,0,29,0,1.85-.55,2.18-2.23,2.15-5.93-.1-11.87-.12-17.8,0-1.84,0-2.23-.58-2.22-2.28.08-9.73,0-19.46.1-29.19,0-1.74-.42-2.26-2.22-2.22-5.59.13-11.2.12-16.79,0-1.67,0-2.15.43-2.14,2.11.06,15.92,0,31.85,0,47.78,0,3.69,0,3.69,3.66,3.49a2.77,2.77,0,0,0,1.74.25h36.28a2.61,2.61,0,0,0,1.73-.26h0c.84.49,2-.39,2.73.73a1.88,1.88,0,0,0-.27,1.33q0,11.73,0,23.47a7.86,7.86,0,0,0,.24,1.34h0c-.43,1.91.27,2.52,2.26,2.47,5-.14,10-.08,15,0,1.3,0,1.76-.37,1.73-1.69C761.62,393.9,761.68,390.36,761.67,386.83Z"/><path class="cls-39" d="M816.65,310.72a10.76,10.76,0,0,0,1.92,1.46c.37-.33.73-.63,1.06-.95,1.46-1.43,2.84-3,4.38-4.29a52.83,52.83,0,0,0,5.29-5.29c.89-1,.67-1.61-.13-2.47-2.92-3.13-6.18-5.92-9.12-9-1.4-1.47-2.34-1-3.33.11-3,3.45-6.41,6.39-9.52,9.69-.56.6-.37.7.08,1.19C810.3,304.45,813.76,307.31,816.65,310.72Z"/><path class="cls-39" d="M957.26,301.63c3.39,2.81,6.06,6.32,9.19,9.38,1.24,1.2,2.1,1,3,0,2.7-3,5.74-5.74,8.53-8.67a20.14,20.14,0,0,0,1.58-1.64c.07-.51-.34-.58-.56-.8-1.61-1.63-3.22-3.25-4.82-4.89s-3-3.29-4.65-4.78c-.57-.52-1.24-1.87-2.39-.76-3.36,3.25-6.65,6.55-10,9.77C956.13,300.19,956.46,301,957.26,301.63Z"/><path class="cls-39" d="M998.62,312c.66.72.86.23,1.18-.09q5.3-5.46,10.56-10.95a5.52,5.52,0,0,0,.46-.62c-.26-.42-.26-.9-.75-1.17a9.16,9.16,0,0,1-1.87-1.76c-2.68-2.72-5.42-5.39-8.15-8.06-.36-.35-.68-.76-1.29-.12q-5,5.19-10.1,10.26c-.85.84-.7,1.31.06,2.09C992.07,305,995.39,308.5,998.62,312Z"/><path class="cls-39" d="M787.21,312.62c3.6-3.78,7.06-7.46,10.56-11.1.72-.75,1-1.37.14-2.19q-5-4.95-9.9-9.93c-.48-.49-.82-.49-1.31,0q-5.12,5.16-10.27,10.28c-.58.57-.68,1-.06,1.67C780,305.09,783.58,308.85,787.21,312.62Z"/><path class="cls-39" d="M924.85,311.39c.69.72,1.14.79,1.88,0,3.24-3.31,6.55-6.56,9.82-9.84.31-.31.75-.58.73-1.17a2.93,2.93,0,0,0-.3-.45q-5.34-5.34-10.68-10.68c-.51-.51-.8-.2-1.13.14-3.2,3.19-6.35,6.41-9.6,9.54-1.17,1.13-1,1.93.07,3Q920.31,306.6,924.85,311.39Z"/><path class="cls-39" d="M595.78,369.91q43.1-.06,86.2,0c1.69,0,2.4-.42,1.95-2.13h0v-1.6h0c0-.2.07-.4.07-.6,0-15.8,0-31.61,0-47.41,0-1.71-.8-1.73-2.08-1.73q-23.81,0-47.61,0c-.68,0-1.69.39-2-.47s.41-1.43,1-2.06c1.11-1.28,2.52-2.31,3.58-3.54,3.51-4.08,8.07-6.44,12.82-8.5,6.72-2.92,14-2.94,21.15-3.59a103.2,103.2,0,0,1,11.4,0c1.29,0,1.74-.36,1.73-1.68q-.09-8.61,0-17.21c0-1.43-.48-1.8-1.85-1.77-5.71.11-11.44-.29-17.14.43-2.87.36-5.74.8-8.62,1.1a82.63,82.63,0,0,0-12.58,2.51,49.79,49.79,0,0,0-12.22,4.88A97.59,97.59,0,0,0,618.73,296a35.06,35.06,0,0,0-5.18,5.59,84.35,84.35,0,0,0-6.4,10.3c-1.22,2.16-2.45,4.31-2.26,7.06a92.48,92.48,0,0,1,0,10.79c-.08,2,.39,2.59,2.49,2.58,17.87-.09,35.75,0,53.62-.09,1.58,0,2,.42,2,2-.1,4.6-.12,9.2,0,13.8,0,1.72-.52,2.05-2.13,2.05-19.94-.06-39.88,0-59.82,0-.8,0-1.59.06-2.39.09h-1.2c-.66,0-1.32,0-2-.09-1.06-.08-1.37.46-1.36,1.43,0,5.17.07,10.33.1,15.49h0C594.47,368.09,593.12,369.91,595.78,369.91Z"/><path class="cls-39" d="M729.22,385.09c0-3,.73-3-3-3H600.45c-1.13,0-2.26.05-3.4.08h0c-2.91-.19-2.9-.19-2.9,2.57,0,4.12,0,8.24-.06,12.36,0,1.67.48,2.37,2.17,1.92,1.53,0,3.06.06,4.59.06q63.21,0,126.42.06c1.63,0,2-.51,2-2C729.19,393.09,729.25,389.09,729.22,385.09Z"/><path class="cls-39" d="M778.69,370.29H931.32c1.47,0,2.93,0,4.4,0,1,0,1.34-.4,1.12-1.34,0-.4.31-.79,0-1.2h0c0-.8,0-1.6,0-2.41v-.77q0-23.44.06-46.9c0-.44.11-1-.5-1.16h0l-1.6,0h0l-2.4,0h0l-.8,0c-4.38,0-8.77,0-13.15-.14-1.75-.06-2.23.43-2.21,2.21.08,10.5,0,21,0,31.49h0l-.64.4h0c-1.25-.07-2.5-.22-3.75-.22q-16.7,0-33.4,0a4,4,0,0,0-2.15.22h0c-.76-.13-.63-.72-.63-1.24,0-4.74,0-9.47,0-14.21,0-1.22.47-1.46,1.62-1.65,6.31-1.06,12.55-2.39,18.15-5.79a1.79,1.79,0,0,0,1.1-1.8c0-2.6-.09-5.2,0-7.8,0-1.24-.42-1.61-1.62-1.6q-19.2.06-38.41,0c-1.35,0-1.63.56-1.37,1.7V319h0c0,9.87-.09,19.74,0,29.61,0,1.44-.28,1.95-1.85,1.92q-7-.17-14,0c-1.55,0-2-.35-2-2,.08-9.93,0-19.87.07-29.81,0-1.51-.45-1.95-1.93-1.91-3.84.08-7.65.31-11.48.72a102.53,102.53,0,0,0-20.63,4.15A48,48,0,0,0,787.94,330a39.06,39.06,0,0,0-9.21,10,22,22,0,0,0-3.64,9.63h0c-.74.63-.46,1.49-.46,2.25,0,4.8,0,9.61,0,14.41C774.65,370.28,774.65,370.29,778.69,370.29Zm136.73-19.65.2-.11Zm-121.68-1.85c1.37-4,3-7.59,6.72-10.27a27.72,27.72,0,0,1,9.62-4.7,8.84,8.84,0,0,1,1.33-.31c4.86-.45,4.86-.45,4.85,4.49,0,3.39-.09,6.79,0,10.18.06,1.7-.36,2.38-2.2,2.3-3.12-.15-6.25-.05-9.38-.05s-6.4-.07-9.59,0C793.69,350.51,793.4,349.78,793.74,348.79Z"/><path class="cls-39" d="M1102.89,322.55c0-3.07,0-6.13-.06-9.2h0v-.8h0c0-1.57-1.26-.87-1.92-.87-13.53-.05-27.07-.09-40.6,0-2,0-2.6-.52-2.57-2.54.11-9.67,0-19.33.1-29,0-1.63-.38-2.17-2.1-2.14-5.66.12-11.33.11-17,0-1.58,0-2,.4-2,2,.06,14.86,0,29.73.06,44.59q0,12.41.06,24.8h0c0,.36-.08.73-.13,1.1h0c-5.06,0-10.14-.14-15.2,0-2,.05-2.6-.5-2.57-2.55.11-9.67,0-19.34.1-29,0-1.67-.47-2.27-2.14-2.13-3,.24-5.94,0-8.94.35a111.37,111.37,0,0,0-23,4.45,48.26,48.26,0,0,0-16,8.68c-2.34,1.93-4.76,3.6-6.65,6.18-1.63,2.22-3.56,4.31-5.27,6.54-.68.89-.31,2-1.12,3a8.53,8.53,0,0,0-2,5.83l0,15c0,3.51,0,3.49,3.4,3.49H1055c2.86,0,2.83,0,2.82-2.92,0-10.41,0-20.81,0-31.21,0-1.62.4-2.35,2.27-2.31,5.93.13,11.87.06,17.81.05,2.94,0,2.94,0,2.94,3q0,30.21-.06,60.42c0,1.66.33,2.33,2.19,2.29q8.8-.19,17.61,0c1.91.05,2.43-.44,2.42-2.39C1102.87,372.3,1102.9,347.43,1102.89,322.55Zm-63.32-42.39a1.81,1.81,0,0,1,.1.37h-.1Zm.09.39h0Zm-2.84,70-.12,0Zm-60.48-3.8c3.45-7.87,9.57-12.16,18-13.21,4-.5,4-.42,4,3.59s0,7.86,0,11.79c0,1.19-.28,1.61-1.56,1.58-3.19-.1-6.39,0-9.58,0h-8.39C976,350.43,975.21,349.3,976.34,346.72Z"/><path class="cls-5" d="M532.64,278.92c.2-1.12,1.09-.77,1.75-.77h32.26c-.22,1.1-1.1.77-1.76.77Z"/><path class="cls-40" d="M287.33,318.15c0,.78.16,1.65-.87,2Z"/></svg>