<svg id="Layer_1" data-name="Layer 1" xmlns="http://www.w3.org/2000/svg" viewBox="0 0 1106.13 743.43"><defs><style>.cls-1{fill:#0056a0;}.cls-2{fill:#e31c24;}.cls-3{fill:#a68561;}</style></defs><title>bank-btn</title><path class="cls-1" d="M79.3,329.22a21.51,21.51,0,0,0,10-5.53c3.77-3.52,6.3-8.44,7.65-14.7a44.81,44.81,0,0,0,1-12.09c-.39-6-1.94-10.89-4.7-14.64s-7.89-5.71-15.34-5.71c-3.19,0-5.33.75-6.53,2.18a17.38,17.38,0,0,0-2.6,6.83l-9.87,46.05c10-.76,16.78-1.59,20.43-2.39M51.24,399.8a27.08,27.08,0,0,0,7.86.83q19.58,0,27.05-18a50.12,50.12,0,0,0,3.76-22.24c-.55-9.43-4.23-15.75-10.92-19q-6-2.91-21.45-3.6L47,387.8a21.74,21.74,0,0,0-.56,2.79,23.24,23.24,0,0,0,0,3.53c.17,2.8,1.74,4.68,4.76,5.68M4.45,401.23a16.63,16.63,0,0,0,6-2.21c2.95-2.09,5-6,6.3-11.94l19.77-92q.82-4.11,1.16-6.82a21.51,21.51,0,0,0,.26-4.21c-.21-3.66-1.4-6-3.51-6.91a15.24,15.24,0,0,0-2.85-.91l1.4-6.39H78q23.05,0,36.14,7.3c8.78,4.82,13.49,12.6,14.15,23.43q1,15.72-14.14,25.11c-5.42,3.41-12.75,6.24-22.07,8.53,8.83,3.08,15.13,6.17,18.92,9.2,6.39,5.15,9.87,12.21,10.37,21.13.73,11.3-3.38,21.23-12.14,29.74S85.2,407,63.41,407H3.18Z"/><path class="cls-1" d="M191.81,325.6a7.41,7.41,0,0,0-7.33-4.57q-11.19,0-21.55,26.3c-6.13,15.6-9,27.48-8.54,35.74a15.54,15.54,0,0,0,2.81,8.53,8.09,8.09,0,0,0,6.68,3.62q10.29.09,21.83-27.05,8.1-22.74,7.42-36a17.62,17.62,0,0,0-1.32-6.53m-47,11.12q17.43-24.3,36.67-24.29c5.26,0,9.15,1.53,11.79,4.56,1.56,1.88,3,5,4.41,9.43l8-11.34h17.83L211.29,362c-1.72,6.83-2.94,12-3.62,15.62-1.45,6.88-2.13,11.76-2,14.7a3.3,3.3,0,0,0,1,2.52,2.7,2.7,0,0,0,1.8.69,5.28,5.28,0,0,0,3.43-1.3,23.2,23.2,0,0,0,3.62-3.91l.91-1.07c1.4.92,3.24,2.21,4.8,3.31A81.89,81.89,0,0,1,212,403.22c-4.74,4.61-9.76,6.91-14.86,6.91a15.36,15.36,0,0,1-9.35-3.5c-3.06-2.34-4.71-5.76-4.93-10.33-.08-1.69.59-5.84,1.94-12.45l-.69,1.15c-.66,1.19-1.77,3-3.23,5.29a53.31,53.31,0,0,1-12.18,13.95,24.71,24.71,0,0,1-16,5.68c-5.49,0-10.61-2-15.5-6.12s-7.58-11-8.08-20.73q-1.14-22.6,15.75-46.35"/><path class="cls-1" d="M225.28,407l16-69c.6-2.64,1-4.78,1.3-6.31a32,32,0,0,0,.72-6c-.16-2.47-1-4-2.57-4.62a18.22,18.22,0,0,0-3.7-.76l.95-5.21H271L261,350.56l.53.28c-.31.35,1.51-2.69,5.56-9.1A104,104,0,0,1,278.66,326a51.46,51.46,0,0,1,11.68-9.71,25.7,25.7,0,0,1,13.28-3.71,17.58,17.58,0,0,1,11.19,3.71c3.2,2.47,4.94,6.5,5.25,12.15.27,5.19-2.22,16.64-7.33,34.4S305,390,305.05,391.29a3.71,3.71,0,0,0,1.23,2.83,3.82,3.82,0,0,0,2.26.9c1.66,0,3.92-1.91,6.88-5.73l4.86,3.11a60.81,60.81,0,0,1-5.8,7.51q-8.73,9.33-19.09,9.33A17.38,17.38,0,0,1,285.31,406q-4.47-3.21-4.83-10.13a59.55,59.55,0,0,1,1.45-12.83c1.15-5.6,2.56-11.34,4.28-17.31l8.71-30.65.39-1.88a11,11,0,0,0,.14-1.62,3.47,3.47,0,0,0-1.8-3.16,6.35,6.35,0,0,0-3.37-.92c-4.18,0-8.72,3.24-13.54,9.8a106.74,106.74,0,0,0-11.67,19.44,148.92,148.92,0,0,0-7.83,21.31Q254.18,388.91,250,407Z"/><path class="cls-1" d="M324.28,407s26.81-120.28,27-121.58a17.75,17.75,0,0,0,.24-3.7c-.18-3-1.23-4.92-3.21-5.59a17.57,17.57,0,0,0-3.76-.7l1.22-5.55h33.47L360,357.45c7.45-5.6,14-10.92,19.46-15.9,8.49-7.82,12.69-13.27,12.51-16.35a4,4,0,0,0-3.18-4.11,27.65,27.65,0,0,0-3-.6L387,315l30.13.33-2,7c-5.45.19-5.1.67-18.44,13.33,0,0-9.91,9.38-11.22,10.54l-1,.91c.18.55,1,4,2.51,10.46,1.75,7.44,3.09,12.48,3.94,15.14,3,8.94,5.17,14.79,6.53,17.51s3.31,4,5.68,4,4.63-1.31,6.65-3.92c.2-.27.47-.62.72-1l4.31,3.24a71.06,71.06,0,0,1-6.19,8.8q-6.36,7.6-15.29,7.61a16.33,16.33,0,0,1-11.54-4.49,36.44,36.44,0,0,1-8-12,110.9,110.9,0,0,1-6.06-18.21c-1.57-6.88-2.43-10.62-2.46-11.22l-7.71,5.6L349.29,407Z"/><path class="cls-1" d="M736.71,347.53h23.23c8.86,0,16.39,1.54,16.39,11.76,0,11.13-10.37,13.8-17.91,13.8H731.31Zm-53.33,58h78.7c30,0,56.5-13.1,56.5-46.16,0-12.65-8-24.79-20.76-27.48v-.37H798c16.55-4.4,25.18-15.77,25.18-33,0-19.83-11.14-30.19-40.93-30.19H711.83Zm62.77-104.28h21.68c7.51,0,13.09,1.54,13.09,9.8,0,8.48-8.46,10.95-15.17,10.95H741.9Z"/><polygon class="cls-1" points="854.62 405.48 896.87 405.48 918.03 303.4 956.08 303.4 963.41 268.25 844.99 268.25 837.7 303.4 875.75 303.4 854.62 405.48"/><polygon class="cls-1" points="949.91 405.48 990.08 405.48 1006.02 328.6 1006.39 328.6 1031.56 405.48 1073.08 405.48 1101.93 268.25 1061.73 268.25 1046.36 343.21 1046 343.21 1020.25 268.25 978.32 268.25 949.91 405.48"/><path class="cls-2" d="M667.73,500.14c1.27-4.67.75-4.64,3.87-17.24,2.24-12.42,15.92-31.44,40-33.4,8.22-1,323.86-14.38,391.31-19.11l-2,11.66c-63.55,8.22-351.07,47.2-433.19,58.09"/><polygon class="cls-3" points="529.73 405.5 529.73 430.43 551.34 417.95 572.95 430.43 572.95 405.5 551.34 393 529.73 405.5"/><polygon class="cls-3" points="616.16 405.5 616.16 380.51 551.33 343.08 486.54 380.51 486.54 405.5 551.33 368.03 616.16 405.5"/><polygon class="cls-1" points="464.9 293.19 551.34 243.28 637.79 293.19 637.79 393 616.17 405.5 616.17 305.69 551.34 268.24 486.53 305.69 486.53 405.5 464.9 393 464.9 293.19"/><polygon class="cls-1" points="551.33 293.19 594.55 318.15 594.55 417.95 572.95 430.42 572.95 330.61 551.33 318.15 529.73 330.61 529.73 430.42 508.14 417.95 508.14 318.15 551.33 293.19"/></svg>