<svg id="Layer_1" data-name="Layer 1" xmlns="http://www.w3.org/2000/svg" viewBox="0 0 1106.13 743.43"><defs><style>.cls-1{fill:#047bc1;}.cls-2{fill:#04aa51;}</style></defs><title>bank-bukopin-syariah</title><path class="cls-1" d="M614.9,456.58c.1,27.94-20.94,48-50.46,48-28.6,0-48.78-19.52-49.16-47.65-.37-27.5,21.12-48.05,50.42-48.23C595.64,408.54,614.79,427.17,614.9,456.58Zm-26,3.52c-.18-7.67-1.5-16.29-5.54-24.28s-10.15-13.3-19.53-13.06c-9.73.26-16.07,5.81-19.35,14.6-5.73,15.36-3.45,30.24,5.14,43.69,8.11,12.69,24.2,12.61,33.53.7C587.85,475.71,588.79,468.63,588.87,460.1Z"/><path class="cls-1" d="M387.89,411.72h34.86c-7,7-5,15.37-5.05,23.29-.17,16.48,0,33-.09,49.46,0,6-.1,12,5.5,17.22-9.81,0-18.53,0-27.25,0-1.81,0-2.44-.81-2.4-2.52.06-2.28,0-4.56,0-7.23-2,.41-2.61,2-3.57,3a27.34,27.34,0,0,1-29.78,6.58c-10.42-4.12-15.05-12.28-15.15-23.13-.16-16.63-.09-33.28-.11-49.92,0-5.84.35-11.76-5.57-16.58h34.78c-5.36,5.24-5.24,11.66-5.21,18.11.08,13.41,0,26.81,0,40.22a29,29,0,0,0,1.48,10.45,10.16,10.16,0,0,0,9.42,7,10.31,10.31,0,0,0,10.33-5.63,23.73,23.73,0,0,0,2.74-9.69c1.22-16,.42-32,.52-48.05A15.93,15.93,0,0,0,387.89,411.72Z"/><path class="cls-1" d="M315.87,450.31c13.29,5.62,19.22,15.18,17.43,27.25-2,13.59-11.3,22.7-24.86,23.68-15.16,1.1-30.34.26-46.74.5,5.92-5.23,5.72-11.25,5.71-17.25q0-28.65,0-57.31c0-5.44-.23-10.8-4.79-14.8,1.37-1.29,2.82-.71,4.09-.72,12.79,0,25.58-.16,38.36.09,11.09.21,19,5.74,22.21,14.86,3,8.54.28,16.47-7.3,21.29C318.85,448.62,317.66,449.26,315.87,450.31Zm-23.94,22.54v9.7c0,5.27,1.69,6.79,6.88,6.16A10.93,10.93,0,0,0,308,482c1.65-3.64,1.8-7.45,1.51-11.31-.57-7.62-4.8-11.56-12.45-12.17-3.67-.29-5.87.11-5.22,4.68C292.29,466.33,291.93,469.62,291.93,472.85Zm0-37.25c0,2.61.13,5.23,0,7.82-.15,2.41.76,3.29,3.16,3.16,4.58-.25,8.31-4.41,8.89-10.15s-2.08-10.7-6.51-11.8c-3.74-.93-5.45.32-5.5,4.07C291.91,431,291.93,433.3,291.93,435.6Z"/><path class="cls-1" d="M261.77,273.64c16.42,0,31.78-.47,47.1.16,11.28.46,19.92,11.31,19.21,22.53-.51,8.14-6,12.39-12.78,15.61,22.26,6.61,22,33,8.8,44.55a25.4,25.4,0,0,1-16.82,6.59c-14.91.18-29.83.05-45.45.05,5-4.52,5.39-10.06,5.36-15.82-.08-19.86,0-39.72,0-59.57C267.18,282.71,266.71,277.88,261.77,273.64Zm30,61c0,3.85.13,7.7-.05,11.53-.11,2.58,1.17,3.57,3.4,4a11.06,11.06,0,0,0,12.55-6.35,21.16,21.16,0,0,0,1.55-12.63c-1.37-7.9-7.35-12.19-15.28-11.3-2,.22-2.18,1.23-2.17,2.73C291.74,326.66,291.73,330.66,291.73,334.66Zm0-37.26c0,2.31.16,4.63,0,6.92-.33,3.87,1.52,4.57,4.75,3.62,4.86-1.42,6.66-5.25,7.2-9.73.52-4.29-.34-8.35-4.28-11a6.71,6.71,0,0,0-6.64-.48c-1.84.87-.85,3.05-1,4.65C291.62,293.39,291.73,295.4,291.73,297.4Z"/><path class="cls-1" d="M796.2,411.86h25.21c-8.17,10.7-4.88,22.84-5.16,34.38-.44,18-.22,36.05,0,54.08,0,3.79-1.06,4.6-4.45,3.49-10.62-3.45-20-8.57-26.61-18-8.31-11.85-16.94-23.48-25.45-35.19-1-1.33-2-2.61-3-3.92-.44.34-.83.51-.84.68-.26,14-.49,28,.16,42,.22,4.47,2.46,8.07,5.14,12H736.13c6.85-7.51,5.67-16.3,5.74-24.79.09-11.86,0-23.73,0-35.59,0-10.11,1.17-20.51-8.23-29.37,9.85,0,18.24,0,26.63,0,2.08,0,2.59,2,3.54,3.29q17.49,23.57,34.88,47.18c.9,1.21,1.85,2.37,3.65,4.66v-7.88c0-10.32,0-20.65-.09-31C802.21,422.31,801.12,416.91,796.2,411.86Z"/><path class="cls-1" d="M519.28,501.11c-7.32,0-13.95.07-20.56,0-7.9-.12-13.81-3.62-17.68-10.6-4.33-7.8-8.77-15.54-13.2-23.29-.72-1.26-1.11-2.79-3.39-4.24,2,13.13-3.23,26.28,4.61,38.37h-33.7c6.78-6.81,4.69-15.36,4.78-23.42.19-16.64.07-33.29.09-49.93,0-5.7.18-11.44-5.59-16.1H470c-5.51,5.14-5.26,11.3-5.2,17.44.07,7.06,0,14.13,0,22.65,3.24-4.22,5.68-7.42,8.13-10.62,3.55-4.65,7.13-9.28,10.66-14,5-6.63,4.89-9.18-.83-15.44h31.62c-1.41,1.82-2.45,3.23-3.55,4.59-7.74,9.59-15.44,19.21-23.29,28.71-1.68,2-2.13,3.44-.58,5.91,8.5,13.56,16.78,27.26,25.1,40.94A48.08,48.08,0,0,0,519.28,501.11Z"/><path class="cls-1" d="M572.56,273.65H603.2c.25,1.71-1.22,2.58-2.09,3.66-7.91,9.86-15.79,19.74-23.89,29.43-1.89,2.26-2.12,3.76-.53,6.31,8.42,13.44,16.65,27,24.88,40.55a45.94,45.94,0,0,0,7.95,9.64c-9.93-.14-18.9.56-27.77-1.64-5.39-1.33-8.6-5.21-11.19-9.7-5.13-8.9-10.16-17.86-15.79-26.69,1.36,12.56-4.07,25.74,4.05,37.81H524.46c5.77-4.72,5.4-10.9,5.39-17q0-28.89,0-57.8c0-5.18-.38-10.18-5.15-14.39h34.54c-5.84,5.44-4.78,12.48-4.81,19.29,0,6.29,0,12.58,0,19.35,2.34-1,3.09-2.95,4.23-4.42,4.74-6.07,9.39-12.21,14.06-18.34C578.21,282.51,578.2,280.42,572.56,273.65Z"/><path class="cls-1" d="M427,273.44c9.55,0,17.67.08,25.79-.05,2.37,0,3.15,1.58,4.21,3Q474.4,300,491.81,323.6c1,1.3,2,2.58,3.42,4.48,0-14.93.14-29-.1-43.11-.07-4-2-7.69-5.4-11.15h25.13c-5.49,6-5.6,13.13-5.57,20.4.07,22.49-.08,45,.11,67.47,0,4.3-1.2,4.84-4.95,3.58-10.61-3.57-19.79-8.87-26.4-18.33-9.15-13.09-18.7-25.9-28.12-38.9-1.44,1.09-.83,2.42-.84,3.51,0,11.71.07,23.41,0,35.12,0,5.9,1.18,11.29,5.65,16.2H429.61c7-7.75,5.59-17.16,5.65-26.26.08-12.94-.13-25.88.07-38.82C435.47,289.1,434.62,280.85,427,273.44Z"/><path class="cls-1" d="M356.45,363H329c6.65-6.48,8.7-14.55,11.3-22.37,5.82-17.51,11.57-35,17.55-52.49,1.84-5.37,2.28-10.16-3.82-14.72,11.18,0,21.1,0,31,0,2.69,0,2.45,2.47,3,4q11.06,30.82,22,61.7c3,8.37,5.25,17.1,13.23,23.74h-39.7c4.23-3.38,5.95-7.46,4.26-12.51-1.47-4.38-2.87-8.78-4.4-13.12-.54-1.53-2.06-1.09-3.22-1.1-6.78,0-13.56.07-20.34-.07-2.26,0-3.35.78-3.95,2.87-.81,2.81-1.83,5.55-2.75,8.32C351.28,352.83,349.64,358.34,356.45,363Zm13-66.71c-2.81,8.7-5.1,16.17-7.67,23.56-1.05,3-.24,3.75,2.74,3.59,3.68-.21,7.38-.12,11.07,0,1.93.05,3-.34,2.25-2.55C375.21,313.09,372.56,305.29,369.49,296.32Z"/><path class="cls-2" d="M1046.6,278.29c-.63,11.53-1.28,23.06-1.86,34.6,0,1.09-.81,2.66.76,3.22,1.13.4,1.86-.84,2.67-1.5a63.82,63.82,0,0,1,21.18-11.93c10.69-3.36,18.77,2.08,19.82,13.28.72,7.55-.31,15.07-.85,22.59-.15,2-.22,4-.26,6-.14,7.22,2.25,9.09,9.24,7.88,1.82-.31,4.5-2.93,5.5-.31.86,2.27-2.31,3.62-4.24,4.78a54.17,54.17,0,0,1-21.77,7.1c-7.36.86-12.13-3.71-11.64-11,.53-7.83,1.39-15.64,2-23.46a35.88,35.88,0,0,0,0-5.08c-.21-3.82-.92-7.58-5-9.16s-7.21.71-10,3.23c-7,6.34-9.88,14.64-11.11,23.72-1.57,11.59-10,19.44-21.68,20.43-2.31.2-2.67-.5-2.26-2.52,5-24.37,6.35-49.11,7.17-73.88.19-5.77.52-11.8-3.92-16.6-1.21-1.3,0-2,.91-2.45a80,80,0,0,1,19.15-7.8c3.71-.94,4.41,2.19,5,4.65A56.23,56.23,0,0,1,1046.6,278.29Z"/><path class="cls-1" d="M619.8,411.54c15,.4,28.68-.46,42.39.55,14.44,1.07,23.57,8.8,24.7,20.9,1.4,14.83-6,25.27-20.66,28.89a42.88,42.88,0,0,1-15.43,1c1.58-1.12,2.63-1.84,3.65-2.6,8.46-6.29,11.19-20.26,5.64-29.2a13.36,13.36,0,0,0-3.08-3.37c-2-1.54-4.56-3-6.79-2.17s-1,3.83-1,5.79c-.11,17.41-.05,34.83,0,52.25,0,6.27.86,12.3,5.78,17.7H620.41c6.74-6.77,4.67-15.32,4.78-23.39.18-13.71.27-27.44,0-41.15C625,428.29,627.69,419.2,619.8,411.54Z"/><path class="cls-2" d="M107.94,402.08H8.57c-.92,0-1.85,0-2.77,0-1.54.08-2.68-.1-2.61-2.14s1.34-2.09,2.81-2.09c3.08,0,6.17-.1,9.24,0,2.24.1,3.32-.45,3.42-3,.14-3.65-1.05-8.54,1.3-10.63,2.74-2.44,7.65-.79,11.6-.8,53.45-.05,106.91,0,160.37-.12,4,0,5.68.78,5.78,5.15.22,9.36.46,9.35,10,9.35,1.08,0,2.17.07,3.24,0,1.77-.12,2.44.59,2.44,2.4s-1.14,1.84-2.43,1.84H107.94Z"/><path class="cls-2" d="M108,377.14H8.66c-1.07,0-2.16-.05-3.23,0-1.5.08-2.27-.4-2.23-2.07s.94-2,2.36-2c4,0,8-.15,12,.05,2.62.13,3.76-.72,4.4-3.36,2.72-11.24,2.81-11.22,14.36-11.22q75.07,0,150.16-.1c3.9,0,5.59,1.07,6.61,4.89,2.62,9.79,2.82,9.73,13.1,9.74h4.16c1.53,0,3.12-.29,3.07,2.2-.06,2.27-1.54,1.84-2.85,1.88-.92,0-1.85,0-2.77,0Z"/><path class="cls-2" d="M107.91,352.2H14.57c-1.07,0-2.15,0-3.23,0-1.31,0-2.37,0-2.41-1.86-.06-2.06,1.07-2.2,2.62-2.19,4.77,0,9.55-.1,14.32.06,2.32.08,3.8-.53,4.52-2.84,2.94-9.49,8.94-12.23,19.15-12.05,41.72.74,83.47.36,125.21.22,3.72,0,6.4.83,7.4,4.4,2.66,9.56,9.28,11.7,18.11,10.26a31.88,31.88,0,0,1,5.08,0c1.37,0,2.34.29,2.37,2s-.91,2-2.3,2c-1.08,0-2.16,0-3.24,0Z"/><path class="cls-2" d="M689.71,315.66c-.61-3,1.12-4.07,2.51-5.17a45.79,45.79,0,0,1,15.83-8.3c7.88-2.28,12.62-.34,16.4,7,2.89,5.61,4.83,11.62,6.88,17.58,1.89,5.52,3.95,11,6.08,16.41.6,1.54,1.53,3.37,3.44,3.34,1.74,0,2.25-2,2.91-3.26,5.15-10.18,8.16-20.87,7.5-32.39-.06-1.07-.56-2.22.44-3a42.35,42.35,0,0,1,13.74-7.35c1.93-.6,2.95.72,2.95,2.52a21.26,21.26,0,0,1-.51,6.4c-11,34.83-28.17,65.47-59,86.77a38.75,38.75,0,0,1-11.89,6c-1.62.43-3.51,1.12-4.79-.39s0-3.25.9-4.58c2.18-3.16,4.53-6.21,6.82-9.3s5-5.17,9.36-4.22c3.2.7,5.45-1.62,7.75-3.4a47.26,47.26,0,0,0,6.48-6.56c2.41-2.77,3.3-5.06.12-8.21-2.83-2.8-3.82-6.94-5.27-10.67-3.49-9-6.83-18.11-10.52-27.05C704.49,319.73,701.51,310.88,689.71,315.66Z"/><path class="cls-2" d="M648.63,363.27c-5.7-.14-10.28-.7-14.54-2.68-5.44-2.51-5.89-6.06-1.28-9.73,1.08-.86,2.3-1.54,3.42-2.35,3-2.14,5.15-2.62,8.8,0,8.05,5.87,17.44,6.56,26.86,3.29,3.59-1.25,6.46-3.66,6.73-8s-2.66-6.35-5.78-8.15c-4.28-2.46-9-4-13.64-5.57-3.78-1.3-7.61-2.44-11.34-3.87-14.18-5.46-17.28-17.65-6.8-28.62,11.15-11.67,25.38-16.94,41.33-17.87a7.06,7.06,0,0,1,1.38.09c3.92.66,9.29.7,9.92,5.08s-4.5,6.42-7.86,8.76c-1.72,1.19-3.13.06-4.66-.71-6.87-3.47-14-4.57-21.42-1.9-3.73,1.35-7.13,3.5-7.46,7.93-.3,4.18,2.94,6.16,6.05,8,6.3,3.68,13.37,5.4,20.11,8,3.45,1.31,7,2.4,10.3,4,9.15,4.53,11.65,13.81,6.08,22.44a23,23,0,0,1-5.2,5.83C677.19,356.68,663.28,362.34,648.63,363.27Z"/><path class="cls-2" d="M767.32,320c1.39-4.87,4-8.22,8.18-9.93,9.55-3.85,19.29-7.23,29.49-8.88,11.41-1.84,18.88,4.59,18.71,16.19-.12,7.53-.88,15-1.24,22.58-.54,11.13,2.35,13.6,13.27,11.53,1-.18,2.2-1,2.86.33.58,1.14-.37,2-1.08,2.8-9.32,10.59-26.24,11.57-36.6,1.9-1.74-1.63-2.9-1-4.41-.25a85.62,85.62,0,0,1-13.19,5.42,18.22,18.22,0,0,1-8.66.55c-6.06-.95-10.67-4.78-11.69-9.73-1.22-5.93,2.18-9.59,6.59-12.6,7.88-5.36,16.88-8,25.93-10.47,6-1.65,6.86-3.08,5.83-9.65-.82-5.29-3.95-8-9.08-7.79-6.6.33-12.43,3.19-18.36,5.73C771.94,318.59,770.22,320,767.32,320Zm33.11,19.27c.16-2.26.58-4.22-2.16-3.94-4.26.43-8.56.84-12.39,3a6.25,6.25,0,0,0-2.51,9c2,3.48,6.24,5,10.75,4.3s5.69-3.49,5.77-7.46A46.63,46.63,0,0,1,800.43,339.3Z"/><path class="cls-2" d="M945.67,320.7c1.09-5.77,4.06-8.95,8.36-10.69a174.48,174.48,0,0,1,28.6-8.8c14.46-3.14,20.19,8.71,19.35,18.42-.63,7.21-1.14,14.44-1.4,21.68-.33,9.32,3.52,12.4,12.52,10.44,1.27-.28,2.95-1.45,3.75,0,.91,1.67-.89,2.76-2,3.7-6.55,5.32-14,8.26-22.55,8a16,16,0,0,1-12.1-5.9c-2.08-2.49-3.71-2.34-6.2-.93a65.71,65.71,0,0,1-11.91,4.94,18.87,18.87,0,0,1-8.65.77c-6.07-.83-10.89-4.57-12.07-9.33-1.24-5,.74-9.16,6.53-13.09,7.76-5.26,16.58-8,25.52-10.36,6.33-1.69,7.13-3.17,5.93-10.37q-1.29-7.7-9.51-7.12c-6.12.45-11.55,3.06-17.06,5.42C950.63,318.43,948.55,319.4,945.67,320.7ZM976,335.38c-3.91.58-7.9.88-11.5,2.78-3.3,1.74-4.61,4.39-3.36,8,1.36,4,5.82,6.24,10.42,5.68s6.66-3.15,6.68-7.69a40.71,40.71,0,0,1,.53-5.93C979.12,335.92,978.25,335.05,976,335.38Z"/><path class="cls-1" d="M691.58,411.83h35.58c-5.7,5.11-5.33,11.28-5.32,17.4q0,28.65,0,57.28c0,5.36.44,10.47,5.3,14.83H692.4c6.7-6.68,4.73-15.06,4.8-23,.17-16.93.06-33.87.08-50.81C697.28,422,697.34,416.44,691.58,411.83Z"/><path class="cls-2" d="M108.11,327.31H24.5c-1.08,0-2.16,0-3.23-.07-1.33-.12-1.1-1.19-1.17-2.08-.14-1.81,1-1.9,2.37-1.9,6.16,0,12.32-.11,18.47.06a6.39,6.39,0,0,0,5.92-2.68c6.65-9,14.93-12.72,26.72-12.26,26,1,52,.4,78.05.23,4,0,7.17.84,9.82,3.79,1.13,1.25,2.78,2.11,3.68,3.48,4.39,6.72,10.6,8.46,18.19,7.45a62.67,62.67,0,0,1,9.69,0c1.54,0,3.66-.66,3.52,2.2-.13,2.58-2.1,1.78-3.43,1.79-9.4.06-18.79,0-28.18,0Z"/><path class="cls-2" d="M108,427q-47.4,0-94.79-.06c-1.39,0-3.63,1.27-4.15-1.39-.64-3.23,1.65-2.9,3.7-2.9,20.65,0,41.31-.09,62,.1,3.75,0,5-.77,4.88-4.73C79.29,407,79.49,407,90.35,407c14.18,0,28.36.09,42.54-.07,3.17,0,4.65.77,4.11,4.07a2.36,2.36,0,0,0,0,.46c.37,3.61-1.63,8.25.89,10.6,2.27,2.12,6.77.62,10.29.63,18.49.06,37,0,55.48.07,1.57,0,4-1,4,2.16s-2.5,2.09-4,2.09Q155.81,427.06,108,427Z"/><path class="cls-2" d="M839.79,358.38l2-19.32a73.2,73.2,0,0,0-.54-18.41c-.48-3.29-1.73-6.24-4.73-8.08-2-1.23-1.56-2.44.08-3.43,5.67-3.44,11.58-6.47,18.11-7.76,4.67-.92,7.51,2.22,8.7,8.54.38,2-.93,5.06,1.4,5.79,2,.62,3.47-2.13,5.1-3.47a72.18,72.18,0,0,1,12-8.54,12.64,12.64,0,0,1,8.92-1.4c3.61.84,6.62,2.69,7.79,6.45,1.1,3.56-.69,6.27-3.13,8.61-1.22,1.16-2.62,2.14-3.91,3.23-2.87,2.4-5.24,2.84-8.83.34-8.68-6.05-15.15-3.35-17.82,6.86A70.91,70.91,0,0,0,862.53,346c0,7.79-3.58,12.38-11,14.3-2.83.73-5.64,1.5-8.43,2.34S838.88,362.92,839.79,358.38Z"/><path class="cls-2" d="M107.94,451.94q-41.84,0-83.66-.06c-1.4,0-3.64,1.25-4.14-1.42-.63-3.32,1.79-2.82,3.76-2.82,16.63,0,33.28-.19,49.91.12,4.67.09,5.94-1.07,5.76-5.76-.4-10.13-.12-10.14,9.84-10.14,14.49,0,29,.08,43.45-.07,3.09,0,4.36.6,4.24,4-.13,3.77-1.75,8.69.71,11.09s7.34.7,11.15.72c14.48.09,29,0,43.45.08,1.56,0,4.05-1.11,4.11,2.07s-2.44,2.14-4,2.14Q150.22,452,107.94,451.94Z"/><path class="cls-2" d="M108.54,476.86q-31.91,0-63.81,0c-1.35,0-2.93.53-4-.52a3.31,3.31,0,0,1-.3-2.6c.38-1.75,1.95-1.14,3-1.14,10.64-.05,21.27-.16,31.91.05,3.2.06,4.47-.76,4.08-4.07-.26-2.28.17-4.64-.1-6.92-.43-3.69.63-5,4.68-5,16.17.25,32.36.2,48.54,0,3.28,0,4.77.53,4.48,4.22s-1.3,8.55.56,10.73c2.2,2.59,7.25.79,11,.85,8,.15,16,0,24,.08,1.49,0,3.59-.81,3.63,2.09s-2,2.16-3.55,2.16Q140.67,476.89,108.54,476.86Z"/><path class="cls-2" d="M901.21,347.63c.72-8.57,1.5-17.14,2.15-25.73.26-3.52.37-7.11-1.89-10.2-1.19-1.63-.32-2.44,1.12-3.14a90.28,90.28,0,0,1,18.52-6.88c4.2-1,4.95,2.15,5.27,5.17.72,6.64-.87,13.16-1.3,19.74-.36,5.52-.89,11-.93,16.57,0,7.5,2.59,9.47,10.05,8.3,1.35-.21,3.36-1.72,4.11,0,.9,2-1.21,3.28-2.77,4.17A58.13,58.13,0,0,1,914,363.15c-7.64,1-12-2.77-12.61-10.45-.13-1.68,0-3.38,0-5.07Z"/><path class="cls-2" d="M944.25,238.84c-.73,18.71-5.34,35.73-20.3,48.2a26.62,26.62,0,0,1-9.12,5.28c-5.51,1.71-10.19-.14-12.84-5.14-2.57-4.83-1.21-12.24,2.77-15.17a6.78,6.78,0,0,1,6.13-1.26c7.52,2.37,12.78-1.34,17.54-6.3,6-6.3,10.13-13.87,13.85-21.66C942.91,241.46,943.59,240.16,944.25,238.84Z"/><path class="cls-2" d="M108.18,302.4c-21.26,0-42.53,0-63.79-.06-1.47,0-4.1,1.29-4-2s2.69-1.95,4.14-1.91c17.23.48,34.11-.49,51-5.3,13.55-3.87,27.53-1.34,40.73,3.82a20.17,20.17,0,0,0,7.61,1.44q14.56-.11,29.12,0c1.31,0,3.27-.85,3.43,1.77.18,2.9-1.92,2.21-3.45,2.22Q140.55,302.41,108.18,302.4Z"/><path class="cls-2" d="M108.41,497.47h19.87c1.55,0,3.12-.29,3.08,2.17s-1.63,2.14-3.16,2.14c-13.25,0-26.49,0-39.74,0-1.43,0-3.24.52-3.36-2-.14-2.79,1.82-2.31,3.44-2.31C95.16,497.46,101.79,497.47,108.41,497.47Z"/><path class="cls-2" d="M108.42,277.49c-6.6,0-13.2,0-19.8,0-1.42,0-3.22.52-3.23-2s1.84-2,3.23-2q19.8-.06,39.6,0c1.26,0,2.84-.49,3,1.77s-1.37,2.28-3,2.27Z"/></svg>