<svg id="Layer_1" data-name="Layer 1" xmlns="http://www.w3.org/2000/svg" viewBox="0 0 1106.13 743.43"><defs><style>.cls-1{fill:#00aa4e;}.cls-2{fill:#0088cf;}</style></defs><title>bank-bukopin</title><rect class="cls-1" x="73.69" y="276.73" width="39.62" height="3.53"/><polygon class="cls-1" points="66.35 389.54 66.35 402.25 8.24 402.25 8.24 405.79 181.88 405.79 181.88 402.25 120.62 402.25 120.62 389.54 66.35 389.54"/><polygon class="cls-1" points="18.19 423.08 18.19 426.44 171.06 426.44 171.06 423.08 120.62 423.08 120.62 410.91 66.35 410.91 66.35 423.08 18.19 423.08"/><polygon class="cls-1" points="66.35 431.56 66.35 443.56 37.38 443.56 37.38 446.92 153.95 446.92 153.95 443.56 120.62 443.56 120.62 431.56 66.35 431.56"/><rect class="cls-1" x="73.69" y="461.4" width="39.62" height="5.3"/><path class="cls-1" d="M37.38,296.5H67.45a69.43,69.43,0,0,1,27.34-5.81,70.4,70.4,0,0,1,28,5.81H154V300H37.38Z"/><path class="cls-1" d="M18.19,317H39.05a82.2,82.2,0,0,1,12.77-11.8h86A81.89,81.89,0,0,1,151.06,317h20v3.53H18.19Z"/><path class="cls-1" d="M8.24,339.41H24.71a92.35,92.35,0,0,1,7.75-13.81l124.94.14A91.32,91.32,0,0,1,165,339.41h16.92v3.35H8.24Z"/><path class="cls-1" d="M3.18,359.53h15a96.17,96.17,0,0,1,3.35-12.23l146.7,0a96.36,96.36,0,0,1,3.17,12.19h15v3.54H3.18Z"/><path class="cls-1" d="M3.18,380.36h13v-.48a102.34,102.34,0,0,1,.67-11.68l156,0a103.9,103.9,0,0,1,.61,11.64v.48h13v3.71H3.18Z"/><path class="cls-2" d="M617.92,365.59c.5.09,1,.15,1.44.19a17.23,17.23,0,0,0,1.73.07,7.19,7.19,0,0,0,6-2.78q2.18-2.79,2.18-7.71a11,11,0,0,0-2.23-7.08,6.89,6.89,0,0,0-5.67-2.78c-.31,0-.75,0-1.31.09s-1.27.18-2.1.35Zm0,41.35c1,.17,1.88.29,2.66.39s1.46.12,2,.12a10.43,10.43,0,0,0,8.47-4,15.71,15.71,0,0,0,3.3-10.34c0-4.59-1.07-8.27-3.24-11a10.4,10.4,0,0,0-8.64-4.15,25.65,25.65,0,0,0-3.19.38l-1.36.19ZM591,420.14a14.68,14.68,0,0,0,3.53-5.66c.68-2,1-5.33,1-9.88V347.71c0-4.56-.35-7.83-1-9.83a14.85,14.85,0,0,0-3.53-5.6h29.38q14.43,0,22.14,5.37T650.21,353a17.68,17.68,0,0,1-3,10.22,22.34,22.34,0,0,1-8.84,7.3A22.89,22.89,0,0,1,650.42,379q4.1,5.83,4.1,14.49a30,30,0,0,1-1.59,9.78,26.82,26.82,0,0,1-4.67,8.38,22.34,22.34,0,0,1-9.06,6.59q-5.13,1.95-14.18,1.95Z"/><path class="cls-2" d="M686.79,390q0,8.52,3,13a9.9,9.9,0,0,0,8.76,4.47q6.15,0,9.25-4.4T710.91,390V347.72a35.85,35.85,0,0,0-.94-9.11,14.06,14.06,0,0,0-3.72-6.33H737.6a15.61,15.61,0,0,0-3.49,5.44q-1,2.91-1,10V404.6c0,4.55.35,7.85,1,9.88a15.72,15.72,0,0,0,3.49,5.66H711.37v-9.29a31.75,31.75,0,0,1-10.3,8.81,27.12,27.12,0,0,1-12.52,2.82A24.7,24.7,0,0,1,678,420.33a21.77,21.77,0,0,1-8-6.39,23.44,23.44,0,0,1-4.14-8.78,64.26,64.26,0,0,1-1.22-14.42v-43c0-4.73-.33-8.06-1-10a14.63,14.63,0,0,0-3.52-5.44h31.24a15,15,0,0,0-3.52,5.6c-.7,2-1,5.28-1,9.84Z"/><path class="cls-2" d="M772.6,404.59c0,4.55.36,7.85,1,9.89a15.48,15.48,0,0,0,3.5,5.66H745.91a15,15,0,0,0,3.53-5.66c.67-2,1-5.34,1-9.89V347.72c0-4.73-.35-8.06-1-10a14.92,14.92,0,0,0-3.53-5.44h31.24a15,15,0,0,0-3.53,5.6q-1,3-1,9.84v24.85l17.23-24.85a23.56,23.56,0,0,0,2.62-4.4,8.7,8.7,0,0,0,.68-3.26,6.41,6.41,0,0,0-.88-3.07,29.8,29.8,0,0,0-3.68-4.71h28L790.39,369.1l30.71,51H809.2c-6.19,0-10.57-.72-13.1-2.18s-5.49-5-8.84-10.78L772.6,382.06Z"/><path class="cls-2" d="M871.12,422.22q-19.59,0-32.11-13t-12.53-33.16a46.1,46.1,0,0,1,3.67-18,47.66,47.66,0,0,1,10.39-15.48,43.25,43.25,0,0,1,30.58-12.4q19.75,0,32.26,12.85t12.5,33.15a48.12,48.12,0,0,1-14.07,33.54A42,42,0,0,1,887.86,419,44.18,44.18,0,0,1,871.12,422.22Zm-21.1-49q0,16.32,6,26.23t15.78,9.9a17.48,17.48,0,0,0,15-7.75q5.5-7.75,5.52-21.43,0-16.32-6-26.16t-15.86-9.84A17.37,17.37,0,0,0,855.53,352Q850,359.78,850,373.26Z"/><path class="cls-2" d="M956.1,332.28q11.71,0,18.55,6.38t6.83,17.21q0,12.13-7.28,19.1t-20,6.94c-.94,0-2.48-.08-4.61-.25h-.28a21.28,21.28,0,0,0,8.17-8.23,25.72,25.72,0,0,0,2.65-12.21q0-7.14-3.28-11.33a10.9,10.9,0,0,0-9-4.26v58.94q0,6.84,1.05,9.91a15.48,15.48,0,0,0,3.5,5.66H921.22a15.3,15.3,0,0,0,3.53-5.66c.68-2.05,1-5.35,1-9.91v-56.8c0-4.56-.32-7.86-1-9.87a15.65,15.65,0,0,0-3.53-5.62Z"/><path class="cls-2" d="M1013.32,404.59c0,4.55.34,7.85,1,9.89a15.32,15.32,0,0,0,3.49,5.66H986.62a14.92,14.92,0,0,0,3.53-5.66q1-3.06,1-9.89V347.72q0-7.1-1-10a14.79,14.79,0,0,0-3.53-5.44h31.24a15,15,0,0,0-3.52,5.6c-.69,2-1,5.28-1,9.84Z"/><path class="cls-2" d="M1026.47,420.14a21.46,21.46,0,0,0,4.26-7.74q1.23-4.15,1.23-14.26V351q0-7-1.47-10.76a28.87,28.87,0,0,0-4.82-7.91H1050l35.89,53.77V351.39a35.93,35.93,0,0,0-1.32-10.6,31.72,31.72,0,0,0-4.27-8.51h22.6a38.64,38.64,0,0,0-3.54,8.82,43.8,43.8,0,0,0-1.11,10.67v70.58q-16.57-2.14-29.39-20.74c-.3-.47-.53-.8-.68-1l-23.9-34.6v37.32a32.89,32.89,0,0,0,1.2,10.21,18.49,18.49,0,0,0,4,6.61Z"/><path class="cls-2" d="M245.94,365.59c.5.09,1,.15,1.45.19a17.05,17.05,0,0,0,1.74.07,7.15,7.15,0,0,0,5.93-2.78q2.19-2.79,2.19-7.71a11.05,11.05,0,0,0-2.21-7.08,7,7,0,0,0-5.69-2.78c-.3,0-.73,0-1.31.09s-1.26.18-2.1.35Zm0,41.35c1,.17,1.88.29,2.68.39s1.46.12,2,.12a10.44,10.44,0,0,0,8.47-4,15.71,15.71,0,0,0,3.3-10.34q0-6.88-3.24-11a10.4,10.4,0,0,0-8.64-4.15,25.65,25.65,0,0,0-3.19.38l-1.37.19ZM219,420.14a14.77,14.77,0,0,0,3.52-5.66c.68-2,1-5.33,1-9.88V347.71c0-4.56-.34-7.83-1-9.83a14.94,14.94,0,0,0-3.52-5.6h29.37q14.43,0,22.14,5.37t7.7,15.37a17.68,17.68,0,0,1-3,10.22,22.3,22.3,0,0,1-8.83,7.3A22.86,22.86,0,0,1,278.44,379q4.11,5.83,4.11,14.49a29.76,29.76,0,0,1-1.6,9.78,26.62,26.62,0,0,1-4.67,8.38,22.38,22.38,0,0,1-9,6.59q-5.13,1.95-14.18,1.95Z"/><path class="cls-2" d="M316.28,381.79h16.23l-8.09-27.07Zm-28.1,38.35a49.63,49.63,0,0,0,4.38-6.63,35.73,35.73,0,0,0,2.73-6.45l18.54-59c.11-.38.28-.91.51-1.58a18.86,18.86,0,0,0,1.25-5.75,9.15,9.15,0,0,0-.82-3.8,24.54,24.54,0,0,0-3-4.68h28l22.43,72.06a46.64,46.64,0,0,0,3.73,8.79,36.32,36.32,0,0,0,5,7H336.56A26.73,26.73,0,0,0,340,415a9.84,9.84,0,0,0,.79-3.92,20.39,20.39,0,0,0-.14-2.4,9.54,9.54,0,0,0-.43-2l-4-12.64h-23.8l-3.71,12.07c-.45,1.57-.75,2.71-.87,3.42a10,10,0,0,0-.2,1.9,10.87,10.87,0,0,0,.94,4.42,15.79,15.79,0,0,0,2.81,4.23Z"/><path class="cls-2" d="M378,420.14a21.46,21.46,0,0,0,4.26-7.74q1.23-4.15,1.23-14.26V351q0-7-1.46-10.76a29.18,29.18,0,0,0-4.83-7.91h24.38l35.88,53.77V351.39a36,36,0,0,0-1.31-10.6,31.77,31.77,0,0,0-4.28-8.51h22.61A38.24,38.24,0,0,0,451,341.1a43.31,43.31,0,0,0-1.11,10.67v70.58q-16.58-2.14-29.39-20.74c-.3-.47-.53-.8-.68-1L395.89,366v37.32a33.56,33.56,0,0,0,1.19,10.21,18.69,18.69,0,0,0,4.06,6.61Z"/><path class="cls-2" d="M491.27,404.59q0,6.82,1.05,9.89a15.48,15.48,0,0,0,3.5,5.66H464.58a14.77,14.77,0,0,0,3.52-5.66c.69-2,1-5.34,1-9.89V347.72c0-4.73-.33-8.06-1-10a14.63,14.63,0,0,0-3.52-5.44h31.24a15.18,15.18,0,0,0-3.53,5.6q-1,3-1,9.84v24.85l17.22-24.85a23.72,23.72,0,0,0,2.63-4.4,8.51,8.51,0,0,0,.68-3.26,6.41,6.41,0,0,0-.88-3.07,29.2,29.2,0,0,0-3.68-4.71h28L509.07,369.1l30.7,51h-11.9q-9.29,0-13.1-2.18t-8.83-10.78l-14.67-25.12Z"/></svg>