<svg id="Layer_1" data-name="Layer 1" xmlns="http://www.w3.org/2000/svg" viewBox="0 0 1106.13 743.43"><defs><style>.cls-1{fill:#7b141f;}.cls-2{fill:#e2071f;}.cls-2,.cls-3{fill-rule:evenodd;}.cls-3{fill:#fff;}</style></defs><title>bank-cimb-niaga</title><rect class="cls-1" x="3.18" y="291.71" width="173.3" height="160"/><polygon class="cls-2" points="25.03 319.63 117.88 319.63 164.29 371.45 117.88 428.13 25.03 428.13 66.6 371.45 25.03 319.63"/><polyline class="cls-3" points="164.29 371.45 117.88 319.63 25.03 319.63 66.6 371.45"/><path class="cls-1" d="M293.87,349.27c-4.79-5.62-11.7-8.84-20.62-8.84-18.17,0-31.57,14.64-31.57,34.72s13.4,34.74,30.8,34.74c9.69,0,17.52-4.28,22.47-11.59l20,14.76c-9.06,12.81-24.45,18.75-39.39,18.75-34,0-58.81-22.07-58.81-56.66s24.79-56.64,58.81-56.64c12.17,0,27.56,4.12,36.8,15.84Z"/><rect class="cls-1" x="327.75" y="321.26" width="23.99" height="107.79"/><polygon class="cls-1" points="373.59 321.25 409.94 321.25 435.02 391.6 435.35 391.6 460.6 321.25 496.75 321.25 496.75 429.05 472.76 429.05 472.76 346.39 472.47 346.39 443.81 429.05 425.5 429.05 397.94 346.39 397.6 346.39 397.6 429.05 373.59 429.05 373.59 321.25"/><path class="cls-1" d="M519,321.25H559.6c19.1,0,39.85,4,39.85,27.42,0,12-7.52,20.23-18.75,23.73v.34c14.29,1.8,23.86,12.32,23.86,26.33,0,22.52-21.58,30-41,30H519Zm24,43.1h17.42c7.37,0,15.1-3.05,15.1-11.71,0-9-8.63-11.27-16.2-11.27H543ZM543,409h21.58c7.52,0,16-3.2,16-12.64,0-10.18-11.56-11.89-19.39-11.89H543Z"/><polygon class="cls-1" points="635.11 322.99 650.96 322.99 712.22 410.86 712.53 410.86 712.53 322.99 725.07 322.99 725.07 428.81 709.24 428.81 647.98 340.91 647.7 340.91 647.7 428.81 635.11 428.81 635.11 322.99"/><rect class="cls-1" x="751.38" y="322.99" width="12.59" height="105.83"/><path class="cls-1" d="M824.64,323h11.81l45,105.82H866.78l-10.76-26h-52.9l-10.93,26H778Zm5.67,16.14H830l-22,52h43.18Z"/><path class="cls-1" d="M985.47,421.63a81.37,81.37,0,0,1-39.62,9.85c-32.86,0-56.5-22.41-56.5-55.61s25.25-55.59,56.94-55.59c13.9,0,27.38,3.76,37.38,13.92l-9.4,9.86c-7.18-7.77-18.11-12.11-28.89-12.11-24.19,0-42.6,18.24-42.6,43.92,0,25.28,17.82,44,43.84,44a62.24,62.24,0,0,0,26.29-6.13V381.26H948.53V369.62h36.94Z"/><path class="cls-1" d="M1046.16,323H1058l45,105.82H1088.3l-10.79-26h-52.9l-10.93,26H999.51Zm5.65,16.14h-.29l-22,52h43.18Z"/></svg>