<svg id="Layer_1" data-name="Layer 1" xmlns="http://www.w3.org/2000/svg" viewBox="0 0 1106.13 743.43"><defs><style>.cls-1{fill:#650616;}.cls-2{fill:#fefdfd;}.cls-3{fill:#cd011c;}</style></defs><title>bank-cimb-niaga-syariah</title><path class="cls-1" d="M75.63,380.6c-22.44,0-44.88-.09-67.31.09-4,0-5.14-.93-5.12-5.05q.24-67.32,0-134.64c0-4.49,1.35-5.3,5.51-5.28q67.32.22,134.64,0c4.55,0,5.32,1.48,5.31,5.6q-.21,67,0,134c0,4.61-1.65,5.39-5.72,5.36C120.51,380.51,98.07,380.59,75.63,380.6ZM57,308.14a33,33,0,0,1-2.13,3.71Q41,330.18,27,348.45c-1.07,1.41-3.31,2.59-2.33,4.62s3.49.72,5,.64c20.91-1.1,41.82-.28,62.73-.31,5.62,0,9.73-.94,12.8-6.14,2.58-4.36,6.32-8,9.3-12.18,6.28-8.76,13.6-16.81,18.63-26.46,1.45-2.06-.6-2.93-1.48-4.1C122.29,292,112.78,279.64,103.57,267c-2.23-3.05-4.66-3.89-8.26-3.87-22.41.15-44.82.07-67.23.12-1.29,0-2.92-.82-3.95,1.25Z"/><path class="cls-1" d="M952.57,431.4c-11.39,7.34-22.69,14.85-36.68,16.4-3.92.44-7.8.61-11.62-.53-4.9-1.47-7.65-4.61-7.4-9.93.06-1.17,1-2.5-.2-3.43-1.59-1.2-2.68.38-3.7,1.17a60.42,60.42,0,0,1-17.72,9.7c-4.72,1.59-9.89,2.61-14.22-.5-4.15-3-1.73-7.43-.59-12.59-6,3.22-11,6-16.11,8.64a60.24,60.24,0,0,1-33.91,6.72c-10.81-1-14.12-6.63-9.72-16.32,3.59-7.89,8.66-14.89,13.67-21.89a9.42,9.42,0,0,1,4.77-3.67c3-.71,6.67-4,9.07-.89,1.9,2.45-1.92,4.87-3.19,7.3-3.24,6.17-6.68,12.25-9.61,18.57-1.31,2.81-3.56,6.42-.67,9.17,2.69,2.56,6.6,3,10.42,2.43,15.13-2.06,27.86-9.26,39.55-18.56s24-17.73,39.13-19.57c7.64-.93,13.79-5.51,21.25-6.21,2-.19,3.72-1.31,2.22,2.38s2.31,2,3.81,2.59c1.76.68,4.86-.37,4.89,2.47s-2.82,2.7-4.77,2.34c-8-1.45-12,2.82-14.69,9.53-2.2,5.45-6.37,10.1-6.73,16.28-.45,7.82,3.17,11,10.88,9.82,6.83-1.07,12.65-4.62,18.6-7.81,2.34-1.26,4.4-3.07,6.77-4.28,17-8.66,24.91-24.73,33.46-40.49,11.28-20.77,25-39.83,45.06-53.08,19-12.55,39.69-17,62.13-10.24,7.79,2.34,11.75,8.42,15.59,14.7a4.27,4.27,0,0,1-.16,4.72c-1,1.16-2.12-.15-3.15-.74-34.3-19.59-72.28-11.57-95.66,20.11a140.61,140.61,0,0,0-18.76,33.76c-.54,1.42-2.35,3-.9,4.42s3-.38,4.33-1.06c8.55-4.38,17-8.89,26.42-11.28,2.72-.69,5.79-2,8,1s0,5.43-1.65,7.74c-5.73,7.78-11,15.83-14.28,25-3.13,8.76,1.78,15.53,11.23,15.34,6.73-.14,12.76-2.87,18.54-6.06,10.51-5.79,19.59-13.53,28.54-21.42.92-.81,1.85-1.63,2.78-2.43,1.23-1.05,2.75-1.5,3.82-.22s-.5,2.12-1.29,3c-9.95,10.5-21,19.64-33.84,26.4-7.84,4.11-16,7.18-24.9,8.1a30.91,30.91,0,0,1-11.61-.77c-7.74-2.13-10.59-7.24-8.09-15,2.78-8.64,7.84-16.23,11.47-24.48.71-1.61,2.51-3.31.91-5s-3.52-.39-5.16.3a51.72,51.72,0,0,0-24.41,20.88c-3.76,6.1-7,12.49-10.54,18.75a9.18,9.18,0,0,1-12.13,3.79c-2.69-1.24-3-3.24-1.91-5.57,1.33-2.76,2.94-5.39,4.42-8.08.09-.53.44-1.25.22-1.55C953.91,430.39,953.2,431,952.57,431.4Zm-45.66-23.75c-13.48-.07-31,14.19-34.06,27.61-.32,1.43-.78,2.92.68,3.94s3.24.54,4.7-.17c13-6.28,24.15-14.74,31.18-27.81C911.1,408.08,910.28,407.06,906.91,407.65Zm-9.51,25.17c-.14-.12-.29-.36-.44-.36s-.3.24-.44.37l.62.43C897.22,433.13,897.3,433,897.4,432.82Z"/><path class="cls-1" d="M383.86,355.7c-9.89-17.21-19.26-33.56-28.69-49.86-.87-1.5-1.36-4.22-3.54-3.65s-1.08,3.21-1.1,4.88c-.09,14.4-.16,28.8,0,43.2.05,3.74-.49,5.4-4.93,5.36-13.6-.13-13.6.1-13.6-13.56,0-24.89.12-49.79-.11-74.68,0-4.61,1.31-5.46,5.81-6,9.44-1.08,14.68,2.24,18.84,10.92,7.26,15.14,16,29.53,24,44.36,2.45,4.59,4,5,6.56.1,9-16.8,18.46-33.38,27.34-50.27,2.05-3.91,4.32-5,8.49-5,12.57.24,12.57.08,12.57,12.57,0,25.1-.12,50.2.12,75.29,0,4.91-1.25,6.36-6.23,6.21-12.24-.37-12.25-.11-12.25-12.16,0-12.35,0-24.69,0-37,0-1.47,1-3.75-1.15-4.25-1.95-.46-2.49,1.81-3.26,3.15C403.19,321.84,393.76,338.37,383.86,355.7Z"/><path class="cls-1" d="M458.45,308.5c0-14,.11-28-.08-42-.05-3.67.85-5,4.77-5,11.72.25,23.45-.13,35.17.15,20.67.5,33.13,20.32,23.7,37.39-3.22,5.83-3,10.31.82,16.41,8.71,13.93,1.16,34.6-14.73,38.47-15.54,3.79-31.55,1.06-47.33,1.69-3.38.14-2.26-2.83-2.27-4.62C458.42,336.89,458.46,322.7,458.45,308.5Zm30.8,7.78v0c-2.87,0-5.75.12-8.61,0-2.69-.14-3.67,1-3.63,3.61.08,5.33.06,10.66.07,16,0,2.16.72,3.47,3.21,3.42,5.74-.12,11.51.26,17.21-.23a11.12,11.12,0,0,0,10.19-11.81c-.23-6.16-4.6-10.52-11.06-10.9C494.18,316.16,491.71,316.28,489.25,316.28ZM488,299.6c2.67,0,5.36.15,8,0,6.5-.46,10.34-4.48,10.38-10.64s-3.65-10.14-10.29-10.7c-3.07-.26-6.17-.13-9.25-.1-11.35.14-10-1.82-10.08,10.16C476.73,299.65,476.77,299.65,488,299.6Z"/><path class="cls-1" d="M237,358.24c-27.31-1.2-49.37-22.95-48.78-49.6.72-33,29.06-53.36,57.9-49a52.51,52.51,0,0,1,21.41,8.74c3.23,2.15,2.62,3.28.36,5.86-5.46,6.25-9.75,10-19.36,4.85-12.3-6.54-27.52-.37-35.6,11.37-8.32,12.09-7.17,28.67,2.77,39.93,8.92,10.1,25.12,13.34,37.13,6.23,5.14-3,7.29-1.56,10.6,2,8.26,8.83,8.38,8.65-2.71,14.29A49.13,49.13,0,0,1,237,358.24Z"/><path class="cls-1" d="M612.41,405.53c-5.32,8.19-10.51,16.24-15.76,24.25-2.28,3.48-5,7.67-2.55,11.19,3.06,4.32,7.87,1.39,11.82,0,9.23-3.15,15.33-9.59,19.87-18.16,4-7.58,7.82-15.41,13.63-21.91,2.52-2.82,5.1-4.61,8.88-1.39,3.56,3,4,6,.93,9.38-24.62,27.76-46.4,58.29-77.21,80-18.07,12.75-38,20-60.5,18.57a52.33,52.33,0,0,1-23.9-7.06c-5.44-3.25-7.44-8.46-8.4-14.29a2.7,2.7,0,0,1,1.32-3.16c.44-.19,1.48.5,2,1,9.41,10.47,22,12.75,35.09,13.38,26.5,1.28,47.83-10.87,67.55-26.83a189.82,189.82,0,0,0,22.05-21.51c.88-1,2.4-1.78,1.67-3.68-2.07-.59-3.87.56-5.8,1-3.6.83-7.22,1.88-10.88,2.07-5.12.27-11,.37-14.07-4.32s0-9.49,2.83-13.59c5-7.26,10.11-14.47,15.37-21.55C599.67,404.55,604.74,403.52,612.41,405.53Z"/><path class="cls-1" d="M566.81,308c0-13-.12-25.94.09-38.9,0-2.49-1.93-6.41,1.91-7.31s7.52-.43,10.47,3.92c8.27,12.25,17.28,24,26,36C613,312.32,620.71,323,628.5,333.55c.88,1.21,1.17,3.67,3.26,3s1-2.82,1-4.3c.05-21.82.11-43.63-.06-65.45,0-3.76.49-5.42,4.88-5.39s4.44,2,4.43,5.26c-.08,27.16,0,54.33-.15,81.49,0,2.28,1.93,5.94-2.07,6.7-3.83.73-7.67.51-10.34-3.46-4.92-7.32-10-14.5-15.22-21.65q-16.75-23.25-33.69-46.37c-.88-1.2-1.53-3.6-3.38-3-2.28.74-1.06,3.2-1.07,4.84q-.12,32.1,0,64.2c0,3.59-.28,5.63-4.81,5.74-5,.12-4.57-2.58-4.56-5.81C566.84,335.6,566.81,321.81,566.81,308Z"/><path class="cls-1" d="M685.76,433.92c-7.18,5.55-14.68,10.52-23.68,12.57-4.1.93-8.51,1.37-11.49-2.24s-1.5-7.8.4-11.53c7.11-14,19.8-21.11,33.7-26.09,9.73-3.48,20.21-4.63,30-8.36,1.35-.52,4.88-3.29,3.26,2.3-.78,2.71,3.1,1.35,4.8,1.95,1.48.52,3.7.21,3.48,2.55-.19,2-2.07,2.51-3.76,2.19-8.49-1.64-12.44,2.95-15.61,10.07-2.4,5.4-5.62,10.47-7.39,16.17-2.19,7,.35,10.27,7.75,9.77,10.35-.7,19.19-5.48,27.74-10.82,10.49-6.56,20.73-13.46,26.34-25.12,1.67-3.48,3.36-5.9,7.94-4.07,4.22,1.68,4,4.43,1.83,9.08,5.7-2.68,10-4.89,14.36-6.71,6.67-2.74,13.49-5.05,20.89-3.22,1.84.46,5.36.82,4.08,3-1.48,2.57-3,8.11-6.66,6.61-20.35-8.32-32.44,3.34-43.64,17.24a127.41,127.41,0,0,0-9.78,14.93c-2.41,4.05-5.32,3.79-8.82,1.86-4.25-2.35-1.32-4.7-.08-7.08,1.12-2.14,3-3.95,3.3-7.3-3.91,1-6.5,3.56-9.44,5.37-10.76,6.62-21.87,12.13-35,11.87-10.77-.2-13.37-2.92-12.94-13.65C688.06,433.42,687.39,433.13,685.76,433.92Zm15.47-24.8c-.25-2.11-1.67-1.67-2.83-1.73-13.1-.63-33.43,15.9-35.49,29-.42,2.68-.41,5.49,3.68,3.28,13.2-7.15,26.2-14.56,33.54-28.6C700.51,410.32,700.94,409.64,701.23,409.12Z"/><path class="cls-1" d="M866.67,326.58c0,5.14-.46,10.34.12,15.42.65,5.65-2,8.05-6.79,9.74-14.16,5-28.46,8.09-43.36,3.64-24.83-7.42-35.33-31.27-31-54.52,6.66-35.54,44.2-48.86,75.3-29.12,1.75,1.11,4.62,2.23,1.51,4.89-1.78,1.52-2,5.72-6.38,2.5-13.5-9.86-32.61-10.17-45.08-1.32-13.09,9.28-19.7,28-15.48,43.87,5.37,20.21,26,31.23,47.72,25.46,14.83-3.94,14.94-3.95,14.76-19.09-.06-5.05,2.33-11.49-.93-14.8s-9.78-.67-14.85-1.11a17.6,17.6,0,0,0-3.08,0c-3.2.28-3-1.9-3.1-4s.28-3.5,2.91-3.46c8.23.11,16.46.15,24.69,0,3.15-.05,3.05,1.76,3,4-.08,6,0,11.94,0,17.91Z"/><path class="cls-1" d="M733.89,262.16c5.18-1.18,7.51,1.26,9.16,6.13,9.14,26.94,18.63,53.76,27.84,80.68.62,1.79,4.27,4.78.1,5.79-3.19.77-8,2.25-9.72-3.43s-4-11.19-5.76-16.84c-1.07-3.38-2.77-4.83-6.59-4.72-10.08.29-20.18.21-30.26,0-3.74-.08-5.44,1.15-6.37,4.9-1.43,5.74-3.58,11.31-5.53,16.91-1.31,3.75-9,6.32-12.16,4.15-1.47-1-.5-2.09-.09-3.2,10.44-28.44,21-56.83,31.14-85.38C727.31,262.5,730,261.85,733.89,262.16Zm.06,10.6c-5.5,15.74-10.35,29.63-15.19,43.52-1.17,3.34,1.15,3.32,3.29,3.32,7.81,0,15.63-.07,23.44,0,2.94,0,4.32-.68,3.21-3.91C744,302,739.27,288.3,734,272.76Z"/><path class="cls-1" d="M922.76,329.86c-5.5,1.06-13.78-3.09-18.43,1.67-4.12,4.22-4.37,12.08-6.8,18.14-.9,2.25.11,5.92-4.33,6.34-8.82.83-9.65.17-6.71-7.92,9.84-27.09,19.92-54.1,29.57-81.25,1.53-4.32,4.09-5.06,7.73-4.8,3.88.27,7.39-.4,9.28,5.32,9,27.37,18.89,54.47,28.21,81.74.54,1.59,4.54,4.73,0,5.65-3,.59-7.62,2.47-9.41-2.85-2-5.83-4.08-11.6-6-17.45-1.07-3.3-2.69-5-6.57-4.69C934.18,330.17,929,329.86,922.76,329.86Zm2.35-55c-.93.47-1.47.57-1.56.82q-7.27,20.52-14.44,41.07c-1.08,3.12,1.34,2.82,3.13,2.83,6.17.06,12.34,0,18.51,0,9.16,0,9.29,0,6.45-8.78C933.3,298.82,929.17,286.9,925.11,274.85Z"/><path class="cls-1" d="M308.21,308.33c0,14.19-.11,28.37.08,42.56,0,3.66-.8,4.94-4.77,4.94-13.69,0-13.69.18-13.69-13.73,0-24.87.11-49.75-.1-74.62,0-4.52,1-6,5.73-5.92,12.76.24,12.76,0,12.75,12.85Z"/><path class="cls-1" d="M498.39,436.06c4.39,8.63,12.15,9.59,20.38,9.71a107.15,107.15,0,0,0,26.88-2.59,22.43,22.43,0,0,0,7-3.28c5-3.24,5.14-7,.77-11.09-4.85-4.54-11-7.13-16.49-10.73s-10.85-7.47-10-14.92c.88-7.73,6.34-12.34,13.1-15.05,9.28-3.73,19-5.36,29-3.31s10.92,3.92,6.59,13.52c-7.3-10-24.6-12.62-35.37-5.39-4.51,3-4.91,8.3-.72,12.68,4.87,5.08,11,8.47,16.76,12.44,1.35.93,2.79,1.72,4.19,2.57,4.39,2.64,8.34,5.73,7.83,11.52s-4.51,8.56-9.13,11.36c-17.26,10.45-35.89,10-54.77,7.4C495.1,449.61,493.75,446.05,498.39,436.06Z"/><path class="cls-1" d="M676.67,308.07c0,14-.1,28,.07,42,0,3.56-.66,5.15-4.7,5.1s-4.24-1.84-4.24-5q.12-42,0-84c0-3.36.75-4.73,4.42-4.7,3.49,0,4.59,1,4.55,4.56C676.56,280.07,676.67,294.07,676.67,308.07Z"/><path class="cls-1" d="M833.49,385.4c3.12,0,6.39.63,6,4.36-.63,5.31-5.25,6.27-9.65,6.52-2.67.15-5.4-.36-5.5-4.11C824.2,388.22,828.05,385.35,833.49,385.4Z"/><path class="cls-2" d="M57,308.14l-32.91-43.6c1-2.07,2.66-1.25,3.95-1.25,22.41-.05,44.82,0,67.23-.12,3.6,0,6,.82,8.26,3.87,9.21,12.6,18.72,25,28.08,37.48.88,1.17,2.93,2,1.47,4.1-2.44-.15-4.88-.42-7.32-.42Q91.42,308.13,57,308.14Z"/><path class="cls-3" d="M57,308.14q34.38,0,68.76.06c2.44,0,4.88.27,7.32.42-5,9.65-12.34,17.7-18.62,26.46-3,4.16-6.72,7.82-9.3,12.18-3.07,5.2-7.18,6.14-12.8,6.14-20.91,0-41.82-.79-62.73.31-1.49.08-4,1.48-5-.64S26,349.86,27,348.45q13.94-18.3,27.89-36.6A33,33,0,0,0,57,308.14Z"/></svg>