<svg id="Layer_1" data-name="Layer 1" xmlns="http://www.w3.org/2000/svg" viewBox="0 0 1106.13 743.43"><defs><style>.cls-1{fill:#231f20;}.cls-1,.cls-2{fill-rule:evenodd;}.cls-2{fill:#ffca05;stroke-width:0.09px;}.cls-2,.cls-3{stroke:#ffca05;stroke-miterlimit:2.61;}.cls-3{fill:none;stroke-width:0.14px;}</style></defs><title>bank-commonwealth</title><path class="cls-1" d="M44.44,357.85H65.65c0-12.85-9.29-26-30.79-26-21.22,0-31.68,15.48-31.68,33.58,0,19.26,12.5,33,33.13,33,19.76,0,29.34-12.56,29.34-26H44.73c-.87,4.38-2.9,9.05-8.71,9.05-6.1,0-10.75-4.67-10.75-16.64,0-11.68,5.52-15.47,10.75-15.47,5.52,0,7.84,4.67,8.42,8.47Z"/><path class="cls-1" d="M121.73,397V352.3h18v3.79A18.61,18.61,0,0,1,154,350c6.1,0,12.5,2.92,14.53,7,2.62-3.8,8.43-6.71,14.82-6.71,7.55,0,12.2,3.5,14.53,7,2.32-3.5,8.13-7.3,14.24-7.3,7.84,0,11.91,3.21,15.1,7.3a16.94,16.94,0,0,1,14-7.3c13.66,0,17.14,9.05,17.14,19v28H238.83V372.15c0-4.38-1.46-6.13-4.65-6.13s-5.23,2.92-5.23,6.42V397H209.19V372.15c0-4.38-1.16-6.13-4.36-6.13s-5.23,2.92-5.23,6.42V397H180.13V372.15c0-4.38-1.45-6.13-4.65-6.13-2.9,0-4.93,2.92-4.93,6.42V397H151.08V372.15c0-4.38-1.45-6.13-4.65-6.13s-5.23,2.92-5.23,6.42V397Z"/><path class="cls-1" d="M364.06,365.14V397H344.59V372.15c0-4.38-1.74-6.13-4.94-6.13s-5.23,2.92-5.23,6.42V397H315V352.3h18v3.79A21.21,21.21,0,0,1,347.2,350c6.4-.29,16.86,3.51,16.86,15.18Z"/><path class="cls-1" d="M408.8,397.26c-.87-3.21-2.32-7.3-3.78-12.26-1.16-3.8-2-7-2-8.76a34.89,34.89,0,0,1-1.74,8.76c-1.46,4.38-2.62,9.05-3.78,12H377.13l-13.65-45H384.4c.87,2.92,1.74,7,3.19,11.09a40.71,40.71,0,0,1,1.46,8.18c0-1.76.87-4.68,1.74-8.18,1.45-4.38,2.61-8.17,3.48-11.09H412c.87,2.92,2,6.71,3.19,11.09.88,3.5,1.75,6.42,1.75,8.18,0-1.76.87-4.68,1.74-8.18,1.16-4.09,2.33-8.17,3.2-11.09h20.63l-13.37,45-20.34.29Z"/><polygon class="cls-1" points="547.69 333.32 567.16 333.32 567.16 396.97 547.69 396.97 547.69 333.32 547.69 333.32"/><path class="cls-1" d="M603.18,383V395.8c-.87.58-4.93,2.33-11.33,2.33-12.78,0-16.27-6.42-16.27-18.39V363.68h-5.81V351.13h5.81V333.32h19.47v17.81h7.84v12.55h-7.84v12.56c0,3.79,1.16,5,2.61,6.42,1.17,1.46,4.36.88,5.52.29Z"/><path class="cls-1" d="M656.65,363.39V397H637.18V372.15c0-4.38-2-6.13-4.94-6.13-3.2,0-5.23,2.92-5.23,6.42V397H607l-.29-63.36h18.89V355.8c2.61-3.5,9.3-6.42,14.24-6.42,9.58,0,16.85,6.42,16.85,14Z"/><polygon class="cls-1" points="819.94 370.11 811.51 378.28 811.51 396.97 807.45 396.97 807.45 332.45 811.51 332.45 811.51 373.9 835.92 350.55 840.57 350.55 823.14 367.48 842.6 396.97 838.25 396.97 819.94 370.11 819.94 370.11"/><path class="cls-1" d="M787.4,353.76c-7.56,0-14.24,6.13-14.24,13.72V397h-4.07V350.84h4.07v7.88C774.9,355.8,779.55,350,788,350c12.2,0,15.69,9.05,15.69,16.35V397H799.6V368.36c0-12-6.1-14.6-12.2-14.6Z"/><path class="cls-1" d="M702.85,333.61c11.33,0,18.59,6.43,18.3,15.48a15.12,15.12,0,0,1-9,14.3c3.78,1.46,12.21,5,12.21,16.06-.29,12.85-9.88,17.52-19.18,17.52h-27V333.61ZM702,361.93c5.82,0,15.11-2,14.82-12.26,0-9.93-7.55-12.26-13.36-12H682.22v24.23Zm-19.75,30.95h22.37c10.75,0,15.11-5.55,15.11-13.43s-6.39-13.43-14-13.43H682.22v26.86Z"/><path class="cls-1" d="M767.35,394.05v2.63a7.91,7.91,0,0,1-4.07.87c-1.45,0-5.23-.87-5.23-8.17a19.81,19.81,0,0,1-17.14,8.75c-7.26,0-14.24-3.5-14.24-13.43,0-9.63,7.85-12,11-12.55s11-1.75,13.08-2c2-.59,7.26-.59,7.26-5.26v-4.09c0-3.5-2.61-8.17-12.78-8.17-11.33,0-13.37,9.63-13.37,10.51h-3.19c0-5.55,4.06-13.72,16-13.72,16.85,0,17.43,9.05,17.43,14.6v26.27c0,3.21,1.74,4.67,5.23,3.8Zm-9.59-14.31v-7.88l-16,2.63c-4.36.87-11,2.62-11,10.51s6.1,9.63,11.33,9.63c7.85,0,15.69-5.25,15.69-14.89Z"/><path class="cls-1" d="M92.68,349.09c18.59,0,27.31,11.67,27.31,24.81,0,17.23-13.37,24.53-26.44,24.53-16.56,0-25.86-10.51-25.86-23.65,0-12.56,7-25.69,25-25.69Zm.87,36.78c5.23,0,6.1-7,6.1-11.67,0-4.38-.87-11.39-6.1-11.39s-5.81,7-5.81,11.39c0,4.67.58,11.67,5.81,11.67Z"/><path class="cls-1" d="M285.61,349.09c18.59,0,27.31,11.67,27.31,24.81,0,17.23-13.37,24.53-26.44,24.53-16.56,0-25.86-10.51-25.86-23.65,0-12.56,7-25.69,25-25.69Zm.87,36.78c5.23,0,5.81-7,5.81-11.67,0-4.38-.58-11.39-5.81-11.39s-6.1,7-6.1,11.39c0,4.67.87,11.67,6.1,11.67Z"/><path class="cls-1" d="M460.23,378.87c0,3.79,2.62,6.71,6.1,6.71,2.33,0,4.94-.88,5.81-2.63h18.6c-4.07,10.51-14.53,15.48-25.28,15.48-16.27,0-25.86-10.51-25.86-23.65,0-12.56,7-25.69,25.28-25.69,18.6,0,27,11.67,27,24.81a27,27,0,0,1-.29,5Zm11.33-11.68c-.58-2.92-2.61-5.55-5.52-5.55-3.48,0-5.23,2.34-5.52,5.55Z"/><path class="cls-1" d="M526.19,397l-1.45-3.21C521.83,397,514,399,510.5,399c-3.2,0-17.44-1.17-17.44-14.6,0-15.18,19.76-15.76,23.83-16.35,3.78-.58,6.68-1.75,6.68-4.08a3.75,3.75,0,0,0-4.07-3.8A5.59,5.59,0,0,0,514,366H496c0-11.09,9.3-17.52,22.95-17.52,22.38,0,24.7,7.59,24.7,19.86V383a60.4,60.4,0,0,0,.58,10.51l1.16,3.51Zm-10.46-16.64c-2.33,1.16-2.62,2.62-1.46,4.37s4.36,2.05,7.27,0c2.61-2,2-5.54,2-7-3.48,1.17-5.81,1.75-7.84,2.63Z"/><polygon class="cls-2" points="1016.94 458.27 930.64 371.86 1016.94 285.15 1081.44 349.96 1054.71 377.12 1016.94 458.27 1016.94 458.27"/><polyline class="cls-3" points="1081.44 350.55 1054.71 377.41 1018.39 455.94"/><polygon class="cls-1" points="1016.94 458.27 1054.71 377.12 1081.44 349.96 1102.94 371.86 1016.94 458.27 1016.94 458.27"/></svg>