<svg id="Layer_1" data-name="Layer 1" xmlns="http://www.w3.org/2000/svg" viewBox="0 0 1106.13 743.43"><defs><style>.cls-1{fill:#f8c983;}.cls-2{fill:#f29810;}.cls-3{fill:#fcd000;}.cls-4{fill:#e95b24;}.cls-5{fill:#007242;}.cls-6{fill:#f2951d;}</style></defs><title>bank-danamon-syariah</title><path class="cls-1" d="M1102.94,426.24l-1.51-.27c-2.22-2.6-1.93-5.78-1.94-8.83q-.06-69.42,0-138.84c0-3.28-.29-6.68,2.14-9.43h1.31Z"/><path class="cls-2" d="M1101.63,268.87q-.11,78.54-.2,157.1Q971.12,397.32,840.84,368.7c-6.86-1.51-13.75-2.86-20.63-4.28a4.31,4.31,0,0,1-1.57-2,8.18,8.18,0,0,1-.57-2.56q-.5-43.41,0-86.82a8.87,8.87,0,0,1,.54-2.57,4.23,4.23,0,0,1,1.57-2l273.54,0C1096.36,268.58,1099,268.77,1101.63,268.87Z"/><path class="cls-3" d="M820.21,364.42c0,18.28-.23,36.55.09,54.82.11,5.87-.83,6.86-6.68,4.72Q652.31,365.1,490.86,306.64q-47.72-17.33-95.4-34.7c-1-.37-2-.92-2.93-1.39a2.82,2.82,0,0,1,1.72-1.34c15.8,1.62,31.05,6.08,46.5,9.45,87.11,19,174.12,38.4,261.21,57.45q55.15,12.06,110.27,24.36c2.79.63,5.67,1,7.63,3.47Z"/><path class="cls-4" d="M177.21,268.37q-84.54.09-169.08.24c-3.76,0-5-1.21-5-4.92.12-25.1.08-50.2,0-75.29,0-2.92.31-4.48,4-3.64q84.92,19,169.89,37.78c1.88,1.56,2.09,3.77,2.13,5.94q.3,17,0,33.91C179.24,264.56,179.05,266.78,177.21,268.37Z"/><path class="cls-5" d="M386.82,391.71c13.65-13.33,30-13.14,41.17-.81,2.54,2.79,3,.89,4.15-.58,4-5.21,9.41-7.77,15.79-8.55,16.16-2,26.27,6.47,26.41,22.47.16,17.84-.09,35.69.14,53.53,0,4.39-1.26,5.79-5.6,5.47-6.11-.45-14.08,1.94-17.9-1.09-4.07-3.23-1.16-11.53-1.27-17.6-.23-12.55,0-25.12-.14-37.67-.1-8.66-2.43-11.58-8.43-11.44-6.43.15-10,4.32-10.08,12.06-.08,16.74-.17,33.49.07,50.23.06,4.31-1.11,5.86-5.5,5.51a80.19,80.19,0,0,0-13.86,0c-4.92.47-5.74-1.61-5.68-6,.22-16.74.14-33.49,0-50.23-.07-8.73-2.28-11.61-8.27-11.57-6.41,0-10.19,4.24-10.24,11.91-.11,16.3-.38,32.62.14,48.91.2,6.16-1.81,7.57-7.35,7a78.47,78.47,0,0,0-12.55,0c-3.49.2-5.1-.56-5.09-4.61q.12-35.7-.32-71.38c0-3.23,1.29-3.59,3.86-3.53,4.62.12,9.25.11,13.88,0C384.56,383.61,389.15,383.09,386.82,391.71Z"/><path class="cls-2" d="M177.21,268.37q0-22.92-.07-45.83l.31-.21c2-1.52,4.21-.81,6.34-.35,59.12,12.87,118.17,26.07,177.26,39.09,6,1.32,11.79,3.53,17.75,5.06a7.2,7.2,0,0,1,4.79,1.89c-.91,1.51-2.39.79-3.54.79q-98.8.06-197.61,0C180.7,268.83,179,268.53,177.21,268.37Z"/><path class="cls-5" d="M603,391c7.49-8.47,16-10.47,25.77-8.7,11.1,2,17.08,7.74,17.37,19,.49,19.35.14,38.72.25,58.09,0,2.8-.87,4.17-3.78,3.83-.21,0-.44,0-.66,0-6.54-.32-14.91,2.65-19.14-1.08-4-3.54-1-12-1.16-18.33-.21-11.66,0-23.33-.09-35-.06-10.22-2.23-13.47-8.64-13.31-6.74.17-9.92,4.41-9.94,13.44,0,16.29-.15,32.57.09,48.86.07,4.3-1.1,5.83-5.48,5.49a92.48,92.48,0,0,0-14.51,0c-4.33.34-5-1.48-5-5.32.1-23.32.07-46.65-.21-70,0-3.74,1.19-4.45,4.45-4.28a109.29,109.29,0,0,0,12.54,0C599.56,383.38,603.69,383.48,603,391Z"/><path class="cls-5" d="M216.45,391.66c5.35-6.59,10.74-9.17,17.12-9.91,16.54-1.93,26.41,6.52,26.53,23,.11,17.62-.09,35.25.11,52.88.05,4.21-1,6.06-5.48,5.55-6.27-.71-14.69,2.71-18.29-1.38-3.11-3.53-1-11.73-1-17.87-.07-12.33.08-24.68-.09-37-.12-8.56-2.53-11.59-8.45-11.53-6.48.08-10,4.15-10.07,12-.08,16.75-.15,33.5.07,50.24.05,4.22-.95,5.94-5.44,5.57a91.54,91.54,0,0,0-14.53,0c-4.29.34-5.07-1.39-5-5.28.11-23.36.08-46.72-.21-70.07,0-3.85,1.35-4.36,4.51-4.22a112,112,0,0,0,13.21,0C214,383.31,217.22,384.14,216.45,391.66Z"/><path class="cls-3" d="M378.8,266.13c-13.14-1.13-25.73-5.06-38.53-7.84q-78.25-17-156.45-34.39c-2.14-.47-4.25-1-6.38-1.57.07-10.55.42-21.11.1-31.65-.17-5.62,1-6.51,6.32-4.3,44.25,18.19,88.64,36.07,133,54.13C337.51,249,358.14,257.58,378.8,266.13Z"/><path class="cls-6" d="M392.53,270.55c-1.72-.27-3.57-.19-5.27-2.42,2.11-.14,3.86-.36,5.61-.36q210.45,0,420.9,0c2.14,0,4.41-.64,6.41.76l-.33.51c-3.68,2.86-8,1.94-12.12,1.95q-167.84.08-335.67,0c-26,0-52,1.44-77.87-1.35-.38,0-.8.34-1.2.52Z"/><path class="cls-4" d="M393,270.13c1.51-1.91,3.65-1.2,5.53-1.2q209.67,0,419.35,0c.66,0,1.32.07,2,.11q0,47.46,0,94.9-130.8-28.85-261.61-57.68Q475.65,288.08,393,270.13Z"/><path class="cls-5" d="M86.18,378.52c-4.25-19.11-15-28.23-34.61-29-14.29-.56-28.62-.08-42.91-.46-4.6-.13-5.48,1.55-5.43,5.67.18,17.17.08,34.34.08,51.51s0,34.33,0,51.5c0,2.92-.46,5.59,4.16,5.5,14.08-.3,28.19.33,42.25-.34C72.09,461.85,82.9,452.6,86.82,431A131.28,131.28,0,0,0,86.18,378.52ZM61.54,429.24c-2.11,11.63-7.46,15.49-19.84,15.84-11.54.32-11.54.32-11.54-11.09V405.62c0-11.43.12-22.87-.07-34.3-.06-3.58.78-5.3,4.68-4.88,2.83.3,5.72,0,8.57.14C54,367,59.1,371,61.27,381.4A124.81,124.81,0,0,1,61.54,429.24Z"/><path class="cls-5" d="M562,423.08c0-3.51.25-7.06-.05-10.55-1.44-16.8-8.24-26.07-21.85-29.34a59,59,0,0,0-28.73.38c-10.4,2.65-16.71,9.31-19.32,19.53-3.21,12.6-2.94,25.31-.37,37.94,3,14.66,9.36,20.85,24.08,23.06a71.57,71.57,0,0,0,23-.39c12.75-2.2,19.58-9.95,21.9-22.25A70,70,0,0,0,562,423.08Zm-26.1,19.84c-1.39,5.1-4.47,8.1-9.77,8.1s-8.65-3.18-9.67-8.23a100.69,100.69,0,0,1-.17-39.29c1-5.09,4.43-7.88,9.92-7.77s8.53,2.72,9.86,7.9c1.66,6.47,1.19,13.09,1.81,19.38C537.16,429.83,537.61,436.46,535.86,442.92Z"/><path class="cls-5" d="M345,454.13c-1.23-16.51-.31-33-.61-49.55-.17-9.16-3.32-16.57-12.49-19.72a61.17,61.17,0,0,0-42.64.81,17.6,17.6,0,0,0-11.24,12.93c-1,4-.13,6.23,4.74,5.78a91,91,0,0,1,13.21,0c2.91.15,4.09-.8,5-3.67,2-6.23,8-9,14.18-7.22,4.91,1.38,7.49,7.28,6.72,15-.6,5.89-5.05,2.87-7.63,3.06-9.27.71-18.47,1.58-26.88,5.87-10.18,5.2-14.28,16.1-11.21,28.94,2.62,10.95,10.28,16.92,21.88,17.24,9.16.26,17.22-2.5,23.36-8,4.13,1.35-.23,7.65,5.81,7.61s12.26,0,18.56,0C345.51,459.77,345.24,457,345,454.13Zm-23-23.6c-.41,4.19-.39,7.67-1.68,11-2.31,6-6.4,9.18-13,8.78-5-.31-7.26-3.59-8.25-8-1.62-7.18.61-13.49,5.74-16a29.06,29.06,0,0,1,14.05-2.64C325.15,423.92,319.88,429.12,322,430.53Z"/><path class="cls-5" d="M174.53,457.24a124.26,124.26,0,0,1-1-15.8c-.15-12.78,0-25.56-.12-38.34-.06-7.93-3.24-14.6-10.71-17.5-15.4-6-31-5.73-46.2,1.1a15.44,15.44,0,0,0-9.4,13.41c-.12,1.43-.78,3.82,1.19,3.91,6.59.33,13.2.22,19.81.09,1.77,0,1.34-1.93,1.76-3.09,2.25-6.11,7-8.85,13.39-7.76,5.64,1,8.17,6.12,7.78,14.78-.3,6.72-5.23,3.19-7.86,3.43-8.8.81-17.56,1.57-25.66,5.43-10.76,5.12-15.42,16.2-12.41,29,2.63,11.23,10.47,17.35,22.34,17.61,8.93.2,16.83-2.49,24.72-9.39-.56,8.38,3.35,9.89,9.36,9.07a29.51,29.51,0,0,1,7.91,0C174.48,463.89,175.15,461.62,174.53,457.24Zm-23.58-25a25.34,25.34,0,0,1-1.45,9.08c-2.19,6-6.18,9.4-12.82,9.05-5.3-.28-7.65-3.57-8.48-8.37-1.35-7.79.67-13.37,6.11-15.77a33.94,33.94,0,0,1,8.18-2.18C151.05,422.66,151.16,422.82,151,432.23Z"/><path class="cls-5" d="M368.89,532.52a24.8,24.8,0,0,0,12.58,3.55c7.18,0,11.37-3.79,11.37-9.27,0-5.08-2.9-8-10.24-10.81-8.87-3.15-14.36-7.74-14.36-15.41,0-8.46,7-14.75,17.58-14.75,5.57,0,9.6,1.29,12,2.66l-1.94,5.72a21.71,21.71,0,0,0-10.32-2.58c-7.42,0-10.24,4.44-10.24,8.15,0,5.08,3.31,7.58,10.81,10.48,9.19,3.55,13.87,8,13.87,16,0,8.39-6.21,15.65-19,15.65-5.24,0-11-1.54-13.87-3.47Z"/><path class="cls-5" d="M417.35,502l8.55,23.06c.89,2.58,1.86,5.65,2.5,8h.16c.73-2.34,1.54-5.33,2.5-8.15l7.75-22.9h7.5l-10.65,27.82c-5.08,13.39-8.55,20.24-13.39,24.44a19.16,19.16,0,0,1-8.71,4.59l-1.77-6a19,19,0,0,0,6.21-3.47,21.55,21.55,0,0,0,6-7.91,5.09,5.09,0,0,0,.56-1.69,6.18,6.18,0,0,0-.48-1.85l-14.44-36Z"/><path class="cls-5" d="M480.1,541.07l-.57-4.92h-.24A14.53,14.53,0,0,1,467.35,542c-7.9,0-11.93-5.57-11.93-11.21,0-9.44,8.38-14.6,23.47-14.52v-.81c0-3.22-.89-9-8.88-9a19.5,19.5,0,0,0-10.16,2.9l-1.61-4.67a24.2,24.2,0,0,1,12.82-3.47c11.94,0,14.84,8.14,14.84,16v14.6a54.29,54.29,0,0,0,.65,9.35Zm-1.05-19.92c-7.75-.16-16.54,1.21-16.54,8.79,0,4.6,3.07,6.78,6.7,6.78a9.7,9.7,0,0,0,9.43-6.54,7.14,7.14,0,0,0,.41-2.26Z"/><path class="cls-5" d="M503.4,514.21c0-4.59-.08-8.54-.32-12.17h6.21l.24,7.66h.32c1.78-5.24,6-8.55,10.81-8.55a7.77,7.77,0,0,1,2,.24v6.7a10.23,10.23,0,0,0-2.42-.25c-5,0-8.55,3.79-9.52,9.12a20,20,0,0,0-.32,3.3v20.81h-7Z"/><path class="cls-5" d="M544,491.07a4.4,4.4,0,0,1-8.79,0,4.33,4.33,0,0,1,4.44-4.44A4.21,4.21,0,0,1,544,491.07Zm-7.9,50V502h7.1v39Z"/><path class="cls-5" d="M582.67,541.07l-.56-4.92h-.24A14.53,14.53,0,0,1,569.93,542C562,542,558,536.39,558,530.75c0-9.44,8.39-14.6,23.47-14.52v-.81c0-3.22-.88-9-8.87-9a19.47,19.47,0,0,0-10.16,2.9l-1.61-4.67a24.17,24.17,0,0,1,12.82-3.47c11.94,0,14.84,8.14,14.84,16v14.6a54.29,54.29,0,0,0,.65,9.35Zm-1-19.92c-7.75-.16-16.54,1.21-16.54,8.79,0,4.6,3.07,6.78,6.7,6.78a9.71,9.71,0,0,0,9.43-6.54,7.43,7.43,0,0,0,.41-2.26Z"/><path class="cls-5" d="M606,483.81h7.1v24.36h.16a13.13,13.13,0,0,1,5.08-5,14.57,14.57,0,0,1,7.26-2c5.24,0,13.63,3.23,13.63,16.69v23.23h-7.1V518.65c0-6.29-2.34-11.61-9-11.61a10.19,10.19,0,0,0-9.52,7.09,8.68,8.68,0,0,0-.48,3.39v23.55H606Z"/></svg>