<svg id="Layer_1" data-name="Layer 1" xmlns="http://www.w3.org/2000/svg" viewBox="0 0 1106.13 743.43"><defs><style>.cls-1{fill:#f8c983;}.cls-2{fill:#f29810;}.cls-3{fill:#fcd000;}.cls-4{fill:#e95b24;}.cls-5{fill:#007242;}.cls-6{fill:#f2951d;}</style></defs><title>bank-danamon</title><path class="cls-1" d="M1102.94,473.26l-1.51-.27c-2.22-2.6-1.93-5.77-1.94-8.83q-.06-69.42,0-138.84c0-3.27-.29-6.67,2.14-9.43h1.31Z"/><path class="cls-2" d="M1101.63,315.89q-.11,78.56-.2,157.1L840.84,415.72c-6.86-1.51-13.75-2.85-20.63-4.27a4.34,4.34,0,0,1-1.57-2,8.12,8.12,0,0,1-.57-2.56q-.5-43.41,0-86.81a8.8,8.8,0,0,1,.54-2.57,4.25,4.25,0,0,1,1.57-2q136.77,0,273.54,0C1096.36,315.6,1099,315.79,1101.63,315.89Z"/><path class="cls-3" d="M820.21,411.45c0,18.27-.23,36.55.09,54.82.11,5.86-.83,6.85-6.68,4.72Q652.31,412.12,490.86,353.66q-47.72-17.32-95.4-34.7c-1-.37-2-.92-2.93-1.38a2.84,2.84,0,0,1,1.72-1.35c15.8,1.63,31.05,6.08,46.5,9.45,87.11,19,174.12,38.4,261.21,57.45q55.15,12.08,110.27,24.37c2.79.63,5.67,1,7.63,3.46Z"/><path class="cls-4" d="M177.21,315.39q-84.54.09-169.08.25c-3.76,0-5-1.22-5-4.92.12-25.1.08-50.2,0-75.3,0-2.92.31-4.47,4-3.64q84.92,19,169.89,37.78c1.88,1.56,2.09,3.78,2.13,5.94q.3,17,0,33.92C179.24,311.58,179.05,313.8,177.21,315.39Z"/><path class="cls-5" d="M386.82,438.74c13.65-13.34,30-13.14,41.17-.82,2.54,2.8,3,.9,4.15-.58,4-5.2,9.41-7.76,15.79-8.55,16.16-2,26.27,6.48,26.41,22.47.16,17.85-.09,35.7.14,53.54,0,4.38-1.26,5.78-5.6,5.46-6.11-.45-14.08,2-17.9-1.09-4.07-3.23-1.16-11.53-1.27-17.6-.23-12.55,0-25.11-.14-37.67-.1-8.65-2.43-11.57-8.43-11.43-6.43.14-10,4.31-10.08,12-.08,16.75-.17,33.49.07,50.23.06,4.31-1.11,5.87-5.5,5.51a80.19,80.19,0,0,0-13.86,0c-4.92.47-5.74-1.6-5.68-6,.22-16.74.14-33.49,0-50.23-.07-8.73-2.28-11.61-8.27-11.57-6.41,0-10.19,4.25-10.24,11.91-.11,16.31-.38,32.62.14,48.91.2,6.17-1.81,7.57-7.35,7a77.32,77.32,0,0,0-12.55,0c-3.49.19-5.1-.57-5.09-4.62q.12-35.69-.32-71.38c0-3.22,1.29-3.59,3.86-3.52,4.62.11,9.25.1,13.88,0C384.56,430.63,389.15,430.11,386.82,438.74Z"/><path class="cls-2" d="M177.21,315.39q0-22.9-.07-45.83l.31-.2c2-1.53,4.21-.81,6.34-.35,59.12,12.86,118.17,26.07,177.26,39.08,6,1.32,11.79,3.53,17.75,5.06a7.21,7.21,0,0,1,4.79,1.9c-.91,1.51-2.39.78-3.54.78q-98.8.07-197.61,0C180.7,315.85,179,315.55,177.21,315.39Z"/><path class="cls-5" d="M603,438c7.49-8.46,16-10.46,25.77-8.7,11.1,2,17.08,7.75,17.37,19,.49,19.35.14,38.73.25,58.09,0,2.8-.87,4.17-3.78,3.83-.21,0-.44,0-.66,0-6.54-.31-14.91,2.66-19.14-1.08-4-3.54-1-12-1.16-18.33-.21-11.66,0-23.33-.09-35-.06-10.22-2.23-13.47-8.64-13.31-6.74.17-9.92,4.42-9.94,13.45,0,16.28-.15,32.57.09,48.85.07,4.31-1.1,5.83-5.48,5.5a92.48,92.48,0,0,0-14.51,0c-4.33.34-5-1.47-5-5.31.1-23.33.07-46.66-.21-70,0-3.75,1.19-4.45,4.45-4.28a111.61,111.61,0,0,0,12.54,0C599.56,430.4,603.69,430.5,603,438Z"/><path class="cls-5" d="M216.45,438.68c5.35-6.58,10.74-9.16,17.12-9.91,16.54-1.93,26.41,6.52,26.53,23,.11,17.63-.09,35.26.11,52.88.05,4.21-1,6.06-5.48,5.55-6.27-.71-14.69,2.72-18.29-1.38-3.11-3.52-1-11.73-1-17.86-.07-12.34.08-24.68-.09-37-.12-8.56-2.53-11.59-8.45-11.52-6.48.07-10,4.15-10.07,12-.08,16.75-.15,33.5.07,50.24.05,4.22-.95,5.94-5.44,5.58a91.54,91.54,0,0,0-14.53,0c-4.29.34-5.07-1.39-5-5.28.11-23.35.08-46.71-.21-70.07,0-3.84,1.35-4.36,4.51-4.22a114.14,114.14,0,0,0,13.21,0C214,430.33,217.22,431.16,216.45,438.68Z"/><path class="cls-3" d="M378.8,313.15c-13.14-1.12-25.73-5-38.53-7.84q-78.25-17-156.45-34.38c-2.14-.48-4.25-1.05-6.38-1.57.07-10.56.42-21.12.1-31.66-.17-5.61,1-6.51,6.32-4.3,44.25,18.19,88.64,36.07,133,54.13C337.51,296,358.14,304.61,378.8,313.15Z"/><path class="cls-6" d="M392.53,317.58c-1.72-.28-3.57-.2-5.27-2.43,2.11-.14,3.86-.36,5.61-.36q210.45,0,420.9,0c2.14,0,4.41-.65,6.41.75l-.33.51c-3.68,2.87-8,1.95-12.12,1.95q-167.84.08-335.67,0c-26,0-52,1.45-77.87-1.34-.38,0-.8.33-1.2.51Z"/><path class="cls-4" d="M393,317.15c1.51-1.9,3.65-1.19,5.53-1.19q209.67,0,419.35,0c.66,0,1.32.08,2,.12q0,47.44,0,94.89-130.8-28.84-261.61-57.68Q475.65,335.12,393,317.15Z"/><path class="cls-5" d="M86.18,425.54c-4.25-19.1-15-28.23-34.61-29-14.29-.56-28.62-.07-42.91-.46-4.6-.12-5.48,1.55-5.43,5.68.18,17.16.08,34.33.08,51.5s0,34.34,0,51.51c0,2.91-.46,5.59,4.16,5.49,14.08-.29,28.19.33,42.25-.34C72.09,508.87,82.9,499.62,86.82,478A131.28,131.28,0,0,0,86.18,425.54ZM61.54,476.27c-2.11,11.62-7.46,15.48-19.84,15.83-11.54.33-11.54.33-11.54-11.09V452.64c0-11.43.12-22.87-.07-34.3-.06-3.58.78-5.29,4.68-4.88,2.83.3,5.72,0,8.57.15C54,414.06,59.1,418,61.27,428.42A124.86,124.86,0,0,1,61.54,476.27Z"/><path class="cls-5" d="M562,470.11c0-3.52.25-7.06-.05-10.56-1.44-16.79-8.24-26.06-21.85-29.34a59.07,59.07,0,0,0-28.73.38c-10.4,2.66-16.71,9.31-19.32,19.53-3.21,12.6-2.94,25.31-.37,37.95,3,14.65,9.36,20.84,24.08,23.06a71.86,71.86,0,0,0,23-.4c12.75-2.2,19.58-9.94,21.9-22.24A70,70,0,0,0,562,470.11Zm-26.1,19.83c-1.39,5.1-4.47,8.1-9.77,8.11s-8.65-3.19-9.67-8.23a100.74,100.74,0,0,1-.17-39.3c1-5.08,4.43-7.88,9.92-7.77s8.53,2.72,9.86,7.9c1.66,6.47,1.19,13.1,1.81,19.39C537.16,476.85,537.61,483.48,535.86,489.94Z"/><path class="cls-5" d="M345,501.15c-1.23-16.5-.31-33-.61-49.54-.17-9.16-3.32-16.58-12.49-19.73a61.23,61.23,0,0,0-42.64.81,17.62,17.62,0,0,0-11.24,12.94c-1,4-.13,6.22,4.74,5.77a92.44,92.44,0,0,1,13.21,0c2.91.16,4.09-.8,5-3.67,2-6.22,8-9,14.18-7.22,4.91,1.38,7.49,7.28,6.72,15-.6,5.88-5.05,2.86-7.63,3.06-9.27.71-18.47,1.57-26.88,5.86-10.18,5.21-14.28,16.11-11.21,28.95,2.62,10.94,10.28,16.91,21.88,17.24,9.16.26,17.22-2.51,23.36-8,4.13,1.34-.23,7.64,5.81,7.6s12.26,0,18.56,0C345.51,506.79,345.24,504,345,501.15Zm-23-23.6c-.41,4.2-.39,7.67-1.68,11-2.31,6-6.4,9.18-13,8.78-5-.3-7.26-3.59-8.25-7.95-1.62-7.18.61-13.5,5.74-16a29,29,0,0,1,14.05-2.65C325.15,471,319.88,476.14,322,477.55Z"/><path class="cls-5" d="M174.53,504.27a124.49,124.49,0,0,1-1-15.8c-.15-12.78,0-25.56-.12-38.34-.06-7.93-3.24-14.61-10.71-17.51-15.4-6-31-5.73-46.2,1.1a15.46,15.46,0,0,0-9.4,13.42c-.12,1.43-.78,3.81,1.19,3.91,6.59.32,13.2.21,19.81.08,1.77,0,1.34-1.92,1.76-3.08,2.25-6.11,7-8.86,13.39-7.76,5.64,1,8.17,6.11,7.78,14.77-.3,6.73-5.23,3.19-7.86,3.44-8.8.81-17.56,1.56-25.66,5.42-10.76,5.12-15.42,16.2-12.41,29,2.63,11.23,10.47,17.36,22.34,17.62,8.93.19,16.83-2.5,24.72-9.4-.56,8.38,3.35,9.9,9.36,9.07a29.51,29.51,0,0,1,7.91,0C174.48,510.92,175.15,508.64,174.53,504.27Zm-23.58-25a25.29,25.29,0,0,1-1.45,9.07c-2.19,6-6.18,9.41-12.82,9.06-5.3-.28-7.65-3.57-8.48-8.38-1.35-7.78.67-13.37,6.11-15.76a33,33,0,0,1,8.18-2.18C151.05,469.68,151.16,469.84,151,479.26Z"/></svg>