<svg id="Layer_1" data-name="Layer 1" xmlns="http://www.w3.org/2000/svg" viewBox="0 0 1106.13 743.43"><defs><style>.cls-1{fill:#ed1c24;}.cls-2{fill:#fff;}</style></defs><title>bank-dbs-indonesia</title><path d="M1081.65,229.9l2.75,0,1,50.88-3.06-.06c-5.08-20.67-25-40.22-64.87-42.29-47.1-2.46-67.54,25.65-67.76,52.21-.32,35.38,27.23,42.61,68,52.54,19.29,4.74,90.57,14.05,84.88,94.12-4,55.94-52.3,82.56-120.68,80.43,0,0-28.46-1-68.09-12-7.43-2.07-9.28.39-12.3,5.88l-3.22.15.09-54.89,3.2.17c1.57,5.58,1.94,15.88,12,24.68,7.45,6.48,24.6,22.42,62.37,22.83,37.19.46,67.93-15.18,72.08-56.73,1.1-11.22-.19-36.85-25.15-48.54-19.55-9.16-73.85-15.2-100.24-38.25,0,0-31.26-21.76-26.25-62.38,6.89-57.37,54.84-71.73,97.86-72.6,0,0,38.51-.35,69.11,7.52,0,0,7.58,2.08,13.89-.29a9.6,9.6,0,0,0,4.4-3.38"/><path d="M812.64,362c4.1-2.23,59.77-23.44,55-74.16C861.83,224.43,793,229,770.05,229H645.37l.21,3c13.08,1.53,19.29,8.71,19,32.36L663.57,481.9c0,21.05-8.91,27.66-20.92,29.26l-.17,3.21h165c21.54,0,75.09-7.22,78.27-70.43,1-14.18-3.22-64.62-73.11-81.95M831,444.38c-1,43.3-26,54-40.62,57.12-15.95,3.4-38.85,2.69-56.57,1.85-17.17-.83-16.32-7.94-16.43-14.85,0,0,.05-29.35.62-67.42,1.22-70,3.15-169.59,3.15-170.84,0-9.83,2.26-10.46,11.33-10.83,5.26-.24,8-.24,20.63-.09,15.57.22,58.08,1.45,60.55,57.46,2.44,57.43-57.77,64.42-72.91,65-.64.11-1,2.47,0,2.51,46.53,2.57,91.57,18.8,90.3,80.11"/><path d="M502.3,229c-13.28.08-134.1,0-134.1,0l.17,3.09c9.74,1.58,17.59,8.08,18.57,18.1,3.09,32.16,4.15,227.28-.78,248.68-1.57,5.59-11,10.88-19.49,12.32l-.17,3.17,149.94,0c59.07,0,123-54.53,123.19-143.07.21-101.78-78-142.54-137.33-142.26m27.21,266.87c-21,7.59-44.18,9.75-72.15,7-15.36-1.5-15.81-10.33-16-14-1.54-26.86-1.05-212.89.49-236.82.83-12.73,3.5-12.36,15.37-12.27,11.16.07,24.43,1,24.43,1,70.31,5.15,96.71,59.48,102,128.66C588.94,441,556,486.34,529.51,495.89"/><path class="cls-1" d="M299.83,371.71c0-21.12.79-40,16.46-73.1,4.51-9.6,14.53-23.74-.23-40.1-11.9-11.93-25.55-9.95-34.64-4.68,5.22-9.18,7.16-22.79-4.75-34.72-16.33-14.68-30.46-4.71-40.07-.16-33.13,15.62-51.92,16.5-73.08,16.5s-40-.88-73.07-16.5c-9.65-4.55-23.8-14.52-40.15.16-11.91,11.93-9.94,25.54-4.75,34.72-9.09-5.28-22.74-7.25-34.68,4.68-14.63,16.38-4.7,30.48-.15,40.1,15.64,33.14,16.5,52,16.5,73.1s-.86,40-16.5,73.12c-4.55,9.57-14.48,23.72.15,40.08,11.94,11.92,25.59,9.93,34.68,4.71-5.19,9.13-7.16,22.75,4.75,34.69,16.35,14.69,30.5,4.72,40.11.18,33.13-15.66,51.92-16.5,73.11-16.5s39.95.84,73.08,16.5c9.61,4.54,23.74,14.51,40.07-.18,11.91-11.94,10-25.56,4.71-34.69,9.13,5.22,22.78,7.22,34.68-4.71,14.76-16.36,4.74-30.47.23-40.07-15.67-33.18-16.46-52-16.46-73.13M263.53,472l-77.66-65.17s-10.51-10.22-22.35-10.22-22.38,10.22-22.38,10.22L63.47,472l-.26-.25,65.18-77.64s10.24-10.52,10.24-22.39-10.24-22.36-10.24-22.36L63.21,271.7l.26-.3,77.67,65.2s10.49,10.25,22.38,10.25,22.35-10.25,22.35-10.25l77.62-65.15.25.26-65.13,77.64s-10.27,10.48-10.27,22.36,10.27,22.39,10.27,22.39l65.13,77.6Z"/><path class="cls-2" d="M263.49,472l-77.63-65.17s-10.47-10.22-22.38-10.22-22.37,10.22-22.37,10.22L63.52,472l-.3-.24,65.15-77.67s10.26-10.49,10.26-22.37-10.26-22.38-10.26-22.38L63.22,271.7l.22-.29,77.67,65.21s10.53,10.25,22.37,10.25,22.45-10.25,22.45-10.25l77.56-65.14.28.24L198.6,349.35s-10.21,10.52-10.21,22.38S198.6,394.1,198.6,394.1l65.17,77.64-.28.27"/></svg>