<svg id="Layer_1" data-name="Layer 1" xmlns="http://www.w3.org/2000/svg" viewBox="0 0 1106.13 743.43"><defs><style>.cls-1{fill:#d0271f;}.cls-2{fill:#1d1717;}</style></defs><title>bank-dki</title><path class="cls-1" d="M644.8,330c-11.27,6.87-11.25,6.87-4.78,17.73,18.44,31,36.81,62,55.4,92.87,1.92,3.19,1.61,4.62-1.69,5.78a14.12,14.12,0,0,0-2.54,1.22c-3.32,2-5.26,1.39-7.32-2.27-17.51-31-35.32-61.75-52.84-92.7-2.18-3.84-3.43-5.09-7.31-1.63-5.83,5.19-6.1,4.88-2.15,11.52q25.74,43.2,51.54,86.37c2,3.28,2.12,4.49-2.22,5.2-7.17,1.16-7.12,1.46-10.72-4.83-15.34-26.76-30.76-53.48-45.94-80.33-2-3.6-3.35-3.37-6.12-1.05-6.56,5.49-6.65,5.39-2.38,12.56q20.89,35.1,41.81,70.18c.79,1.33,1.56,2.67,2.41,4.13-27.53.44-62.54-18.93-75.57-54-14.07-37.86.25-77.84,35.43-99.43a86.51,86.51,0,0,1,109.43,16c25.23,27.83,29.3,69.05,6,102.42-1.57-.41-1.73-2-2.36-3.09Q693.69,365.88,664.7,315c-2-3.43-3.24-3.45-6.08-1.15-6.7,5.41-6.8,5.28-2.34,12.77q29.34,49.31,58.79,98.54c2,3.29,1.75,5.21-1.14,7.35-2.37,1.75-4.58,3.71-7.11,5.78Q675.7,384,644.8,330Z"/><path class="cls-2" d="M369.4,383.71c5.33-16,10.41-31.15,15.45-46.33a91,91,0,0,0,2.83-9.47c1.75-8.35-.5-11.55-8.81-13.37-1.12-.24-3.31.8-3.22-1.49s2-2.36,3.85-2.35c11.35.06,22.71,0,34.06.08,1.05,0,2.88-.89,3.06,1,.14,1.39-.68,2.55-2.56,2.68-10.89.75-16,7.69-19.22,17.3-9.58,28.93-19.42,57.77-29.25,86.61-.58,1.69-.27,4.32-3.33,4.43-2.82.11-3.18-2.17-4.1-3.87Q335.53,377,312.93,335c-.8-1.49-1.69-2.93-2.47-4.29-1.91.15-1.65,1.65-1.94,2.52q-11.41,34-22.66,68a26,26,0,0,0-1.44,6.88c-.26,5.66,3.28,8.78,10.44,9.68,1.21.15,3.14-.64,2.86,1.88-.22,2.1-1.8,1.81-3.18,1.81q-18,0-36,0c-.92,0-2.42.62-2.51-1.19s.92-2.47,2.66-2.47c9.64,0,15.25-5.79,18.09-14,9.17-26.58,17.87-53.31,26.84-80,.53-1.58.49-2.5-.83-3.63-3.69-3.13-7.69-5.36-12.64-5.79-1.24-.11-3.66,1.28-3.65-1.38,0-2.82,2.49-2.26,4.3-2.26,10.09,0,20.22.49,30.27-.18,6.95-.46,10.43,1.95,13.58,8.13C345.7,340.25,357.43,361.44,369.4,383.71Z"/><path class="cls-2" d="M453.07,373.49c-3.28,10.48-6.69,20.92-9.78,31.46-2.62,8.91-.14,12.13,9.21,12.84,1.22.09,3.32-.76,3.36,1.33.05,2.28-2,2.36-3.81,2.36-18.46,0-36.92,0-55.37-.06-1,0-2.92.88-3-1.06-.06-1.69,1.09-2.72,3.11-2.63,10,.44,15-5.19,17.92-14.11,8.15-25.26,16.64-50.42,24.84-75.67,3.07-9.47,1.13-12.17-8.76-13.54-1.17-.16-3.54,1.16-3.3-1.73.19-2.31,2.08-1.94,3.61-1.94q27,0,53.95,0c.91,0,2.55-.72,2.57,1,0,1.1-.4,2.6-2.15,2.57-11.23-.18-15.45,7.34-18.18,16.53a14.12,14.12,0,0,1-.76,1.69C461.63,346.07,457.11,359.7,453.07,373.49Z"/><path class="cls-2" d="M1102.94,309.71c-.22,2.92-1.38,3.74-3.73,3.76-7.46,0-12.38,3.76-15,10.76-6.29,17.09-11.16,34.65-16.85,51.94-3.24,9.84-6.37,19.72-9.28,29.66-2.18,7.44-.11,10.09,7.54,11,2,.25,5.87-1.19,5.81,1.66-.09,3.94-4.19,2.19-6.52,2.21-16.87.15-33.74.11-50.61,0-1.47,0-4,1.18-4.32-1.2s2.18-2.64,4.11-2.61c9.3.16,13.88-5.44,16.46-13.44q9-28,18-56.05c2.21-6.88,4.51-13.73,6.51-20.67,2.77-9.64,1-12.08-9-13.32-1.4-.17-4,1.19-4-1.55s2.54-2.2,4.39-2.2Z"/><path class="cls-2" d="M940.66,384.86c-2,6.92-4.16,13.81-6,20.79-1.92,7.39.47,10.5,8.18,11.19a3.23,3.23,0,0,1,.94.08c1.19.52,3.59-1,3.45,1.74-.12,2.5-2.22,2.14-3.93,2.14H924.88c-11.51,0-23,0-34.53-.05-1.21,0-3.22.89-3.5-1.13s1.27-2.77,3.08-2.67c10,.54,14.58-5.42,17.29-14.06,7.93-25.31,16.15-50.53,24-75.86,3.14-10.08,1.24-12.52-9.32-13.64-1-.11-2.82.63-2.51-1.53.23-1.62,1.31-2.21,3-2.19,6.94.08,13.87,0,20.81,0,10.56,0,21.12,0,31.69.06,1.08,0,3.18-1.11,3.17,1.34,0,1.62-1.16,2.39-2.9,2.32-6.14-.26-10.31,3.09-13.73,7.72-3.71,6.79-5.52,14.31-7.76,21.6-3.67,12-7.34,23.92-11.39,35.77A34.62,34.62,0,0,0,940.66,384.86Z"/><path class="cls-2" d="M453.07,373.49a15,15,0,0,1,.24-3.7q5.93-18,12-36c.16-.5.79-.85,1.2-1.27l-8.41,26.92c7.16-5.71,13.32-10.6,19.44-15.53,6.87-5.54,13.69-11.13,20.55-16.67,2.45-2,4.36-4.36,3.81-7.63s-3.44-4.15-6.22-5c-.78-.24-2.52.52-2.2-1.52a2.42,2.42,0,0,1,2.79-2.4c14.51.06,29,0,43.53.05.83,0,2.07-.36,2,1.16,0,1.74-1,2.4-2.71,2.54-10.41.89-19.25,5.84-27.42,11.73-9.82,7.08-19.07,15-28.66,22.38-1.47,1.13-1.43,2.06-.88,3.52,6.74,17.78,12.59,35.89,20,53.39,2.7,6.33,6.26,11.76,14.06,12.3.84.06,1.69.31,1.52,1.31a3,3,0,0,1-1.1,2,6.12,6.12,0,0,1-2.76.38q-25.79,0-51.56,0c-.48-2.26.06-3.28,2.49-3.83,7.8-1.76,9.89-5.24,7.47-13-2.69-8.7-5.88-17.24-8.9-25.84-1.92-5.45-3.92-10.88-6.06-16.81C455.8,366.21,454.43,369.85,453.07,373.49Z"/><path class="cls-2" d="M940.66,384.86a11,11,0,0,1,.66-5.06c5.82-18,11.54-36.06,17.39-54.07.54-1.65.46-3.9,2.77-4.58q-5.91,18.06-11.83,36.11l.82.5c7.61-6.25,15.25-12.46,22.82-18.75,5.21-4.33,10.4-8.69,15.45-13.2,5.54-4.93,4.42-9.9-2.56-12.2-1-.32-2.85.31-2.36-1.87.38-1.66,1.51-2.06,3.15-2.06,13.88.05,27.77,0,41.65.07.89,0,2.54-.69,2.45,1.14,0,1-.34,2.32-1.77,2.45-17.68,1.67-29.66,13.52-42.53,23.78-3.94,3.15-7.82,6.37-11.77,9.5-1.89,1.5-2.73,2.85-1.72,5.58,6.28,16.93,12.17,34,18.48,50.93,2.5,6.71,5.59,13.29,14.29,13.83.82.05,1.65.42,1.38,1.45-.19.72-.57,1.71-1.13,1.95a8.38,8.38,0,0,1-3.22.43c-15.46,0-30.92,0-46.38,0-1.16,0-3.24.95-3.35-1.19-.09-1.64,1.24-2.43,3.11-2.81,6.81-1.39,9-4.81,7.17-11.56-3.92-14.72-9.8-28.76-14.76-44.35Z"/><path class="cls-2" d="M130.91,330.25c-1-8.44-8.78-15.46-20.1-18a65.65,65.65,0,0,0-14.06-1.5l-55.37-.06c-.94,0-1.89,0-2.83,0-1.36.05-1.92.89-2.07,2.13-.22,1.91,1.26,1.36,2.21,1.49s2.2.15,3.29.33c8.56,1.43,10.08,3.46,7.72,11.71-2.6,9.05-5.59,18-8.55,26.94-5.93,17.88-11.88,35.76-18,53.58-2.84,8.28-6.32,10.58-15,10.82-.79,0-1.57.05-2.36,0a2.35,2.35,0,0,0-2.56,2.71c.07,1.78,1.7.92,2.56.91,25.7-.39,51.42,1.12,77.09-1.05,12.16-1,22.94-5.06,31.17-14.64,11.32-13.15,8-30.11-7.49-37.84a85.81,85.81,0,0,0-15.43-5.63c9-2.1,17.31-3.82,24.92-7.84C126.22,349,132.05,339.64,130.91,330.25Zm-39.68,54c-.54,16.26-11.66,28.06-27.86,29.78a119.64,119.64,0,0,1-12.26.71c-2.37,0-3.08-.61-2.3-3q7.13-21.46,14.1-43c1.38-4.27,4.77-1.64,6.48-2.38a33.66,33.66,0,0,1,8.64.83C86.47,369.17,91.52,375.6,91.23,384.28ZM99.84,340c-5.39,13.65-16.92,20.25-33.31,18.74,4.4-13.19,8.7-25.95,12.88-38.75.71-2.18,1.9-2.79,4.11-2.88C98.53,316.49,105.37,326,99.84,340Z"/><path class="cls-2" d="M880.36,328.07c-9.08-11.49-21.77-15.61-35.52-17.25-19.33-2.31-38.77-.63-58.15-1.15-2.05-.05-3.75.55-3.74,2.52,0,2.15,2.2,1.12,3.39,1.22,11.76,1,14,3.65,10.51,15.06-7.62,24.94-15.73,49.71-23.57,74.57-2.76,8.77-8.09,14-17.73,13.95-1.7,0-3.43.35-3.33,2.43s2.12,1.33,3.29,1.34c10.25.08,20.51.05,30.76.05v-.31c8.83,0,17.67.2,26.5,0,29.21-.79,52.35-12.69,68.89-37.24C892,367.9,891.69,342.41,880.36,328.07Zm-41.68,73.69c-7.52,7.85-17.53,12-28.66,12.15a23.91,23.91,0,0,1-2.94-.16c-6.35-.94-8.09-3.26-6.18-9.32,8.93-28.3,18.05-56.55,27.05-84.84.71-2.24,2-2.63,4.22-2.57,13.24.41,24,10.1,25.82,24.92C860.76,364.68,854.75,385,838.68,401.76Z"/><path class="cls-2" d="M246.49,417.66c-6-1.52-7.85-3.59-7.8-10,.06-7.57.45-15.13.78-22.68q1.6-36.86,3.24-73.69c0-1.1.81-2.74-1-3.17-1.33-.31-2.83-.5-4,.7-1,1-2,2-3,3q-42.87,44.73-85.81,89.4c-6.58,6.81-12.61,14.69-22.92,16.47-1.92.33-1.61,2-1.89,3.68,11.9,0,23.71,0,35.51,0,1,0,2.37.36,2.5-1.33.07-.78.18-1.8-.64-2.09a22.86,22.86,0,0,0-3.26-.42c-5.71-1.06-7.63-4.63-5-9.35a18.09,18.09,0,0,1,2.44-3.45c5.24-5.66,10.58-11.23,15.8-16.9a5.08,5.08,0,0,1,4.14-1.72c11,0,22.08.07,33.11,0,2.24,0,3.14.65,2.93,2.95-.39,4.4-.65,8.8-.92,13.21-.68,11.12-3.12,13.89-14,15.37-1.69.23-2.89.82-2.87,2.4,0,2.38,2.1,1.31,3.2,1.32,10.41.09,20.82,0,31.22,0,5.84,0,11.67,0,17.5,0,1.75,0,3.32-.24,3.49-2.25S247.54,417.93,246.49,417.66Zm-34.32-42c-.14,2.26-1,3.23-3.52,3.19-9.12-.16-18.24-.06-28.88-.06l34.3-33C213.46,355.37,212.8,365.53,212.17,375.7Z"/></svg>