<svg id="Layer_1" data-name="Layer 1" xmlns="http://www.w3.org/2000/svg" viewBox="0 0 1106.13 743.43"><defs><style>.cls-1{fill:#f1ae4b;}.cls-2{fill:#232021;}.cls-3{fill:#ed4223;}.cls-4{fill:#2b292a;}.cls-5{fill:#0483c9;}.cls-6{fill:#fdfdfd;}</style></defs><title>bank-ekonomi</title><path class="cls-1" d="M3.18,318.84c3.7-2.36,5.29-6.46,7.8-9.75,9-11.72,18.08-23.4,26.08-35.77,4.52-7,9.79-8.39,17.48-8.31,35.25.39,70.52.16,105.78.19,1.16,0,2.78-.7,3.42.66.5,1.08-.8,2-1.44,2.9-9.83,13.52-19.69,27-29.76,40.81,3.24.79,6.41.46,9.49.38,2.82-.07,3.53,1,3.5,3.62q-.17,13.92,0,27.82c0,2.2-.57,3.1-2.9,3-3.26-.17-6.54,0-10.55,0l15.37,20.87,16,21.72c1.4,1.91.65,2.63-1.47,2.61q-7.56,0-15.11,0-50.15,0-100.29.05a5.59,5.59,0,0,1-5.13-2.5q-17-23.3-34.14-46.48c-1.43-1.94-1.67-4.72-4.16-5.94Zm119.3-2.65c-2-.85-1-1.8-.17-2.88q14.24-19.47,28.44-39c.61-.83,1.6-1.61,1.06-2.59-.46-.82-1.69-.42-2.57-.43-14.89,0-29.78,0-44.68-.05-1.81,0-2.79.76-3.92,2.09-3.5,4.14-6.19,8.85-9.53,13.13-7.68,9.82-14.74,20.14-22.2,30.14-5.63,7.56-4.43,15.35,0,21.13,7.77,10.21,15,20.79,22.71,31.07,3.54,4.74,6.72,9.78,10.84,14.09,1,.71,2.21.36,3.32.36q19.16.06,38.31,0c2.28,0,4.56,0,6.84,0,1.77,0,2-.62,1-1.94-.8-1.95-2.58-3.13-3.77-4.77Q136,359.88,123.87,343.13c-.91-1.25-2.69-2.55-2.08-3.91s2.69-.44,4.12-.59c4.37-.43,8.82.84,13.13-.67,1.1-6.8.31-13.64.45-20.47,0-1.79-1.56-1.31-2.59-1.32C132.09,316.14,127.28,316.18,122.48,316.19Zm-52-44.87c-7.22,0-14.43.06-21.64,0a4.91,4.91,0,0,0-4.52,2.37q-15.6,21.69-31.4,43.23c-4.74,6.48-5.1,13.92-.44,20.34C23.18,352,34.06,366.7,44.87,381.43a4.6,4.6,0,0,0,4.05,2.06c14.31-.07,28.63,0,42.94-.06.77,0,1.9.08,2.24-.35.73-1-.46-1.57-1-2.26-9.59-13.21-19.39-26.28-28.71-39.68-4.94-7.09-10.53-12-19.79-10.57-1.59.24-2.15-.6-2.23-2.2-.24-4.29.07-5,4.41-4.59a14.94,14.94,0,0,0,14.53-6.5q15.88-21.69,31.81-43.37c.45-.61,1.44-1.1,1-2-.47-1.06-1.62-.59-2.47-.59C84.65,271.31,77.55,271.33,70.45,271.32Z"/><path class="cls-2" d="M1019.19,315.71c5.34-12.4,10.41-24,15.32-35.74.84-2,1.79-2.78,4-2.72,6.07.15,12.15.13,18.21,0,2.08,0,2.66.64,2.9,2.68q5.34,45.87,10.87,91.73c.56,4.68.57,4.68-4,4.68-6.3,0-12.6-.14-18.9.06-2.69.09-3.49-.77-3.62-3.41-.68-13.49-1.56-27-3-40.72l-21.53,44.85-20.91-44.68-.62.15q-.82,17-1.65,34.07c-.1,2.17-.42,4.34-.32,6.51.1,2.49-.68,3.31-3.31,3.24-7.32-.2-14.66-.12-22,0-1.93,0-2.57-.46-2.38-2.5q3-32.49,5.92-65c.85-9.47,1.71-18.93,2.43-28.4.18-2.33.74-3.34,3.41-3.25,7,.23,14,.17,21,0,2.12,0,3,.75,3.71,2.6,4.09,10.44,8.29,20.82,12.47,31.22C1017.68,312.4,1018.31,313.71,1019.19,315.71Z"/><path class="cls-2" d="M833.88,319.54V301.68c0-7.22.07-14.43,0-21.65,0-2,.41-2.82,2.62-2.78,7,.14,14,.11,21,0,2,0,2.54.59,2.54,2.54q-.08,47.08,0,94.16c0,1.76-.48,2.44-2.32,2.4-4.35-.11-8.7-.12-13,0-1.78.06-2.67-.91-3.68-2.05q-17.29-19.56-34.61-39.09a16.48,16.48,0,0,1-1.31-2.1c-1.36,1.59-.91,2.78-.91,3.86-.05,11.91-.12,23.82,0,35.73,0,2.74-.47,3.81-3.49,3.69-6.17-.26-12.37-.24-18.55,0-2.9.1-3.84-.5-3.81-3.67.16-22.45.09-44.9.09-67.35,0-8.48.07-16.95,0-25.43,0-2.06.45-3.05,2.63-2.65a3.87,3.87,0,0,0,.68,0c4.69.07,10-1.18,13.89.58s6.52,6.52,9.62,10q13,14.65,25.94,29.34C831.78,318.07,832.24,319.22,833.88,319.54Z"/><path class="cls-2" d="M341.65,374.49c-.06-2.51-.16-5-.16-7.54,0-28.74,0-57.48-.06-86.22,0-2.57.46-3.73,3.35-3.48,4.77.41,10.16-1.43,14.2.67s6.45,6.65,9.55,10.16c9.3,10.52,18.59,21.06,28.06,31.8.81-1.44.49-2.7.49-3.88,0-11.9.08-23.81,0-35.72,0-2.42.67-3.1,3.07-3,6.87.16,13.74.12,20.61,0,1.95,0,2.49.59,2.49,2.54q-.07,47.06,0,94.12c0,1.69-.33,2.68-2.24,2.4a5.14,5.14,0,0,0-.68,0c-4.69,0-9.84,1.14-13.94-.42s-6.52-6.51-9.62-10c-9.57-10.78-19.05-21.64-28.56-32.47-.22-.55-.38-1.42-1.19-.91-.45.27-.2,1,.26,1.36,0,.48,0,.95,0,1.43l-.71.38.76.33v39.15c-6.06,0-12.12.05-18.18,0C346.58,375.18,344,375.6,341.65,374.49Z"/><path class="cls-2" d="M772.6,327.37c-.11,28.52-22.38,50.62-50.9,50.54-26.1-.08-48.6-23.73-48.33-50.81.26-27.57,22.66-50.24,49.64-50.26C750.16,276.82,772.71,299.79,772.6,327.37Zm-73.23-.07c0,13.45,10.55,24.48,23.53,24.54,12.8.06,23.83-11.17,23.92-24.34S735.87,303,723.1,303C710.13,302.9,699.4,313.91,699.37,327.3Z"/><path class="cls-2" d="M866.32,327.27c.1-27.91,22.31-50.52,49.59-50.4,28,.13,50.38,24.15,49.42,52.39-.89,26.4-23,49.14-50.72,48.71C888.27,377.57,866.22,354.7,866.32,327.27ZM915.86,303c-13,0-23.74,11-23.87,24.3s10.7,24.5,23.59,24.56,23.9-11.15,23.92-24.29S928.62,303,915.86,303Z"/><path class="cls-2" d="M689,376.34c-9.18,0-18.11-.09-27,.06-2.16,0-3-1.11-3.92-2.61q-11.44-18.14-23-36.22c-.83-1.3-1.7-2.57-3.09-4.67-.11,2.14-.23,3.32-.23,4.5,0,12-.06,24.05.06,36.07,0,2.23-.52,3-2.84,2.92-6.64-.16-13.29-.2-19.93,0-2.69.09-3.43-.59-3.42-3.34.12-25.65.08-51.3.09-76.95,0-5.38.09-10.77-.05-16.15,0-2.06.45-2.77,2.63-2.72q10.31.22,20.61,0c2.24,0,2.92.57,2.89,2.87-.11,11.68,0,23.36,0,35,0,1,.09,2,.15,3.08,1.46-.45,1.68-1.69,2.22-2.58q10.89-18.07,21.71-36.2c.65-1.07,1.06-2.21,2.7-2.2,8.56.05,17.12,0,26.3,0-2.36,4.29-4.46,8.15-6.59,12-6.44,11.59-12.83,23.22-19.39,34.74-1.15,2-.94,3.36.27,5.21q14.26,21.82,28.32,43.8C688,373.94,689,374.72,689,376.34Z"/><path class="cls-2" d="M289.2,277.3c4.69,0,9.39.08,14.08,0,1.8,0,2.57.51,3.1,2.29q14,47.18,28.19,94.29c.59,1.95.44,2.56-1.77,2.53q-11.51-.17-23,0c-1.92,0-2.75-.66-2.93-2.43a1.32,1.32,0,0,0-.08-.33c-1-3-.35-7.28-2.8-8.84-2.22-1.41-6-.43-9.07-.44-6.75,0-13.51.08-20.27,0-1.9,0-2.79.47-3.39,2.36-1,3.21-.71,7.7-3.51,9.25-2.55,1.42-6.47.39-9.79.4-4.12,0-8.24,0-12.37,0-1.8,0-2.76,0-2-2.41q14.26-47.26,28.33-94.59a2.5,2.5,0,0,1,2.91-2.1c4.8.09,9.61,0,14.43,0Zm.31,31.63c-3.13,10.41-6,20-8.92,29.57-.41,1.35-.17,1.83,1.3,1.81,4.56-.06,9.13,0,13.69,0,1.34,0,1.77-.26,1.38-1.76C294.49,329,292.12,319.36,289.51,308.93Z"/><path class="cls-2" d="M484.93,375.22Q472,355,459,334.81c-.34-.53-.68-1.06-1.55-2.44V338c0,11.79-.06,23.58.07,35.37,0,2.43-.65,3.08-3,3-6.87-.15-13.74-.1-20.61,0-1.85,0-2.57-.4-2.57-2.44q.09-47.06,0-94.11c0-2.29.86-2.59,2.8-2.57,6.87.1,13.74.15,20.61,0,2.36-.06,2.8.78,2.79,2.92-.1,11.68,0,23.36,0,35v4.37c2.17-3.56,3.81-6.21,5.42-8.89,6.16-10.3,12.35-20.59,18.42-31a4.32,4.32,0,0,1,4.33-2.46q10.81.19,21.64,0c2.7,0,3.13.48,1.74,3-8.19,14.55-16.21,29.19-24.4,43.74a4.31,4.31,0,0,0,.2,5.21c9.77,15.06,19.4,30.2,29.08,45.32-1.34.84-2.85.72-4.33.72Z"/><path class="cls-2" d="M228.31,324.64a28.31,28.31,0,0,1,10.17,41.54c-3.87,5.49-9.57,8-15.94,9.17-7.83,1.45-15.75.9-23.63,1-5.27.05-10.54-.07-15.8.05-2,.05-2.79-.35-2.78-2.6q.1-46.87,0-93.76c0-1.36-.32-2.81,1.91-2.74,12.46.39,25-.86,37.38.84,17.65,2.43,22.82,14.4,21,29.8C239.72,315.52,236.35,321.63,228.31,324.64Zm-22.67,19.88c0,2.74,0,5.47,0,8.2,0,1.2.23,1.8,1.66,1.93,4.74.45,8.42-1.74,9.52-5.89,1.67-6.29-.13-11.84-4.6-13.59a20.48,20.48,0,0,0-4.66-.82c-1.5-.21-2,.51-1.93,2C205.7,339.05,205.64,341.79,205.64,344.52Zm11.49-38.23c-.07-5.73-4.67-9.31-10.24-8.1-1.35.29-1.23,1.1-1.24,2,0,4.34,0,8.69,0,13,0,1.56.65,1.82,2,1.91C213.86,315.54,217.21,312.48,217.13,306.29Z"/><path class="cls-2" d="M541.37,375.19q0-37.44-.1-74.89c0-6.76.06-13.51,0-20.27,0-1.91.17-2.81,2.52-2.79q23.87.18,47.75,0c2,0,2.78.7,3.25,2.55,1.57,6.09,3.14,12.18,5,18.17.89,2.81-.13,2.95-2.43,2.93-9.27-.09-18.55.06-27.83-.1-2.59,0-3.47.68-3.21,3.26.38,3.73-1.57,8.74.78,10.86,2.06,1.85,7,.57,10.63.59,7.6,0,7.6,0,7.6,7.65,0,3.67-.26,7.36.08,11,.31,3.34-1,4-4,3.81-4.22-.24-8.47,0-12.71-.1-1.74,0-2.46.44-2.39,2.31.13,3.32.16,6.65,0,10-.11,2,.66,2.46,2.54,2.45,9.73-.08,19.47,0,29.2-.08,2.17,0,2.83.31,2.1,2.64-2.11,6.64-4,13.36-6,20C576.59,373.9,559,374.38,541.37,375.19Z"/><path class="cls-2" d="M1102.89,327c0,15.45-.06,30.9,0,46.35,0,2.42-.65,3.06-3,3-6.87-.16-13.74-.14-20.6,0-2.29,0-2.84-.7-2.83-2.94q.11-46.51,0-93c0-2.24.36-3.23,2.93-3.16,7,.18,14,.16,20.94,0,2.25-.05,2.58.76,2.57,2.75C1102.85,295.67,1102.89,311.35,1102.89,327Z"/><path class="cls-3" d="M648.15,464q9.87-10,19.75-19.91c1.63-1.64.05-2.38-.84-3.27q-9.19-9.22-18.42-18.42c-.38-.38-1-.61-.83-1.73h7.3c10.76,0,21.52,0,32.28-.08a7.84,7.84,0,0,1,6.19,2.21q8.91,9,18,17.86c1.71,1.64,1.75,2.63,0,4.33-6.19,5.92-12.22,12-18.25,18.09a6.39,6.39,0,0,1-4.87,2q-19.23,0-38.46,0a6.77,6.77,0,0,1-5.14-2.22c-5.92-6-11.86-12-17.93-17.93-1.59-1.54-1.77-2.43-.11-4,5.91-5.75,11.66-11.64,17.47-17.48.65-.65,1.34-1.59,2.27-1.26,1.28.45.66,1.77.66,2.69,0,11.9,0,23.81,0,35.71v3Zm43.08-41.61-1.13-.77c-5.35,5.57-10.65,11.18-16.06,16.69-4.66,4.75-4.72,4.7,0,9.47s9.33,9.37,14,14c.71.7,1.59,1.56,2.59,1.32s.52-1.38.53-2.11Q691.26,441.66,691.23,422.35Z"/><path class="cls-4" d="M549,420.88a17.24,17.24,0,0,1,10.78,2.62c6.53,3.81,7.89,14.42-1.58,18.56.52,1,1.61.88,2.41,1.3,3.72,1.95,6,4.87,6.22,9.15s-1.69,7.7-5.34,10.05a12.53,12.53,0,0,1-5.44,2c-8.61.93-17.24.25-26.12.12,6.28-.72,5.88-5.21,5.87-9.5q0-12.87,0-25.73a19.15,19.15,0,0,0-.75-5.74c.15-1.79,1.44-1.76,2.74-1.75,2.29,0,4.57.11,6.85,0C546.13,421.82,547.91,422.7,549,420.88Zm-6,31.75v3.43c0,6.36,1.15,7.32,7.59,6.27a10.54,10.54,0,0,0,1.65-.43c3.69-1.26,5.92-3.75,6.32-7.69a8.59,8.59,0,0,0-4.88-9c-2.68-1.46-5.62-1.72-8.62-1.76-1.7,0-2.13.82-2.07,2.35C543,448.06,543,450.35,543,452.63Zm0-20.8h0c0,2.06.13,4.13,0,6.17-.15,1.89.59,2.51,2.39,2.85,6,1.13,11.14-2,11.84-7.41s-3.44-9.89-9.49-10.31c-4.45-.3-4.68-.1-4.69,4.23Z"/><path class="cls-4" d="M754.16,443.37h18.58c-6.43.61-6.28,6-7.69,10.25-.07.21-.13.44-.21.65-1.2,3-.61,7.22-3.5,9-4.24,2.56-9.32,3.12-14.31,2.57-9.31-1-15.4-7.45-16-16.36-1.18-17.64,18.38-34.31,35.41-27.21,2.52,1,4-.23,5.67-1.85.29,3.1-1.59,11.2-3.11,13.87-1-.29-.66-1-.58-1.68.53-4.9-2-8.39-6.95-9.28-6.57-1.16-12,1.13-16.2,6.14a29.55,29.55,0,0,0-6.56,24.09c1.14,7.75,7.55,11.59,14.87,9.43a3.73,3.73,0,0,0,2.93-2.91c.85-3.43,1.94-6.8,2.82-10.23,1.08-4.22.53-4.91-3.94-5.32C754.92,444.43,754.48,444.45,754.16,443.37Z"/><path class="cls-4" d="M499.88,454.08c2.27,5.47,5.77,9.32,12.25,9.16,3.47-.09,6.32-1.41,7.58-4.83s-.41-6.05-2.85-8.18c-3.9-3.4-8.56-5.68-12.89-8.43-4.05-2.57-6.57-6-6.33-11,.36-7.52,7.09-12.17,15.58-10.74a18.27,18.27,0,0,1,3.28.94c4,1.43,4,1.44,7.21-1.4v15.07c-1.63-.75-1.29-2.08-1.65-3.06-1.78-4.79-4.71-8.37-10.1-9.09a7.35,7.35,0,0,0-8,4.48c-1.23,3.45.6,5.74,3.22,7.5,3,2,6.23,3.82,9.29,5.82a44.47,44.47,0,0,1,6.06,4.47c7.27,6.84,4.56,17.68-5,20.51a18.66,18.66,0,0,1-11.79-.69c-2.38-.85-4.58-1.23-6.81.21a39.17,39.17,0,0,1,0-5.08C499,457.84,497.79,455.62,499.88,454.08Z"/><path class="cls-4" d="M609.93,420.07l1,14.39c-1.77.21-1.42-.93-1.64-1.56-2.17-6.39-7.24-10.13-14.19-10.46-6.77-.31-12.13,2.85-14.81,9a28.13,28.13,0,0,0-1.57,18.78c1.67,6.33,5.67,10.63,12.17,12.21,7.08,1.72,13.05-.4,18-5.6.63-.66,1.17-1.4,1.79-2.06.12-.12.43-.06,1.35-.15-2.41,4.59-5.57,7.85-10,9.53-9.37,3.55-18.05,2.12-25.51-4.67a21.77,21.77,0,0,1-5.36-24.25c3.73-9.39,10.86-14.44,20.88-15.34a22,22,0,0,1,10.44,1.45c2.62,1.07,5.25,2.62,6.61-2.39Z"/><path class="cls-4" d="M480.89,443.23l-21.47,0c-.42-.11-1.15-.31-1.16.16,0,5.29-.38,10.59.2,15.87,0,.2.54.34.83.51.75,3.5,3.7,3.82,6.72,4l-.28.82H445.8c.15-.41.19-.77.3-.79,5.81-1.25,6-1.53,6-7.43q0-13,0-26.06c0-6.89,0-6.89-6.24-9.2h19.89c-.15.39-.2.72-.31.75-5.92,1.24-6.12,1.39-6,7.35.06,3.64-1.56,8.48.66,10.55,1.92,1.79,6.73.58,10.26.53s7.08.38,10.59-.29C481.47,441.1,482.07,442.18,480.89,443.23Z"/><path class="cls-4" d="M858,438.21c3.09-1.79,6.22-2,9.26-2.59,1.11-.21,1.41.44,1.08,1.44s-.89,1.87-.34,3.21c1.34-1.13,2.54-2.31,3.89-3.27,4.86-3.46,10.47-.95,11.15,4.94,1,8.52-5.3,19.32-13.23,22.64-2,.84-4.19,1.74-6.3.89-2.72-1.08-3.86-.27-4.12,2.45a8.36,8.36,0,0,1-.48,1.65c-1.77,5.94-1.77,5.94,3.22,8.34-.15.64-.7.49-1.09.49-4.54,0-9.09,0-13.58,0-.3-1.39.62-1.25,1.21-1.31,2.27-.24,3.43-1.67,4-3.68q4.47-15.46,8.89-30.94C862.33,439.72,861.89,437.78,858,438.21Zm19.6,6.88c-.18-2.65-.06-5.24-2.71-6.14-2.37-.79-4.11.85-5.57,2.51a27.8,27.8,0,0,0-2.2,3.05c-3,4.58-3.72,10-5.35,15.1-1,2.95.64,4.78,3.73,4.55a7.26,7.26,0,0,0,4.76-2.47A28.31,28.31,0,0,0,877.56,445.09Zm-10.16-4.5c0,.07-.14.17-.12.22.12.31.3.32.45,0,0-.05,0-.17-.1-.22S867.48,440.59,867.4,440.59Z"/><path class="cls-4" d="M824.37,442.31c1.73-3,4-5.57,7.49-6.59,3-.87,4.7,1,3.83,4.39-1.39,5.42-3.05,10.77-4.53,16.17-.47,1.71-1.77,4-.07,5.11,1.92,1.26,3.56-.9,4.89-2.19a41.92,41.92,0,0,0,11.9-20.48c.32-1.29.42-2.55,2.44-2.61,2.53-.08,3.43.21,2.51,3.09-2.09,6.53-3.83,13.17-5.65,19.78-.24.89-1.1,2.1.13,2.79s1.81-.57,2.52-1.26,1.52-1.58,2.51-2.62c-.39,3.48-5.2,8-8.07,7.85-2.31-.12-2.61-1.79-2.62-3.66,0-2.29,1.4-4.51.39-7.22-2.27,2.75-4.17,5.46-6.68,7.61a18.47,18.47,0,0,1-2.46,1.86c-1.91,1.12-4,2.18-6.11.79s-1.92-3.82-1.38-5.93c1.3-5.09,2.81-10.12,4.23-15.18a22.56,22.56,0,0,0,.72-3,2,2,0,0,0-.41-1.55c-.63-.59-1.31-.06-1.79.42-1,1-2,2.1-2.95,3.16Z"/><path class="cls-4" d="M793.64,455.44c.06-8.2,7.78-17.86,15.7-19.65,6.23-1.41,11.5,2.63,11.78,9,.39,8.87-6.74,18.37-15.36,20.47C798.76,467,793.58,462.79,793.64,455.44Zm22.23-11.86c-.19-2.4-.12-5-2.81-6.12s-4.93.08-6.72,2.05a27.5,27.5,0,0,0-7.12,19.41c0,4.63,4.67,6.48,8.4,3.67a10.16,10.16,0,0,0,2.36-2.45A36.83,36.83,0,0,0,815.87,443.58Z"/><path class="cls-2" d="M480.89,443.23c1.18-1.05.58-2.13.07-3.22-.34-5.36.41-10.76-.51-16.11.63.32,1.3.74,1.65-.25a1.08,1.08,0,0,0-.51-1.46,2.23,2.23,0,0,0-2.8.47l-4.23-.89,0-1c6.46.2,12.9-.48,19.38.42a4,4,0,0,0-.05.69c-1.88.37-3.83.54-5.28,2-.22-.73-.18-1.72-1.28-1.7-.92,0-.95.81-1,1.49,0,1-.67,2-.67,2.87,0,3.38-.77,7,2,9.85v1.37c-1.7.51-5.31-.11-1.71,3.33.9.87.48,2.19-1.42,1.75a1.88,1.88,0,0,0-2.19,1.21c-.28.71-.47,1.91.27,2.2,3.16,1.23,2.91,3.87,3.09,6.47.12,1.65,1,1.54,1.94.43V457c-.33.17-.89.29-1,.54-.17.72.52.68,1,.82l.78,3.44c-.48.11-1.19,0-.89.87.07.21.46.3.7.45l.26-1.22c1.45,1.54,3.48,1.53,5.33,2v.7c-3.45.4-6.9,1-10.3-.28l-.36-.54.28.55c-3,1.31-6,.37-9,.29,6.34-2.91,6.34-2.91,6.33-10.4Zm1.9-14.36c-.27,1.37-.94,2.68,0,4.32Zm0,27.45-.15-.27c-.06.08-.17.15-.18.24s.09.17.14.27Z"/><path class="cls-4" d="M775,438c2.63-1.53,5.65-2,8.61-2.37,1.52-.21,1,1.17.77,2-.69,2.95-1.44,5.89-2.2,8.94,1.51.44,1.57-1,2-1.68,1.7-3,3.43-5.94,6.11-8.19,1.2-1,2.63-1.66,4.08-.74s1,2.39.76,3.75c-.31,1.59-.61,3.2-2.52,3.69a1.73,1.73,0,0,1-2.22-1.14c-1-3.27-2.06-1-2.72,0a64.7,64.7,0,0,0-8.51,18.95c-.31,1.29-.16,3-1.52,3.6a4.3,4.3,0,0,1-3.95-.11c-1-.68,0-1.9.25-2.82,1.44-6.22,3-12.41,4.49-18.62C779.45,439,779.27,438.79,775,438Z"/><path class="cls-4" d="M541.37,375.19c17.61-.81,35.22-1.29,52.82,0-.18,1.63-1.45,1.13-2.37,1.13q-24.12,0-48.25,0C542.77,376.32,541.32,377.07,541.37,375.19Z"/><path class="cls-4" d="M487.71,453.13c-.93,1.11-1.82,1.22-1.94-.43-.18-2.6.07-5.24-3.09-6.47-.74-.29-.55-1.49-.27-2.2a1.88,1.88,0,0,1,2.19-1.21c1.9.44,2.32-.88,1.42-1.75-3.6-3.44,0-2.82,1.71-3.33Q487.72,445.44,487.71,453.13Z"/><path class="cls-4" d="M484.93,375.22h24.66c1.48,0,3,.12,4.33-.72,1.75,1.56,1,1.88-.86,1.87-8.55,0-17.1,0-25.64,0C486.44,376.35,485.28,376.65,484.93,375.22Z"/><path class="cls-4" d="M341.65,374.49c2.39,1.11,4.93.69,7.42.7,6.06,0,12.12,0,18.18,0,.16,1.3-.8,1.16-1.56,1.16q-11.1,0-22.19,0C342.28,376.36,341.07,376.3,341.65,374.49Z"/><path class="cls-4" d="M487.73,436.37c-2.78-2.84-2-6.47-2-9.85,0-.83.65-1.84.67-2.87,0-.68.05-1.48,1-1.49,1.1,0,1.06,1,1.28,1.7C487.16,427.94,488.25,432.21,487.73,436.37Z"/><path class="cls-2" d="M459.29,459.73c-.29-.17-.81-.31-.83-.51-.58-5.28-.22-10.58-.2-15.87,0-.47.74-.27,1.16-.16Q459.36,451.46,459.29,459.73Z"/><path class="cls-2" d="M499.88,454.08c-2.09,1.54-.87,3.76-1.08,5.66a39.17,39.17,0,0,0,0,5.08c-.36.38-.87.57-.88-.12-.06-4.51,0-9,0-13.75C499.87,451.54,499.38,453.09,499.88,454.08Z"/><path class="cls-2" d="M549,420.88c-1.09,1.82-2.87.94-4.35,1-2.28.14-4.56,0-6.85,0-1.3,0-2.59,0-2.74,1.75-1.59-1.32-3.59-1.61-5.66-1.76l.17-1.05Z"/><path class="cls-4" d="M478.79,422.66a2.23,2.23,0,0,1,2.8-.47,1.08,1.08,0,0,1,.51,1.46c-.35,1-1,.57-1.65.25A2.59,2.59,0,0,1,478.79,422.66Z"/><path class="cls-4" d="M367.24,333.89c-.46-.39-.71-1.09-.26-1.36.81-.51,1,.36,1.19.91Z"/><path class="cls-4" d="M487.74,458.36c-.45-.14-1.14-.1-1-.82.06-.25.62-.37,1-.54C487.73,457.45,487.73,457.91,487.74,458.36Z"/><path class="cls-4" d="M488.59,461.9l-.26,1.22c-.24-.15-.63-.24-.7-.45-.3-.84.41-.76.89-.87Z"/><path class="cls-4" d="M367.25,336l-.76-.33.71-.38Z"/><path class="cls-4" d="M483.55,464.32l-.28-.55.36.54Z"/><path class="cls-4" d="M493.93,464.59v-.7l.48.22Z"/><path class="cls-4" d="M493.92,421.83a4,4,0,0,1,.05-.69l.47.39Z"/><path class="cls-5" d="M139,338c-4.31,1.51-8.76.24-13.13.67-1.43.15-3.55-.69-4.12.59s1.17,2.66,2.08,3.91q12.15,16.74,24.22,33.52c1.19,1.64,3,2.82,3.77,4.76-1.15,2.72-3.58,1.44-5.35,1.46-14.7.12-29.39.06-44.08.06-4.12-4.31-7.3-9.35-10.84-14.09C83.92,358.56,76.65,348,68.88,337.77c-4.4-5.78-5.6-13.57,0-21.13,7.46-10,14.52-20.32,22.2-30.14,3.34-4.28,6-9,9.53-13.13,1.13-1.33,2.11-2.1,3.92-2.09,14.9.06,29.79,0,44.68.05.88,0,2.11-.39,2.57.43.54,1-.45,1.76-1.06,2.59q-14.25,19.45-28.44,39c-.79,1.08-1.79,2,.15,2.88a1,1,0,0,0,0,.34s.17.06.26.06c4.33,0,8.66.07,13,0,2.37,0,3.73,1,3.71,3.38C139.31,326,139.75,332,139,338Z"/><path class="cls-3" d="M70.45,271.32c7.1,0,14.2,0,21.29,0,.85,0,2-.47,2.47.59.39.87-.6,1.36-1,2q-15.9,21.69-31.81,43.37a14.94,14.94,0,0,1-14.53,6.5c-4.34-.42-4.65.3-4.41,4.59.08,1.6.64,2.44,2.23,2.2,9.26-1.41,14.85,3.48,19.79,10.57,9.32,13.4,19.12,26.47,28.71,39.68.5.69,1.69,1.3,1,2.26-.34.43-1.47.35-2.24.35-14.31,0-28.63,0-42.94.06a4.6,4.6,0,0,1-4.05-2.06C34.06,366.7,23.18,352,12.45,337.23c-4.66-6.42-4.3-13.86.44-20.34q15.76-21.56,31.4-43.23a4.91,4.91,0,0,1,4.52-2.37C56,271.38,63.23,271.32,70.45,271.32Z"/><path class="cls-4" d="M102.43,382.93c14.69,0,29.38.06,44.08-.06,1.77,0,4.2,1.26,5.35-1.46,1,1.33.81,2-1,1.95-2.28,0-4.56,0-6.84,0q-19.16,0-38.31,0C104.64,383.29,103.47,383.64,102.43,382.93Z"/><path class="cls-4" d="M139,338c.71-6,.27-12,.33-18,0-2.36-1.34-3.41-3.71-3.38-4.33,0-8.66,0-13,0-.09,0-.25,0-.26-.06a1,1,0,0,1,0-.34c4.82,0,9.63-.05,14.44,0,1,0,2.63-.47,2.59,1.32C139.35,324.32,140.14,331.16,139,338Z"/><path class="cls-6" d="M867.4,440.59c.08,0,.18,0,.23,0s.13.17.1.22c-.15.3-.33.29-.45,0C867.26,440.76,867.35,440.66,867.4,440.59Z"/><path class="cls-4" d="M482.79,428.87v4.32C481.85,431.55,482.52,430.24,482.79,428.87Z"/><path class="cls-4" d="M482.76,456.32l-.19.24c-.05-.1-.15-.19-.14-.27s.12-.16.18-.24Z"/><path class="cls-4" d="M271.49,432.4q-11,15.17-21.94,30.31c-.64.89-1,2.45-2.36,2.17s-.86-1.94-1-2.94c-1.11-9-2.08-18-3.13-26.94a7,7,0,0,0-1.08-4c-2.89,9.72-5.71,19-8.37,28.29-1.12,3.95,2.3,3.92,4.63,5.23h-15c.52-1.21,1.44-.89,2.19-1a5.84,5.84,0,0,0,5.31-4.2c3.39-10.92,6.71-21.86,10.12-32.77.58-1.85-.55-2.55-1.83-3.09a25.6,25.6,0,0,0-3.51-1v-.89c3.94,0,7.9-.21,11.82.13,1.23.1.9,2.16,1,3.34,1,9.11,2,18.21,3,27.32.07.66.22,1.31.34,2,1.44-.07,1.72-1.24,2.27-2,6.81-9.35,13.64-18.68,20.3-28.13,1.49-2.11,3-3.06,5.64-2.84,2.78.24,5.6.06,8.51.06a4.85,4.85,0,0,1-.27,1.05c-5.6.15-7.35,4-8.58,8.61-2.21,8.29-4.66,16.51-7,24.75-1.71,5.94-1.63,6.18,4.52,8.74h-20a1,1,0,0,1,1-.87c4.68-.12,6.46-3.24,7.54-7.14q3.25-11.73,6.54-23.46c.35-.44.72-1,.21-1.43C272,431.46,271.67,432,271.49,432.4Z"/><path class="cls-4" d="M316,447.43c2-2.35,3.85-4.8,5.94-7a27.36,27.36,0,0,1,4.49-3.67c1.77-1.21,3.82-1.78,5.83-.68s1.7,3.29,1.69,5.22c0,2.13-1.26,4.1-.93,6.63,2.06-1.21,2.81-3.2,4.06-4.7a26,26,0,0,1,7.3-6.66c1.83-1,3.89-1.71,5.83-.3s1.8,3.44,1.33,5.34c-1.24,5-2.67,9.91-4,14.87-.21.76-.46,1.52-.65,2.3-.26,1.06-1.2,2.26-.14,3.18s1.53-1.25,2.66-.74c-.72,2.41-4.07,4.91-6.15,4.48s-2.22-2-2-3.73c.48-4.23,2.12-8.16,3.15-12.25.61-2.44,1.36-4.85,1.89-7.31.21-.94.44-2.14-.66-2.8s-2,0-2.87.53a11.68,11.68,0,0,0-2.38,1.94c-5.42,5.85-9.74,12.37-12,20.13-.3,1-.15,2.53-1.59,2.74a6,6,0,0,1-3.65-.29c-1-.61.12-1.86.37-2.79,1.61-6.07,3.31-12.12,5-18.18.4-1.44,1.08-3.13-.52-4.05s-2.88.35-4,1.29a40.27,40.27,0,0,0-12.83,21.41c-.46,1.88-1.09,2.94-3.4,2.77-2.12-.15-2.52-.65-1.91-2.64,1.79-5.79,3.39-11.63,5.09-17.43,1.62-5.52,1.64-5.52-3.27-7.59,3.22-1.15,6.38-1.33,9.48-1.8,1.69-.25,1.52.68,1.16,1.87-1,3.16-1.83,6.35-2.74,9.53,0,.27-.17.7-.06.78C315.8,448,315.92,447.72,316,447.43Zm17.08,1.36c.37-.69-.09-.69-.31-.77s-.36.3-.36.45a2.53,2.53,0,0,0,.29.76Z"/><path class="cls-4" d="M361.06,420.54c3.16-.54,6.31-1.3,9.5-1.53,1.62-.12.6,1.37.42,2-1.43,5.17-3,10.32-4.43,15.48-.3,1-.89,2.06-.41,3.43,2.88-2.46,5.71-4.78,9.74-4.4a7.13,7.13,0,0,1,6.73,5.38c3,10.06-8.07,24.86-18.56,24.67a15.65,15.65,0,0,1-4.69-.85c-4.9-1.69-5.2-2.39-3.78-7.31q4.41-15.31,8.78-30.64c1.24-4.34,1-4.66-3.07-5.32Zm16.65,25.29c0-2.55-.11-5.16-2.52-6.47s-4.91-.34-7.08,1.14a12.26,12.26,0,0,0-4.66,7c-1.1,3.61-2.14,7.23-3.2,10.84-1.32,4.49.09,6.15,4.86,5.77a9.46,9.46,0,0,0,6-2.93C375.42,456.92,377.13,451.57,377.71,445.83Z"/><path class="cls-4" d="M406.53,457.9c-3.1,5.39-10.68,8.79-15.59,7.54-3.8-1-6.34-4.4-6.44-8.7-.18-8.5,6.78-18.14,14.92-20.65,4.27-1.32,8.63-.27,9.87,2.37s-.32,6.31-4,9.07a21.84,21.84,0,0,1-12.46,4.26c-2.08.1-2.72,1-2.76,2.94-.1,5.82,4.45,9.06,9.92,7C402.19,461,403.77,459.28,406.53,457.9Zm-13.82-7.46c4.76-.07,10.08-3.69,11.78-8,.63-1.62,1.2-3.34-.42-4.71s-3.25-.83-4.75.08c-4.21,2.57-6.28,6.7-7.84,11.16C391.07,450.1,391.38,450.69,392.71,450.44Z"/><path class="cls-4" d="M300.08,460.46c-3.95,3.66-7.84,5.53-12.5,5.16-4.31-.34-7.24-3.62-7.57-7.94-.67-8.72,6.17-18.84,14.55-21.53,4.45-1.42,8.81-.39,10.13,2.4,1.26,2.63-.53,6.53-4.26,9.24a22.34,22.34,0,0,1-12.19,4c-2.08.12-2.65,1-2.65,3,0,6,4.61,9.17,10.2,6.89C296.89,461.21,297.78,460.14,300.08,460.46Zm.33-20.42c-.05-2.76-2.33-3.91-5.2-2.51-3.57,1.75-5.54,5-7.19,8.4-.66,1.36-2,3.22-1.07,4.27s3-.07,4.49-.5C296.32,448.3,300.47,443.76,300.41,440Z"/><path class="cls-4" d="M421,447.06c1.33-2.15,2.13-3.6,3.08-4.95a43,43,0,0,1,3.55-4.6c1.44-1.55,3.51-3.17,5.27-1.24s.84,4.61-.8,6.26c-2.43,2.45-3.44.09-4.21-2.14-1.91,1.07-2.72,2.72-3.56,4.26-3.07,5.63-5.9,11.37-7.22,17.7-.37,1.76-1,2.77-3.12,2.73-2.3,0-2.56-.62-2-2.78,1.64-6.06,3-12.22,4.45-18.33,1.17-4.85,1.19-4.84-3.92-6a31.62,31.62,0,0,1,9.21-2.39c1.63-.26.94,1.08.83,1.88C422.19,440.39,420.83,443.1,421,447.06Zm.14.14-.25-.55a12.46,12.46,0,0,0-.88.9s.17.37.28.38C420.81,448,421.05,447.69,421.13,447.2Z"/><path class="cls-4" d="M271.49,432.4c.18-.41.55-.94.91-.66.51.4.14,1-.21,1.43Z"/><path class="cls-4" d="M333.05,448.79l-.38.44a2.53,2.53,0,0,1-.29-.76c0-.15.29-.47.36-.45S333.42,448.1,333.05,448.79Z"/><path class="cls-4" d="M316,447.43c-.05.29-.17.61-.51.37-.11-.08,0-.51.06-.78A3.47,3.47,0,0,1,316,447.43Z"/><path class="cls-4" d="M421.13,447.21c-.08.48-.32.8-.85.72-.11,0-.31-.35-.28-.38a12.46,12.46,0,0,1,.88-.9C421,446.83,421.05,447,421.13,447.21Z"/></svg>