<svg id="Layer_1" data-name="Layer 1" xmlns="http://www.w3.org/2000/svg" viewBox="0 0 1106.13 743.43"><defs><style>.cls-1{fill:#00903e;}.cls-2{fill:#be9d62;}.cls-3{fill:#007678;}.cls-4{fill:#84c126;}.cls-5{fill:#f5c303;}.cls-6{fill:#00913e;}.cls-7{fill:#01913e;}.cls-8{fill:#04913f;}</style></defs><title>bank-gunung-kidul</title><path class="cls-1" d="M809.07,423.69c-1.3,31-2,62,.9,92.92.86,9.12,2,18.2,4.52,27,5.34,18.76,19.18,28.65,38.69,27.65,20.35-1,33.08-10.64,39.76-30,5.3-15.35,4.52-31.19,3.63-47-.48-8.66-.55-8.64-9.1-8.7-10.66-.08-21.33-.36-32-.18-3.68.07-4.8-1.34-5.48-4.66-5.39-26.4,4.73-46.58,29.16-58.1,11.07-5.22,22.81-7.13,34.88-7.8,30.81-1.71,61.63-1,92.46-.19,3,.08,4,.91,4,4-.08,49.5.42,99-.21,148.48-.48,37.34-26,64.26-63.17,68.72a168.48,168.48,0,0,1-19.45,1c-2.83,0-3.77-1-3.75-3.76.05-5.33-.33-10.67-.31-16,0-3.52-1.2-3.62-3.74-1.88-4.39,3-8.77,6.07-13.3,8.86-34.43,21.18-71.52,23.38-110,15.07A147.05,147.05,0,0,1,751,620.6c-33.66-20.51-52.38-51.09-56.72-89.59-4.86-43.18-8.48-86.56-6.22-130.16,1.45-28,4.2-55.73,10.32-83.17,8-35.95,29.37-60.69,62.23-75.77,39.91-18.3,81.86-24,125.38-18.49a225.15,225.15,0,0,1,43.65,10.25c42.09,14.17,66.69,43.4,75.37,86.61,2.84,14.15,4,28.35,2.08,42.72-.25,1.84-.16,3.56-2.87,3.75-25.46,1.74-50.92,3.14-76.25-1.45-3.43-.62-6.79-1.63-10.16-2.52-13.62-3.59-22.25-12-25.56-25.9-1.47-6.13-3.4-12.16-5.22-18.21-2.34-7.83-7.69-13.07-14.74-16.79-27.28-14.37-55.8.55-59.39,31.48-2.54,21.85-2.79,43.89-3.78,65.85C808.76,407.36,809.07,415.53,809.07,423.69Z"/><path class="cls-2" d="M773.79,86.5c4.2-8.92,11.36-14.28,19-19.08,17.42-11,36.84-16.9,56.65-21.66,26-6.24,52.4-9.29,78.9-12,45.33-4.63,90.93-7.21,135.31-18.84,12.49-3.27,24.23-8.29,36-13.3,6.45-2.75,6.82-2.46,6.38,4.32-1.13,17.52-7.85,33.34-15.78,48.58a272.73,272.73,0,0,1-30.39,46.3,76.64,76.64,0,0,1-12,11.28c-6.95,5.57-15.27,5.15-23.37,5.39-20,.6-40,.67-60,1.56-30.43,1.35-60.83,3.25-91.13,6.5-2.14.23-4.29.25-6.61.38,0-3.29,2.47-4.43,4.35-5.86,7.32-5.57,14.21-11.57,19.9-18.85,5.1-6.54,8.72-13.72,10-22,.48-3.09,0-4.41-3.52-4.72-15.67-1.33-31.3-.62-46.9.73-25,2.18-49.81,6.47-74.48,11.28A14.82,14.82,0,0,1,773.79,86.5Z"/><path class="cls-3" d="M803.26,34.66a6.69,6.69,0,0,1-3.48,4.85C770,56.2,747.62,80.61,728.23,108.07c-27.84,39.45-41.64,83.74-44.51,131.68-.27,4.49-.87,8.95-1.37,13.42-.32,3-1.71,3.59-4.36,2.11a47.13,47.13,0,0,1-12-9.72c-19.5-21.58-35.21-45.76-45.8-72.77-7.79-19.87-2.85-39.1,8.54-56.55,11.6-17.77,28.43-29.74,46.5-40.08,29-16.62,60.89-25.8,92.85-34.59C779.47,38.45,791,35.66,803.26,34.66Z"/><path class="cls-4" d="M701,239.52c-.45-6.77.9-13.32,2.31-19.78,1.88-8.6,4.4-17.06,6.55-25.61,1.15-4.6,4-7.24,8.35-9.08,35.84-15,73.26-24.21,111.32-31.2,48.22-8.86,97-13.32,145.8-16.66,11.28-.77,22.65-1,33.91.74,3.23.5,7.75.57,8.61,3.89s-3.58,4.67-6,6.31c-19.65,13.12-41.84,21.09-63.06,31.07-15.64,7.36-32.3,7.27-48.81,8.41-27.07,1.89-54.26,2.4-81.06,7.21-22.3,4-42.95,13.05-63.71,21.56-16.17,6.63-32,14.17-47.94,21.24C705.32,238.47,703.52,239.88,701,239.52Z"/><path class="cls-5" d="M861,93.82c-2.74,8.3-8.23,13.38-14.2,17.93-14.29,10.89-30.37,18.54-46.79,25.53a446.39,446.39,0,0,1-71.35,24c-1.7.4-3.89,1.7-5.11.13-.65-.84.28-3.12.83-4.63,5.61-15.18,14.88-28.2,24.38-41.08a11.54,11.54,0,0,1,5.7-3.91c30.52-10.46,61.5-18.6,94.06-18.76C852.47,93.05,856.44,93.53,861,93.82Z"/><path class="cls-1" d="M535.73,701.82c0-6.33-.05-12.66,0-19s2.35-9.63,8.39-11.42a51.21,51.21,0,0,1,28.1-.27c6.33,1.7,8.26,4.81,8.32,11.82.07,9.08.07,9.08-8.66,9.08-9.66,0-9.67,0-9.92-9.79-.05-2,.2-4.19-2.76-4.29-3.18-.1-3.21,2-3.2,4.38q.06,19,0,37.95c0,2.27.23,4,3,4s3-1.88,2.93-4,0-4.33,0-6.49c0-1,.09-2.23-1.12-2.48-5.84-1.24-2.07-5.62-2.63-8.46-.31-1.63,2-1.23,3.19-1.24,5.16-.06,10.32.11,15.48-.08,2.82-.1,3.79.84,3.73,3.7-.16,7.15,0,14.31-.1,21.47,0,1.88,1.12,4.77-1,5.46-2.87,1-6.86,1.74-9-.46-2.51-2.52-4.16-1.5-6.47-.58-7.14,2.81-14.33,2.55-21.49,0-4.59-1.63-7-4.76-6.85-9.82C535.84,714.8,535.73,708.31,535.73,701.82Z"/><path class="cls-6" d="M165.48,696.22c2.22-3.82,4.56-7.58,6.62-11.48a4.87,4.87,0,0,1,5.16-2.93c4,.2,8,.15,12,0,2.85-.09,3.17.79,1.74,3.11-3.23,5.25-6.14,10.7-9.55,15.82-1.69,2.53-1.38,4.26.17,6.66,5.2,8.05,10.14,16.26,15.63,25.15-7.15,0-13.41,0-19.67,0-2.08,0-2.83-1.43-3.7-2.86a87.39,87.39,0,0,0-9.4-13.41c0,4-.16,8,.06,12,.17,3.15-.64,4.6-4.13,4.33a112.89,112.89,0,0,0-11.49,0c-2.11,0-2.95-.75-2.95-2.92q.07-28.48,0-57c0-1.83.6-2.86,2.57-2.74.33,0,.67,0,1,0,14.93-.68,14.93-.68,14.93,14.39V696Z"/><path class="cls-1" d="M872.15,732.58c-7.17,0-13.28-.07-19.39,0-2.3,0-3.15-1.44-4.12-3a86.17,86.17,0,0,0-9.46-13.37c0,4.31-.12,8.63,0,12.93.09,2.57-.79,3.37-3.41,3.49-14.95.67-14.95.74-14.95-13.93s.16-29.29-.1-43.92c-.08-4.12,1.26-5.26,5.1-4.9a55.46,55.46,0,0,0,9.47,0c3.15-.25,4,1,3.91,4a140.15,140.15,0,0,0,1,22.47c2.29-3.94,4.6-7.88,6.89-11.83.84-1.45,1.62-2.77,3.73-2.72,5.25.13,10.51,0,16.82,0-4,6.75-7.45,12.76-11.19,18.56-1.68,2.59-1.75,4.5,0,7.13C861.65,715.46,866.53,723.57,872.15,732.58Z"/><path class="cls-1" d="M464.7,701.38c0-9.16.1-18.32-.06-27.47-.06-3,.77-4.38,3.91-4,1.14.15,2.33,0,3.49,0,3.45.23,7.7-1.43,10.15.68s.68,6.28.78,9.55c.08,2.27.66,2.82,2.95,2.29,5.58-1.29,11.22-1.48,16.73.45,3.49,1.22,5.33,3.49,5.28,7.49q-.23,19.23,0,38.46c0,2.8-.79,3.89-3.67,3.74a87.45,87.45,0,0,0-11,0c-3.26.23-3.88-1.2-3.84-4.09.13-11.49,0-23,.06-34.47,0-2.27.08-4.56-3-4.67-3.38-.13-3.46,2.24-3.45,4.76,0,11.49-.07,23,.07,34.47,0,3-.67,4.27-3.86,4-4.6-.42-10.53,1.86-13.52-.87s-.8-8.8-1-13.39C464.54,712.7,464.7,707,464.7,701.38Z"/><path class="cls-7" d="M726.22,707.33c0-7.16.11-14.32-.06-21.48-.06-2.92.66-4.06,3.86-4.07,8.7,0,17.4,1.08,26.11-.1a17.36,17.36,0,0,1,8.31,1.37c3.31,1.23,5.13,3.4,5.12,7.11-.06,13-.08,26,0,39,0,2.57-.78,3.6-3.43,3.48a102.24,102.24,0,0,0-11.48,0c-3.29.24-3.82-1.21-3.78-4.08.14-11.32.06-22.65.05-34,0-2.32.46-5-3.16-5s-3.08,2.76-3.09,5c0,11.32-.1,22.65.06,34,0,3.06-.91,3.94-4,4-14.56.3-14.56.4-14.56-14.32Z"/><path class="cls-6" d="M722.15,707.2c0,7.32-.08,14.65.05,22,0,2.59-.81,3.45-3.43,3.45-8.71,0-17.42-.85-26.13.48a16.62,16.62,0,0,1-8.79-1.41c-3.25-1.34-5-3.51-4.92-7.25q.2-19.49,0-39c0-2.85.83-3.89,3.68-3.65,4.78.4,10.86-1.93,14,.88s.83,8.81.92,13.42c.16,8.32.07,16.65,0,25,0,2.15.1,4.18,2.86,4.3,2.92.12,3.45-1.76,3.44-4.28-.08-11.49.17-23-.15-34.47-.11-4.14,1.27-5.2,5.08-4.86a67.84,67.84,0,0,0,10,0c2.64-.16,3.48.79,3.43,3.39C722.07,692.54,722.15,699.87,722.15,707.2Z"/><path class="cls-6" d="M987.33,707.24c0,7-.11,14,0,21,.07,3-.47,4.46-4,4.44-8.21-.06-16.43-.92-24.65.39a19.18,19.18,0,0,1-6.93-.52c-6.08-1.33-7.66-3.45-7.66-9.67,0-12,.2-24-.11-36-.12-4.32,1.33-5.48,5.34-5.08a51.87,51.87,0,0,0,9.49,0c3.18-.26,3.93,1,3.88,4q-.23,16.49,0,33c0,2.47-1.62,6.47,3,6.53,5,.07,3.16-4.2,3.21-6.77q.25-16.24,0-32.5c0-3.2.75-4.52,4.15-4.26a82.4,82.4,0,0,0,11,0c2.69-.15,3.41.85,3.36,3.44C987.24,692.57,987.33,699.91,987.33,707.24Z"/><path class="cls-1" d="M631.84,707.06c0-7.16.1-14.33-.05-21.48-.06-2.66.47-3.8,3.51-3.8,9,0,18.05,1,27.08-.1a16.34,16.34,0,0,1,7.34,1.25c3.5,1.23,5.37,3.38,5.32,7.41q-.24,19.23,0,38.46c0,3.18-1,4-4,3.83a81.44,81.44,0,0,0-10.48,0c-3.07.19-4-.93-4-4,.15-11.32.08-22.65,0-34,0-1.6.51-3.44-1.21-4.56a3.72,3.72,0,0,0-3.37-.28c-2.09.75-1.74,2.62-1.75,4.22,0,11.16-.15,22.32.06,33.47.07,3.73-.66,5.64-4.86,5.1-4.4-.57-10.32,1.89-12.87-1-2.19-2.5-.71-8.23-.77-12.54C631.79,715.05,631.84,711.05,631.84,707.06Z"/><path class="cls-1" d="M627.87,707.49c0,7-.11,14,0,21,.06,2.83-.46,4.2-3.76,4.18-8.53-.07-17.08-.79-25.61.42a19.9,19.9,0,0,1-6.91-.69c-4.79-1.08-7.22-3.72-7.07-9.16.34-12.48.19-25,0-37.47,0-3,.82-4.2,3.93-3.94,4.61.39,10.59-1.85,13.5.84s.82,8.81.92,13.41c.17,7.49-.06,15,.1,22.48.06,2.67-1.53,6.91,3.32,6.77s3-4.39,3-7c.17-10.49.22-21,0-31.48-.08-3.72.65-5.5,4.84-5.05s10-1.3,12.55.87c3,2.55.8,8.42,1,12.84C628,699.49,627.86,703.5,627.87,707.49Z"/><path class="cls-1" d="M98.59,706.81c0-7,.12-14,0-21-.08-2.93.67-4,3.85-4.06,8.68,0,17.36,1.11,26.05-.1a17,17,0,0,1,7.84,1.17c3.68,1.28,5.65,3.5,5.59,7.75q-.28,18.72,0,37.45c0,3.34-.72,4.94-4.38,4.57-4.43-.44-10.14,1.8-13-.87s-.85-8.49-.95-12.91c-.18-8.16-.06-16.31,0-24.47,0-2.46,0-4.86-3.48-4.76-3.21.1-3,2.37-3,4.61,0,11.32-.12,22.64.09,33.95.06,3.47-.89,4.81-4.44,4.45-4.43-.45-10.14,1.81-13-.9s-.75-8.5-1-12.93C98.45,714.81,98.59,710.81,98.59,706.81Z"/><path class="cls-7" d="M370,707c0-7.16.1-14.32,0-21.47-.06-2.74.69-3.79,3.62-3.77,9,.06,18,.23,27.09,0,9.93-.29,12.59,2.8,12.59,12.66,0,8.43,0,8.43-8.39,8.43h-1c-8.81,0-8.84,0-9-8.69-.05-2.26.09-4.49-3.11-4.55-3.58-.06-3.3,2.5-3.3,4.86,0,11.32-.1,22.64.07,34,.05,3.27-.91,4.57-4.25,4.17-4.57-.54-10.46,2-13.42-1.06-2.7-2.8-.66-8.57-.81-13C369.93,714.7,370,710.87,370,707Z"/><path class="cls-6" d="M1010,701.63c0,8.82-.13,17.65.07,26.47.08,3.33-.64,4.91-4.33,4.53-4.43-.46-10.12,1.77-13.05-.84s-.94-8.48-1-12.89c-.15-14.82,0-29.64-.13-44.45,0-3.38.77-4.89,4.4-4.54,4.43.44,10.16-1.77,13,.83s.81,8.48,1,12.9C1010.13,689.63,1010,695.63,1010,701.63Z"/><path class="cls-6" d="M893.13,706.82c0,7.15-.19,14.3.08,21.44.14,3.64-1.21,4.67-4.58,4.35-4.42-.41-10.19,1.83-13-.88s-.8-8.5-.85-12.94c-.13-11,.09-21.94-.12-32.9-.07-3.35,1-4.34,4.21-4.08a58.12,58.12,0,0,0,10,0c3.7-.35,4.43,1.26,4.33,4.57C893,693.19,893.13,700,893.13,706.82Z"/><path class="cls-8" d="M883.52,679a19.33,19.33,0,0,0-3.49,0c-4.54.86-5.75-1.1-5.37-5.4.23-2.64.6-4,3.62-3.77a74.66,74.66,0,0,0,11,0c3.73-.3,4,1.67,3.91,4.55-.11,2.54.42,5.21-3.67,4.64A42.72,42.72,0,0,0,883.52,679Z"/><path class="cls-1" d="M667.47,344.9c-2.45-27.5-10-53.52-31.05-73.91-7.83-7.6-16-13.93-26-18.11-16.36-6.89-33.49-11-50.94-13.9-42.39-6.95-85.17-8.57-128-9.14-48.34-.64-96.64,1.27-145,1.88-.55,0-1.39-.28-1.6.94,11.34,7.42,22.71,14.92,34.15,22.32a29.14,29.14,0,0,1,7.25,6.76c14.05,18,19.85,38.86,21.54,61.26,2,26.62,2.06,53.27,2.08,79.93,0,41-1.56,82-.14,123a127.1,127.1,0,0,1-2.47,31.31c-4.85,22.47-16.45,41-33.82,55.79-9.23,7.89-18.91,15.25-29.39,23.65,1.81.15,2.41.23,3,.24,85.31,1.43,170.62,2,255.79-4.24,20.13-1.48,40-5.25,58.9-12.7,24.36-9.58,44-24.58,54-49.55,6.76-17,11.58-34.83,12.78-53.2C672.36,459.75,672.57,402.24,667.47,344.9ZM548.85,503a104.83,104.83,0,0,1-2.62,19.78c-5.83,25.87-20.57,38.38-47.11,39.9a179.39,179.39,0,0,1-25-.52c-4-.33-5.15-1.55-5.14-5.62.16-40.64.1-81.28.1-121.92h.38c0-40.65.06-81.29-.11-121.93,0-4.26,1-5.77,5.41-6,15.8-.79,31.21.68,46.29,5.8,12.4,4.21,20.07,12.24,23.23,25.06a174.31,174.31,0,0,1,5,37.55C550.41,417.71,550.17,460.34,548.85,503Z"/><path class="cls-1" d="M270.3,427.42c-2.85-1.38-5.71-2.73-8.5-4.21-5.68-3-5.8-3.22-.68-6.84,12-8.5,23.31-17.8,32.07-29.8,22.06-30.22,23.14-63,7.8-95.45-15-31.8-43.13-47.68-77.43-52.13-45.65-5.93-91.5-9.19-137.58-8.41-17.83.3-35.62.93-53.24,4.15-14.39,2.63-32,21-32.22,38.66-.62,55-.35,110-.47,165C-.3,488.67,1.26,539,.21,589.3a169.13,169.13,0,0,0,.64,19c1.32,14.44,7.59,22.06,21.54,25.92a54.5,54.5,0,0,0,8.31,1.63c17.76,2.06,35.62,1.06,53.43,1.42,42,.85,84,1.42,125.73-4.47,17.16-2.43,34.51-5,49.86-13.61,38.42-21.49,61-53.92,64.73-98.23C327.88,479.59,307.68,445.41,270.3,427.42ZM117.77,315.47c0-2.16.07-4.33.27-6.48,1-10.14,3.78-12.62,13.86-11.2,10.52,1.49,21.22,2,31.48,5.12,27.82,8.32,39.82,34.91,27.65,60.82-4.34,9.25-11.41,15.41-20.7,19.19-15.9,6.47-32.62,7.52-49.52,7.37-3.18,0-2.85-1.88-2.84-3.93q0-19,0-37.94h-.22C117.76,337.44,117.74,326.45,117.77,315.47Zm61.6,238.63C161,564,141,565.2,120.65,564.91c-3.29,0-2.58-2.38-2.58-4.24q0-24.23,0-48.45H118c0-16,.1-32-.08-48,0-3.48.92-4.52,4.43-4.52,14.53,0,29,.54,43.15,4.11a76.48,76.48,0,0,1,8.1,2.49c18,6.69,30,18.42,31.28,38.56C206.21,526.31,199,543.52,179.37,554.1Z"/><path class="cls-1" d="M203.34,81.45c0-9.27-4.22-15.91-12.18-20.29a53.64,53.64,0,0,0-20.86-6.51c-19.61-1.87-39.29-.36-58.93-.94-3.87-.12-5.08.86-5,4.91.21,21.33.1,42.65.1,64q0,32.49,0,65c0,2.34-.45,4.54,3.34,4.5,18.49-.22,37,0,55.48-.34a51.19,51.19,0,0,0,27-7.85c7.11-4.53,11.07-10.83,11.06-19.47Q203.27,122.94,203.34,81.45Zm-43.8,89.44a9.27,9.27,0,0,1-9.52,3c-2.65-.73-1.12-4.08-1.14-6.19-.14-15-.08-29.95-.08-44.92s-.09-29.95.12-44.92c0-2-2-5.32,1.81-6.17,4.08-.9,9.14,2.13,10,5.69a13.46,13.46,0,0,1,.2,3q0,42.42,0,84.84C160.9,167.22,161,169.27,159.54,170.89Z"/><path class="cls-1" d="M566.6,168.86c-.69-9.5.18-19,.4-28.47.19-8.27-3.26-14.44-10.37-18.59a33.2,33.2,0,0,0-10.69-4.06c-.56-.79-2.82.27-2.09-1.92,3.16-1,6.42-1.85,9.45-3.19,8.36-3.71,14.09-9.38,13.74-19.39-.17-4.82-.08-9.66,0-14.49.09-8.38-3.86-14.27-11.15-18a56.17,56.17,0,0,0-21-6.06c-20.45-1.85-41-.39-61.43-.9-3.13-.08-3,1.74-3,3.84q0,65.22-.06,130.44c0,3.46,1.24,4.1,4.34,4.06,11-.16,22-.26,33,0,4.13.11,5.26-1,5.21-5.18-.24-19-.14-38,0-57,0-1.45-1.34-3.76,1.76-4.22,6.41-.93,11.16,3,11.06,9.44-.15,9.49-.66,19-.51,28.48.13,8,.49,16,3.62,23.55.93,2.23,1.66,4.94,4.89,4.94,12.92,0,25.85,0,39.51,0C567.91,184.74,567.19,176.82,566.6,168.86Zm-40.88-68c-.14,5.18-6.64,9.48-11.6,8-2-.6-1.23-2.11-1.25-3.23-.1-5.16,0-10.33,0-15.49s.1-10.34,0-15.5c-.06-2.37.62-3.16,3.12-3,7.21.46,9.85,3,9.86,10.21C525.77,88.16,525.88,94.5,525.72,100.82Z"/><path class="cls-1" d="M347.85,123.83C343.3,121,338.16,119.72,332,118c4.6-1.87,8.2-3.12,11.61-4.77,7.72-3.73,12.09-9.58,11.54-18.62-.32-5.15-.16-10.33,0-15.49.2-9.06-4.17-15.19-12.09-19a58.19,58.19,0,0,0-20.14-5.51c-19.62-1.75-39.29-.37-58.93-.86-3-.07-3.1,1.51-3.09,3.75q0,65.46,0,130.93c0,2.9,1,3.67,3.75,3.65,17.83-.13,35.65,0,53.47-.21a54.45,54.45,0,0,0,25.89-6.6c8-4.37,12.39-10.92,12.44-20.14.05-8.83,0-17.66,0-26.48C356.47,132,353.35,127.26,347.85,123.83Zm-35.8,48.62c-2.36,1.41-5.19,2.4-7.6,1.47s-1.07-3.86-1.12-5.88c-.15-6.32-.05-12.64-.05-19,0-7,.15-14-.07-21-.1-3.15,1.23-3.6,3.85-3.26,5.68.73,7.94,3.06,8,8.74,0,10.64,0,21.29,0,31.93C315.07,168.35,314.7,170.88,312.05,172.45Zm3-71.54c0,5.67-4.07,9.17-9.65,8.84-2.4-.15-2.08-1.65-2.09-3.1,0-5.33,0-10.66,0-16s.06-10.67,0-16c0-2.38.79-3.19,3.26-3,5.87.47,8.47,3,8.51,8.75Q315.08,90.67,315,100.91Z"/><path class="cls-1" d="M99.22,83.11c0-18.14-4.8-23.86-22.8-27.16-1-.18-2-.33-3-.46-21.89-3-43.9-1.16-65.84-1.78-3.85-.11-5.06.8-5,4.86.21,21.47.1,42.95.1,64.43,0,21.64.06,43.29-.07,64.93,0,3.25.87,4.23,4.17,4.17q16.47-.32,33,0c3.27.06,4.24-.85,4.2-4.15-.18-14,0-28-.16-41.95-.06-3.77.7-5.17,4.84-5.05,10.32.29,20.64-.06,30.82-2.09,14-2.79,19.7-9.62,19.75-23.77C99.24,104.42,99.22,93.77,99.22,83.11ZM57.9,112.28c0,6-6.94,10.7-12.67,8.87-1.93-.61-1.31-2.07-1.32-3.24-.06-6.82,0-13.64,0-20.45S44,83.82,43.82,77c-.08-3,1-3.61,3.77-3.38,7.95.65,10.32,3,10.33,10.73C57.92,93.66,58,103,57.9,112.28Z"/><path class="cls-1" d="M461.91,75.72c-.18-8.51-4.82-14.32-12.88-17.26a58.89,58.89,0,0,0-12.13-2.9c-22.74-3.12-45.61-1.24-68.41-1.82-3.71-.09-2.87,2.39-2.87,4.38q0,32.51,0,65c0,21.49.08,43-.07,64.49,0,3.43.8,4.57,4.39,4.49,10.83-.23,21.67-.21,32.49,0,3.42.06,4.55-.78,4.5-4.37-.22-13.5.13-27-.21-40.49-.12-4.85.82-6.54,6.13-6.35,11.31.41,22.68.05,33.7-3.11,9.66-2.78,15.15-9,15.38-18.57Q462.43,97.48,461.91,75.72Zm-41.08,36.57c0,5.95-7,10.69-12.71,8.86-2-.62-1.25-2.1-1.26-3.25-.08-6.81,0-13.63,0-20.44s.12-13.64-.06-20.45c-.08-2.94.9-3.62,3.73-3.38,8.09.68,10.35,3,10.35,11.23C420.84,94,420.89,103.14,420.83,112.29Z"/><path class="cls-6" d="M270.41,683c0-4.87-2.38-8.14-6.73-10.13A33.38,33.38,0,0,0,250.1,670c-7.48-.11-15,.09-22.45-.12-3.08-.09-4,.89-4,4,.18,9,.07,18,.07,26.95,0,9.31.12,18.63-.07,27.94-.06,3.13,1,4,4,3.9,7.48-.2,15,0,22.45-.11a31.16,31.16,0,0,0,13.56-2.89c4.23-2.08,6.72-5.29,6.71-10.19Q270.39,701.24,270.41,683ZM250,718.59a10.32,10.32,0,0,1-.49,3.9c-.63,1.54-2.35,2-3.8,1.92-2.33-.14-1.54-2.19-1.55-3.5-.08-6.67,0-13.33,0-20,0-6.33-.06-12.67.06-19,0-1.38-1.1-3.82,1.68-3.78,2.29,0,4.19,1.12,4.16,4,0,2.67,0,5.33,0,8C250,699.59,250,709.09,250,718.59Z"/><path class="cls-1" d="M36,698.74C45.13,696.93,47,691,46,683.27a7.51,7.51,0,0,1,0-1.5c.24-4.42-2-7.2-5.87-8.93a29.2,29.2,0,0,0-9.14-2.4c-9.13-1-18.29-.2-27.44-.52-2.78-.09-2.79,1.5-2.79,3.49q0,28,0,55.93c0,2.21.44,3.34,3,3.28,8.65-.19,17.34.24,26-.34,13.5-.91,17.07-5.07,17.07-18.42C46.75,703.43,46.2,702.66,36,698.74Zm-9.35,22.73c-.08,2.2-2.16,2.92-4,2.93-2.36,0-1.59-2.06-1.64-3.37-.11-2.64,0-5.29,0-7.93,0-2.48-.06-5,0-7.44,0-1.36-.6-3.32,1.66-3.46,1.95-.11,3.89.8,4,2.92C26.89,710.56,26.88,716,26.68,721.47Zm.1-29.9c-.07,2.46-1.73,3.56-4,3.49-2.72-.08-1.63-2.35-1.78-3.78a44.21,44.21,0,0,1,0-4.46,45.53,45.53,0,0,1,0-5c.15-1.4-1-3.78,1.72-3.74,2.06,0,3.95,1,4,3.53C26.86,685,26.88,688.26,26.78,691.57Z"/><path class="cls-6" d="M816.8,685.63c0-3.18-1.09-3.78-4-3.85-8.59-.18-17.16,2-25.79,0-2.13-.49-4.61.29-6.87.77-4.5,1-6.71,3.71-6.65,8.52.15,10.81.27,21.63-.05,32.43-.16,5.19,2.19,7.72,6.77,8.88,5.74,1.46,11.49.86,18.26-.58-1.77,3.57-4.11,4-6.64,4-4,0-8,.17-12,0-3-.15-3.2,1.4-3.13,3.7.06,2.11-.09,4,3,3.94,9.14-.17,18.31.41,27.41-.8,6.7-.9,9.55-4.12,9.6-11.08C816.8,716.24,816.63,700.94,816.8,685.63Zm-18.7,22c0,4.83,0,9.66,0,14.48,0,2-.22,3.71-2.81,3.78s-3.5-1.26-3.49-3.71q.08-14.48,0-29c0-2.46.89-3.84,3.42-3.8s2.91,1.65,2.89,3.72C798.07,697.93,798.1,702.76,798.1,707.58Z"/><path class="cls-1" d="M940.23,673.34c0-2.64-1-3.51-3.52-3.41-3.82.14-7.66.16-11.48,0-2.57-.12-3.64.67-3.47,3.36.19,3.13,0,6.28,0,9.67-6.32-1.29-12.22-2-18.17-.49-4.64,1.2-6.93,3.76-6.77,8.9.31,9.48.09,19,.09,28.47,0,9.22,2.32,12.36,11.77,12.92s19.28-.1,28.92-.16c2.41,0,2.56-1.49,2.56-3.31C940.18,710.63,940.15,692,940.23,673.34Zm-21.37,52.1c-2.41.1-3.63-1.14-3.62-3.66q.07-14.25,0-28.48c0-2.39.83-3.93,3.35-4s3.32,1.54,3.27,3.94c-.11,4.82,0,9.66,0,14.49,0,4.66-.07,9.32,0,14C921.91,724,921.11,725.35,918.86,725.44Z"/><path class="cls-6" d="M94.45,692.8c0-3.38-1.1-6.54-4.28-7.92-11.41-4.94-23-4.64-34.33.16-1.53.64-2.53,2.53-3.78,3.84-.8,13.07-.8,12.92,12.1,13.07,4,0,6-.72,5-5.13a10.43,10.43,0,0,1,.19-4c.41-2.21,1.68-3.71,4.11-3.44s2.42,2.22,2.49,4.14c.25,7.32,0,7.58-10.08,10.3-2.57,1.15-5.18,2.22-7.71,3.46-7,3.41-9.06,9.36-6.83,19.22C52.27,730.66,55.89,733,63,733c9.49.09,19-.34,28.47-.41,2.52,0,3.05-1.16,3-3.37C94.44,717.1,94.48,705,94.45,692.8ZM72.84,725.42c-1.79,0-3.24-.73-3.26-2.87,0-2.47,0-4.95,0-7.42-.09-3.27,2.19-4.57,4.72-4.57,1.82.1,1.49,2.39,1.59,4.49,0,.75,0,1.62,0,2.45,0,1.65,0,3.3,0,4.94C76,724.61,74.69,725.43,72.84,725.42Z"/><path class="cls-6" d="M344.48,711c5.59-.06,11.19,0,16.79-.07,1.58,0,3.36.48,4.44-1.31h0c-.06-5.49-.2-11-.15-16.47,0-4.82-2.23-8-6.69-9.39a49.88,49.88,0,0,0-29.48-.14c-4.9,1.46-7.13,4.9-7,10.16.19,9,0,18,.06,27,0,6.51,2.14,9.37,8.5,11.08,7.52,2,15.2,1.87,22.8.69,9.49-1.47,11.78-4.39,11.82-13.9,0-1.49.11-3,.17-4.48h0c-4.25-2.51-8.88-.67-13.31-1.17A40.35,40.35,0,0,0,347,713c0,2.83-.08,5.66-.07,8.49,0,3.83-1.69,4.8-5.06,3.17-2.7-3.88-1-8.19-1-12.29C340.83,710.44,343.1,711,344.48,711Zm-3.75-18.09c-.05-2.23.95-3.51,3.19-3.51s3.16,1.4,3,3.59c-.07,1.33,0,2.66,0,4.39.1,1.94.51,6.14-3.56,6.21-1.84-.12-2.72-.79-2.67-2.71C340.8,698.19,340.78,695.53,340.73,692.87Z"/><path class="cls-6" d="M318,693c0-3.38-1.11-6.54-4.28-7.91-11.41-5-22.95-4.64-34.33.15-1.53.65-2.54,2.53-3.79,3.84-.79,13.07-.79,12.92,12.11,13.07,4,.05,6-.72,5-5.12a10.47,10.47,0,0,1,.19-4c.4-2.21,1.68-3.71,4.11-3.44s2.42,2.23,2.48,4.15c.25,7.31,0,7.57-10.07,10.29-2.57,1.15-5.18,2.22-7.71,3.46-7,3.42-9.06,9.37-6.83,19.22.94,4.12,4.55,6.42,11.66,6.49,9.49.09,19-.34,28.47-.41,2.52,0,3-1.16,3-3.37C317.94,717.31,318,705.16,318,693Zm-21.61,32.62c-1.79,0-3.24-.73-3.26-2.87,0-2.47,0-4.94,0-7.42-.08-3.27,2.2-4.57,4.72-4.56,1.83.1,1.5,2.38,1.6,4.48,0,.75.05,1.63.05,2.45,0,1.65-.06,3.3,0,4.94C299.5,724.82,298.2,725.64,296.35,725.63Z"/><path class="cls-6" d="M460.61,693c0-3.38-1.11-6.53-4.29-7.91-11.4-4.95-22.95-4.64-34.32.15-1.53.65-2.54,2.53-3.79,3.85-.8,13.06-.79,12.91,12.11,13.07,4,0,6-.72,5-5.13a10.68,10.68,0,0,1,.18-4c.41-2.21,1.69-3.71,4.12-3.44s2.42,2.23,2.48,4.15c.25,7.31,0,7.57-10.07,10.29-2.57,1.15-5.18,2.22-7.71,3.46-7,3.42-9.06,9.37-6.83,19.22.93,4.12,4.55,6.42,11.66,6.49,9.48.09,19-.34,28.47-.41,2.51,0,3.05-1.16,3-3.37C460.59,717.27,460.64,705.12,460.61,693ZM439,725.6c-1.79,0-3.24-.74-3.26-2.88,0-2.47,0-4.94,0-7.41-.08-3.27,2.2-4.58,4.72-4.57,1.83.1,1.5,2.38,1.6,4.48,0,.76.05,1.63.05,2.45,0,1.65-.06,3.3,0,5C442.15,724.78,440.85,725.6,439,725.6Z"/></svg>