<svg id="Layer_1" data-name="Layer 1" xmlns="http://www.w3.org/2000/svg" viewBox="0 0 1106.13 743.43"><defs><style>.cls-1{fill:#f91d25;}.cls-2{fill:#030d65;}.cls-3{fill:#fed20a;}</style></defs><title>bank-jateng</title><path class="cls-1" d="M206.74,382.13q-3.45,4.44-6.92,8.88A659.26,659.26,0,0,0,123,515,532,532,0,0,0,90.8,600.42c-1.86,6.64-3.47,13.35-4.91,20.08-.58,2.69-1,3.36-3.66,1.67Q43.76,597.42,5.1,572.92c-3-1.93-1.83-3.39-.61-5.47,17.75-30.21,39.72-57.13,64.2-82.06,35.74-36.4,75.18-68.18,118.93-94.51,5.87-3.54,12.1-6.48,18.16-9.7Z"/><path class="cls-2" d="M290.12,436.49c8.55,2.34,16.48,5.62,22.87,12.09,14.27,14.46,12.08,39.8-4.32,51.89-10.69,7.88-22.76,10.14-35.56,10.18-14.43.05-28.87-.07-43.3.09-2.92,0-3.54-.86-3.53-3.63q.12-66.57.05-133.13c0-2-.43-3.87,2.84-3.77,16,.51,32-.9,47.86,1,22.91,2.7,37.19,21,32.5,43.26-2,9.64-8.54,15.62-16.71,20.2C291.91,435.15,290.8,435.32,290.12,436.49Zm-43.36,33.82c0,6.45,0,12.9,0,19.35,0,1.77-.16,3.24,2.49,3.19,11.2-.19,22.45.51,33.58-1.1,8.32-1.21,14.46-5.75,17.53-13.77,5-13-3.54-26-18.34-28.5-10.84-1.81-21.76-.74-32.64-1.14-2.51-.09-2.66,1.14-2.63,3.08C246.8,457.71,246.76,464,246.76,470.31Zm0-61.35v12c0,9.31,0,9.31,9.19,9.31,7.36,0,14.75.36,21.68-2.86,8.51-3.94,12.3-10.78,11.78-21.37-.4-8.35-4.49-13.63-13.63-16.3-9-2.62-18.29-1.35-27.47-1.43-2.19,0-1.5,2-1.52,3.18C246.72,397.29,246.75,403.12,246.75,409Z"/><path class="cls-2" d="M1079.74,432.39c8.58,7.9,11.25,16.94,8.11,27.28-3.84,12.67-13.34,18.82-25.8,21.22-3.91.75-7.82,1.53-11.7,2.41-3.1.7-6.14,1.86-6.41,5.58s2.52,5.35,5.53,6.46c9.22,3.41,19,4.57,28.42,7.47a30.45,30.45,0,0,1,10.65,5.19c13.47,11.06,12.48,31-2.88,39.42-19.94,10.94-40.7,10.7-60.67-.23-9.08-5-12.87-13.63-11.53-24.15,1.3-10.1,8-15.37,16.85-18.69,1.42-.53,2.9-.93,4.7-1.5-3.38-4.34-9.65-7-7.7-13.91,1.74-6.24,7.09-8.33,12.85-10.79-3.73-2.52-7.28-4.49-10.26-7.28-13.61-12.79-10.86-37,5.18-46.45a43.31,43.31,0,0,1,21.85-6.15c14.27-.15,28.56.07,42.84-.12,3.92,0,3.63,1.33,2.2,3.94-3.06,5.59-8.09,8.16-14,9.27C1085.54,431.81,1083.11,432,1079.74,432.39Zm-28.53,80.77a24.09,24.09,0,0,0-15.11,3.62c-8.16,5-8.37,15.9.19,20,11.91,5.71,24.37,5.11,36.61.67a10.46,10.46,0,0,0,7.25-9.76c.25-4.8-2.74-7.65-6.47-9.78C1067,514.08,1059.59,512.94,1051.21,513.16Zm3.62-46.66c10.56,0,17.87-6.58,17.88-16.14,0-9.74-7.45-16.52-18.15-16.52a16.89,16.89,0,0,0-17.15,16.67C1037.39,460.05,1044.4,466.49,1054.83,466.5Z"/><path class="cls-1" d="M238.55,358.85C291.38,303.38,350,256.8,422.43,227.47c-1.87,8.75-3.48,16.48-5.17,24.19-2.36,10.78-4.87,21.52-7.11,32.33-.51,2.45-1.44,3.61-3.93,4.21-51.21,12.27-98.83,33.37-144.64,58.92-6.29,3.51-12.46,7.23-18.69,10.86C241.72,358.66,240.64,359.65,238.55,358.85Z"/><path class="cls-2" d="M914.2,482.75c0,5.4,0,10.29,0,15.17a3.3,3.3,0,0,1-1.68,3c-14.45,10.54-47.78,14.2-63.21-1.31-14.7-14.77-17.47-32.45-13-51.82a40.91,40.91,0,0,1,53.13-29.61c15.07,5.1,22.29,16.88,25.4,31.69.68,3.28.63,6.71,1.09,10,.55,3.85-.55,5.21-4.83,5.14-17.95-.29-35.92,0-53.87-.23-4.31-.06-5,1.06-4.3,5.13A27.27,27.27,0,0,0,878,493C890.57,493.79,898.39,491.63,914.2,482.75Zm-38.71-28.62h20.27c1.34,0,2.92.31,2.44-2-1-4.65-1.71-9.34-5-13.13-6.58-7.56-15-8.71-23.93-6.25-9.13,2.53-13.74,9.7-16,18.53-.56,2.16.09,3,2.45,2.91C862.28,454,868.88,454.13,875.49,454.13Z"/><path class="cls-2" d="M672.79,445.61q0,33.86,0,67.72c0,9.3-1.25,18.38-6.32,26.48-5.53,8.83-14,13.28-23.91,14.57-6,.78-12.27.26-18.4.47-2.25.07-2.58-.89-2.16-2.77,1-4.63,2.06-9.27,3-13.93.4-2,1.63-2.25,3.35-2.2a46.13,46.13,0,0,0,11-.67c6.87-1.48,11.14-5.62,12.44-12.46a74.79,74.79,0,0,0,1.47-14.17q0-59,0-117.93c0-10.26,5.77-17.8,15.49-20.88,3.14-1,4.17-.69,4.15,3C672.71,397.08,672.79,421.34,672.79,445.61Z"/><path class="cls-2" d="M406.22,495.43c-.52,7.55-6.6,14-15.14,16.11-6.48,1.59-11.4-.87-15.78-8a43.35,43.35,0,0,1-20.65,8.23c-10.35,1.3-20-3.13-24-11.46-4.69-9.62-2.9-19.83,4.73-27.45,5-5,11.18-8,17.73-10.32s13.33-4.55,20-6.71c2-.64,2.77-1.62,2.81-3.87.36-17.42-11.24-21.08-24.92-17.53-5.87,1.52-10.91,4.8-15.45,8.8-1.68,1.49-3.32,3-5.68,5.16,0-6.74,0-12.64,0-18.54,0-1.25.81-1.89,1.52-2.68,12.53-14.07,41.26-15,54.39-1.72,4.62,4.66,7.35,10.22,7.43,16.79.18,16.12.18,32.24.24,48.36,0,9.07,2.08,10.26,10.34,6,.8-.42,1.67-.69,2.5-1ZM375.87,465c-7.58,2.52-14.53,4.81-20.92,8.5a20,20,0,0,0-6.21,5.39c-3.09,4.22-3.28,8.85-1.21,13.5a11.39,11.39,0,0,0,9.6,6.92c6.28.74,11.75-1.3,16.69-5.11a4.74,4.74,0,0,0,2.1-4.22C375.81,481.81,375.87,473.69,375.87,465Z"/><path class="cls-2" d="M434.14,429.45c4.05-3.84,7.45-6.95,11.51-9.12,22.16-11.82,46.59,2.16,47.21,27.35.49,19.79.21,39.61.38,59.42,0,3-.58,3.74-3.63,2.55-9.8-3.83-14.58-11.3-14.7-23.59-.12-11.67,0-23.34-.42-35-.27-7.55-1.89-15.14-10-18.16-10-3.74-19-1-26.39,6.66a13.39,13.39,0,0,0-4.08,10.2c.26,18.89,0,37.78.2,56.66,0,3.41-.73,4.68-4.27,4.31-4.69-.49-11,1.92-13.69-1-2.33-2.5-.69-8.76-.69-13.36,0-24.72,0-49.44-.09-74.17,0-3.1.57-4.39,3.95-4.1a66.72,66.72,0,0,0,11,0c3.17-.26,4,.95,3.71,3.86C434,424.13,434.14,426.27,434.14,429.45Z"/><path class="cls-2" d="M949.46,429.72c5.86-6.42,11.75-10.19,18.79-12.35,15.8-4.84,33.42,5,37.18,21.1A62.54,62.54,0,0,1,1007.2,453c-.08,17.2-.16,34.39.07,51.59.05,3.73-1.18,4.47-4.41,3.87-6.35-1.16-10.5-4.79-12.33-10.93a41.51,41.51,0,0,1-1.32-11.86c0-10.75-.07-21.49,0-32.24a36.75,36.75,0,0,0-1.61-10.88c-3.49-11.62-19.1-15.39-29.72-7.59-6,4.41-8.95,9.42-8.66,17.35.65,17.48.14,35,.27,52.5,0,2.95-.68,4.07-3.8,3.84a91.93,91.93,0,0,0-11.5,0c-2.52.13-3.06-.86-3.06-3.18q.11-42.15,0-84.29c0-2.49.82-3.15,3.18-3a107.78,107.78,0,0,0,11.51,0c2.74-.17,4,.51,3.65,3.49C949.26,423.85,949.46,426.08,949.46,429.72Z"/><path class="cls-2" d="M761.92,493.84c-.69,7.8-6.61,14.79-14,15.78-8,1.07-13.37-1.6-15.81-8.26-6.36,4.41-13.11,7.61-21,8.36-10.26,1-18.53-3-23-11.58-4.09-7.87-2.58-18.05,3.62-25.27,4.47-5.18,10.37-8.06,16.57-10.37q10.33-3.86,20.81-7.27c2.2-.72,3.15-1.64,3.22-4.14.36-14-7.93-20.69-21.93-17.65-7.79,1.69-13.94,6.11-19.72,11.22a14.64,14.64,0,0,0-2,3c-.43-.23-.86-.46-1.3-.68,0-5.88,0-11.77,0-17.64,0-1.67,1.43-2.65,2.54-3.67,12.14-11.18,35.38-12.95,48.94-3.44,8.24,5.77,11,14.36,11,24.07q0,21.65,0,43.29c0,8.16,1.83,9.29,9.13,5.69Zm-29.6-16.21c0-3.68-.07-7.36,0-11,.06-2.19-.6-2.61-2.69-1.86a117.86,117.86,0,0,0-18.45,8.1c-6.25,3.55-9,10-7.08,16.29,1.78,5.81,7.25,9,14.58,8.41,9.28-.71,13.62-5.29,13.62-14.38C732.33,481.31,732.33,479.47,732.32,477.63Z"/><path class="cls-3" d="M308.57,242.07c4.65-11.6,11.66-21.85,18.5-32.17,21-31.65,46.78-59.11,74.28-85.06,6-5.64,6.06-5.57,13.36-2.09,9.67,4.6,19.33,9.22,29.19,13.92-.7,1.9-2.46,2.28-3.79,3.07-33.1,19.72-65,41.22-94.52,66-11.64,9.77-22.83,20-32.58,31.76-1.36,1.63-2.92,3.1-4.38,4.65Z"/><path class="cls-2" d="M794.16,399.55c0,6,.13,10.84-.06,15.68-.1,2.47.73,3.1,3.12,3,7.36-.15,14.74.09,22.1-.13,2.91-.08,3.79.82,3.52,3.62-.39,4.09,1.68,9.43-.81,12s-7.86.66-12,.79c-4.29.14-8.6.17-12.89,0-2.47-.11-3.09.73-3.07,3.12.11,13.82-.13,27.64.15,41.45.25,12.41,7.52,17.4,19.71,14.22a81.57,81.57,0,0,0,13.56-5.13c0,5,0,9.59,0,14.16,0,1.3-.09,2.39-1.5,3-10.7,4.64-21.69,6.89-33,2.78s-16.45-12.69-16.49-24.49c-.06-14.74-.21-29.48.11-44.21.09-4.3-1.3-5.29-5.16-4.9a82.13,82.13,0,0,1-8.74.06c-2.3,0-3-1.23-1.41-2.81C772,421.21,782.69,410.78,794.16,399.55Z"/><path class="cls-3" d="M58,444C64.34,429.23,70.7,414.47,77,399.68a6.42,6.42,0,0,1,3.94-3.48A300.25,300.25,0,0,1,170.85,375c8.84-.73,17.66-.59,27.8-.74-13.55,5.12-25.83,10.1-38.34,14.42-30.81,10.63-58.79,26.59-85.71,44.65C69.15,437,63.56,440.47,58,444Z"/><path class="cls-2" d="M527.87,440.79c0,21.95-.06,43.9.08,65.86,0,3.18-.76,4.38-4,4.07-4.69-.45-11,1.93-13.68-1-2.33-2.52-.7-8.76-.7-13.35q0-52.05,0-104.08c0-4.31.09-8.6,2.05-12.6,3-6,8.45-8.21,14.49-9.26,3.11-.54,1.75,2.28,1.75,3.53.1,20.11.07,40.22.07,60.33Z"/><path class="cls-2" d="M599.39,510.54c-15.56-.44-28.47-5.14-39-15.06-10-9.46-19.34-19.72-29.17-29.42-2.27-2.25-1.77-3.41.08-5.44q18-19.72,35.77-39.66a7.32,7.32,0,0,1,6.29-2.8c5.78.21,11.57.07,18.3.07-4.83,5.58-9.09,10.51-13.36,15.42-7.76,8.92-15.41,17.93-23.36,26.66-2.37,2.61-2,3.9.34,6.19C569.8,480.81,584.15,495.28,599.39,510.54Z"/><path class="cls-3" d="M234.65,340.23c4.61-19.53,10.11-38.71,17.83-57.19,5.3-12.69,10.8-25.29,17.09-37.55,1.44-2.78,2.51-2.84,4.91-1.2q9.11,6.19,18.54,11.91c2.49,1.5,2.7,2.42.69,4.67a594,594,0,0,0-44.53,56.72C244.05,324.93,239.48,332.67,234.65,340.23Z"/><path class="cls-3" d="M223.37,340.91a165.56,165.56,0,0,1-11.12-39.69c-2.27-14.69-3.41-29.49-4.29-44.33-.22-3.63.95-4.81,4.25-5.28,5.3-.75,10.58-1.71,15.8-2.86,3.06-.68,3.28.46,2.87,3C226.18,281,224.55,310.49,223.37,340.91Z"/><path class="cls-3" d="M273.91,139.4c-15.7,26.57-25.68,55.08-35,83.85-2.35-27.08-.85-53.74,8.2-79.68,1.47-4.23,3.34-5.71,7.76-5.23C261.12,139,267.41,139.07,273.91,139.4Z"/><path class="cls-3" d="M105.29,355c6.53-7.33,12.53-14,18.47-20.76,1.06-1.2,2.18-.86,3.34-.51a268.75,268.75,0,0,1,64.81,29.58C162.78,359.85,134.54,356.5,105.29,355Z"/><path class="cls-3" d="M22,318.52c5.92-5.33,11.9-10.6,17.69-16.06,1.43-1.35,2.48-1.75,4.34-1.06q30.89,11.58,61.81,23a1.46,1.46,0,0,1-.12.4l-82.49-4.56Z"/><path class="cls-3" d="M61,380.25c2.49-5.94,4.79-11.12,6.82-16.4.82-2.11,2-2.69,4.15-2.56,20.52,1.3,41,3.19,62.18,8.63A504.27,504.27,0,0,0,61,380.25Z"/><path class="cls-3" d="M38.33,493.73c0-6.57.08-13.14,0-19.7,0-2.34,1.53-3.15,3-4.16,15.21-10.19,31.32-18.51,50.34-24A338.61,338.61,0,0,0,38.33,493.73Z"/><path class="cls-3" d="M144.8,314.85c6.61-2.19,12.45-4,18.17-6.08,2.36-.87,3.8-.32,5.62,1.27a52.47,52.47,0,0,1,10,12.51c5.38,8.71,10.66,17.49,15.8,26.47C178.63,336.94,162.26,325.8,144.8,314.85Z"/><path class="cls-3" d="M196.53,281.3c2.24,20.95,6.66,40.68,11.46,61.17a69.91,69.91,0,0,1-8.69-12.4,194.57,194.57,0,0,1-15.94-35.57c-.48-1.39-1-2.47.53-3.6C188.06,287.84,192.13,284.65,196.53,281.3Z"/><path class="cls-3" d="M273.54,206.89c-12.3,19.05-20.27,39.4-29.21,59.51.43-3.73.82-7.47,1.31-11.2.53-3.94,1-7.9,1.77-11.8,2.33-11.56,6.12-22.7,9.93-33.83,1-2.77,2.37-3.82,5.38-3.37C266,206.7,269.4,206.65,273.54,206.89Z"/><path class="cls-3" d="M13.47,410.78c2-5.87,3.66-10.88,5.37-15.89A2.11,2.11,0,0,1,21,393.5c16.15-1.57,32.31-2.58,48.56-1.06C50.83,397.64,32.24,403,13.47,410.78Z"/><path class="cls-3" d="M155.51,293.8c-14-12.06-29.58-21.64-46.16-30.83l7.41-3.46c2.5-1.15,5-2.24,7.5-3.44a1.76,1.76,0,0,1,2.41.36C137.29,268.07,146.48,280.8,155.51,293.8Z"/><path class="cls-1" d="M308.63,242.16c-.3.21-.6.44-.91.63,0,0-.18-.19-.27-.29l1.12-.43Z"/><polygon class="cls-1" points="58.03 444.02 57.89 444.18 58.02 444 58.03 444.02"/><path class="cls-2" d="M406.29,495.54a1.72,1.72,0,0,1,.29-.31s.15.08.23.12l-.59.09Z"/></svg>