<svg id="Layer_1" data-name="Layer 1" xmlns="http://www.w3.org/2000/svg" viewBox="0 0 1106.13 743.43"><defs><style>.cls-1{fill:#eb1d23;}.cls-2{fill:#ce171f;}.cls-3{fill:#b01017;}.cls-4{fill:#93080b;}.cls-5{fill:#a8191d;}.cls-6{fill:#8b0e0f;}.cls-7{fill:#e02a31;}.cls-8{fill:#770001;}.cls-9{fill:#4f4f4f;}.cls-10{fill:#d4777b;}</style></defs><title>bank-jatim</title><path d="M683.13,382.16c0-15.44.18-30.88-.77-46.3-.09-1.52.46-1.82,1.84-1.8,5.74.06,11.48.07,17.22,0,1.47,0,1.83.51,1.9,1.87.21,3.63.56,7.25.87,10.87,0,.47-.15,1.14.54,1.26.53.09.67-.52.9-.87A31.79,31.79,0,0,1,725.49,333c14.78-3.47,29.07,1.63,35.27,15.59.73,1.64,1.19.69,1.72-.1,4.68-6.92,10.77-12.13,18.78-14.67,17.49-5.56,35.18.94,41.36,21.14a63.31,63.31,0,0,1,2.52,18.5c0,18.38,0,36.75,0,55.13,0,1.33-.22,1.91-1.75,1.9-6.76-.09-13.52-.08-20.29,0-1.49,0-1.78-.51-1.77-1.88q.06-25.84,0-51.68a41,41,0,0,0-2.14-14.11c-2.11-5.81-5.85-9.9-12.2-10.83-6.67-1-12.14,1.39-16.41,6.57-3.6,4.37-4.66,9.53-4.66,15q0,18.09,0,36.18c0,6.18-.06,12.37,0,18.56,0,1.63-.3,2.21-2.07,2.18-6.57-.11-13.14-.09-19.71,0-1.55,0-2.05-.34-2-2,.06-17.73,0-35.47,0-53.21a38.86,38.86,0,0,0-1.85-12.61c-4.22-12.5-17.48-13.25-24.86-7.44a21.1,21.1,0,0,0-8.43,15.27c-.11,1.34-.16,2.68-.16,4,0,17.93,0,35.85,0,53.78,0,1.62-.31,2.22-2.08,2.19q-9.85-.15-19.71,0c-1.75,0-2.1-.54-2.09-2.18C683.15,412.91,683.13,397.54,683.13,382.16Z"/><path class="cls-1" d="M933.18,380.58c.87-1,1.74-2.07,2.62-3.1A13.34,13.34,0,0,0,937,376l1.89-2.32c.39-.5.79-1,1.19-1.49.62-.78,1.25-1.56,1.88-2.33.38-.52.8-1,1.17-1.52,3.67-4.92,7.44-9.76,11-14.77q9.47-13.32,18.62-26.87c6.21-9.17,12.68-18.17,19-27.24.33-.33.38-.85.78-1.13,4.32-5.5,8.35-11.23,12.9-16.55a17.12,17.12,0,0,0,1.21-1.49c.87-1,1.73-2.08,2.6-3.11a11.5,11.5,0,0,0,1.23-1.48l3.37-3.89a16.69,16.69,0,0,0,1.6-1.86c1.76-1.94,3.53-3.87,5.29-5.8,1-1.17,2.22-2.14,3.15-3.38l5.73-5.75a43.84,43.84,0,0,0,3.7-3.51c.62-.68,1.32-1.29,2-1.93l5.31-4.94c.33-.3.68-.72,1.14-.45s.18.69.15,1.06a218.35,218.35,0,0,1-4.08,29.13,182.58,182.58,0,0,1-5.53,20.45,9.73,9.73,0,0,0-.77,2.3,188.43,188.43,0,0,1-8.41,20.7c-.43.55-.4,1.31-.83,1.86q-3.81,6.9-7.61,13.8c-.5.57-.67,1.34-1.17,1.91l-6.54,9.92a5.15,5.15,0,0,1-1.06,1.22,1.91,1.91,0,0,1-.06.33c-.31.56-.79,1-1.13,1.55h0c-.25.3-.33.7-.61,1s-.55.57-.8.88a10.29,10.29,0,0,0-1.11,2c-4,3.4-8.26,6.39-12.33,9.66-7,5.67-14.23,11.18-21.37,16.74-7.69,6-15.44,11.89-23.35,17.59-8.95,6.45-18,12.79-27.26,18.72a373.77,373.77,0,0,1-48,26,349.48,349.48,0,0,1-34,13.3c-10.4,3.43-20.88,6.64-31.58,9.05-.84.19-1.72.63-2.56-.05a.78.78,0,0,1,.08-.83h0c.75-.31,1.67-.09,2.33-.73,5.88-2,11.78-3.93,17.63-6A295.45,295.45,0,0,0,856.19,441a6.83,6.83,0,0,1,1.22-.66q8.82-4.38,17.19-9.61c.57-.49,1.34-.64,1.89-1.17a239.57,239.57,0,0,0,28-20.27,8.77,8.77,0,0,0,1.48-1.24l5-4.5a34.84,34.84,0,0,0,2.62-2.39l10.68-10.69c.79-.87,1.69-1.65,2.4-2.6l5-5.74A6.31,6.31,0,0,0,933.18,380.58Z"/><path class="cls-2" d="M801.84,463.27a64.94,64.94,0,0,0,10.68-2.49c3.26-1,6.61-1.69,9.84-2.81,3.69-1.28,7.48-2.25,11.19-3.49,5.56-1.86,11.12-3.73,16.61-5.8,4.71-1.77,9.31-3.83,14-5.74,7.69-3.16,15.15-6.78,22.51-10.6,6.8-3.53,13.54-7.16,20.11-11.12,6.93-4.19,13.83-8.43,20.52-13,5.9-4,11.77-8.14,17.57-12.33s11.29-8.33,16.89-12.54c7.4-5.56,14.55-11.47,21.84-17.17,6.14-4.81,12.34-9.55,18.51-14.32a7.91,7.91,0,0,1,1.33-1.32c.35-.29.75-.52,1.13-.78s.72-.23.9-.61l1.31-1.07a8.16,8.16,0,0,0,1.84-1.19l4.6-3.44a19,19,0,0,1,1.55-1.11c3.88-2.83,7.73-5.71,11.65-8.5a476.54,476.54,0,0,1,62.74-38c.46-.23.93-.41,1.39-.62,1.61-.6,3.08-1.5,4.65-2.19.34-.15.91-.79,1.06.23a180.67,180.67,0,0,1-15.58,28.38,254,254,0,0,1-35.71,42.86c-1.5,1.18-2.71,2.66-4.14,3.92a33.58,33.58,0,0,1-4.19,3.8,4.3,4.3,0,0,1-1.39,1.77c-13.46,5-26.7,10.49-39.84,16.26-20.61,9.07-40.82,19-61.19,28.57-14.71,6.92-29.51,13.67-44.59,19.77-12.94,5.24-26.05,10.05-39.39,14.21Q833.44,458,816.3,462c-5.39,1.24-10.82,2.34-16.26,3.39-3.5.67-7,1.21-10.52,2-.91.19-1.87.54-2.69-.3.07-.63.66-.59,1-.66,4.24-.82,8.34-2.2,12.53-3.19C800.89,463.07,801.38,462.88,801.84,463.27Z"/><path class="cls-3" d="M786.93,467.09c2.13.23,4.12-.64,6.19-.9,4-.52,7.94-1.47,11.89-2.28,2.82-.58,5.66-1.38,8.48-1.9,3.85-.72,7.57-1.89,11.4-2.63,3-.57,6-1.53,9-2.37,3.28-.93,6.55-1.91,9.82-2.88,3.67-1.09,7.36-2.12,11-3.31q7.54-2.49,15-5.18c5.8-2.09,11.55-4.34,17.27-6.64,6.27-2.52,12.53-5.07,18.71-7.82,7.33-3.26,14.69-6.45,21.94-9.89,11.54-5.48,23.22-10.69,34.69-16.32,10-4.9,20.07-9.45,30.16-14,7-3.18,14.09-6.13,21.21-9,4.51-1.82,9-3.67,13.56-5.42,2.7-1.05,5.3-2.47,8.23-2.86,1-1.13,2.58-.86,3.77-1.53l1.56-.72c1-.49,2.08-.69,3.08-1.13,8.81-2.94,17.6-5.94,26.52-8.55,1.34-.39,2.69-.73,4-1.09,2.53-.88,5.19-1.31,7.7-2.26l20.84-5.5a66.54,66.54,0,0,1-5.52,8.57,19.14,19.14,0,0,0-1.14,1.54c-8,10.31-17.62,18.94-27.94,26.9a317.12,317.12,0,0,1-30.27,20.18c-.56.4-1,.76.13,1,.49.09,1.31-.59,1.42.53a5.46,5.46,0,0,1-3.67.77,66.39,66.39,0,0,0-10.64,1.08c-11.48,1.66-22.9,3.72-34.25,6.09-18.73,3.92-37.25,8.64-55.71,13.65-20.19,5.47-40.25,11.38-60.45,16.81q-18.1,4.86-36.35,9.19c-12.71,3-25.54,5.5-38.41,7.77q-15.35,2.7-30.83,4.48a3.47,3.47,0,0,1-2.59-.38c0-1.17.89-1,1.56-1a15.67,15.67,0,0,0,4.09-.59l10.32-1.93C784.11,467.4,785.48,466.8,786.93,467.09Z"/><path d="M568.69,412.74c-1.5-5.48-1.58-11.11-1.59-16.72q-.06-20.86,0-41.73c0-1.51-.37-2-1.91-2-3.38.11-6.76,0-10.15.05-1.17,0-1.71-.21-1.7-1.56.08-5,.07-10.08,0-15.12,0-1.27.41-1.66,1.66-1.64,3.44.07,6.89,0,10.34.05,1.32,0,1.77-.38,1.74-1.75-.07-4.91,0-9.83-.05-14.74a1.62,1.62,0,0,1,1.37-1.89q10.58-2.94,21.14-6c1.38-.4,1.45.29,1.45,1.36,0,7,0,14,0,21.05,0,1.51.37,2,1.91,1.95,6.51-.08,13,0,19.53-.06,1.33,0,1.79.35,1.77,1.72q-.1,7.46,0,14.93c0,1.4-.5,1.69-1.79,1.68-6.57-.06-13.14,0-19.71-.06-1.36,0-1.71.41-1.71,1.74.06,14.1,0,28.21.08,42.31a25.57,25.57,0,0,0,1.76,9.92,9.48,9.48,0,0,0,8.51,6.14,32.88,32.88,0,0,0,10.09-.48c1.1-.25,1.64-.15,1.65,1.2.05,5.23.19,10.46.3,15.69,0,.76-.09,1.32-1,1.56-10,2.61-20,3.64-29.86-.36-6.64-2.7-10.88-7.81-13-14.63A19,19,0,0,0,568.69,412.74Z"/><path class="cls-4" d="M766.62,470.94c4.09.06,8.07-.83,12.08-1.33,6.65-.83,13.28-1.88,19.9-2.91,3.62-.57,7.23-1.24,10.83-2,6-1.19,12-2.45,18-3.7,9.55-2,19-4.37,28.5-6.65,5.54-1.33,11.09-2.68,16.53-4.29,6.85-2,13.82-3.59,20.63-5.76,5.84-1.87,11.86-3.21,17.77-4.87s11.89-3.49,17.86-5.14c5.12-1.42,10.28-2.68,15.42-4,5.31-1.4,10.6-2.91,15.94-4.23,5.94-1.47,12-2.63,17.87-4.22,2.87-.77,5.79-1.3,8.66-2,4.77-1.21,9.65-2,14.5-2.86,4.21-.79,8.43-1.58,12.66-2.28,5-.82,10-1.49,15-2.35,3.12-.53,6.27-.35,9.39-.74.49-.06,1,.12,1.38-.41.71-1.06,1.91-.2,2.77-.7l24.57-2.15c1.51-.13,3-.21,4.51-.32.16.61-.2.69-.46.82-19.2,9.87-38.62,19.26-58.51,27.67a7.31,7.31,0,0,0-1.86.8c-.51.3-1.09.44-1.62.69l-9.65,4.11c.57.8,1.26.48,1.84.49,10.72.21,21.42.61,32.11,1.49.5,0,1.17,0,1.46.25.45.43,0,.59-.46.58-1.65-.81-3.5-.59-5.2-.67-6.09-.31-12.17-1.09-18.29-.87-2.86.09-5.73-.4-8.56-.28-3.8.17-7.49-.73-11.27-.53-5.21.29-10.44.22-15.65.45-6.65.3-13.33.49-19.94,1.2-6.42.69-12.85,1.22-19.26,2-5,.64-10.06,1.22-15.09,1.81a77.29,77.29,0,0,0-8,1.26c-3.75.84-7.63,1.12-11.44,1.71-4.26.66-8.5,1.38-12.74,2.09-6.49,1.09-13,2-19.45,3.35-4.88,1.06-9.81,1.78-14.69,2.76-7.08,1.41-14.19,2.65-21.28,3.95-4.27.79-8.53,1.7-12.82,2.25-5.52.71-11,1.93-16.51,2.49-4.58.47-9.12,1.46-13.7,2s-9.25,1.42-13.93,1.77c-3.41.26-6.79.76-10.19,1.19s-6.93.77-10.39,1c-12.6.88-25.2,1.59-37.85,1.73-6.1.07-12.23.39-18.32.14-5-.21-10.06-.12-15.08-.28-.5,0-1,.1-1.41-.38a.41.41,0,0,1,.22-.59c4.7.13,9.42.19,14.11.13,10.11-.13,20.24.28,30.34-.77,3.9-.41,7.87-.34,11.8-.65,6.83-.56,13.67-1,20.46-1.93.25,0,.51,0,.76,0,1.83-.06,3.63-.41,5.46-.44Z"/><path d="M656.85,382.29c0,15.38,0,30.75,0,46.13,0,1.57-.38,2.07-2,2.05-6.89-.09-13.78-.07-20.67,0-1.31,0-1.74-.33-1.74-1.71q.06-46.41,0-92.82c0-1.6.56-1.89,2-1.88,6.82.07,13.65.09,20.47,0,1.56,0,1.94.44,1.94,1.93C656.83,351.42,656.85,366.85,656.85,382.29Z"/><path d="M631.16,307c.07-7.64,5.85-13.13,13.74-13.06s13.67,5.71,13.58,13.46c-.08,7.45-6.11,13-14,12.89S631.08,314.6,631.16,307Z"/><path class="cls-5" d="M761.27,471.69c-4.85.49-9.69,1-14.54,1.46-2,.2-4,.21-6.07.4-5,.45-10.15.39-15.19.89-5.34.53-10.68.15-16,.34-3.87.14-7.75.72-11.61.31-4.9-.52-9.79-.18-14.68-.32-2.91.49-5.77-.19-8.65-.37-3.63-.23-7.29-.06-10.89-.77l-.76,0c-.13-.1-.17-.19-.12-.28s.1-.13.14-.13c4.28-.16,8.53.39,12.79.62,14.28.75,28.57.91,42.84.39,14.53-.54,29-1.59,43.45-3.57,3.46-.47,6.93-.83,10.4-1.23a4.63,4.63,0,0,1-3.17.77c-.94,0-1.89-.09-2.58.76h0C764.87,471.41,763,471,761.27,471.69Z"/><path class="cls-6" d="M662.89,473.2l0,.41c-5.14-.11-10.22-.72-15.32-1.34-4.08-.49-8.2-.78-12.28-1.32-4.27-.56-8.53-1.19-12.81-1.64-2.33-.24-4.55-1.06-6.91-1.07a2.76,2.76,0,0,1-2.07-.79c3.2.46,6.41.86,9.6,1.37q9,1.44,18.15,2.34C648.44,471.89,655.67,472.53,662.89,473.2Z"/><path class="cls-7" d="M786.93,467.09a12.14,12.14,0,0,1-4.24.39l19.13-5c0,.27,0,.54,0,.8-4.46,1.05-8.92,2.08-13.38,3.15A9.35,9.35,0,0,0,786.93,467.09Z"/><path d="M396.37,472.44c-1.57-.14-3.47.74-4.63-.28s-.57-2.89-.78-4.39c-.6-4.16-1-8.35-1.65-12.51-.21-1.48.3-1.88,1.7-1.95a30.34,30.34,0,0,0,9.47-2.16c7.07-2.75,10.53-8.27,11.78-15.48,1.31-7.52,1.37-15.1,1.37-22.69q0-38.26-.05-76.53c0-2,.57-2.44,2.47-2.41,6.63.12,13.27.09,19.9,0,1.54,0,2.1.31,2.1,2-.08,29.27-.07,58.54-.16,87.81a69.83,69.83,0,0,1-3.75,23.49C430,459,421.73,466.33,410,469.86c-1.82.55-3.69,1-5.54,1.44A56.25,56.25,0,0,1,396.37,472.44Z"/><path d="M412.29,307.24c0-7.82,5.82-13.33,13.93-13.26,7.83.07,13.42,5.66,13.4,13.41,0,7.51-5.86,12.95-13.87,12.94C418,320.32,412.26,314.79,412.29,307.24Z"/><path d="M396.37,472.44a62.54,62.54,0,0,1,8.06-1.14A18,18,0,0,1,396.37,472.44Z"/><path class="cls-8" d="M567.59,457.88l19.71,4.39c8.38,1.85,16.82,3.39,25.26,4.94.31.05.61.16.92.24,3.36.82,6.79,1.24,10.21,1.75,6.81,1,13.64,2,20.49,2.56,4.17.33,8.28,1.12,12.48,1.17a51.59,51.59,0,0,1,6,.5,3.59,3.59,0,0,1,1,.08c6.46.52,12.92.89,19.39,1.22a5.19,5.19,0,0,0,1.51.25c10.26-.13,20.52.83,30.77.3,7.38-.39,14.78-.12,22.15-.72,7.68-.63,15.37-1,23.05-1.72,5.9-.56,11.78-1.25,17.67-1.82,4-.4,8-1,11.93-1.61,8.08-1.15,16.15-2.29,24.19-3.66,5.39-.91,10.78-1.89,16.17-2.78,10.76-1.77,21.43-4,32.18-5.76,5.84-1,11.64-2.22,17.48-3.22,9-1.53,17.95-3.19,27-4.41,5.55-.75,11.06-1.79,16.62-2.46,8.6-1,17.2-2.09,25.83-2.89,10.54-1,21.09-1.51,31.66-1.91,2.93-.11,5.86-.25,8.79-.31,6.24-.12,12.4,1.13,18.65,1.09,2.41,0,4.84,0,7.26.09,5.9.3,11.79.75,17.68,1.15.36,0,.6.16.58.57-5.51,2.66-11.23,4.8-16.89,7.06q-28.56,11.43-58,20.28Q937,479,914.29,484.08c-12.5,2.82-25.06,5.32-37.7,7.37q-24.84,4-49.93,6a585.76,585.76,0,0,1-62.7,1.64q-27.65-.75-55.11-4.17c-15.13-1.88-30.14-4.4-45.1-7.29-.94-.18-1.86-.43-2.79-.65-2.9-.82-5.86-1.36-8.81-1.9A600.12,600.12,0,0,1,581.94,465c-4.31-1.52-8.67-2.93-12.87-4.74-1.65-.71-3.31-1.35-5-1.9h0c-.78-.64-2-.49-2.73-1.36.48-.63,1.06-.44,1.64-.25h0C564.4,457.54,566.06,457.45,567.59,457.88Z"/><path class="cls-8" d="M563,456.74l-1.29.17c.66.82,1.91.49,2.38,1.44l-5.32-1.66c-.34-.92.13-.94.81-.72A10.31,10.31,0,0,1,563,456.74Z"/><path class="cls-8" d="M652.15,485.1A27.52,27.52,0,0,1,661,487,44.93,44.93,0,0,1,652.15,485.1Z"/><path class="cls-8" d="M557.52,456.07c-1.1,0-1.82-.86-3.31-1.18a4,4,0,0,1,3.69.38C557.48,455.4,557.78,455.87,557.52,456.07Z"/><path class="cls-8" d="M564.05,458.34a10,10,0,0,1,5,1.9A17.06,17.06,0,0,1,564.05,458.34Z"/><path class="cls-8" d="M567.59,457.88c-1.64,0-3.27,0-4.63-1.15A17.56,17.56,0,0,1,567.59,457.88Z"/><path class="cls-8" d="M557.52,456.07c-.5-.56-.48-.88.38-.8.38.62,1.28,0,1.65.7-.45,0-.78.21-.81.72Z"/><path class="cls-9" d="M568.69,412.74a2.94,2.94,0,0,1,.76,2.68A4.28,4.28,0,0,1,568.69,412.74Z"/><path class="cls-7" d="M804.15,461.75c-.42,1.37-1.53.56-2.33.73A3.8,3.8,0,0,1,804.15,461.75Z"/><path class="cls-10" d="M377.65,415a1.72,1.72,0,0,1-1.15-1.54A2,2,0,0,1,377.65,415Z"/><path class="cls-2" d="M338.22,363.76l3.35-3.9a12.27,12.27,0,0,0,1.24-1.46l3.36-3.9a12.27,12.27,0,0,0,1.24-1.46l8-9.26a12.2,12.2,0,0,0,1.22-1.47l3.11-3.81a7,7,0,0,0,1.48-1.55c1.06-1.88,2.63-2.4,4.77-2.33,5.35.16,10.71,0,16.06.06.41,0,1-.27,1.2.27s-.29.79-.58,1.1l-20.24,21.6c-.79.88-1.67,1.67-2.4,2.59-3.9,4.19-7.76,8.41-11.71,12.54-.93,1-1.08,1.6-.18,2.69,1.77,2.14,3.36,4.42,5,6.65a5.67,5.67,0,0,1,1.14,1.9,64.65,64.65,0,0,1,5.6,7.18c4.61,6.09,9.16,12.23,13.73,18.35,1,1.31,1.94,2.62,2.91,3.94a17.11,17.11,0,0,0,1.15,1.54q5.19,6.9,10.37,13.82c.29.38.86.73.55,1.3s-.81.26-1.23.26c-6.06,0-12.12,0-18.18,0a2.54,2.54,0,0,1-2.32-1.31c-3.14-4.46-6.33-8.88-9.51-13.32-.31-.56-.79-1-1.12-1.55l-3.88-5.34a15.43,15.43,0,0,0-1.11-1.54q-5.14-7.17-10.28-14.33c-1.54-2.15-3.05-4.32-4.57-6.48-1.38-2-1.38-2-2.92-.28-2.09,2.32-4.14,4.67-6.28,6.95a3.9,3.9,0,0,0-1.06,2.92c0,10.72,0,21.43.08,32.14,0,1.66-.38,2.21-2.11,2.16-4.33-.13-8.68-.12-13,0-1.7,0-2.32-.33-2.27-2.18.14-5,.05-10.08.05-15.12V292.43c0-2.45,0-2.45,2.51-2.44,4.21,0,8.42.07,12.63,0,1.62,0,2.2.34,2.2,2.09q-.09,42.48-.05,84.95c0,.43-.19.89.39,1.42l3.6-4.74a12.31,12.31,0,0,0,1.16-1.53,84,84,0,0,1,5.7-6.91A17.1,17.1,0,0,0,338.22,363.76Z"/><path class="cls-2" d="M360,360.24a5.17,5.17,0,0,1,2.4-2.59A6.07,6.07,0,0,1,360,360.24Z"/><path class="cls-2" d="M361.18,337a1.71,1.71,0,0,1-1.48,1.55A3.23,3.23,0,0,1,361.18,337Z"/><path class="cls-2" d="M354.26,384a4.74,4.74,0,0,1-1.14-1.9A1.73,1.73,0,0,1,354.26,384Z"/><path class="cls-2" d="M356.21,414.26a1.77,1.77,0,0,1,1.12,1.55A1.85,1.85,0,0,1,356.21,414.26Z"/><path class="cls-2" d="M356.59,342.31a1.67,1.67,0,0,1-1.22,1.47A2,2,0,0,1,356.59,342.31Z"/><path class="cls-2" d="M347.41,353a1.7,1.7,0,0,1-1.24,1.46A2.1,2.1,0,0,1,347.41,353Z"/><path class="cls-2" d="M342.81,358.4a1.69,1.69,0,0,1-1.24,1.46A2.1,2.1,0,0,1,342.81,358.4Z"/><path class="cls-2" d="M338.22,363.76a1.71,1.71,0,0,1-1.23,1.47A2,2,0,0,1,338.22,363.76Z"/><path class="cls-2" d="M331.29,372.14a1.68,1.68,0,0,1-1.16,1.53A2.07,2.07,0,0,1,331.29,372.14Z"/><path class="cls-2" d="M351.22,407.38a2,2,0,0,1,1.11,1.54A1.77,1.77,0,0,1,351.22,407.38Z"/><path class="cls-2" d="M263.55,357.22c-3.93-7.62-11.43-10.65-19.82-10.15a23.16,23.16,0,0,0-11.57,4,18.53,18.53,0,0,0-1.54,1.14,26.09,26.09,0,0,0-9.86,20.85c0,18.38,0,36.75,0,55.12,0,1.75-.41,2.29-2.2,2.24-4.34-.14-8.68-.13-13,0-1.74.05-2.26-.42-2.25-2.22q.1-31.29,0-62.59c0-9.76-.06-19.52-.74-29.26-.09-1.4.38-1.76,1.7-1.74,4,.07,7.91.1,11.87,0,1.59,0,2,.67,2,2,.19,4.08.45,8.15.68,12.23,0,.42-.12.9.29,1.24.49,0,.58-.39.79-.7,8.26-12.58,20.17-17.89,34.84-16.36,14.52,1.52,24.09,10.36,28,24.45a61.9,61.9,0,0,1,2,16.46c0,18,0,36.11.05,54.16,0,1.88-.55,2.37-2.36,2.32-4.34-.13-8.68-.12-13,0-1.64.05-2.15-.34-2.15-2.09q.11-27.45,0-54.92a34.7,34.7,0,0,0-3.05-14.69A5.19,5.19,0,0,0,263.55,357.22Z"/><path class="cls-2" d="M230.62,352.25a1.69,1.69,0,0,1,1.54-1.14A2,2,0,0,1,230.62,352.25Z"/><path class="cls-2" d="M263.55,357.22a1.41,1.41,0,0,1,.75,1.53A1.68,1.68,0,0,1,263.55,357.22Z"/><path class="cls-6" d="M663.63,473.63l19.54,1.14c0,.12,0,.25,0,.37-6.32-.07-12.59-.72-18.88-1.18A2.1,2.1,0,0,1,663.63,473.63Z"/><path class="cls-2" d="M93.55,394.36a103,103,0,0,0,.9-14.26,61.22,61.22,0,0,0-2.35-16.76,5.83,5.83,0,0,1-.11-1.12c1.34,2.08,1.51,4.51,2,6.83a69.91,69.91,0,0,1,0,25.31C93.8,394.54,93.68,394.54,93.55,394.36Z"/><path class="cls-2" d="M93.55,394.36h.37c-.37,1.27,0,2.76-1.13,3.82A13.16,13.16,0,0,1,93.55,394.36Z"/><path class="cls-2" d="M31.52,339.21A1.7,1.7,0,0,1,30,340.35,2,2,0,0,1,31.52,339.21Z"/><path class="cls-2" d="M94.69,379.14A57.88,57.88,0,0,0,92,362.22c-.23-.59-.45-1.18-.67-1.78C85.5,344.8,75.06,334.71,57.88,333c-9.46-1-18.36.85-26.36,6.24A12.36,12.36,0,0,1,30,340.35,35.14,35.14,0,0,0,21.48,350a3.77,3.77,0,0,1-.32-2.22c0-18.56,0-37.12,0-55.69,0-1.73-.54-2.15-2.19-2.11-4.4.11-8.8.1-13.2,0-1.52,0-1.92.47-1.93,2-.36,45.67.87,91.35-.69,137,0,1.21.36,1.53,1.51,1.52,3.89-.06,7.78-.07,11.67,0,1.24,0,1.7-.39,1.75-1.62.1-2.86.29-5.73.48-8.59.11-1.69.29-3.36.44-5l.59-.25a5.7,5.7,0,0,0,.29.72c6.29,10.37,15.59,15.78,27.57,16.79a40.25,40.25,0,0,0,30.05-9.23c8-6.57,12.6-15.21,15.25-25a24.25,24.25,0,0,0,.95-4.11A77,77,0,0,0,94.69,379.14Zm-17.63,4.38c-.19,7.74-1.66,15.16-5.56,22-5.84,10.23-17.19,14.69-28,12.82a27.36,27.36,0,0,1-12-5.21c-.49-.4-1-.77-1.48-1.21A27.77,27.77,0,0,1,21.15,390c.24-6.62-.71-13.31.54-19.86,2-10.25,7.57-18,17.43-21.84C48.26,344.74,57,346,65,352a23.55,23.55,0,0,1,6.42,7.5c.85,1.49,1.56,3.05,2.3,4.6A44.92,44.92,0,0,1,77.06,383.52Z"/><path class="cls-2" d="M73.67,364.1a13.1,13.1,0,0,1-2.3-4.6A9.79,9.79,0,0,1,73.67,364.1Z"/><path class="cls-2" d="M30,411.92a2,2,0,0,1,1.48,1.21A1.67,1.67,0,0,1,30,411.92Z"/><path d="M540,429.16c-.33-2.14-.58-4.29-.78-6.45-.84-9-.51-18-.58-26,0-6.5,0-12.05,0-17.6,0-6.44,0-12.85-1.26-19.24a33.26,33.26,0,0,0-29-27.24,79.34,79.34,0,0,0-24.37.69,61.59,61.59,0,0,0-18.55,6.3c-1,.57-1.43,1.08-1,2.37,1.36,4.11,2.63,8.25,3.74,12.44.42,1.58.8,1.77,2.23,1a49.59,49.59,0,0,1,27.43-6.09c10.24.65,16.41,6.93,16.44,16.48,0,1.24-.2,1.84-1.65,1.82A100.73,100.73,0,0,0,494,369a61.79,61.79,0,0,0-21.68,7.59,30.92,30.92,0,0,0-12.79,38.76c4.55,10.5,13,16,24.22,17,12.21,1.08,23-2.2,31.37-11.61.28-.32.5-.87,1-.72s.53.82.61,1.3c.45,2.64.91,5.28,1.3,7.93.13.86.48,1.19,1.36,1.18q9.75,0,19.52,0C539.85,430.44,540.16,430.12,540,429.16Zm-44.35-14c-6.19,0-11-2.46-13.08-7.15-2.45-5.55-1.35-12.66,2.58-16.81,3.3-3.48,7.58-5.05,12.06-6.18,5.16-1.3,10.45-1.45,15.74-1.67,1.65-.07,2.08.53,2,2.08-.12,2.1,0,4.2,0,6.31,0,1.21-.09,2.43,0,3.63C516,406.8,505.44,415.19,495.67,415.16Z"/><path class="cls-2" d="M105.77,396.65c-.43,3.4-1.11,6.78-.77,10.23.21,2.08.55,4.15.83,6.22a19.55,19.55,0,0,1-1.37-10C104.64,400.91,104.45,398.6,105.77,396.65Z"/><path class="cls-2" d="M110.37,421.94a1.85,1.85,0,0,1,1.2,1.49A1.85,1.85,0,0,1,110.37,421.94Z"/><path class="cls-2" d="M154.79,426.47a1.8,1.8,0,0,1,1.54-1.1A1.83,1.83,0,0,1,154.79,426.47Z"/><path class="cls-2" d="M167.82,340.38a1.75,1.75,0,0,1-1.51-1.18A1.94,1.94,0,0,1,167.82,340.38Z"/><path class="cls-2" d="M165.15,338.46a1.55,1.55,0,0,1-1.49-.85A1.57,1.57,0,0,1,165.15,338.46Z"/><path class="cls-2" d="M180.67,428.71a92.65,92.65,0,0,1-.9-11c-.71-15.17-.23-30.35-.32-45.53A62.28,62.28,0,0,0,178,357.91c-1.65-6.84-4.63-12.93-10.15-17.53a19.13,19.13,0,0,1-1.51-1.18l-1.16-.74c-.41-.44-1.09-.39-1.49-.85-4.26-2.76-9-3.85-14-4.48a61.74,61.74,0,0,0-19.42.84,57.38,57.38,0,0,0-17.37,6.2,1.69,1.69,0,0,0-.94,2.45c1,2.74,2,5.5,2.84,8.31.44,1.51.9,1.66,2.22.88a45.56,45.56,0,0,1,25.47-6.11c5.28.2,10.25,1.4,14.12,5.35,4.74,4.83,5.69,10.91,5.64,17.32,0,1.08-.69,1.19-1.54,1.2-2.3,0-4.59.06-6.89.17-10.7.55-21.17,2.18-30.89,7-8.46,4.23-14.67,10.46-17.14,19.89a30.34,30.34,0,0,0,.06,16.45,24.79,24.79,0,0,0,4.54,8.84c.41.48.79,1,1.2,1.49a21.53,21.53,0,0,0,4.2,3.83c10.65,7.46,27.83,7.11,39-.79a17.13,17.13,0,0,0,1.54-1.1,28.74,28.74,0,0,0,6.17-5.94c.28-.36.54-.86,1-.76.69.14.43.82.49,1.28.37,3,.75,6.07,1.06,9.11.1,1.05.55,1.39,1.59,1.37,4.21,0,8.42-.06,12.63,0C180.67,430.46,180.88,429.92,180.67,428.71Zm-18.08-28a7.34,7.34,0,0,1-.91,3.64c-.37.77-.75,1.54-1.12,2.3a18.93,18.93,0,0,0-1.14,1.94l-1.54,2.28a21.9,21.9,0,0,1-1.61,1.86,24.38,24.38,0,0,1-6.83,4.65,19.28,19.28,0,0,0-1.89.78c-5.24,1.91-10.6,2.35-15.86.41-6.54-2.4-9.93-8.64-9.5-16.42.5-8.77,5.65-13.81,13.29-16.9a44.16,44.16,0,0,1,8.23-2.33,82.46,82.46,0,0,1,17.95-1.35c.74,0,1,.31,1,1C162.64,388.6,162.73,394.64,162.59,400.67Z"/><path class="cls-2" d="M161.68,404.31c1.52-7,.53-14.17.84-21.25.06-1.25-.64-1.29-1.55-1.29A90.61,90.61,0,0,0,145,382.84a9.51,9.51,0,0,1-1.31,0c1.5-1.24,3.41-.85,5.11-1.07a89.16,89.16,0,0,1,12.56-.54c1.17,0,1.56.46,1.55,1.59,0,5.79,0,11.58-.09,17.37C162.81,401.62,162.81,403.16,161.68,404.31Z"/><path class="cls-2" d="M156.27,412.69a3.28,3.28,0,0,1,1.61-1.86A2.42,2.42,0,0,1,156.27,412.69Z"/><path class="cls-2" d="M159.42,408.55a2.18,2.18,0,0,1,1.14-1.94A2.79,2.79,0,0,1,159.42,408.55Z"/><path class="cls-2" d="M147.55,418.12a1.87,1.87,0,0,1,1.89-.78A2.27,2.27,0,0,1,147.55,418.12Z"/><path class="cls-3" d="M761.27,471.69c1.62-1.4,3.57-.48,5.36-.75A13.24,13.24,0,0,1,761.27,471.69Z"/></svg>