<svg id="Layer_1" data-name="Layer 1" xmlns="http://www.w3.org/2000/svg" viewBox="0 0 1106.13 743.43"><defs><style>.cls-1{fill:#04a44e;}.cls-2{fill:#282526;}.cls-3{fill:#01aded;}.cls-4{fill:#f6eb05;}</style></defs><title>bank-kalbar-syariah</title><path class="cls-1" d="M664.48,365.63h427.19c7.21,0,7.22,0,7.22,7.2,0,27.05-.19,54.09.18,81.14.08,5.76-1.81,6.62-6.92,6.61q-332.9-.18-665.77-.11-95.38,0-190.76.09c-4.34,0-5.85-1-5.82-5.59q.31-41.64,0-83.28c0-5.1,1.62-6.16,6.42-6.16Q450.36,365.73,664.48,365.63ZM298.31,441.85a24.78,24.78,0,0,0,14.28-4c7.16-4.69,11.64-11,11.14-20-.49-8.71-6.36-12.64-13.53-15.54-5.63-2.27-11.29-4.52-16.76-7.13-2.67-1.27-4.63-3.57-3.6-7,1-3.14,3.35-4.47,6.49-4.7a18.79,18.79,0,0,1,13.49,4.34c4.57,3.77,7.43,2.87,9.87-2.07a20,20,0,0,1,2.09-3.12c2.73-3.61-1.41-5.47-2.56-5-4.71,2.06-8.21-1.05-12.21-1.84-5.2-1-10.35-1.09-15.27,1.15-7.58,3.45-12.47,9.19-12.81,17.67-.32,7.91,4.81,12.28,11.58,15.07,3.46,1.43,7,2.79,10.41,4.24,3.29,1.38,6.8,2.36,9.58,4.75,2.33,2,3.71,4.44,2.77,7.57s-2.94,5.44-6.21,6.06a16.17,16.17,0,0,1-9.47-.83,35.06,35.06,0,0,1-12.4-9.17c-2-2.24-3.38-2.11-5,.12s-3.21,4.31-4.92,6.37c-1.43,1.71-1.4,3,.44,4.46C282.33,438.51,289.77,441.63,298.31,441.85Zm750.1-23.43h0c0-3.94.14-7.88,0-11.81-.4-9-6.49-13.9-15.44-12.92-3.53.39-6.39,2.17-9.4,3.72-1.14.59-2.4,2-3.66.09-1.51-2.24,0-13.77,2.31-15.69,1.75-1.5,1.45-3.39.87-4.89-.74-1.93-2.47-.6-3.71-.22-4.78,1.49-9.57,3-14.27,4.68-3,1.08-3.5,5.19-.67,6.3,2.61,1,2.53,2.65,2.53,4.58q.06,18.53,0,37.06c0,2.28.27,4.71-2.81,5.64-1.78.54-1.41,2.35-1.3,3.7.16,2.13,1.93,1.7,3.29,1.71,4.83,0,9.66,0,14.49,0,1,0,2.33.27,2.61-1.18s.53-3.57-.8-3.9c-4.49-1.12-3.21-4.47-3.26-7.29-.09-4.83,0-9.66,0-14.5,0-6.42,3.07-9.8,9.36-10.37,4.82-.44,7,1.41,7,6.33.09,6.8.07,13.6.05,20.4,0,2.08.52,4.35-2.54,5.1-1.74.42-1.59,2.17-1.41,3.61s1.32,1.91,2.71,1.9c5.19,0,10.38,0,15.57,0,1.12,0,2.22-.12,2.48-1.48s.61-3.36-.93-3.83c-4-1.21-3-4.34-3.1-7C1048.33,424.87,1048.41,421.64,1048.41,418.42ZM915.7,419.88c0-3.39,0-6.79,0-10.19-.16-11.75-7.26-17.7-18.9-15.89-1.93.31-4.48,1.5-5.7.69-6.89-4.53-7.54.58-8.73,5.19-.31,1.21-.88,2.36-1.11,3.58-.31,1.58-1.77,3.45.83,4.55,2.07.89,3.56.6,5-1.41a11,11,0,0,1,10.18-4.84c3.32.26,5.5,2.11,5.62,5.36.14,4-3.24,2.94-5.52,3a35.74,35.74,0,0,0-12.55,2.41c-8.67,3.6-12.05,12.27-8.24,20.78,3.44,7.69,12.21,10.72,20.42,7.3,1.92-.8,4.18-3.64,5.62-2.26,4.43,4.27,9.5,1.37,14.17,2.21,1.37.24,2.5-.15,2.85-1.71s.49-3.27-1.15-3.68c-3.26-.82-2.81-3.16-2.81-5.45C915.69,426.32,915.68,423.1,915.7,419.88Zm-502.46,38c7.25.07,10.53-2.24,14.91-11.23,7.74-15.9,15.24-31.91,22.89-47.85.56-1.18,1.23-2.1,0-3.3-1-1-2-1.5-3.32-.82-2.61,1.37-5.2.83-7.83.13-6.13-1.62-11.71-1-16.2,4.05-2.17,2.41-4.17,2.22-5-.95-1.26-4.9-3.72-4.14-7-2.1-2.41,1.51-5,2.69-7.58,4-1.14.58-2.43,1.07-1.88,2.71.45,1.34,1,3.25,2.67,2.84,3.12-.79,3.72,1.45,4.64,3.26,4.6,9.08,9,18.28,13.72,27.27,1.91,3.61.41,6.15-1.55,8.77s-4.79,3.68-8.05,2.43c-1.35-.51-3.13-1.64-3.82-.11-1.3,2.86-2.8,6.15-2.47,9.07C407.65,458.35,411.28,457.71,413.24,457.91Zm157.29-38.73c0-2.69,0-5.37,0-8.06,0-13.77-7.71-19.85-21.26-16.79-1.37.31-2.77,1.22-4.11.25-4.44-3.22-6.22-.9-7.23,3.31-.38,1.57-1.06,3.06-1.36,4.63-.32,1.72-2.44,3.62.18,5.19s4.16,0,5.74-2A10.43,10.43,0,0,1,553,401.67c3.32.56,5.12,2.84,4.92,6s-3.17,2-5.08,2.25c-1,.15-2.17-.06-3.21.12-7.05,1.26-14.47,1.94-18,9.66A15.72,15.72,0,0,0,535.07,438c4.83,4.44,12,5.1,18.52,1.72,1.36-.71,3-2.82,4.18-1.57,4.24,4.54,9.43,1.32,14.06,2.25a2.11,2.11,0,0,0,2.79-1.8c.16-1.24.34-3-1-3.34-4.16-1.06-3-4.25-3.12-6.93C570.44,425.26,570.52,422.22,570.53,419.18ZM675,421c0-3.05-.1-6.09,0-9.13.22-5.59,3.12-7.93,8-5.57,3.93,1.91,5,.63,6.56-2.74,3.76-8.34,3.86-7.88-4.77-9.44-4.49-.81-7.69-.12-10.38,3.39-1.24,1.63-2.39,1.44-4.06.3-6.54-4.46-6.59-4.38-11.44,1.54A19.67,19.67,0,0,1,657.5,401c-2.94,2.91-1.92,5.5,1.49,6.2,3.13.65,3.08,2.32,3.08,4.49q0,9.39,0,18.8c0,2,.09,3.93-2.63,4.51-1.86.39-1.61,2.14-1.46,3.55.17,1.6,1.38,1.91,2.74,1.91,5.55,0,11.1,0,16.65,0,1.33,0,2.58-.29,2.7-1.92.11-1.42.28-3.36-1.52-3.54-4.11-.4-3.49-3.23-3.48-5.87S675,423.72,675,421Zm111.7,18.21c2.38.6,4,.46,5.18-.81a1.45,1.45,0,0,0-.3-2.33c-4.45-2.25-3.16-6.3-3.18-9.89,0-9.47,0-18.94,0-28.41,0-1.06.32-2.75-.2-3.09-3.22-2.11-1.57-3.75-.07-6,2.43-3.61,1.13-7.95-2.62-10-3.94-2.21-7-.44-9.27,2.62s-1.14,7.28,2.32,9.77c1.3.93,4.11.76,3.48,3.24-.45,1.78-2.78,2-4.32,2.75-.93.47-2.09.49-3.08.88-2.64,1.05-2.77,3.31-.7,4.36,3.23,1.63,2.87,4.09,2.86,6.75,0,6.79,0,13.58,0,20.37,0,2.35.13,4.46-2.27,6.09-2.62,1.78-1.42,2.51,1,3.76C779.74,441.38,783.52,439.73,786.74,439.25Z"/><path class="cls-2" d="M769.69,360.3H732.28c.17-1.35.73-1.7,1.48-1.79,8.63-1.08,9.08-1.81,5.87-9.58-4.2-10.16-4.2-10.16-15.2-10.16-3.23,0-6.5.36-9.66-.09-5.42-.77-7.9,1.6-9.77,6.51-3.45,9-2.6,11.17,6.79,13.23.8.17,1.27.54,1.65,1.87H646.69c7.47-4.64,7.73-5.88,2.47-12.78s-10.87-13.77-16.37-20.6c-.82-1-1.42-2.87-3.28-2-1.43.65-1.78,2.07-1.78,3.61,0,7.7,0,15.4,0,23.1,0,3.85,2.1,5.87,5.71,6.68,1.28.28,3-.45,4,1.93H597.65c.69-.92.86-1.39,1.1-1.44,10.2-2.14,10.31-2.25,10.32-12.94q0-24.72,0-49.43c0-8.94-.78-9.8-9.75-11.19-.44-.06-.82-.51-2.5-1.62h39.85c-.19.66-.22,1.21-.38,1.26-8.5,2.42-8.54,2.46-8.54,11.32,0,7.61,0,15.22,0,24.33,11.5-9.52,22.08-17.92,32.2-26.84,4.25-3.74,3-6.58-2.62-7.59a5.94,5.94,0,0,1-3.56-1.69c.4-1.78,1.62-1.46,2.63-1.46q12.35,0,24.71,0c1,0,2.43-.37,2.7,1,.31,1.59-1.21,1.46-2.18,1.58-3.17.39-5.67,2.07-8.07,4-8.69,6.9-17.34,13.85-26.07,20.7-2.09,1.64-3.21,2.85-1,5.5,9.56,11.6,18.92,23.37,28.35,35.08.34.42.69.82,1.06,1.21,9.16,9.52,16.83,8.64,22.46-3.37,9.49-20.24,18.43-40.75,27.6-61.14.92-2.05,1.88-4.08,3.35-7.27,5.11,11.6,9.7,22,14.27,32.41,5,11.47,10,23,15.14,34.39C761.07,352.32,763.39,357.85,769.69,360.3Zm-48.07-52.25c-3.66,8.29-6.87,15.62-10.13,22.92-.8,1.79-1.77,3.44,1.5,3.42,6.55,0,13.09,0,20.35,0C729.34,325.4,725.67,317.16,721.62,308.05Z"/><path class="cls-3" d="M100.83,345.84c-23.61-.57-45.39-7-66.44-16.56-2.54-1.15-2.64-2-1.18-4.25a90.32,90.32,0,0,1,18.73-20.52c1.61-1.31,2.89-2.33,4.86,0C70,319.86,103.71,329,129.69,318.08c7.36-3.1,14.13-6.94,19.82-12.52,2.05-2,3.45-2.06,5.75-.19a93.26,93.26,0,0,1,17,18.52c1.88,2.64,1.37,3.89-1.44,5.2-16.43,7.67-33,14.76-51.53,15.42C113,344.73,106.78,345.4,100.83,345.84Z"/><path class="cls-3" d="M108.41,392.82c23.47.84,43.11,7.1,62.22,15.56,3.16,1.4,3.53,2.64,1.51,5.45A98.43,98.43,0,0,1,156,431.65c-2.05,1.74-3.35,2.12-5.73.13A69.53,69.53,0,0,0,69.64,426c-3.76,2.32-7,5.5-10.31,8.5-1.78,1.61-3,1.77-5,.28a86.41,86.41,0,0,1-19.7-20.28c-1.66-2.37-1.41-3.66,1.2-4.86,16.28-7.45,32.69-14.45,50.92-15.5C94.73,393.7,102.76,393.17,108.41,392.82Z"/><path class="cls-2" d="M1054.18,360.24h-40.11c.63-.92.77-1.41,1-1.47,10-2.46,10-2.45,10-12.59,0-17,0-34,0-51,0-7.87-.63-8.51-8.1-9.78-1-.18-2.45.14-2.27-1.41s1.58-1.06,2.61-1c16.27.31,32.58-.84,48.82,1,9.07,1,16,5.48,18.83,14.46,2.39,7.54.82,14.51-5.15,20.14-1.71,1.61-3.59,3.16-5.87,3.63-5.74,1.18-4.32,3.63-1.74,7,3.72,4.8,6.93,10,10.66,14.8,4.5,5.77,7.19,13.34,15.76,15.25-.2.49-.41,1-.61,1.46-7.94,0-15.87.09-23.8-.06-1.78,0-2.33-2.09-3.23-3.36q-9.95-14-19.81-28.05c-1.55-2.2-3-4.87-6.33-3.59-2.74,1.08-1.25,3.76-1.31,5.67-.18,5.9-.13,11.81,0,17.72.16,7.64.94,8.45,8.5,9.44A2.09,2.09,0,0,1,1054.18,360.24Zm-10.8-55.92h0c0,4.46,0,8.92,0,13.38,0,1.34-.34,2.82,1.55,3.52,5.94,2.21,17.7-2,20.17-7.7,3-6.93,3-14.07-1.28-20.46s-11.39-5.68-18-5.84c-2.82-.07-2.46,2-2.48,3.71C1043.35,295.39,1043.38,299.85,1043.38,304.32Z"/><path class="cls-3" d="M186.38,365.31q-80.5,0-161,.13c-3.74,0-5-1-4.59-4.86a96.7,96.7,0,0,1,5.43-22.34c1.14-3.25,2.7-4.1,6.22-2.48,16.29,7.53,33.19,13.5,51.11,15.47,24.6,2.72,48.9,1.33,72.18-8.18,6.11-2.49,12.28-4.95,18.11-8,3.13-1.65,4.22-1,5.4,1.9a83.74,83.74,0,0,1,6.14,23.25c.18,1.75.61,3.48.92,5.22Z"/><path class="cls-2" d="M567.3,360.24H526.24c8.25-5.06,8.34-5.13,2.69-12.49-5.45-7.09-11.1-14-16.7-21-.73-.91-1.26-2.41-2.85-1.89a3.18,3.18,0,0,0-2.17,3.35c0,7.87,0,15.74.15,23.61.05,3.83,2.37,5.76,5.93,6.49,1.13.23,2.62-.45,3.46,1.87h-39c.21-.64.26-1.2.42-1.24,10.09-2.1,10.09-2.09,10.09-12.92q0-25.5,0-51c0-7.91-.59-8.58-8.61-9.71-.68-.1-1.46,0-1.75-.9,2.77-1.82,33.28-2.19,38.26-.46-.1.32-.14.86-.32.91-8.22,2.43-8.65,3-8.67,11.95,0,7.44,0,14.88,0,23.84,11.56-9.59,22.09-18.28,32.55-27.07,1.52-1.28,2.65-3.09,1.82-5.23s-2.72-2.63-4.79-2.84c-1.17-.12-2.56.25-3.9-2.06,10.47-.95,20.4-.38,30.47.25-14,6-23.51,17.65-35.54,25.92-3.65,2.51-3.29,4.31-.71,7.42,7.89,9.48,15.43,19.26,23.2,28.86,4.68,5.78,9.12,11.94,17.58,13.08C567.67,359.4,567.49,359.82,567.3,360.24Z"/><path class="cls-2" d="M851.44,359.12a11.38,11.38,0,0,1,2.12-.54c6.55-.34,8.84-2.38,8.89-8.95.15-18.45,0-36.9.16-55.34,0-5.38-1.92-8.51-7.58-8.84-1.09-.06-2.65.45-3.12-1.32a1.48,1.48,0,0,1,1.51-1.21c16.46.49,33-.94,49.38,1a19.36,19.36,0,0,1,11.73,6c8.9,9.09,6.59,21.55-4.9,26.92-1.87.88-4.2.91-5.83,3,2,.65,3.79,1.19,5.55,1.82,9,3.22,14.08,9,14.14,16.94.08,9.76-3.81,13-12.79,18.32-6.15,3.65-13.15,3.64-20,3.8-12.15.27-24.31-.62-36.46.47C853,361.34,852.08,361,851.44,359.12Zm29.21-20.74h.18v13.91c0,2.79,1.62,4.61,4.19,4.36,4.22-.42,8.6-.48,12.25-3.5,5.86-4.87,7.77-13.92,4.22-21.48-3-6.41-12-10.74-19-9.3-2.08.44-1.87,1.76-1.87,3.17Zm0-36.28h0c0,4.1,0,8.2,0,12.29,0,1.58-.15,3.09,2.21,3.49,7.5,1.28,15.61-3.81,17.36-11.1,2.74-11.46-4.88-20.13-16.84-19.35-2.16.14-2.76,1-2.73,2.91C880.71,294.26,880.66,298.18,880.66,302.1Z"/><path class="cls-3" d="M103.16,374c25.78,0,51.56.12,77.34-.12,4.5,0,4.87,1.57,4.59,5.31-.56,7.35-3.16,14.05-5.54,20.88-1.31,3.75-2.89,3.78-6.21,2.24-17.63-8.18-35.92-14.37-55.44-15.73-29.69-2.07-58.11,2.92-84.67,16.81-2.9,1.51-4.45,1.79-6-1.86a99.71,99.71,0,0,1-6.34-22.66c-.6-3.6.29-5,4.37-4.95,25.95.2,51.92.1,77.88.1Z"/><path class="cls-2" d="M281.27,319.47c4,1.55,7.25,2.54,10.24,4,6.23,3.11,9.87,8.07,10,15.28s-2.93,12.32-9.18,16.26c-7.07,4.44-14.63,5.59-22.62,5.73-11.95.21-23.92-.62-35.86.48a3,3,0,0,1-3.5-1.9c.15-.15.35-.49.63-.58,9.62-2.81,9.76-2.93,9.79-12.9,0-15.39.27-30.78-.07-46.15-.26-12,1.78-12.05-10.32-15.3-.19-1.27.68-1.5,1.59-1.48,15.9.41,31.84-.8,47.72.83a20.29,20.29,0,0,1,12.85,6c9.15,9.36,6.84,21.75-5,27.16C285.74,317.71,283.92,318.38,281.27,319.47Zm-15.55,37.4c3.83,0,6.71-1.09,9-3.29,6.61-6.45,8.24-13.22,5.39-20.73-3.15-8.31-10.09-9.76-17.69-10.41-2.77-.24-3.78.58-3.71,3.51.19,8,0,16.08.07,24.12C258.77,355.37,260.39,356.92,265.72,356.87Zm-6.9-54.49h0v12.3c0,1.43-.11,2.69,1.9,3.17,7.18,1.72,16.1-4,17.59-11.33,2-9.71-2.5-17.07-11.23-18.5-8.18-1.33-8.18-1.33-8.22,6.88C258.81,297.4,258.82,299.89,258.82,302.38Z"/><path class="cls-2" d="M407.66,299.73v11.08q0,16.92,0,33.84c0,11.68.51,12.37,11,14.72-1.48,3-4,1.05-6,1.46-6,1.26-12.05-.5-18,.39-1,.15-2.27.17-2.42-1.35-.18-1.81,1.09-1.75,2.41-2,6.51-1.09,8.64-3.61,8.67-10.48.07-17.19,0-34.38.05-51.57,0-5.24-3-8.07-7.57-9.76-1.26-.46-2.86-.28-3.65-1.7.36-1.91,1.82-1.44,3-1.44,7.88,0,16.52-2,23.42.66,6.72,2.56,10,11.18,14.9,17.08,7.81,9.48,15.36,19.18,24.31,28.58V298.06c0-7-1.21-12.36-10.08-12.84-.48,0-.94-.45-1.18-.57.51-1.29,1-1.74,1.81-1.75h21.49c1,0,2.37-.19,2.41,1.33,0,1.11-1.15,1.09-2,1.36-7.19,2.26-8,3.3-8,11,0,20.06,0,40.12-.08,60.18,0,1.82,1.22,4.63-.9,5.36-2.42.84-3.27-2.23-4.53-3.77Q434,330.52,411.3,302.57C410.48,301.56,410.05,300,407.66,299.73Z"/><path class="cls-1" d="M122.91,487.92c0,6.79-.2,13.59.1,20.36.15,3.51-1.11,5.62-4,7.44-4.35,2.78-8.59,5.77-12.73,8.87-2.3,1.72-4.33,2.36-6.53,0-.11-.12-.31-.17-.45-.28-5.23-4-12.86-6.3-15.41-11.89-2.44-5.35-.75-12.6-.79-19-.05-8.75.09-17.51-.09-26.26-.07-3.45.7-4.84,4.52-4.07a76.19,76.19,0,0,0,30.31,0c4.23-.85,5.26.42,5.09,4.46C122.7,474.34,122.91,481.14,122.91,487.92Z"/><path class="cls-2" d="M388.84,360.26H351.71c-.1-1.21.4-1.64,1.17-1.75,8.47-1.23,8.93-2.08,5.57-10.2-4-9.55-4-9.55-14.5-9.54-2.87,0-5.74-.13-8.6,0s-6.41-1.37-8.22.85A23.89,23.89,0,0,0,322.21,352c-.35,3,1.6,4.9,4.53,5.82,1.81.56,3.93,0,6.42,2.29H305.68c14.72-7.83,16.36-23,22.49-35.26,7.09-14.15,13-28.86,19.42-43.22,2.33.39,2.35,2.1,2.89,3.33,8.81,20,17.55,40,26.41,59.92C379.53,350.81,381.63,357.33,388.84,360.26Zm-47.93-52.44c-3.91,8.74-7.14,16.11-10.5,23.42-1,2.24-.83,3.22,1.92,3.17,6.4-.1,12.81,0,20.08,0C348.56,325.49,345,317.26,340.91,307.82Z"/><path class="cls-1" d="M122.92,252.71c0,6.43,0,12.87,0,19.3,0,2.52-.27,4.08-3.54,3.51a95.13,95.13,0,0,0-32.55-.16c-2.71.47-3.8-.21-3.77-3.25.14-12.87.07-25.74,0-38.61a5.77,5.77,0,0,1,2.75-5.38c4.76-3.16,9.52-6.32,14.1-9.73,2.47-1.84,4.11-1.07,6.66.14,13.33,6.3,19.54,16.06,16.37,31A15.62,15.62,0,0,0,122.92,252.71Z"/><path class="cls-2" d="M1007.77,358.89c1-.24,2.28-.64,2.72.71.2.63-.65,1.13-1.44,1.13H972.43c2.1-3,4.41-2.53,6.49-2.93,2.76-.52,4.48-1.81,3-5.1-1.69-3.69-3.26-7.44-4.62-11.26-.85-2.37-2.45-2.7-4.58-2.68-6.43.05-12.88.19-19.31-.07-3.38-.13-5.42.89-6.31,4.22-.37,1.37-1.19,2.6-1.69,3.94-2.71,7.32-1.12,10.09,6.54,11.47a2.41,2.41,0,0,1,2.47,2c-8.78.89-17.27.28-26-.33,9.16-3.72,11.47-12.14,14.88-19.66,8.11-17.91,16.1-35.86,24.2-53.77.78-1.71,1-3.79,3.31-5.24,4.3,9.72,8.54,19.32,12.8,28.9,6.1,13.71,12.28,27.39,18.3,41.14,1.36,3.11,3,5.81,6,7.61Zm-33.61-24.51c-3.86-9.11-7.37-17.39-11.27-26.61-3.81,8.49-7.06,16-10.56,23.41-1.42,3-.08,3.25,2.38,3.23C961,334.34,967.19,334.38,974.16,334.38Z"/><path class="cls-2" d="M773,359.68c11.14-3.67,11.13-3.67,11.13-16.48,0-15.76,0-31.51,0-47.26,0-9.13-.44-9.47-9.42-10.72a5.53,5.53,0,0,1-1.4-.7c3.11-2.12,37.62-2.24,41.33-.27-.24.82-.85,1-1.62,1.06-9,.89-10.09,2-10.12,10.77-.06,17-.08,34,0,51,.07,8.69.32,8.78,9,9.09,1.25,0,2.51,0,3.76,0,18.64.59,20.41-6.82,25.93-19.22.43-1-.6-2.94,1.53-2.67,1.47.19,1,1.74.88,2.66-.66,7.38-1.44,14.75-2.14,22.12-.14,1.49-1.08,1.6-2.21,1.6q-32.75,0-65.49-.1C773.84,360.61,773.47,360.05,773,359.68Z"/><path class="cls-3" d="M103.8,316.2c-14.52-.85-28.1-4.37-39.73-13.74-3.39-2.73-3.22-4.2.85-6.18,26.06-12.69,51.88-12.42,77.7.69,3.76,1.91,3.08,3.14.35,5.46C131.65,312,118.3,315.54,103.8,316.2Z"/><path class="cls-1" d="M165.74,483.07c0-14.11,0-26.95,0-39.79a5.44,5.44,0,0,1,1.83-4.28c16.11-14.75,25.75-33.05,30.36-54.43.07,1.55.18,3.09.22,4.64.05,1.79.05,3.58.05,5.36,0,20.38-.11,40.76.07,61.14a8.19,8.19,0,0,1-4.17,7.86C184.89,469.65,175.91,476,165.74,483.07Z"/><path class="cls-1" d="M7.46,384c2.63,9.23,5.05,19.67,10.23,29.18a97.63,97.63,0,0,0,18,23.9c1.86,1.79,3.19,3.59,3.16,6.44-.14,11.28,0,22.56-.07,33.83,0,1.14.67,2.82-.89,3.27-.72.22-1.88-.69-2.72-1.27-8.36-5.82-16.67-11.72-25.06-17.48a6.16,6.16,0,0,1-3-5.72c.1-22.56,0-45.11,0-67.67A39.48,39.48,0,0,1,7.46,384Z"/><path class="cls-3" d="M101.83,450.56a86.27,86.27,0,0,1-35.11-8.3c-2.86-1.36-3.4-2.43-.72-4.74,18.61-16,39.51-18.44,62.14-10.65a58.07,58.07,0,0,1,15.65,8.1c2.57,1.9,3.3,3.16-.25,5.11C130.71,447.14,117,450.38,101.83,450.56Z"/><path class="cls-1" d="M7.11,355.11c0-22.55,0-45.81,0-69.08a5.25,5.25,0,0,1,2.6-4.84q13-8.9,25.92-18.05c2.88-2,3.2-.64,3.19,2q-.06,15,0,30a7.12,7.12,0,0,1-2.49,5.61A94.86,94.86,0,0,0,8.66,350.56a25.59,25.59,0,0,1-1,3C7.38,354.3,7.14,355,7.11,355.11Z"/><path class="cls-1" d="M78.71,509.82,45.59,486.71c-1.37-.95-2.52-1.95-2.51-3.83,0-12.61,0-25.23,0-38.79,9,6.22,17.53,11.26,27,14.68,8.74,3.18,8.68,3.33,8.67,13Z"/><path class="cls-1" d="M165.78,260.6c10.86,7.59,20.5,14.34,30.16,21a4.55,4.55,0,0,1,2.25,4c0,22.77,0,45.54-.41,68.37-3.48-16-9.64-30.61-19.89-43.38-1.79-2.22-3.34-4.85-5.6-6.44-6-4.25-7-9.91-6.64-16.77C166.16,278.92,165.78,270.39,165.78,260.6Z"/><path class="cls-1" d="M161.39,444.73c0,13.93,0,26.88,0,39.83a3.25,3.25,0,0,1-1.51,2.7c-10.52,7.3-21,14.57-32.6,22.56,0-6.27,0-11.5,0-16.74q0-13.93,0-27.87c0-1.76-.36-3.86,1.92-4.49C140.61,457.55,150.79,451.82,161.39,444.73Z"/><path class="cls-1" d="M43.14,294.66V259.73c0-1.89,1.34-2.76,2.69-3.7,9.84-6.81,19.69-13.6,29.45-20.52,2.88-2,3.48-1.34,3.45,1.91-.1,12.16-.06,24.32,0,36.48,0,2.08-.57,3.14-2.71,3.8A100.77,100.77,0,0,0,43.14,294.66Z"/><path class="cls-1" d="M161.44,294.08a101.91,101.91,0,0,0-32-16.24c-1.94-.58-2.23-2-2.23-3.76,0-12.16,0-24.32.07-36.48,0-1-.54-2.28.8-2.79s1.9.7,2.74,1.29c9.21,6.46,18.38,13,27.64,19.37,1.72,1.19,3,2.28,3,4.62C161.4,271,161.44,281.84,161.44,294.08Z"/><path class="cls-3" d="M8.62,373.63c3.13-3.28,3.69-5.54-.29-7.44,4.2.64,8.1-1.75,11.13,1.24a3.69,3.69,0,0,1,0,4.49C16.67,374.61,13.13,372.38,8.62,373.63Z"/><path class="cls-3" d="M186.3,365.4c2.77,2.33,6.5,2.48,10.55,4.38-3.68,1.44-6.84,3.53-9.58,2.44-2.3-.9-.26-4.55-.89-6.91Z"/><path class="cls-1" d="M1007.77,358.89l.05.07Z"/><path class="cls-4" d="M298.31,441.85c-8.54-.22-16-3.34-22.64-8.59-1.84-1.45-1.87-2.75-.44-4.46,1.71-2.06,3.32-4.22,4.92-6.37s3-2.36,5-.12a35.06,35.06,0,0,0,12.4,9.17,16.17,16.17,0,0,0,9.47.83c3.27-.62,5.27-3,6.21-6.06s-.44-5.58-2.77-7.57c-2.78-2.39-6.29-3.37-9.58-4.75-3.45-1.45-6.95-2.81-10.41-4.24-6.77-2.79-11.9-7.16-11.58-15.07.34-8.48,5.23-14.22,12.81-17.67,4.92-2.24,10.07-2.16,15.27-1.15,4,.79,7.5,3.9,12.21,1.84,1.15-.5,5.29,1.36,2.56,5a20,20,0,0,0-2.09,3.12c-2.44,4.94-5.3,5.84-9.87,2.07a18.79,18.79,0,0,0-13.49-4.34c-3.14.23-5.54,1.56-6.49,4.7-1,3.39.93,5.69,3.6,7,5.47,2.61,11.13,4.86,16.76,7.13,7.17,2.9,13,6.83,13.53,15.54.5,9-4,15.36-11.14,20A24.78,24.78,0,0,1,298.31,441.85Z"/><path class="cls-4" d="M1048.41,418.42c0,3.22-.08,6.45,0,9.67.09,2.69-.91,5.82,3.1,7,1.54.47,1.2,2.42.93,3.83s-1.36,1.48-2.48,1.48c-5.19,0-10.38,0-15.57,0-1.39,0-2.52-.31-2.71-1.9s-.33-3.19,1.41-3.61c3.06-.75,2.53-3,2.54-5.1,0-6.8,0-13.6-.05-20.4-.07-4.92-2.21-6.77-7-6.33-6.29.57-9.35,3.95-9.36,10.37,0,4.84-.07,9.67,0,14.5,0,2.82-1.23,6.17,3.26,7.29,1.33.33,1.06,2.51.8,3.9s-1.58,1.18-2.61,1.18c-4.83,0-9.66.05-14.49,0-1.36,0-3.13.42-3.29-1.71-.11-1.35-.48-3.16,1.3-3.7,3.08-.93,2.8-3.36,2.81-5.64q0-18.54,0-37.06c0-1.93.08-3.55-2.53-4.58-2.83-1.11-2.31-5.22.67-6.3,4.7-1.72,9.49-3.19,14.27-4.68,1.24-.38,3-1.71,3.71.22.58,1.5.88,3.39-.87,4.89-2.27,1.92-3.82,13.45-2.31,15.69,1.26,1.87,2.52.5,3.66-.09,3-1.55,5.87-3.33,9.4-3.72,9-1,15,4,15.44,12.92.17,3.93,0,7.87,0,11.81Z"/><path class="cls-4" d="M915.69,419.88c0,3.22,0,6.44,0,9.66,0,2.29-.45,4.63,2.81,5.45,1.64.41,1.48,2.22,1.15,3.68s-1.48,1.95-2.85,1.71c-4.67-.84-9.74,2.06-14.17-2.21-1.44-1.38-3.7,1.46-5.62,2.26-8.21,3.42-17,.39-20.42-7.3-3.81-8.51-.43-17.18,8.24-20.78a35.74,35.74,0,0,1,12.55-2.41c2.28-.08,5.66,1,5.52-3-.12-3.25-2.3-5.1-5.62-5.36a11,11,0,0,0-10.18,4.84c-1.45,2-2.94,2.3-5,1.41-2.6-1.1-1.14-3-.83-4.55.23-1.22.8-2.37,1.11-3.58,1.19-4.61,1.84-9.72,8.73-5.19,1.22.81,3.77-.38,5.7-.69,11.64-1.81,18.74,4.14,18.9,15.89C915.74,413.09,915.7,416.49,915.69,419.88ZM903,422.31c-.57-2.25,1.47-5.86-2.53-6.5-4.66-.74-9,.51-11.65,4.8-2.17,3.51-2,7.35.89,10.37s6.43,3.09,9.83,1C903.08,429.78,902.79,426,903,422.31Z"/><path class="cls-4" d="M413.24,457.91c-2-.2-5.59.44-5.84-1.85-.33-2.92,1.17-6.21,2.47-9.07.69-1.53,2.47-.4,3.82.11,3.26,1.25,6,.3,8.05-2.43s3.46-5.16,1.55-8.77c-4.75-9-9.12-18.19-13.72-27.27-.92-1.81-1.52-4.05-4.64-3.26-1.66.41-2.22-1.5-2.67-2.84-.55-1.64.74-2.13,1.88-2.71,2.54-1.29,5.17-2.47,7.58-4,3.26-2,5.72-2.8,7,2.1.82,3.17,2.82,3.36,5,.95,4.49-5,10.07-5.67,16.2-4.05,2.63.7,5.22,1.24,7.83-.13,1.3-.68,2.31-.17,3.32.82,1.23,1.2.56,2.12,0,3.3-7.65,15.94-15.15,31.95-22.89,47.85C423.77,455.67,420.49,458,413.24,457.91Zm16.61-54.65c-5.57.17-7.8,3.73-5.59,8.39,1.53,3.21,3,6.44,4.48,9.66.51,1.08.78,2.56,2.31,2.55s1.73-1.6,2.26-2.64c1.27-2.53,2.4-5.14,3.59-7.72,3.9-8.41,3.9-8.41-5.24-9.93Z"/><path class="cls-4" d="M570.52,419.18c0,3-.08,6.08,0,9.12.09,2.68-1,5.87,3.12,6.93,1.3.33,1.12,2.1,1,3.34a2.11,2.11,0,0,1-2.79,1.8c-4.63-.93-9.82,2.29-14.06-2.25-1.17-1.25-2.82.86-4.18,1.57-6.5,3.38-13.69,2.72-18.52-1.72a15.72,15.72,0,0,1-3.49-18.24c3.53-7.72,10.95-8.4,18-9.66,1-.18,2.16,0,3.21-.12,1.91-.27,4.87,1.08,5.08-2.25s-1.6-5.47-4.92-6a10.43,10.43,0,0,0-10.46,4.07c-1.58,2-3.1,3.55-5.74,2s-.5-3.47-.18-5.19c.3-1.57,1-3.06,1.36-4.63,1-4.21,2.79-6.53,7.23-3.31,1.34,1,2.74.06,4.11-.25,13.55-3.06,21.23,3,21.26,16.79C570.54,413.81,570.53,416.49,570.52,419.18Zm-12.37,3.25c-.37-2.31.66-5.37-1.87-6.37-3.49-1.38-7.1-.32-10.11,1.93-3.76,2.81-4.84,6.72-2.93,10.92,1.79,3.91,5.33,5.22,9.43,4C557.91,431.25,557.74,426.6,558.15,422.43Z"/><path class="cls-4" d="M675,421v8c0,2.64-.63,5.47,3.48,5.87,1.8.18,1.63,2.12,1.52,3.54-.12,1.63-1.37,1.92-2.7,1.92-5.55,0-11.1,0-16.65,0-1.36,0-2.57-.31-2.74-1.91-.15-1.41-.4-3.16,1.46-3.55,2.72-.58,2.62-2.51,2.63-4.51q0-9.41,0-18.8c0-2.17,0-3.84-3.08-4.49-3.41-.7-4.43-3.29-1.49-6.2a19.67,19.67,0,0,0,1.44-1.59c4.85-5.92,4.9-6,11.44-1.54,1.67,1.14,2.82,1.33,4.06-.3,2.69-3.51,5.89-4.2,10.38-3.39,8.63,1.56,8.53,1.1,4.77,9.44-1.52,3.37-2.63,4.65-6.56,2.74-4.85-2.36-7.75,0-8,5.57C674.94,415,675,418,675,421Z"/><path class="cls-4" d="M786.74,439.25c-3.22.48-7,2.13-11.13,0-2.45-1.25-3.65-2-1-3.76,2.4-1.63,2.29-3.74,2.27-6.09-.05-6.79,0-13.58,0-20.37,0-2.66.37-5.12-2.86-6.75-2.07-1.05-1.94-3.31.7-4.36,1-.39,2.15-.41,3.08-.88,1.54-.78,3.87-1,4.32-2.75.63-2.48-2.18-2.31-3.48-3.24-3.46-2.49-4.68-6.64-2.32-9.77s5.33-4.83,9.27-2.62c3.75,2.09,5.05,6.43,2.62,10-1.5,2.23-3.15,3.87.07,6,.52.34.2,2,.2,3.09,0,9.47,0,18.94,0,28.41,0,3.59-1.27,7.64,3.18,9.89a1.45,1.45,0,0,1,.3,2.33C790.71,439.71,789.12,439.85,786.74,439.25Z"/><path class="cls-1" d="M903,422.31c-.17,3.65.12,7.47-3.46,9.67-3.4,2.09-7.06,1.91-9.83-1s-3.06-6.86-.89-10.37c2.63-4.29,7-5.54,11.65-4.8C904.43,416.45,902.39,420.06,903,422.31Z"/><path class="cls-1" d="M429.85,403.26l1.81.31c9.14,1.52,9.14,1.52,5.24,9.93-1.19,2.58-2.32,5.19-3.59,7.72-.53,1-.69,2.64-2.26,2.64s-1.8-1.47-2.31-2.55c-1.5-3.22-2.95-6.45-4.48-9.66C422.05,407,424.28,403.43,429.85,403.26Z"/><path class="cls-1" d="M558.15,422.43c-.41,4.17-.24,8.82-5.48,10.44-4.1,1.26-7.64-.05-9.43-4-1.91-4.2-.83-8.11,2.93-10.92,3-2.25,6.62-3.31,10.11-1.93C558.81,417.06,557.78,420.12,558.15,422.43Z"/></svg>