<svg id="Layer_1" data-name="Layer 1" xmlns="http://www.w3.org/2000/svg" viewBox="0 0 1106.13 743.43"><defs><style>.cls-1{fill:#00a551;}.cls-1,.cls-3,.cls-4{fill-rule:evenodd;}.cls-2,.cls-3{fill:#fff;}.cls-4{fill:#00adee;}.cls-5{fill:#231f20;}</style></defs><title>bank-kalbar</title><path class="cls-1" d="M31.17,457l-28-23V303.86l28-20.94Zm30.25,24.89L35.71,460.68V279.53l25.71-19.24Zm65.05-198.92,28,20.94V433.93l-28,23ZM96.21,260.29l25.72,19.24V460.68L96.21,481.84Zm-17.39-13,12.86,9.62V485.57L78.82,496.15,66,485.57V256.89Z"/><circle class="cls-2" cx="78.48" cy="368.73" r="75.3" transform="translate(-297.06 401.8) rotate(-83.02)"/><path class="cls-3" d="M143.52,372.25a65.22,65.22,0,0,1-130.25,0ZM78.39,303.51a65.38,65.38,0,0,1,65.11,61.38H13.29A65.36,65.36,0,0,1,78.39,303.51Z"/><path class="cls-4" d="M143.58,372.25a65.22,65.22,0,0,1-130.25,0ZM78.45,303.51a65.38,65.38,0,0,1,65.11,61.38H13.35A65.36,65.36,0,0,1,78.45,303.51Z"/><path class="cls-4" d="M143.59,364.89h2.64l8.22,3.35-8.22,4h-2.62c.06-1.16.09-2.34.09-3.52S143.66,366.16,143.59,364.89Zm-140.09,0h9.7q-.12,1.91-.12,3.84c0,1.18,0,2.36.1,3.52H3.5l11.77-4Z"/><path class="cls-3" d="M44.79,312.67c21.69,12.86,45.36,12.93,66.55-.43l5.15,3.43c-20.3,17.49-54.66,18.41-77.29,1Z"/><path class="cls-3" d="M24.92,331.56c31.49,21.1,73.92,20.8,106.15-1a41.29,41.29,0,0,1,4.56,7.21c-28.83,21.93-79.88,23.77-115.14,1A68.26,68.26,0,0,1,24.92,331.56Z"/><path class="cls-3" d="M44.79,424.89c21.69-12.87,45.36-12.93,66.55.43l5.15-3.43c-20.3-17.49-54.66-18.41-77.29-1Z"/><path class="cls-3" d="M24.92,405.91c31.49-21.1,73.92-20.8,106.15,1a41.29,41.29,0,0,0,4.56-7.21c-28.83-21.93-79.88-23.77-115.14-1A68.26,68.26,0,0,0,24.92,405.91Z"/><path class="cls-5" d="M226.59,342.32q11.83,2.64,16.61,6.39a16.72,16.72,0,0,1,6.87,13.84q0,9-7.54,14.83-9.25,7.1-26.91,7.1H173.39v-2.17q5.76,0,7.82-1a6.18,6.18,0,0,0,2.88-2.67q.82-1.64.82-8.09v-51.6q0-6.45-.82-8.12a6,6,0,0,0-2.91-2.67c-1.39-.66-4-1-7.79-1V305h39.84q14.28,0,20.23,2.44a20.84,20.84,0,0,1,9.37,7.27A17.45,17.45,0,0,1,246.27,325a14.3,14.3,0,0,1-4.35,10.23Q237.56,339.68,226.59,342.32Zm-22.31,3v25.5l-.06,2.94a6.26,6.26,0,0,0,1.69,4.77,6.92,6.92,0,0,0,5,1.62,19.9,19.9,0,0,0,9-2.08,14.6,14.6,0,0,0,6.35-6,17.83,17.83,0,0,0,2.2-8.83,18.94,18.94,0,0,0-2.69-10,14.35,14.35,0,0,0-7.42-6.18Q213.65,345.24,204.28,345.31Zm0-4.58q8.7,0,12.84-1.88a14.33,14.33,0,0,0,6.35-5.27,18.27,18.27,0,0,0,0-17.33,13.74,13.74,0,0,0-6.23-5.13q-4-1.75-13-1.7Z"/><path class="cls-5" d="M306.7,361.84H277.34l-3.49,7.74a16.53,16.53,0,0,0-1.72,6.39A5.27,5.27,0,0,0,275,380.9c1.11.63,3.82,1.09,8.15,1.41v2.17H255.46v-2.17a12.62,12.62,0,0,0,7.36-3.55q2.87-2.91,7.11-12l29.72-63.45h1.17l30,65.21q4.29,9.25,7,11.66a9.86,9.86,0,0,0,5.88,2.12v2.17H303.51v-2.17h1.66c3.23,0,5.49-.43,6.8-1.29a3.1,3.1,0,0,0,1.35-2.7,6.78,6.78,0,0,0-.37-2.17q-.12-.52-1.84-4.4Zm-2.08-4.34-12.38-27.38L279.49,357.5Z"/><path class="cls-5" d="M376.39,305l41,49.32V320.09q0-7.15-2.14-9.67-2.94-3.41-9.87-3.29V305h27.46v2.17c-3.51.43-5.88,1-7.08,1.67a6.82,6.82,0,0,0-2.82,3.35q-1,2.31-1,7.94V386.3h-2.08l-56.21-66.21v50.55q0,6.86,3.28,9.26a12.34,12.34,0,0,0,7.51,2.41h2v2.17H346.91v-2.17q6.85-.06,9.56-2.7t2.7-9V314.52l-1.78-2.11a15.87,15.87,0,0,0-4.66-4.16,14.49,14.49,0,0,0-5.82-1.12V305Z"/><path class="cls-5" d="M488.06,335.4l29.24,35q6.19,7.39,10.66,10a13.56,13.56,0,0,0,6.87,1.88v2.17H491.56v-2.17q4.1-.36,5.3-1.23a2.62,2.62,0,0,0,1.2-2.17c0-1.65-1.88-4.73-5.64-9.27l-19.07-22.93-3.06,2.47v21.69q0,6.22.73,7.74a6.08,6.08,0,0,0,2.82,2.61q2.09,1.09,6.68,1.09v2.17H438.6v-2.17h2.76a11.92,11.92,0,0,0,5.82-1.23,5.43,5.43,0,0,0,2.45-2.82q.67-1.41.68-7.39V318.56q0-6.09-.68-7.62a6,6,0,0,0-2.72-2.66,11.46,11.46,0,0,0-5.55-1.15H438.6V305H480v2.17a13.9,13.9,0,0,0-6.43,1.18,5.68,5.68,0,0,0-2.52,2.75q-.74,1.47-.73,7.5v24.75l30.83-23.87q6.44-5,6.44-8c0-1.49-.89-2.66-2.64-3.52q-1.35-.65-6.68-.82V305h32.42v2.17a19,19,0,0,0-6.83,1.5q-2.49,1.2-11.43,8.12Z"/><path class="cls-5" d="M617.08,335.4l29.24,35q6.2,7.39,10.66,10a13.56,13.56,0,0,0,6.87,1.88v2.17H620.58v-2.17c2.74-.24,4.5-.65,5.3-1.23a2.61,2.61,0,0,0,1.19-2.17c0-1.65-1.87-4.73-5.63-9.27l-19.07-22.93-3.06,2.47v21.69c0,4.15.24,6.73.74,7.74a6,6,0,0,0,2.81,2.61q2.08,1.09,6.69,1.09v2.17H567.62v-2.17h2.76a11.92,11.92,0,0,0,5.82-1.23,5.43,5.43,0,0,0,2.45-2.82q.68-1.41.68-7.39V318.56q0-6.09-.68-7.62a6,6,0,0,0-2.72-2.66,11.46,11.46,0,0,0-5.55-1.15h-2.76V305H609v2.17a13.9,13.9,0,0,0-6.43,1.18,5.61,5.61,0,0,0-2.51,2.75c-.5,1-.74,3.48-.74,7.5v24.75l30.83-23.87q6.43-5,6.43-8c0-1.49-.87-2.66-2.63-3.52q-1.35-.65-6.68-.82V305h32.42v2.17a19,19,0,0,0-6.83,1.5q-2.49,1.2-11.43,8.12Z"/><path class="cls-5" d="M714.66,361.84H685.3l-3.49,7.74a16.53,16.53,0,0,0-1.72,6.39,5.27,5.27,0,0,0,2.82,4.93c1.1.63,3.82,1.09,8.15,1.41v2.17H663.42v-2.17a12.65,12.65,0,0,0,7.36-3.55q2.88-2.91,7.11-12l29.72-63.45h1.17l30,65.21q4.29,9.25,7,11.66a9.91,9.91,0,0,0,5.89,2.12v2.17H711.47v-2.17h1.66c3.23,0,5.49-.43,6.8-1.29a3.1,3.1,0,0,0,1.35-2.7,6.78,6.78,0,0,0-.37-2.17q-.12-.52-1.83-4.4Zm-2.08-4.34L700.2,330.12,687.45,357.5Z"/><path class="cls-5" d="M832.34,356.56l-3.12,27.92h-73.8v-2.17h2.76a11.92,11.92,0,0,0,5.82-1.23,5.43,5.43,0,0,0,2.45-2.82q.67-1.41.68-7.39V318.56q0-6.09-.68-7.62a6,6,0,0,0-2.73-2.66,11.42,11.42,0,0,0-5.54-1.15h-2.76V305h44.31v2.17h-3.61a12,12,0,0,0-5.83,1.23,5.75,5.75,0,0,0-2.51,2.82q-.67,1.41-.67,7.38v50.67q0,6.11.73,7.77a4.79,4.79,0,0,0,2.88,2.49c1,.35,3.5.53,7.42.53h6.93a24.29,24.29,0,0,0,11-2.23,20.16,20.16,0,0,0,7.63-7q3.22-4.81,6.1-14.2Z"/><path class="cls-5" d="M892.65,342.32q11.83,2.64,16.61,6.39a16.72,16.72,0,0,1,6.87,13.84q0,9-7.54,14.83-9.26,7.1-26.91,7.1H839.45v-2.17q5.76,0,7.82-1a6.18,6.18,0,0,0,2.88-2.67q.83-1.64.82-8.09v-51.6q0-6.45-.82-8.12a6,6,0,0,0-2.91-2.67c-1.4-.66-4-1-7.79-1V305h39.84q14.28,0,20.23,2.44a20.84,20.84,0,0,1,9.37,7.27A17.45,17.45,0,0,1,912.33,325,14.27,14.27,0,0,1,908,335.19Q903.62,339.68,892.65,342.32Zm-22.31,3v25.5l-.06,2.94a6.26,6.26,0,0,0,1.69,4.77,6.92,6.92,0,0,0,5,1.62,19.93,19.93,0,0,0,9-2.08,14.6,14.6,0,0,0,6.35-6,17.83,17.83,0,0,0,2.2-8.83,18.94,18.94,0,0,0-2.69-10,14.38,14.38,0,0,0-7.42-6.18C881.29,345.83,876.6,345.27,870.34,345.31Zm0-4.58c5.8,0,10.09-.62,12.84-1.88a14.33,14.33,0,0,0,6.35-5.27,18.27,18.27,0,0,0,0-17.33,13.77,13.77,0,0,0-6.22-5.13q-4.05-1.75-13-1.7Z"/><path class="cls-5" d="M972.76,361.84H943.4l-3.49,7.74a16.53,16.53,0,0,0-1.72,6.39A5.27,5.27,0,0,0,941,380.9c1.1.63,3.82,1.09,8.15,1.41v2.17H921.52v-2.17a12.65,12.65,0,0,0,7.36-3.55q2.88-2.91,7.11-12l29.72-63.45h1.17l30,65.21q4.29,9.25,7,11.66a9.86,9.86,0,0,0,5.88,2.12v2.17H969.57v-2.17h1.66q4.85,0,6.8-1.29a3.1,3.1,0,0,0,1.35-2.7,6.78,6.78,0,0,0-.37-2.17q-.12-.52-1.83-4.4Zm-2.08-4.34L958.3,330.12,945.55,357.5Z"/><path class="cls-5" d="M1044.53,348.24v22.28q0,6.45.83,8.12a5.93,5.93,0,0,0,2.91,2.67q2.09,1,7.79,1v2.17h-42.54v-2.17q5.76,0,7.82-1a6.08,6.08,0,0,0,2.88-2.67q.83-1.64.82-8.09v-51.6q0-6.45-.82-8.12a6,6,0,0,0-2.92-2.67c-1.38-.66-4-1-7.78-1V305h38.62q15.06,0,22.06,2a22.35,22.35,0,0,1,11.4,7.37A19.2,19.2,0,0,1,1090,326.9a18.41,18.41,0,0,1-6.63,14.54q-4.23,3.63-11.83,5.45l20,26.91a40.59,40.59,0,0,0,5.58,6.51,10.66,10.66,0,0,0,5.82,2v2.17h-26.17L1050,348.24Zm0-39v34.84h3.5q8.52,0,12.75-1.5a12.64,12.64,0,0,0,6.65-5.39,19.15,19.15,0,0,0,2.42-10.18q0-9.09-4.45-13.43t-14.31-4.34Z"/><path class="cls-5" d="M182,439.6V410.09h7.57a21.72,21.72,0,0,1,5.62.44,6.32,6.32,0,0,1,3.37,2.89,11,11,0,0,1,1.35,5.75,11.82,11.82,0,0,1-.78,4.57,7.73,7.73,0,0,1-2,2.9,6.21,6.21,0,0,1-2.44,1.41,21.65,21.65,0,0,1-4.9.42H186.7V439.6Zm4.72-24.52v8.38h2.58A9.8,9.8,0,0,0,193,423a3.32,3.32,0,0,0,1.47-1.45,4.7,4.7,0,0,0,.54-2.29,4.47,4.47,0,0,0-.75-2.66,3.19,3.19,0,0,0-1.9-1.31,18.56,18.56,0,0,0-3.4-.2Z"/><path class="cls-5" d="M209,439.6V415.08h-6.95v-5h18.59v5h-6.92V439.6Z"/><path class="cls-5" d="M220.07,439.6v-5.66h4.49v5.66Z"/><path class="cls-5" d="M238.28,410.09h9.35a21.1,21.1,0,0,1,4.14.29,5.37,5.37,0,0,1,2.44,1.22,7.1,7.1,0,0,1,1.79,2.47,8,8,0,0,1,.72,3.45,8.21,8.21,0,0,1-.88,3.8,6,6,0,0,1-2.41,2.6,6.21,6.21,0,0,1,3.29,2.68,8.34,8.34,0,0,1,1.15,4.44,10.74,10.74,0,0,1-.74,3.92,7.74,7.74,0,0,1-2,3,5.88,5.88,0,0,1-3.17,1.4c-.78.11-2.68.18-5.69.2h-8ZM243,415v6.83h3.1a31.16,31.16,0,0,0,3.43-.11,2.83,2.83,0,0,0,1.9-1.05,3.61,3.61,0,0,0,.7-2.31,3.78,3.78,0,0,0-.6-2.22,2.53,2.53,0,0,0-1.78-1c-.47-.07-1.81-.1-4-.1Zm0,11.74v7.89h4.37a17.14,17.14,0,0,0,3.24-.18,2.79,2.79,0,0,0,1.71-1.18,4.2,4.2,0,0,0,.67-2.51,4.62,4.62,0,0,0-.51-2.25,3,3,0,0,0-1.48-1.35,12.91,12.91,0,0,0-4.19-.42Z"/><path class="cls-5" d="M283,439.6h-5.14l-2-6.7h-9.35l-1.93,6.7h-5l9.11-29.51h5Zm-8.7-11.67L271,417l-3.16,10.95Z"/><path class="cls-5" d="M285.5,439.6V410.09h4.6l9.57,19.71V410.09h4.39V439.6h-4.74l-9.43-19.24V439.6Z"/><path class="cls-5" d="M309.11,439.6V410.09h4.73V423.2l9.54-13.11h6.35l-8.81,11.49,9.29,18h-6.12l-6.42-13.85-3.83,4.93v8.92Z"/><path class="cls-5" d="M341.72,439.6V410.09h7.58a21.77,21.77,0,0,1,5.62.44,6.32,6.32,0,0,1,3.37,2.89,11,11,0,0,1,1.35,5.75,11.82,11.82,0,0,1-.78,4.57,7.73,7.73,0,0,1-2,2.9,6.24,6.24,0,0,1-2.45,1.41,21.55,21.55,0,0,1-4.89.42h-3.08V439.6Zm4.73-24.52v8.38H349a9.71,9.71,0,0,0,3.73-.47,3.34,3.34,0,0,0,1.48-1.45,4.69,4.69,0,0,0,.53-2.29,4.54,4.54,0,0,0-.74-2.66,3.21,3.21,0,0,0-1.91-1.31,18.35,18.35,0,0,0-3.39-.2Z"/><path class="cls-5" d="M363.52,439.6V410.09h17.34v5H368.24v6.54H380v5H368.24v8h13.07v5Z"/><path class="cls-5" d="M385.25,439.6V410.09h7.06l4.25,20.13,4.19-20.13h7.09V439.6h-4.39V416.37l-4.64,23.23h-4.55l-4.62-23.23V439.6Z"/><path class="cls-5" d="M412.54,410.09h9.35a21,21,0,0,1,4.14.29,5.32,5.32,0,0,1,2.44,1.22,7.12,7.12,0,0,1,1.8,2.47,8,8,0,0,1,.72,3.45,8.21,8.21,0,0,1-.89,3.8,6.07,6.07,0,0,1-2.4,2.6A6.24,6.24,0,0,1,431,426.6a8.43,8.43,0,0,1,1.15,4.44,10.55,10.55,0,0,1-.75,3.92,7.62,7.62,0,0,1-2,3,5.91,5.91,0,0,1-3.17,1.4c-.78.11-2.68.18-5.69.2h-8Zm4.73,4.91v6.83h3.09a31,31,0,0,0,3.43-.11,2.83,2.83,0,0,0,1.91-1.05,3.61,3.61,0,0,0,.69-2.31,3.86,3.86,0,0,0-.59-2.22,2.55,2.55,0,0,0-1.78-1c-.47-.07-1.82-.1-4-.1Zm0,11.74v7.89h4.37a17.14,17.14,0,0,0,3.24-.18,2.79,2.79,0,0,0,1.71-1.18,4.27,4.27,0,0,0,.66-2.51,4.62,4.62,0,0,0-.51-2.25,3,3,0,0,0-1.47-1.35,13,13,0,0,0-4.19-.42Z"/><path class="cls-5" d="M457.22,439.6h-5.14l-2-6.7h-9.35l-1.93,6.7h-5l9.11-29.51h5Zm-8.7-11.67L445.3,417l-3.16,10.95Z"/><path class="cls-5" d="M459.77,439.6V410.09h4.59l9.58,19.71V410.09h4.38V439.6h-4.74l-9.43-19.24V439.6Z"/><path class="cls-5" d="M494.2,428.75v-5h10.18v11.76a14.09,14.09,0,0,1-10,4.57,10.8,10.8,0,0,1-6.4-1.94,11.73,11.73,0,0,1-4.09-5.56,21.88,21.88,0,0,1-1.38-7.87,20.87,20.87,0,0,1,1.53-8.19,12,12,0,0,1,4.49-5.5,10.1,10.1,0,0,1,5.6-1.46,9.51,9.51,0,0,1,6.8,2.3,11,11,0,0,1,3.15,6.37l-4.69,1.11a6.53,6.53,0,0,0-1.85-3.43,4.86,4.86,0,0,0-3.41-1.26,5.8,5.8,0,0,0-4.92,2.47c-1.22,1.65-1.83,4.11-1.83,7.35,0,3.5.61,6.13,1.85,7.88a5.68,5.68,0,0,0,4.85,2.63,6.71,6.71,0,0,0,3-.73,10.23,10.23,0,0,0,2.56-1.78v-3.75Z"/><path class="cls-5" d="M508.7,410.09h4.72v16a40.94,40.94,0,0,0,.18,4.94,5.1,5.1,0,0,0,1.44,2.91,4.31,4.31,0,0,0,3.12,1.09,4,4,0,0,0,3-1,4.33,4.33,0,0,0,1.23-2.54,41.33,41.33,0,0,0,.21-5V410.09h4.72v15.5a50.94,50.94,0,0,1-.38,7.51,9.43,9.43,0,0,1-1.42,3.71,7.39,7.39,0,0,1-2.75,2.4,9.7,9.7,0,0,1-4.5.9,10.58,10.58,0,0,1-5.08-1,7.74,7.74,0,0,1-2.73-2.53,9.34,9.34,0,0,1-1.33-3.28,44.92,44.92,0,0,1-.46-7.49Z"/><path class="cls-5" d="M532.37,439.6V410.09H537l9.58,19.71V410.09h4.38V439.6h-4.74l-9.43-19.24V439.6Z"/><path class="cls-5" d="M577,439.6h-5.13l-2-6.7h-9.35l-1.93,6.7h-5l9.11-29.51h5Zm-8.69-11.67L565.1,417l-3.16,10.95Z"/><path class="cls-5" d="M579.57,439.6V410.09h4.59l9.57,19.71V410.09h4.39V439.6h-4.74L584,420.36V439.6Z"/><path class="cls-5" d="M612.18,410.09h8.63a13.67,13.67,0,0,1,4.45.56,7.82,7.82,0,0,1,3.53,2.72,13.91,13.91,0,0,1,2.23,4.78,27.15,27.15,0,0,1,.77,7,24.05,24.05,0,0,1-.72,6.28,13.91,13.91,0,0,1-2.51,5.21,8.08,8.08,0,0,1-3.32,2.36,11.41,11.41,0,0,1-4.18.62h-8.88Zm4.72,5v19.55h3.53a10.14,10.14,0,0,0,2.85-.28,4.19,4.19,0,0,0,1.91-1.23,6.94,6.94,0,0,0,1.24-2.85,24.07,24.07,0,0,0,.47-5.41,22,22,0,0,0-.47-5.25,7.4,7.4,0,0,0-1.34-2.86,4.31,4.31,0,0,0-2.19-1.39,17,17,0,0,0-3.88-.28Z"/><path class="cls-5" d="M656.88,439.6h-5.14l-2-6.7h-9.35l-1.93,6.7h-5l9.11-29.51h5Zm-8.69-11.67L645,417l-3.15,10.95Z"/><path class="cls-5" d="M659.39,439.6V410.09h17.34v5H664.11v6.54h11.74v5H664.11v8h13.07v5Z"/><path class="cls-5" d="M681.19,439.6V410.09h9.95a13.71,13.71,0,0,1,5.44.79,5.86,5.86,0,0,1,2.72,2.83,10.13,10.13,0,0,1,1,4.65,9.21,9.21,0,0,1-1.54,5.49,7,7,0,0,1-4.63,2.73,11.9,11.9,0,0,1,2.53,2.47,35.39,35.39,0,0,1,2.69,4.8l2.85,5.75h-5.64l-3.42-6.42a42.43,42.43,0,0,0-2.49-4.34,3.69,3.69,0,0,0-1.42-1.22,6,6,0,0,0-2.37-.34h-1V439.6Zm4.73-17h3.49a14.43,14.43,0,0,0,4.24-.36A2.68,2.68,0,0,0,695,421a4.6,4.6,0,0,0,.48-2.21,4.16,4.16,0,0,0-.63-2.41,2.78,2.78,0,0,0-1.78-1.16,33.75,33.75,0,0,0-3.45-.1h-3.68Z"/><path class="cls-5" d="M725.87,439.6h-5.14l-2-6.7h-9.35l-1.93,6.7h-5l9.11-29.51h5Zm-8.7-11.67L714,417l-3.16,10.95Z"/><path class="cls-5" d="M728.39,439.6V410.09h4.72V421.7h9.25V410.09h4.73V439.6h-4.73V426.7h-9.25v12.9Z"/><path class="cls-5" d="M761.11,439.6V410.09h4.72V423.2l9.54-13.11h6.35l-8.81,11.49,9.29,18h-6.11l-6.43-13.85-3.83,4.93v8.92Z"/><path class="cls-5" d="M805.73,439.6H800.6l-2.05-6.7H789.2l-1.93,6.7h-5l9.12-29.51h5ZM797,427.93,793.82,417l-3.16,10.95Z"/><path class="cls-5" d="M808.37,439.6V410.33h4.72v24.3h11.74v5Z"/><path class="cls-5" d="M828.05,439.6V410.09h4.73V439.6Z"/><path class="cls-5" d="M837.21,439.6V410.09h7.07l4.24,20.13,4.2-20.13h7.08V439.6h-4.39V416.37l-4.64,23.23h-4.55l-4.62-23.23V439.6Z"/><path class="cls-5" d="M885.58,439.6h-5.13l-2.05-6.7h-9.35l-1.93,6.7h-5l9.11-29.51h5Zm-8.69-11.67L873.66,417l-3.15,10.95Z"/><path class="cls-5" d="M888.13,439.6V410.09h4.6l9.57,19.71V410.09h4.39V439.6H902l-9.43-19.24V439.6Z"/><path class="cls-5" d="M917,439.6V415.08H910v-5H928.6v5h-6.93V439.6Z"/><path class="cls-5" d="M950.31,439.6h-5.14l-2-6.7h-9.35l-1.93,6.7h-5L936,410.09h5Zm-8.69-11.67L938.39,417l-3.16,10.95Z"/><path class="cls-5" d="M952.86,439.6V410.09h4.6L967,429.8V410.09h4.39V439.6h-4.74l-9.43-19.24V439.6Z"/><path class="cls-5" d="M985.5,410.09h9.36a21,21,0,0,1,4.13.29,5.32,5.32,0,0,1,2.44,1.22,7.12,7.12,0,0,1,1.8,2.47,8,8,0,0,1,.72,3.45,8.21,8.21,0,0,1-.89,3.8,6.07,6.07,0,0,1-2.4,2.6,6.24,6.24,0,0,1,3.29,2.68,8.34,8.34,0,0,1,1.15,4.44,10.74,10.74,0,0,1-.74,3.92,7.85,7.85,0,0,1-2,3,5.91,5.91,0,0,1-3.17,1.4c-.79.11-2.69.18-5.69.2h-8Zm4.73,4.91v6.83h3.09a31,31,0,0,0,3.43-.11,2.83,2.83,0,0,0,1.91-1.05,3.61,3.61,0,0,0,.69-2.31,3.86,3.86,0,0,0-.59-2.22,2.55,2.55,0,0,0-1.78-1c-.47-.07-1.82-.1-4-.1Zm0,11.74v7.89h4.37a17.14,17.14,0,0,0,3.24-.18,2.79,2.79,0,0,0,1.71-1.18,4.27,4.27,0,0,0,.66-2.51,4.51,4.51,0,0,0-.51-2.25,3,3,0,0,0-1.47-1.35,12.91,12.91,0,0,0-4.19-.42Z"/><path class="cls-5" d="M1030.18,439.6H1025l-2-6.7h-9.35l-1.93,6.7h-5l9.11-29.51h5Zm-8.7-11.67L1018.26,417l-3.16,10.95Z"/><path class="cls-5" d="M1032.7,439.6V410.09h9.94a13.77,13.77,0,0,1,5.45.79,6,6,0,0,1,2.72,2.83,10.26,10.26,0,0,1,1,4.65,9.21,9.21,0,0,1-1.55,5.49,7,7,0,0,1-4.63,2.73,11.45,11.45,0,0,1,2.53,2.47,35.39,35.39,0,0,1,2.69,4.8l2.86,5.75h-5.65l-3.42-6.42a42.43,42.43,0,0,0-2.49-4.34,3.62,3.62,0,0,0-1.42-1.22,6,6,0,0,0-2.37-.34h-1V439.6Zm4.72-17h3.49a14.56,14.56,0,0,0,4.25-.36,2.7,2.7,0,0,0,1.32-1.25,4.6,4.6,0,0,0,.48-2.21,4.16,4.16,0,0,0-.63-2.41,2.75,2.75,0,0,0-1.78-1.16,33.75,33.75,0,0,0-3.45-.1h-3.68Z"/><path class="cls-5" d="M1077.37,439.6h-5.14l-2-6.7h-9.35l-1.93,6.7h-5l9.11-29.51h5Zm-8.7-11.67L1065.45,417l-3.16,10.95Z"/><path class="cls-5" d="M1082.71,439.6V415.08h-6.93v-5h18.58v5h-6.92V439.6Z"/></svg>