<svg id="Layer_1" data-name="Layer 1" xmlns="http://www.w3.org/2000/svg" viewBox="0 0 1106.13 743.43"><defs><style>.cls-1{fill:#406eb1;}.cls-2{fill:#19a14e;}</style></defs><title>bank-kalsel</title><path class="cls-1" d="M1.8,341.05c9.64.06,19.27.19,28.91.13,2.36,0,3.17.61,3.15,3.07-.11,17.44.16,34.88-.8,52.67,3.51-2,6.69-4.22,10.4-5.24,15.38-4.25,30.22-4.07,43.37,6.38,7,5.59,10.67,13.39,12.37,22,3.22,16.38,3.12,32.65-3.47,48.28C89.36,483.5,77.24,491,61.3,492.42c-14.58,1.26-28.73-1.42-42.6-5.9-2.34-.75-2.46-2.1-2.46-4.08,0-43.28,0-86.57.1-129.85,0-2.92-.67-4.44-3.68-4.53C9,348,5.51,346.4,1.8,346.56ZM33.7,443c0,11.93.08,23.87-.06,35.81,0,2.56.85,3.25,3.24,3.61a135,135,0,0,0,15.42,1C66.73,484,75.2,477.8,79,463.87a93.18,93.18,0,0,0,1.3-42.56c-2.34-12.07-9.16-18.75-20.94-20.58-8-1.25-16,.3-23.76,2.37-2,.52-1.9,1.88-1.9,3.43Q33.73,424.79,33.7,443Z"/><path class="cls-1" d="M613,233.39c.8,34.61-28.33,66.9-66.83,66.93A67.35,67.35,0,0,1,478.81,233c0-36.93,30.2-66.82,67.25-67C583.62,165.74,614.1,197.64,613,233.39Zm-77.59,7.94a29.39,29.39,0,1,0-.19-58.77,29.39,29.39,0,1,0,.19,58.77Z"/><path class="cls-1" d="M349,441.75l38.85-41.88a21.69,21.69,0,0,0-7.66-2.46c-2.54-.46-2.12-2.2-2.14-3.9,0-2.12,1.53-1.61,2.67-1.62q14.82,0,29.62,0c1.31,0,2.87-.41,2.8,1.88-.05,1.67.11,3.27-2.19,3.42-.11,0-.22.08-.33.08-7.81-.05-13,4.39-17.89,9.86-5.72,6.41-11.89,12.42-17.95,18.52-1.51,1.51-1.94,2.58-.6,4.6,11.2,17,22.27,34.16,33.36,51.27,2.23,3.45,6.13,2.47,9.24,3.56,1.37.47,2.51.51,2.6,2.45.11,2.33-.48,3.15-3,3.12-11.59-.14-23.19-.05-34.78-.08-1.26,0-2.91.56-2.84-1.79.05-1.78-.16-3.36,2.36-3.74a45.64,45.64,0,0,0,6.58-2c-4.52-7.13-8.87-14-13.26-20.93-4-6.29-8.09-12.5-12-18.85-1.17-1.91-1.89-2.19-3.43-.42-3,3.47-6.15,6.81-9.29,10.15a5.36,5.36,0,0,0-1.54,4c.08,7.81.12,15.61,0,23.42,0,2.19.75,3.09,2.8,3.42,1.69.27,3.31,1.09,5,1.21,2.66.19,2.73,1.77,2.68,3.79-.06,2.65-2,1.7-3.24,1.71-11.48.06-23,0-34.44,0-1.43,0-3,.44-2.95-2.05.05-2,.35-3.09,2.67-3.46,3.24-.5,7.52-.18,9.29-2.55,1.51-2,.52-5.95.52-9q0-60.62.08-121.23c0-2.73-.7-3.84-3.35-4.14-3.07-.34-6.08-1.2-9.15-1.46-2.54-.21-2.08-1.79-2.18-3.37-.14-2.14,1.23-2,2.68-2,8.84,0,17.68.11,26.52-.06,2.7-.05,3.19.88,3.19,3.36q-.12,46.67-.05,93.33v3.61Z"/><path class="cls-2" d="M658.29,441.86l39.25-42.33c-2.9-.79-5.27-1.65-7.71-2.06-2.62-.43-2.47-2.12-2.42-4,.06-2.45,1.9-1.54,3-1.55,9.64-.07,19.29-.06,28.94,0,1.34,0,3.08-.63,3.11,1.92,0,2-.33,3.35-2.6,3.49-.68,0-1.36.2-2,.26a18.83,18.83,0,0,0-12.94,6.67c-6.67,7.42-13.81,14.42-20.88,21.48-1.61,1.61-1.66,2.7-.42,4.6,11.18,17.05,22.23,34.18,33.34,51.27,2.21,3.4,6.15,2.42,9.27,3.52,1.32.46,2.58.4,2.64,2.4.08,2.24-.31,3.19-2.91,3.15-11.71-.15-23.42-.05-35.14-.08-1.12,0-2.74.59-2.62-1.59.09-1.63-.47-3.24,2.09-3.92,6.94-1.82,6.9-2,3.13-7.89-7.21-11.29-14.46-22.56-21.6-33.9-1.13-1.79-1.72-2.37-3.35-.44-3.12,3.67-6.49,7.12-9.79,10.64a4.66,4.66,0,0,0-1.25,3.43c0,7.93.08,15.85,0,23.77,0,1.89.68,2.7,2.39,3.07a49.52,49.52,0,0,0,5.67,1.33c2.71.24,2.6,1.94,2.58,3.88,0,2.43-1.83,1.6-3,1.6q-17.38.09-34.79,0c-1.2,0-3,.7-2.79-1.75.11-1.7-.38-3.56,2.3-3.66a18.61,18.61,0,0,0,3.35-.68c6.8-1.49,6.8-1.49,6.8-8.54q0-61.85.08-123.69c0-2.68-.6-3.85-3.3-4.13-3.07-.32-6.09-1.23-9.16-1.44-2.62-.18-2-1.83-2.13-3.34-.23-2.1,1-2.11,2.54-2.1,8.73,0,17.46.15,26.19-.06,2.89-.07,3.36,1,3.35,3.53q-.12,46.33,0,92.68v4.11Z"/><path class="cls-1" d="M589.07,388.59c-.08,24.51-20.92,43.37-44,42.79-21.56-.54-42-17.78-42-43.08,0-24.39,19.41-42.92,43.16-43S589.24,364.92,589.07,388.59Zm-53.24-8.09A21.61,21.61,0,1,0,557.24,359,21.64,21.64,0,0,0,535.83,380.5Z"/><path class="cls-1" d="M238.8,443.76c0,12.17.06,24.34-.06,36.51,0,2.19.75,3.06,2.73,3.39,2.71.45,5.39,1.19,8.11,1.46,2.43.24,2.56,1.62,2.58,3.53,0,2.24-1.4,1.93-2.75,1.93H211.86c-1.24,0-2.66.3-2.54-1.75.09-1.56-.42-3.35,2-3.62a22.43,22.43,0,0,0,3-.65c6.75-1.65,6.75-1.66,6.75-8.71,0-24.35,0-48.69.07-73,0-2.72-.75-4-3.44-4.32-1.81-.21-3.57-.79-5.38-1.05-2.07-.3-3.2-1-3.1-3.48.12-2.77,1.93-2,3.37-2.06,7.35,0,14.7.07,22-.08,2.49-.05,3.45.59,3.48,3.23.06,4.64.19,4.57,4.49,2.53,10.09-4.78,20.32-9,31.87-8.25A22.66,22.66,0,0,1,296,408.64a73.86,73.86,0,0,1,.88,12c0,19.75,0,39.5-.08,59.25,0,2.65.83,3.66,3.32,4,2,.25,4,1.09,6,1.26,2.56.2,2.86,1.61,2.79,3.72-.09,2.61-2,1.74-3.24,1.75q-18.26.07-36.51,0c-1.29,0-3.12.79-3.17-1.82-.05-2.16.38-3.32,2.87-3.65,3.49-.47,8-.44,10-2.56,1.69-1.75.51-6.32.51-9.64q0-25.14,0-50.29a36.46,36.46,0,0,0-1.07-9.2c-1.88-7.22-6.48-11.19-13.88-11.65-8.19-.51-16.19,1.08-24.19,2.62-2.24.43-1.44,2.06-1.45,3.23C238.78,419.64,238.8,431.7,238.8,443.76Z"/><path class="cls-2" d="M783.42,481.11c-5.26,4.45-10.45,7.95-16.64,9.65-7.74,2.12-15.47,2.86-23.35.57A18.52,18.52,0,0,1,731,480.81c-4.51-10.18-5.07-20.73-1-31.09,3.79-9.53,12.18-13.08,21.56-15s18.76-1.22,28.13-1.88c2.11-.15,3.06-.44,2.92-2.81-.39-6.64.59-13.33-.64-19.94-1.71-9.15-7.49-13.26-16.73-12.3a43.33,43.33,0,0,0-14.87,3.84,4.2,4.2,0,0,0-2.59,3.26c-.55,2.68-1.63,5.23-2.3,7.89a2.36,2.36,0,0,1-2.48,2.14c-3.12.29-4.5-.38-4.25-4,.36-5.14.11-10.33.07-15.5,0-1.23.06-2.28,1.57-2.57,12.87-2.43,25.81-4.82,38.89-2.43,14.35,2.63,21,11.07,21,25.69,0,21,.1,42-.08,63,0,3.24,1,4.48,4,4.76,1.92.18,3.78,1,5.7,1.14,2.32.2,2.67,1.4,2.72,3.43.05,2.52-1.56,2-3,2-7.23,0-14.47-.12-21.7.08-2.26.06-3-.89-3.35-2.74Zm-.8-23.21c0-5.16,0-10.32,0-15.47,0-.89.47-2.2-1.36-2-7.17.65-14.45-.1-21.56,1.37-6.27,1.3-11.4,4.12-13.25,10.9a34.54,34.54,0,0,0-.69,15.94c1.76,8.95,6.14,12.34,15.2,12.4,7,0,13.48-2.12,19.83-4.81,1.54-.66,1.9-1.62,1.88-3.17C782.57,468,782.62,462.94,782.62,457.9Z"/><path class="cls-1" d="M172.45,481a41.59,41.59,0,0,1-13.57,8.78,43.55,43.55,0,0,1-24,2.23c-8.86-1.73-14.24-7.35-16.61-15.95a43.43,43.43,0,0,1-.58-22.09c2.87-11.84,11.59-16.9,22.68-19.16,9.41-1.91,19-1.36,28.46-1.92,2.53-.15,3.34-.65,3.23-3.26-.26-6.07.08-12.14-.63-18.22-1.13-9.57-7.5-14.64-17.08-13.57a45.74,45.74,0,0,0-14.24,3.53,5,5,0,0,0-3.22,3.63c-.54,2.22-1.26,4.4-1.91,6.6-.93,3.14-2.56,4-5.73,3.28a1.39,1.39,0,0,1-1.26-1.65c0-6.09,0-12.17,0-18.26,0-1.08.35-1.8,1.42-2,13.87-2.56,27.78-5.34,41.87-1.85,11.35,2.81,17,9.83,17.94,21.45.24,3.08.39,6.18.4,9.28,0,19.17.08,38.35,0,57.53,0,2.8.62,4.24,3.58,4.51,2.15.2,4.23,1,6.38,1.27,2.39.28,2.11,1.86,2.2,3.49.12,2.26-1.39,1.92-2.74,1.92-7.35,0-14.7,0-22,0-1.72,0-2.74-.19-2.93-2.29A62.64,62.64,0,0,0,172.45,481ZM172,457.87c0-5.05,0-10.1,0-15.15,0-1.39,0-2.51-2-2.31-6.84.69-13.78-.09-20.57,1.25-5.54,1.1-10.81,3-13.08,8.8a31.3,31.3,0,0,0-.6,21.85c1.41,4.23,4.24,7.08,8.63,8,9.45,2.06,18.08-.8,26.5-4.7,1.46-.68,1-1.89,1-3C172,467.74,172,462.81,172,457.87Z"/><path class="cls-2" d="M1007.68,441c-9.19,0-18.37.07-27.55-.05-2.13,0-2.71.54-2.66,2.68a81.28,81.28,0,0,0,1.4,15c3.21,15.26,12.36,22.86,27.92,23a128.63,128.63,0,0,0,23.55-2.29c1.2-.22,3.23-1.34,3.51.28.33,1.93,1.48,4.55-1.39,6.07a60,60,0,0,1-13.8,5.1,65.11,65.11,0,0,1-31.63.14c-11.83-2.92-20.43-10-24.21-21.7-6.22-19.28-6.74-38.79.77-57.84,5.44-13.78,16.61-20.53,31.07-21.95a51.64,51.64,0,0,1,17.43,1c13.1,3.22,20.74,11.73,24.08,24.6,2,7.77,1.93,15.65,2,23.55,0,2.07-.76,2.44-2.61,2.43C1026.27,440.93,1017,441,1007.68,441Zm-8.92-8.5c6.07,0,12.14-.08,18.21,0,2.07,0,2.78-.46,2.73-2.65a76.94,76.94,0,0,0-2.05-17c-1.8-7.21-5.32-13.11-13.17-14.63-8.71-1.68-16.07.76-21.09,8.55-4.73,7.33-5.17,15.71-5.81,24-.16,2.12,1.48,1.61,2.62,1.61C986.39,432.49,992.57,432.47,998.76,432.47Z"/><path class="cls-2" d="M879.76,475.57c0-3.21,0-6.43,0-9.64,0-1-.53-2.58,1.36-2.51,1.46.05,3.31-.83,4.08,1.43s2,4.44,2.48,6.77c1.42,6.9,6.66,9.58,12.49,11.27a34.91,34.91,0,0,0,18.7.25c6.73-1.73,10.59-6.57,11.3-13.41,1.14-11-4.77-16.52-13.24-20-7.52-3.06-15.55-4.74-22.84-8.42-10.17-5.13-14.87-13.59-14.58-24.81.31-11.7,5.86-19.92,16.75-24.5,8.12-3.42,16.59-3.17,25.05-2.43,5.46.48,10.85,1.68,16.28,2.41,1.64.22,2.06.91,2,2.45-.06,5.74,0,11.48,0,17.22,0,.89.56,2.48-1.11,2.31-1.48-.15-3.52,1.27-4.42-1.21a47,47,0,0,1-1.94-5.14c-1.22-5.27-4.83-7.71-9.78-8.82a35.36,35.36,0,0,0-15.68-.42c-6,1.37-9.95,5.14-11,11.37s.62,11.61,6,15.4c6,4.25,13.18,5.69,19.87,8.3,5.85,2.29,11.9,4.21,16.67,8.59,9.15,8.41,9.94,19.05,7.34,30.13-2.56,10.88-10.54,16.58-21,18.94-14.35,3.25-28.44,1.2-42.42-2.55-2-.53-2.49-1.49-2.42-3.38C879.86,482,879.76,478.79,879.76,475.57Z"/><path class="cls-2" d="M1084.11,412.27c0,22.51.07,45-.08,67.53,0,2.74,1,3.57,3.36,3.87,3.63.47,7.24,1.17,10.88,1.51,2.32.21,2.67,1.34,2.71,3.37.06,2.54-1.56,2-3,2h-45.48c-1.41,0-3,.51-3-2,0-2.05.44-3.13,2.72-3.37,3.87-.4,7.69-1.21,11.55-1.65,2.15-.24,2.73-1.16,2.71-3.28-.11-12.4,0-24.81,0-37.21q0-45.48,0-91c0-2.46-.4-3.65-3.21-3.83-3.75-.24-7.45-1.36-11.2-1.58-2.66-.16-2.47-1.56-2.54-3.37-.1-2.47,1.53-2.06,3-2.06,9.3,0,18.61.17,27.9-.09,3.27-.08,3.69,1.1,3.67,3.94C1084.07,367.48,1084.11,389.88,1084.11,412.27Z"/><path class="cls-2" d="M854.14,412.12c0,22.62.06,45.25-.08,67.87,0,2.58.88,3.39,3.14,3.67,3.63.45,7.24,1.18,10.88,1.5,2.37.21,3,1.2,3,3.48,0,2.6-1.72,1.92-3.06,1.92q-22.72,0-45.47,0c-1.41,0-3,.5-3-2,0-2.07.47-3.12,2.75-3.37,4.09-.46,8.13-1.3,12.21-1.86,1.44-.19,2-.77,1.84-2.2a14.08,14.08,0,0,1,0-1.72q0-63.56.07-127.12c0-2.62-.43-3.85-3.29-4.08-3.87-.31-7.69-1.28-11.56-1.63-2.46-.22-1.82-1.79-2-3.17-.17-1.66.58-2.19,2.19-2.18,10,0,20,.08,30,0,2.16,0,2.38,1,2.37,2.71-.07,7.58,0,15.16,0,22.74Z"/><path class="cls-1" d="M474.11,444.43A22,22,0,1,1,452,466.37,22,22,0,0,1,474.11,444.43Zm-.43,24.78a9.25,9.25,0,0,0,9.19,9.5,9.51,9.51,0,0,0,9.41-9.39,9.28,9.28,0,0,0-9.13-9.24A9,9,0,0,0,473.68,469.21Z"/><path class="cls-2" d="M840.26,564.79c-4-3.44-4-3.44.77-9.77-3.74-3-5-6.9-3.72-11.24,1.05-3.47,4.21-5.86,8.76-6,4.18-.1,8.46.86,12.11-2.15a.86.86,0,0,1,1.23.2,1.13,1.13,0,0,1-.4,1.76c-2.61,1.66-2.07,3.68-1.48,6.32,1.79,7.94-2.24,12.28-10.69,12.19-1.46,0-3.24-1-4.29,1-.92,1.77-1,3.14,1.49,3.22,2.87.1,5.74.08,8.61.13q7.5.13,8.4,5.44c.76,4.55-1.45,8.3-5.93,10a22,22,0,0,1-13.84.69c-2.58-.66-4.72-2-5.19-4.89-.42-2.54,1-4.33,2.88-5.86C839.41,565.56,839.82,565.17,840.26,564.79Zm8.3.25H844.1c-2.6,0-3,2.13-3.62,3.9s-.44,3.65,1.34,4.9c2.83,2,10.76,1.1,13.23-1.4a5.07,5.07,0,0,0,1.26-5.37c-.6-1.88-2.43-1.84-4-2C851.08,565,849.81,565.05,848.56,565Zm4.34-18.14c0-4.86-1.42-6.74-5.21-6.8-4-.06-5.65,1.89-5.64,6.81s1.74,7,5.61,6.91C851.34,553.73,852.88,551.7,852.9,546.9Z"/><path class="cls-2" d="M599.11,526a9.83,9.83,0,0,1,1.67-.9c8-.69,8-.69,8,7.24V539a6.86,6.86,0,0,0,1.53-.14c9.32-3.26,15.68.87,16.34,10.69a20.11,20.11,0,0,1-1.12,8.44c-1.77,4.77-5.25,7.42-10.3,7.61q-1.2,0-2.4,0c-8.37-.35-9-1-9-9.19s-.08-16.29,0-24.43C603.91,529,604.09,526.22,599.11,526Zm9.65,26c0,2.75,0,5.5,0,8.25,0,.85-.28,1.78.87,2.34a8.23,8.23,0,0,0,10.81-4.37c1.14-3.09,1-6.3.86-9.5-.32-6-4.09-8.88-10-7.74-1.71.33-2.83,1-2.65,3.12C608.93,546.69,608.76,549.34,608.76,552Z"/><path class="cls-2" d="M979.16,564.59c4.91-1.44,3.18-5.41,3.28-8.58.11-3.44,0-6.89,0-10.33,0-2-.71-3.61-2.8-4.18a10.9,10.9,0,0,0-7.33.77c-.34.14-.36,1.25-.36,1.91,0,5.51.2,11-.1,16.53-.16,2.84,2.48,2.1,3.73,3.86H964c4.59-1.71,3-5.62,3-8.82.1-8-.1-16.07.1-24.11.08-3.06-.18-5.41-4.19-5.55.1-.33.2-.67.31-1,2.59,0,5.19-.11,7.78,0,1.34.08.92,1.39.93,2.22,0,4.09,0,8.19,0,12.58,2.16-.69,3.95-1.38,5.8-1.86,5.69-1.47,9.27,1.15,9.46,7q.21,6.54,0,13.08c-.06,2.68-.4,5.34,3.19,6.44Z"/><path class="cls-2" d="M1004.3,526.23a12.3,12.3,0,0,1,1.84-1.16c7.91-.69,7.91-.69,7.91,7.3v7.09c1.17-.48,2.08-.92,3-1.23,7.58-2.46,14.33,2.09,14.8,10a29.66,29.66,0,0,1-.13,6.86c-1.36,7.86-7.24,11.7-15.37,10.26-7.08-1.26-7.08-1.26-7.08-8.49,0-8.26,0-16.51,0-24.76C1009.35,529.18,1010.05,526,1004.3,526.23Zm9.75,25.6c0,2.86,0,5.71,0,8.57,0,.74-.21,1.54.71,2.09,3.51,2.06,9.7-.11,11-4a23.89,23.89,0,0,0,.86-10.16c-.65-5.86-3.31-8-9.13-7.45-2.34.23-3.79,1-3.49,3.76A66.27,66.27,0,0,1,1014.05,551.83Z"/><path class="cls-2" d="M917.94,525c2.35,0,4.69,0,7,0,1.89,0,1.51,1.33,1.52,2.4,0,3.9,0,7.79,0,11.94,2.37-.83,4.53-1.77,7-1.7,5.36.15,8.84,2.73,10.33,7.88a20.87,20.87,0,0,1,.28,9.87c-1.5,7.6-7.07,11.27-14.93,10.07-7.39-1.14-7.39-1.14-7.39-8.57V531.8C921.76,527.38,921.76,527.38,917.94,525Zm8.56,26.9c0,2.86,0,5.71,0,8.57,0,.75-.16,1.53.8,2,3.89,2.05,9.69-.29,11-4.5a25.53,25.53,0,0,0,.73-9.49c-.43-6-4-8.77-10-7.59-1.68.33-2.82.95-2.63,3.11C926.68,546.66,926.5,549.31,926.5,551.93Z"/><path class="cls-2" d="M586.14,564.69H573.75c4-1.78,2.59-3.4,1.4-5.16-1.66-2.45-3.16-5-4.75-7.54-4.73,4.11-5,8.51-.65,12.74H558.87a2.71,2.71,0,0,1,0-.7c3.25-.78,3.29-3.09,3.23-5.86q-.24-13.26,0-26.51c0-3,.06-5.5-4-5.95a17.53,17.53,0,0,1,7.93-.53c1.36.15.75,1.71.75,2.63.05,7.69,0,15.37,0,24.12,3.56-3.88,6.58-7.15,9.56-10.45.24-.26.63-.79,0-1.13s-1.93-.3-1.52-1.36c.46-1.23,1.81-.53,2.77-.66a5.83,5.83,0,0,1,1.72,0c1.52.24,4-.82,4.37.58.55,2.1-2.3.8-3.27,1.9-2,2.22-4.09,4.31-6.17,6.43-.86.87-.48,1.52.09,2.38,2.65,4,5.3,8,7.77,12.14C583.05,563.27,585.11,562.83,586.14,564.69Z"/><path class="cls-2" d="M1085.05,552c3.54-3.88,6.43-7,9.31-10.23.34-.38.92-.86.28-1.39s-2.21-.25-1.39-1.65c.5-.85,1.7-.33,2.58-.41a7.07,7.07,0,0,1,1.72,0c1.52.23,4-.81,4.38.57.57,2.11-2.28.81-3.25,1.9-2,2.31-4.26,4.46-6.38,6.7-.75.78-.17,1.4.29,2.1,2.63,4,5.3,8,7.75,12.14.91,1.52,3,1.07,4,3H1092c4.1-1.77,2.58-3.4,1.42-5.14-1.65-2.46-3.16-5-4.74-7.55-4.76,4.08-5.05,8.61-.66,12.7-3.81.55-7.34.24-10.91.23a3.93,3.93,0,0,1,0-.88c3.17-.82,3.3-3.07,3.25-5.87q-.27-13.41,0-26.84c.06-3-.29-5.12-4.1-5.2.1-.35.21-.7.31-1a71.12,71.12,0,0,1,7.73.08c1.36.15.74,1.71.75,2.63,0,6.65,0,13.3,0,20Z"/><path class="cls-2" d="M681.93,564.77h-11c5-2.28,2.68-6.68,3-10.23.25-3.07,0-6.18,0-9.28,0-2.57-1.5-3.69-3.78-4-5-.77-6.61.61-6.61,5.54,0,3.55,0,7.1,0,10.65,0,2.81-1.2,6.26,4.29,6.41l-.91.81h-12c5.54-2.19,3.38-6.53,3.62-10.07s.06-7.1.05-10.65c0-1.78.48-3.84-2.37-3.94a.75.75,0,0,1-.64-1c.09-.25.54-.64.72-.59,2.32.66,5.24-1.72,7.07,1.37.36.62.76.24,1.14.1s.82-.4,1.25-.56c9.34-3.68,13.2-1.09,13.2,8.83,0,3.33.1,6.66,0,10C678.84,560.76,678.59,563.35,681.93,564.77Z"/><path class="cls-2" d="M511.52,564.72h-11c4.16-1.42,3.07-4.78,3.1-7.64,0-3.78.05-7.57,0-11.35-.05-3.15-1.55-4.58-4.65-4.59-5.3,0-5.84.5-5.84,5.65v9.64c0,5.3,0,5.3,3.91,8.26H485.4c4.72-1.86,2.78-5.9,2.94-9.15.18-3.78.06-7.57,0-11.35,0-1.85.65-4.1-2.43-4.24a.73.73,0,0,1-.6-1c.11-.25.56-.61.75-.56,2.33.65,5.22-1.69,7.11,1.37.55.89,1.2,0,1.74-.23,10.48-3.88,13.75-1.65,13.76,9.38,0,2.75,0,5.51,0,8.26S507.66,563.17,511.52,564.72Z"/><path class="cls-2" d="M833.34,565c-4.13,0-7.56,0-11,0-.3,0-.73,0-.71-.92,4.17-.72,3.06-4.1,3.09-7q.06-5.69,0-11.36c0-3.14-1.55-4.6-4.66-4.56-1.14,0-2.27.32-3.41.38-1.86.1-2.51,1-2.44,2.86.13,3.9-.15,7.81.1,11.7.19,3.07-2.22,7.42,4.56,7.84l-1.14.77H806.47c4.64-1.76,2.88-5.67,3-8.84.15-4.36,0-8.72,0-13.09,0-1.32,0-2.58-1.82-2.66-.68,0-1.46-.27-1.23-1.2.17-.67.93-.73,1.44-.58,2.11.61,4.79-1.48,6.44,1.42.51.88,1.2,0,1.74-.25,10.41-3.88,13.71-1.62,13.71,9.45v7.92C829.78,561.83,829.78,561.83,833.34,565Z"/><path class="cls-2" d="M710.51,564.59c-2.76-.8-6,2.71-8.11-1.33,0-.09-.81.14-1.22.29-1.08.39-2.12.89-3.21,1.22-7.63,2.32-11.16-.3-11.17-8.28,0-4.59,0-9.18,0-13.77,0-1.36,0-2.56-1.88-2.59-.68,0-1.52-.23-1.33-1.14s1.08-.62,1.73-.68c6.26-.54,6.26-.54,6.26,5.6,0,4.25,0,8.49,0,12.74s1.64,5.84,5.64,5.31c6-.79,5.15.77,5.21-5.72,0-4.13,0-8.26,0-12.39,0-1.94.17-3.81-2.62-3.73-.57,0-1.22-.2-1.25-.91,0-1.06.86-.81,1.48-.89.12,0,.23,0,.35,0,6.81-.48,6.81-.48,6.81,6.47,0,4.48,0,9,0,13.43C707.19,560.85,706.7,563.61,710.51,564.59Z"/><path class="cls-2" d="M556.5,564.6c-3-.48-6,2.24-8.35-1.11-.38-.54-.8,0-1.17.06-.65.21-1.27.51-1.91.76-8.49,3.22-12.5.49-12.51-8.53V543c0-1.38.24-2.89-1.89-2.91-.62,0-1.23-.33-1.19-1,.06-.93.89-.83,1.57-.85.12,0,.23,0,.35,0,6.19-.39,6.19-.39,6.19,5.72,0,4.48-.07,9,0,13.43.08,3.46,1.52,4.72,5,4.57,1.26,0,2.51-.32,3.76-.37,1.46,0,2-.74,2-2.16-.05-5.63-.08-11.26,0-16.88,0-1.86-.84-2.42-2.46-2.48-.68,0-1.56-.14-1.54-1s.95-.75,1.6-.81c.22,0,.45,0,.68,0,6.41-.23,6.41-.23,6.41,6.17,0,4,0,8,0,12C553.08,559.56,551.7,563.21,556.5,564.6Z"/><path class="cls-2" d="M766.83,558.51c2.17-5.78,3.95-10.61,5.79-15.41.63-1.66.84-2.93-1.56-3-.68,0-1.54-.17-1.46-1.06s1-.74,1.65-.74c2.18,0,4.36,0,6.54,0,.57,0,1.25,0,1.39.67a.89.89,0,0,1-.95,1.13c-1.74,0-1.91,1.35-2.37,2.49-3.8,9.55-7.48,19.15-11.46,28.63-2.06,4.92-5.51,6.75-10,6-.84-.13-2.07.1-2.12-1.22-.07-1.59-.32-3.36.27-4.72.44-1,1.4.16,1.53.85.57,2.89,2.77,2.08,4.36,1.75,2.94-.63,6.31-7.33,5.18-10.22-2.82-7.24-5.78-14.43-8.71-21.62a6.26,6.26,0,0,0-.9-1.45c-.6-.77-2.62-.23-2.19-1.6s2.22-.63,3.38-.69c2.18-.12,4.37-.07,6.55,0,.72,0,1.84-.41,2,.66s-.92,1.13-1.67,1.18c-1.53.09-2.12.85-1.58,2.25C762.47,547.49,764.49,552.54,766.83,558.51Z"/><path class="cls-2" d="M483.41,564.6c-3-.74-6.39,2.58-8.46-1.39a7.32,7.32,0,0,0-1.56.48c-1.18.42-2.34.94-3.55,1.26-6.9,1.84-10.33-.78-10.39-7.91,0-3.68,0-7.35,0-11,0-2.78,1.16-6.16-4.58-6.59,3.65-1.61,6.16-1.13,8.56-1,1.19.08.78,1.47.79,2.31,0,5.05,0,10.1,0,15.15,0,2.11,0,4.38,2.06,5.49,2.59,1.39,5.41.37,8.1,0,1-.14.76-1.27.76-2,0-5.63,0-11.25,0-16.88,0-1.7-.76-2.19-2.24-2.3-.75-.06-1.84,0-1.68-1.18.12-.89,1.07-.61,1.71-.66,7-.59,7-.59,7,6.32,0,4.25-.06,8.5,0,12.74C480,560.1,478.56,563.59,483.41,564.6Z"/><path class="cls-2" d="M804,564.69c-2.69-.7-5.9,2.28-7.82-1.47-.27-.55-1,.15-1.44.42a10.89,10.89,0,0,1-3.74,1.65c-4.93,1.25-8.27-.65-9.38-5.33-1.19-5.07,1.27-9.12,6.16-10,1.46-.27,3-.27,4.42-.63s3.94,1.31,3.75-1.83c-.16-2.65,1.15-6.31-2.87-7.11-2.38-.47-5.44-.79-6.42,2.77-.21.77-.27,1.8-1.33,1.67-1.35-.17-.75-1.41-.91-2.22-.62-3.07.78-4.36,3.75-4.41,1.49,0,3-.33,4.45-.32,5.95,0,8.31,2.41,8.34,8.36,0,3.55,0,7.11,0,10.67C801,559.73,799.89,563,804,564.69Zm-7.94-8.51c-.92-1.24,1.9-4.48-2.19-4.51-5.74,0-7.45,1.24-7.48,5.55,0,3.62,1.08,5,4.06,5C795,562.37,796.05,561.27,796.05,556.18Z"/><path class="cls-2" d="M735.71,564.69c-2.5-.57-5.47,2-7.57-1.27-.59-.93-1.25,0-1.69.3a12.11,12.11,0,0,1-3.44,1.5c-5.13,1.37-8.53-.53-9.62-5.39-1.14-5.09,1.37-9,6.34-9.93,1.36-.24,2.76-.25,4.08-.6s4.16,1.37,4-2c-.16-2.57,1-5.81-2.71-7a5.46,5.46,0,0,0-6.64,3c-.3.77-.41,1.71-1.49,1.44-.83-.21-.57-1.1-.69-1.76-.54-3.17.44-5,4-4.89,1.71,0,3.44-.34,5.14-.27,4.92.21,7.32,2.7,7.38,7.58,0,4.14,0,8.27,0,12.4C732.77,562.14,732.77,562.14,735.71,564.69Zm-7.84-8.26c0-4.77,0-4.77-2.22-4.77-5.77,0-7.41,1.24-7.43,5.59,0,3.66,1,5,4.06,5C726.83,562.34,727.87,561.25,727.87,556.43Z"/><path class="cls-2" d="M653.52,564.57c-3-.44-6.1,2.23-8.13-1.26-.41-.72-1,.12-1.42.31-1,.4-1.81,1-2.77,1.33-5.42,1.84-9.23,0-10.38-4.92-1.27-5.42,1.29-9.28,6.75-10.17a22.06,22.06,0,0,0,3.38-.55c1.44-.49,4.17,1.44,4.16-1.77,0-2.66,1.06-6.07-2.8-7.25a5.41,5.41,0,0,0-6.57,3.15c-.26.66-.38,1.43-1.24,1.36s-.72-1-.79-1.6c-.44-4.16-.14-4.58,4.12-5.07a27.2,27.2,0,0,1,5.48-.24c4.52.36,6.73,2.83,6.79,7.41,0,3.9-.1,7.81,0,11.7C650.25,559.77,648.46,563.45,653.52,564.57Zm-8.29-8.33c-.94-1.25,1.92-4.5-2.15-4.57-5.72-.11-7.47,1.21-7.5,5.49,0,3.89,1,5.17,4.3,5.11C644.35,562.19,645.23,561.24,645.23,556.24Z"/><path class="cls-2" d="M1058.83,564.58c-2.91-.41-6,2.11-8.17-1.34-.38-.62-1,.28-1.43.47a34,34,0,0,1-3.77,1.56c-4.49,1.22-8.3-.79-9.18-4.71-1.26-5.61.93-9.64,5.82-10.6,1.57-.3,3.2-.29,4.74-.67,1.35-.34,3.84,1.37,3.79-1.77-.05-2.75.88-6.25-2.91-7.15-2.26-.54-5.1-.74-6.36,2.39-.33.83-.21,2.42-1.77,1.94-1.13-.35-.47-1.59-.62-2.42-.51-2.69.67-4,3.35-4.09a56.66,56.66,0,0,1,6.49-.28c4.54.37,6.51,2.6,6.58,7.13.06,4,0,8,0,12C1055.46,559.93,1054.32,563.34,1058.83,564.58Zm-8.17-8.23a10.84,10.84,0,0,1,0-1.71c.41-2.57-.54-3.59-3.15-2.93a10.63,10.63,0,0,1-1.7.13c-4,.39-5.57,2.7-4.89,6.92.5,3.11,2.63,3.83,6.61,3.17C1051.33,561.3,1050.68,558.79,1050.66,556.35Z"/><path class="cls-2" d="M908.16,551.83a7.62,7.62,0,0,0-2.39,0c-1.82.62-4.72-1.76-5.46,1.38-.92,3.82,1.56,7.9,4.93,8.77a16.87,16.87,0,0,0,7.48,0c.84-.16,1.95-.83,2.43.28s-.8,1.48-1.53,1.86c-9.49,4.85-18.49-.49-18.66-11.07a24.53,24.53,0,0,1,.49-6.82c1.72-6.42,6.3-9.49,12.85-8.38,5.4.92,8.55,5.88,7.91,12.2-.14,1.32-.55,1.83-1.86,1.79C912.29,551.78,910.23,551.82,908.16,551.83Zm-2.41-2.58c6.11,0,6.64-.73,4.56-6a4.42,4.42,0,0,0-5.44-3c-2.81.52-5.09,4.18-4.52,7.53.49,2.85,2.94.85,4.38,1.42A2.89,2.89,0,0,0,905.75,549.25Z"/><path class="cls-2" d="M891.21,564.71H877.89a3,3,0,0,1,0-.69c4.68-.58,4.41-3.84,4.33-7.37q-.27-12.23,0-24.46c.08-3.42.05-6.26-4.89-6,.14-.38.28-.75.43-1.13a73.12,73.12,0,0,1,8.38.1c1.52.17.83,1.91.83,2.94.06,10.1.09,20.21,0,30.31,0,2.65-.17,5,3.47,5.09C890.92,563.56,891.35,563.84,891.21,564.71Z"/><path class="cls-2" d="M516.57,551.32c0-2.29,0-4.58,0-6.87,0-1.79.76-4.17-2.58-3.72a.68.68,0,0,1-.79-.84c.06-.29.33-.76.53-.78,3.21-.24,3.75-3,4.8-5.16.4-.84.75-1.83,1.88-1.69,1.41.18,1,1.44.88,2.2-.36,2.82.36,4.37,3.6,3.78.87-.15,2.29-.5,2.38,1.11.11,1.88-1.45,1.54-2.45,1.4-2.87-.42-3.73.63-3.56,3.52.26,4.56,0,9.15.08,13.73,0,3.57,1.15,4.52,4.59,4.14.81-.09,1.87-1,2.21.53.26,1.18-.72,1.56-1.6,1.87-6.64,2.29-10.63-.11-10-6.36C516.76,555.92,516.57,553.61,516.57,551.32Z"/><path class="cls-2" d="M1074.31,564.77H1060.6c-.32-.86.18-1.18.78-1.2,3.52-.16,3.87-2.32,3.74-5.25-.21-4.92-.12-9.86,0-14.79,0-1.93-.1-3.46-2.57-3.41-.58,0-1.26-.23-1.25-.92,0-1,.87-.83,1.53-.88h.34c6.65-.48,6.65-.48,6.65,6.28,0,4.93.09,9.87,0,14.79-.06,2.29.07,4.08,3,4C1073.24,563.38,1073.89,563.56,1074.31,564.77Z"/><path class="cls-2" d="M961.22,564.71H947.55c.19-.49.25-.85.33-.86,4.86-.21,4.31-3.64,4.24-6.91-.09-4.57,0-9.15,0-13.73,0-1.58.06-3.05-2.15-3.06-.7,0-1.46-.24-1.31-1.16.1-.7.82-.64,1.38-.67h.34c6.49-.56,6.49-.56,6.49,6,0,5,.11,10.07-.05,15.1-.07,2.33.16,4,3,3.92.5,0,1,.41,1.51.63Z"/><path class="cls-2" d="M953.9,526.58c1.78.43,3,1.23,3.12,3.18a2.77,2.77,0,0,1-2.85,3.14,2.92,2.92,0,0,1-3.29-3.12C950.91,528,952.32,527.07,953.9,526.58Z"/><path class="cls-2" d="M1066.7,526.57c1.78.45,3,1.32,3.15,3.18a2.75,2.75,0,0,1-2.84,3.15,2.84,2.84,0,0,1-3.25-3.1C1063.78,527.88,1065.23,527.15,1066.7,526.57Z"/></svg>