<svg id="Layer_1" data-name="Layer 1" xmlns="http://www.w3.org/2000/svg" viewBox="0 0 1106.13 743.43"><defs><style>.cls-1{fill:#fff;}.cls-2{fill:#00a451;}.cls-3{fill:#eb1c24;}.cls-4{fill:#fed501;}.cls-5{fill:#1a2367;}.cls-6{fill:#eb1d25;}.cls-7{fill:#f4898d;}.cls-8{fill:#f7acaf;}</style></defs><title>bank-kalteng</title><circle class="cls-1" cx="119.86" cy="359.95" r="116.67"/><path class="cls-2" d="M170.72,356.91c-19.72.6-39.44.88-59.15-.07-19.55-.94-32.1-14-32.1-33.62,0-22.19,0-44.37,0-66.56,0-2,.44-3,2.52-3.7,42.58-13.46,80.91-5.88,114.2,23.94,20.2,18.09,31.54,41.26,35.34,68.09.45,3.21.53,6.47.84,9.7.12,1.2,0,1.77-1.51,1.79-9.74.08-19.47.34-29.21.41C191.3,357,181,356.91,170.72,356.91Z"/><path class="cls-3" d="M57.11,265.57c0,12.17,0,24.06,0,35.94-.1,24.33,1.06,48.63,1.14,73,0,7.75.61,15.51.74,23.26.25,14.51,6.67,25.62,18.31,33.93C87.46,438.92,99,442.91,111,445.73c15.09,3.53,30.44,4.94,45.91,5.4,9.82.3,19.64,0,30.17-.16A113,113,0,0,1,89,469.37,113.13,113.13,0,0,1,7.6,376.79C.37,326.41,26.24,285.46,57.11,265.57Z"/><path class="cls-4" d="M78.37,367.23c6.84,12.15,18,15.93,30.16,18.15,6.43,1.18,12.94,1.14,19.42,1.19,28,.19,55.93.21,83.9.32,5.14,0,10.29.2,15.43.16,1.76,0,1.9.54,1.49,2.05a115,115,0,0,1-15.2,33.84,3.07,3.07,0,0,1-2.86,1.67c-2.21,0-4.42.23-6.64.24-26.07,0-52.14-.14-78.2.06-15.17.12-26.62-6.45-35.27-18.43-6.4-8.85-9.47-19.05-11.21-29.7A60.53,60.53,0,0,1,78.37,367.23Z"/><path class="cls-5" d="M512.86,318.53c3.89-3.14,7.7-6.21,11.49-9.3,5-4.06,9.91-8.15,14.88-12.21a12.64,12.64,0,0,0,2.95-3.37c1.41-2.39.46-4.63-2.24-5.27a19.8,19.8,0,0,0-3.53-.43c-.84,0-1.08-.41-1-1.18s.57-.81,1.14-.81h24.25c.53,0,1.14-.12,1.2.73s-.12,1.21-1,1.27c-4.32.25-7.41,2.94-10.56,5.47-7.35,5.89-14.66,11.85-22,17.75-.85.67-1.32,1.08-.42,2.19,8.48,10.56,16.83,21.22,25.37,31.73,2.85,3.51,6.07,6.78,11,7.35.89.1,1,.57.95,1.28-.16,1.15-1.09.69-1.69.69q-16.05,0-32.1,0a3.68,3.68,0,0,1-.47,0c-.5-.05-1.18.2-1.21-.7,0-.67,0-1.07.89-1.34,5.29-1.73,5.71-2.64,2.3-7.21-5.58-7.49-11.46-14.76-17.24-22.1-.27-.35-.52-1.22-1.22-.59s-2,1-2,2.42c0,1,0,2.06,0,3.09,0,5.94.19,11.89.08,17.83-.08,4.4,2.12,6.21,6.61,6.63.69.07,1.65-.38,1.66,1s-1,1-1.67,1q-15.45,0-30.91,0c-.64,0-1.68.53-1.76-.85s.93-.94,1.62-1a33.31,33.31,0,0,0,3.76-.49,4.7,4.7,0,0,0,3.84-4.29,32.26,32.26,0,0,0,.28-3.54q0-24,0-48c0-6.36-1.51-7.94-7.86-8.35-.69,0-1.71.41-1.65-1s1.09-.88,1.74-.88q15.21,0,30.43,0c.64,0,1.67-.52,1.76.87s-.84,1-1.58,1.1c-4.52.52-6,1.9-6.17,6.48-.21,7.76-.14,15.52-.17,23.29A2.79,2.79,0,0,0,512.86,318.53Z"/><path class="cls-5" d="M1077.63,325.92c4.83,0,9.66,0,14.5,0,.68,0,1.83-.64,1.92.92.07,1.36-1,1-1.62,1.11-5.44,1-6.4,2.16-6.4,7.77,0,4.36,0,8.71,0,13.07,0,1,0,1.8-1.2,2.23-12.74,4.64-25.8,6.62-39.14,3.47a34.2,34.2,0,0,1-26.51-31.92A36.2,36.2,0,0,1,1045.5,286a43.9,43.9,0,0,1,27.07,1.06c1.26.46,2.52.92,3.8,1.34,4.19,1.39,5.05,1.08,7.19-2.85.46-.85,1-1.2,1.85-1,1.08.25.59,1.17.59,1.76,0,6.66,0,13.32,0,20,0,.69.68,1.84-.82,2-1.22.15-1.37-.72-1.69-1.55-2.43-6.26-6-11.61-11.86-15.27-12.63-7.93-27.13-2.75-31.66,11.4a46.13,46.13,0,0,0-1.25,5.06,62.59,62.59,0,0,0,.65,28.71c3.18,12.15,13.1,18.05,25.38,15.2,4.81-1.12,4.81-1.12,4.81-6.09,0-3.88.06-7.77,0-11.65s-1.82-5.72-5.69-6.2c-.47-.06-.95-.05-1.42-.1-.72-.07-1.7.27-1.6-1.08.09-1.2,1-.75,1.59-.82a15.49,15.49,0,0,1,1.67,0Z"/><path class="cls-5" d="M903.28,354.45c-9.11,0-18.22,0-27.33,0-.71,0-1.93.66-2-.8-.14-1.73,1.3-1,2-1.05,5.76-.36,7.42-2,7.43-7.76q0-24.85,0-49.69c0-5.06-1.82-6.92-7-7.2-.63,0-1.26-.05-1.9-.1s-.64-.55-.64-1,.13-.78.64-.8,1.11,0,1.66,0c17.52,0,35,0,52.54,0,1.65,0,2.34.21,2.28,2.12-.15,5.55,0,11.1-.07,16.64,0,.66.49,1.65-.9,1.74-1.16.07-1.26-.68-1.44-1.45,0-.08,0-.16-.05-.24-2.59-10.22-6.52-13.62-16.92-14.36-3.39-.24-6.81-.07-10.21-.16-1.13,0-1.49.3-1.48,1.45q.06,12.6,0,25.2c0,1.12.27,1.45,1.46,1.42,5-.12,8.67-2.07,10.67-6.83a33.26,33.26,0,0,0,2.07-8c.12-.73.08-1.39,1.16-1.34s.9.88.9,1.52q0,16.39,0,32.8c0,.57.27,1.31-.78,1.39s-1.16-.36-1.28-1.21a25,25,0,0,0-3.54-10.46c-2.27-3.47-5.68-4.27-9.45-4.45-1-.05-1.2.38-1.2,1.26.06,7.76,0,15.53.16,23.29.06,3,1.59,4.5,4.6,4.73a39.39,39.39,0,0,0,13.68-.91c7.74-2.12,12.11-7.64,14.74-14.86a10.07,10.07,0,0,0,.52-1.58c.14-.8.62-1,1.35-1,1,.08.74.85.67,1.41-.7,5.18-1.36,10.36-2.15,15.52-.74,4.86-.81,4.85-5.74,4.85Z"/><path class="cls-5" d="M956.08,299.22v2.55q0,20.33,0,40.65c0,6.89,2.26,9.39,9.14,10.11.74.08,1.4,0,1.34,1.1s-.76.82-1.34.82H943.59c-.59,0-1.26.18-1.32-.85s.5-1.05,1.3-1.15c6.8-.84,8.71-3,8.71-9.9q0-22.82,0-45.64c0-3.61-3.28-7.75-6.82-8.59a9.52,9.52,0,0,0-2.1-.36c-.83,0-1.09-.31-1.08-1.12s.42-.88,1-.88c7.45,0,14.9,0,22.35,0,1.4,0,1.78,1.18,2.43,2q15.3,19.26,30.55,38.54c.28.36.58.7,1.17,1.4,0-1.08.11-1.75.11-2.41,0-9.35.06-18.7-.11-28.05-.11-6.55-2-8.47-8.43-9.49-.64-.1-1.25-.05-1.28-1,0-1.15.75-1,1.44-1,6.58,0,13.16,0,19.73,0,.53,0,1.32-.37,1.42.71.08.89-.25,1.3-1.12,1.4-.71.08-1.4.27-2.1.4-3.25.61-4.87,2.77-5.32,5.86a38.66,38.66,0,0,0-.41,5.68c0,17.83,0,35.66,0,53.49,0,.77.56,1.87-.5,2.29-1.22.48-1.81-.56-2.46-1.36l-42.25-52.31Z"/><path class="cls-5" d="M468.49,327.91c0-10.83.13-21.13-.05-31.42-.1-5.6-2.46-7.82-8.15-8.55-.67-.09-1.49.14-1.51-1,0-1.36,1-1,1.66-1q9.63,0,19.25,0c.58,0,1.47-.49,1.66.69s-.52,1.26-1.34,1.47c-6.16,1.56-7,2.42-7.45,8.8-.23,3-.16,6-.17,9,0,15.85,0,31.7,0,47.54,0,.77.55,1.87-.5,2.3-1.22.49-1.81-.56-2.46-1.36q-21.57-26.7-43.15-53.41c-.38-.47-.77-.92-1.22-1.45a3.36,3.36,0,0,0-.28,2.18q0,20.33,0,40.65c0,6.88,2.27,9.39,9.13,10.11.74.08,1.42,0,1.35,1.09s-.75.83-1.33.83H412.26c-.59,0-1.27.19-1.33-.84s.48-1.06,1.28-1.16c6.82-.85,8.72-3,8.73-9.89q0-22.83,0-45.65c0-3.6-3.29-7.75-6.82-8.59A9.52,9.52,0,0,0,412,288c-.82,0-1.1-.3-1.09-1.11s.41-.89,1-.89c7.45,0,14.9,0,22.35,0,1.4,0,1.79,1.18,2.44,2Q452,307.2,467.3,326.49C467.58,326.84,467.88,327.18,468.49,327.91Z"/><path class="cls-5" d="M837.67,286c9.51,0,19,0,28.52,0,1.48,0,2,.28,2,1.91-.11,5.15,0,10.3-.06,15.45,0,.59.44,1.49-.69,1.69s-1.3-.57-1.48-1.37c-.06-.23-.14-.45-.21-.68-3.51-12.67-9.48-12.85-18.71-12.71-1.85,0-1.22,1.31-1.23,2.17q0,20.69,0,41.36c0,3.88-.06,7.76,0,11.64.11,4.94,2,6.84,6.91,7.1.55,0,1.11.06,1.66.06s1.05.11,1.07.89-.45,1.06-1.17,1c-.24,0-.48,0-.72,0h-33c-.54,0-.89-.18-.9-.82s.12-1.07.88-1.07c1,0,1.91,0,2.85-.1,3.81-.39,5.52-2.06,5.78-5.89.19-2.68.17-5.38.17-8.07,0-15.29,0-30.58.06-45.87,0-2-.55-2.65-2.5-2.42-1.64.19-3.33,0-5,.2-6.62.82-10.43,4.49-12.27,11.7a14.93,14.93,0,0,0-.41,1.85c-.08.79-.42,1.05-1.21,1-1,0-.88-.68-.89-1.3v-6.41c0-3.09.1-6.19,0-9.27-.07-1.65.39-2.12,2.07-2.1C818.66,286,828.16,286,837.67,286Z"/><path class="cls-5" d="M776.52,354.45c-9.43,0-18.86,0-28.29,0-.68,0-1.91.67-1.91-.92s1.24-.89,1.91-.93c5.9-.36,7.57-2,7.58-7.93q.06-24.5,0-49c0-5.88-1.67-7.47-7.68-7.81-.72,0-1.92.53-1.82-1.05.09-1.39,1.16-.81,1.79-.81q16.29-.06,32.57,0c.71,0,1.91-.58,1.86,1,0,1.38-1.11.77-1.76.86-1.18.16-2.39.11-3.54.34-3.22.67-4.7,2.28-4.74,5.57-.12,7.68-.09,15.37-.1,23.06q0,13.08,0,26.15c0,6,1.18,7.11,7.06,7.14a79.86,79.86,0,0,0,11.15-.26,15.53,15.53,0,0,0,11.32-7.42,44.64,44.64,0,0,0,4.69-10.85c.32-1,.39-2.16,1.87-1.82s.63,1.61.56,2.33c-.6,6.78-1.4,13.54-2,20.32-.15,1.77-.82,2.11-2.47,2.1C795.23,354.41,785.87,354.45,776.52,354.45Z"/><path class="cls-3" d="M389.11,467.71c-3.36,3.2-7.43,5.36-11.4,7.66a3.19,3.19,0,0,1-4-.38c-1.09-1.06-.51-2.38,0-3.53a30.92,30.92,0,0,0,2.88-10,7.53,7.53,0,0,0-.31-3.52c-.79-2.06-2-2.44-3.74-1.08-2.5,2-4.3,4.63-6.59,6.82-4.1,3.91-8.44,7.59-12.14,11.93a4.18,4.18,0,0,1-4.95,1.29c-1.8-.7-1.89-2.4-1.93-4-.13-5.33,1.36-10.42,2.59-16.25-2.91,4.43-6.82,7.05-9.9,10.55-2.61,3-5.55,6.15-10.22,6.18a4.83,4.83,0,0,1-5.17-3.6,27,27,0,0,0-2.11-4.49c-1-1.87-2-1.63-3.3-.43-.74.71-1.5,1.4-2.25,2.1-2.3-3.44-2.24-4.05.79-6.77a62.18,62.18,0,0,0,5.35-5,3.27,3.27,0,0,1,5.84,1.37c.71,2.59,1.14,5.25,1.82,7.85.63,2.37,1.91,2.92,4,1.78a11.42,11.42,0,0,0,2.64-2,81.71,81.71,0,0,0,15.1-20.27,3.18,3.18,0,0,0,.15-.76c-2.63,0-5.2.1-7.76,0-4-.19-5.22-2.59-3.27-6.14a2.06,2.06,0,0,1,2.13-1.16c3.29.23,6.58.12,9.86.18a3.27,3.27,0,0,0,3.41-2.07c.9-1.57,1.3-3.4,2.55-4.79a2.39,2.39,0,0,1,2.54-.87,1.81,1.81,0,0,1,1.33,2.23c-1.5,3.61.18,7.21-.22,10.78-.1.91-.23,2-1.31,2-2.15,0-2.43,1.45-2.89,3-1.85,6.3-3.71,12.59-4.55,19.13-.11.86-.45,1.93.44,2.39s1.37-.57,2-1c3.81-2.88,6.94-6.46,10.17-9.93,1.4-1.51,2.56-3.12,2.4-5.63s6.07-4.84,8.35-3.19c5.76,4.17,7.1,8.86,4.46,15.51a28.91,28.91,0,0,0-1,3.15c-.13.47-.54,1.1.15,1.49s1.08,0,1.5-.4c1.26-1.08,2.49-2.2,3.76-3.27a2.12,2.12,0,0,1,1.69-.72,1.6,1.6,0,0,1,1,1.06C389.27,465.78,389.82,466.74,389.11,467.71Z"/><path class="cls-3" d="M279.23,444.58a63.25,63.25,0,0,0-1.91,10.2c-.85,5.63-1.56,11.28-2.35,16.92-.25,1.79-3.38,3.66-5,3.06-.63-.23-.43-.69-.46-1.16-.25-3.79.82-7.52.76-11.25-.1-5.88,1.69-11.56,1.35-17.43a8.14,8.14,0,0,1,.27-3c1.44-4.33.56-9,1.95-13.31.2-.6-.44-1.26-.44-2a10.18,10.18,0,0,1,8-10c2-.41,1.94,1.31,1.74,2.47a39.53,39.53,0,0,0-.45,8.49,34.62,34.62,0,0,0,3.53,14.15c2.38,4.78,4.92,5.32,8.86,1.81a65.41,65.41,0,0,0,11.72-14,18.31,18.31,0,0,1,5.26-5.71c.88-.59,1.77-1.72,2.93-1.07s1,2,1,3a44.74,44.74,0,0,1-1.29,10.82q-2.4,9.65-5.29,19.15c-1.21,4-1.53,8.22-2.54,12.29-.69,2.8-3.21,3.72-4.77,5.6a.69.69,0,0,1-1.06,0,1.43,1.43,0,0,1-.15-1.34c2.31-10.9,3.1-22.07,5.86-32.9a4.57,4.57,0,0,0,0-1.06c-1.28,0-1.83.95-2.39,1.71a60.14,60.14,0,0,1-11.54,11.5c-3.23,2.54-6.75,2.36-9.45-.85A71.27,71.27,0,0,1,279.23,444.58Z"/><path class="cls-3" d="M773.29,438.27c-1.36.18-1.91,1.22-2.54,2.07a58.11,58.11,0,0,1-11.43,11.27c-3.18,2.47-6.51,2.12-9.3-.87-1.63-1.75-2.44-4.05-4.13-6.15-1.13,3.31-1.37,6.52-1.86,9.66-.89,5.71-1.59,11.44-2.36,17.16-.28,2.06-3.12,3.95-5,3.36-.64-.2-.49-.64-.52-1.11-.22-3.8.81-7.53.76-11.26-.08-5.87,1.67-11.56,1.36-17.42a8.39,8.39,0,0,1,.26-3.05c1.46-4.32.68-8.94,1.86-13.33.29-1.11-.31-2.72-.12-4.12.49-3.47,4.56-7.7,8-8,1.76-.18,1.79,1.39,1.59,2.49a39,39,0,0,0-.46,8.5A34.42,34.42,0,0,0,753,441.8c2.33,4.6,4.88,5.11,8.74,1.67a65.15,65.15,0,0,0,11.86-14.15,18.55,18.55,0,0,1,6.1-6.2c1.79-1.1,2.61-.75,2.82,1.38a38.59,38.59,0,0,1-1.69,14.3c-1.61,5.69-3,11.43-4.77,17.08-1.27,4-1.47,8.4-2.65,12.51-.72,2.54-3,3.68-4.83,5.24-.77.69-1.25-.29-1.07-1.09,2.32-10.58,3-21.44,5.63-32A4.09,4.09,0,0,0,773.29,438.27Z"/><path class="cls-3" d="M455.55,416.63c3.83.4,7.24.74,10.64,1.14a1.52,1.52,0,0,1,1.29,1.52,37.47,37.47,0,0,1,0,4.74c-.08,1.29-1.17,1-2,1-2.2.08-4.22-1.15-6.52-.76-1.93.33-2.14.62-.78,2.14,2.11,2.38,1.8,5.32,1.13,8.13-1.23,5.15-2.28,10.37-3.06,15.55-1.13,7.5-2.86,15-2,22.76.15,1.41-2.22,3.52-3.6,3.37-.91-.1-1.07-.68-1.16-1.48-1.23-11-.26-21.91.86-32.84.45-4.44,1.16-8.83,1.71-13.25.43-3.52-.14-3.94-3.53-3-2.82.77-5.66,1.49-8.46,2.31-1.53.46-2-.17-1.6-1.49.52-1.68.67-3.41,1-5.1.42-2,2-2.87,3.77-3.14C447.49,417.61,451.72,417.12,455.55,416.63Z"/><path class="cls-3" d="M388.58,464.78l-.52-1a4.63,4.63,0,0,1,1.61-2.29c5-3.37,8.88-8,13.63-11.62,2.13-1.64,4.13-3.46,6.66-4.48,1.44-.58,3.24-1.36,4.31.28,1.18,1.81-.4,3-1.65,4.13a173.84,173.84,0,0,0-15.51,15.91,17.71,17.71,0,0,0-1,1.55,3.84,3.84,0,0,0,2.66-1.31c2.61-2.28,5.2-4.6,7.8-6.9.29-.26.58-.53.9-.77,1.39-1.05,2.88-2.37,4.67-1.61,2,.83,1.12,2.86,1.2,4.44a10.71,10.71,0,0,0,.23,3.29c.83,2.23,2.52,2.55,4.12.85.59-.63,1.16-2.37,2.13-1.24.81.95,2.2,2.58.46,4.17a29.87,29.87,0,0,1-3.9,3.46c-4.33,2.77-8.46,1-9.38-4-.12-.68-.29-1.35-.48-2.21a40.44,40.44,0,0,0-6.45,5.43,23.21,23.21,0,0,1-6.28,4.61c-1.65.89-3.38,1.29-4.86-.05s-1.4-3.21-.84-5.07c.3-1,1.33-1.58,1.4-2.68S388.86,465.75,388.58,464.78Z"/><path class="cls-6" d="M872.15,442.71c-2.65-.17-3.83-2-2.74-4.68,1.23-3,4-4.45,6.44-6.26a2.67,2.67,0,0,1,3.12.15c1,.79.43,1.87.19,2.85-.71,2.92-1.33,5.89-4.48,7.34A4,4,0,0,1,872.15,442.71Z"/><path class="cls-6" d="M323.5,439.53a4.42,4.42,0,0,1,.87-2.64c1.3-2.13,3.58-3.21,5.33-4.87a3,3,0,0,1,3.55-.17c1.18.74.5,2,.28,3-.68,3.15-1.58,6.22-5,7.48C326.12,443.26,323.19,442.91,323.5,439.53Z"/><path class="cls-7" d="M388.58,464.78c.65.86,1.55,1.64.9,2.9l-.18.05-.19,0C388.93,466.74,388.76,465.76,388.58,464.78Z"/><path class="cls-8" d="M679.63,469l1.21-1.68c.33,1.22-.12,1.49-.59,1.76Z"/><path class="cls-5" d="M741.59,352.35a7.37,7.37,0,0,1-5-3.33,40.59,40.59,0,0,1-3.19-5.82Q721,314.87,708.57,286.52c-.31-.71-.25-1.95-1.41-1.93s-1.08,1.21-1.41,1.94q-11.6,26-23.16,52a51.47,51.47,0,0,1-5.21,9.84c-3.36,4.56-8.26,5.33-12.86,2.05a29,29,0,0,1-5.83-5.56c-8.25-10.35-16.45-20.73-24.77-31-1.12-1.39-.79-1.92.41-2.88,6.45-5.13,12.76-10.44,19.24-15.52,4-3.14,7.61-7.09,13.21-7.46.79-.05.78-.62.77-1.2,0-.83-.62-.77-1.16-.77q-12.14,0-24.26,0c-.74,0-1.21.13-1.17,1,0,.74.38.91,1,1a24.46,24.46,0,0,1,3.54.44c2.7.63,3.66,2.86,2.26,5.25a12.5,12.5,0,0,1-2.95,3.38c-4.29,3.5-8.56,7.05-12.86,10.55-4.46,3.65-9,7.27-13.73,11.15,0-8.47-.13-16.38,0-24.29.11-4.58,1.65-5.95,6.17-6.47.74-.09,1.66.22,1.57-1.11s-1.13-.85-1.77-.86q-15.21,0-30.44,0c-.65,0-1.7-.5-1.72.9s1,.93,1.67,1c6.35.4,7.84,2,7.84,8.38q0,24,0,48a21,21,0,0,1-.22,3.07c-.42,2.95-1.54,4.18-4.41,4.82a26,26,0,0,1-3.3.38c-.73.07-1.67-.26-1.57,1.08s1,.8,1.58.81c3.65,0,7.3,0,10.94,0,6.74,0,13.48,0,20.22,0,1.18,0,1.92-.23,1.52-1.54-.25-.84-1.08-.39-1.65-.45-3.77-.39-6.07-1.78-6.3-4.35-.69-7.75-.2-15.53-.31-23.29,0-1.36,1.22-1.84,2.11-2.34s1.19.7,1.62,1.22q2.88,3.48,5.62,7.07c4,5.29,8.57,10.2,12.08,15.88,2.11,3.43,1.47,4.71-2.4,5.61-.6.14-1.55-.18-1.72.85-.3,1.8,1,1.38,2,1.38q26.86,0,53.75,0h1c.65,0,1-.18,1-.93s0-1.09-.83-1.14-1.72-.24-2.59-.35c-4.66-.62-6.43-3.09-5-7.59.91-2.92,2.37-5.68,3.48-8.55.38-1,1-1,1.86-1,7,0,14,.05,20.93,0,1.21,0,1.63.53,2,1.47,1.09,2.63,2.25,5.24,3.35,7.86,2.74,6.52,2.05,7.65-5,8.25-.72.06-1.71-.18-1.58,1.15s1,.79,1.62.79q15,0,30,0c.6,0,1.47.37,1.56-.84S742.3,352.49,741.59,352.35Zm-51.24-21.28,10.26-23.2c3.45,8,6.71,15.54,10,23.2Z"/><path class="cls-3" d="M1101.46,463.47c-2.25,1.37-3.73,3.76-6.63,5.16.61-1.91,1-3.33,1.51-4.72a52.22,52.22,0,0,0,2.94-13.41c.14-1.64.45-3.46-1.52-4.33a4.31,4.31,0,0,0-5.17,1.13c-3.63,3.63-7.38,7.14-10.95,10.82-1.51,1.56-3.82,2.12-5,4-1.35,2.25-3.44,3.15-5.79,3.76-2,.53-3.9.14-5.05-1.63-1.26-1.95.37-3.17,1.59-4.43,3-3.13,6.08-6.23,7.12-10.72.58-2.51,0-5.27-1.58-6.22s-4.58-.54-6.36,1.21c-3.5,3.43-6.48,7.35-7.29,12.25a10.54,10.54,0,0,1-3.79,6.72c-2.09,1.78-3.91,3.95-6.92,5.76.69-2.15,1.11-3.57,1.6-5a51.61,51.61,0,0,0,3-14.36c.08-1.34-.09-2.57-1.43-3.26a4.19,4.19,0,0,0-4.09.07,5.6,5.6,0,0,0-1.27,1.06c-5.86,6.06-12.16,11.66-18.34,17.38-1.22,1.12-2.4,2.41-4.29.91-2.78-2.21-3.74-4.4-2.47-6.6s2.61-4,3.89-6a11.42,11.42,0,0,0,2.3-5.89c0-1.08.26-2.38-1.15-2.8s-1.8.76-2.31,1.61c-1.88,3.11-3.68,6.27-5.56,9.39-.47.79-.92,1.62-2,1.85-2.63.57-3.6,2.4-3.94,5-.42,3.25-2.17,5.9-4.26,8.43a1.27,1.27,0,0,1-.37-1.56c2.44-8.08,4.09-16.43,8.07-24a71.09,71.09,0,0,0,5.11-12c.8-2.57,1.49-5.18.81-7.93-.32-1.32-.9-2.39-2.35-2.66s-2.07.9-2.55,2c-2.5,5.62-5,11.26-7.12,17.05-2.85,7.83-6.33,15.29-12.17,21.43a2.36,2.36,0,0,1-2.24,1c-1-.21-1.35-1-1.46-1.93-.2-1.57-.32-3.15-.5-4.73-.12-1-.24-2.17-1.48-2.45s-2.56-.39-3.54.7a11.9,11.9,0,0,0-1.38,1.93,61.67,61.67,0,0,1-6.84,9.08c-.71.83-1.8,1.77-2.8,1.47s-.74-1.76-.8-2.73a18.7,18.7,0,0,1,.15-3.08c.48-4,1.9-7.82,3.08-11.68.25-.8.74-1.67-.07-2.44s-1.74-.26-2.64,0a6.58,6.58,0,0,0-3.57,2.93A82.77,82.77,0,0,1,964,462.82c-.48.48-.9.93-1.6.72-.87-.25-.6-1-.58-1.6a12,12,0,0,0-3.76-9.4c-1.24-1.22-2.3-2.62-3.42-4-1.92-2.31-3.93-4.56-5.71-7-1.52-2.05-2.95-4.44-2.12-7,1.29-4,4.65-6.3,7.93-8.56,0,1.37-1.2,1.71-1.94,2.42s-1.77,1.6-1,2.81,1.9.5,2.75.05a60.2,60.2,0,0,0,9.89-7c1.29-1.07,1.74-5.08.78-6.47-1.39-2-3.27-1.2-4.92-.51a56,56,0,0,0-10.75,5.46c-4.14,2.89-7.92,6-10,10.85-1.52,3.57-2,7.29.18,10.46,1.74,2.55,3.44,5.26,6,7.28a33.66,33.66,0,0,1,8,9.3c.51.86,1.36,1.93.61,2.83a19.2,19.2,0,0,0-2.72,5.24c-.8-2.78-1-2.89-2.86-2-2.94,1.35-5.86,2.77-8.79,4.16a8.6,8.6,0,0,0-3,2.26,2.21,2.21,0,0,0,0,3.22c1.5,1.44,3.21,2.47,5.53,1.84,5.36-1.46,9.7-4.57,13.71-8.22a4.9,4.9,0,0,1,3.29-1.54c3.13-.14,6.11-.68,8-3.74a1.74,1.74,0,0,1,1.78-1.07c.34,2.48.57,5,1.07,7.46.61,3,2.78,4.31,5.62,3.6a7.42,7.42,0,0,0,3.78-2.36q2.65-3,5.3-6.1c1.68-1.95,1.68-2,2.66.51,1.45,3.63,4.14,4.67,7.59,2.92a11.68,11.68,0,0,0,5.07-4.09,32.06,32.06,0,0,1,3.18-3.69,10.38,10.38,0,0,1-.61,4.42,29.8,29.8,0,0,0-1.2,8.91c0,1.45.44,2.74,1.92,3.22a3.23,3.23,0,0,0,3.79-1.17c1.89-2.33,4-4.45,5.88-6.83,1.46-1.9,2.65-2.06,4.23-.25a13.76,13.76,0,0,0,2.37,2c2.32,1.69,3.93,1.72,6.25,0a40.4,40.4,0,0,0,5.79-5.61,78.54,78.54,0,0,1,11.08-10c1.35-1.06,2-.49,2,1.1a46.55,46.55,0,0,1-.94,7.53c-.21,1.11-.57,1.14-1.57.61a2.44,2.44,0,0,0-3.53,2.16c.12,3,0,6,1.33,8.83.58,1.26,1.07,1.61,2.27,1a12.66,12.66,0,0,0,2.14-1c4-3,7.9-6,11.78-9.12,2.53-2,2.59-2.06,3.85.91,1.51,3.57,3.6,4.88,7.46,4.29a15.09,15.09,0,0,0,10-5.83c3.19-4.11,7.32-7.2,11.31-10.44,1.2-1,2.07-.83,2.06.94a43.11,43.11,0,0,1-1,7.76c-.19,1-.55,1-1.45.53a2.42,2.42,0,0,0-3.6,2c.12,2.42-.12,4.88.74,7.26,1.25,3.46,2.35,3.82,5.31,1.49.18-.14.31-.37.51-.49,3-1.92,5.43-4.56,8.5-6.41C1103.6,467.62,1103.62,467.12,1101.46,463.47ZM1067.81,451a.9.9,0,0,1,.84-.19c.44.3.37.83.22,1.28-.68,2-2.52,3-3.86,4.46A8.28,8.28,0,0,1,1067.81,451Z"/><path class="cls-5" d="M322.63,321.71a54.53,54.53,0,0,0-9.35-3.13c2.41-.93,4.49-1.65,6.51-2.55,4.09-1.81,7.16-4.66,8.38-9.1,2.22-8.05-3.19-17-11.75-19.53A37.19,37.19,0,0,0,306.1,286c-11.8-.07-23.62,0-35.43,0l-.95,0c-.65,0-.74.42-.74.94s.08,1,.72,1,1.11,0,1.67,0c5.08.33,6.82,1.95,6.84,7.06q.14,25,0,49.93c0,5.71-1.71,7.24-7.36,7.57-.73,0-1.92-.53-1.89,1s1.23.93,1.94.93c11.8,0,23.62.15,35.42,0,7-.11,13.7-1.53,19.36-6.05A15.59,15.59,0,0,0,322.63,321.71ZM296,289.34c4.21.22,8.44.38,11.74,3.52,4.54,4.31,4.54,9.74,3.24,15.21-1.17,5-4.84,7.62-9.69,8.62-1.77.37-3.62.37-5.42.59-1.29.16-1.6-.41-1.59-1.61.06-4.12,0-8.24,0-12.35s.05-8.24,0-12.35C294.26,289.59,294.69,289.26,296,289.34Zm17.87,49.16a13.7,13.7,0,0,1-14.38,12.55c-3.31-.1-5.11-1.83-5.17-5.18-.07-3.87,0-7.75,0-11.63s.05-7.91,0-11.86c0-1.36.36-1.8,1.72-1.64,1.88.23,3.79.21,5.66.47C310,322.37,314.78,329.16,313.89,338.5Z"/><path class="cls-3" d="M896.94,455.86a98.38,98.38,0,0,0,14.27-20.64A49.45,49.45,0,0,0,915.5,424c.38-1.58.82-3.53-.82-4.61-1.84-1.21-3.89-1.5-5.7.4-.87.91-1.93,1.64-2.83,2.53-9.43,9.48-15.17,21-17.92,33.93-1.06,5-4.62,7.35-8.15,9.9-1.94,1.4-3.39.63-4-1.73-.68-2.59-1.11-5.26-1.82-7.84a3.28,3.28,0,0,0-5.85-1.41c-3.26,3.54-7.17,6.44-10,10.38-1,1.38-2.58,1.06-3.5-.44-.8-1.31-.5-2.76-.54-4.17s.66-3.42-1.17-4.25-3.14.46-4.5,1.43c-.38.27-.73.6-1.09.91-2.6,2.31-5.19,4.62-7.8,6.91a4.06,4.06,0,0,1-2.4,1.34,1.85,1.85,0,0,1,.71-1.53,173,173,0,0,1,15.52-15.94c1.26-1.15,2.84-2.33,1.65-4.13-1.07-1.64-2.87-.85-4.32-.27a21.13,21.13,0,0,0-6.11,4.05c-6.07,5.34-12.07,10.75-18.17,16.07-1.23,1.07-2.49,3.44-4.07,2.41-1.14-.75.34-3,.92-4.52,2.58-6.56,1.13-11.5-4.63-15.47A4,4,0,0,0,814,448c-1.52,1-3.93,1.51-3.34,4.24.26,1.17-.54,1.93-1.06,2.78-1.78,2.87-4.55,4.83-6.74,7.32a10.91,10.91,0,0,1-5.33,3.36c-2.43.71-5,.05-5.73-1.54-1.08-2.2.66-3.33,1.91-4.61,3.18-3.25,6.21-6.59,7.1-11.27a5.18,5.18,0,0,0-1.52-5.2c-1.54-1.26-3.45-.86-5.17-.06a6,6,0,0,0-1.72,1.24c-3.12,3.23-5.78,6.81-6.89,11.2-.69,2.68-1.05,5.26-3.47,7.17-1.41,1.11.5,2.36.69,3.59,0,.24.19,1,.63.69,2.76-2.09,2.59.81,3.15,1.95,1.47,3,2.91,4.14,6.29,4a13.08,13.08,0,0,0,8.43-3.26c2-1.86,4-3.78,6-5.72,2.3-2.29,4.45-4.72,6.82-6.93,1.7-1.59,3.08-1.09,3.82,1.15a9.63,9.63,0,0,1,.11,4.71,33.7,33.7,0,0,1-2.78,8.79c-.54,1.14-1.07,2.47.13,3.49a3.51,3.51,0,0,0,3.81.33,10.35,10.35,0,0,0,1.46-.8l8-5.12a2.53,2.53,0,0,0,.62-.3,1,1,0,0,1,0,.88c-.65,2-.89,4,.91,5.46s3.71.5,5.51-.51a22.35,22.35,0,0,0,5.62-4.32,41.94,41.94,0,0,1,6.29-5.28c.18.77.34,1.36.45,2,1,5.4,5.31,7.18,9.8,3.93a37.22,37.22,0,0,0,4.19-3.86c4.27-4.25,4.54-6,7.68,1.59,1.57,3.79,3,4.78,7.07,4.31,1.82-.22,3.15-1.43,4.52-2.46,1.78-1.34,3.47-2.8,5.64-4.57-1,3.1-.31,5.57.11,8.05.21,1.31.18,2.78,1.94,3.16a4.35,4.35,0,0,0,4.35-1.16,31.81,31.81,0,0,0,4.64-6.3,18.31,18.31,0,0,1,3.51-4.43c1.45,3.61,3.75,5.59,7.76,4.85a14.89,14.89,0,0,0,4.7-2.15c1.17-.69,1.84-1.34,1-2.8-.66-1.12-.72-2.52-2.77-1.94-2.45.7-3.68-.19-4.45-2.61-.34-1.06-.66-2.12-.92-3.19s-.47-2.6-1.79-2.83a4.21,4.21,0,0,0-3.58,1.5,14.17,14.17,0,0,0-2.34,3.83c-1.06,2.21-2.12,4.43-3.24,6.6a8.78,8.78,0,0,1-3,3.47c-.15-.25-.28-.37-.29-.5a7.5,7.5,0,0,1,0-1.42C892.78,463.88,893.6,459.59,896.94,455.86Zm12.33-29.15c.25-.33.58-.86,1.13-.59s.32.78.14,1.22c-3.3,8-7.35,15.46-13.7,22.29C898.85,440.33,904,433.48,909.27,426.71ZM793.42,451.29c.29-.36.78-.74,1.21-.49s.41,1,.18,1.48a11.7,11.7,0,0,1-3.84,4.17C791,454.31,792.23,452.79,793.42,451.29Z"/><path class="cls-5" d="M407.2,352.35a7.77,7.77,0,0,1-5.64-4.3c-.89-1.59-1.8-3.17-2.53-4.83q-12.43-28.32-24.85-56.66c-.31-.72-.26-1.94-1.38-2s-1.11,1.17-1.44,1.9c-3.95,8.79-7.82,17.61-11.79,26.39C354.71,323.6,350.28,334.51,345,345c-1.71,3.4-3.89,6.37-7.94,7.26a1.13,1.13,0,0,0-1,1.34c.07,1,.79.81,1.38.81h20c.6,0,1.29.16,1.31-.86,0-.82-.29-1.12-1.08-1.16s-1.57-.22-2.35-.32c-4.66-.62-6.43-3.09-5-7.59.91-2.93,2.37-5.68,3.48-8.55.38-1,1-1,1.86-1,7,0,14,.05,20.92,0a1.9,1.9,0,0,1,2,1.47c1.15,2.77,2.38,5.52,3.53,8.29,2.5,6,1.6,7.4-4.89,7.83-.72,0-1.95-.4-1.82,1.12.12,1.35,1.19.79,1.83.8,4.92.05,9.83,0,14.74,0s10,0,15,0c.6,0,1.49.39,1.59-.82C408.58,352.58,407.94,352.48,407.2,352.35ZM356,331.06l10.25-23.2,10,23.2Z"/><path class="cls-3" d="M711.36,463.89c-.65-.79-1.38.46-1.87,1.05-.67.83-1.3,1.67-2.53,1.33a2.76,2.76,0,0,1-2-2.69c-.13-1.42,0-2.85,0-4.28-.08-2.75-1.36-3.55-3.87-2.39a15.62,15.62,0,0,0-3.75,2.88c-2.57,2.33-5.22,4.58-7.89,6.81-.39.33-.88,1-1.69.29a30.2,30.2,0,0,1,2.91-3.75c4.85-4.53,9-9.75,14.2-13.95,1.07-.87,1.9-2.09,1-3.53s-2.29-1-3.45-.62a16.68,16.68,0,0,0-5.35,3c-5.61,4.21-10.3,9.52-16.06,13.56a6.34,6.34,0,0,0-1,1.3,44.42,44.42,0,0,1-7.28,6.86c.33-1.16.46-1.67.62-2.17,1.43-4.52,3.52-8.81,4.64-13.44.43-1.82,0-2.72-2.06-2.68a5.52,5.52,0,0,0-3.94,1.84c-4.34,4.15-8.3,8.73-13.18,12.31-.46.33-1,1-1.64.46-.47-.41-.24-1-.09-1.58.7-2.51,1.51-5,2.07-7.54.23-1.07.69-2.49-.61-3.25a2.87,2.87,0,0,0-3.71.6c-3.62,4.24-8.58,7-12.33,11.05-1.35,1.48-2.84,1.26-3.78-.52-.67-1.27-.38-2.63-.42-4-.06-1.52.66-3.43-1.19-4.24s-3.15.48-4.5,1.45c-.38.28-.73.6-1.09.92-2.6,2.3-5.19,4.62-7.8,6.91a3.94,3.94,0,0,1-2.63,1.32c2.34-4.34,6.16-7,9.18-10.41a70.26,70.26,0,0,1,8.2-7.88,2.49,2.49,0,0,0,.9-3.17c-.7-1.42-2.08-1.08-3.16-.85a15.17,15.17,0,0,0-5.6,3c-5.69,4.25-10.42,9.62-16.25,13.7-.37.26-.55.77-.86,1.12a28.71,28.71,0,0,1-11.89,8.35c-2.09.76-4,.54-5.34-1.23s-.64-3.81.16-5.63a5.56,5.56,0,0,1,1.76-1.89c3.38-2.6,6.39-5.7,10.38-7.46a4,4,0,0,0,2.19-2.09c.61-1.51.91-3.27,0-4.54s-2.68-.47-3.91.12a43.65,43.65,0,0,0-9.13,5.91c-4.34,3.63-8.89,7-12.8,11.18-1.1,1.17-2.46,3.46-4.05,2.4-1.12-.74.35-3,.94-4.52,2.57-6.55,1.1-11.52-4.65-15.46a4,4,0,0,0-4.89.15c-1.51,1-3.93,1.5-3.31,4.24.24,1.08-.47,1.79-1,2.58-1.77,2.88-4.51,4.87-6.72,7.34a11.48,11.48,0,0,1-6.19,3.69c-2.06.49-3.91,0-5-1.76s.4-3,1.58-4.25c3-3.13,6.1-6.22,7.18-10.7.6-2.49,0-5.29-1.46-6.27s-4.56-.64-6.37,1.09c-3.84,3.69-6.8,8-7.65,13.36A8.31,8.31,0,0,1,541,462c-1.44,1.6-2.16,1-2.91-.47-.89-1.76-1.65-3.61-2.66-5.29a4.06,4.06,0,0,0-4.12-2.3c-1.71.24-2.61,1.42-3.41,2.93-3.14,6-8.17,24.31-8.79,25.32-.51-1.48,2-11.42,2.49-13.67,1.79-8.95,5.48-17.32,7.9-26.08.48-1.72,1.42-4.17-.51-4.92-2.31-.9-2.92,1.84-3.66,3.46-3.5,7.63-7.42,15-13.13,21.25a43.79,43.79,0,0,1-3.76,3.3c-1.35.94-2.48,3.47-4.09,2.41-1.13-.74.34-3,.92-4.51,2.58-6.56,1.15-11.46-4.6-15.47-2.3-1.6-8.5.77-8.27,3.36.2,2.34-.9,3.81-2.16,5.25-2.19,2.48-4.54,4.84-6.94,7.13a9.1,9.1,0,0,1-5.58,2.38,4,4,0,0,1-4.23-2c-.77-1.54.15-2.71,1.27-3.73.52-.48,1-1,1.51-1.51,2.85-3,5.46-6.16,6.28-10.4a5.38,5.38,0,0,0-1.43-5.23c-1.34-1.24-3.14-.91-4.73-.32a6.6,6.6,0,0,0-2.33,1.58c-3.87,4.1-6.9,8.65-7.44,14.47a2.58,2.58,0,0,1-.74,1.67c-2.73,2.86-2.71,2.88-1,6.44,2-1.17,2.18-1.1,3.13,1.11,1.76,4.07,3.64,5.39,7.62,4.72a13.4,13.4,0,0,0,7.47-3.28c2-1.93,4-3.8,6-5.75,2.29-2.28,4.45-4.7,6.82-6.9,1.59-1.49,2.94-1,3.7,1.08a9.1,9.1,0,0,1,.17,4.69,32.48,32.48,0,0,1-2.74,8.8c-.55,1.14-1.13,2.47,0,3.52a3.2,3.2,0,0,0,4,.38c3.95-2.31,8-4.44,11.37-7.67.15-.28,2.41-3.16,4.27-3.89a15.15,15.15,0,0,1-.31,4.31c-1.61,7.84-2.93,15.72-2.92,23.75,0,1.64,0,3.68,1.9,4.21,2.1.57,2.91-1.52,3.49-2.9,1.39-3.26,2.46-6.66,3.56-10,1.86-5.69,3.28-11.54,6-16.95,1.78-3.6,2-3.63,4.76-.75,2.25,2.34,5.83,3.45,8.12,1.79,2.56-1.84,3-.38,3.7,1.5,1.4,3.47,3.8,4.84,7.56,4.09,2.69-.54,5.37-1.34,7.43-3.4,1.9-1.9,3.89-3.7,5.79-5.6,2.29-2.28,4.45-4.7,6.82-6.91,1.6-1.49,3-1,3.71,1a9.59,9.59,0,0,1,.15,4.93,33.62,33.62,0,0,1-2.8,8.79c-.52,1.08-1,2.32,0,3.31a3.47,3.47,0,0,0,3.79.51,8.68,8.68,0,0,0,1.66-.91,103.33,103.33,0,0,0,9.53-6.31c0,4.4,2.91,8.48,6.56,8.85,4,.4,7.86-.31,10.88-3.08,2.3-2.1,5.23-3.2,7.38-5.48.42.7,0,1.07-.12,1.51-.71,1.88-.89,3.84.68,5.3s3.49.86,5.27-.09a25.68,25.68,0,0,0,6.72-5.22,33.13,33.13,0,0,1,5.7-4.62l.51,2.62c.77,4,4.27,5.92,8,4.26a12.9,12.9,0,0,0,3.64-2.64c1.48-1.42,3-2.8,4.56-4.16.37-.33.75-1,1.39-.54s.52.95.51,1.51c0,1.41,0,2.83,0,4.25,0,2.56.65,3.19,3.27,3.11a6.12,6.12,0,0,0,4.17-2c2.77-2.67,5.61-5.27,8.44-7.87.32-.29.69-.79,1.2-.53s.38.8.31,1.28c-.85,5.63-2.59,11-6.41,15.27a177.61,177.61,0,0,0-12.5,16.06c-.71,1-1.4,2.22-.64,3.28.85,1.21,2.31.69,3.5.35a13.49,13.49,0,0,0,6.09-4.38,67.74,67.74,0,0,0,8.11-12A44.56,44.56,0,0,1,679.63,469c.22,0,.47-.37.62.08-.16.36-.35.71-.49,1.08-.69,1.9-.82,3.85.8,5.28s3.37.82,5.08-.12a23.57,23.57,0,0,0,6.07-4.51,35.35,35.35,0,0,1,6.47-5.39c.2,1.13.35,2.06.54,3a5.28,5.28,0,0,0,6.52,4.35c3.16-.65,5.22-3,7.12-5.27C713.33,466.35,712.12,464.8,711.36,463.89ZM475.41,451.1c.25-.28.69-.53,1-.28a1.05,1.05,0,0,1,.18,1.3c-.74,1.92-2.39,3.06-3.87,4.4C472.81,454.27,474,452.63,475.41,451.1Zm76.47.1c.27-.33.73-.7,1.2-.33s.28.9.11,1.32c-.77,1.83-2.33,3-3.82,4.29C549.32,454.26,550.62,452.74,551.88,451.2Z"/></svg>