<svg id="Layer_1" data-name="Layer 1" xmlns="http://www.w3.org/2000/svg" viewBox="0 0 1106.13 743.43"><defs><style>.cls-1{fill:#e77817;}.cls-2{fill:#074f95;}</style></defs><title>bank-kaltim</title><path class="cls-1" d="M224.41,243.14c19.68,8.87,34.61,24.31,37,47.46,3.29,31.19-20.14,61.2-51.39,66.73a243.48,243.48,0,0,1-24.55,2.9c-32,2.38-39.83,8.31-49.24,39V229.86C158.06,229.86,216.36,239.51,224.41,243.14Z"/><path class="cls-2" d="M298.29,329.66V501.6c0,3.56.21,7.13-5,7.18-31.93.31-63.82,3-92.4-17.44-26.58-19-40-41.27-34.86-64.47,6.68-30.22,30.39-51.18,62.82-55.4,8.6-1.12,17.23-2,25.87-2.83C282.22,366,291.41,357.5,298.29,329.66Z"/><path class="cls-2" d="M3.18,327.84c2,4.53,2.75,5.51,2.89,6.57,3.71,27.86,16.12,32.31,42.65,36.45,9,1.41,18.16,1.84,27.23,2.92,35.6,4.24,62,34.49,60.26,69.61-1,20-13.81,33-28.4,44.66C84.08,507,56.9,512,27.14,510.06c-23.84-1.51-23.91-.3-23.92-23.85q0-72.49,0-145Z"/><path class="cls-2" d="M978.19,463.67c0-11.73-.22-23.48.14-35.21.11-3.7-2.77-10.23,4.16-10.13,5.74.08,13.64-4.45,17.12,3.5,2.08,4.75,2.86,3.34,6,1.45,19.07-11.55,24.42-11.44,40.21,2.23,4.06,3.51,5.25,1.77,7.94-.78,9.23-8.73,19.66-12.07,32.11-7,13,5.27,16.29,16.22,16.63,28.37.55,19.12-.17,38.27.44,57.38.34,10.41-6.49,7.89-12.14,8.18-6.34.32-11.87.91-11.43-8.9.77-16.92.25-33.9.11-50.85-.07-7.63-.67-15.75-10.71-16.25-10.24-.51-15,6.46-15.45,15.63-.78,16.92-1.31,33.91-.62,50.82.42,10.53-5.55,9.37-12.29,9.68-7.15.33-11-.56-10.85-9.52.33-18.22,1.45-36.52-1.12-54.7-.82-5.78-1.39-11.64-9.09-12s-13.63,2.49-15.76,10.55c-4.65,17.54-2.17,35.46-2.2,53.19,0,9-1.21,12.85-11.77,12.84-10.85,0-12-4.46-11.57-13.23C978.64,487.17,978.19,475.41,978.19,463.67Z"/><path class="cls-2" d="M392.18,425c29.67-18.31,52.44-7.57,58.68,26.59a71.63,71.63,0,0,1-2.48,34.79c-9.05,28.54-34.25,34.52-58.7,12.78,2.64,12.45-4.15,12.73-12.8,12.7-11.85,0-7.67-8.43-7.72-13.8-.3-35.27.26-70.55-.41-105.8-.2-10.47,4.65-10.55,12.51-10.76,8.32-.22,11.74,1.87,11.1,10.79C391.6,403,392.18,413.73,392.18,425Zm.08,36.95c-.56,7.44-.18,14.77,3.61,21.39,3.41,6,8.58,10.29,15.63,9.68s12-5.3,14.15-11.85a54.17,54.17,0,0,0-.13-34.39c-2.07-6.28-6.46-11-14.21-11.28-7.36-.27-12.41,2.87-15.94,9C392.23,449.89,391.69,455.85,392.26,462Z"/><path class="cls-2" d="M689.15,470.75C676.58,477.86,679,490,679.7,500.84c.68,10.11-4,11.09-12.24,11.06-7.89,0-11.51-1.25-11.37-10.53q.84-54.84,0-109.71c-.17-9.9,4.43-10.13,11.75-10.06,7.17.07,12.38-.1,11.89,10-.87,17.81-.24,35.68-.24,57,15-16,23.31-40.77,50.94-28.6-6.68,7.94-13.33,16.34-20.53,24.25-4.75,5.21-5.47,9.63-1.83,16.11C717.12,476.58,725.3,493.24,734,510c-22.63,4.14-22.62,4.14-32.29-15.12-3.49-7-7.06-13.91-10.62-20.85C690.47,472.84,689.75,471.77,689.15,470.75Z"/><path class="cls-2" d="M517,501.44c-6.91,6.34-13.9,10.43-22.31,11.59-14.14,2-27.73-6.68-31.13-19.83-3.6-13.92,2.75-27.93,16.13-33.1,8.81-3.42,18.2-5.38,27.42-7.65,3.93-1,8.06-1.24,7.92-6.63s-3-9-8.47-9.83c-7.46-1.14-15-1.92-19.11,6.65-1.64,3.45-4.38,4.74-7.29,2.93-4.44-2.76-12.2,1.08-13.71-4.75-1.35-5.21,2.7-10.9,6.6-14.85,13.32-13.49,29.6-12.18,46.13-8.12,14.73,3.61,17.47,15.24,18.28,28,1.3,20.26-2.83,40.8,3.23,60.81,1,3.33-.73,5.43-3.84,4.8-6.22-1.25-14.21,4.49-18.53-4.38C517.63,505.73,517.57,504.06,517,501.44ZM515.08,474c-1.28-1.58,2.31-6.41-4.2-6.32-12.23.16-25.11,8.08-24.75,16,.34,7.34,4.72,10.86,11.72,11.1C508,495.08,515.21,486.63,515.08,474Z"/><path class="cls-2" d="M816.32,466.34c0,10.84-.17,21.68.09,32.51.1,4.19,5.8,10,.69,12-5.45,2.15-15.76,3.8-18.32-1-5.41-10.11-8.81-3.41-13.65-.91-11.71,6-23.71,6.58-34.22-2-10.1-8.23-12.14-19.55-8.16-31.81,3.13-9.65,10.87-14.35,19.92-17,7.86-2.33,15.86-4.25,23.89-6,4.85-1,6.4-3.64,5.89-8.32-.48-4.47-2.36-7.42-7.06-7.88-7.33-.73-14.64-2.19-19.53,6.08-5.65,9.56-13.84,1.85-19.45.43-5.45-1.39-.47-8.21,1.62-11.87,7.63-13.34,27.5-19.06,46.56-13.93,15.49,4.17,20.69,12,20.86,31.33,0,6.1,0,12.19,0,18.28Zm-23.76,9.8c-.88-2.81,2.63-8-4.06-8.28-9.72-.39-25.22,8.35-24.79,14.55.49,7,4,12.13,12.07,12.36C785.68,495.05,792.28,487.87,792.56,476.14Z"/><path class="cls-2" d="M579.72,429.38c12.8-12.65,24.49-17.45,38.89-11.49,15.31,6.35,16.73,19.51,16.69,33.48,0,16.95-.53,33.93.21,50.85.39,9-3.67,10-10.84,9.52-6.28-.47-13.15,1.85-12.69-9.13.7-16.92,0-33.89-.05-50.85,0-8.59-2.09-16-12.48-16.26-9.61-.22-15,5-16.84,14.56-3.26,17.27-1.91,34.69-1.65,52,.14,8.7-3.3,10.19-10.72,9.7-6.6-.43-12.68,1.13-12.35-9.55.76-24.75.25-49.55.23-74.32,0-5.23-1-11.29,7.44-9.9C571.72,419,582.35,412.9,579.72,429.38Z"/><path class="cls-2" d="M905.57,384.08c0,9.5.16,15.89,0,22.27-.21,6.79-.95,13.27,9.57,11.75,7.3-1.05,5.49,5.19,5.27,9-.23,4.1,2.79,11.25-5,10.8-10-.57-10.14,4.85-9.87,12,.43,11.27.37,22.55.59,33.83.09,4.77,1.17,9,7.41,7.72,9.78-2,7.44,5.84,8.59,10.51,1.36,5.55-.93,8.55-6.85,10.1-19.11,5-30.52-2.3-32-21.88-.91-11.66-.34-23.42-1-35.1-.39-6.84,3.9-15.4-8-18.54-4.68-1.23-1.74-16.43,3.82-18.4,3-1.07,4.77-2.07,4.15-5.08C878.62,395.67,893.72,393.4,905.57,384.08Z"/><path class="cls-2" d="M859.73,447.64c0,18.25-.64,36.54.24,54.76.53,11-6.08,9-12.47,9.32-6.79.35-11.27.07-11.14-9.24q.79-56.07,0-112.16c-.14-10.06,5.67-8.62,11.71-8.58s12.18-1.6,11.84,8.52C859.27,409.36,859.73,428.51,859.73,447.64Z"/><path class="cls-2" d="M958.73,465.32c0,12.15-.66,24.35.21,36.43.72,10-4.61,10-11.84,10.05s-12-.17-11.68-10q1.13-37.71,0-75.48c-.3-10.35,5.88-8.33,11.62-8.32s12.43-2,11.85,8.31C958.18,439.26,958.73,452.3,958.73,465.32Z"/><path class="cls-2" d="M947,382c10.63-2.63,11.87,2.92,12.11,12,.26,9.56-3.32,10.91-11.85,11.32-10.21.5-12.06-3.08-11.86-12.36C935.54,384.13,937.31,379.54,947,382Z"/></svg>