<svg id="Layer_1" data-name="Layer 1" xmlns="http://www.w3.org/2000/svg" xmlns:xlink="http://www.w3.org/1999/xlink" viewBox="0 0 200 138"><defs><style>.cls-1{fill:#003a70;}.cls-2{fill:url(#New_Gradient_Swatch_1);}</style><linearGradient id="New_Gradient_Swatch_1" x1="82.63" y1="50.9" x2="212.42" y2="-12.39" gradientTransform="translate(6.03 25.34) rotate(1.21)" gradientUnits="userSpaceOnUse"><stop offset="0" stop-color="#fdb913"/><stop offset="0.22" stop-color="#ffcb05"/><stop offset="0.39" stop-color="#faa61a"/><stop offset="0.53" stop-color="#ffcb05"/><stop offset="0.65" stop-color="#faa61a"/><stop offset="0.65" stop-color="#fbab17"/><stop offset="0.69" stop-color="#fdbd0d"/><stop offset="0.72" stop-color="#ffc807"/><stop offset="0.76" stop-color="#ffcb05"/><stop offset="0.8" stop-color="#ffcb05"/><stop offset="1" stop-color="#ffcb05"/></linearGradient></defs><title>Mandiri</title><path class="cls-1" d="M.21,79.91c0-2.9,0-5.32-.21-7.49H5.47l.26,3.72h.16a8.69,8.69,0,0,1,7.74-4.29,7.26,7.26,0,0,1,7,4.65h.1a9.54,9.54,0,0,1,3.1-3.15,8.41,8.41,0,0,1,5.06-1.5c4.18,0,8.41,2.84,8.41,10.9V97.56H31.08V83.67c0-4.17-1.45-6.66-4.5-6.66a4.85,4.85,0,0,0-4.43,3.36,8.87,8.87,0,0,0-.31,2.11V97.56h-6.2V83c0-3.5-1.39-6-4.34-6a5,5,0,0,0-4.54,3.62,5.38,5.38,0,0,0-.36,2.06V97.56H.21Z"/><path class="cls-1" d="M61.4,91.52a40.11,40.11,0,0,0,.36,6H56l-.41-2.78h-.16A9.34,9.34,0,0,1,48,98.13a7.46,7.46,0,0,1-7.9-7.49c0-6.35,5.63-9.54,14.92-9.49v-.42c0-1.65-.67-4.39-5.11-4.39a13.33,13.33,0,0,0-6.76,1.86l-1.24-4.13A18.16,18.16,0,0,1,51,71.85c8.06,0,10.38,5.12,10.38,10.58Zm-6.19-6.24c-4.5-.11-8.78.87-8.78,4.69A3.34,3.34,0,0,0,50,93.59a5.16,5.16,0,0,0,5-3.46,4.76,4.76,0,0,0,.21-1.4Z"/><path class="cls-1" d="M65.79,79.91c0-2.9-.06-5.32-.2-7.49h5.57l.3,3.77h.16a9.08,9.08,0,0,1,8-4.34c4.39,0,8.93,2.84,8.93,10.79V97.56H82.2V83.37c0-3.62-1.34-6.36-4.8-6.36a5.33,5.33,0,0,0-5,3.72,6.36,6.36,0,0,0-.26,2.06V97.56h-6.4Z"/><path class="cls-1" d="M116.08,62.32V90.49c0,2.58.1,5.37.2,7.07h-5.67l-.26-4h-.1A9.05,9.05,0,0,1,102,98.13c-6,0-10.73-5.11-10.73-12.85-.06-8.42,5.2-13.43,11.24-13.43,3.46,0,5.94,1.45,7.08,3.31h.1V62.32ZM109.73,82.9a8.46,8.46,0,0,0-.16-1.65,5.54,5.54,0,0,0-5.47-4.49c-4.07,0-6.35,3.61-6.35,8.31s2.28,8,6.3,8a5.6,5.6,0,0,0,5.47-4.49,6.89,6.89,0,0,0,.21-1.86Z"/><path class="cls-1" d="M120.57,97.56V72.42H127V97.56Z"/><path class="cls-1" d="M131.46,80.53c0-3.41-.05-5.84-.2-8.11h5.52l.2,4.8h.21a6.92,6.92,0,0,1,6.87-4.8,7.4,7.4,0,0,1,1.49,0V78a8.28,8.28,0,0,0-1.85-.21,5.59,5.59,0,0,0-5.68,4.8,11.23,11.23,0,0,0-.21,2v13h-6.35Z"/><path class="cls-1" d="M148.5,97.56V72.42h6.39V97.56Z"/><path class="cls-2" d="M194.74,45.83c-3.17-3.61-6.54-2-9.22-.64-1.12.55-9.25,5.16-9.25,5.16A7.91,7.91,0,0,1,167,48.5a4.42,4.42,0,0,1-.36-.51l-.31-.55a25.41,25.41,0,0,0-1.79-2.67,14.38,14.38,0,0,0-1.28-1.46c-3.05-3.08-7.92-5.23-16.06-1.32-3.85,2.23-16.41,9.41-16.41,9.41-4.71,1.94-8.33-.43-9.5-2.16a1.73,1.73,0,0,1-.13-.21l-.16-.27-.79-1.3c-.34-.53-.72-1.09-1.16-1.65a14.38,14.38,0,0,0-1.28-1.46c-3-3.06-7.87-5.21-15.94-1.37L85.59,52.25h0L77.28,57l4.3,5.28c1.81,1.72,5.21,4.55,10.47,2.16L106.62,56c12.41-6.81,18.53-.3,21.24,4,.09.13.17.28.25.41h0l.08.15.31.5a6.79,6.79,0,0,0,5.88,3.23A7.18,7.18,0,0,0,138,63.13L152.08,55h0c12.56-6.89,18.79,0,21.45,4.38a9.58,9.58,0,0,0,.68,1.06,6.42,6.42,0,0,0,5.44,2.9,8.18,8.18,0,0,0,3.48-1.11L200,52.48A72,72,0,0,0,194.74,45.83Z"/></svg>