<svg id="Layer_1" data-name="Layer 1" xmlns="http://www.w3.org/2000/svg" viewBox="0 0 1106.13 743.43"><defs><style>.cls-1{fill:#e32028;}.cls-2{fill:#4d4949;}.cls-3{fill:#fefefe;}</style></defs><title>bank-maspion</title><path class="cls-1" d="M8.24,320.67a21.77,21.77,0,0,1,1.77-4,10,10,0,0,1,8.42-4.56q49.29,0,98.58,0a10.29,10.29,0,0,1,10,9.07,25.23,25.23,0,0,1,.17,3.35q0,47.78,0,95.54a11,11,0,0,1-3.95,9,16.16,16.16,0,0,1-4.62,2.27H16.58a1.69,1.69,0,0,0-.35-.22,10.65,10.65,0,0,1-5.74-3.66,15.26,15.26,0,0,1-2.25-4.69Zm55.63,67c-1.07.81-1.76,1.64-2.62,2.29a19.87,19.87,0,0,1-16.32,3.89c-5.73-1.08-10.43-4.2-14.41-8.42a.8.8,0,0,1-.15-1.16,19.54,19.54,0,0,1,8-7.67c5.84-2.93,11.89-2.94,18-1.07,1.21.37,2.38.86,3.76,1.36A27.27,27.27,0,0,1,57,365.72a24.26,24.26,0,0,1,1.09-9.29,19.6,19.6,0,0,1,8.73-11.27,1.1,1.1,0,0,1,1.29-.09A19,19,0,0,1,75.64,353a24.15,24.15,0,0,1,2.28,13.71,29.88,29.88,0,0,1-2.44,9c-.1.24-.47.52-.19.76s.59,0,.92-.11A25.65,25.65,0,0,1,92.4,375a19.56,19.56,0,0,1,12.27,9.16.83.83,0,0,1,0,1.18,28.77,28.77,0,0,1-11.83,7.71,21.69,21.69,0,0,1-9.56,1,19.79,19.79,0,0,1-10.15-4.54c-.55-.44-.88-1.25-1.75-1.34,0,7.08,0,14.1,0,21.13,0,3.36,3.31,7.31,7.38,7.25,11-.18,22.09-.08,33.13,0,1,0,1.22-.26,1.21-1.23,0-11.16,0-22.31-.06-33.47,0-12.2,0-24.41,0-36.62a12.36,12.36,0,0,0-1.28-5.44,20,20,0,0,0-8.73-8.93A29.85,29.85,0,0,0,78.17,329,17.76,17.76,0,0,0,69.75,336a24.23,24.23,0,0,0-2.15,4.73l-.19,0A17.22,17.22,0,0,0,56.57,329,28.89,28.89,0,0,0,42,327.44c-6.77.9-12.62,3.65-16.87,9.19a13.21,13.21,0,0,0-3,8.22c0,13.78,0,27.57-.08,41.35q0,14.6-.09,29.18c0,.73,0,1.14,1,1.13,11.27,0,22.53,0,33.8,0a6.19,6.19,0,0,0,4.25-1.79,9,9,0,0,0,2.81-6.85c0-5,0-10,0-15Z"/><path class="cls-2" d="M588.93,392.87c1.33-2.76,2.61-5.42,3.88-8.08q13.86-29.13,27.73-58.24a13.93,13.93,0,0,1,1.34-2.22c1.33-1.84,3.47-1.63,4.48.41a13.9,13.9,0,0,1,.93,4.27q2.58,17.42,5.14,34.84c1.46,9.94,2.89,19.89,4.37,29.83.62,4.11,1.11,8.25,2,12.32,1.12,5.17,2.42,6.49,7.6,7.43a13.09,13.09,0,0,0,4.14.23,7.89,7.89,0,0,0,6.12-4.61c2.2-4.23,3.92-8.67,5.8-13q11.87-27.56,23.68-55.14a12.33,12.33,0,0,1,1.54-2.86,2.82,2.82,0,0,1,4.55-.15,10.7,10.7,0,0,1,1.66,2.92c7.65,17.91,15.25,35.85,23,53.74,1.9,4.43,3.56,9,6,13.17.56.93,1.17,1.83,1.8,2.72a7.59,7.59,0,0,0,6.53,3.34,16.83,16.83,0,0,1,2.13.17,1.71,1.71,0,0,1,1.59,1.85c0,1.05-.69,1.53-1.57,1.77a6,6,0,0,1-1.34.16c-6,.17-12,0-18-.11a52.62,52.62,0,0,1-6.52-.22c-1-.14-2-.23-2.14-1.52s.58-1.77,1.68-2c.94-.19.67-.87.47-1.41-.45-1.23-1-2.43-1.45-3.65-2-5.16-4.11-10.3-6.11-15.47a1.46,1.46,0,0,0-1.63-1.11q-11.32.06-22.65,0a1.4,1.4,0,0,0-1.55,1c-1.84,4.59-3.75,9.14-5.64,13.71a16.76,16.76,0,0,0-1.06,4.25c-.21,1.64.41,2.39,2.07,2.52,1.19.09,2.41,0,3.59.17a1.65,1.65,0,0,1,1.58,1.74,1.73,1.73,0,0,1-1.46,2,5.29,5.29,0,0,1-1.11.15c-3.26-.09-6.53-.11-9.79-.32a66.26,66.26,0,0,0-7.19.19c-5.55.24-11.1.08-16.65-.07-4.2-.11-8.4-.28-12.6-.44a17.12,17.12,0,0,1-3.56-.47,2,2,0,0,1-1.7-1.59,1.79,1.79,0,0,1,1.13-2,1.63,1.63,0,0,0,1-1.73,76.57,76.57,0,0,0-1-8.93c-.9-7-1.88-14-2.82-21s-1.88-13.9-2.84-20.85a6.77,6.77,0,0,0-.4-2.16c-1,2-1.89,3.85-2.79,5.72q-11,22.94-22.07,45.88c-.86,1.79-1.77,3.55-2.68,5.31a6.68,6.68,0,0,1-.93,1.4,2.12,2.12,0,0,1-3.42.05,11.26,11.26,0,0,1-1.67-2.52c-3.9-7.09-7.51-14.34-11.16-21.56-5.33-10.53-10.11-21.32-15.16-32-.14-.3-.3-.59-.6-1.17-.34,2.62-.65,5-1,7.3-1.17,9-2.38,18.07-3.5,27.12-.64,5.1-1.52,10.17-1.76,15.31-.12,2.42.41,3.23,2.77,3.87a20.12,20.12,0,0,0,5.12.63c1.79,0,2.64.82,2.41,2.19a1.93,1.93,0,0,1-1.8,1.59,28.36,28.36,0,0,1-7.07.08,167.1,167.1,0,0,0-16.75.09,12.89,12.89,0,0,1-3.92-.17,1.89,1.89,0,0,1-1.53-2c0-1,.58-1.45,1.48-1.68,1.36-.34,2.76-.08,4.13-.36a4.07,4.07,0,0,0,3.08-2.35,23.84,23.84,0,0,0,1.76-7Q541,388.16,543.4,372q2.31-15.28,4.61-30.59,1.11-7.33,2.24-14.67a6.67,6.67,0,0,1,.84-2.32,2.4,2.4,0,0,1,4.11-.38,8.91,8.91,0,0,1,1.42,2.15q15.78,32.63,31.58,65.25C588.41,391.89,588.64,392.32,588.93,392.87Zm98.17-32.22c-.18.2-.24.24-.26.3-3,7.66-6,15.32-9.09,23-.36.91,0,1,.72,1,5.63,0,11.26,0,16.88,0,1,0,1-.34.68-1.08q-2.7-6.9-5.34-13.81C689.5,366.93,688.33,363.87,687.1,360.65Z"/><path class="cls-2" d="M385.38,394.85c0-2.69,0-5.27,0-7.84-.09-5.1-.22-10.21-.36-15.31-.2-7.65-.39-15.3-.65-22.95-.13-3.93-1.35-5.19-5.24-5.62-.81-.1-1.64-.08-2.47-.11a5.36,5.36,0,0,1-1.44-.17,1.68,1.68,0,0,1-1.41-1.77,1.64,1.64,0,0,1,1.51-1.69,11.94,11.94,0,0,1,1.79-.19c8,.12,16,.27,24.08,0a7.34,7.34,0,0,1,1.68.19,1.55,1.55,0,0,1,1.36,1.55,1.76,1.76,0,0,1-1.22,1.82,6.62,6.62,0,0,1-2.34.27c-3.29.07-4.58,1.28-5,4.52a56.51,56.51,0,0,0-.24,6.63c-.17,8.71-.3,17.42-.46,26.12q-.21,12-.45,24.09c-.06,3.41-.15,6.83-.22,10.24V415c-.11,1.48-.22,3.08-1.77,3.75s-3,0-4.3-1a50.45,50.45,0,0,1-5.27-4.75q-15-14.38-30.08-28.83c-6.59-6.35-12.8-13.09-19.14-19.7a5.2,5.2,0,0,1-.6-.92l-.2.24c0,2.38,0,4.77,0,7.14.1,4.47.18,8.93.37,13.4.32,7.6.19,15.23.85,22.82a13.75,13.75,0,0,0,.9,4,3.28,3.28,0,0,0,2.44,2.1,17.84,17.84,0,0,0,4.24.47,4,4,0,0,1,1.86.36,1.66,1.66,0,0,1,1.12,1.65,1.76,1.76,0,0,1-1.35,1.73,13.89,13.89,0,0,1-4.59.22c-6.75-.28-13.49-.15-20.24,0-7.19.12-14.4.24-21.59-.07-3-.13-5.94.09-8.89-.28-1.5-.2-2.18-1.17-1.7-2.38a1.43,1.43,0,0,1,1.15-1c1.34-.18,1.17-.88.79-1.82q-3.51-8.78-7-17.55c-1-2.4-1-2.4-3.53-2.4-7.09,0-14.19,0-21.29,0a1.32,1.32,0,0,0-1.48,1c-1.87,4.65-3.81,9.28-5.72,13.92a14.33,14.33,0,0,0-1,4.37c-.1,1.45.44,2.09,1.9,2.22,1.08.1,2.18,0,3.26.09,1.56.12,2.25.94,2.05,2.33-.15,1.08-.86,1.63-2.33,1.62-2.7,0-5.4-.06-8.09-.24-4.59-.3-9.15.25-13.72.22a18.08,18.08,0,0,1-3.37-.07,1.76,1.76,0,0,1-1.68-2,1.87,1.87,0,0,1,1.88-1.87,19.48,19.48,0,0,1,2-.07,7.73,7.73,0,0,0,7.09-4.18,78.49,78.49,0,0,0,4.19-9.2q12.79-29.73,25.54-59.48a12.74,12.74,0,0,1,1.52-2.75,2.86,2.86,0,0,1,4.94.17,40.25,40.25,0,0,1,2.93,6.19q9.24,21.52,18.38,43.1c2.57,6,5.07,12.09,7.84,18a21.49,21.49,0,0,0,4,6,6.33,6.33,0,0,0,3.92,2,35.82,35.82,0,0,0,8.84,0c1.73-.21,2.38-.75,2.82-2.41a28.35,28.35,0,0,0,.62-6.93c.16-8.07.21-16.14.33-24.21q.24-16.15.51-32.31.06-3,.13-6.08a5.84,5.84,0,0,1,.56-2.62,2.45,2.45,0,0,1,3.66-1.15c1.93,1.08,3.31,2.81,4.83,4.35,9.3,9.45,18.63,18.86,28.1,28.14,6.9,6.75,13.63,13.66,20.43,20.51C382.66,392.16,384,393.47,385.38,394.85ZM268,360.63a2.43,2.43,0,0,0-.29.4c-3,7.67-6,15.34-9.09,23-.3.77-.08.86.63.86,5.82,0,11.64,0,17.47,0,.16,0,.37.08.52-.24Q272.63,372.71,268,360.63Z"/><path class="cls-2" d="M209.07,365.12a40.6,40.6,0,0,1,11.52,7c6.74,5.94,10.07,13.3,8.93,22.31-1.1,8.68-5.77,15.07-13.36,19.31A37.35,37.35,0,0,1,198,418.06c-5.71.05-11.39-.58-17.09-.64-4.27-.05-8.55.13-12.83.22-1.2,0-2.4.1-3.6.12a4.5,4.5,0,0,1-2.07-.42,1.72,1.72,0,0,1-1.08-1.81,1.62,1.62,0,0,1,1.51-1.56c1.45-.18,2.9-.32,4.36-.42a3.27,3.27,0,0,0,3.19-2.8,45.7,45.7,0,0,0,1-10.16c.46-18.06.17-36.12.18-54.18a107.74,107.74,0,0,0-.31-11.36c-.35-3.37-1.58-4.68-5-5.15-1.22-.17-2.47-.17-3.7-.25-.53,0-1-.06-1.57-.15a1.85,1.85,0,0,1,.07-3.63,20.45,20.45,0,0,1,4.49-.19q13.62.56,27.23,0a37.11,37.11,0,0,1,16.39,2.73,17.45,17.45,0,0,1,10.94,17.46c-.33,6.16-3,11.13-7.16,15.45C211.78,362.63,210.46,363.79,209.07,365.12Zm-21.31,24c.09,4.4-.15,9.88.13,15.36a5.27,5.27,0,0,0,3.81,5.22,20.76,20.76,0,0,0,10,1.08c4.81-.68,8.49-3,10.42-7.66,1.1-2.63,1-5.41,1-8.21a26.79,26.79,0,0,0-4.38-14.42c-2.58-4-5.83-7.29-10.46-8.81-3.06-1-6.29-.89-9.47-1-.84,0-1.07.18-1.07,1C187.78,377.17,187.76,382.62,187.76,389.14Zm0-40.9c0,4.74,0,9.47,0,14.2,0,1,.31,1.35,1.28,1.41a50.75,50.75,0,0,0,7.19,0,9.24,9.24,0,0,0,8.32-6.42,20.9,20.9,0,0,0-1.06-17.32c-3.12-6.24-8-8.3-14.41-7.67-1,.1-1.33.43-1.32,1.46C187.78,338.7,187.76,343.47,187.76,348.24Z"/><path class="cls-2" d="M956,419a47.55,47.55,0,0,1-14.78-1.92,41.28,41.28,0,0,1-13.09-6.51A38.34,38.34,0,0,1,918.44,400a42,42,0,0,1-5.11-13,43.19,43.19,0,0,1-.63-13.12,40.5,40.5,0,0,1,13.88-26.15,37.4,37.4,0,0,1,13.87-7.45,57.14,57.14,0,0,1,12-2.26,67.83,67.83,0,0,1,14.17.45,46,46,0,0,1,14.78,4.38,34,34,0,0,1,13.74,11.83,36.66,36.66,0,0,1,5.68,15.12c1.4,9.8.08,19.12-4.69,27.86A39.13,39.13,0,0,1,976.87,415a47.71,47.71,0,0,1-14.32,3.75C960.35,419,958.15,418.89,956,419ZM929.88,374.8a45,45,0,0,0,2.6,16.47c4.47,12.06,14.1,20.21,27.45,20.5a21.36,21.36,0,0,0,20.88-13.53,39.83,39.83,0,0,0,2.73-11.44c.71-7.43.33-14.74-2.18-21.87C976.51,351.12,964,343.21,950,345.26c-8.22,1.2-14,5.68-17.3,13.37A39.76,39.76,0,0,0,929.88,374.8Z"/><path class="cls-2" d="M1026.46,363.69a63.32,63.32,0,0,0,0,7.29c.09,4.72.28,9.45.43,14.17.22,6.9.42,13.8.66,20.7a18.83,18.83,0,0,0,.88,4.86,3.52,3.52,0,0,0,2.87,2.66,21.37,21.37,0,0,0,4.14.41,3.49,3.49,0,0,1,2,.54,1.63,1.63,0,0,1,.82,1.61,1.65,1.65,0,0,1-1.07,1.46,11.42,11.42,0,0,1-4.79.35c-6.78-.24-13.56-.39-20.34,0a14.57,14.57,0,0,1-3.49-.1c-1-.19-1.79-.59-1.81-1.78a1.86,1.86,0,0,1,1.78-2c1.33-.2,2.69-.22,4-.35,2.19-.22,2.84-.76,3.24-2.89a65.26,65.26,0,0,0,.64-11c.18-11.33.32-22.66.49-34,.09-5.74.14-11.48.32-17.22.09-2.77-.22-5.56.3-8.3.57-2.92,2.76-3.62,5-1.64,3.2,2.8,6,6,9,9,4.1,4.07,8.15,8.2,12.25,12.28,7.07,7.05,14.19,14.06,21.25,21.12,4.27,4.27,8.48,8.61,12.71,12.93a13.85,13.85,0,0,1,.93,1.21l.31-.25c0-1.81,0-3.63,0-5.45q-.2-9.06-.44-18.11-.3-11-.64-22a11.52,11.52,0,0,0-.29-2.11c-.54-2.55-1.68-3.56-4.26-3.85a25.35,25.35,0,0,0-3.26-.19,5.85,5.85,0,0,1-1.44-.17,1.67,1.67,0,0,1-1.34-1.82,1.54,1.54,0,0,1,1.4-1.62,18.21,18.21,0,0,1,4.83-.23c6.71.28,13.43.26,20.14,0a9.24,9.24,0,0,1,2.57.2,1.64,1.64,0,0,1,1.48,1.58,1.77,1.77,0,0,1-1.34,1.84c-1,.42-2.16.15-3.23.35-2.75.52-3.62,1.4-4,4.18a51.13,51.13,0,0,0-.3,6.06c-.16,7.66-.26,15.31-.4,23-.16,9.11-.3,18.23-.53,27.34-.11,4.09,0,8.19-.32,12.27-.22,2.55-1.55,3.4-4,2.76a8.41,8.41,0,0,1-3.54-2.3c-9-8.48-18-17.06-26.91-25.62s-17.58-17.45-26.09-26.45c-.22-.24-.4-.55-.76-.63l-.13-.12v.1Z"/><path class="cls-2" d="M441.42,372.05c2.5-2.48,4.92-4.83,7.28-7.23,5.49-5.56,11.16-10.93,16.25-16.87a11.78,11.78,0,0,0,2-2.83c.55-1.26.36-1.73-.9-2.2s-1.78-1.15-1.66-2.09a2,2,0,0,1,2.22-1.63c2.59,0,5.18.1,7.77.18,5.07.15,10.13-.14,15.2-.19h.9c1.46.07,2.34.8,2.31,1.91s-.89,1.86-2.33,1.92a21.18,21.18,0,0,0-11.38,4,64.64,64.64,0,0,0-7,6c-6.45,6.08-12.88,12.17-19.1,18.49-.66.66-.74,1.07-.09,1.81,4.8,5.48,9.85,10.73,14.86,16,5.36,5.63,10.69,11.28,16.51,16.44,2.95,2.61,5.95,5.17,9.68,6.67a14.44,14.44,0,0,0,5.89,1.27,2.83,2.83,0,0,1,1.81.48,1.75,1.75,0,0,1-.25,3.1,3.72,3.72,0,0,1-1.52.39c-5.25,0-10.51.06-15.77-.07-6.11-.15-11.12-2.72-15.52-6.76a171.16,171.16,0,0,1-12.14-13c-5.06-5.7-10.09-11.42-14.89-17.35,0,0-.06,0-.13,0a1.36,1.36,0,0,0-.06.29c0,9.46-.19,18.92.25,28.38.12,2.7,1.19,4.08,3.9,4.31.9.07,1.79.16,2.69.17a7.62,7.62,0,0,1,2.13.19,1.93,1.93,0,0,1,1.62,1.77c.06,1.09-.68,1.64-1.62,1.87a17.31,17.31,0,0,1-4.82.16c-7.69-.3-15.37-.42-23.06,0a16.58,16.58,0,0,1-3.59-.05c-1.29-.2-2.09-1-2-2a2.16,2.16,0,0,1,2.2-1.86c1.08-.09,2.17-.05,3.25-.21A2.92,2.92,0,0,0,425,411a36.3,36.3,0,0,0,.73-7.49q.07-27.21.09-54.42a13.57,13.57,0,0,0-.23-2.46c-.34-1.87-1.89-3-4.4-3.38A19.34,19.34,0,0,0,418,343a3.22,3.22,0,0,1-1.44-.17,1.84,1.84,0,0,1-1.36-1.85,1.72,1.72,0,0,1,1.67-1.67,31.43,31.43,0,0,1,5.4-.09c7.36.19,14.71.24,22.07,0a20.49,20.49,0,0,1,3.59,0c1.22.18,2,.91,2,1.83a2.1,2.1,0,0,1-2.14,1.9,20,20,0,0,0-3.45.43,2.78,2.78,0,0,0-2.47,2.27,17.43,17.43,0,0,0-.43,3.8C441.41,357,441.42,364.44,441.42,372.05Z"/><path class="cls-2" d="M821.17,377.46c0,8.46,0,16.91,0,25.36a38,38,0,0,0,.61,7.73,3.24,3.24,0,0,0,2.78,2.82,30.59,30.59,0,0,0,5.15.42,6,6,0,0,1,1.12.08,2,2,0,0,1,1.77,1.88c0,1.12-.72,1.6-1.64,1.85a13.15,13.15,0,0,1-3.81.15c-5-.11-10-.36-15.08-.37-4.09,0-8.17.26-12.26.38a7.56,7.56,0,0,1-1.57-.12,1.9,1.9,0,0,1,.14-3.79c.78-.09,1.58-.07,2.36-.1,2.62-.13,3.46-.82,3.94-3.4a53.14,53.14,0,0,0,.63-9.76q.07-21.12,0-42.25c0-3.34,0-6.69-.09-10s-.72-4.26-4.72-5.1a36.69,36.69,0,0,0-3.93-.25,2,2,0,0,1-1.87-1.91c.05-1.07.75-1.57,1.74-1.74a7,7,0,0,1,1.11-.12c1.13,0,2.26,0,3.38,0,7.09.2,14.19.31,21.28.16,5-.11,10.05-.42,15.06.27,4.51.61,8.86,1.75,12.47,4.69a17.32,17.32,0,0,1,6.57,13.85,23.48,23.48,0,0,1-3.56,13,25.42,25.42,0,0,1-17.49,11.76,30,30,0,0,1-9.4.5c-1.38-.16-2.05-.77-2.13-1.87s.55-1.67,1.88-2a5.1,5.1,0,0,1,1.44-.23c4.5.1,7.92-2,10.67-5.32a16.11,16.11,0,0,0,3.53-11.67,21.19,21.19,0,0,0-.86-5.31c-2.51-7.81-9.52-12.59-18.58-11a.8.8,0,0,0-.78.9c0,.33,0,.67,0,1v29.63Z"/><path class="cls-2" d="M766.37,337.77a60,60,0,0,1,13.49,1.56c2.47.6,2.68,1.05,2.57,3.59-.16,3.71-.2,7.43-.28,11.14a6.9,6.9,0,0,1-.37,2.43,1.9,1.9,0,0,1-2.16,1.4,1.78,1.78,0,0,1-1.56-1.79,13.69,13.69,0,0,0-.72-3.73,11.55,11.55,0,0,0-8.94-7.26,18.41,18.41,0,0,0-11.34,1.09c-6.91,3.09-8.2,10.79-2.7,16a35.63,35.63,0,0,0,7.41,5.07A105.29,105.29,0,0,1,772.91,374c4,2.95,7.52,6.39,9.57,11,3.71,8.37,2.74,19.34-4.82,26.48a25.84,25.84,0,0,1-15.95,7.24,62.65,62.65,0,0,1-20-1.18c-1.05-.25-2.05-.71-3.09-1-2.41-.7-3.15-2.47-3.06-4.74.13-3.49.3-7,.46-10.45,0-1.13.15-2.25.2-3.37a3.78,3.78,0,0,1,.73-2.21,1.78,1.78,0,0,1,1.89-.72,1.73,1.73,0,0,1,1.41,1.44c.14,1,.17,1.94.32,2.9,1.12,7.69,5.82,11.09,12.67,12.24a18.58,18.58,0,0,0,10.6-1c7.92-3.36,9.58-14.34,2.72-20.16a61.65,61.65,0,0,0-8.86-5.93c-4.35-2.53-8.73-5-12.37-8.56-6.64-6.45-9.17-14.18-6.38-23.15,1.83-5.9,6.27-9.65,11.77-12.17A35.55,35.55,0,0,1,766.37,337.77Z"/><path class="cls-2" d="M893.76,417.77a166,166,0,0,0-18.66-.1c-1.58.07-3.15.08-4.73.09a4.9,4.9,0,0,1-1-.13,2,2,0,0,1-1.77-1.89,2,2,0,0,1,1.89-1.89c1.29-.18,2.61,0,3.91-.32a2.72,2.72,0,0,0,2.35-2.35,38.26,38.26,0,0,0,.69-7.38q.07-27.21.09-54.41a17.43,17.43,0,0,0-.22-2.69,3.65,3.65,0,0,0-2.94-3.28A13.45,13.45,0,0,0,870,343a3.6,3.6,0,0,1-1.65-.28,1.81,1.81,0,0,1-1-1.85,1.59,1.59,0,0,1,1.33-1.49,14.85,14.85,0,0,1,4.26-.2c8.29.31,16.58.22,24.87,0a7.11,7.11,0,0,1,1.9.14c.95.22,1.7.63,1.67,1.77a1.82,1.82,0,0,1-1.83,1.89,24.4,24.4,0,0,0-2.69.23c-.47.11-1,.14-1.44.24a2.88,2.88,0,0,0-2.41,2.35,25.41,25.41,0,0,0-.47,5.14q-.06,23.55-.06,47.08c0,3.45.17,6.9.34,10.35a13.77,13.77,0,0,0,.51,3,2.71,2.71,0,0,0,2.26,2,27.7,27.7,0,0,0,5.81.49,3.06,3.06,0,0,1,1.92.53,1.71,1.71,0,0,1-.28,3.07,3.61,3.61,0,0,1-1.63.38Z"/><path class="cls-3" d="M1026.46,363.69h-.16v-.1l.13.12Z"/></svg>