<svg id="Layer_1" data-name="Layer 1" xmlns="http://www.w3.org/2000/svg" xmlns:xlink="http://www.w3.org/1999/xlink" viewBox="0 0 1106.13 743.43"><defs><style>.cls-1{fill:url(#linear-gradient);}.cls-2{fill:#084f95;}.cls-3{fill:url(#linear-gradient-2);}.cls-4{fill:#fff735;}.cls-5{fill:#1f1a17;}</style><linearGradient id="linear-gradient" x1="212.81" y1="457.1" x2="52.76" y2="287.05" gradientUnits="userSpaceOnUse"><stop offset="0" stop-color="#fce601"/><stop offset="1" stop-color="#e77817"/></linearGradient><linearGradient id="linear-gradient-2" x1="82.05" y1="263.84" x2="232.72" y2="396.93" xlink:href="#linear-gradient"/></defs><title>bank-mayapada</title><path class="cls-1" d="M30.41,247.12a154.39,154.39,0,0,1,24.77,8.75c22.72,10.66,43.46,24.51,63.4,39.56,6.15,4.65,12.76,8.7,18.49,13.91.82.74,1.68,1.43,2.89,2.46A131.83,131.83,0,0,0,124.47,313a48.19,48.19,0,0,0-10.74,3.27c-4.62,1.93-7.21,8.38-6.06,14,2,9.56,7.83,16.92,13.86,24.15,9.77,11.72,21.38,21.5,33.13,31.14,9.71,7.95,20.28,14.75,30.15,22.45,6.84,5.33,14.42,9.4,21.73,13.76,9.45,5.64,19.23,11,29.6,15,.17.07.28.3.57.63-12.23,1.48-24.27.58-36.23-1-41.77-5.6-78.23-23.49-111.46-48.68A277,277,0,0,1,54.5,356.79c-18.18-19.34-34.35-40.09-44.95-64.7A73.81,73.81,0,0,1,3.4,270C2.29,258.55,5.26,250.94,16,247.12Z"/><path class="cls-2" d="M1102.94,439.62c-8.57-.59-17.16-.09-25.73-.25-.81,0-1.61,0-2.41,0s-1.87.19-2-1.23.68-1.58,1.86-1.75c5.44-.81,6.36-2.17,5-7.61-1.15-4.54-2.53-9-3.75-13.56a2.27,2.27,0,0,0-2.64-1.95c-5.84.09-11.68,0-17.52.05-1,0-2.06-.28-2.45,1.18-1.31,4.85-3.3,9.54-3.43,14.64-.12,4.5,1.26,6.1,5.79,7,1.24.24,2.67.1,2.42,2s-1.7,1.17-2.68,1.18c-5.27.07-10.54.06-15.81,0-.9,0-2.22.62-2.59-.86-.32-1.28.22-2.05,1.53-2.6,3.49-1.47,4.84-4.72,6-8,4.46-12.26,7.79-24.88,11.64-37.32,4.36-14.1,8.6-28.23,12.9-42.34.32-1.05.71-2.08,1.09-3.19,1.77.69,1.62,2.13,2,3.24q11.25,37.63,22.48,75.27a86.08,86.08,0,0,0,3.41,9c.9,2.1,2.41,3.61,4.92,3.65Zm-38-61.55h-.63c-2.82,9.37-5.62,18.76-8.47,28.13-.59,1.93.78,1.48,1.67,1.49,4.58,0,9.16-.06,13.73.05,2,0,2.23-.51,1.67-2.37C1070.16,396.3,1067.58,387.18,1064.94,378.07Z"/><path class="cls-3" d="M64.6,249.11c8.93,2.18,17.83,3.3,26.24,6.81,6.14,2.57,12.83,3.68,19.07,6.14,5.24,2.06,10.18,4.77,15.34,6.94a193.75,193.75,0,0,1,30.8,16.33c20.24,13.22,39.77,27.31,57.17,44.34,16.34,16,31.53,32.77,43.65,52.16,6.45,10.31,12.23,21,13.77,33.36,1.3,10.43-4,16.54-14.6,16.33-9.83-.19-18.76-3.83-27.57-7.72a260.16,260.16,0,0,1-33.09-18.12c-16.23-10.19-31.82-21.33-47.11-32.87a6,6,0,0,1-.81-1.07c5.63-.56,11.08-.42,16.41-1.52a37.41,37.41,0,0,0,6.9-2c7.58-3.17,10.18-8.82,7.59-16.63-2.19-6.64-6.23-12.19-10.61-17.5C157,321,144.29,310,131.32,299.23c-20.44-16.94-42-32.35-63.84-47.44C66.5,251.11,65.17,250.77,64.6,249.11Z"/><path class="cls-2" d="M324,390.45C338,397,342.83,406.26,339.8,420.52,337.57,431,329.5,438.3,318.75,439c-11.32.79-22.67.17-34,.32-1,0-2.07.13-2.06-1.5s1.14-1.37,2.11-1.53c4.71-.74,6.21-2.27,6.27-6.93q.48-36.24,0-72.49c-.07-4.72-1.59-6.26-6.29-6.85-1-.13-2.06.11-2.09-1.51s.74-1.68,1.92-1.66c11.21.22,22.46-.66,33.64.43,11.94,1.16,19,9.15,19.35,21.22C337.92,379.13,335,383.87,324,390.45Zm-17.67,21.64h0c0,5.26-.11,10.52,0,15.77s3.05,7.2,8,5.5c4.25-1.46,6.63-4.77,8-8.8a31.52,31.52,0,0,0-.13-20.85c-2.26-6.57-6.51-9.39-13.45-9.55-2-.05-2.52.6-2.48,2.49C306.35,401.8,306.28,406.94,306.28,412.09Zm0-41.58c0,5.14.06,10.29,0,15.43,0,1.78.46,2.36,2.34,2.27,5.77-.26,9.71-2.93,11.74-8.38a28.31,28.31,0,0,0,1.32-13.53c-1.08-8.87-4.77-12.8-12.21-13.66-2.26-.25-3.33.12-3.22,2.78C306.43,360.44,306.28,365.48,306.28,370.51Z"/><path class="cls-2" d="M505.45,390.8c8.57-10.37,16.53-20,24.41-29.61a14.31,14.31,0,0,0,2.31-4.19c1.35-3.79-.19-6.24-4.17-6.85-1.23-.19-2.65.06-2.43-1.95s1.62-1.27,2.62-1.28q9.79-.07,19.59,0c1,0,2.38-.6,2.51,1.35.11,1.68-.94,1.85-2.11,2a8.44,8.44,0,0,0-5.09,3.29c-7.85,9.1-15.61,18.27-23.44,27.39a2.25,2.25,0,0,0-.33,3c8.28,14.89,15.88,30.16,24.59,44.82,2,3.33,4.15,6.69,8.45,7.52,1,.2,1.14.91,1.13,1.79,0,1.15-.75,1.25-1.61,1.25H522.32c-.83,0-1.6,0-1.63-1.22s.23-1.73,1.38-1.95c3.84-.75,3.89-3.27,2.85-6.26-2-5.76-5.3-10.89-8.11-16.26-3.06-5.85-6.26-11.64-9.41-17.49-1.9,1-2.15,2.5-2.14,4.19.08,9.62.07,19.24.17,28.86.05,4.7,1.11,5.95,5.74,7.07,1,.24,1.72.32,1.7,1.61,0,1.63-1.1,1.45-2.13,1.45H483.25c-1,0-2.1.17-2.13-1.44s1-1.41,2.06-1.52c4.7-.5,6.4-2.07,6.42-6.76q.12-36.6,0-73.19c0-4.26-1.94-6.06-6.36-6.39-1.29-.1-2.23-.14-2.13-1.83s1.25-1.32,2.21-1.33q13.41,0,26.81,0c.91,0,2.12-.43,2.27,1.26s-.78,1.81-2,2c-3.35.4-4.79,2.84-4.83,5.76C505.36,367.18,505.45,378.49,505.45,390.8Z"/><path class="cls-2" d="M987.34,439.36c-5.15,0-10.31,0-15.46,0-1.09,0-2.41.31-2.33-1.58.07-1.68,1.28-1.24,2.23-1.35,4.28-.47,5.75-1.83,6.37-6.14a31.54,31.54,0,0,0,.25-4.45q0-32.46,0-64.91c0-1.82-.2-3.65-.39-5.47-.37-3.5-2.36-5.29-5.88-5.43-1.18,0-2.67.4-2.57-1.71.09-1.92,1.5-1.41,2.5-1.39,10.07.16,20.15-.44,30.21.31,12.58.95,20.71,8,25.26,19.25A69,69,0,0,1,1028,419c-5,12.79-14.55,19.91-28.59,20.27-4,.11-8,0-12,0Zm6.35-47.85h0c0,11.8-.06,23.59,0,35.39,0,6.55,3.09,8.57,9.25,6.31a11.32,11.32,0,0,0,5.2-3.79,28.39,28.39,0,0,0,4.71-10.21c3.24-12.24,3.16-24.7,2.25-37.18a58.46,58.46,0,0,0-4.42-19.3c-2.64-6.05-6.85-9.78-13.81-10.07-2.57-.1-3.33.47-3.29,3.11C993.77,367.68,993.69,379.6,993.69,391.51Z"/><path class="cls-2" d="M464.68,402.19a5.32,5.32,0,0,0,.5-1.29c-.09-13.86.45-27.72-.28-41.57-.34-6.26-1.3-7.32-7.45-9.26a1.47,1.47,0,0,1-1.22-1.7c0-1,.37-1.48,1.4-1.48,6.08,0,12.15,0,18.22,0,1,0,1.38.53,1.38,1.5S477,350,476,350.14c-5.69.75-6.58,5-6.83,9.56-.22,4.11-.17,8.24-.17,12.37,0,22,0,44,0,66,0,1.11.85,2.82-.78,3.27s-1.87-1.4-2.42-2.4q-19.38-35.19-38.68-70.41c-.27-.5-.58-1-.84-1.42-.75,0-.73.46-.73.89,0,19.47,0,38.95.18,58.43.06,6.44,1.67,8.18,8,10,1,.29,1.3.7,1.29,1.63s-.6,1.35-1.55,1.34H414.2c-.86,0-1.58-.09-1.63-1.24s.35-1.54,1.46-1.86c5.9-1.69,7.44-3.7,7.5-10.39.11-13.41.06-26.81.07-40.22q0-12.19,0-24.4c0-5.31-2.76-9.43-7.71-11.12-1.19-.4-1.3-1-1.32-1.95,0-1.45,1-1.28,1.89-1.28,6.19,0,12.38.08,18.56,0,2,0,2.46,1.29,3.15,2.59q13.26,24.63,26.53,49.27C463.26,399.77,463.88,400.79,464.68,402.19Z"/><path class="cls-2" d="M868.59,439.36c-4.59,0-9.17,0-13.75,0-1,0-2.14.36-2.23-1.33-.07-1.52.87-1.51,1.95-1.7,5.21-.89,6.44-2.25,6.49-8.19.13-15.12.09-30.25.1-45.37,0-8,0-16-.07-24.05-.1-6.51-.75-7.25-7.06-8.64-1.23-.27-1.41-.83-1.4-1.86s.64-1.33,1.55-1.31c11.09.32,22.25-1,33.27.81,9.63,1.59,16.21,9,17.36,19.53,1,8.75-.07,17.17-6.53,24-4.9,5.2-11.25,6.37-17.89,6.26-3.48-.05-4.63.85-4.49,4.5.32,8.12.07,16.26.13,24.39.05,7.41.39,7.86,7.3,9.92a1.44,1.44,0,0,1,1.22,1.68c0,1.36-.9,1.34-1.86,1.34C878,439.35,873.28,439.36,868.59,439.36Zm7.4-66.77c0,5.73.08,11.46,0,17.19,0,2.08.8,2.55,2.64,2.41a9.69,9.69,0,0,0,9-7.28,41.56,41.56,0,0,0,.08-25c-1.32-4.32-4.5-6.73-9.12-7.16-1.84-.17-2.67.23-2.63,2.33C876.07,360.9,876,366.75,876,372.59Z"/><path class="cls-2" d="M763.07,394.84c4.24-10.62,8.46-21.13,12.61-31.66a45.13,45.13,0,0,0,1.84-5.89c1-4.14-.13-6-4.27-7-1.23-.31-2.59-.24-2.31-2.15s1.71-1.18,2.68-1.19q7-.1,14.09,0c1,0,2.42-.7,2.68,1.18.21,1.48-.58,2-1.84,2.33-2.85.84-3.93,3.37-5,5.74-4.92,10.46-8.52,21.49-13.37,32A52.79,52.79,0,0,0,765,415c.38,4.78,0,9.62.18,14.43s2.05,6.72,6.94,7c1,.06,2.76-.79,2.81,1.39s-1.65,1.48-2.72,1.49q-15,.06-29.91,0c-1.12,0-2.74.59-2.65-1.57.08-1.92,1.55-1.27,2.55-1.33,5.21-.28,7.07-1.93,7.2-7.11.19-7.67.15-15.35.18-23a6.92,6.92,0,0,0-.37-2.35c-5.82-15.53-11.61-31.08-17.55-46.56-1.25-3.24-2.35-6.87-6.75-7.43-1.12-.14-.85-1.2-.81-1.95.07-1.43,1.21-1.1,2-1.1q13.07,0,26.13,0c.11,0,.23,0,.34,0,1.09-.07,1.7.28,1.71,1.53s-.57,1.45-1.65,1.63c-4.62.77-5.27,1.66-3.93,6.14,3.82,12.84,9,25.19,13.56,37.77C762.4,394.26,762.73,394.47,763.07,394.84Z"/><path class="cls-2" d="M377.85,345.22c1.43,1,1.35,2.61,1.75,3.95,7.35,24.53,14.61,49.08,21.94,73.61.85,2.84,1.9,5.63,3,8.39.9,2.26,2.06,4.4,4.74,5,1.2.27,1.3,1.09,1.24,2.08-.08,1.2-1,1.09-1.75,1.09H382c-.92,0-1.85.09-2-1.27s.75-1.55,1.89-1.72c5.33-.77,6.36-2.34,5-7.65-1.16-4.42-2.58-8.77-3.67-13.21-.46-1.88-1.41-2.27-3.14-2.24-5.61.08-11.23.09-16.84,0-1.8,0-2.61.53-3.07,2.34-1.13,4.53-3,8.89-3.08,13.66,0,4.35,1.32,5.94,5.59,6.83,1.17.24,2.71,0,2.54,1.93-.18,2.15-1.86,1.29-2.9,1.3-5.26.09-10.53.07-15.8,0-.9,0-2.19.53-2.44-1.08-.18-1.22.37-1.8,1.51-2.28,3.46-1.47,4.92-4.63,6.14-7.88,3.43-9.1,5.91-18.5,8.75-27.79,5.29-17.27,10.49-34.57,15.76-51.84C376.55,347.34,376.47,345.92,377.85,345.22Zm-6,31.9c-3.05,10.06-5.77,19.11-8.55,28.15-.54,1.73-.28,2.51,1.76,2.46,4.45-.1,8.9-.07,13.36,0,1.57,0,2.37-.26,1.82-2.11C377.47,396.45,374.8,387.26,371.82,377.12Z"/><path class="cls-2" d="M816.76,345.16c1.33.64,1.25,1.94,1.56,3q11.11,37.31,22.2,74.62a57.54,57.54,0,0,0,3.62,9.62c.86,1.71,1.91,3.19,3.81,3.68a1.78,1.78,0,0,1,1.58,2.19c-.15,1.41-1.2,1.12-2.07,1.12H821c-1.09,0-2,0-2-1.57,0-1.41,1-1.25,1.86-1.39,5.43-.84,6.42-2.25,5-7.54-1.17-4.53-2.57-9-3.73-13.55-.43-1.69-1.35-2.06-2.93-2-5.73.07-11.46,0-17.18,0-1.16,0-2.27-.11-2.66,1.46-1.17,4.75-3.22,9.31-3.26,14.32,0,4.68,1.13,6.14,5.69,7,1.11.21,2.36,0,2.35,1.78,0,1.91-1.37,1.47-2.43,1.47q-8.25,0-16.5,0c-.82,0-2,.37-2.07-1.08-.06-.92-.1-1.76,1.09-2.18,3.91-1.37,5.29-4.86,6.55-8.31,4.21-11.5,7.34-23.34,10.94-35,4.65-15.08,9.18-30.19,13.75-45.29C815.78,346.61,815.88,345.69,816.76,345.16Zm-5.89,31.94c-3.17,10.43-6,19.85-8.87,29.28-.46,1.55.81,1.3,1.65,1.31,4.68,0,9.36,0,14,0,1.32,0,2.17,0,1.61-1.88C816.52,396.63,813.87,387.38,810.87,377.1Z"/><path class="cls-2" d="M935.51,344.86c2.26,7.56,4.39,14.75,6.55,21.93,6.12,20.35,12.2,40.71,18.42,61,1.08,3.53,2,7.43,6.51,8.55,1,.25.8,1.29.72,2.05s-.82.94-1.54.94H938.7c-1,0-1.47-.33-1.46-1.39s.3-1.33,1.3-1.58c6.65-1.64,7.05-2.37,5.18-9.07-1.11-4-2.31-7.9-3.34-11.88a2.43,2.43,0,0,0-2.81-2.18c-5.83.1-11.67,0-17.51,0-1.06,0-2.07-.05-2.42,1.31-1.23,4.74-3.18,9.33-3.34,14.31-.16,4.67,1.16,6.26,5.9,7.19,1.18.23,2.27.27,2.16,1.95s-1.29,1.3-2.24,1.3q-8.4,0-16.82,0c-.76,0-1.74.23-1.86-.94-.08-.88-.27-1.84.94-2.28,3.88-1.4,5.36-4.81,6.6-8.28,5-13.89,8.77-28.14,13.12-42.21,3.88-12.56,7.65-25.15,11.48-37.72C933.87,347,933.88,345.86,935.51,344.86Zm-6.14,33.3-.67,0c-2.77,9.14-5.5,18.29-8.33,27.4-.57,1.82,0,2.16,1.69,2.14,4.56-.07,9.13-.06,13.69,0,1.59,0,2.24-.18,1.66-2.1C934.64,396.5,932,387.32,929.37,378.16Z"/><path class="cls-2" d="M698.43,345.15c1.34.67,1.25,2,1.55,3q11.14,37.27,22.21,74.59c.88,2.95,2,5.82,3.17,8.69.85,2.19,2.07,4.13,4.58,4.71,1.18.28,1.37,1,1.3,2-.1,1.42-1.15,1.16-2,1.16H702.76c-1,0-2.07.09-2-1.53,0-1.37.86-1.29,1.8-1.43,5.48-.87,6.42-2.22,5.05-7.62-1.16-4.53-2.59-9-3.79-13.53a2.26,2.26,0,0,0-2.6-2c-6,.08-11.91.05-17.86,0-1.15,0-2,.24-2.28,1.51-1.11,4.31-2.77,8.48-3.21,13-.53,5.46.75,7.28,6,8.38,1,.22,2,.22,2,1.73s-1,1.51-2.06,1.51c-5.61,0-11.22,0-16.83,0-.83,0-2,.37-2.09-1.07-.08-.94,0-1.76,1.09-2.2,3.81-1.49,5.28-4.9,6.52-8.38,4.91-13.78,8.68-27.92,13-41.89,3.9-12.55,7.64-25.15,11.47-37.72C697.33,347.05,697.31,345.81,698.43,345.15Zm-5.59,33-.66,0c-2.77,9.13-5.5,18.28-8.33,27.39-.54,1.76-.05,2.19,1.67,2.16,4.56-.08,9.13-.06,13.7,0,1.55,0,2.26-.13,1.67-2.08C698.12,396.51,695.51,387.33,692.84,378.16Z"/><path class="cls-4" d="M128.76,317.15a36.24,36.24,0,0,1,19.61,6.33c8.64,5.68,16,12.54,19.87,22.48a14.35,14.35,0,0,1,.31,10.72,12.43,12.43,0,0,1-13.61,7.67c-16.76-2.56-29.47-11.27-37.55-26.25-2.48-4.62-2.75-9.71.28-14.41S125.21,316.9,128.76,317.15Z"/><path class="cls-5" d="M293.49,485H283.08c1.65-1.27,3.83-1.25,4.16-3.09a31.36,31.36,0,0,0,.32-5.13c0-6.3-.07-12.6,0-18.9.06-3,0-5.78-3.92-6.64,3.69,0,7.38,0,11.08,0,1.8,0,1.8,1.58,2.21,2.63,2.47,6.24,4.85,12.52,7.53,19.49,2.52-6.76,4.91-12.8,7-18.95.84-2.43,2-3.45,4.64-3.23,2.94.25,5.91.06,9.28.39-5.23.57-4.29,4.26-4.31,7.41,0,6.53,0,13.06,0,19.59,0,3-.19,5.91,4,6.35H309.75c4.11-.49,3.84-3.49,3.83-6.4,0-7.3,0-14.6-.68-22.11-3.64,9.51-7.27,19-11.3,29.52l-11.52-29.36-.5.14c0,8,0,15.93,0,23.89C289.59,483.16,291.55,483.86,293.49,485Z"/><path class="cls-5" d="M762.41,461.67c2.86,0,5.92-.93,7.26.19,2.8,2.34,4.3,0,6.35-.59,2.39-.72,4.7-.33,6.13,1.81,1.19,1.76,1.93,1.24,3.11.13,2-1.91,4.45-2.89,7.23-1.81s3.4,3.61,3.51,6.18c.2,4.22.15,8.46.23,12.69,0,1.7-.16,3.51,1.92,4.58H787.56c3.34-2.92,1.8-6.77,2.06-10.28a52.55,52.55,0,0,0,0-6.52c-.06-1.41.27-3.39-1.79-3.51A3.56,3.56,0,0,0,784,467.8c-.26,4.78,0,9.6,0,14.4,0,1.37,1.67,1.41,1.93,2.74H774.38c3.15-1.47,2.84-3.69,2.84-5.8,0-3.66,0-7.33-.06-11,0-1.44.25-3.3-1.71-3.62a3.25,3.25,0,0,0-3.73,2.84c-.32,5-.1,10.05-.08,15.08,0,1.19,1.59,1.2,1.82,2.47H762.93C765.78,481.36,765.77,465,762.41,461.67Z"/><path class="cls-5" d="M651,485H636.35c4.8-.8,3.85-4.49,3.87-7.64q0-10.14,0-20.27c0-4-.05-4-3.89-5.54h14.59c-3.9,1-3.09,4.22-3.13,7s0,5.38,0,8.81c4.43-4,8.4-7.41,12.14-11,2.23-2.16,1.82-3-2.15-4.9h12.55c-5.89,2.88-9.63,7.48-14.18,11.1-1.19.95-1.88,1.71-.66,3.31,3.69,4.81,7.21,9.75,10.79,14.65a15.78,15.78,0,0,0,4.88,4.31H654.56c4.32-1.35,3.15-3.23,1.81-5.11-2.48-3.5-5-7-7.49-10.48l-.89.25c0,4.26-.13,8.53.06,12.78C648.12,483.8,650,483.82,651,485Z"/><path class="cls-5" d="M731.25,485c-.68,0-1.36.12-2,.12-2.75,0-5.5,0-8.88,0,3.36-2.66,2.29-6,2.41-9,.1-2.63,0-5.27,0-7.9,0-1.46.22-3.29-1.67-3.69a3.21,3.21,0,0,0-3.68,2.48,48.94,48.94,0,0,0,.05,16c.1.57,1.08,1,2,1.81h-12c3-1.3,3-3.22,2.94-5.16,0-3.78,0-7.56-.06-11.34,0-1.56.28-3.56-1.9-3.84a3.36,3.36,0,0,0-3.66,3,64.84,64.84,0,0,0,0,15.06c.13,1,1.23,1.23,2.09,2.26H696.3c2.59-3.89,2.5-19.85-1-23.43,3.63,1.14,6.87-1.65,9.35,2,.64.93,1.12-.2,1.58-.5,4.2-2.78,6.28-2.7,9.49.9,1,1.11,1.33.72,2,0a11.74,11.74,0,0,1,1.84-1.54c4.29-2.77,8.85-.82,9.32,4.25.4,4.43.21,8.92.34,13.38C729.35,481.64,729.17,483.58,731.25,485Z"/><path class="cls-5" d="M570.25,465.23c3.23,7.07-.38,12.7-8.16,12.85-.57,0-1.15-.05-1.72,0a2.1,2.1,0,0,0-2.16,2.2c-.05,1.44.9,2,2.21,2,2.52.08,5.05,0,7.55.27,2.83.29,5.06,1.61,5.56,4.7s-.62,5.83-3.45,7.24a16.8,16.8,0,0,1-14.63.24c-3.47-1.52-3.2-4.24.44-6.9-3.33-4.32-3-6.16,2.23-10.72a8.35,8.35,0,0,1-5.07-6.36c-.93-5.8,4.51-10.77,10.7-9.57a45.18,45.18,0,0,0,6.45.74c1.15.06,3-1,3.35,1.14C574,465.74,571.53,464.42,570.25,465.23Zm-4.68,4.65c-.2-1.6-.3-3.31-.66-5a2.44,2.44,0,0,0-2.28-2.19,2.48,2.48,0,0,0-2.51,2,18.35,18.35,0,0,0-.06,9.78,2.49,2.49,0,0,0,2.46,2,2.63,2.63,0,0,0,2.41-2.12A37.61,37.61,0,0,0,565.57,469.88Zm-2.39,18.64v.19a36,36,0,0,0-3.75,0c-1.18.13-2.24.63-2.4,2a2.47,2.47,0,0,0,1.65,2.72,12,12,0,0,0,9.6-.25,2.35,2.35,0,0,0,1.51-2.46,2.23,2.23,0,0,0-2.19-1.84C566.14,488.73,564.66,488.65,563.18,488.52Z"/><path class="cls-5" d="M495.35,463.27c-1.45-4.2,1.91-8.89-3.2-12.07,2.64,0,5.27,0,7.91,0,1.91,0,1.32,1.53,1.33,2.53q.06,12.52,0,25.07c0,2,0,3.91,2.44,5.05-2.51.58-5,1.23-7.53,1.71-1,.2-1.08.05-1.44-2.3-.71-.28-1,.32-1.4.67-3.49,2.9-7.31,2.39-10-1.32-3.47-4.73-3.32-13.87.31-18.48C486.55,460.6,490,460.19,495.35,463.27Zm-.41,10.07a38.66,38.66,0,0,0-.06-5.8c-.31-2-1.55-3.71-3.77-3.81s-2.57,1.9-2.9,3.57a28.39,28.39,0,0,0,.16,11.86c.37,1.63.89,3.65,3.1,3.4a4,4,0,0,0,3.42-3.77A38.08,38.08,0,0,0,494.94,473.34Z"/><path class="cls-5" d="M453,485H442.48c2.81-2.24,2.27-5,2.29-7.65,0-3.09,0-6.18,0-9.27,0-1.44.12-3.32-1.9-3.47a3.08,3.08,0,0,0-3.19,2.65,81.06,81.06,0,0,0,0,15.42c.06.71,1,1.36,1.75,2.26H431c2.7-3.91,2.64-19.69-.37-23.26,2.62,0,5.86-1,7.16.2,2.79,2.53,4.16-.07,6.09-.62,3.86-1.09,7,1.29,7.24,5.94.24,4.11.09,8.24.13,12.36C451.23,481.46,451,483.48,453,485Z"/><path class="cls-5" d="M832.73,485H822c2.78-4.16,2.66-20.18-.08-23,2.88.67,6.19-2.43,8.77,1.43.45.69,1.08-.4,1.57-.73,5.06-3.37,9.4-1.48,9.89,4.56.34,4.21.14,8.46.16,12.7,0,1.83-.11,3.68,1.91,5.15H834.17c3-6.27,1.43-12.7,1.31-19,0-1.83-1.68-2-3.07-1a4,4,0,0,0-2,3.42c0,4.23.11,8.47.05,12.7C830.46,482.74,831.37,483.66,832.73,485Z"/><path class="cls-5" d="M599.46,484.84c2.9-3.54,2.91-19.57,0-22.72,5.67-1.23,8-.78,8.83,1.86.64-.53,1.21-1.07,1.84-1.52,4.33-3.1,9-1.12,9.43,4.18.33,4,.16,8,.23,12,0,2.21-.34,4.55,2.61,6.31H611.74c3-6.08,1.34-12.54,1.28-18.84,0-1.65-1.62-2.1-3.1-1a4.25,4.25,0,0,0-2,3.73c.07,4,.05,8,0,12a4.49,4.49,0,0,0,1.82,4Z"/><path class="cls-5" d="M550.7,485H539c2.82-2.13,2.23-4.92,2.25-7.55,0-3.2,0-6.4,0-9.61,0-1.28,0-2.72-1.49-3.15a2.58,2.58,0,0,0-3.21,1.93,38.49,38.49,0,0,0,.06,16.82c.09.43.72.74,1.47,1.45H527.28c3-3.35,3-19.55-.58-23.53,3.54,1.11,7-1.22,9.91,2.38-.49,0-.19.1-.06,0,2.22-2,4.6-3.64,7.7-2.21s3.37,4.34,3.38,7.3c0,3.43,0,6.87,0,10.3C547.69,481.23,547.57,483.44,550.7,485Z"/><path class="cls-5" d="M425.54,473.76c0,1.95-.09,3.9,0,5.83.07.9-.57,2.47,1.59,2.19,1.22-.15.58.78.27,1.29-1.78,2.88-6,3.29-7.71.46-1-1.7-1.44-1-2.44-.29-4,2.8-6.7,2.91-8.48.47s-.87-6.29,2.58-8.88A18.25,18.25,0,0,1,416,472c3.61-1.26,3.19-4,2.76-6.69-.3-2-1.86-2.53-3.63-2.08-2,.52-2,1.78-1,3.34a2.64,2.64,0,0,1-.45,3.71,3,3,0,0,1-3.51.45,3.22,3.22,0,0,1-1.81-3.7c.5-3.41,4.74-6,9.71-6,4,0,6.73,2.26,7.12,5.94.24,2.27.23,4.56.33,6.85ZM419,472.42c-2.65,1.54-4.22,3.16-4.67,5.53-.28,1.47.24,2.85,2,3a2.2,2.2,0,0,0,2.69-2.33C419,476.71,419,474.81,419,472.42Z"/><path class="cls-5" d="M379.06,473.93c1.13,2.55-1.76,6.13,1.81,8.54.49.34-.08,1-.46,1.44-1.81,2.07-5.4,2.17-6.86-.16-1-1.56-1.34-1.41-2.65-.47-3.92,2.84-6.69,2.85-8.45.34s-.76-6.28,2.73-8.88a18.35,18.35,0,0,1,4.67-2.85c3.43-1.19,3.14-3.76,2.73-6.38-.34-2.13-1.84-2.85-3.81-2.3-2.2.61-1.66,1.94-.79,3.43a2.72,2.72,0,0,1-.65,3.71,3,3,0,0,1-3.54.24,3.18,3.18,0,0,1-1.68-3.46c.43-3.55,4.86-6.29,9.94-6.15,3.92.1,6.72,2.48,7,6.13C379.18,469.28,379.06,471.46,379.06,473.93Zm-6.32-1.61c-2.52,1.53-4.15,3-4.65,5.37-.33,1.56,0,3.13,1.93,3.27a2.32,2.32,0,0,0,2.73-2.65C372.7,476.51,372.74,474.72,372.74,472.32Z"/><path class="cls-5" d="M594.13,473.74c0,1.83,0,3.66,0,5.49,0,.68-.13,1.83.18,2,2.24,1.09,2.06,2.2.17,3.35-2.05,1.24-4.52,1.6-5.81-.56s-2-1.37-3.37-.36c-3.33,2.41-6.23,2.35-7.92.06s-1.06-5.88,1.81-8.21a55.5,55.5,0,0,1,6.32-4.09c2.08-1.27,3-5.57,1.36-7.37a2.94,2.94,0,0,0-3.76-.61c-1.74.85-1,1.93-.33,3.07a2.74,2.74,0,0,1-.43,3.73,3,3,0,0,1-3.81.3A3.22,3.22,0,0,1,577,467c.48-3.32,4.49-5.89,9.37-6,4-.1,7,2,7.47,5.57a55.59,55.59,0,0,1,.06,7.19Zm-6.47,2.72c0-.68,0-1.36,0-2s0-1.26-.35-1.52c-.53-.45-1,.25-1.39.56a6.94,6.94,0,0,0-2.95,4.38c-.2,1.47.06,2.88,1.78,3.09a2.33,2.33,0,0,0,2.91-2.45C587.68,477.81,587.66,477.13,587.66,476.46Z"/><path class="cls-5" d="M692.57,472.55c-.13,5.13-1.16,8.94-4.62,11.58A9,9,0,0,1,675,481.78a14.83,14.83,0,0,1-1.18-14.4c1.74-4.24,4.83-6.44,8.82-6.4s7.42,2.66,8.94,6.83A14.12,14.12,0,0,1,692.57,472.55Zm-6.83,1.64c-.13-3.48.23-6.25-.59-8.93-.39-1.24-1.07-2.35-2.63-2.27A2.59,2.59,0,0,0,680,465.4a48.94,48.94,0,0,0-.18,15.7c.2,1.4,1,2.71,2.6,2.77,1.87.08,2.61-1.39,2.81-2.9C685.58,478.48,685.63,476,685.74,474.19Z"/><path class="cls-5" d="M383.4,461.78h10.26c-2.58,5.65,2.25,9.49,3.72,14.25,1-2.86,2-5.7,2.86-8.58.64-2.09,1.51-4.38-1.7-5.54h6.25c-4.39,8.11-6.44,17.33-9.91,26-.85,2.11-1.41,4.38-2.82,6.22-2.18,2.86-6.18,2.67-7.68-.27a3.62,3.62,0,0,1,.25-3.9,2.4,2.4,0,0,1,2.65-1.15c1.45.35,1.93,1.45,2.06,2.81.06.64,0,1.61.88,1.53a2.38,2.38,0,0,0,1.46-1.29c1.41-3,2.69-5.82.95-9.35-2.11-4.28-3.58-8.88-5.4-13.32C386.21,466.69,385.56,464,383.4,461.78Z"/><path class="cls-5" d="M524.14,479.6a31.88,31.88,0,0,1-2.16,3.31,8.11,8.11,0,0,1-13-.64c-3.09-4.5-3-12.83.24-17.28,2.47-3.42,6.3-4.81,9.57-3.48s6.11,6.45,5.69,9.89c-.17,1.43-1.09,1.22-2,1.23-2.41,0-4.83.14-7.22,0-2.18-.16-2.54.77-2.08,2.6a11.62,11.62,0,0,0,2,4.69c1.81,2.22,3.92,2.66,6.28.89.79-.6,1.38-1.58,2.6-1.13Zm-8.55-8.83c1.38-.15,3.53.75,3.1-2.08-.34-2.22.53-5.68-2.82-5.63-2.74,0-2.56,3.25-2.93,5.47S513.87,471,515.59,470.77Z"/><path class="cls-5" d="M344.5,479.76a7.14,7.14,0,0,1-6,5.9,7.78,7.78,0,0,1-8.36-3.4c-3.07-4.44-3-12.85.23-17.25,2.48-3.43,6.25-4.82,9.52-3.52s6,6.22,5.67,9.85c-.15,1.42-.95,1.3-1.86,1.3-2.52,0-5,.1-7.54,0-1.85-.1-2.15.74-1.82,2.25.1.44.15.9.27,1.34C336.23,482.08,339.56,483.24,344.5,479.76Zm-7.33-9c.91-.19,3.09.85,2.71-2-.3-2.23.44-5.64-2.71-5.7s-2.68,3.33-3.11,5.58S335.22,470.84,337.17,470.74Z"/><path class="cls-5" d="M817.9,479.77c-.87,3.66-3,5.24-5.71,5.83a7.76,7.76,0,0,1-8.48-3.12c-3.35-4.61-3.21-13.23.32-17.78,2.5-3.23,6.16-4.49,9.33-3.2s6.07,6.45,5.68,9.87c-.16,1.42-1,1.26-1.9,1.27-2.52,0-5,.07-7.55,0-1.73-.07-2.29.56-1.8,2.21.17.54.18,1.13.33,1.68C809.59,481.75,812.65,483,817.9,479.77Zm-7.6-9c1.33-.18,3.52.73,3-2.1-.37-2.21.38-5.71-2.87-5.65-2.92.06-2.61,3.49-3,5.75C806.94,471.38,808.91,470.68,810.3,470.79Z"/><path class="cls-5" d="M755.66,453.43c0,2,.11,4,0,6s.52,2.43,2.32,2.32c.95-.06,2.54-.69,2.62,1.2s-1.5,1.45-2.49,1.36c-2-.19-2.51.62-2.45,2.51.13,3.89,0,7.79.07,11.68,0,1.29-.56,3,1,3.7s2.11-1.37,3.36-1.79c-.59,3.29-2.65,5.18-5.53,5.12a5.33,5.33,0,0,1-5.26-5.29c-.23-4.22-.15-8.46-.19-12.69,0-2.8,0-2.8-2.92-3.94a33.68,33.68,0,0,0,8.59-10.43Z"/><path class="cls-5" d="M347.75,451.88c.45-.42.51-.54.59-.54,8.22-.87,8.22-.87,8.22,7.19,0,7,0,14,0,21,0,2-.14,4.17,2.27,5.39H347.2c3.53-1.64,2.9-4.31,2.9-6.76q0-10.32,0-20.62C350.09,455.33,350.78,452.87,347.75,451.88Z"/><path class="cls-5" d="M455.48,461.68c2.92,0,5.37,0,7.81,0,1.84,0,1.43,1.44,1.43,2.5,0,5.39,0,10.77,0,16.15,0,1.73,0,3.46,2,4.51H456.24C459.2,481.17,459.05,464.86,455.48,461.68Z"/><path class="cls-5" d="M744.6,484.91H733.85c3.18-3.24,3.18-19.63-.2-23.24,2.65,0,5,0,7.35,0,1.79,0,1.62,1.18,1.62,2.34q0,7.71,0,15.44C742.62,481.44,742.34,483.56,744.6,484.91Z"/><path class="cls-5" d="M742.89,454.4c-.24,2.19-1.29,3.8-3.63,3.72s-3.46-1.7-3.41-3.93,1.25-3.79,3.6-3.73S742.76,452.17,742.89,454.4Z"/><path class="cls-5" d="M465,454.29c-.34,2.35-1.41,4-3.75,3.83s-3.4-1.76-3.31-4,1.28-3.76,3.64-3.66S464.79,452.32,465,454.29Z"/><path class="cls-5" d="M524.11,479.65l.27-.46-.23-.12c0,.18,0,.35,0,.53Z"/><path class="cls-2" d="M590.07,360.15c0,.84-.12,1.69-.12,2.53q0,30.93,0,61.86a19.08,19.08,0,0,0,.75,6.46c1.09,3.08,3.11,5,6.48,5.29,1.2.09,1.93.44,1.82,1.85s-1.14,1.21-2,1.21c-6,0-11.92,0-17.87,0-1,0-1.87,0-1.91-1.35,0-.94.28-1.34,1.26-1.64,5.69-1.76,7.31-3.81,7.45-9.74.15-6.18.09-12.37.09-18.55,0-16.16,0-32.31-.08-48.46-.05-7.55-.17-7.57-7.48-9.59a1.47,1.47,0,0,1-1.25-1.7c0-1,.49-1.43,1.48-1.43q11.5,0,23,0c2.08,0,1.82,1.76,2.16,2.94q7.85,27,15.63,54c.18.63.12,1.38,1.16,2,1.73-6.16,3.44-12.22,5.13-18.28,3.49-12.56,7-25.1,10.42-37.69.59-2.21,1.38-3.16,3.88-3.08,6.75.22,13.52.06,20.28.09,1,0,2.37-.44,2.42,1.48s-1.16,1.56-2.29,1.65c-4.14.33-6,2-6.27,6.19-.24,3.43-.19,6.87-.19,10.31,0,20.62,0,41.24.11,61.86,0,5.8,1.2,7.06,7,8,1.09.18,1.66.41,1.62,1.63,0,1.39-.94,1.34-1.88,1.34H631.7c-1,0-1.76-.11-1.78-1.45,0-1.63,1.07-1.38,2.08-1.5,4.73-.56,6.35-2,6.38-6.79.15-22.68.15-45.36.19-68a5.93,5.93,0,0,0-.33-1.24c-1.42,1.52-1.54,3.37-2,5q-10.07,35.28-20.05,70.6a2.8,2.8,0,0,1-.19.66c-.47.87-.16,2.45-1.38,2.53-1.6.11-1.33-1.62-1.61-2.57q-10.77-36.7-21.42-73.44c-.31-1-.67-2.05-1-3.08Zm48.54-.61-.19-.24c-.07.08-.19.15-.19.23s.12.16.18.24Z"/><path class="cls-2" d="M638.61,359.54l-.2.23c-.06-.08-.18-.16-.18-.24s.12-.15.19-.23Z"/></svg>