<svg id="Layer_1" data-name="Layer 1" xmlns="http://www.w3.org/2000/svg" viewBox="0 0 1106.13 743.43"><defs><style>.cls-1{fill:#c92832;}.cls-2{fill:#df433b;}</style></defs><title>bank-mayora</title><path class="cls-1" d="M309.39,447.77c-.56-1.39-2-.95-2.95-1.23a27.42,27.42,0,0,1-20.36-23.34c-2.62-19.77,9.63-36.92,29.17-40.27,9.84-1.69,18.88.25,26,8.12,2-7,2-7,9.33-7,4.46,0,8.93.06,13.39,0,1.89,0,2.51.57,2,2.43-.35,1.2-.5,2.46-.73,3.69-1.19,6.24-1.19,6.31-7.41,6.65-1.64.09-2.12.75-2.38,2.2-1.8,10.23-3.59,20.48-5.54,30.68-.51,2.66.18,3.37,2.84,3.31,5.5-.13,5.5,0,4.4,5.43-1.47,7.28-1.47,7.28-9,7.28l-15.45,0a6.89,6.89,0,0,1-.91-.18c.17-1.15.34-2.32.67-4.55-5,4-10.39,5-15.47,6.82Zm29-35.66c.06-12.56-10.23-20.31-22.27-16.78-9.72,2.85-16.54,14.63-14.74,25.46,1.69,10.22,8.77,15.43,19.07,14.06C331.26,433.41,338.29,424.5,338.36,412.11Z"/><path class="cls-1" d="M1038.25,353.38c7.09,0,13.5.07,19.91,0,1.8,0,2.3,1,2.84,2.32q14.73,36.39,29.51,72.76c2.47,6.09,5.27,12,12.43,15.72h-28.45c5.15-4.06,5.23-4.36,2.73-10.84-2.62-6.83-5.33-13.63-7.83-20.5-.71-1.95-1.73-2.55-3.75-2.53-9.86.1-19.71.08-29.56,0-1.7,0-2.71.4-3.33,2.15-2.43,6.9-5,13.73-7.5,20.63-2,5.71-1.47,7.39,3.78,11.37-10.94-.38-21.39,1-31.82-.53a16.34,16.34,0,0,1-10.35-6.2c-10.43-12.48-20.52-25.2-28.92-39.17-.22-.37-.37-.79-.69-1.47,5.38-.95,10.42-2.32,15-5,10.21-6,11.86-19.48,3.19-26.26-6.25-4.88-13.37-3.84-20.43-2.71-1.89.3-1.1,2-1.11,3.12q-.06,25.43,0,50.86c0,5.38.08,10.77.21,16.14.1,4.39,1.33,8.29,6,11H933.5c5-3,5.93-7.36,5.93-12.07q0-33.84-.08-67.7c0-4.26-1.19-8.12-5.26-10.42.24-.28.37-.56.5-.56,11.91,0,23.82-.07,35.73.08a29.65,29.65,0,0,1,12.86,3.28c12.47,6.19,16,20.82,7.58,31.93-4.3,5.7-10.06,9.21-17.09,11.23,1.39,2.84,3.57,5,5.49,7.34,7.42,9,13.88,18.81,22.72,26.59,1.55,1.36,3.29,2.53,4.69,4,2.11,2.23,3.31,1.31,4.61-.83,4.16-6.79,6.36-14.42,9.33-21.7,6.75-16.51,13.31-33.1,19.94-49.65.38-1,.8-1.9,1.1-2.88C1043,358.19,1042.52,356.69,1038.25,353.38Zm12.59,12c-4.4,11.23-8.57,22-12.84,32.65-.75,1.89.25,1.86,1.53,1.86,7.44,0,14.88,0,22.32,0,1.67,0,2.39-.44,1.7-2.18C1059.38,387.18,1055.23,376.59,1050.84,365.42Z"/><path class="cls-1" d="M151.17,399.35c0,13.4-.06,26.81.05,40.21,0,2.46-.44,3.34-3.15,3.33-21.31-.12-42.61-.06-63.92-.09-1.29,0-3.18.77-3.1-1.85.36-12-.8-24,1.33-36,5-28,24.33-43.2,49.84-47.89a97.3,97.3,0,0,1,15.34-1.48c2.78-.07,3.72.6,3.68,3.56C151.08,372.55,151.17,386,151.17,399.35Z"/><path class="cls-1" d="M3.21,399.2q0-20.26,0-40.54c0-1.41-.45-3,2-3,18.47.14,35.67,4.17,49.74,16.95,11.44,10.4,16.39,24,17.84,39,.92,9.48.43,19,.58,28.49,0,2-.47,2.8-2.66,2.8q-32.46-.12-64.92,0c-2.68,0-2.62-1.29-2.62-3.16Q3.24,419.47,3.21,399.2Z"/><path class="cls-1" d="M550.61,444.19c8.2-8.51,7.43-19.39,9-29.5,2.5-16.05,4.49-32.18,6.73-48.27.67-4.78,1.08-9.43-3.73-13h22.11a1.57,1.57,0,0,1,1.7,1.26c5.17,14.07,11.58,27.62,17.35,41.44,3.28,7.89,6.71,15.73,10.4,24.36,2.63-6.59,5-12.42,7.3-18.29q7.95-20.28,15.84-40.58c.49-1.27,1.27-2.6,1.24-3.89-.11-4.25,2.33-4.49,5.67-4.37,6.06.22,12.13.06,18.89.06-4.72,3.78-4.16,8.35-3.52,13.05,2.51,18.36,4.91,36.74,7.37,55.11.41,3.06,1,6.1,1.29,9.17.55,5.2,2,9.89,7.23,13.4H648.73c5.75-3.15,5.53-8.29,4.89-13.66-1.79-15-3.48-30-5.25-45-.66-5.68-1.43-11.35-2.26-17.94-2.92,7.41-5.55,14-8.15,20.69-7.17,18.31-14.36,36.61-21.44,54.95-1,2.71-1.88,2.94-4.09,1-4.23-3.78-6.9-8.49-9-13.59Q591,401.28,578.68,372c-.47-1.09-.62-2.43-2.13-3.36-1.06,8-2.1,15.71-3.13,23.47q-2.59,19.56-5.19,39.13c-.66,5-.42,9.65,5.16,12.91Z"/><path class="cls-1" d="M265.53,394.5c5.93,2.85,10.34,6.32,12.76,11.84,6.29,14.35-2.81,32.64-18.48,37.21a55,55,0,0,1-15.24,2.14c-12.36.06-24.73-.06-37.1.08-2.6,0-3.26-.76-2.54-3.1.13-.43.11-.9.2-1.35.54-2.68.31-6,1.84-7.87,1.67-2.06,5.14-.67,7.81-.69,2.22,0,2.26-1.3,2.53-2.81q5.48-30.88,11-61.76c.88-5,.9-5-4.23-5s-5.14,0-4.17-5c1.55-8,1.55-8.12,9.76-8,10.86.17,21.76-.79,32.59.64,8.81,1.17,16.56,4.52,20.18,13.3C287.16,375.66,283,390.55,265.53,394.5ZM240.3,432.69a43.7,43.7,0,0,0,6.85-.43c11.2-1.84,16.56-8.78,15.34-20-.58-5.32-3.29-8.53-8.47-10-3.91-1.07-7.92-1.05-11.93-1.17-1.94-.06-2.56.77-2.86,2.52-1.29,7.67-2.7,15.32-4,23C234.13,432.69,234.15,432.69,240.3,432.69ZM248.86,388a36.59,36.59,0,0,0,4.8,0c4.7-.61,8.88-2.26,11.49-6.55,4.3-7.05,1.61-15.6-5.44-17.34-3.83-.95-7.73-.78-11.62-.83-1.6,0-1.82.86-2,2.12-.89,5.41-1.89,10.81-2.79,16.22C242.16,388.14,242.19,388.15,248.86,388Z"/><path class="cls-1" d="M878.76,446.68c-20.9-.05-40-12.48-46.82-30.77C823,391.84,834,366,857.63,355.62c19.67-8.67,43.44-5.11,58.1,8.69,24.27,22.86,17.39,63.14-13.14,77.18A57.81,57.81,0,0,1,878.76,446.68Zm-34-49.6a41.42,41.42,0,0,0,6.94,23.71c13.43,20.81,44.33,21.23,57.15.6C916,409.91,916,397.53,911.8,385c-6.8-20.37-28.3-29.7-47.73-20.53C850.4,371,845.2,382.67,844.8,397.08Z"/><path class="cls-1" d="M495.2,397.05c-7.25-.44-7.25-.44-5.95-6.76s1.28-6.22,7.57-6.22c7.44,0,14.89.11,22.34-.06,2.67-.06,3.14.93,2.56,3.18-.28,1.1-.45,2.24-.65,3.36-1,5.78-1,5.82-6.77,6.27a5.52,5.52,0,0,0-2.78,1.17c-7,4.89-14.06,9.85-21.17,14.65-1.78,1.2-1.66,1.94-.2,3.26q8.67,7.83,17.19,15.82a4.64,4.64,0,0,0,4.09,1.19c2.79-.37,3.43.8,2.79,3.33a25.15,25.15,0,0,0-1,5.74c0,3.42-1.78,3.89-4.77,3.8-7.33-.22-14.66-.13-22,0-2,0-2.63-.49-2.09-2.5a41.4,41.4,0,0,0,1-5.75c.34-2.89.77-5.58,5.26-5.33l-17.5-16.44c-1,5.52-1.8,10.45-2.75,15.35-.35,1.78.59,1.8,1.89,1.88,6.39.38,6.39.41,5.21,6.82-1.1,5.93-1.1,5.93-7,5.93-7.9,0-15.81-.15-23.71.08-2.9.08-3.17-.89-2.57-3.25a37,37,0,0,0,1.23-6.74c.15-2.45,1.3-3.14,3.52-2.88,1,.11,2.08-.1,3.09,0,2.15.3,2.76-.92,3.08-2.71q5.73-31.38,11.51-62.75a4.43,4.43,0,0,0,0-.73,11.08,11.08,0,0,0-5.08-.25c-3.15.36-3.44-1.15-2.75-3.58a12.22,12.22,0,0,0,.35-1.32c.48-2.58.11-6,1.63-7.51,1.89-1.88,5.43-.55,8.25-.64,4-.12,8,.23,12-.11,3.3-.28,3.4,1.05,2.91,3.64-2.89,15.28-5.68,30.58-8.5,45.87-.35,1.91-.82,3.82-1,5.75-.06.64-1.21,1.39-.09,2,.78.4,1.5-.07,2.2-.56C482.57,405.84,488.56,401.68,495.2,397.05Z"/><path class="cls-1" d="M397.63,390.64c4.75-3.06,9.58-5.82,15.08-7.2a31.59,31.59,0,0,1,11.24-.8c9.34,1,14.72,8.41,13.08,17.77-1.67,9.57-3.26,19.16-5.08,28.7-.56,2.94-.17,4.42,3.18,3.84.55-.1,1.14,0,1.71,0,2.3-.24,3.61.28,2.58,3a16,16,0,0,0-.65,3c-1.27,6.79-1.26,6.79-8.25,6.79H405c.61-3.6,1.27-6.85,1.65-10.13.26-2.2,1.29-2.71,3.37-2.69,5.82,0,5.79-.05,6.84-6.07,1.18-6.76,2.28-13.53,3.65-20.24,2.25-11.1-4.15-11.63-11.22-10.12-5.09,1.08-9.41,4-13.48,7.27a3.43,3.43,0,0,0-1.28,2.3c-1.36,8.12-2.67,16.25-4.22,24.33-.46,2.44.54,2.58,2.43,2.61,5.53.07,5.53.13,4.67,5.51-1.15,7.23-1.15,7.23-8.59,7.23s-15.13-.09-22.68.05c-2.29.05-2.84-.66-2.25-2.71.25-.88.37-1.79.54-2.69.43-2.24.23-4.94,1.44-6.62,1.38-1.9,4.26-.64,6.48-.76,1.63-.08,2.12-.8,2.38-2.26,1.83-10.59,3.64-21.19,5.69-31.74.45-2.3-.53-2.1-2-2.14-6.05-.14-6.05-.17-5.14-6.21,1-6.56,1-6.56,7.56-6.56,4.81,0,9.63.17,14.43-.07,2.89-.14,3.39,1,2.67,3.37A5,5,0,0,0,397.63,390.64Z"/><path class="cls-1" d="M773.7,444.28H746.3c1.63-1.78,4.23-2.21,4.53-4.69.28-2.26-.78-4.27-1.52-6.27-2.58-7-5.38-13.86-7.95-20.83a2.94,2.94,0,0,0-3.28-2.21q-15,.11-29.91,0c-1.69,0-2.69.37-3.31,2.12-2.43,6.9-5.13,13.7-7.51,20.62-2,6-1.51,7.34,3.41,11.23H676c2-2.11,4.44-3.36,6.09-5.49,3.22-4.14,4.85-9,6.76-13.79q11.71-29.12,23.41-58.21c.6-1.48,1.07-3,1.55-4.54,1.34-4.3.8-5.76-3.88-8.84h14.57c7.61,0,7.6,0,10.52,7.18q13.9,34.14,27.78,68.3C765.21,434.86,768.15,440.43,773.7,444.28ZM722.93,365.4c-4.48,11.35-8.67,22.05-12.92,32.73-.79,2,.47,1.8,1.64,1.8,7.42,0,14.85,0,22.27,0,1.7,0,2.29-.46,1.61-2.2C731.38,387.2,727.29,376.63,722.93,365.4Z"/><path class="cls-1" d="M808.82,444.26H782.28c5.57-4.05,5.84-9.58,5.8-15.25q-.09-10.83,0-21.66a9.08,9.08,0,0,0-1.46-5.13C779,390,771.39,377.73,763.76,365.5c-2.8-4.49-6-8.68-10.64-11.75,6.11-.06,12.18-1.24,18.15.68a7.89,7.89,0,0,1,4.31,3.71q10.09,16.56,20.32,33c.35.57.77,1.1,1.41,2,6.17-9.38,12.39-18.39,18.11-27.71,3-4.94,2-7.82-3.26-11.73h24c-4,6-7.77,11.76-11.61,17.53q-10.46,15.72-21,31.4a6.86,6.86,0,0,0-1.32,4.12c.07,7.22.16,14.44,0,21.65C802.2,434.61,803.46,440.07,808.82,444.26Z"/><path class="cls-2" d="M77.22,329.21h33.63c1.33,0,2.84-.39,2.86,1.84s-1.67,1.73-2.88,1.73q-33.64,0-67.27,0c-1.17,0-2.94.75-3.05-1.59s1.69-2,3.08-2Q60.4,329.19,77.22,329.21Z"/><path class="cls-2" d="M108.88,314.45c-1.11.76-2.29.39-3.38.4-18.89,0-37.78,0-56.67-.06-1,0-3.21,1.18-3.16-1a3.15,3.15,0,0,1,3.48-3c7.44.11,14.88,0,22.33,0,10.76,0,21.52.09,32.28-.07C106.65,310.72,108.21,311.72,108.88,314.45Z"/><path class="cls-2" d="M77.34,326.73c-11.11,0-22.21,0-33.32,0-1,0-2.73.88-2.8-1.29s1.29-2.29,3-2.29q33,0,66,0c1.74,0,3,.35,3,2.31,0,2.15-1.81,1.27-2.82,1.27C99.32,326.76,88.33,326.73,77.34,326.73Z"/><path class="cls-2" d="M77.43,341.43c10.54,0,21.08,0,31.62.05,1,0,2.83-1,3,.95s-1.26,2.26-3,2.25q-32-.06-63.92,0c-.35,0-.69,0-1,0-1.61.17-2-1-2.06-2.14-.1-1.54,1.22-1.05,2-1.06,4.35-.05,8.71,0,13.06,0Z"/><path class="cls-2" d="M77.06,320.71c-10.31,0-20.62,0-30.92-.07-1.09,0-3.17,1.13-3.28-1s1.43-2.69,3.53-2.69c16.84.09,33.68.05,50.52.05,3.78,0,7.56.09,11.34,0,2-.07,3.24.84,3.1,2.7s-2,1-3,1C97.91,320.74,87.49,320.71,77.06,320.71Z"/><path class="cls-2" d="M109.81,347.58c-.33,2.64-1.55,3.2-3.6,3.2-19.44-.06-38.89,0-58.33,0-.35,0-.69,0-1,0a2.1,2.1,0,0,1-2.24-2.13c-.15-1.8,1.46-1,2.24-1,12.47-.06,24.93,0,37.4,0Z"/><path class="cls-2" d="M104.8,308.56H49.66c1.26-2.38,2.7-3.94,5.67-3.92q21.83.12,43.63,0C101.83,304.61,103.14,306.24,104.8,308.56Z"/><path class="cls-2" d="M98,302.59H56.55C65.68,293.75,86.75,293,98,302.59Z"/><path class="cls-2" d="M77.32,335.42c11.11,0,22.22,0,33.33,0,1,0,2.75-.82,2.76,1.4,0,1.95-1.42,1.72-2.67,1.72q-33.67,0-67.35,0c-1.38,0-2.61-.08-2.61-1.85,0-1.95,1.56-1.3,2.52-1.3C54.64,335.4,66,335.42,77.32,335.42Z"/><path class="cls-2" d="M48.3,353.9h57.75c-.75,2-1.84,2.87-3.86,2.86q-25.05-.08-50.11,0C50.06,356.77,49,355.93,48.3,353.9Z"/><path class="cls-2" d="M54.11,360.09H99.92a4.81,4.81,0,0,1-4.59,2.68q-18.19,0-36.39,0C56.93,362.78,55.59,361.89,54.11,360.09Z"/><path class="cls-2" d="M65.9,366.24H88.19A27.71,27.71,0,0,1,65.9,366.24Z"/></svg>