<svg id="Layer_1" data-name="Layer 1" xmlns="http://www.w3.org/2000/svg" viewBox="0 0 1106.13 743.43"><defs><style>.cls-1{fill:#090909;}.cls-2{fill:#df5826;}.cls-3{fill:#ffc10d;}.cls-4{fill:#f79958;}.cls-5{fill:#929497;}.cls-6{fill:#9c068c;}</style></defs><title>bank-mega-syariah</title><path class="cls-1" d="M26.93,604.37V467.81h51q15.49,0,24.54,4a34.5,34.5,0,0,1,14.81,12.33A32,32,0,0,1,123,502.63a30.15,30.15,0,0,1-5,16.94,35.52,35.52,0,0,1-14,12.1q11.81,3.54,18.61,12.07t6.81,21a38.66,38.66,0,0,1-6.16,21.76,35.4,35.4,0,0,1-16.43,13.61q-10.29,4.25-28.24,4.24Zm18-79.18H74.3c7.7,0,13.16-.43,16.41-1.3a20.66,20.66,0,0,0,10.81-6.57q3.78-4.61,3.79-12.52a20.78,20.78,0,0,0-3.45-12.26,17.65,17.65,0,0,0-9.17-6.75q-5.72-1.86-20.53-1.86H44.88Zm0,63.07H78.71q11.21,0,16.52-1.68a22.11,22.11,0,0,0,11.71-8q4-5.55,4-13.93a21.89,21.89,0,0,0-3.84-13.09,22.11,22.11,0,0,0-10.35-7.82q-6.51-2.47-20.43-2.47H44.88Z"/><path class="cls-1" d="M139.19,604.37l52.36-136.56h19.21l55.6,136.56H245.81L230,563H172.89l-14.76,41.36Zm39-56.07h46.24l-14.11-37.82q-6.54-17.43-9.59-28.32a173.2,173.2,0,0,1-7.44,26.08Z"/><path class="cls-1" d="M280,604.37V467.81h18.41l71.38,107.43V467.81H387V604.37H368.58L297.31,496.92V604.37Z"/><path class="cls-1" d="M416.8,604.37V467.81h18v67.72l67.46-67.72h24.37l-57,55.39,59.48,81.17H505.35l-48.23-69-22.36,21.73v47.32Z"/><polygon class="cls-1" points="642.37 467.81 620 526.41 597.63 467.81 557.24 467.81 557.24 604.37 572.94 604.37 582.31 604.37 588.46 604.37 588.46 522.72 608.76 580.05 619.32 580.05 620.69 580.05 631.25 580.05 651.55 522.72 651.55 604.37 657.69 604.37 667.07 604.37 682.77 604.37 682.77 467.81 642.37 467.81"/><polygon class="cls-1" points="814.05 501.39 814.05 467.81 811.57 467.81 726.79 467.81 715.35 467.81 715.35 483.35 715.35 588.67 715.35 604.37 744.18 604.37 814.05 604.37 814.05 581.37 814.05 572.85 749.58 572.85 749.58 551.85 802.95 551.85 802.95 520.33 749.58 520.33 749.58 501.39 814.05 501.39"/><path class="cls-1" d="M885.82,496.37a19,19,0,0,1,18.51,15.22H941.6v-13c0-20.16-23.62-36.5-52.74-36.5s-52.75,16.34-52.75,36.5v69.31c0,15.07,13.21,28,32,33.58a74.65,74.65,0,0,0,42.56-.36c18.21-5.75,30.88-18.46,30.88-33.22V522.1H885.7v30.77h18.92c.59,0-2,7.32-2.36,7.92a18.8,18.8,0,0,1-5.63,6.33c-12.25,8.66-29.7-.57-29.7-15.59V515.41A19,19,0,0,1,885.82,496.37Z"/><path class="cls-1" d="M1073.71,588.17l-5.19-15.32-5.49-16.2-1.62-4.8-10.68-31.52-6.42-18.94-10.5-31-.88-2.58h-31.52l-.88,2.58-10.5,31L987.44,509l-32.3,95.34h33.28l5.49-16.2h46.53l5.49,16.2h33.27Zm-69.12-31.52,1.62-4.8,10.68-31.52.28-.82.28.82,10.68,31.52,1.63,4.8Z"/><path class="cls-2" d="M478.92,314.23c0-.14-.09-.28-.13-.43a.83.83,0,0,1,0-.15c-.07-.23-.12-.47-.18-.71h-.35l.92,2C479.07,314.69,479,314.46,478.92,314.23Z"/><polygon class="cls-3" points="506.82 6.62 337.77 6.62 337.66 6.89 180.41 366.56 342.54 366.56 422.3 192.07 506.94 6.89 506.82 6.62"/><polygon class="cls-1" points="768.59 8.07 768.36 7.54 599.02 7.64 683.95 193.25 763.59 367.49 925.73 367.49 768.59 8.07"/><path class="cls-2" d="M629.88,290.1c0-.4,0-.8-.07-1.2l0-.18,0-.48c-.12-1.41-.29-2.79-.5-4.17,0-.08,0-.16,0-.23-.22-1.48-.51-2.94-.83-4.39,0-.19-.08-.37-.12-.57-.24-1-.5-2.05-.79-3.06-2.24-8.33-5.72-16.32-9.4-24.13l-20.25-42.85-44.94-97.29h-.24L507.7,208.84q-10.12,21.42-20.24,42.85a145.37,145.37,0,0,0-9.41,24.15q-.42,1.5-.78,3c0,.2-.09.39-.13.59-.32,1.43-.6,2.88-.82,4.34,0,.09,0,.19-.05.29-.2,1.37-.38,2.75-.5,4.15l0,.46c0,.07,0,.13,0,.2,0,.44-.05.88-.08,1.31s-.05.74-.07,1.11c0,.86-.06,1.72-.07,2.59,0,1.47.07,2.93.17,4.39,0,.37.05.74.08,1.11.1,1.23.24,2.46.4,3.67,0,.25.07.51.11.77a66.59,66.59,0,0,0,2,8.95.75.75,0,0,0,0,.16l.13.43c.07.23.15.46.22.69l6.89,14.82,4.59,7.18c.82,1.07,1.67,2.12,2.55,3.14.29.34.59.67.88,1,1,1.06,1.92,2.1,2.93,3.11l.77.74c1,.95,2,1.87,3,2.77.23.19.45.39.67.59q1.69,1.43,3.47,2.76l.84.63c1.2.88,2.44,1.73,3.7,2.54l.94.61c1.28.8,2.58,1.56,3.92,2.3l.9.48c1.39.74,2.8,1.45,4.24,2.1l.66.3c1.49.66,3,1.29,4.54,1.87l.23.09c1.59.59,3.22,1.12,4.86,1.61l.69.21c1.58.46,3.19.86,4.82,1.23l.87.19q2.43.52,4.92.9l.86.11c1.7.24,3.41.43,5.14.56l.64,0c1.82.12,3.66.2,5.53.2h.19c1.86,0,3.7-.08,5.53-.2l.63,0c1.74-.13,3.45-.32,5.14-.56l.86-.11c1.66-.25,3.31-.55,4.93-.9l.86-.19c1.63-.37,3.24-.77,4.83-1.23l.68-.21c1.65-.49,3.27-1,4.87-1.61l.21-.09q2.33-.87,4.56-1.88l.65-.29c1.45-.65,2.86-1.36,4.25-2.1l.89-.48q2-1.09,3.93-2.31l.93-.59q1.89-1.23,3.71-2.55l.83-.63c1.18-.89,2.35-1.81,3.48-2.77l.65-.57q1.56-1.37,3-2.79l.76-.73c1-1,2-2.05,2.93-3.11.3-.34.6-.66.88-1,.9-1,1.77-2.11,2.61-3.2l.85-1.14q1.23-1.65,2.34-3.36c.26-.39.5-.78.74-1.17.68-1.09,1.35-2.2,2-3.33.17-.31.34-.62.5-.94l3.59-7.85c.28-.75.56-1.49.82-2.25l.08-.2c.26-.78.5-1.57.74-2.36l.15-.46a1.36,1.36,0,0,1,0-.17,69.68,69.68,0,0,0,2-8.94c0-.26.07-.52.1-.78.17-1.21.3-2.43.4-3.65,0-.38.07-.75.09-1.12.1-1.46.16-2.92.16-4.39,0-.86,0-1.72-.07-2.57C629.94,290.93,629.91,290.51,629.88,290.1Z"/><path class="cls-4" d="M506.84,6.89,422.19,192.07l39.25,85.33,16.67,35.54h.35a67.42,67.42,0,0,1-1.77-8.17c0-.25-.07-.51-.11-.77-.16-1.2-.29-2.41-.4-3.63l-.09-1.1c-.09-1.48-.16-3-.16-4.46v-.15c0-.86,0-1.72.07-2.57,0-.37,0-.74.07-1.11s0-.86.08-1.3c0-.07,0-.14,0-.21l0-.45c.12-1.39.3-2.77.5-4.13a2.93,2.93,0,0,0,.05-.29c.22-1.46.5-2.89.82-4.32,0-.19.09-.39.13-.58.24-1,.5-2,.78-3a144.12,144.12,0,0,1,9.41-24Q498,231.32,508.13,210l44.47-98.44Z"/><path class="cls-5" d="M598.65,6.85,683.29,192l-39.24,85.33-16.92,37.12a94.93,94.93,0,0,0,1.67-9.75c0-.26.06-.51.1-.77.17-1.2.3-2.41.4-3.63,0-.37.07-.74.09-1.11.1-1.47.17-3,.17-4.45,0,0,0-.1,0-.15,0-.86,0-1.72-.07-2.58,0-.36,0-.73-.06-1.1s0-.87-.08-1.3l0-.21,0-.46c-.12-1.39-.29-2.76-.5-4.13a2.74,2.74,0,0,0,0-.28c-.22-1.46-.5-2.89-.81-4.32,0-.2-.09-.39-.14-.59-.23-1-.49-2-.77-3a144.36,144.36,0,0,0-9.41-24L597.35,210l-44.46-98.44Z"/><path class="cls-2" d="M479.09,314.92c-.07-.23-.15-.46-.22-.69s-.09-.28-.13-.43a.83.83,0,0,1,0-.15c-.07-.23-.12-.47-.18-.71h-.36Z"/><path class="cls-6" d="M216.9,705.24l26.68-1.68q.87,6.51,3.53,9.91,4.33,5.5,12.38,5.51,6,0,9.25-2.82a8.42,8.42,0,0,0,3.25-6.53,8.32,8.32,0,0,0-3.09-6.31q-3.09-2.79-14.36-5.27-18.45-4.14-26.31-11a22.14,22.14,0,0,1-7.93-17.51,23.75,23.75,0,0,1,4.06-13.22,26.86,26.86,0,0,1,12.19-9.78Q244.7,643,258.87,643q17.4,0,26.53,6.47T296.26,670l-26.43,1.55q-1.05-6.13-4.43-8.92t-9.32-2.78q-4.89,0-7.36,2.07a6.38,6.38,0,0,0-2.48,5.05,5.07,5.07,0,0,0,2,3.9q2,1.79,9.41,3.34,18.39,4,26.34,8t11.58,10.06a25.44,25.44,0,0,1,3.62,13.43,28.8,28.8,0,0,1-4.83,16.1A30.15,30.15,0,0,1,280.91,733q-8.67,3.81-21.85,3.81-23.16,0-32.07-8.92T216.9,705.24Z"/><path class="cls-6" d="M313.69,644.51h31.15l18.29,30.61,18.32-30.61h31l-35.28,52.74v38H349v-38Z"/><path class="cls-6" d="M474.83,720.28H443l-4.42,15H409.93L444,644.51h30.59l34.1,90.75H479.37ZM469,700.65,459,668l-9.91,32.62Z"/><path class="cls-6" d="M527.53,735.26V644.51h46.74q13,0,19.87,2.22A21.17,21.17,0,0,1,605.22,655a25.63,25.63,0,0,1-7.87,36.62,34.05,34.05,0,0,1-9.85,3.59,27.84,27.84,0,0,1,7.3,3.34,28.89,28.89,0,0,1,4.49,4.77,35.82,35.82,0,0,1,3.93,5.64l13.58,26.3H585.11l-15-27.73q-2.85-5.38-5.08-7a11.77,11.77,0,0,0-6.87-2.1h-2.48v36.83Zm28.16-54h11.83A42,42,0,0,0,575,680a7.43,7.43,0,0,0,4.55-2.85,9.21,9.21,0,0,0-1-12q-2.79-2.35-10.47-2.35H555.69Z"/><path class="cls-6" d="M636.39,644.51H664.5v90.75H636.39Z"/><path class="cls-6" d="M749.92,720.28H718.08l-4.42,15H685l34.11-90.75h30.59l34.1,90.75H754.46Zm-5.82-19.63-10-32.62-9.91,32.62Z"/><path class="cls-6" d="M802.38,644.51h28v31.75h30.64V644.51h28.17v90.75H861.06V698.55H830.42v36.71h-28Z"/></svg>