<svg id="Layer_1" data-name="Layer 1" xmlns="http://www.w3.org/2000/svg" viewBox="0 0 1106.13 743.43"><defs><style>.cls-1{fill:#85c227;}.cls-2{fill:#6c047a;}</style></defs><title>bank-muamalat</title><path class="cls-1" d="M3.18,434.49c1.86-3.08,1.62-6.67,2.39-10,3.68-15.86,11.12-29.8,21.54-42.21,10.15-12.1,20.24-24.25,31.76-35.12,1.92-1.81,3.6-3.95,6.52-5.36.6,3.48-.81,6-2.59,8.35-3,3.85-6,7.73-9.26,11.3C29,388.08,31.88,433,55.6,457.06c15.51,15.7,33.4,27.5,55.25,32.4a56.62,56.62,0,0,0,23.51.34c8.6-1.7,15.29-6.22,19-14.27,9.46-20.6,8.84-41.63,2.26-62.87-.72-2.34-2.2-2.8-4.21-2.37-8.41,1.79-14.29-1.48-19.55-8.13-5.92-7.47-14.08-12.78-22.34-19.31,11.16-1.32,21.37-.21,31.91-.88-3.58-10.19-7.23-20.08-9.51-30.39-4.77-21.58-5.72-43,3.51-63.73,7.6-17.08,20.89-28.41,37.55-36.2,1.58,1.77.12,3-.33,4.28-11.11,29.85-16.24,60.55-13,92.41a140.26,140.26,0,0,0,6.63,31c.88,2.61,2.11,3.73,5,3.65,10.58-.32,21.16-.35,31.74-.56a16.49,16.49,0,0,0,7.34-1.56c7.16-3.68,14.41-7.23,20.88-12.12,15.75-11.92,20.69-27.51,14.64-46.34a100.13,100.13,0,0,0-8.72-18.68c-.78-1.37-2.37-2.5-1.83-4.45l-.07.09c20.1,7.41,37.16,19,48,37.82,13.19,22.79,6.16,47.53-17,63-14.4,9.6-30.21,13.05-47.41,11.8-13.55-1-27.18-1-40.76-1.71-4-.21-4.7,1-4.24,4.77,2.82,23.4-.25,45.87-11.29,67a105.71,105.71,0,0,1-35.49,39.2c-13.73,9.21-29.25,8.88-44.77,6.68C48,522.92,9,489.68,4,450.79c-.05-.41-.53-.77-.81-1.16Z"/><path class="cls-1" d="M138.8,537.06c9.31-12.12,18.8-22.92,30.51-31.59,6.37-4.71,13.83-5.49,21.46-6.06,33.31-2.51,62.79-14.37,86.9-37.73,21.17-20.52,33.34-46,38.3-75,3.43-20,3.53-39.84-4.59-58.94-8.27-19.46-22.66-34-38.89-46.8-22.46-17.78-48.12-29.18-75.44-37.16l-5.27-1.57c.88-2.57,2.95-3.59,4.51-5,9.47-8.36,17.12-18,21.63-29.92,1.13-3,2-3.14,4.45-1.27a431.72,431.72,0,0,1,78.2,76.85c16.43,20.84,25,45.44,30,71.31,5.28,27.34,6,54.76.14,82.08-8.57,39.86-32.21,67.54-69.22,84.08-32.43,14.49-66.68,18.8-101.81,18.11C153,538.37,146.27,538.51,138.8,537.06Z"/><path class="cls-2" d="M443.84,482.31c4-9.59,7.69-18.53,11.39-27.47,7.3-17.67,14.67-35.32,21.81-53,1.12-2.78,2.42-3.93,5.44-3.69a63.35,63.35,0,0,0,10.58,0c3.6-.32,4.47,1,4.44,4.47-.16,20.68-.08,41.37-.08,62.05,0,11.43-.15,22.87.09,34.3.07,3.62-1.1,4.44-4.55,4.43-12.7,0-12.7.09-12.7-12.76V435.52c-2.09.68-2.06,2.67-2.64,4.05-8.23,19.82-16.43,39.66-24.4,59.58-1.27,3.17-2.78,4.28-6.22,4.21-9.87-.19-9.9,0-13.55-8.94q-10.93-26.78-21.84-53.58a12.11,12.11,0,0,0-3-4.62V441c0,19.34-.06,38.68.06,58,0,3.14-.63,4.33-4.11,4.35-13.11.06-13.11.2-13.11-12.88,0-29.09,0-58.18-.06-87.27,0-3.56.37-5.26,4.73-5.18,13.47.26,13.45,0,18.53,12.67Q428.3,444.54,442,478.34C442.44,479.42,443,480.46,443.84,482.31Z"/><path class="cls-2" d="M700.37,470.4c0-9.92-.15-19.84.08-29.76.09-3.67-1.06-5.47-4.77-5.13s-4.47-1.31-4.29-4.7c.48-9.27-1.95-8.38,8.67-8.41,6,0,12.35-1.09,15.61,6.17,1,2.26,2.59.17,3.69-.39,10.56-5.38,21.42-7.77,33-3.68,1.9.67,4.27,1,5.5,2.36,4.39,4.78,8.27,2.51,13,.35,17.08-7.88,33.11-5.63,44.34,5.58a20.61,20.61,0,0,1,6.36,15.33q0,27,.36,53.95c0,2.33-.64,3.08-2.77,2.91a2.78,2.78,0,0,0-.5,0c-13.48.65-13.48.65-13.48-13V455.18c0-11.07-7.5-19.07-18.56-19.48a46.31,46.31,0,0,0-15.84,2.49c-2,.62-3,1.42-2.93,3.86.31,20,.38,40,.66,60,0,2.22-.42,3.18-2.66,2.94a2.9,2.9,0,0,0-.51,0c-14.65.71-14.65.71-14.65-13.83q0-19.92,0-39.84c0-9.36-6.38-15.72-15.79-15.77a21.8,21.8,0,0,0-3,.22c-15.12,2-15.21,2-15.09,17,.13,16.47-.56,32.94.41,49.4.12,1.9-.15,2.94-2.26,2.78a8.53,8.53,0,0,0-1,0c-13.52.58-13.52.58-13.52-12.89Z"/><path class="cls-2" d="M442.78,287.8c13.15,5.26,16.36,15.94,16.25,28.28s-6.71,20.71-17.85,25.59a46.63,46.63,0,0,1-18.1,3.83c-9.74.15-19.5-.23-29.22.16-4.25.18-4.49-1.58-4.48-4.93.09-29.9-.06-59.79.17-89.69,0-5-1.14-7.81-6.52-7.38-4.54.36-3.85-2.71-4.11-5.58-.34-3.64,1.66-3.6,4.27-3.59,13.94.08,27.89-.17,41.82.1,17.85.35,31,13.38,30,29.72C454.38,273.55,450.23,281.31,442.78,287.8ZM401.29,315h0c0,6,.07,12.09,0,18.14,0,2.38.33,3.68,3.25,3.57,6.38-.23,12.78.17,19.14-.15,12.68-.64,21.44-8.77,22.35-20.33.89-11.24-6.25-20.21-18.54-22.51-7.95-1.48-16.09-.41-24.14-.58-2.42-.06-2,1.8-2,3.22C401.28,302.55,401.29,308.77,401.29,315Zm15.65-30.68c2.52,0,5.1-.34,7.55.06,8.6,1.41,13-3.7,16.33-10.32,6.76-13.36,0-27.2-14.68-29.78-7.31-1.29-14.74-.21-22.11-.23-2.59,0-2.78,1.78-2.78,3.81.05,11.09.12,22.17,0,33.26,0,2.87,1.2,3.32,3.62,3.24C408.88,284.2,412.91,284.3,416.94,284.3Z"/><path class="cls-2" d="M1049.36,494.27c-2.65,9.83-5.66,12.13-14.7,12.08-3.42,0-6.08-1.23-7.32-4.26-1.37-3.35-2.68-2.44-5.09-1.07-11.7,6.67-24,7.55-36.22,1.91-11.1-5.13-15-14.74-14.39-26.52.51-10.77,6-18,15.88-21.75a52,52,0,0,1,31.64-2.1c4.14,1,4.88,0,4.29-3.94-1.37-9.12-6.92-14.13-17.33-15-8-.68-15.25,1.75-22.32,5.1-1.47.7-2.68,2-5.1,1.93,0-4.3.1-8.59,0-12.87-.07-2,1.06-2.62,2.63-3,10-2.3,20.07-4.38,30.37-3.56a29,29,0,0,1,26.71,28.93c.09,11.43-.22,22.86-.08,34.29C1038.41,495.08,1038.82,495.3,1049.36,494.27Zm-26.1-19.37c0-3.12,0-5.8,0-8.48,0-1.08.25-2.11-1.32-2.79-7.55-3.25-23.73-.41-29.55,5.42-4.65,4.67-5.47,10.19-3.16,16.21,2.24,5.84,6.47,9.27,12.8,9.74,6.94.52,12.51-2.44,17.84-6.66C1024.83,484.39,1022.75,479.22,1023.26,474.9Z"/><path class="cls-2" d="M686.06,494c-2.27,10-5,12.26-14.23,12.36-3.59,0-6.31-1.12-7.82-4.33-1.18-2.54-2.11-2.78-4.64-1.19-9.8,6.14-20.56,7-31.52,4.12-12.19-3.17-19.25-12.78-19.46-25.56-.22-13.17,5.71-21.71,18.23-25.68a58,58,0,0,1,29.74-1.09c3.61.76,4.38.1,3.92-3.5-1.23-9.6-7-14.85-17.87-15.57-8.31-.55-15.92,2-23.08,5.91-2.71,1.48-3.91,2-4-2.07-.15-12.26-.31-12.32,11.93-14.59,7.09-1.31,14.26-2.29,21.49-1.62a29,29,0,0,1,26.36,28.72c.12,11.76-.19,23.52,0,35.27C675.3,495.18,676.1,495.69,686.06,494Zm-26-18.6c0-12.67,0-12.58-12.06-12.7a42.28,42.28,0,0,0-10.37,1.39c-8.06,1.92-13.8,9.73-12.68,16.95,1.47,9.4,7.58,14.47,17.1,13.94,6.35-.36,11.23-3.7,15.78-7.89C661.76,483.42,659.14,478.84,660,475.41Z"/><path class="cls-2" d="M916.37,493.82c-1.82,9.18-3.53,11.12-10.35,12.26-7.28,1.22-9.11.3-13.39-6.91-11.61,7.68-24.17,9.71-37.23,4.81-18.29-6.87-23.16-33-8.3-45,8.64-7,19.43-7.82,30.15-7.76a51,51,0,0,1,13.25,2.27c1-10.32-3.92-17.16-13.59-19.23s-18.62.65-27,5.18c-3.23,1.74-4.12,1.55-4.11-2.39,0-11.82-.14-11.88,11.31-14.07,7.25-1.38,14.57-2.39,22-1.74a28.9,28.9,0,0,1,26.34,28.64c.1,11.75,0,23.51,0,35.26,0,1.5.29,3,.36,4.5.22,4.8,2.93,6,7.16,5C913.88,494.41,914.83,494.18,916.37,493.82Zm-26.14-19.15a49.17,49.17,0,0,1,0-6.54c.48-3.44-.93-4.65-4.24-5a51.91,51.91,0,0,0-18.44.89c-9.4,2.32-14.14,10.49-11.75,19.65,2.28,8.75,10.13,13.14,19.47,10.9C886.28,491.91,890.23,486.64,890.23,474.67Z"/><path class="cls-2" d="M585.54,458c0,9.75.23,19.51-.09,29.25-.16,4.73,1.39,6.6,6,5.8a1.21,1.21,0,0,1,.5,0c2.11.61,4.78-2,6.36.73,1.19,2.07-2.13,8.92-4.72,9.68-7.72,2.25-15.58,3.92-22.1-2.82-1.73-1.78-2.7-.88-4.22-.14a55.93,55.93,0,0,1-25.84,5.63c-13.74-.26-23.23-9.44-23.47-23.13-.33-19-.16-38-.28-57,0-1.82.27-2.95,2.39-2.73a10.87,10.87,0,0,0,1.51,0c13.14-.26,13.14-.26,13.14,12.82V477.4c0,10.7,6.74,17.18,17.38,16.37a70.74,70.74,0,0,0,13.29-2.5c3.24-.88,4-2.51,4-5.7-.24-19.83-.22-39.67-.44-59.5,0-2.29.62-2.75,2.73-2.9,13.85-1,13.84-1.07,13.84,12.6Z"/><path class="cls-2" d="M716.27,261.71c-9.84,11.22-19,21.93-28.48,32.29-2.93,3.18-2.86,5,0,8.13,12.47,13.74,24.66,27.76,37.37,42.16-7.5,1.57-13.33,2.22-18.86-4.68-9.13-11.38-19.68-21.6-29.34-32.56-2.48-2.81-5.2-2.6-8.17-2.48C666,304.68,667,307,667,308.4c0,10.93-.12,21.86.19,32.78.11,3.6-.87,4.93-4.39,4.38a9.87,9.87,0,0,0-3,0c-3.87.64-4.72-1-4.7-4.74.14-30.27.08-60.53.08-90.8,0-3.36-.13-6.73,0-10.09.16-3.2-1-4.37-4.33-4.54-2-.11-4.89,1.35-6.14-1.73-1.67-4.12-.35-6,4.19-6s9.09.22,13.61-.07c3.5-.23,4.54.82,4.5,4.41-.17,18.66-.11,37.33,0,56,0,1.76-1.3,4.74,1.27,5.14,2.86.44,6.19,1.47,8.82-1.69,7.22-8.63,15.13-16.73,21.89-25.7C703.83,259.31,709.4,260.93,716.27,261.71Z"/><path class="cls-2" d="M545.4,333.35c-.27,3.09,1.72,6.62-1.41,8.87-5,3.57-10.71,3.36-15.79.6-3.34-1.82-5.79-1.55-9.06-.25-7.37,2.94-15.16,2.89-22.85,1.6-9.41-1.57-15.3-7.43-17.72-16.5-2.86-10.78-1.43-20.71,7.24-28.62,10.37-9.46,22.92-10.52,35.93-8.59,3.92.58,4.34-.39,4.32-3.82,0-12.7-4.63-17.45-17.55-17.78-7-.18-13.7,1.06-20.43,2.62-1.44.34-4.09,2.29-4.25-.75-.13-2.57-2.25-6.66,1.82-7.86,12.33-3.63,24.87-6.15,37.62-2,9.64,3.14,14.55,9.95,14.48,20-.1,15.46-.44,30.91-.61,46.36C537.05,335.49,537.49,335.78,545.4,333.35ZM525.82,316.1c0-3.86-.08-7.72,0-11.58.06-2-.62-2.9-2.63-3.49a41.27,41.27,0,0,0-17.4-1.59c-9.27,1.31-17.64,8.57-17.17,15.84.82,12.69,6.41,21.53,21.64,19.93a28.91,28.91,0,0,0,7.82-1.81c9.19-3.75,7.29-1.11,7.7-10.75C525.91,320.47,525.83,318.28,525.82,316.1Z"/><path class="cls-2" d="M565.18,307.14c0-11.09-.07-22.18.06-33.27,0-2.94-.3-5-4-4.31s-4.84-.78-4.87-4.63c0-4.37,2.44-3.89,5.17-3.82,2.17.05,4.35.1,6.52,0,4-.22,8.26-1.29,7.44,5.48-.39,3.22,1.91,1.65,3.26.91a59.5,59.5,0,0,1,22.38-7.13c7.78-.87,15.09.41,21.25,5.65,4.82,4.1,6.56,9.49,6.53,15.71-.08,17.31,0,34.62,0,51.93,0,1.84.34,3.69.21,5.51s3.09,4.61.45,5.41a17.93,17.93,0,0,1-10.86-.22c-1.38-.48-.6-2.75-.6-4.2,0-17.64,0-35.29,0-52.93,0-10.09-4.28-15.44-14.2-16.82a30.32,30.32,0,0,0-25.76,8,5.27,5.27,0,0,0-2,4.26q.08,27,.13,53.94c0,.34,0,.67.06,1,.64,7.35.63,7.12-6.89,7.36-3.71.12-4.4-1.15-4.33-4.55C565.32,329.33,565.19,318.23,565.18,307.14Z"/><path class="cls-2" d="M1082.63,396.62c0,8,.39,15-.13,22-.38,5.12,1.44,6.35,6.11,5.82,3.48-.4,7.05.07,10.57-.12,2.81-.16,4.1.64,3.56,3.65a18.38,18.38,0,0,0-.2,4.51c.17,2.4-.75,3.29-3.18,3.19-4.52-.19-9.06,0-13.59-.25-2.34-.1-3.21.58-3.19,3.07.12,15.28-.06,30.56.17,45.84.13,8.32,4.63,11.63,13,10.26,7.49-1.23,7.37-1.23,7.16,6.43-.06,2.27-.84,3.35-2.89,3.89-7.65,2-15.29,2.23-22.77-.48s-10.66-8.42-10.7-16c-.08-16.28-.12-32.57.18-48.86.07-3.7-1-4.78-4.38-4.3-1.15.17-2.38-.15-3.52.06-5.24,1-6.45-1.3-6.29-6.27.14-4,1.38-4.68,5-4.62,9.17.16,9.81-.07,9-9.11-.73-7.88,1.77-12.62,9.16-15.13C1077.77,399.51,1079.72,398.15,1082.63,396.62Z"/><path class="cls-2" d="M948.77,442.54c0,13.78-.06,27.56,0,41.33.06,10.14.26,10,10,11.21,4.3.51,2,3.82,1.26,5.66-.93,2.19-3.41,3.16-5.57,4.07A24.57,24.57,0,0,1,940.6,506c-3.78-.63-6.09-3.32-7.13-7a38.51,38.51,0,0,1-1-10.49q0-40.32,0-80.65c0-6.83-.65-7.58-7.56-8.39-3.49-.41-2-2.77-2.33-4.46-.85-4.63.63-6.78,5.78-6.14,3.8.47,7.71.08,11.58.1,6.58,0,9.18,2.14,9.53,8.81s0,13.1,0,19.65q0,12.58,0,25.16Z"/><path class="cls-1" d="M205,426.82c1.27,0,1.77,1,2.4,1.67,3.87,4.2,7.57,8.55,11.54,12.65,1.77,1.84.74,3-.45,4.18-3.88,4-7.92,7.77-11.68,11.83-1.58,1.71-2.46,1-3.56-.25-3.78-4.28-7.53-8.57-11.35-12.82-.9-1-1.33-1.79-.23-3,4.1-4.44,8.12-9,12.18-13.42A7,7,0,0,1,205,426.82Z"/><path class="cls-1" d="M113.14,329.21c-.65.75-1.27,1.53-2,2.24-3.67,3.69-7.46,7.27-11,11.09-1.67,1.8-2.68,1.94-4.29,0-3.31-4-6.76-7.93-10.29-11.75-1.66-1.8-1.92-3.18-.1-5.06,3.73-3.86,7.3-7.89,10.92-11.87,1-1.06,1.85-2,3.23-.41,4.19,4.81,8.44,9.57,12.66,14.37A9.07,9.07,0,0,1,113.14,329.21Z"/><path class="cls-1" d="M247.31,458.08a4,4,0,0,1-1-.56c-4.23-4.76-8.49-9.48-12.62-14.32-1.08-1.27.43-2.15,1.12-2.93,3.67-4.13,7.5-8.12,11.1-12.31,1.35-1.58,2.23-1.59,3.54-.12,4,4.51,8.06,9,12.1,13.44.86,1,1.3,1.84.13,3-4.31,4.22-8.54,8.51-12.82,12.75A10.67,10.67,0,0,1,247.31,458.08Z"/><path class="cls-1" d="M235.31,299.23l-.52-.28c.08,0,.21,0,.25,0a2,2,0,0,1,.2.35Z"/></svg>