<svg id="Layer_1" data-name="Layer 1" xmlns="http://www.w3.org/2000/svg" viewBox="0 0 1106.13 743.43"><defs><style>.cls-1{fill:#2e232c;}.cls-2{fill:#404b92;fill-rule:evenodd;}.cls-3{fill:#fac90c;}.cls-4{fill:#231f20;}.cls-5{fill:#dc1f26;}</style></defs><title>bank-nagari</title><path class="cls-1" d="M834,400.68l24.71,3c.42,2.87,1.36,4.85,2.85,5.93q3.08,2.31,9.7,2.31,8.46,0,12.71-2.54a10.57,10.57,0,0,0,4.31-5.47c.66-1.8,1-5.1,1-9.93V382.06q-9.69,13.23-24.48,13.24-16.47,0-26.09-13.94-7.54-11-7.55-27.4,0-20.56,9.89-31.41a31.93,31.93,0,0,1,24.6-10.86q15.17,0,25,13.32V313.54h20.25v73.37q0,14.46-2.39,21.63a26.84,26.84,0,0,1-6.69,11.24,29.72,29.72,0,0,1-11.52,6.39q-7.18,2.31-18.2,2.31-20.79,0-29.49-7.12a22.35,22.35,0,0,1-8.7-18.05C833.88,402.59,833.91,401.71,834,400.68Zm19.33-48q0,13,5,19.06a15.57,15.57,0,0,0,12.43,6,17.18,17.18,0,0,0,13.4-6.2q5.46-6.19,5.46-18.36,0-12.69-5.23-18.86a16.66,16.66,0,0,0-13.24-6.16,16,16,0,0,0-12.82,6.05Q853.29,340.32,853.29,352.72Z"/><path class="cls-1" d="M3.18,283H48.3q13.39,0,20,1.12a29.28,29.28,0,0,1,11.78,4.66,28.86,28.86,0,0,1,8.66,9.43,25.56,25.56,0,0,1,3.47,13.2,26.74,26.74,0,0,1-15.86,24.48q10.31,3,15.86,10.24a27.23,27.23,0,0,1,5.54,17,33.49,33.49,0,0,1-3.58,15,30.13,30.13,0,0,1-9.78,11.62A32.08,32.08,0,0,1,69.08,395q-5.7.63-27.48.77H3.18ZM26,301.74v26.1H40.91q13.31,0,16.55-.39a15.06,15.06,0,0,0,9.2-4A11.93,11.93,0,0,0,70,314.59a12.39,12.39,0,0,0-2.89-8.5q-2.9-3.27-8.59-4-3.37-.37-19.47-.38Zm0,44.88V376.8H47.06c8.21,0,13.43-.23,15.63-.69A14.14,14.14,0,0,0,71,371.6Q74.16,368,74.16,362a14.78,14.78,0,0,0-2.46-8.63,14,14,0,0,0-7.12-5.15q-4.66-1.62-20.21-1.62Z"/><path class="cls-1" d="M133,339l-19.63-3.54q3.3-11.85,11.39-17.56t24-5.69q14.48,0,21.56,3.42t10,8.7q2.9,5.28,2.89,19.37L182.94,369q0,10.77,1,15.89a46.12,46.12,0,0,0,3.89,11h-21.4c-.57-1.43-1.26-3.57-2.08-6.38-.36-1.28-.62-2.13-.77-2.55A39.2,39.2,0,0,1,151.76,395a33.86,33.86,0,0,1-13.47,2.69q-12.63,0-19.9-6.85a22.78,22.78,0,0,1-7.28-17.32,23.25,23.25,0,0,1,3.32-12.36,21.51,21.51,0,0,1,9.27-8.31q6-2.9,17.21-5,15.17-2.85,21-5.32v-2.15c0-4.16-1-7.12-3.08-8.89s-5.92-2.66-11.62-2.66q-5.78,0-9,2.27T133,339Zm28.94,17.55a135.56,135.56,0,0,1-13.16,3.31q-9,1.93-11.78,3.77a9,9,0,0,0-4.23,7.63,10.63,10.63,0,0,0,3.38,7.85,11.82,11.82,0,0,0,8.63,3.31,18.7,18.7,0,0,0,11.16-3.85,13.54,13.54,0,0,0,5.16-7.16c.56-1.85.84-5.36.84-10.55Z"/><path class="cls-1" d="M278.86,395.81H257.23V354.09q0-13.24-1.39-17.13a12,12,0,0,0-4.5-6,12.86,12.86,0,0,0-7.51-2.16,17.37,17.37,0,0,0-10.08,3.08,15.46,15.46,0,0,0-6.12,8.16Q226,345.09,226,358.78v37H204.34V314.05h20.09v12q10.71-13.86,26.95-13.86a32.5,32.5,0,0,1,13.09,2.58,21.85,21.85,0,0,1,9,6.58,23.92,23.92,0,0,1,4.24,9.08A68,68,0,0,1,278.86,345Z"/><path class="cls-1" d="M300,395.81V283h21.64v59.9L347,314.05h26.64l-27.95,29.88,29.95,51.88H352.31l-20.56-36.72-10.08,10.55v26.17Z"/><path class="cls-1" d="M634.8,395.81V283H657l46.19,75.37V283h21.17V395.81H701.47L656,322.22v73.59Z"/><path class="cls-1" d="M764.45,339l-19.63-3.54q3.3-11.85,11.39-17.56t24-5.69q14.47,0,21.55,3.42t10,8.7q2.89,5.28,2.89,19.37L814.41,369q0,10.77,1,15.89a46.12,46.12,0,0,0,3.89,11H797.93c-.56-1.43-1.25-3.57-2.07-6.38-.36-1.28-.62-2.13-.77-2.55A39.2,39.2,0,0,1,783.23,395a33.89,33.89,0,0,1-13.47,2.69q-12.63,0-19.9-6.85a22.78,22.78,0,0,1-7.28-17.32,23.24,23.24,0,0,1,3.31-12.36,21.59,21.59,0,0,1,9.28-8.31q6-2.9,17.21-5,15.17-2.85,21-5.32v-2.15c0-4.16-1-7.12-3.08-8.89s-5.93-2.66-11.62-2.66q-5.78,0-9,2.27T764.45,339Zm28.94,17.55a135.56,135.56,0,0,1-13.16,3.31q-9,1.93-11.78,3.77a9.06,9.06,0,0,0-4.24,7.63,10.64,10.64,0,0,0,3.39,7.85,11.83,11.83,0,0,0,8.63,3.31,18.72,18.72,0,0,0,11.16-3.85,13.58,13.58,0,0,0,5.15-7.16c.57-1.85.85-5.36.85-10.55Z"/><path class="cls-1" d="M948.43,339l-19.62-3.54q3.3-11.85,11.39-17.56t24-5.69q14.47,0,21.55,3.42t10,8.7q2.89,5.28,2.89,19.37L998.4,369q0,10.77,1,15.89a46.12,46.12,0,0,0,3.89,11h-21.4c-.57-1.43-1.26-3.57-2.08-6.38-.37-1.28-.62-2.13-.77-2.55A39.32,39.32,0,0,1,967.22,395a33.89,33.89,0,0,1-13.47,2.69q-12.63,0-19.9-6.85a22.78,22.78,0,0,1-7.28-17.32,23.24,23.24,0,0,1,3.31-12.36,21.59,21.59,0,0,1,9.28-8.31q6-2.9,17.21-5,15.17-2.85,21-5.32v-2.15c0-4.16-1-7.12-3.08-8.89s-5.93-2.66-11.62-2.66q-5.77,0-9,2.27T948.43,339Zm29,17.55a135.56,135.56,0,0,1-13.16,3.31q-9,1.93-11.78,3.77a9,9,0,0,0-4.24,7.63,10.64,10.64,0,0,0,3.39,7.85,11.81,11.81,0,0,0,8.62,3.31,18.7,18.7,0,0,0,11.16-3.85,13.54,13.54,0,0,0,5.16-7.16c.57-1.85.85-5.36.85-10.55Z"/><path class="cls-1" d="M1040.66,395.81H1019V314.05h20.09v11.63q5.16-8.24,9.28-10.86a17.1,17.1,0,0,1,9.35-2.61,27.45,27.45,0,0,1,14.24,4.08l-6.69,18.86q-5.47-3.54-10.16-3.54a12,12,0,0,0-7.71,2.5q-3.15,2.5-5,9.05t-1.81,27.4Z"/><path class="cls-1" d="M1081.31,303V283h21.63v20Zm0,92.84V314.05h21.63v81.76Z"/><path class="cls-2" d="M475,398.69l-.57.4-12.79,11.5c-12.22,9.5-20.11,17.38-34.26,27.28-15.21,10.61-27.11,19.78-44.08,29.28l-24.94,12.46c-18.9,8.77-54.22,21.72-79.56,9.9-21.15-9.82-22.92-30.81-23.08-51,0-8.69,2.17-14.8,2.81-22.12-5.39,3.62-14.64,49-15.12,54.13-3.22,31.78,3.06,57.6,26.79,74,20,13.84,47.21,14.24,70.62,11.66,5.23-.56,9.82-1.36,15-2.33,26.22-5.23,51.56-15.52,74.32-27.43,2.09-1,3.06-1.85,5.31-3,7.64-3.86,9.49-5.47,16.65-9.73,6.6-3.94,23.49-15.44,29.76-20.67l31.62-27.92c3.62-4.26,9-8.85,13.35-13.67l4.91-5.55,15-18.75c2.65-3.37,4.82-6.67,7.24-10.05,10.29-14.64,12.22-17.38,21.07-32.26l12.47-22.76c2.09-4.19,3.46-7.73,5.47-11.91,1.85-3.86,3.78-8.28,5.15-12.06,15.85-42.56,27-100.72-10-136.43-8.29-8-24.78-14.81-36.93-15.69H531c-19,1.37-36.92,6.6-54.29,14A207.39,207.39,0,0,0,453,211.58c-4.83,2.74-19.79,9.89-22.12,13.11a30.69,30.69,0,0,0,4.66-1.53c26.14-11.34,73-24.93,98.22-10,5.63,3.3,9.65,6.92,12.87,12.71,12.63,22.76,4,58.8-6.92,82.13-1.45,3.06-2.41,5.79-3.7,8.69-5.47,12.39-20.35,35.71-29.44,47.38-1.05,1.37-1.61,2.25-2.66,3.62l-15.12,17.37c-3.7,3.7-9,9.74-12.87,12.63l-.88,1Z"/><rect class="cls-3" x="474.41" y="397.66" width="54.43" height="54.42"/><polygon class="cls-4" points="583.29 452.08 528.86 452.08 528.86 506.5 529.08 506.5 583.29 452.4 583.29 452.08"/><polygon class="cls-5" points="419.94 397.62 419.94 397.66 474.36 397.66 474.36 343.29 419.94 397.62"/></svg>