<svg id="Layer_1" data-name="Layer 1" xmlns="http://www.w3.org/2000/svg" viewBox="0 0 1106.13 743.43"><defs><style>.cls-1{fill:#d00b11;}.cls-2{fill:#d10c12;}.cls-3{fill:#fefdfd;}</style></defs><title>bank-ocbc-nisp</title><path class="cls-1" d="M53.54,445.87c10.89-.94,21.81-.43,32.71-.53q44.85-.42,89.69-.52c2,0,4-1.19,7.09.27-45.15-3.58-89.38-4.67-133.89-7.66,1.24-2.43,3-1.58,4.34-1.61,14.22-.36,28.47-.28,42.67-1,16.47-.82,32.42-4.26,47.23-11.91,22.94-11.86,34.77-35.25,30.87-61-3.51-23.22-22.69-42.39-47-46.67a53,53,0,0,0-25.16,1.47c-2.4.75-3.83.45-5.52-1.44q-17.53-19.6-35.34-39c-2.34-2.54-1.57-3.31,1-4.77,65.5-37.11,150.69.73,167.19,74.32,14.53,64.76-27.21,127.31-92.64,138.81-35.28,6.21-75-6.27-99.37-31.56H160.8l0-.9-107.3-5.51Z"/><path class="cls-2" d="M826.7,386c-.89-22.54,0-45-.35-67.39,0-3.23.59-4.53,4.17-4.36,6.6.31,13.22.19,19.83,0,2.67-.07,3.74.49,3.73,3.5q-.17,53.91,0,107.82c0,2.83-.76,3.65-3.61,3.6q-14.65-.26-29.32,0c-2.79.05-4.38-.77-5.78-3.24-13-23.07-27.79-45.12-39.81-70.31,0,2.44,0,3.63,0,4.82,1,21.55.58,43.12.77,64.68,0,3.29-.9,4.16-4.11,4-6.89-.24-13.8-.16-20.7,0-2.29.05-2.9-.71-2.89-2.94q.09-54.35,0-108.68c0-2.8,1-3.31,3.51-3.28,9.92.12,19.84.15,29.76,0,2.69,0,4.08,1,5.38,3.2,13,22.31,27.18,44,38.62,67.16C826.12,385.09,826.43,385.54,826.7,386Z"/><path class="cls-2" d="M380.79,369.33c.53,40-30.2,65.58-69.67,61.73a69,69,0,0,1-13.52-2.49c-16.13-4.93-27.08-15.27-32.06-31.46-4.49-14.62-5-29.44-.45-44.13,7.09-23.06,28.57-39.33,53-40.57a78.71,78.71,0,0,1,24.38,2c22.62,6,36.31,23,37.93,47.12C380.62,364.15,380.68,366.74,380.79,369.33Zm-30.42,1.8a53.1,53.1,0,0,0-1-11.32c-2.51-13.64-11.38-22.25-24-23.24-14.92-1.18-25.85,5.57-30.54,19.09-3.45,9.93-3.22,20.06-.76,30.14,3.23,13.19,11.26,20.11,24.27,21.25a28.22,28.22,0,0,0,28.47-16.79A43.12,43.12,0,0,0,350.37,371.13Z"/><path class="cls-1" d="M570.41,367.85c10.69,3.34,17.66,9.88,19.42,20.37,2.25,13.42-2.75,24.27-13.94,32-9.81,6.8-21.11,8.92-32.7,9.15-13.36.27-26.73-.2-40.09-.22-2.27,0-2.91-.69-2.9-2.94q.09-54.33,0-108.65c0-1.69-.05-3.13,2.33-3.14,19.38-.09,38.78-1.89,58.12.58a39,39,0,0,1,14.23,4.7c17.66,9.9,18.16,33.35,1,44.76C574.26,365.57,572.57,366.53,570.41,367.85Zm-41.55,26c0,3.73,0,7.46,0,11.19,0,1.1-.3,2.3,1.49,2.48,7.47.74,14.94,1.26,22-2.08a12.27,12.27,0,0,0,7.39-12.12c-.13-5.5-3.31-9-8.25-11-4.35-1.76-8.93-2-13.54-2-9.08-.08-9.08-.09-9.08,8.76Zm0-46.33v10.77c0,1.18-.08,2.33,1.66,2.35,7,.09,14.13.61,20.69-2.68A12.24,12.24,0,0,0,558,345.13c-.71-4.94-4.19-8.25-9.86-9.42-4.54-.94-9.14-.55-13.72-.76-4.29-.18-6.39,1-5.64,5.66A45.21,45.21,0,0,1,528.86,347.5Z"/><path class="cls-1" d="M1018.78,371.86c0-17.81.06-35.63-.07-53.45,0-3,.45-4.31,3.9-4.28,13.78.13,27.56-1.26,41.34,0a64.14,64.14,0,0,1,16.75,3.75c29.07,10.79,27.23,47.59,8.38,62.45-10.84,8.54-23.4,11.29-36.77,10.78-4.38-.17-5.16,1.13-5,5.14.3,9.76,0,19.54.15,29.31,0,2.65-.46,3.78-3.46,3.68-7.32-.23-14.66-.21-22,0-2.82.08-3.27-1-3.25-3.46C1018.82,407.79,1018.78,389.82,1018.78,371.86Zm28.59-19.65c0,4.72.07,9.45,0,14.18,0,1.94.48,2.83,2.59,2.92,5.56.23,10.89-.52,15.66-3.51,6.46-4.05,8.46-10.19,7.49-17.44-.85-6.36-5.21-10.84-12-12.39a46.57,46.57,0,0,0-10.68-.88c-2.45,0-3.14,1-3,3.37C1047.49,343,1047.37,347.62,1047.37,352.21Z"/><path class="cls-2" d="M926,417.16c.19-3.15.54-6.31.5-9.46,0-2.75.61-3.42,3.45-2.6a76.91,76.91,0,0,0,26,3.15,21.74,21.74,0,0,0,8.7-2.22c7.69-3.91,8.46-13.17,1.54-18.3-4.1-3-9-4.41-13.68-6.17-4.28-1.62-8.6-3.13-12.76-5.09-11.63-5.45-18.08-14.33-18.25-27.32-.17-13.46,5.87-23.45,17.64-29.82,12.88-7,26.88-7.62,41.09-6.56,3.43.25,6.83,1,10.26,1.2,2.35.14,2.82,1.14,2.65,3.26-.47,5.58-.87,11.18-1.07,16.77-.1,2.65-.71,3.38-3.53,2.69-8-1.95-16.1-2.95-24.34-1.91-3.66.46-7,1.59-9.59,4.37-4,4.36-2.93,10.71,2.49,14.45,4.76,3.3,10.36,4.85,15.64,7.06,3.83,1.6,7.72,3.11,11.4,5,19.61,10.17,23.6,33.56,8.63,50-8.16,9-18.8,12.94-30.39,14.69-11.18,1.69-22.35.74-33.47-1-2.48-.39-3.78-1.16-3.38-4.07a60.13,60.13,0,0,0,.07-8.17Z"/><path class="cls-2" d="M477.92,402.64c1.05,7.47,1.95,14.44,3.06,21.37.28,1.73-.32,2.37-1.76,2.74-20.48,5.19-40.87,6.6-60.66-2.64-12-5.61-19.62-15.38-23.24-28-4.8-16.68-4.16-33.37,2.69-49.36,8.72-20.34,25.41-30,46.67-32.6,11.06-1.37,22.07-.46,33,1.59,2.41.45,3.07,1.34,2.69,3.7-.94,5.81-1.84,11.64-2.42,17.49-.31,3.09-1.53,3.34-4.2,2.69a76.43,76.43,0,0,0-21.37-2.21c-13.43.56-23.51,8.5-26.93,21.43a51.85,51.85,0,0,0,.23,27.28c3.39,12.41,12.8,19.5,26.33,20.25A66.59,66.59,0,0,0,477.92,402.64Z"/><path class="cls-2" d="M688.41,402.66c1.07,7.44,2.07,14.67,3.19,21.88.27,1.74-.92,2-2,2.22-19.74,5.07-39.45,6.41-58.72-1.76-13-5.49-21.26-15.55-25.1-28.95-4.79-16.68-4.11-33.37,2.76-49.35,8.75-20.34,25.46-29.91,46.71-32.52,10.91-1.34,21.77-.44,32.58,1.53,3,.53,3.35,1.73,2.92,4.31-.93,5.66-1.76,11.35-2.34,17.06-.28,2.78-1.28,3.31-3.86,2.66a76.66,76.66,0,0,0-21.34-2.3c-13.85.46-24,8.58-27.38,22a52.51,52.51,0,0,0,.25,26.44c3.29,12.62,12.83,19.85,26.52,20.58A67.13,67.13,0,0,0,688.41,402.66Z"/><path class="cls-2" d="M70.5,401.7c-3.26-9.57-5.16-19.31-3.76-29.83l42.77,14.95c4.59,1.61,9.14,3.37,13.79,4.83,2,.64,2.69,1.65,2.6,3.7a96.73,96.73,0,0,0,0,10.77c.23,3-1,3.54-3.71,3.53-18.11-.1-36.22,0-54.32,0-18.25,0-36.51-.06-54.76.06-2.75,0-3.93-.78-4.78-3.51C3,389,2,371.51,4.45,353.76c.36-2.6,1-3.54,4-2.47,16.31,5.91,32.68,11.61,49.08,17.25,2.3.79,2.93,1.92,3,4.29.28,10.65,2.87,20.66,9.11,29.52.23.45.47.9.71,1.35C71.3,403.1,70.77,402.39,70.5,401.7Z"/><path class="cls-1" d="M904.27,371.92c0,17.81-.08,35.62.07,53.44,0,3-.72,3.92-3.79,3.82-7.32-.23-14.65-.14-22,0-2.16,0-3-.47-3-2.83q.12-54.51,0-109c0-2.66,1-3,3.3-3,7,.11,14.08.21,21.11,0,3.3-.12,4.38.7,4.34,4.21C904.16,336.29,904.27,354.1,904.27,371.92Z"/><path class="cls-2" d="M6.66,343.42a117.07,117.07,0,0,1,14.2-33c1-1.62,1.87-1.17,3.08-.42q22.29,13.89,44.61,27.71c1.5.93,1.92,1.67.83,3.37a52.5,52.5,0,0,0-8.19,22c-.25,1.95-1,2.42-2.86,1.71q-24.88-9.54-49.79-19C7.38,345.33,5.87,345,6.66,343.42Z"/><path class="cls-2" d="M94.84,319.19A59.2,59.2,0,0,0,74,334.76c-1.15,1.36-2,.48-2.9-.13C56.55,324.91,42,315.16,27.38,305.51c-1.95-1.28-1.57-2.21-.41-3.69a114.84,114.84,0,0,1,24.51-23.46c1.1-.77,1.93-1.51,3.26-.15C68,291.77,81.22,305.28,94.84,319.19Z"/><path class="cls-2" d="M125.86,390.49,80.61,373.26c-3.61-1.37-7.21-2.8-10.85-4.08-1.92-.67-2.71-1.51-2.12-3.73a63.66,63.66,0,0,1,8.72-19.53c1.25-1.86,2.26-2,4.11-.81q21.68,13.59,43.47,27a3.61,3.61,0,0,1,2,3.48C125.79,380.33,125.86,385.06,125.86,390.49Z"/><path class="cls-1" d="M101.39,420.07C96.24,430.24,88.18,432.56,77.7,432c-15-.88-30.16-.28-45.25-.17-2.7,0-4.42-.46-5.66-3.2a12.5,12.5,0,0,0-8.92-7.53c-4.37-.82-5.65-3.62-6.57-7.72,11,0,21.82,0,32.66,0,1.56,0,2.35,1.09,3,2.09,2.73,3.91,6.33,4.9,11.06,4.78,13.35-.34,26.72-.12,40.08-.12Z"/><path class="cls-2" d="M125.85,371.1c-15.08-10.05-29.26-19.53-43.48-28.94-1.71-1.13-1.56-2-.26-3.28a61.59,61.59,0,0,1,17-12.23,2.81,2.81,0,0,1,3.76.74q10.81,11.12,21.72,22.14a3.51,3.51,0,0,1,1.23,2.61C125.83,358.12,125.85,364.1,125.85,371.1Z"/><path class="cls-2" d="M53.54,445.87l0,.87-15.05-1C42.27,445.85,47.92,445.06,53.54,445.87Z"/><path class="cls-2" d="M44.89,437.25c-4.23.35-8.33-.59-12.46-1.21H45.11Z"/><path class="cls-1" d="M44.89,437.25l.22-1.21c.63-.06,1.6-.31,1.58.58C46.66,437.84,45.61,437.33,44.89,437.25Z"/><path class="cls-3" d="M70.5,401.7c.27.69.8,1.4-.15,2-.24-.45-.48-.9-.71-1.35Z"/></svg>