<svg id="Layer_1" data-name="Layer 1" xmlns="http://www.w3.org/2000/svg" viewBox="0 0 1106.13 743.43"><defs><style>.cls-1{fill:#efae33;}.cls-2{fill:#0183bd;}.cls-3{fill:#68c5ef;}</style></defs><title>bank-ntb</title><path class="cls-1" d="M220.13,267.92c-.1.3-.11.68-.3.88-3.34,3.49-5,7.94-6.9,12.22-4.45,10.05-7.41,20.6-10,31.26-1.7,7.13-3.1,14.34-4.5,21.53-3.11,15.94-5.51,32-7.94,48-2,13.29-3.91,26.59-6,39.87-1.38,8.89-2.72,17.81-5.34,26.45-2.1,6.92-5,13.54-10.41,18.52-4.69,4.27-10.18,7.05-16.77,7-4.16-.06-8.33-.06-12.49-.09a51.48,51.48,0,0,1-6.33-12.32,168.12,168.12,0,0,1-5.32-18.92c-4.38-19.12-6.79-38.57-9.61-57.95a200.28,200.28,0,0,0-3.85-21.47c-1.58-6.14-3.59-12.12-7-17.51a23,23,0,0,0-7.15-7.33,9.55,9.55,0,0,0-5.43-1.54c-4.32.09-8.64,0-13,0,2.07-14.88,4.4-29.7,10-43.76,2.57-6.41,5.77-12.47,10.62-17.51a26.8,26.8,0,0,1,9.37-6.52c.42-.17,1-.23,1.13-.78Z"/><path class="cls-2" d="M812.14,433.7q-.63-13.43-.68-26.88c0-22.25,0-44.5,0-66.76,0-1.69,0-3.42,1.64-4.4a9,9,0,0,1,2.66-.89,58.3,58.3,0,0,1,14.33-.78,27,27,0,0,1,6.65.72c2.75.84,4.29,1.29,4.29,5.28q0,61.35,0,122.71c0,3.91-1.35,7.17-4.87,9.22a10.17,10.17,0,0,1-4.88,1.52c-8.31.14-16.64.73-24.91-.61a12.09,12.09,0,0,1-6.18-3.22,38,38,0,0,1-7.18-9.15c-1.81-3.09-3.74-6.12-5.6-9.19q-4.5-7.44-9.07-14.84c-3-4.85-6-9.72-9-14.55-2.47-3.91-4.79-7.9-7.21-11.84-2.13-3.46-4.36-6.85-6.45-10.33-2.86-4.76-5.85-9.44-8.57-14.29-2.29-4.11-4.59-8.2-6.63-12.44-1.12-2.32-2.56-4.48-3.14-7-.64.06-.47.47-.45.73,1.29,22.47.77,45,.86,67.46,0,11.2,0,22.41,0,33.62,0,1.93-.31,3.71-2.16,4.69a9.3,9.3,0,0,1-2.92.92,72.16,72.16,0,0,1-17,.38c-1.19-.09-2.36-.35-3.57-.39a3.9,3.9,0,0,1-3.87-3.72c-.06-.64,0-1.28,0-1.92q0-61,0-122a17.52,17.52,0,0,1,.35-4.89c1.11-3.85,4.18-5.19,7.6-6.09a11,11,0,0,1,2.85-.4c7.6,0,15.2-.29,22.8.17a19,19,0,0,1,15.75,9.33c2.91,4.64,5.78,9.3,8.65,14q7.86,12.74,15.72,25.48c7.42,12,14.88,24,21.74,36.3,2.62,4.71,5.2,9.45,7.8,14.17,0,.44.26.9.59.84S812.3,434.05,812.14,433.7Z"/><path class="cls-2" d="M1071.69,398.35a56.48,56.48,0,0,1,11.53,3.61,34.78,34.78,0,0,1,10.42,7,31.51,31.51,0,0,1,9.3,22.06,35.34,35.34,0,0,1-10.49,26.49,42.93,42.93,0,0,1-9.49,6.95,52.55,52.55,0,0,1-8.78,4,81,81,0,0,1-15.38,3.62,156.24,156.24,0,0,1-21.06,1.36c-13.61,0-27.21,0-40.82,0A16.19,16.19,0,0,1,992,473a7.46,7.46,0,0,1-4.62-3.42,4.5,4.5,0,0,1-.63-1.69,34.21,34.21,0,0,1-.39-5.26q0-58.82,0-117.65c0-1.44.12-2.87.23-4.31.23-2.86,1.93-4.54,4.41-5.49a15.78,15.78,0,0,1,5.64-.91c13.85,0,27.69-.05,41.54,0a113.94,113.94,0,0,1,21.26,1.78c7.57,1.48,14.87,3.69,21.3,8.21,7.66,5.39,11.68,12.83,12.5,22.07a29.16,29.16,0,0,1-4.79,19.53A30.63,30.63,0,0,1,1074.37,397c-.66.27-1.33.52-2,.8A5.45,5.45,0,0,0,1071.69,398.35Zm-53.22,33.7q0,8.76,0,17.53c0,2.23,0,2.25,2.18,2.25,7,0,13.92,0,20.88,0a56.66,56.66,0,0,0,8.14-.49,26.64,26.64,0,0,0,11.84-4.28,15.89,15.89,0,0,0,6.79-9.29c2.1-8.4-.42-17.89-10.34-22.26a39.16,39.16,0,0,0-14-3c-7.84-.36-15.68-.13-23.52-.17-2,0-2,0-2,2Q1018.47,423.17,1018.47,432.05Zm0-58.47q0,7.94,0,15.85c0,2.18,0,2.19,2.26,2.2,5.36,0,10.72,0,16.09,0a47.59,47.59,0,0,0,8.83-.76c8-1.6,13.53-6.82,14.73-14.5,1.28-8.23-1.47-15.52-10.64-18.85a31,31,0,0,0-8.19-1.7c-7.11-.57-14.24-.24-21.36-.31-1.67,0-1.71.05-1.72,1.77C1018.46,362.7,1018.47,368.14,1018.47,373.58Z"/><path class="cls-2" d="M323.68,399A79.42,79.42,0,0,1,333,401.9c11.67,4.85,19.15,13.32,21.32,25.77,2,11.74-1.18,22.18-9.56,30.89a42.63,42.63,0,0,1-16.61,10.3c-1.82.67-3.66,1.42-5.49,2a54.08,54.08,0,0,1-5.8,1.15,95.38,95.38,0,0,1-16,1.46q-21.86.06-43.7,0a14.32,14.32,0,0,1-4-.42,5.49,5.49,0,0,1-4.21-4.63,16.2,16.2,0,0,1-.25-2.87q0-61.57,0-123.15c0-.88.13-1.76.17-2.63a4.79,4.79,0,0,1,3.47-4.53,14.85,14.85,0,0,1,5.38-.91c12.16,0,24.33,0,36.49,0a104.39,104.39,0,0,1,17.21,1.27A51.83,51.83,0,0,1,329.76,342c8.86,5.35,13.59,13.36,14.72,23.53a31.4,31.4,0,0,1-3.43,18.74A30.69,30.69,0,0,1,329,396.42C327.42,397.33,325.74,398,323.68,399ZM269.93,433.6v21.85c0,.56,0,1.12,0,1.68s.3,1,1,1h1.44q14.17,0,28.34,0a57.34,57.34,0,0,0,8.38-.53,35.9,35.9,0,0,0,10.52-3.15c14-6.78,14.78-20.86,10.62-30.3-2.73-6.18-7.76-9.81-13.9-12.11a51.17,51.17,0,0,0-17.2-2.84c-9-.14-18.09-.06-27.13-.07-2.05,0-2.07,0-2.07,2.12Q269.92,422.43,269.93,433.6Zm0-61.67q0,10.32,0,20.64c0,1.79,0,1.82,1.86,1.83q11.88,0,23.75,0a36.29,36.29,0,0,0,9.74-1.11c8.14-2.28,14.2-6.84,16.51-15.38a25.89,25.89,0,0,0,.75-8.32c-.52-9.26-5-15.19-13.82-18.1a38.73,38.73,0,0,0-11.78-1.91c-8.4-.11-16.8-.1-25.19-.12-1.79,0-1.81,0-1.82,1.86Q269.92,361.62,269.93,371.93Z"/><path class="cls-2" d="M81.86,336.49c4.33,0,8.65.12,13,0a9.55,9.55,0,0,1,5.43,1.54,23,23,0,0,1,7.15,7.33c3.45,5.39,5.46,11.37,7,17.51a200.28,200.28,0,0,1,3.85,21.47c2.82,19.38,5.23,38.83,9.61,57.95a168.12,168.12,0,0,0,5.32,18.92,51.48,51.48,0,0,0,6.33,12.32l-.64.07a8.61,8.61,0,0,0-2.86-.17l-83.52,0a8.09,8.09,0,0,1-2.7-.15c-.08-.75.37-1,.65-1.4a43.64,43.64,0,0,0,4.59-7.57,136.47,136.47,0,0,0,8-22.28c2.38-8.45,4.31-17,6.06-25.61,1.86-9.13,3.59-18.3,5-27.52.82-5.44,1.66-10.87,2.47-16.31s1.55-10.72,2.32-16.08c.59-4,1.19-8,1.76-12.06.37-2.6.69-5.21,1-7.81Z"/><path class="cls-3" d="M81.73,336.65c-.34,2.6-.66,5.21-1,7.81-.57,4-1.17,8-1.76,12.06-.77,5.36-1.53,10.72-2.32,16.08S75,383.47,74.15,388.91c-1.38,9.22-3.11,18.39-5,27.52C67.43,425,65.5,433.59,63.12,442a136.47,136.47,0,0,1-8,22.28,43.64,43.64,0,0,1-4.59,7.57c-.28.37-.73.65-.65,1.4a8.09,8.09,0,0,0,2.7.15l83.52,0a8.61,8.61,0,0,1,2.86.17,4,4,0,0,1-2.35.25q-42.72,0-85.46,0a21.32,21.32,0,0,1-9.51-1.76,18,18,0,0,1-8.17-7.7,42.27,42.27,0,0,1-4.86-14q-2.79-17.6-5.31-35.23c-1.35-9.49-2.71-19-4.56-28.37-.64-3.25-.94-6.56-1.78-9.76-2.43-9.34-4.22-18.85-7.62-27.92-.81-2.14-1.72-4.25-2.65-6.35A46.69,46.69,0,0,0,3.18,337c.72-.74,1.64-.44,2.46-.44q15.84,0,31.68,0H79.1C80,336.57,80.85,336.62,81.73,336.65Z"/><path class="cls-2" d="M913.67,334.3h55c3.94,0,5.22,1.07,6,4.93a35.56,35.56,0,0,1,.08,13.09,10.63,10.63,0,0,1-.53,1.83,4.53,4.53,0,0,1-4.88,3.32c-9-.1-18.08,0-27.12,0h-9.36c-3.23,0-2.72-.18-2.77,2.88V467.14c0,.72,0,1.44,0,2.16a3,3,0,0,1-1.79,2.83,17.11,17.11,0,0,1-7.4,1.69,82.22,82.22,0,0,1-16.3-.24,23.28,23.28,0,0,1-4.83-.71,3,3,0,0,1-2.44-3.3c0-.8,0-1.6,0-2.4q0-53.42,0-106.82c0-3.19.47-2.91-3-2.92H858.78a23,23,0,0,1-2.63-.11,3.81,3.81,0,0,1-3.34-3.11,46.58,46.58,0,0,1-.43-15c.35-3.08,1.29-4.92,5.6-4.9C876.54,334.33,895.11,334.3,913.67,334.3Z"/><path class="cls-2" d="M614.37,418.18a8.53,8.53,0,0,0-.14,2.62q0,24.12,0,48.25c0,3.23-.43,3.69-3.71,4.46-3.8.89-7.63.51-11.46.38a10.05,10.05,0,0,1-3.65-.51,2.24,2.24,0,0,1-1.64-2.07c0-.71-.07-1.43-.07-2.15q0-70.23,0-140.45c0-.4,0-.8,0-1.2.1-2.17.54-2.77,2.72-3.19a36.46,36.46,0,0,1,14.08-.11c3.25.67,3.71,1.09,3.71,5q0,41.06,0,82.11v2.82a4,4,0,0,0,2.28-1.71,54.66,54.66,0,0,1,7.24-7,19.57,19.57,0,0,0,2.59-2.47,11.69,11.69,0,0,1,1.61-1.75c4.67-4,8.69-8.7,13.37-12.66,2.75-2.33,5.07-5,7.72-7.44a34.29,34.29,0,0,1,4-3.43,9.54,9.54,0,0,0,2.34-2.36,10.36,10.36,0,0,1,7.11-4.17A49.89,49.89,0,0,1,677,371.1c4.85.72,5,2.9,2.59,6.27-1.48,2.1-3.63,3.58-5.54,5.25-1.6,1.4-3.26,2.77-4.89,4.15-5.75,4.87-11.44,9.81-17.13,14.75-4.91,4.26-9.79,8.54-14.76,12.88a6,6,0,0,0,1.52,2.12q13.4,15,26.77,30.09Q674,456,682.37,465.37a33.35,33.35,0,0,1,2.24,2.79c1.81,2.54,1,4.63-2,5.3a16.59,16.59,0,0,1-2.6.43,64.84,64.84,0,0,1-15.31-.59,4.25,4.25,0,0,1-2.84-1.88c-.83-1.3-2.11-2.16-3-3.36a78.36,78.36,0,0,0-5.27-6.08c-1.62-1.89-3.4-3.74-5-5.66-1.87-2.25-4-4.23-5.78-6.59-1.51-2-3.63-3.58-5.1-5.65-1.84-2.6-4.23-4.71-6.23-7.16-1.42-1.73-3-3.45-4.54-5.11-2-2.12-3.83-4.41-5.76-6.59-2.11-2.38-4.27-4.73-6.45-7,0-.33,0-.74-.41-.64S613.93,418,614.37,418.18Z"/><path class="cls-2" d="M441.47,461.42c-2.4,1.51-4.09,3.28-6.14,4.61a66.11,66.11,0,0,1-9,5.13,52.67,52.67,0,0,1-9.57,3.18,53.5,53.5,0,0,1-17.12.86,56.8,56.8,0,0,1-9.12-1.33c-6.24-1.63-12-4.22-16.55-9.11a24.14,24.14,0,0,1-6.22-11.33,28.83,28.83,0,0,1-.62-9.05c.38-3.24.46-6.52,1.92-9.59a26.3,26.3,0,0,1,7-9.15c6.89-5.73,15.16-8.14,23.73-9.78a117,117,0,0,1,22-2c5,0,10.09,0,15.13,0,1.7,0,1.73,0,1.74-1.71q0-3.6,0-7.2a27.6,27.6,0,0,0-4.31-14.06,10.22,10.22,0,0,0-4.38-3.47,31,31,0,0,0-14.45-3.81,59,59,0,0,0-10.54.48,82.42,82.42,0,0,0-16.18,4.52c-3.2,1.29-6.13,3.13-9.43,4.16-.6.19-1.18.47-1.79.62-2.7.64-4.31-.55-4.67-3.38a41.94,41.94,0,0,1-.23-5.49c0-3.29,1.9-5.16,4.46-6.59a52,52,0,0,1,10.58-4.53c13.72-4.07,27.68-5.56,41.88-3.15a44.76,44.76,0,0,1,15,5.07c7.22,4.15,11.35,10.41,13.27,18.34a51.49,51.49,0,0,1,1.29,12.12q0,31.57,0,63.14c0,4.2-.64,4.14-4.3,4.87a33.18,33.18,0,0,1-7.91.15l-2.39-.1a2.9,2.9,0,0,1-3-3.14C441.44,467.77,441.47,464.81,441.47,461.42Zm-17.11-34.7a108.28,108.28,0,0,0-14.61.65,36.57,36.57,0,0,0-14.88,5c-9.21,5.84-9.17,21.11,1.47,26.52a19.67,19.67,0,0,0,4.23,1.66,33.41,33.41,0,0,0,22.72-2c5.48-2.59,10.12-6.39,14.55-10.47a2.6,2.6,0,0,0,.84-2.12c0-5.84,0-11.68,0-17.53,0-1.6,0-1.63-1.81-1.64C433,426.71,429.17,426.72,424.36,426.72Z"/><path class="cls-2" d="M496.47,386.07a1.57,1.57,0,0,0,1.44-.61,52.42,52.42,0,0,1,15.72-11.37,48.44,48.44,0,0,1,27.48-4.59,41,41,0,0,1,17.61,5.93c7.39,4.62,11.72,11.47,13.88,19.79a65.47,65.47,0,0,1,1.8,16.38q0,28.69,0,57.38c0,3-.49,3.91-3.44,4.49a36.33,36.33,0,0,1-15.22-.26,2.12,2.12,0,0,1-1.87-2.33c0-.72,0-1.44,0-2.16q0-26.16,0-52.34a59.61,59.61,0,0,0-.45-9.82c-1.07-6.38-3-12.38-8.09-16.91a16.15,16.15,0,0,0-5.33-3.16c-3.82-1.38-7.8-2.38-12-1.87a32.11,32.11,0,0,0-10.32,3.08c-6.86,3.38-12.38,8.4-17.67,13.76a4.94,4.94,0,0,0-1.54,3.8q.08,31.46,0,62.9c0,.64,0,1.28,0,1.92a3.13,3.13,0,0,1-2.42,3.16,14.08,14.08,0,0,1-3.26.66,50.81,50.81,0,0,1-12.91-.55,2,2,0,0,1-1.89-2c-.07-.71-.07-1.43-.07-2.15q0-46.82,0-93.63c0-3.83,0-4,3.8-4.55a36.22,36.22,0,0,1,11,0c3,.46,3.7,1.46,3.7,4.5C496.47,379,496.47,382.52,496.47,386.07Z"/><path class="cls-2" d="M812.14,433.7c.16.35.34.83-.13.92s-.61-.4-.59-.84Z"/><path class="cls-2" d="M614.37,418.18c-.44-.2-.37-.56,0-.64s.44.31.41.64l-.19.08Z"/></svg>