<svg id="Layer_1" data-name="Layer 1" xmlns="http://www.w3.org/2000/svg" viewBox="0 0 1106.13 743.43"><defs><style>.cls-1{fill:#2b1a6f;}.cls-2{fill:#008ac5;}.cls-3{fill:#747371;}.cls-4{fill:#6fbcf3;}</style></defs><title>bank-ntt</title><path class="cls-1" d="M649.27,572.6c0,38.2-.4,76.41.27,114.59.18,10.76-2.68,13.74-13.48,13.42-23.46-.71-23.3-.06-23.25-23.53.11-55.5.48-111-.29-166.49-.18-12.49,4.2-13.71,15.13-14.9,19.11-2.09,28.7,5.46,37.23,22.07,18.66,36.38,39.78,71.49,62.67,106.9V612.87c0-35.88.29-71.76-.14-107.64-.11-9,1.85-12.3,11.78-12.11C764,493.57,764,493,764,517.79c0,56.45-.31,112.91.22,169.35.1,10.65-2.76,12.81-13.35,13.73-19,1.65-29.84-4.59-38.76-22.06-18.59-36.43-39.88-71.48-60.07-107.09Z"/><path class="cls-2" d="M268,210.39c46.08-3.83,91.49,1,136.24,11.8,61.29,14.75,118,39.42,167.13,79.8,10.4,8.56,19.58,18.24,25.44,30.58,10.32,21.74,2.48,42.58-19.82,51.59-30.17,12.18-59.22,3.35-87.91-6.08-43.1-14.18-79.73-40.52-117.89-63.93-24.35-14.94-49.47-28.69-71.91-46.44-7.92-10.11-16.21-20.08-17-33.86,43.74,39.59,95.16,66,149.6,87.26,24.93,9.71,50,19.11,76.92,21.9,6.49.67,14.21,1.7,18.17-5.15,3.58-6.19,1.63-13.06-1.55-19.24-4.7-9.1-11.86-16.14-19.83-22.32-26.44-20.54-57.24-32.37-88.37-43.29-42.95-15.06-87.63-22.83-132.31-30.53C276,223.06,270.25,219.16,268,210.39Z"/><path class="cls-1" d="M282.3,233.85c.75,13.78,9,23.75,17,33.86-2.33,9.75,3.05,18.34,4.24,27.6,2.94,23,2.74,45.47-3.26,68.11C288.16,409,244.86,435,199.35,428.68c-19.56-2.72-38.64-7.15-56-16.43C96.71,387.31,83,328.33,112.26,284c22.61-34.26,54.41-55.47,92.59-68.33l17,5.45c-2.32,4.3-7.15,4.19-10.82,6-23.58,11.65-43.7,27.11-56.89,50.45s-14.16,47-.69,70.26c17,29.46,44.53,35.82,75.34,30.24,27.07-4.92,41.35-24.33,47.13-49.88,8.81-39,.85-75.65-17.23-110.6-3-5.93-8.66-5.42-13.44-4.31-7.23,1.67-12.78-.21-17.73-5.22l14.68-1.59,9.16-1.71c6.16,0,11.41,2.71,16.57,5.67,2.28,8.77,8,12.67,17,12.09-2.55.3-7,0-7.31,1C276.26,227.82,279.64,230.84,282.3,233.85Z"/><path class="cls-3" d="M42.29,565.83c48.45-38,92-1.3,93.72,45.08.52,14.33.83,28.57-2.84,42.69-12.4,47.78-54.42,60.81-91.13,28.11-3.87,14.07-15.26,19.55-30.7,15.48-5.38-1.42-4.9-4.91-4.9-8.68,0-60.68,0-121.36-.13-182,0-6,1.65-8.19,7.93-8.76,27.78-2.52,28-2.52,28.05,24.53C42.3,536.05,42.29,549.87,42.29,565.83Zm58.09,59.3c-.94-10.92-.89-22.44-7.14-32.67-10-16.37-31.7-17.79-43.06-2.75-12,15.94-11.44,53.33,1.13,69,13.17,16.46,34.93,13.86,43.91-5.3C99.36,644.63,99.83,635.09,100.38,625.13Z"/><path class="cls-4" d="M251.4,204.72l-9.17,1.71c1.88-3.85-.78-6.22-2.86-8.81-21.54-26.81-44.81-52-70.69-74.71-21.94-19.27-44.75-37.3-72.76-47-10.39-3.61-23.33-11.24-31,1.74-6.45,10.92,3.22,20.8,10.34,28.87C117,153.82,173,179.91,227.56,208c4.95,5,10.5,6.89,17.73,5.22,4.78-1.11,10.43-1.62,13.45,4.32-11.55,8.89-24.33,4.82-36.85,3.52l-17-5.45c-27.56-14-56-26.25-82.43-42.53C82.53,148.49,43.19,123.18,14.15,85.2A64.42,64.42,0,0,1,8.42,77C-1.91,57.9,2.93,47.67,24,44.16c35.6-5.92,68.79,2.71,99.16,20.19C175.86,94.68,218,136.27,248.09,189.46,250.63,193.94,256.33,198.37,251.4,204.72Z"/><path class="cls-3" d="M500.77,599.68c8.82-10.91,18.32-21.34,26.26-32.86,7.52-10.9,16.3-16.35,29.84-14.44,7.37,1,15,.19,26,.19-13.89,16.07-25.19,29.93-37.38,42.95-6.52,7-7.61,12.49-2.67,21.16,13.24,23.23,25.21,47.18,38,70.67,3.88,7.12,3.37,10.6-5.61,9.87a10.19,10.19,0,0,0-2.86-.06c-18.84,3.84-30.13-3.55-36.55-21.83-4.23-12-12-22.81-17.41-34.48-3.5-7.49-5.69-5.56-10.87-1.18-12.78,10.8-9,25-10,38.47-.45,6.21,4.24,15.76-3.3,18-8.76,2.63-18.95,1.1-28.44.38-4.31-.33-3.3-5.13-3.3-8.3,0-60.73.06-121.45-.11-182.18,0-6.27,2.24-7.87,8.26-8.31,27.1-2,27.08-2.18,27.06,25.38q0,37.68,0,75.36Z"/><path class="cls-3" d="M279.61,695.72c-30.57,4.36-33.2,3.56-39.34-12.52-13,10.43-26.8,18.27-44.21,17.11-21.11-1.4-37-14.4-40.21-34-3.65-22.58,5.83-40.84,26.52-47.95,14.37-4.93,29.46-7.74,44.14-11.82,4.71-1.32,11.14-1.43,10.81-9-.28-6.4-1.7-12.18-8.09-15.66-10.86-5.91-27.27-2.5-34.65,7.48-4.46,6-29.09,6.75-34,1.09-2.1-2.43-.4-4.47.31-6.57,3.59-10.67,9-20.48,19.2-25.79,25-13,50.76-12.32,75.59-.16,14.69,7.2,16.72,22.45,17,37.08.44,19.57.35,39.15-.05,58.72A111.84,111.84,0,0,0,279.61,695.72ZM238.06,639c2.05-9.28-2-11.32-11.48-7.8-7.56,2.8-15.74,3.91-23.31,6.7-9,3.31-14.49,9.83-11.88,19.93,2.74,10.61,10.14,15.79,21.3,14.76C228.41,671.14,237.19,659.85,238.06,639Z"/><path class="cls-1" d="M1008.15,612.68c0-24.36-.39-48.73.21-73.08.22-8.9-2.43-11.69-11.28-11.17-12.37.74-24.83-.07-37.24.29-6.16.17-7.86-1.9-8.26-8.13-1.75-27.2-2-27.19,25-27.2,37.74,0,75.48.47,113.2-.33,11.17-.23,13.47,3.27,13.15,13.64-.69,22-.12,22-22.87,21.93-33.17-.13-33.17-.13-33.17,33.62,0,41.55-.3,83.11.27,124.66.14,10.13-1.47,14.14-13,13.75-26-.87-26-.13-26-26.36Q1008.15,643.49,1008.15,612.68Z"/><path class="cls-3" d="M341.75,569.29c13.6-13.27,28.77-22.12,48.34-19.38,23,3.21,36.82,17.09,37.7,41.36,1.16,32.45.46,65,.79,97.45.06,6-1.93,8.09-8.14,8.61-27.65,2.32-27.81,2.35-28-24.84-.13-22.45,0-44.91-.68-67.35-.52-16.78-7.06-24.8-19.11-25.68-13.86-1-25.29,7.83-28.09,23.16-4.41,24.14-1.64,48.61-2.1,72.93-.4,20.7-10.18,27.59-30.86,21.62-5.34-1.54-5-5.3-5-8.82-.15-42.52-.1-85-.19-127.56,0-6.06,2.59-8.62,8.67-8.29a107.65,107.65,0,0,0,15.76-.07C344.33,551.18,337.43,563.17,341.75,569.29Z"/><path class="cls-1" d="M846.48,614.17c0-24.87-.4-49.75.22-74.61.23-9.06-2.71-11.64-11.38-11.12-11.44.67-23-.47-34.41.38-9.27.7-11-2.79-10.93-11.33.21-24.09-.2-24.09,23.76-24.1,38.27,0,76.53.28,114.79-.21,9.3-.11,13.52,1.25,13.28,12.08-.52,23.32.13,23.34-23.41,23.35-33.34,0-33.35,0-33.34,33.19,0,42.57-.27,85.14.25,127.7.11,9.06-2.54,11.08-11.23,11-27.57-.08-27.58.31-27.6-27.55Q846.47,643.59,846.48,614.17Z"/><path class="cls-1" d="M315.87,383.64c0-26.29,17.74-42.11,47.5-42.57,19.79-.31,35.94,25.38,36.44,42.35a41.76,41.76,0,0,1-41.18,42.79C334.81,426.58,315.89,407.74,315.87,383.64Z"/><path class="cls-4" d="M98.52,244.11c-19.14,0-31.81-12.31-31.85-30.92s14.2-32.33,32.94-32c17.11.28,31.54,14.27,31.62,30.67C131.33,230.6,117.64,244.13,98.52,244.11Z"/><path class="cls-2" d="M302.32,168.94c.12,13.38-9.18,22.93-22.12,22.71a22,22,0,0,1-21.84-21.84c-.16-12.74,9.93-23.11,22.32-22.95A22.18,22.18,0,0,1,302.32,168.94Z"/></svg>