<svg id="Layer_1" data-name="Layer 1" xmlns="http://www.w3.org/2000/svg" viewBox="0 0 1106.13 743.43"><defs><style>.cls-1{fill:#2813bf;}.cls-2{fill:#e30824;}</style></defs><title>bank-panin</title><path class="cls-1" d="M1102.94,445.28c-10.71-.07-21.43-.52-32.12,0-5.46.24-7.81-1.85-9.77-6.55-4.81-11.49-10.14-22.75-15.39-34.38-9.44,7-14.86,14.7-13.75,27,1.23,13.64.28,13.73-13.76,13.73-5.75,0-11.51-.2-17.25.06-3.94.18-5.53-.93-5.51-5.2q.18-66.63,0-133.27c0-4,1.15-5.57,5.35-5.43,8.35.28,16.74.39,25.08,0,5.31-.27,6.54,1.63,6.48,6.69-.27,21.42-.12,42.84-.12,66.91,6.23-8.06,11.85-14,15.91-20.92,6.27-10.63,14.49-15,26.94-13.39,8.4,1.12,17.06.22,27.61.22-8.9,9.8-16.59,18.4-24.41,26.87-9,9.76-9.23,9.8-2.93,21.41,9.29,17.15,17.3,35,27.63,51.58Z"/><path class="cls-1" d="M746.41,368.1c24.23,13.63,31.42,35.22,19.43,56.94-5.23,9.46-12.9,15.54-23.79,17.29-9.8,1.58-19.6,3.07-29.58,2.76-19.76-.6-39.56,1.11-59.3-.91-1.45-19.79-.43-39.6-.59-59.4-.2-25.08.16-50.16-.19-75.23-.08-6.23,1.16-8.54,8-8.4,22.19.46,44.4,0,66.6.22,26.47.29,42.15,19.09,37.2,44.24C762.13,356,755.9,363.2,746.41,368.1Zm-54.06,31.47c0,3.37,0,6.75,0,10.13,0,2.31.36,4.21,3.27,4.11,8-.25,16.15.93,24.11-.71,7.65-1.58,11.58-6.92,11.3-14.52-.27-7.43-4.71-12.06-12.88-13a108.19,108.19,0,0,0-11.68-.39C692.35,385.16,692.35,385.19,692.35,399.57Zm12.39-68.69v-.1c-2.86,0-5.72.05-8.58,0-2.52-.06-4,.87-3.8,3.6.45,7.47-3.06,16.85,1.38,21.86,3.86,4.36,13.28,1.55,20.18,1,8.1-.62,12.24-5.63,12.15-13.42-.1-7.62-4.5-12.17-12.75-12.9C710.48,330.67,707.6,330.88,704.74,330.88Z"/><path class="cls-2" d="M161.92,373.25q0-32.89,0-65.8c0-3-.83-6.32,4.35-6.18,23.74.66,47.55-1.43,71.21,1.06,19.1,2,30.47,14.11,32.75,33.21a82.53,82.53,0,0,1,.59,14c-1.4,26.3-16.52,41.13-42.89,42.16a193.55,193.55,0,0,1-19.57,0c-4.81-.3-6.28,1.15-6.15,6.05.34,13.57-.08,27.16.24,40.73.12,5-1.05,7-6.42,6.73-9.38-.43-18.81-.41-28.19,0-5,.21-6.12-1.43-6.07-6.16.24-21.94.11-43.87.11-65.81Zm47.41-10.61c4.72-.36,7.34-.32,9.88-.79,8.94-1.68,14-8.62,12.91-17.38-1.32-10.47-8.76-14.82-24.77-13.63-10.08.75-3.25,8.76-4.85,13.17-1,2.76.13,6.2-.24,9.27C201.38,360.47,203.31,364.46,209.33,362.64Z"/><path class="cls-1" d="M842.81,433.28c-10.92,11.94-24.67,14.33-39.53,13.6-15.55-.77-26.57-10-29-24.66-2.61-15.53,4.35-28.07,19.67-33,13.13-4.27,26.73-7.07,40-10.89,3.29-1,8.29-1,7.3-7.09-.9-5.6-4.24-8.35-9.51-8.62-8.09-.41-16,.22-19.61,9.3-1,2.39-2.48,2.9-4.88,2.59-8.81-1.13-17.62-2.22-26.46-3.1-3.76-.38-3.86-1.91-3.08-5.18,3.4-14.31,12.55-22.63,26.56-25.59a116.28,116.28,0,0,1,46.75.07c16.3,3.2,25.35,16.37,25.64,36.42.21,13.59,0,27.18.05,40.77,0,7.83-.46,15.74,2.91,23.14,1.47,3.23.25,4.14-2.94,4.11-8.62-.1-17.25.16-25.87-.1C844,444.8,845.74,438.26,842.81,433.28Zm-1.36-30.52c-1.16-1.6,2-6.9-2.76-5.6-8,2.15-16.24,3.93-23.45,8.27-4.45,2.67-6.42,6.89-4.93,12s5.45,7.29,10.68,7.41C832.69,425.13,841.14,416.18,841.45,402.76Z"/><path class="cls-2" d="M377.73,445.1c-10.21,0-19.6-.13-29,0-8.32.15-6-7.64-9.17-11.76-13.23,14.43-30.16,16-47.74,12-13.53-3.08-20.63-13.57-21-27.34-.38-14.17,6.13-24.16,19.52-28.84,13.8-4.83,28.6-6.12,42.28-11.48,2.29-.9,5.62-1.07,5.68-4.47s-.79-6.78-3.94-8.95c-5.91-4.05-20.3-2-23.35,4.44-2.86,6-6.45,6-11.79,5.06A190.31,190.31,0,0,0,279,371.5c-4.27-.3-5.26-1.89-4.2-6,3.07-11.82,10.09-20.21,21.79-23.59,17.68-5.11,35.75-4.88,53.49-.59,15.19,3.66,23.2,16.34,23.42,34.79s.39,37.1.47,55.65C374,436.18,375.3,440.13,377.73,445.1Zm-39.19-42.48c-1.1-1.61,2-6.89-3-5.46-7.91,2.29-16.22,3.89-23.38,8.32-4.73,2.94-5.91,7.14-4.77,12.75,1.24,6.08,5.81,6.14,10,6.5C329.28,425.74,338.13,416.43,338.54,402.62Z"/><path class="cls-2" d="M574.64,355.46c3.5-3.18,6.24-5.84,9.15-8.3,11-9.29,23.6-11.07,36.73-6.33,12.18,4.39,17.22,14.76,18.3,26.93,2.15,24.22.41,48.53,1,72.79.11,4.18-2,4.64-5.3,4.59-8.1-.13-16.21-.34-24.28.07-5,.25-6.72-1.19-6.61-6.42.33-16.18.18-32.38.1-48.57a68.44,68.44,0,0,0-.91-10.1c-.84-5.45-3.85-9.16-9.5-9.94-5.81-.81-10.16,1.67-13,6.74s-3.06,10.47-3.08,16c-.07,15.15-.29,30.3.11,45.43.15,5.63-1.64,7.2-7,6.9-7.81-.43-15.66-.26-23.49,0-3.82.1-5.58-.69-5.56-5.11q.29-47,.05-94c0-4.07,1.2-5.56,5.32-5.4a170.73,170.73,0,0,0,20.36,0c6.19-.48,8.64,1.56,7.68,7.76C574.37,350.4,574.64,352.53,574.64,355.46Z"/><path class="cls-2" d="M418.47,355.76c8.2-11,18.52-17.56,32.45-17.28,15.31.32,25.61,8.34,29.46,23.14,1.93,7.44,1.73,15,1.73,22.57,0,18.28-.14,36.56.12,54.83.06,4.73-1.16,6.45-6.1,6.19a229.86,229.86,0,0,0-23.48,0c-5.09.26-6.76-1.24-6.65-6.5.34-16.71.18-33.42.13-50.13,0-12.48-3.35-17.92-11.08-18.53-8.26-.64-13.75,5.64-14.82,17.48-1.51,16.68-.71,33.41-.49,50.1.09,6.45-2,8-7.95,7.59a226.14,226.14,0,0,0-22.7,0c-4.23.17-5.29-1.43-5.27-5.42.14-31.06.21-62.13,0-93.2,0-5.12,1.88-6.15,6.43-5.92a135.83,135.83,0,0,0,19.56-.05c6.45-.59,8.35,1.88,7.62,7.88C417.18,350.59,416.63,353,418.47,355.76Z"/><path class="cls-1" d="M921.71,355.42c7.57-9.77,16.7-16.4,29.47-16.86,17.83-.63,29.42,8.24,32.74,25.75a61.41,61.41,0,0,1,1.27,10.87c.13,21.42,0,42.84.2,64.26.05,4.48-1.27,5.9-5.73,5.73-8.08-.32-16.2-.36-24.28,0-4.79.21-6.29-1.2-6.19-6.12.32-15.67.13-31.34.11-47,0-2.61,0-5.23-.17-7.83-.67-8.87-4.2-13.47-10.71-14.12-7.08-.71-12.88,3.93-14.41,12.48-2.83,15.8-1,31.79-1.27,47.7-.29,14.8-.06,14.87-14.55,14.78-6.75,0-15.7,2.18-19.67-1.24-4.65-4-1.46-13.24-1.51-20.18-.2-25.34.07-50.68-.21-76-.06-5.47,1.41-7.43,7-7a131.07,131.07,0,0,0,18.8,0c5.88-.42,9,1,8,7.62C920.25,350.33,919.67,352.8,921.71,355.42Z"/><path class="cls-2" d="M493.84,392.7c0-15.39.13-30.79-.07-46.18-.06-4.26,1-6.09,5.64-5.89,8.33.34,16.69.24,25,0,3.67-.1,5,1,5,4.83q-.16,47.36,0,94.7c0,3.62-1,5.1-4.84,5-8.61-.26-17.23-.31-25.83,0-4.4.16-5.14-1.72-5.1-5.53.16-15.65.07-31.31.07-47Z"/><path class="cls-1" d="M529.42,314.32a18,18,0,0,1-18.22,18.45,18.32,18.32,0,1,1-.23-36.63A18,18,0,0,1,529.42,314.32Z"/><path class="cls-1" d="M126.2,301.26c5.76,2.44,7.67,6.91,7.66,13q-.18,60.26-.05,120.53a14.24,14.24,0,0,1-1.43,7.27c-2.11,3.7-5.31,5.25-9.56,5.25q-52.35-.07-104.69,0h-4c-6.21,0-10.43-4-10.81-10.22-.06-1,0-2,0-3,0-39.91.06-79.81-.06-119.72,0-6.05,1.86-10.57,7.56-13.11ZM131,374.2q0-30.6,0-61.21c0-5.81-2.75-8.53-8.53-8.53H15.05c-6.37,0-9,2.57-9,8.91q0,60.81,0,121.62c0,6.51,2.61,9.12,9.09,9.12H122c6.32,0,9-2.63,9-9Q131,404.67,131,374.2Z"/><path class="cls-1" d="M21.9,388.09c-1.92-10.82,4.37-22.51,14-26.55,7.85-3.3,19-2.09,26.86,10.06-.17-3.37.78-5.85,3.57-7.5-13.84-4.62-19.9-12-20.48-24.47-.48-10.11,5.3-19.89,14.32-23.86-1,4.26-.47,8.07,2.8,11.05a7.51,7.51,0,0,0,6,1.92c5.29-.45,8.06-5.28,7.27-12.74,8.57,2.62,14.72,13.53,14.09,25-.65,11.8-8.53,20.55-20.91,22.92,3,1.51,4.32,3.86,4.11,7.74,3.46-5.4,7.51-9.12,13.1-10.8a19.71,19.71,0,0,1,16.06,1.84c8.44,4.79,13.71,16.21,11.64,25.34-2.9-3.05-6.22-4.29-10.13-2.31a9.35,9.35,0,0,0-4.73,9.5c.53,4.32,2.85,7.22,7.18,8.32-4.41,6.16-15.52,7.93-23.49,3.89-9.55-4.86-16.57-18.87-10.37-33.84-3,2.78-5.74,2.81-8.84.74a27.14,27.14,0,0,1,.7,19.13,23.61,23.61,0,0,1-9.84,13,20.05,20.05,0,0,1-25.26-2.78c4.85-1.38,7.37-4.71,7.39-9.55a8.8,8.8,0,0,0-5.31-8.64C27.89,383.86,24.77,385.11,21.9,388.09Z"/><path class="cls-1" d="M62.29,426.54c0-1.94,0-3.87,0-5.81,0-.84.17-1.38,1.18-1.31s1,.85,1,1.54c0,3,0,6.08,0,9.12,0,.62.37,1.52-.74,1.7a1.84,1.84,0,0,1-2.18-1.08c-1-1.88-2.05-3.7-3.3-5.92-.91,2-.36,3.79-.54,5.46-.07.66.22,1.5-.92,1.57s-1.24-.71-1.24-1.57c0-3,0-6.07,0-9.11,0-.65-.28-1.52.79-1.69a1.68,1.68,0,0,1,2,.92c1.12,2.12,2.32,4.2,3.49,6.29Z"/><path class="cls-1" d="M43.69,426.28V421c0-.84,0-1.65,1.19-1.61s.95.86.95,1.54c0,3,0,6.07,0,9.11,0,.62.37,1.52-.71,1.72a1.83,1.83,0,0,1-2.18-1.07c-1-2-2.15-3.9-3.44-6.21-.66,2.12-.27,3.95-.36,5.72,0,.85,0,1.64-1.22,1.58s-.91-.88-.92-1.55c0-3,0-6.07,0-9.11,0-.62-.37-1.53.73-1.7a1.7,1.7,0,0,1,2,.93c1.08,2,2.23,4,3.35,6Z"/><path class="cls-1" d="M74.1,425.65v-1.07c0-5.66.33-5.94,5.89-5.13,2.23.32,3.51,2.19,2.62,4.25a2.22,2.22,0,0,0,.23,2.71,3.36,3.36,0,0,1-2.5,5.34C74.1,432.61,74.1,432.61,74.1,425.65Zm4.24,4c1.17-.11,2.76.32,2.76-1.6,0-1.63-1.35-1.62-2.53-1.65s-2.3-.27-2.26,1.64C76.33,429.7,77.14,429.79,78.34,429.68Zm-.06-5.37c1.1,0,2.34,0,2.26-1.53-.07-1.39-1.28-1.23-2.24-1.25s-2-.19-2,1.38S77.29,424.32,78.28,424.31Z"/><path class="cls-1" d="M101.62,425.16c0,1.58,0,3.17,0,4.74,0,.78.44,2-1.11,1.89-1.26-.06-1-1-1-1.78q0-4.42,0-8.85c0-.65-.31-1.51.76-1.72a1.81,1.81,0,0,1,2.15,1.12c1.07,2.06,2.23,4.06,3.56,6.47.59-2.14.18-3.95.34-5.71.07-.77-.46-1.95,1.1-1.89,1.29.05,1,1,1,1.76,0,2.95,0,5.9,0,8.85,0,.63.36,1.53-.72,1.73a1.82,1.82,0,0,1-2.2-1c-1-2-2.15-3.87-3.23-5.8Z"/><path class="cls-1" d="M116.41,426.33c-1.88.91-2.06,2.42-1.94,4.09.06.77,0,1.4-1.08,1.4s-1.18-.51-1.17-1.34c0-3.21,0-6.42,0-9.62,0-.75,0-1.41,1-1.45,1.25-.06,1.2.73,1.2,1.56v3.08c2.66-1.12,3-5.58,6.88-4.48-4.42,3.95-2.44,7.64.3,11.31a1.32,1.32,0,0,1,.14.5c-2.33.64-2.34.64-3.39-1.29C117.73,428.84,117.08,427.59,116.41,426.33Z"/><path class="cls-1" d="M23.19,431.63c1.27-3.71,2.5-7.23,3.67-10.78a1.77,1.77,0,0,1,1.86-1.48c1.23,0,1.48.75,1.77,1.6,1,3,2.1,6,3.1,9.09.18.55.9,1.39-.27,1.7-.79.21-1.72.14-1.87-.93C31.19,429,30,429,28.54,429s-2.37.22-2.68,1.81C25.58,432.21,24.48,431.82,23.19,431.63Zm5.54-8.92c-.74,1.46-1.53,2.68-1.1,3.94.18.56,1.43.28,2.4,0Z"/><path class="cls-1" d="M95.44,431.8a1.39,1.39,0,0,1-1.47-.89c-1.53-2.78-3.88-2.74-5.57.11a1.56,1.56,0,0,1-2,.71c-.94-.3-.28-1-.11-1.54,1-3.13,2.15-6.23,3.17-9.36.32-1,.75-1.48,1.87-1.45A1.62,1.62,0,0,1,93,420.74q1.59,4.81,3.29,9.6C96.58,431.26,96.74,431.91,95.44,431.8Zm-5.63-5.15c1,.27,2.17.58,2.38,0,.4-1.23-.25-2.45-1.2-3.66C90.55,424.32,90.19,425.47,89.81,426.65Z"/><path class="cls-1" d="M13.49,425.63V424c0-5,0-5,5.11-4.61A3.35,3.35,0,0,1,22,423c.07,2.1-.72,3.93-3,4-2.61,0-3.78.8-3.27,3.51.15.79-.14,1.35-1.15,1.33s-1.14-.59-1.13-1.39C13.5,428.83,13.49,427.23,13.49,425.63Zm3.71-.55c1.41-.09,2.63-.34,2.53-1.89s-1.29-1.61-2.52-1.68c-1.51-.09-1.43.84-1.48,1.87C15.67,424.63,16.08,425.25,17.2,425.08Z"/><path class="cls-1" d="M51.91,425.84v4.8c0,.73-.27,1.15-1.07,1.18s-1.31-.32-1.3-1.24c0-3.28,0-6.57,0-9.86,0-.86.28-1.32,1.22-1.31s1.18.54,1.17,1.36C51.9,422.46,51.91,424.15,51.91,425.84Z"/></svg>