<svg id="Layer_1" data-name="Layer 1" xmlns="http://www.w3.org/2000/svg" viewBox="0 0 1106.13 743.43"><defs><style>.cls-1{fill:#0070ac;}.cls-2{fill:#cc302a;}.cls-3{fill:#4fa94c;}.cls-4{fill:#0a6fa6;}</style></defs><title>bank-panin-syariah</title><path class="cls-1" d="M227,470.58c-.27,2.09-2,3.16-3.18,4.63-1.83,0-2-.11-1.14-1.49.36-.6.22-1.29.55-1.87,3.31-5,4-10.42,3.95-16.29q-.16-87.09,0-174.19c0-8.91-4.14-15-11.76-18.92a21.5,21.5,0,0,0-10-2.2q-51.16,0-102.32,0c-24.91,0-49.82-.11-74.72.06-8.37.06-15,3.67-19.29,11.21-.82,1.47-.9,3.25-2,4.58-.92.42-1-.32-1.23-.88a18.28,18.28,0,0,0,.67-3.51,2.2,2.2,0,0,1,.26-.56c.74-1,1.67-1.88,1.4-3.29,2-4,5.61-5.92,9.29-8,2-1.16,4.53-.89,6.34-2.51.8-.73,2-.49,3-.49q89.84,0,179.68,0c1.82,0,3.57-.15,5.29,1.27,1.24,1,3.31.88,5,1.69a23.72,23.72,0,0,1,11.94,12.82c1.32,3.13,1.4,6.24,1.4,9.39q0,86.24-.06,172.45c0,1.83,0,3.65,0,5.48,0,2.84-.15,5.68-1.76,8.19C228.06,469.08,227.26,469.69,227,470.58Z"/><path class="cls-1" d="M6.06,274.92l.51,1.46A2.09,2.09,0,0,1,6.93,278a93.77,93.77,0,0,0-.16,9.63q0,85.45,0,170.9A20.72,20.72,0,0,0,22.48,479a6.52,6.52,0,0,1,1.41.54,3,3,0,0,1,1.09.84.74.74,0,0,1,0,.6c-.71.86-2.06-.27-2.68.87-3-.12-5.5-1.64-7.84-3.2a22.48,22.48,0,0,1-7.14-7.5A47.18,47.18,0,0,1,5,466.08c-3-7.06-1.46-14.39-1.48-21.56-.16-54-.06-108-.17-162,0-4.74,2-8.74,3.45-13,0-.14.36-.2.55-.3.79.92-.06,1.51-.44,2.19h0C6.66,272.58,6.44,273.77,6.06,274.92Z"/><path class="cls-1" d="M217.29,480c-.67-.79-.87-1.73-2.25-.2-.95,1.05-3.37.75-5.18.71a.57.57,0,0,1,0-.59,2.42,2.42,0,0,1,1.09-.66,18.5,18.5,0,0,0,10.57-5.57c.54-.53.93-1.38,1.94-1,0,.42.1,1.08-.11,1.21-2,1.27-.08,1.08.49,1.38A15.59,15.59,0,0,1,217.29,480Z"/><path class="cls-1" d="M6.94,271.41l.44-2.19.82-1.34c1.8.47.26,1.18.17,1.82A2,2,0,0,1,6.94,271.41Z"/><path class="cls-1" d="M227,470.58c-.09-1.07.65-1.7,1.28-2.39C228.5,469.32,227.7,469.92,227,470.58Z"/><ellipse class="cls-1" cx="229.19" cy="369.74" rx="0.25" ry="122.75"/><path class="cls-1" d="M6.06,274.92c-.88-1.46.76-2.3.88-3.51C6.72,272.59,7.52,274,6.06,274.92Z"/><path class="cls-1" d="M215.71,478.64c-1.81,1.38-3.9,1-5.85,1.39h0l1-.38c-.58,0-1.17-.05-1.75-.05H27.61c-1.53,0-3.07,0-4.6.05l1,.35c.15.4.51.42.87.47a3.09,3.09,0,0,0,0,.43c-.72-.06-1.43-.09-2.14-.19-.41-.06-.89-.42-1.13.12s.52.61.6,1a61.39,61.39,0,0,0,12.19.7q85.17,0,170.33-.05c4.26,0,8.72.17,12.51-2.55C217.32,478.83,216.45,478.08,215.71,478.64Z"/><path class="cls-1" d="M5.24,279.44V462.25H5V279.36Z"/><path class="cls-1" d="M5.62,277.23c-.08.12-.19.41-.3.41a.46.46,0,0,1-.43-.6c0-.17.21-.43.35-.45C5.7,276.52,5.55,276.93,5.62,277.23Z"/><path class="cls-1" d="M110.37,357.31a4.24,4.24,0,0,1,2.2-1.69,1.09,1.09,0,0,0,.94-1.26c-.09-.73-.71-.85-1.27-1-3.22-.72-6.49-1.18-9.56-2.55s-6.29-2.72-9-4.95c-.42-.44-.2-1.63-1.38-1.17h0a29.83,29.83,0,0,0-3.92-4.48c-2-2.08-3.52-4.56-2.2-7.87-.94.71-.54,1.44-.47,2.14.06.51.1,1.13-.49,1.31s-.57-.52-.85-.8c-1.84-1.79-1.52-4.3-2.19-6.47a1.72,1.72,0,0,0,.19-1.73c.1.7.26,1.22-.16,1.66-2.09.28-1.89-1.63-2.58-2.7h0c-1.15-4.38.64-8.66.23-12.86,0,1.21,0,2.59,0,4,0,.59,0,1.31-.74,1.37s-.76-.75-.76-1.28c0-3.05.07-6.1-.07-9.15a2.34,2.34,0,0,1,.41-1.66c1.94-1.74,1.26-4.44,2.51-6.4.42-.67-.26-1.44.17-2.12l.34-.44c2.06,1,2.91.4,3.32-1.95.31-1.79,1.53-3.26,1.9-5.1.21-1,1.56.33,2.29-.29,0-.17.37-.05.32-.32-.06.23-.29.26-.45.39-1.22-1.2-.89-2.23.91-3.1.23-.11,1.57.23.63-.87-.08-.1.2-.38.4-.46,1.7-.75,2.94-2.3,4.83-2.74a7.83,7.83,0,0,0,3.49-2.12c1-.95,4-1.79,5.23-1.27,1.52.64,1.61,2,1.36,3.32s-1,2.87,1.18,3.41c.18,0,.26.33.32.54a8.37,8.37,0,0,0,6,5.34c4.24,1.72,7.68.18,10.8-2.64a9.64,9.64,0,0,0,1-11.59c-.58-.9-.58-.9.4-1.51,3.77.17,7,2,10.17,3.69a27.9,27.9,0,0,1,7.4,5.41c.64.56,1.21,1.21,1.85,1.79a33.82,33.82,0,0,1,5.17,6.5c.77,2,1.18,4.18,2.61,5.9a1.26,1.26,0,0,1,.38.77c0,2,.93,3.75,1.68,5.56.26.63,1.21,1.83-.5,2.38-.31.11.11,1.22.33,1.8a10.15,10.15,0,0,1,.43,6c-.34,1.62-.84,3.37,0,5.11a2.54,2.54,0,0,1-.24,2.13c-2,3.87-2.45,8.43-5.34,11.9-.38.46-.36,1.1-.68,1.6h0c-.77.35-1.42.47-1.4-.62.92,2.27-1.68,3.18-2.13,5h0c-1.78,1.48-4.16,2.21-5.34,4.43-.19.36-.71.49-1.09.71-1,1.3-2.83,1.26-3.91,2.44a.28.28,0,0,1-.21.06c-.61.08-.85-.16-1-.78-.07-.23-.2.37-.26.56a1.84,1.84,0,0,1-.81,1.23,16.9,16.9,0,0,1-4,1.5c-2.38.53-4.65,1.58-7.13,1.67-.88,0-2.11-.19-2.28,1.11s.76,1.78,1.89,1.93a1.86,1.86,0,0,1,1,.43,5.55,5.55,0,0,1,2.58,2.68c.86,3.51,1.2,7-1.24,10.07-.41,1-1.59.75-2.23,1.39-2.24,2.05-7.13,2.05-8.85,0-.63-.76-1.57-.57-2.57-.86.24,1.79,0,3.59,1.73,4.7,2.47,6.72,2.47,13.7,1.52,20.61a23.21,23.21,0,0,1-2.74,8.34c-.3.31-.89.44-1,.79-.58,2.28-2.36,4-3.07,6.15l-.37.46c-.85.76-2,1.19-2.38,2.44a1.62,1.62,0,0,1-2-.38c.48,2.31-.71,3.68-2.61,4.65-.32-.44-1.21-.27-1.17-1.06,0-.15,0-.12,0,0a1.15,1.15,0,0,1-.61,1.25c-.23.14,0-.12-.15.1.6-.1,1-.92,1.75-.52.47.92-.6,1.18-.77,1.82h0a39.59,39.59,0,0,0-4.44,2.4c-.83.56-2.4-.06-2.54,1.6-1.17,1.32-3,1.56-4.42,2-6.82,2-13.7,2.69-20.82.84-5.79-1.51-11-3.71-15.59-7.57a9,9,0,0,0-1.75-1.4h0c-.44-.56-1.08-.91-1.56-1.44-.25-.25-.51-.5-.75-.76s-.63-.63-.42-1.12a1.06,1.06,0,0,1,1.25-.57,10,10,0,0,0,4.14-.57h0a7.87,7.87,0,0,0,3.54-2.61l.95-1.27c2.15-2.53,1.54-5.46,1.22-8.36-.66-.85-1-1.93-1.6-2.76-2.85-4-8.38-4.62-12.75-2.46-1.61.45-2.32,1.82-3.15,3.07a4.31,4.31,0,0,0-1,3.27c-2.91-4.07-3.64-12.92-2.07-21.27.35-2.15,1.82-4,1.7-6.25,1-2,1.64-4.24,3-6.08a5.21,5.21,0,0,0,1.38-2.22A40.83,40.83,0,0,1,56,353.33a40.17,40.17,0,0,1,8.16-3.08c5.23-1.22,10.48-2.43,16-1.14,3,.7,6.08,1.51,9.1,2.34,1.2.33,2.19,1.29,3.48,1.53l.55.39a7.53,7.53,0,0,0,2.31,1.26A34.8,34.8,0,0,1,106,364.27c.36.82,1,1.39,1.85,1s.69-1.14.31-1.83a.53.53,0,0,1,0-.37,2.63,2.63,0,0,1,.09-2.21v0C109.28,359.87,109.42,358.34,110.37,357.31Z"/><path class="cls-1" d="M123.08,369.14c2.31-3.05,2-6.55,1.76-10.05,1.32,1.24.64,2.85.8,4.3.06.56-.1,1.22.55,1.54s1.06-.23,1.57-.47c1-.44,1.09-1.5,1.68-2.21,4-4.81,9.16-8,14.68-10.74a7.66,7.66,0,0,1,2.12-.38,36.36,36.36,0,0,1,14.34-2.54c3,0,5.93,1.12,9,1.27h0c1.74.66,3.33,1.74,5.27,1.76,3.19,1.68,6.45,3.27,9.19,5.67.55.48,1.11.94,1.67,1.4l2.29,2.1a3.47,3.47,0,0,0,1.29,1.37c1.19,1.73,2.37,3.46,3.56,5.18,1.43,2.66,2.46,5.49,3.72,8.23a4.36,4.36,0,0,1,.4,2.09c.64,3.77,1.8,7.47,1.65,11.33-.13,3.49-1.38,6.78-1.93,10.2-.06.35-.26.72-.71.64s-.64-.51-.76-.95A5.9,5.9,0,0,0,191.4,395a10.14,10.14,0,0,0-9.41-.23c-3.67,1.83-5.84,5.27-5.21,9.27,1.08,7,5.66,9.89,12.92,8.59-1.08,1.27-1.75,2.39-2.93,3a16.65,16.65,0,0,1-3.77.94c2.08.28,1.49,1.06.82,1.54-1.52,1.1-3.17,2-4.75,3-1.21.75-3.07.4-3.66,2.22-.09.26-.52.13-.8.17a5.26,5.26,0,0,0-3.06,1.18c-.9.76-2.75.57-4.11.46s-2.77.48-4.11-.1c0,.06-.12-.1-.15.08-.27,1.74-1.26,1.63-2.47.93a5.13,5.13,0,0,0-2.15-.15,5.6,5.6,0,0,1,2.12.12c.32.49,0,.68-.4.68-2.46,0-4.87.07-7.19-1.19a9.62,9.62,0,0,0-4.21-.86,4.39,4.39,0,0,1-2.12-.37,5.47,5.47,0,0,0-2.55-1.14,1.93,1.93,0,0,1-1.85-1.26c-.44-1.13-1.83-.73-2.57-1.42-.35.59.16-1.39-.54-.17-.26.46-1,.07-1.33-.27a3.39,3.39,0,0,0-2.13-.95h0c-.63-1.1.35-1.24,1-1.58-.11-.12-.27-.27-.37-.23-2.64,1.23-3.27-1.11-4.4-2.5-.22-.28-.33-.66-.64-.86-1.3-.85-1.35-1.8-.49-2.51a1.59,1.59,0,0,1-1.69.32,1.74,1.74,0,0,1-1.41-1.23c-.21-.88.68-.48,1-.78a.83.83,0,0,0,0-1.18c-.13-.13-.14-.32-.21-.49a1.71,1.71,0,0,0,.37.72c-.73,1.11-1.77,1-2.54-.34-.33-.58-.22-1.48-1.19-1.57a45.26,45.26,0,0,1-4-10.39,42.23,42.23,0,0,1-1.13-11.23,35.34,35.34,0,0,1,2.49-10.7c.23-.61.36-1.25.54-1.89A2.27,2.27,0,0,0,123.08,369.14Z"/><path class="cls-1" d="M89.33,289.81c-.06.37-.2.91-.57.78-2.06-.71-1.37,1-1.86,1.85a10.14,10.14,0,0,0-1.49,5.1c-1.28-.07-2,.84-2.58,1.79-.86-.59-.15-1.74-1.07-2.13,5.76-11.92,15.48-18.73,28.58-21.79-2,3-3.57,5.82-3,9.32s3.06,5.7,6.13,7.25c-2.59.85-3.76-.81-4.92-2.66-.44-.71-1.29-.36-1.91-.09-.42-.79.07-1.26.27-1.78.13-.34.4-.71.12-1-.63-.65-.56.24-.83.41a1,1,0,0,1-.52-.06c.11-1.09-1.54-1.87-.7-3a3.36,3.36,0,0,0,.48-2.7c-.11-1-.72-1.73-1.9-1.17a3.06,3.06,0,0,1-1.47.06c-1,0-2.41-.4-2,1.51,0,.1-.18.34-.22.33-1.61-.5-2.2,1.7-3.74,1.4-.27-.05-.75,0-.83.13-.91,1.71-3.07,1.47-4.36,2.69.72.46,1.56-.05,2.25.7-1.23.8-2.82-.22-3.83,1C88.76,288.58,88,289.12,89.33,289.81Z"/><path class="cls-1" d="M86.94,453.08c0-2.18,0-4.36,0-6.54,0-1,0-2.24,1.48-2.16,1.24.07,2.28.68,2.28,2.15,0,4.37-.08,8.73,0,13.1,0,1.68-1.14,1.57-2.17,1.73-1.37.22-1.61-.76-1.64-1.75-.06-2.17,0-4.35,0-6.53Z"/><path class="cls-1" d="M160.77,426.12c.83-.16,2.2.49,1.92-1.3a25.22,25.22,0,0,1,4.5-.18c.66.08,1.11.36,1.67-.21s.89-.84,1.49.14c.37.62.56,0,.94-.54.88-1.14,2.49-1.26,4.13-.61-.42-1.2-1.17-1.87.81-2,1.22-.06,3.21-.14,4.27-1.94.7-1.17,3.07-.47,3.61-2.37-.73-.33-1.22.68-2.49.28a6,6,0,0,1,5.15-1.78,31.16,31.16,0,0,1-9.89,7.09,43.69,43.69,0,0,1-8.7,3.14,32.35,32.35,0,0,1-17.83-.13c-1.49-.45-3.25,0-4.46-1.38a.91.91,0,0,1,.86-.44c2.14-.45,4.18,1.3,6.35.28a.59.59,0,0,1,.53.18A6.32,6.32,0,0,0,160.77,426.12Z"/><path class="cls-1" d="M149,336.76a9.2,9.2,0,0,1,2.31-5.09C152.7,330.2,152.8,328,153,326c.09-.73,0-1.16.75-1.72a2.57,2.57,0,0,0,.68-3.93,2.19,2.19,0,0,1-.18-2.3,12.13,12.13,0,0,0-.22-8.73,3,3,0,0,1-.14-2.46c.79-.1.48.82,1,.95.47-1.41-.57-2.5-1.19-3.32a3.28,3.28,0,0,1-.76-3,2.27,2.27,0,0,0-.65-2,9.25,9.25,0,0,1-2-5.92,37.1,37.1,0,0,1,5.94,22.44C155.77,323.54,153.82,330.72,149,336.76Z"/><path class="cls-1" d="M81.42,297.64c.08,3,.36,6-2.14,8.3-.94.88-.58,2.14-.48,3.29a28.39,28.39,0,0,1,0,6.45,2.86,2.86,0,0,0,.37,2.43c1-2,.11-4,.91-5.83a28,28,0,0,1,0,4.49c-.49,3,.32,6-.42,9-2.85-5.94-1.66-12.26-1.43-18.41a15.22,15.22,0,0,1,2.44-7.52C81.13,299.14,80.73,298.22,81.42,297.64Z"/><path class="cls-1" d="M79.67,325.76c1.08.67,1.06,2.46,2.65,2.62h0c.25.6.86,1,.88,1.72a8.23,8.23,0,0,0,2.21,5.51c-.46-1.89-.87-3.67,1.44-4.29a1,1,0,0,1,.05,1.23c-1.21,2.54-.92,3.71,1.3,5.36.3.21.21.48.15.75s-.24.77-.17.81c1.1.57,2,.88,2.64,2.43.49,1.24,1.35.9,1.52,2.8a34.33,34.33,0,0,1-11.41-15.35C80.5,328.15,79.29,327.24,79.67,325.76Z"/><path class="cls-1" d="M122.26,356.41c-1.5-.3-3.59.35-3.58-2.33,0-1.06.28-1.78,1.46-1.58,3,.52,5.43-1.36,8.27-1.58,1.11-.09,2.42-1.16,3.78-1.39,1.16-.2.7-1.24,1.1-1.83.23-.35-.87-1.16.26-1.25.64-.05.95.59.86,1.26,0,.28-.19.56.34.84.79-1.71,2.87-1.46,4.1-2.65l.13.22a2.77,2.77,0,0,1-.55,1.13,42.74,42.74,0,0,1-16.64,6.17c-.65.1-1.37.18-1.44,1s.52,1.11,1.23,1.22A.78.78,0,0,1,122.26,356.41Z"/><path class="cls-1" d="M110,446.45a2.15,2.15,0,0,0-2.27-2.18c-1.32.06-1.35,1.27-1.33,2.33,0,1.67,0,3.34.05,5,0,.65.09,1.38-.69,1.68s-1.14-.33-1.53-.87-.87-1.12-1.32-1.68h0c-1.06-1.72-2-3.52-3.23-5.13a2.47,2.47,0,0,0-2.8-1.19c-1.08.4-1,1.47-1,2.43q0,6.12.05,12.25c0,1-.28,2.21,1.34,2.21s1.71-1.07,1.66-2.27c-.08-1.81-.19-3.63-.23-5.45,0-.63,0-1.39.77-1.64s1.11.26,1.53.65a6.34,6.34,0,0,1,.9,1.21c1.11,1.86,2.08,3.81,3.33,5.55.68.93,1.26,2.49,3,1.84,1.22.1,1.73-.57,1.74-1.69C110,455.15,110.05,450.8,110,446.45Z"/><path class="cls-1" d="M92.72,353a31,31,0,0,1-7-2.34,4.77,4.77,0,0,0-1.37-.59c-5-.17-9.89-1.63-15.12-.52-3,.65-6,1.91-9.12,2.24-1.38.15-2.45,1.78-4.14,1.56C68.15,346.77,80.4,346.51,92.72,353Z"/><path class="cls-1" d="M125.19,406.88c1-.6,1.28-.24,1.46.86.25,1.5,1.12,1.76,2.13.85.56.94,1.28,1.94-.87,1.75,1.73,1.37,1.88,1.37,2.49,0,.1-.24.19-.36.42-.32a.71.71,0,0,1,.55,1c-1.2,2.65,1.26,3.55,2.48,4.88.55.6,0,1.51.85,1.77,1.34-3.15,2.24.29,3.65-.06-.75,1.22-2.65-.39-2.56,1.54a6.83,6.83,0,0,1-2.17-1.79,3.17,3.17,0,0,0-1.39-1.25A32.22,32.22,0,0,1,125.19,406.88Z"/><path class="cls-1" d="M191.4,395c1.86.15,3.42,1.69,4.46,4.41.12,0,.32-.06.34-.13,1.21-4.87,3-9.85,1.63-14.8-.65-2.39-.3-4.78-1.11-7,.15-.19.29-.19.43,0a33.54,33.54,0,0,1,1.26,15.44c-.35,2.13-1.13,4.18-1.23,6.37,0,.49-.17,1.1-.73,1.22a1.11,1.11,0,0,1-1.29-.93C194.64,397.43,193,396.29,191.4,395Z"/><path class="cls-1" d="M169.54,349.86c-3.74.48-7.33-1.32-11-.83s-7.8.14-11.29,2.26c-.22.13-.66-.1-1-.16a3,3,0,0,1,2-1.23c6.09-1.12,12.16-3,18.37-.62C167.54,349.63,168.65,349.21,169.54,349.86Z"/><path class="cls-1" d="M146.75,423.93a.92.92,0,0,1-.86.44c-3.86-.81-6.93-3.12-10.1-5.26a1.43,1.43,0,0,1,1.79.3c1.41,1.18,2,1,1.74-1.28.23,1.67.86,2.41,2.35,2.47.61,0,1.66.1,1.35,1.44-.16.68.68.54,1.15.57A2.83,2.83,0,0,1,146.75,423.93Z"/><path class="cls-1" d="M125.71,276.24c-.32.17-.83.58-.6.74,1.7,1.19,1.25,3.3,2.16,4.86s-1.09,6.34-3,7.5c3.16-4.71,2.44-9.29-.81-13.93A3.84,3.84,0,0,1,125.71,276.24Z"/><path class="cls-1" d="M79.86,444.34c-.93,0-1.88.43-1.87,1.69,0,1.46.1,2.92,0,4.38-.06.93.84,2.21-.45,2.75s-1.27-1.35-2.21-1.67a20.8,20.8,0,0,0-3.41-5.27,2.51,2.51,0,0,0-3-1.93c-1.66.23-1.55,1.61-1.54,2.88,0,3.05,0,6.1,0,9.15,0,1.48-.43,3,.39,4.45h0c2.15,1.06,3.4.39,3.35-1.86,0-1.67-.24-3.34-.34-5,0-.64-.27-1.44.62-1.64a1.49,1.49,0,0,1,1.94.94c.78,2.13,2.42,3.76,3.34,5.84,1,2.3,2.28,2.65,4.73,1.78.1-.1.29-.2.29-.3.06-4.88.13-9.76.11-14.64C81.88,444.7,80.79,444.32,79.86,444.34Z"/><path class="cls-1" d="M98.1,419.1c-.07-.76.63-1.14.87-1.74h0c1.44-1.3,2.84-2.62,2.14-5.24a3.42,3.42,0,0,0,2.66.85c0,.09.08.18.13.27-.2.59-.71,1-1,1.51A29,29,0,0,1,98.1,419.1Z"/><path class="cls-1" d="M106.41,410.3c-.32-.4-1-.72-.08-1.27s1.18-1.4,0-2.48c2.34,1,2.29-.94,2.28-1.75,0-1.57.91-1.35,1.8-1.44C109.39,405.84,108.4,408.36,106.41,410.3Z"/><path class="cls-1" d="M138.85,345.9c.42-.54,1.7-.49,1.18-1.7a.81.81,0,0,1,.15-.57c2.16,0,3.08-2.64,5.29-2.51-1.34,2.06-3.44,3.29-5.3,4.78a.93.93,0,0,1-1.26.07Z"/><path class="cls-1" d="M91.11,423.11c-.06-1.26-.54-3,1.79-1.65.66-1.17,2.19-.83,3-1.71a2.51,2.51,0,0,1,2.18-.64A24.49,24.49,0,0,1,91.11,423.11Z"/><path class="cls-1" d="M51.19,412.5c-1.53,1-3.13,1.65-5,.85-.26,1.25.77,1.51,1.07,2.2.1.1.14.19.1.29s-.08.14-.12.14c-1-.87-2.76-1.72-2.38-3s2.15-.18,3.3-.33C49.18,412.53,50.19,412.55,51.19,412.5Z"/><path class="cls-1" d="M145.46,341.13c.27-2.52,2.78-4.16,2.09-7,1.92.62-1.1,2.56,1.44,2.6A17.17,17.17,0,0,1,145.46,341.13Z"/><path class="cls-1" d="M197.15,377.48l-.43,0a44.22,44.22,0,0,0-3.64-8.63c-.31-.53-.69-.9-.27-1.5A25.35,25.35,0,0,1,197.15,377.48Z"/><path class="cls-1" d="M111.68,374.41c-2.46-.72-1.45-3.29-2.5-4.79-.2-.29.53-1.08,1-.68.73.66,2.12.34,2.36,1.63-.67-.09-1.46-.54-2,.18s0,1.38.24,2A13.73,13.73,0,0,0,111.68,374.41Z"/><path class="cls-1" d="M123.08,369.14c.85-.06,1.29.27,1.37,1.18a2,2,0,0,1-1.33,2.35c.62-2.41.62-2.41-1.75-2.12C121.65,369.73,122.71,369.86,123.08,369.14Z"/><path class="cls-1" d="M108.17,363.45c.55.59,1.12,1.2.63,2.08a1.15,1.15,0,0,1-1.33.5c-.93-.19-1.66-.6-1.46-1.76C107.15,365.1,107.91,364.92,108.17,363.45Z"/><path class="cls-1" d="M56.88,400.26c1.18,2.84.64,6.57-1.22,8.36C57.26,406,57,403.13,56.88,400.26Z"/><path class="cls-1" d="M38,373.86a8.06,8.06,0,0,1-1.7,6.25C35.9,377.76,37.69,376,38,373.86Z"/><path class="cls-1" d="M174.81,351.61a6.65,6.65,0,0,1-5.27-1.76C171.51,349.82,173,351.3,174.81,351.61Z"/><path class="cls-1" d="M39.38,398.11c.57-1.51,1-3.16,3.15-3.07Z"/><path class="cls-1" d="M178,444.32c-1.32,0-1.8,1.3-1.74,2.6.08,1.6.19,3.2.29,4.8,0,.61,0,1.23-.62,1.51a1.75,1.75,0,0,1-1.64-.38c-.51-.33-.66-.92-.94-1.43-1-1.89-2.11-3.8-3.33-5.58a2.67,2.67,0,0,0-2.94-1.39,2.21,2.21,0,0,0-1.55,2.37q.09,6.23.07,12.47c0,1.6.64,2.29,2.24,2,1.25-.09,1.21-1,1.22-1.9a38.87,38.87,0,0,0-.21-5.39c-.09-.65-.06-1.57.69-1.91.92-.4,1.19.51,1.59,1.07l2,2.76h0v0a14.9,14.9,0,0,0,2.56,4h0c.55,1.38,1.7,1.5,2.9,1.28,1.39-.25,1-1.43,1-2.31,0-4,0-8,.07-12C179.64,445.55,179.4,444.29,178,444.32Z"/><path class="cls-1" d="M92.34,344.71c.59-.29.72-1.63,1.48-1.14s-.37,1.5-.1,2.31Z"/><path class="cls-1" d="M54.71,409.89a4,4,0,0,1-3.54,2.61Z"/><path class="cls-1" d="M103.78,413c-.44-2,1.38-1.59,2.26-2.2,0,.94-.72,1.31-1.31,1.8-.29.18-.42.68-.92.43Z"/><path class="cls-1" d="M110.37,357.31c-.66,1.21-.56,2.88-2.14,3.54C108.88,359.63,109.06,358.12,110.37,357.31Z"/><path class="cls-1" d="M198.5,458.05h0l-1.3-1.7a13.73,13.73,0,0,0-2.3-3.65,2.55,2.55,0,0,1-.39-3.36h0l3.55-3c.92-.21,1.54-1,1.33-1.71-.31-.94-1.41-.51-2.11-.33a4.51,4.51,0,0,0-2.81,1.44,5.14,5.14,0,0,0-2.15,1.82h0c-1.17.6-1.87,2.48-3.43,1.8-1.15-.51-.47-2-.51-3s-.28-2.05-1.44-2.05a2,2,0,0,0-2.07,1.89,22.88,22.88,0,0,0,0,2.62c0,3.5,0,7,0,10.49a1.88,1.88,0,0,0,2,2.1c1.39.07,1.61-.92,1.56-2.07s-.05-2.19,0-3.28.1-1.94,1.35-2.16a1.84,1.84,0,0,1,2.2,1.3,16,16,0,0,0,3,4.23c.34.85.72,1.65,1.8,1.72h0a3.33,3.33,0,0,0,3.07,0h0C201.09,459.45,199.2,459,198.5,458.05Z"/><path class="cls-1" d="M95.58,354.63a2,2,0,0,1-2.31-1.26A3.75,3.75,0,0,1,95.58,354.63Z"/><path class="cls-1" d="M103.81,413l.92-.43c-.17,1.08-1.07,1.57-1.8,2.18C102.83,414,103.57,413.6,103.81,413Z"/><path class="cls-1" d="M42.4,365.56A1.83,1.83,0,0,1,41,367.78,4.63,4.63,0,0,1,42.4,365.56Z"/><path class="cls-1" d="M145.13,287.13a2.72,2.72,0,0,1-1.85-1.79A3.11,3.11,0,0,1,145.13,287.13Z"/><path class="cls-1" d="M138.91,346l1.26-.07c-.34.77-1.11,1-1.74,1.35Z"/><path class="cls-1" d="M48.53,417a1.75,1.75,0,0,1,1.75,1.4C49.55,418.06,48.73,417.89,48.53,417Z"/><path class="cls-1" d="M185.67,358.68c-1,.1-1.34-.66-1.67-1.4C184.92,357.32,185.33,358,185.67,358.68Z"/><path class="cls-1" d="M47.27,416a3,3,0,0,1,0-.43c.51.38,1.35.48,1.24,1.41A1.67,1.67,0,0,1,47.27,416Z"/><path class="cls-1" d="M138.85,445.86l.53-.06c.47.32.92.66.89,1.32A2.42,2.42,0,0,1,138.85,445.86Z"/><path class="cls-1" d="M132.23,416.07a1.22,1.22,0,0,1,1.39,1.25A2.58,2.58,0,0,1,132.23,416.07Z"/><path class="cls-1" d="M108.22,360.87l-.09,2.21A1.75,1.75,0,0,1,108.22,360.87Z"/><path class="cls-1" d="M189.25,362.15a1.19,1.19,0,0,1-1.29-1.37C188.67,361,189,361.58,189.25,362.15Z"/><path class="cls-1" d="M99,417.36c-.93,0-1.44.89-2.27,1.11a.62.62,0,0,1-.83-.43c-.19-.46,0-.7.48-.67,1.67.1,1.19-1.21,1.55-2.19A2.72,2.72,0,0,0,99,417.35Z"/><path class="cls-1" d="M82.32,328.38l-.06-.84c0-.58-.85-1.06-.25-1.69a.81.81,0,0,1,.79.06c.59.57-.15,1.16-.09,1.77,0,.22-.25.47-.39.7Z"/><path class="cls-1" d="M89.29,289.81c.3-.5.59-1,.89-1.46.19.12.38.17.4.25C90.8,289.64,90.18,289.85,89.29,289.81Z"/><path class="cls-1" d="M80,309.24c-.37-.59-.74-1.05-.38-1.73C80.4,307.93,80.11,308.54,80,309.24Z"/><path class="cls-1" d="M144.69,340.21c-.18.1-.35.27-.53.27a.27.27,0,0,1-.25-.43c.1-.13.37-.16.57-.19S144.6,340.06,144.69,340.21Z"/><path class="cls-1" d="M128.83,408.83c-.39-.89-1.51-1.05-1.19-2.09a.42.42,0,0,1,.36-.15C129.06,406.93,128.68,407.86,128.83,408.83Z"/><path class="cls-1" d="M160.77,426.06h-3C158.81,425.8,159.82,425.37,160.77,426.06Z"/><path class="cls-1" d="M160.3,425.15h-2.47l0-.18h2.39Z"/><path class="cls-1" d="M160.76,459c-.87-2-1.61-4-2.33-6-.86-2.43-3.92-8.74-5.13-8.72-1.4,0-3.17,3.35-3.47,4.21-1.21,3.52-2.54,7-3.92,10.45-.36.9-1.09,1.94.23,2.28,1,.27,2.76.72,3.09-1,.44-2.3,1.88-2.65,3.79-2.65,2.06,0,4,.05,4.34,2.78.12,1.06,1,.92,1.66,1s1.53.34,2-.37S161.07,459.66,160.76,459Zm-7.52-4.68c-.76,0-1.68-.26-1.4-1.2s.3-2.55,1.57-2.55,1,1.58,1.43,2.35C154.83,454.05,154.12,454.32,153.24,454.29Z"/><path class="cls-1" d="M62.59,459.05c-.47-1.54-1-2.85-1.55-4.23-.91-2.4-3-7.68-3-7.73.06.16-.6-2.38-2.14-2.79a2.56,2.56,0,0,0-3.15,1.35c-1.08,2.65-2,5.38-2.92,8.08h0c-.14,1.89-3.42,7-2.5,7.23a23.91,23.91,0,0,1,2.59.26h0c1.11-.08,1.06-1.05,1.35-1.77h0c.83-1.12,1.61-2,3.32-1.94,2.11.07,3.83.1,4.55,2.62.42,1.48,2,1.37,3.18,1.06C63.82,460.8,62.8,459.75,62.59,459.05Zm-7.05-4.73c-1.13.09-1.84-.37-1.82-1.58,0-.87.15-1.74,1.16-2.06a2.61,2.61,0,0,1,2,2.33C57.06,453.91,56.34,454.25,55.54,454.32Z"/><path class="cls-1" d="M46.15,448c-.39-2.06-2.16-3-3.92-3.26a48.17,48.17,0,0,0-7.79-.32c-1.22,0-1.3,1.17-1.29,2.15,0,4.29,0,8.58,0,12.87,0,1.65.61,2.32,2.26,1.74h0c1,.17,1.5-.38,1.61-1.28A11.43,11.43,0,0,0,37,458c-.22-3.09,0-3.34,3-3.47a8,8,0,0,0,3.73-.79h0C46,452.43,46.59,450.37,46.15,448ZM39,447.53c1.36.13,3.19-.19,3.16,2,0,1.81-1.46,1.67-2.87,1.7-1.15.05-2.45,0-2.53-1.74C36.73,448.06,37.67,447.4,39,447.53Z"/><path class="cls-1" d="M84.84,292.49c.19-.1.35-.25.52-.26.38,0,.44.29.36.56s-.27.22-.41.33Z"/><path class="cls-1" d="M139.74,453c-.53-.72-.91-1.4-.13-2.09,1.28-1.11,1.08-2.41.66-3.78-.4-.35-.72-.79-1.11-1.14a.36.36,0,0,0,.22-.18,7.67,7.67,0,0,0-5.08-1.59c-1.45.06-2.91.14-4.36.06-2.28-.14-2.9.35-2.9,2.64q0,6,0,12c0,.63-.22,1.33.4,1.83h0a1.1,1.1,0,0,0,1.07.62c2.54,0,5.09,0,7.62-.21C140.73,460.76,142.49,456.7,139.74,453Zm-5.87-6.36c1.45-.1,2.69.47,2.67,2.23,0,2.1-1.65,2.29-3.28,2.3s-2.63-.73-2.62-2.3C130.66,446.94,132.07,446.54,133.87,446.63Zm3.55,9.43c-.38,1.85-1.85,2.44-3.87,2.43-1.9.37-2.38-1.1-2.54-2.71s1.08-1.92,2.28-2C135.72,453.75,137.67,454.8,137.42,456.06Z"/><path class="cls-1" d="M777,306.53c2.9,1,5.81,2,8.7,3,12.92,4.71,19,14.43,17.77,28.29-1.45,16.23-11,26.35-27,29.66a94.41,94.41,0,0,1-31.26,1.2c-2.77-.35-5.44-1.48-8.2-2.05-.93-.19-2.75,0-2.86.45-.94,3.38-3.6,2.42-5.78,2.44-7.81.07-15.62-.12-23.41.12-3.36.11-3.86-1.3-3.85-4.17q.17-45.59.14-91.17c0-4.73.05-9.46,0-14.18,0-2,.52-3,2.79-3,8.86.08,17.73,0,26.6.09,1,0,2.67.7,2.8,1.32.64,3.15,2.41,2.14,4.26,1.53,13.28-4.34,26.55-3.81,39.61.77,8.61,3,15.61,8.34,17.64,17.73,2.14,9.85-.9,23-14.58,25.1a13.43,13.43,0,0,0-3.35,1.54Zm-43.38,27.65c0,3.9.12,7.8,0,11.7-.1,2.42.78,3.74,3.11,4.32,9.47,2.33,18.76,2.2,27.33-2.89,4.92-2.93,8-7.48,7.55-13.5-.45-6.49-3.82-11.09-10-13.22-8.47-2.91-17.18-2.69-25.87-1.26-.83.14-1.88,2-2,3.15C733.51,326.37,733.66,330.28,733.66,334.18Zm0-45.75h0c0,2.36,0,4.72,0,7.08-.06,2.8,1.22,4.28,4,4.09,6.1-.41,12.23-.65,18.27-1.48a11.82,11.82,0,0,0,10.14-10.37c.45-4.35-2.41-8.42-7.6-10.72-6.5-2.87-13.19-1.55-19.84-.8-4.11.47-5.53,2.91-5,6.88A42.89,42.89,0,0,1,733.66,288.43Z"/><path class="cls-2" d="M259.74,370.24v-5.31q0-52.12-.08-104.26c0-3,1-3.84,3.84-3.79,8.63.15,17.26.07,25.89,0,1.86,0,3.53-.07,3.91,2.48.06.38,2.42.93,3.44.58,14.71-5,29-4.11,42.76,3.11,10.09,5.31,14.45,14.67,15.84,25.4,1.22,9.47.6,18.92-4,27.61-5.56,10.43-14.39,16.24-25.87,18.85-10.09,2.28-19.61.81-29.1-2.51-3.14-1.1-3.35,1-3.35,3.19q0,14.89,0,29.79c0,4.87,0,4.84-4.89,4.83C278.89,370.22,269.68,370.24,259.74,370.24ZM293,296c0,4.24-.12,8.49.07,12.73.05,1.24.67,3.19,1.55,3.54,6,2.46,12.49,3.42,18.66,1.3,10.36-3.57,13-12.32,12.32-21.76-.4-5.78-3.58-10.1-8.72-12.84-5.9-3.14-12.07-2.89-18.16-.89-5.79,1.9-5.72,2.09-5.72,8Z"/><path class="cls-1" d="M1098.77,289c-7.6,8.07-15.34,16.51-23.35,24.68-2.05,2.09-2.81,3.46-1.15,6.23,8.21,13.74,16.2,27.61,24.26,41.45,1.42,2.42,2.77,4.89,4.41,7.81a26.14,26.14,0,0,1-3.15.39c-9,0-18,.15-27-.09a5.94,5.94,0,0,1-4.21-2.75c-4.69-8.83-9.08-17.81-13.6-26.74-1.59-3.15-3.19-3.38-5.65-.93s-5.25,4.77-7.5,7.47a9.81,9.81,0,0,0-2.1,5.33c-.3,4.71-.22,9.46-.07,14.18.07,2.51-.59,3.67-3.35,3.62-7.92-.13-15.85-.1-23.77,0-2.28,0-3.08-.72-3.08-3.06q.11-53.22,0-106.44c0-2.39.86-3,3.11-3,7.92.11,15.85.14,23.77,0,2.77-.05,3.41,1.22,3.4,3.66q-.13,25-.11,50a17.75,17.75,0,0,0,.91,3.83c1.16-.68,2.58-1.12,3.42-2.07,6.29-7,12.42-14.21,18.74-21.22a6.5,6.5,0,0,1,4-2.27C1077.78,288.88,1088.76,289,1098.77,289Z"/><path class="cls-2" d="M605,329c0-12.42.07-24.84-.06-37.26,0-2.69.87-3.46,3.46-3.41q10.29.21,20.58,0c2.69-.06,3.58.9,3.37,3.52a65.93,65.93,0,0,0,0,7.44,9.38,9.38,0,0,0,.64,2.25,7.48,7.48,0,0,0,2.47-.81c3-2.45,5.74-5.26,8.88-7.51,5.82-4.18,12.6-4.85,19.54-4.62a26.93,26.93,0,0,1,13.75,3.79c5.56,3.48,8.66,8.66,10,14.82a59.71,59.71,0,0,1,1.36,12.29c.15,15.49,0,31,.13,46.48,0,3.33-1,4.32-4.27,4.24q-11-.27-22,0c-3,.07-3.89-1.12-3.87-4q.14-20.94,0-41.87c0-4.56-.71-9-5.34-11.54-8-4.31-17,.64-18.48,10.3a70,70,0,0,0-.49,10.25c-.06,10.4,0,20.81,0,31.22,0,5.48,0,5.48-5.38,5.48-7,0-14-.09-20.93,0-2.66.05-3.44-.9-3.41-3.51C605,354.1,605,341.56,605,329Z"/><path class="cls-2" d="M465.26,370.22V289.11h27.16c0,3.33-.07,6.69,0,10.05a10,10,0,0,0,.92,2.73c.91-.42,2.06-.6,2.67-1.28,4.73-5.31,10.14-9.72,17.28-10.95,12.53-2.16,24.2-1.26,31.36,10.22,3.33,5.36,4.28,11.54,4.37,17.67.24,16.43.05,32.87.14,49.3,0,2.47-.83,3.39-3.27,3.37-7.92-.07-15.85-.11-23.77,0-3.29.06-2.83-2.12-2.83-4.07,0-13.12,0-26.24,0-39.37a36.31,36.31,0,0,0-.64-6.32c-1.13-6.41-4.85-8.48-10.55-9a11.9,11.9,0,0,0-12,8.63,40.85,40.85,0,0,0-1.46,9.75c-.17,12.29-.14,24.59,0,36.89,0,2.61-.77,3.54-3.42,3.5C482.7,370.15,474.2,370.22,465.26,370.22Z"/><path class="cls-2" d="M368.54,312.12c2-13.1,11.47-19.8,22.66-21.75a120.18,120.18,0,0,1,40.49.06,24.93,24.93,0,0,1,20.11,19,67.26,67.26,0,0,1,1.45,13c.18,14.54,0,29.09.12,43.63,0,3.15-.74,4.42-4.16,4.27-6.49-.27-13-.2-19.5,0-3.22.08-4.61-.94-4.26-4.28a15.19,15.19,0,0,0-.62-4,28.08,28.08,0,0,0-3.75,1.41c-10.92,5.87-22.5,8.43-34.72,5.89-4.83-1-10.06-2.57-13.9-5.48C360.86,355,364,336,378,330.27c6.78-2.78,14.21-4,21.35-5.89,7.37-2,14.77-3.9,22.08-6.1a4.46,4.46,0,0,0,2.32-3.25c.43-4.48-2.1-8.08-6.63-8.42a42.8,42.8,0,0,0-13.89.94c-2.41.62-4.07,3.89-6.21,5.81-1,.9-2.39,2.11-3.5,2-7.86-.72-15.7-1.73-23.54-2.67A6.77,6.77,0,0,1,368.54,312.12Zm55.17,26.33a15.18,15.18,0,0,0-.09-3.88c-.21-.73-1.5-1.85-2-1.71-7.35,2.1-14.73,4.11-21.9,6.73A7.16,7.16,0,0,0,395.2,347a7.64,7.64,0,0,0,4.73,6.88C410.32,358.83,423.64,350.3,423.71,338.45Z"/><path class="cls-1" d="M914.12,289c8.16,0,16.18-.05,24.19.1.66,0,1.76,1.38,1.84,2.2.23,2.58,0,5.2.11,7.79a14.41,14.41,0,0,0,1.1,3.43,28.76,28.76,0,0,0,3.16-1.81c4.11-3.09,7.77-7.11,12.32-9.2,10.44-4.78,27.17-4.08,34,5.94,2.6,3.84,5.06,8.65,5.24,13.12.76,18.64.59,37.31.86,56,0,2.44-1,3.06-3.16,3-7.45-.07-14.9-.15-22.34,0-2.75.06-3.43-1-3.42-3.53q.12-18.79,0-37.59a70.49,70.49,0,0,0-.82-8.44c-1.23-9.72-12.66-11-18.72-6.36a13.46,13.46,0,0,0-5.39,11c-.16,13.58-.43,27.17-.42,40.75,0,3.29-1,4.29-4.27,4.19-7.21-.21-14.42-.13-21.63-.07-2,0-3.06-.37-3-2.71q.1-38.12.08-76.24A10.44,10.44,0,0,1,914.12,289Z"/><path class="cls-1" d="M817.41,311.87c.7-11.73,11.64-19.5,22.05-21.53,11-2.15,21.9-1.41,32.81-1.07,7.66.24,15.2,2.26,21,8.05,5.47,5.49,7.66,12.47,7.79,19.91.28,16.19.07,32.39.18,48.58,0,2.77-.86,3.77-3.67,3.7-6.61-.16-13.24-.16-19.85,0-2.76.07-3.48-1-3.42-3.55a23.93,23.93,0,0,0-.78-4.69,38.89,38.89,0,0,0-4.28,1.7,52.77,52.77,0,0,1-31.81,6c-4.89-.59-9.73-2.44-14.32-4.36-5-2.09-7.62-6.43-8.54-11.76-2-11.3,4.45-21.4,15.54-24.1,10.24-2.5,20.55-4.77,30.8-7.22a46.29,46.29,0,0,0,6.68-2.22c2.17-.89,5-1,5-4.53,0-3.74-1.66-6.87-4.83-8.38-4.56-2.19-9.23-1.55-13.87-.48-3.85.89-7,2.84-8.63,6.63-.76,1.73-1.8,2.2-3.87,1.92-7-.94-14.07-1.47-21.11-2.18C819.38,312.25,818.48,312.05,817.41,311.87ZM872.6,338c0-1.46,0-2.53,0-3.59.12-2.32-1.22-3-3.14-2.49-6.63,1.87-13.26,3.75-19.79,5.9a9.42,9.42,0,0,0-6.75,9.3c.24,3.73,3.43,7.1,7.84,7.91C859.48,356.64,873.38,351.36,872.6,338Z"/><path class="cls-3" d="M534.76,404.55c-3.9.18-7.52.34-11.14.53-1.65.08-3.31.13-5,.35-3,.41-5,.48-6.41-3.36-2.33-6.4-14.37-8.77-19.71-4.47-4.17,3.35-4,8,.66,10.68a22.5,22.5,0,0,0,5.91,2.16c9.92,2.44,20.19,3.87,29,9.44,11.68,7.34,12.08,21.55,5.67,31.08-4.62,6.87-11.41,10.21-19.4,11.75a62.55,62.55,0,0,1-31.48-1.6c-10.64-3.43-15.28-11.71-17.08-22.68,1.74-.1,3.2-.21,4.67-.27,2.48-.12,5,.14,7.43-.37,6.08-1.29,10.22-.31,12.37,6.58,1.14,3.65,5.13,5.68,9.38,5.88,2.41.11,4.56,1.12,7.3.18,4.93-1.69,8.5-4.73,8.6-9,.11-4.86-2.56-8-8.19-9.56-6.68-1.88-13.45-3.5-20-5.77a43.12,43.12,0,0,1-11.27-5.74c-10.48-7.62-9.72-24.09,1.15-31.19,9-5.9,19.17-6.15,29.38-5.85,6,.18,11.93,1.13,17.31,4.32C530.25,391.37,533.56,396.17,534.76,404.55Z"/><path class="cls-2" d="M561,370.23V288.84h8.48c6.85,0,13.7.09,20.55,0,2.21,0,3.19.49,3.18,2.92q-.11,37.75,0,75.49c0,1.77-.34,3-2.47,3C581,370.22,571.17,370.23,561,370.23Z"/><path class="cls-3" d="M729.57,408.3l-5.67,13c-12.32-4.47-16.57,5.14-17.17,14.12-.57,8.43-.45,16.91-.79,25.36a3,3,0,0,1-2,2.18c-5.31.18-10.64.12-16,.1-2.54,0-2.25-1.9-2.25-3.55q0-19,0-38c0-3.91.09-7.81-.1-11.71-.11-2.09.4-3.12,2.64-3.09,4.61.06,9.23.07,13.84,0,1.9,0,2.55.81,2.4,2.58a7.32,7.32,0,0,0,0,2.47c.26.93.67,2.24,1.36,2.5s1.79-.6,2.53-1.19a9.58,9.58,0,0,0,1.43-2C714.38,404.82,722.79,403.49,729.57,408.3Z"/><path class="cls-3" d="M759.31,435.41c0,8-.09,16.06.05,24.08,0,2.71-.66,3.83-3.58,3.68-4.59-.23-9.21-.12-13.81-.05-2.23,0-3.05-.73-3-3.11q.17-25,0-49.93c0-2.41.65-3.41,3.19-3.33,4.71.14,9.44.11,14.16,0,2.35-.05,3.06.92,3,3.16-.08,8.5,0,17,0,25.5Z"/><path class="cls-4" d="M585.63,282.1a22.12,22.12,0,0,1-14.67.67,37.37,37.37,0,0,1-5.44-1.94c-9.28-4.31-8.08-15.81-.35-20.39s19.94-3.61,26.38,2.48a10.57,10.57,0,0,1-.28,15.64A19.51,19.51,0,0,1,585.63,282.1Z"/><path class="cls-2" d="M741.37,385a19.61,19.61,0,0,1,15.66.14l1,.47c5.29,2.78,5.56,9.2.78,12.78-5.63,4.23-14.7,4-20.12-.57A7.29,7.29,0,0,1,740,385.66Q740.67,385.3,741.37,385Z"/><path class="cls-3" d="M899.91,419.76c-.29-6.91-5.31-12-12-13.57-8.48-1.92-16.13-.29-22.83,5.47-1,.84-2.45,1.09-3.69,1.62a15.68,15.68,0,0,1-1.09-3.88c-.09-7.21-.13-14.43,0-21.63.07-2.86-.92-3.7-3.68-3.55-4,.22-8,.19-12,.06-4.35-.14-4.56-.06-4.56,4.41q0,35.12,0,70.23v4.19c5.93,0,11.35-.1,16.76,0,2.61.07,3.53-.85,3.48-3.49-.15-7.44-.27-14.9,0-22.33A42.7,42.7,0,0,1,862,426.57c1.35-4.46,6.16-6.9,10.72-6,5,.94,7.57,4.16,7.62,10,.09,9.7.11,19.39,0,29.08,0,2.83.86,3.72,3.65,3.59,4.6-.2,9.22-.1,13.83,0,1.9,0,2.89-.63,2.86-2.63C900.44,446.91,900.48,433.32,899.91,419.76Z"/><path class="cls-3" d="M595.89,406.74c-2.49-.08-3.54.88-4.2,3.19q-4.53,16-9.38,31.86c-.32,1.06-1.43,1.87-2.17,2.79-.73-.9-1.79-1.7-2.12-2.74-3.47-10.62-6.76-21.31-10.29-31.91-.41-1.24-2-2.92-3.07-3-6.12-.29-12.26-.14-18.88-.14,2.15,5.15,4.15,10,6.21,14.85,5.59,13.12,11.13,26.27,16.87,39.32,1.61,3.65.46,6.41-1.74,9.09a10,10,0,0,1-8.64,4.05l-10-.6c.41,3.51.93,6.65,1.09,9.8.1,2,.93,2.78,2.77,2.81,6.38.11,12.83.87,19.1.11,3.68-.44,8.12-2.47,10.35-5.27,3.64-4.57,6-10.24,8.45-15.68,2.69-6.12,4.67-12.56,7.18-18.77,2.44-6,4.18-12.3,6.8-18.28,3-6.76,5.23-13.81,8.07-21.45C606.48,406.8,601.18,406.92,595.89,406.74ZM607.22,411a19.85,19.85,0,0,1,.67,3.45,19.85,19.85,0,0,0-.67-3.45c-.13-.41-1-.58-1.64-.82C606.22,410.42,607.09,410.59,607.22,411Zm-1.87-.91c-.08.39-.26.84-.35,1.24.09-.4.27-.85.35-1.24Zm-.34,2a1.13,1.13,0,0,1,0-.64,1.13,1.13,0,0,0,0,.64,31.23,31.23,0,0,0,2.34,3.64h0A31.23,31.23,0,0,1,605,412.09Z"/><path class="cls-3" d="M675.48,425.47c-.12-8.72-6.91-17.15-15-17.63a257.84,257.84,0,0,0-29.29,0c-7.7.42-13.8,6.52-15.21,14.06,5.6.69,11,1.46,16.36,1.93a4.16,4.16,0,0,0,3-1.65c3.61-4.86,12-7.06,17.09-3.76,1.75,1.13,2.94,3.86,3.4,6.07.55,2.63-1.89,3.39-4.07,3.93-1.37.34-2.67,1-4,1.29-7.88,1.91-15.81,3.63-23.64,5.71a13.64,13.64,0,0,0-10.45,13.82c.06,6.36,3.43,10.55,10.53,12.4a38,38,0,0,0,29-3.57c2.72-1.52,3.93-1,4.14,2.08.11,1.68.13,3.05,2.41,3,4.37-.1,8.75-.06,13.12-.07,1.89,0,2.66-.8,2.64-2.82C675.49,448.65,675.65,437.06,675.48,425.47Zm-38.81,27.39c-4.38-2.25-4.54-9.11.16-11.23a82.72,82.72,0,0,1,16.47-5.18c3.9-.85,2.07,2.94,2.69,4.14C656.77,450.87,644.36,456.81,636.67,452.86Z"/><path class="cls-3" d="M829.81,458.42c-.1-1.65,0-3.3,0-5-.09-10,.18-20.1-.38-30.12-.45-8.1-6.77-14.94-14.59-15.47a178.88,178.88,0,0,0-28.91,0c-7.61.72-13.69,5-15.63,14.08,5.9.58,11.5,1.17,17.11,1.63a2.63,2.63,0,0,0,2.06-1c3.31-5.68,8.72-5.82,14.25-5.43a7.08,7.08,0,0,1,6.54,6.33c.58,3.67-2,4.31-4.54,5.06-1.23.37-2.45.8-3.69,1.14-8.44,2.3-17,4.34-25.31,7-6.27,2-8.75,6.23-8.56,12.93.16,5.88,3.1,9.84,9.09,11.6,10.39,3,20.48,2.31,30.06-3,3.13-1.73,4.64-1.13,4.57,2.18,0,2.31.82,2.84,2.88,2.78,3.66-.11,7.33,0,11,0C830.12,463,830.09,463,829.81,458.42Zm-19.3-17.63c-.33,9.11-9.38,15.63-17.73,12.78-2.95-1-4.86-3-5.08-6.1-.25-3.42,1.94-5.62,4.79-6.67,4.62-1.71,9.39-3,14.15-4.3C809.65,435.69,810.65,436.9,810.51,440.79Z"/></svg>