<svg id="Layer_1" data-name="Layer 1" xmlns="http://www.w3.org/2000/svg" viewBox="0 0 1106.13 743.43"><defs><style>.cls-1{fill:#1b3984;}.cls-2{fill:#282320;}.cls-3{fill:#fef403;}.cls-4{fill:#2a2522;}.cls-5{fill:#fdfdfd;}</style></defs><title>bank-papua</title><path class="cls-1" d="M256,240.11c4.53,1.63,9.38,1.64,14,2.75,14.16,3.39,27.11,9.1,37,20.15,14.86,16.64,17.26,35.77,10.2,56.4-6.77,19.81-19.56,35.55-34.61,49.6-23.55,22-51,38-80,51.63-10.72,5-21.65,9.57-32.67,13.89a4.46,4.46,0,0,1-3.93.22c9.39-5,18.53-10,27.44-15.42,23-13.94,44.92-29.33,63.42-49.08,10-10.65,18.7-22.19,23.55-36.17,8.17-23.5.12-42.92-22.21-54-11.5-5.72-23.82-8.38-36.49-9.49-30.15-2.64-59.44,2.4-88.3,10.5-40.65,11.41-78.61,29.06-115,50.22-5.05,2.94-10.06,6-15.15,9-.24-1.29.87-1.45,1.46-1.89,37.08-27.69,76.19-52,118.75-70.42,28.38-12.31,57.65-21.67,88.36-26.13,3.45-.5,7-.18,10.32-1.71Z"/><path class="cls-2" d="M1102.94,451.68c-1.37.43-.39,2.64-2,2.77-1.34.11-3.2.42-3.92-.29-1-1,.27-2.72.38-4.14.14-1.78,1.49-1.32,2.56-1.43s2,.33,3-.37Z"/><path class="cls-1" d="M380,378.74c10.35,5.2,14,13.64,11.21,25.89-3.87,17.35-15.72,27.24-33.44,27.54-13.82.24-27.65.12-41.47.24-2,0-2.57-.41-2.19-2.48q5.06-28,10-56c2.25-12.68,4.59-25.34,6.66-38,.56-3.46,1.51-4.94,5.5-4.81,12.66.41,25.35,0,38,.41,17.16.49,25.53,12.8,20.23,29.24C392.14,367.84,388.81,372,380,378.74Zm-32,36.55v-.16c3.34,0,6.68.08,10,0,10.2-.28,16-6.54,15.71-16.86-.15-5-2.78-8.21-7.74-9-8.34-1.38-16.77-.83-25.17-1-1.31,0-1.76.47-2,1.74q-2,11.56-4.09,23.1c-.3,1.65.07,2.28,1.85,2.23C340.35,415.22,344.15,415.29,348,415.29Zm6.63-43.85c3.72-.21,7.85.16,12-.46,8.47-1.28,11.81-8.5,11.55-15.13-.17-4.31-2.73-6.79-6.9-7.27-7.68-.87-15.39-.47-23.08-.62-1.43,0-2,.46-2.25,1.88q-1.63,9.66-3.45,19.3c-.36,1.88.23,2.41,2.09,2.34C347.73,371.34,351,371.44,354.58,371.44Z"/><path class="cls-1" d="M546.92,398.28c2.2-12.29,4.27-23.8,6.31-35.32,1.7-9.62,3.41-19.24,5-28.87.36-2.19,1.15-3.15,3.53-3a53.73,53.73,0,0,0,9.66,0c3.51-.38,3.68,1.17,3.16,3.91-1.46,7.68-2.76,15.39-4.13,23.09q-6.18,34.8-12.37,69.59c-.83,4.69-.8,4.7-5.73,4.7-3.23,0-6.47-.21-9.67.06-2.6.22-3.51-.9-4.3-3.18-6.91-20-13.95-39.89-21-59.83-.18-.52-.4-1-1-2.47-1,5.3-1.81,9.69-2.59,14.09-2.84,16.07-5.7,32.14-8.45,48.23-.39,2.27-1,3.37-3.65,3.17a107.35,107.35,0,0,0-11.06-.05c-1.8,0-2.26-.31-1.89-2.32,3-16.16,5.73-32.37,8.6-48.55,2.72-15.39,5.54-30.77,8.18-46.18.51-3,1.21-4.76,4.84-4.27a44.56,44.56,0,0,0,9.66,0c2.72-.23,3.77.89,4.6,3.32,6.87,20.11,13.88,40.18,20.85,60.25C545.9,395.63,546.28,396.58,546.92,398.28Z"/><path class="cls-3" d="M178.06,376.18c11.44-8.26,22.21-17.24,29.78-29.4,3.39-5.44,5.92-11.29,5-17.92-1.07-8-6.19-13.14-13-16.8-9.41-5.09-19.68-6.95-30.2-7.7-31.34-2.24-61.27,4.52-90.75,14.23C65.54,323,52.69,328.84,39.8,334.51c-6.48,2.84-12.47,6.79-18.68,10.23a7.08,7.08,0,0,1-3.59,1.16C23,342.52,28.43,339,34,335.8,54.86,323.85,76.23,313,98.66,304.29c23.38-9,47.32-16,72.36-18.22,16.23-1.46,32.46-1.26,48.08,4.49,8.38,3.09,15.92,7.52,20.34,15.66,5.23,9.68,3.31,19.2-1.59,28.35-6.11,11.41-15.4,20-25.46,27.83-8.83,6.88-18.49,12.47-28.13,18.09l-21.2,10.32c-6.25,2.19-12.07,5.57-18.67,6.75l16.38-9.87A143.42,143.42,0,0,0,178.06,376.18Z"/><path class="cls-1" d="M615,384.75l-15.38,16.3c-1.1,1.17-1.18,2.7-1.44,4.15-1.44,8.27-2.91,16.54-4.3,24.82-.3,1.78-1,2.47-2.94,2.4-4.14-.15-8.3-.19-12.43,0-2.39.12-2.64-.79-2.28-2.8,3.08-17.08,6.09-34.18,9.14-51.27,2.64-14.83,5.37-29.64,7.89-44.48.38-2.24,1.16-2.83,3.29-2.76,4,.15,8.06.13,12.09,0,2.15-.06,2.71.44,2.28,2.74-2.4,12.77-4.6,25.57-6.86,38.37-.16.85-.2,1.72-.27,2.28,3.91-3.7,8-7.33,11.85-11.24q14.61-15,29-30.14a6,6,0,0,1,4.82-2c6.56.12,13.12.05,19.86.05-.1,1.61-1.34,2.21-2.15,3-11.4,11.4-22.79,22.8-34.29,34.09-1.68,1.65-2.19,2.9-1.27,5.28,7.17,18.54,14.09,37.17,21.24,55.72,1.06,2.74.54,3.26-2.24,3.15-5.18-.19-10.37-.22-15.55,0-2.86.13-4.14-.71-5-3.58-4.48-14.49-9.25-28.89-13.91-43.32Z"/><path class="cls-1" d="M392.22,432.38c4.85-9.55,9.45-18.66,14.09-27.74,12-23.53,24.1-47,36-70.62,1.1-2.16,2.27-3,4.7-2.91,4.25.2,8.52.1,12.78,0,1.68,0,2.65.19,3,2.29,2.64,16.68,5.43,33.35,8.19,50,2.68,16.19,5.37,32.39,8.12,48.92-6.05,0-11.9,0-17.76,0-1.92,0-1.53-1.49-1.68-2.4-1-5.9-1.91-11.81-2.72-17.73-.27-2-.81-2.88-3.12-2.85-9.79.16-19.58.14-29.37,0a3.39,3.39,0,0,0-3.64,2.3c-2.83,6-5.87,12-8.67,18-.88,1.9-1.86,2.79-4.1,2.7C403,432.25,397.94,432.38,392.22,432.38ZM448.66,355c-6,12.24-11.5,23.69-17.16,35.08-1,2-.37,2.28,1.5,2.26,6.1-.06,12.2-.13,18.3,0,2.33.06,2.64-.78,2.34-2.8C452,378.35,450.39,367.09,448.66,355Z"/><path class="cls-1" d="M1014.8,432.37c6.4-12.56,12.49-24.54,18.59-36.5,10.51-20.58,21.07-41.13,31.49-61.76,1.16-2.31,2.49-3.13,5-3,4.13.21,8.29.15,12.44,0,2-.06,2.83.55,3.16,2.58q7.86,48,15.85,96c.35,2.07,0,2.85-2.3,2.75-4.61-.19-9.22-.13-13.83,0-1.93,0-2.81-.33-3.07-2.53-.71-6.05-1.85-12.05-2.64-18.09-.22-1.73-.75-2.36-2.53-2.34q-15.21.1-30.42,0c-1.71,0-2.36.74-3,2.1-3,6.33-6.15,12.61-9.17,18.93-.6,1.26-1.23,2-2.79,2C1026.18,432.32,1020.78,432.37,1014.8,432.37Zm38.24-40c7.57,0,14.65,0,21.73,0,1.89,0,1.59-1,1.42-2.24-1.33-9.55-2.58-19.11-4-28.64-.26-1.77,0-3.74-1.3-5.69Z"/><path class="cls-1" d="M759.49,432.38l9.27-18.22Q789.23,374.1,809.65,334c1.12-2.2,2.34-3,4.74-2.88,4.25.19,8.52.13,12.78,0,1.81-.05,2.62.43,2.93,2.37,2.81,17.48,5.74,34.95,8.63,52.42,2.4,14.52,4.7,29.05,7.24,43.55.46,2.64-.23,3-2.62,3-4.6-.18-9.21-.11-13.82,0-1.67,0-2.4-.4-2.63-2.21-.73-5.82-1.87-11.59-2.49-17.42-.29-2.67-1.22-3.4-3.84-3.35-9.56.16-19.13.13-28.69,0a3.62,3.62,0,0,0-3.85,2.46c-2.82,6-5.86,12-8.67,18-.83,1.78-1.76,2.61-3.86,2.53C770.36,432.25,765.22,432.38,759.49,432.38ZM816,355c-6.29,12.9-12.15,24.9-18.23,37.34h16c7.42,0,7.48,0,6.51-7.18C818.88,375.43,817.46,365.71,816,355Z"/><path class="cls-1" d="M963.45,331.17c2.24.22,5.92-1.2,7.47.54s-.32,5.15-.78,7.81c-3.34,19.26-6.78,38.5-10.07,57.77a35,35,0,0,0-.3,7.92c.33,5.38,3.52,9.45,8.78,10.66,12,2.76,21.58-2,24.47-15.63,4-18.79,6.9-37.78,10.39-56.66.63-3.39,1.35-6.77,1.81-10.18.24-1.76.94-2.31,2.66-2.27,4.26.1,8.53.14,12.79,0,2.18-.07,2.41.79,2.08,2.66-2.93,16.18-5.76,32.38-8.66,48.56-1.44,8-2.92,16.06-5.13,23.93-5.84,20.87-21.73,29.42-42.26,27.78-4.82-.39-9.65-.85-13.93-3.46-7-4.31-10.59-10.72-11-18.86-.44-8.8,1.13-17.44,2.63-26.06,3-17.1,6.16-34.17,9.05-51.29.45-2.7,1.43-3.5,4-3.25C959.25,331.31,961.11,331.17,963.45,331.17Z"/><path class="cls-1" d="M896.48,331.17c5.91.18,13.29-.32,20.62.75,10.07,1.46,15.23,5.91,17.35,15.82,2.73,12.77-2.19,35.1-20.25,43.45-4.6,2.13-9.52,2.64-14.44,2.87-5.75.26-11.51.26-17.27.18-2,0-2.71.49-3.06,2.57-1.83,11-3.95,21.94-5.77,32.93-.37,2.25-1.24,2.75-3.3,2.68-4.14-.15-8.29-.08-12.43,0-1.62,0-2.34,0-1.94-2.19,3.24-17.74,6.27-35.52,9.4-53.29,2.43-13.8,5-27.57,7.3-41.39.53-3.21,1.44-4.7,5.09-4.46C883.51,331.44,889.28,331.17,896.48,331.17Zm1.39,17.68v-.35c-2.42,0-4.84.14-7.24,0-2-.15-2.74.5-3.07,2.53-1.31,8-2.77,16-4.31,24-.38,2,.47,2.06,2,2,5.28-.14,10.55.11,15.83-.49,9.58-1.1,15.46-7.63,15.38-17.36-.06-5.92-3.07-9.6-8.92-10.28A83.56,83.56,0,0,0,897.87,348.85Z"/><path class="cls-1" d="M696.53,432.38c3.83-21.45,7.63-42.57,11.38-63.69,2-11.2,4-22.4,5.81-33.63.49-3,1.56-4.08,4.8-4,11.16.32,22.34,0,33.5.37,18.18.57,25.72,9.27,23.82,27.38-1.28,12.15-5.93,22.58-16.27,29.89-5.6,4-12,5.06-18.61,5.35-5.75.26-11.51.25-17.27.18-2.05,0-2.93.36-3.31,2.67-1.8,11-4,21.93-5.79,32.92-.34,2-1,2.65-3,2.59C706.64,432.28,701.7,432.38,696.53,432.38Zm35.65-55.24c3.34-.06,6.66-.25,10-.6,9.06-1,15.06-7.38,15.26-16.45.16-7-3.13-10.85-10.1-11.31-5.38-.36-10.8-.13-16.19-.32-1.86-.07-2.25.73-2.51,2.33-1,6.11-2.19,12.19-3.21,18.3-.43,2.55-2.26,6-.83,7.42S729.56,377,732.18,377.14Z"/><path class="cls-1" d="M178.06,376.18a143.42,143.42,0,0,1-17.29,11.51,18.18,18.18,0,0,0-7-4.86c-2.39-.82-1.65-1.7-.52-3,4.27-5,8.12-10.29,10.38-16.57,3.55-9.83.69-17.42-8.58-22.26-9.45-4.92-19.8-5.87-30.18-6-23.78-.36-46.9,4-69.63,10.66a242.69,242.69,0,0,0-44.1,17.54,4,4,0,0,1-3.3.52A204.71,204.71,0,0,1,26.37,352a277.06,277.06,0,0,1,79.1-30.56c16.94-3.64,34-5.77,51.41-3.91,7,.76,13.84,2.22,20.15,5.52,10.45,5.46,13.82,14.54,9.49,25.51-3,7.5-7.83,13.75-13.17,19.67-1.07,1.18-2.17,2.34-3.35,3.61C172.73,373.58,175.75,374.22,178.06,376.18Z"/><path class="cls-2" d="M599.39,456.92c-1.67,3.14-1.84,6.13-2.49,8.95-1.76,7.61-3.43,15.25-4.93,22.92-.62,3.18-2.9,2.08-4.57,2-2.38-.07-1-1.93-.81-2.84,2.6-12.14,5.39-24.23,7.88-36.38.51-2.48,1.39-3.12,3.8-3,5.44.15,5.44,0,6.05,5.37,1,8.8,2,17.6,3,26.4.12,1,.35,2,.66,3.66,4-7.08,7.59-13.57,11.23-20.05q3.81-6.78,7.65-13.52c.83-1.47,6.85-2.66,8-1.6.94.82.05,1.75-.11,2.51-2.32,11-4.75,22-7.15,33a37.16,37.16,0,0,0-.94,4.38c-.17,1.79-1.05,2.14-2.71,2.26-2.78.2-3.26-.65-2.62-3.31,2.07-8.6,3.86-17.27,5.74-25.91.22-1,.33-2,.58-3.6-2.11,1.82-2.79,3.87-3.8,5.64-4.76,8.27-9.51,16.54-14,25-1.31,2.45-3.16,2.36-5.17,2.1-2.28-.28-1.4-2.33-1.57-3.62C601.85,477.32,600.67,467.41,599.39,456.92Z"/><path class="cls-1" d="M163.06,390.81l21.2-10.32c6.59,6.94,6.73,14.71,2.89,23-2.85,6.12-7,11.33-11.46,16.32a172.76,172.76,0,0,1-15.19,14.57c-.91.79-1.79,1.72-3.44,1.33A101.92,101.92,0,0,0,165,410.73C166.1,403.92,166.1,397.22,163.06,390.81Z"/><path class="cls-2" d="M177.58,468.29c3.79,1.9,5.91,4.59,5.41,8.6a14.63,14.63,0,0,1-8.55,12.1c-3.29,1.56-6.89,1.76-10.45,1.86-4.37.14-8.75-.09-13.12.09-2.37.1-2.61-.66-2.13-2.77q4.2-18.45,8.11-37c.41-1.91,1-2.73,3.06-2.65,4.82.18,9.66,0,14.49.11,5.8.13,9.22,2.14,10.29,5.85,1.29,4.47-.59,9.17-4.91,12.3C179.15,467.25,178.5,467.67,177.58,468.29Zm-15,17.28c1.95,0,3.91.12,5.85,0a8.93,8.93,0,0,0,7.21-4.1c3.2-4.95,1-9.46-4.84-9.88-2-.14-3.9-.15-5.86-.16-6.85,0-6.86,0-8.32,6.68C155,485.66,155,485.66,162.62,485.57Zm-3.35-19.3c5-.22,9.74.51,14.37-.58a7.21,7.21,0,0,0,5.65-7.88c-.54-3.92-3.63-3.94-6.51-4.06s-5.74.1-8.6-.08c-1.77-.11-2.38.62-2.68,2.2C160.85,459.23,160.07,462.56,159.27,466.27Z"/><path class="cls-2" d="M971.46,448.92c-2.92,13.33-5.87,26.64-8.74,40-.28,1.31-.62,2.13-2.14,2-2-.14-3.92.53-5.08-2.2-3.67-8.66-7.66-17.2-11.52-25.78a11.69,11.69,0,0,0-2.49-3.91q-2.25,10.13-4.48,20.25a87,87,0,0,0-1.9,9.1c-.37,3.36-2.71,2.68-4.57,2.44-2.39-.3-1-2.21-.77-3.24,2.53-11.9,5.18-23.78,7.83-35.66.31-1.42-.17-3.39,2.44-3.35,2.35,0,4.17-.06,5.38,2.82,3.8,9.1,8,18,12.1,27,.32.71.68,1.41,1.39,2.86,2-9.26,3.9-17.79,5.78-26.31.14-.67.28-1.35.43-2C966.14,448.2,966.14,448.2,971.46,448.92Z"/><path class="cls-4" d="M329.61,464.53c3.37-3.2,6.82-5.35,11.31-5,4.95.38,7.49,3.19,6.63,8-1.28,7.23-3,14.39-4.45,21.58-.61,2.95-2.93,1.75-4.46,1.65-2-.14-.77-1.75-.58-2.66,1.23-6.19,2.69-12.34,3.8-18.55.76-4.27-1.61-6.32-5.81-5.28a9.16,9.16,0,0,0-7,7.29c-1.34,5.58-2.55,11.19-3.81,16.79a3.53,3.53,0,0,1-4.84,2.49c-1.5-.65-.62-1.8-.44-2.66,1.15-5.5,2.49-11,3.57-16.49.48-2.48,1.64-5.34-1.36-7.15-2.12-1.29-6.23-.1-8.49,2.21a12.53,12.53,0,0,0-3.06,6.08c-1.2,5.14-2.57,10.26-3.38,15.47-.52,3.29-2.65,2.79-4.54,2.49-2.44-.38-.82-2.15-.6-3.22q2.49-12.13,5.21-24.23c.27-1.18-.2-3.15,1.79-3.21,1.37,0,3.55-1.17,3.57,2,0,1.14,1.33.15,1.86-.21a13,13,0,0,1,7.06-2.45C325.18,459.37,328.2,460.38,329.61,464.53Zm-17-1.53-.22-.24a2.44,2.44,0,0,0-.21.43c0,.06.12.15.19.22Z"/><path class="cls-4" d="M677.61,463.17c6.61-3.2,12.72-7,18,1.06,2.29-1.93,4.78-3.94,8.09-4.56,7-1.29,10.77,2.38,9.4,9.28-1.29,6.54-2.91,13-4,19.59-.54,3.14-2.58,2.44-4.34,2.3-2.72-.23-1-2.09-.76-3.09,1.19-6.1,2.58-12.15,3.82-18.23.77-3.74-1.11-5.72-4.92-5.38-4.27.38-7.22,3.39-8.47,8.76s-2.55,10.5-3.44,15.82c-.55,3.31-2.83,2.22-4.44,2.06-2.18-.22-.82-1.87-.61-2.9,1.21-6,2.59-11.9,3.69-17.89.93-5-1.79-7.06-6.68-5.38-4.12,1.43-5.7,4.78-6.62,8.58-1.23,5.14-2.46,10.29-3.38,15.49-.56,3.16-2.79,2.32-4.48,2.12-2.12-.26-.88-1.9-.66-2.94q2.61-12.48,5.36-24.94c.29-1.31.14-3.09,2.51-2.9C677.49,460.17,679.4,459.82,677.61,463.17Z"/><path class="cls-2" d="M1029.42,463.21c.82-1.25.26-3.27,2.63-3.18,2,.07,3.39-.23,2.61,2.87-2.39,9.44-4.07,19.07-6.55,28.49s-12.49,14.22-21.56,10.83c-2.29-.86-4.12-2.21-4.57-4.69-.26-1.42-1.13-3.7.92-4.07,1.41-.26,4-.58,4.44,2.37.35,2.17,2.36,2.63,4.22,2.84,7.06.79,11.71-3.51,11.83-11.11a16.56,16.56,0,0,1-7.2,3.17,9.61,9.61,0,0,1-11.14-7c-2.58-8.64,3.41-20.45,11.89-23.43C1021.84,458.57,1025.5,459.38,1029.42,463.21Zm-19.48,15.66c-.12,5.18,2.75,8,7.48,7.37a9.87,9.87,0,0,0,7.36-5.15,20.37,20.37,0,0,0,2.64-8.49c.36-3.29-.13-6.41-3.42-8s-6.3-.54-8.91,1.75C1011.24,469.74,1010.39,474.37,1009.94,478.87Z"/><path class="cls-2" d="M840,463.32c.73-1.5.33-3.33,2.68-3.31s3.26.05,2.54,2.94c-2.36,9.46-4.06,19.09-6.55,28.51A16.18,16.18,0,0,1,817,502.19c-2.84-1.08-4.67-2.94-4.69-6.1,0-1-.52-2.73,1.17-2.72,1.33,0,3.59-.22,3.92,1.25.86,3.81,3.5,4.11,6.51,4.1,3.59,0,6.52-1.34,8.34-4.54a12.87,12.87,0,0,0,1.84-6.55c-2.41,1.29-4.55,2.67-7.13,3.07-5.32.83-9.7-1.72-11.31-6.75-2.73-8.57,3.12-20.47,11.61-23.53C832,458.72,836.29,459,840,463.32Zm-1.94,8.5c.07-3.09-.6-5.52-3-7s-5.07-1.15-7.54.23c-4.9,2.72-8.46,12-6.57,17.28a5.55,5.55,0,0,0,5.15,3.92c4.3.3,7.26-1.86,9.34-5.33A20.41,20.41,0,0,0,838,471.82Z"/><path class="cls-2" d="M402.39,490.89c-2,.41-2.49-.39-2-2.62,2.83-12.43,5.55-24.88,8.25-37.34.29-1.31.36-2.41,2.19-2.36,6.33.15,12.68-.1,19,.32,7.42.5,10.7,5.66,8.61,12.77-2.23,7.6-7.93,11.76-16.56,12-3.45.1-6.91.11-10.36,0-1.74-.06-2.43.59-2.76,2.25C408,480,407,484,406.12,488,405.48,490.93,405.47,490.92,402.39,490.89Zm19.17-37.12v0c-2,0-3.91,0-5.87,0-1.29-.05-2.09.15-2.38,1.69-.7,3.71-1.59,7.4-2.44,11.08-.34,1.48.08,2.1,1.68,2.05,3.91-.12,7.83.05,11.73-.2,4.49-.29,7.42-3,8.49-7.26,1-4-.93-6.9-5-7.25C425.71,453.62,423.63,453.77,421.56,453.77Z"/><path class="cls-2" d="M728.43,462.27c1.11-.59,2.19-1.26,3.34-1.76,7.33-3.15,14.15.67,14.57,8.58.45,8.44-2.48,15.62-10,20.28-5.29,3.3-10.37,2.68-14.43-1.52-1,.59-.35,2-1.06,2.56-1.18,1-2.73.67-4,.35-1.5-.39-.5-1.81-.33-2.63,2.64-12.34,5.41-24.66,8-37,.36-1.7.81-2.56,2.8-2.61,2.57-.06,3.19.6,2.47,3.13-.95,3.3-1.5,6.71-2.21,10.07-.16.37-.31.77.12,1C727.91,462.79,728.22,462.44,728.43,462.27Zm6,1.67c-2.87.11-5.32,1.89-7.21,4.5a19.87,19.87,0,0,0-3.42,10.31c-.25,3.11-.07,6.17,3.2,7.68s6.14.49,8.55-1.77c4.62-4.34,6-9.9,5.21-16C740.3,465.54,738.15,463.94,734.39,463.94Z"/><path class="cls-2" d="M482.48,463.34a13.44,13.44,0,0,1,6.95-3.68c6.86-1.18,11.81,2.84,12,9.77.24,7.45-2.14,13.83-8,18.59-5.25,4.27-10.83,4.37-16.26.47a49.68,49.68,0,0,0-2.66,11.31c-.48,3.33-2.61,2.75-4.5,2.51-2.55-.32-.9-2.2-.69-3.19,2.56-12.13,5.36-24.21,7.82-36.35.51-2.52,1.65-2.76,3.72-2.74C484.08,460.06,481.22,462.41,482.48,463.34Zm13.62,8.35c.22-3.07-.29-6-3.29-7.37s-6-.3-8.54,1.91c-3.71,3.25-4.87,7.66-5.51,12.25-.43,3.1,0,6.11,3.07,7.79s5.81.77,8.33-1.19C494.52,481.69,495.59,476.8,496.1,471.69Z"/><path class="cls-4" d="M557.15,487.09c-5,3.48-9.59,4.89-14.76,4.07-4.69-.74-7-4.1-5.79-8.67,1.31-5,5-7.58,9.74-8.66,3.69-.84,7.45-1.38,11.21-1.85,1.87-.24,2.91-.83,3-2.88s-.13-3.59-2.19-4.53a10.35,10.35,0,0,0-11.81,3c-.58.76-.66,2.17-2,2s-2.87-.13-3.55-.88.51-2,1.12-2.93c4-5.88,15.56-8.38,21.54-4.68,2.81,1.74,3,4.43,2.45,7.3-1.09,5.52-2.25,11-3.36,16.54a9.87,9.87,0,0,1-.38,2.37c-.58,1.17,2,3.41-1.25,3.62C558.82,491.05,556.52,491.25,557.15,487.09Zm1.6-11.23L553.07,477c-2.47.51-5,.57-7.4,1.58s-3.91,3-3.44,5.71,3,3,5.15,2.94C552.73,487.18,558.68,483.73,558.75,475.86Z"/><path class="cls-4" d="M768.89,487.53c-4.15,2.74-8.56,4.38-13.63,3.71-5.76-.76-8.25-5.12-5.82-10.46,2.32-5.08,6.83-6.77,11.92-7.53,2.83-.43,5.65-1.06,8.5-1.26,2.25-.17,2.94-1.37,3.12-3.28a3.65,3.65,0,0,0-2.33-4.13c-3.85-1.73-9.52-.56-11.71,3-1.26,2-2.5,2.14-4.5,1.67-1.44-.34-1.61-.68-1-2,3.22-7,16.84-10.49,23-5.84,2.49,1.88,2.46,4.48,1.93,7.19l-3.42,17.2a5.79,5.79,0,0,1-.27,1.34c-.59,1.22,2,3.62-1.47,3.78C770.11,491.07,769.9,491,768.89,487.53Zm2.1-11.65c-2.36.45-4.68.89-7,1.35-2.12.42-4.35.47-6.32,1.46-2.36,1.19-3.8,3.05-3.19,5.8.59,2.6,2.91,2.7,4.94,2.75C766,487.41,770.61,482.83,771,475.88Z"/><path class="cls-4" d="M442.63,468.75c3.46-8.14,15.37-12.14,22.86-7.79,2.55,1.48,3.17,3.86,2.67,6.54-.89,4.85-2,9.66-2.91,14.5-.35,1.8-.43,3.65-.83,5.43-.27,1.22,1.72,3.39-1.48,3.5-2.39.08-4.53.18-3.77-3.74-4.49,2.89-8.65,4.58-13.44,4.14-3-.28-5.76-1-7-4.12s-.32-5.89,1.53-8.42c2.71-3.71,6.7-5,11-5.57,2.84-.39,5.66-1,8.51-1.3,1.79-.2,2.67-1,2.8-2.78s0-3.4-1.88-4.41c-3.31-1.81-9.72-1-11.6,2.27C447.4,470,445.45,469.83,442.63,468.75Zm18.49,7c-2.4.5-4.4.95-6.41,1.36a62.81,62.81,0,0,0-6.42,1.27c-2.79.85-4.74,2.8-4.15,5.87s3.38,3.09,5.82,2.95C456.11,486.84,459.36,483.52,461.12,475.74Z"/><path class="cls-4" d="M354.46,468.7c3.41-8.06,15.37-12.06,22.72-7.78a5.68,5.68,0,0,1,2.83,6.49c-1.08,5.53-2.24,11-3.34,16.56a17.63,17.63,0,0,1-.5,3.4c-.48,1.17,1.94,3.42-1.38,3.56-2.44.11-4.47.05-4-3.74-4.59,3.17-9.14,4.76-14.32,4s-7.79-4.75-5.87-9.74c2.14-5.54,6.83-7.41,12.2-8.22,2.84-.43,5.67-.91,8.52-1.31,1.55-.22,2.92-.38,3-2.52,0-1.91.2-3.63-1.88-4.71-3.25-1.71-9.51-.94-11.38,2.11S357.32,470,354.46,468.7Zm18.39,7c-4.66,1-9,1.72-13.31,2.88a4.71,4.71,0,0,0-3.58,5.55c.46,3,3.08,3.17,5.37,3.08C366.48,487,371.81,484.33,372.85,475.72Z"/><path class="cls-4" d="M272.72,468.7a17.42,17.42,0,0,1,22.13-8.11c3.21,1.43,4,4,3.46,7.07-.94,5.19-2.1,10.34-3.12,15.52-.28,1.46-.35,3-.6,4.43-.22,1.26,1.36,3.35-1.75,3.35-2.42,0-4.19-.22-3.53-3.89-4.6,3.25-9.14,4.87-14.31,4.16-5.47-.76-8-4.78-5.9-9.94,2.19-5.5,6.92-7.27,12.27-8.06,2.84-.41,5.67-.89,8.5-1.33,1.38-.21,2.8-.24,2.83-2.25,0-1.84.41-3.64-1.65-4.83-3.2-1.85-9.79-1.11-11.65,2.05S275.57,469.86,272.72,468.7ZM291,475.84l-4,.74c-2.81.56-5.66,1-8.42,1.71s-4.81,2.78-4.35,5.76c.5,3.25,3.42,3.32,6,3.13C286.63,486.71,290.23,482.91,291,475.84Z"/><path class="cls-2" d="M998.92,481.83c-4.09,7.67-11.13,11-19.31,9.16a9.13,9.13,0,0,1-7.19-6.69c-2.59-9.3,3.64-21,12.74-24,4.46-1.45,8.92-1.49,12.7,1.76s3.73,7.83,3.08,12.42c-.27,1.86-1.11,2.36-2.94,2.32-5.86-.12-11.73.1-17.58-.11-2.42-.09-3,.93-2.91,2.94.08,3.09,1,5.76,4.16,6.86,3.71,1.28,7.32.59,9.72-2.45C993.52,481.36,995.57,480.12,998.92,481.83Zm-19.76-9.37h13c3.92,0,4.85-1.5,3.18-5.14a5.53,5.53,0,0,0-4.83-3.32C985.26,463.46,981.06,466.47,979.16,472.46Z"/><path class="cls-2" d="M215.06,481.64c-3.78,7.82-12,11.6-19.93,9.22a9.41,9.41,0,0,1-6.59-6.49c-3.3-10.41,5.17-23.58,16-24.78,10-1.1,14.71,6.19,12.25,15.85-.46,1.77-1.61,1.31-2.64,1.32-6,0-12,.1-17.94,0-1.95,0-2.6.54-2.6,2.45,0,3.23.8,5.94,4,7.31s7.3.36,10.09-2.5S210.64,481,215.06,481.64Zm-19.67-9.18c5,0,9.85,0,14.76,0,1,0,1.65-.09,1.83-1.39a6,6,0,0,0-5.36-7.07C201.31,463.41,196.75,466.78,195.39,472.46Z"/><path class="cls-2" d="M662.37,481.71a16.4,16.4,0,0,1-20.32,9,9.35,9.35,0,0,1-6.12-6.49c-3.09-10.38,5.24-23.26,15.9-24.57,8.72-1.07,15.08,4.56,12.46,15.71-.38,1.61-1.44,1.47-2.6,1.47-5.86,0-11.73.12-17.59-.06-2.4-.08-3.24.58-3.09,3,.18,3,1,5.42,3.92,6.7a9.3,9.3,0,0,0,10.13-2.34C658.2,480.91,658.2,480.91,662.37,481.71Zm-19.64-9.25c5,0,9.86,0,14.76,0,1.56,0,2-.61,2-2a6,6,0,0,0-6-6.5C648.37,463.71,644.37,466.81,642.73,472.46Z"/><path class="cls-2" d="M1064.31,481.66c-3.93,7.84-11.76,11.47-19.75,9.23a9.35,9.35,0,0,1-6.8-6.71c-3-9.83,4.8-22.6,14.88-24.43s16.68,5.9,13.52,15.66c-.53,1.63-1.62,1.35-2.71,1.36-5.88,0-11.76.13-17.63-.06-2.53-.08-3.19.87-3,3.17.21,3,1.16,5.38,4.11,6.6A9.21,9.21,0,0,0,1057,484C1059.88,480.94,1059.88,480.94,1064.31,481.66Zm-19.85-9.2h13.08c4,0,4.92-1.49,3.11-5.18a5.64,5.64,0,0,0-4.9-3.29C1050.56,463.52,1046.54,466.42,1044.46,472.46Z"/><path class="cls-4" d="M249.67,491.4c-6.59-.21-9.7-2.46-10.4-7.34-.26-1.84,0-2.77,2.16-2.79,1.49,0,3-1.35,3.37,1.57.42,3.7,3.39,4.19,6.47,4.17,3.84,0,6.84-1.73,7.53-4.29.51-1.86-.09-3.16-2-3.74-2.84-.87-5.72-1.67-8.55-2.6-5.73-1.89-7.22-6.75-3.64-11.68,3.73-5.13,13.36-6.94,18.81-3.55a5.25,5.25,0,0,1,2.7,3.79c.11,1.07,1.43,3.06-1,3.26-1.5.13-3.65,2.17-4.46-1.47-.67-3.1-3.77-2.82-6.33-2.76s-4.91.71-5.95,3.28c-.85,2.09.48,3.23,2.35,3.82,2.95.94,6,1.75,8.86,2.81,5.2,1.88,6.55,5.77,3.84,10.65C261,489,255.72,491.59,249.67,491.4Z"/><path class="cls-4" d="M890.67,463.46c2.61-2,5.43-3.69,8.88-4,7.11-.57,10.63,3.26,9.23,10.24-1.26,6.3-2.81,12.55-3.91,18.88-.55,3.15-2.69,2.38-4.4,2.21-2.68-.26-.86-2.18-.69-3.13,1.11-5.86,2.5-11.68,3.66-17.53.78-4-1.22-6.19-5.27-6.05-4.4.16-7.7,2.69-9,7.63a168.78,168.78,0,0,0-3.82,16.77c-.53,3.17-2.55,2.46-4.3,2.33-2.67-.21-1-2-.8-3.07,1.73-8.32,3.65-16.6,5.28-24.93.45-2.33,1.4-3,3.64-2.82C892.09,460.21,889.81,462.35,890.67,463.46Z"/><path class="cls-4" d="M792.77,463.45c3.62-3.1,7.58-4.62,12.2-3.74s6.85,3.5,6.1,8c-1.2,7.24-2.9,14.41-4.45,21.6-.57,2.65-2.81,1.49-4.27,1.46-2.09-.05-.94-1.73-.76-2.62,1.2-6,2.59-11.9,3.77-17.87.86-4.35-1.32-6.64-5.77-6.15a9.29,9.29,0,0,0-8.49,7.43c-1.38,5.34-2.63,10.72-3.62,16.14-.47,2.57-1.51,3.49-4.07,3.21-1.48-.16-2-.39-1.66-2q3.09-13.62,6-27.28c.51-2.38,2.27-1.54,3.56-1.51C793.89,460.17,791.76,462.32,792.77,463.45Z"/><path class="cls-4" d="M866.78,487.43a13.88,13.88,0,0,1-12.4,3.7c-3.72-.71-6-3-5.81-6.56.48-7.94,3-15.54,4.6-23.28.48-2.3,2.73-1.16,4.11-1.13,2.08,0,.93,1.75.76,2.6-1.15,5.86-2.51,11.67-3.66,17.53-1,5,1.62,7.47,6.65,6.32a9.57,9.57,0,0,0,7.58-7.62c1.29-5.35,2.37-10.76,3.65-16.11.28-1.16,0-2.76,2.18-2.87,3.49-.17,3.79,0,3,3.37-1.82,8.3-3.76,16.58-5.4,24.91-.45,2.27-1.43,2.67-3.46,2.66C865.6,490.93,867.89,488.65,866.78,487.43Z"/><path class="cls-4" d="M523.23,488A13.82,13.82,0,0,1,512,491.21c-4.62-.74-7.07-3.21-6.36-7.76,1.15-7.37,2.88-14.65,4.47-21.94.58-2.66,2.88-1.38,4.31-1.33,2,.07.8,1.81.64,2.64-1.12,5.63-2.43,11.23-3.62,16.85s1.7,8.42,7.35,6.74a9.46,9.46,0,0,0,6.78-7.17c1.24-4.9,2.47-9.81,3.33-14.79.61-3.58,1.9-5.5,6.18-4-1.62,7.52-3.28,15.19-4.94,22.87q-.64,3-1.33,6.06c-.5,2.23-2.32,1.39-3.66,1.44-1.87.08-1-1.33-1-2.22C524.4,487.66,524.08,487.48,523.23,488Z"/><path class="cls-4" d="M231.3,462.93c2.51-2.31,5.12-4.46,8.87-3,.92.36,2.81.47,2,2-.73,1.37-.64,3.87-3.39,3.54-5.63-.68-8.16,1.05-9.71,7-1.35,5.22-2.38,10.53-3.57,15.8a3.48,3.48,0,0,1-4.86,2.57c-1-.33-.82-.89-.67-1.6,2-9.31,4.05-18.64,6.13-27.94.51-2.29,2.46-1.16,3.74-1.2,1.94-.06.75,1.4.82,2.25-.17.38-.33.78.1,1.08C230.77,463.51,231.1,463.13,231.3,462.93Z"/><path class="cls-4" d="M1079.89,462.68c1.3.23,1.81-.86,2.6-1.46,1.71-1.29,3.59-2.14,5.76-1.6,1.33.34,3.25.28,3.35,2.16s-2.69,3.78-4.61,3.42c-3.3-.61-5.73.72-7.44,4.12-2,3.95-2.34,8.36-3.51,12.54a30.12,30.12,0,0,0-1.3,6.38c-.16,2.7-1.7,2.7-3.71,2.7-1.8,0-2.15-.63-1.79-2.26,2-8.82,4-17.63,5.81-26.5.53-2.69,2.2-2.07,3.81-2.09C1081.29,460.06,1079.3,461.93,1079.89,462.68Z"/><path class="cls-4" d="M1091.53,490.8c-2.75.56-3-.49-2.47-2.77,2-8.58,3.92-17.18,5.61-25.82.63-3.2,2.87-2.19,4.5-2,2.09.2.88,1.94.68,2.93-1.78,8.39-3.66,16.77-5.47,25.16C1094,490,1093.74,491.63,1091.53,490.8Z"/><path class="cls-5" d="M312.62,463l-.24.41c-.07-.07-.2-.16-.19-.22a2.44,2.44,0,0,1,.21-.43Z"/><path class="cls-5" d="M728.43,462.27c-.21.17-.52.52-.6.47-.43-.25-.28-.65-.12-1Z"/><path class="cls-5" d="M523.23,488c.85-.48,1.17-.3.88.68C523.81,488.42,523.52,488.19,523.23,488Z"/><path class="cls-5" d="M231.3,462.93c-.2.2-.53.58-.56.55-.43-.3-.27-.7-.1-1.08Z"/></svg>