<svg id="Layer_1" data-name="Layer 1" xmlns="http://www.w3.org/2000/svg" viewBox="0 0 1106.13 743.43"><defs><style>.cls-1{fill:#0096b8;}.cls-2{fill:#005675;}.cls-3{fill:#0bbbef;}.cls-4{fill:#007290;}.cls-5{fill:#81b73e;}.cls-6{fill:#69931d;}.cls-7{fill:#277933;}.cls-8{fill:#aecc53;}.cls-9{fill:#e4032e;}.cls-10{fill:#b51227;}.cls-11{fill:#791b15;}.cls-12{fill:#ea5160;}</style></defs><title>bank-permata</title><path d="M638.34,476c-.11-10.58-3.93-18.06-11.56-22.25A32.56,32.56,0,0,0,618,451a65.54,65.54,0,0,0-11.68-1H591v53H606.3c11.11,0,19.23-2,24.23-6.38a19.69,19.69,0,0,0,5.8-8.47,35.12,35.12,0,0,0,2-12.19M591,400.81v45.4H606.9c18.54-.11,28.15-7.81,28.25-23.23.13-15-10-22.28-29.61-22.17Zm-12.58,95c.09-1.7.19-4.43.28-8.15V416.13l-.24-6.95c0-1.47-.12-2.47-.2-3a6.47,6.47,0,0,0-.35-1.47,5.86,5.86,0,0,0-3.51-3.77,20.32,20.32,0,0,0-7.25-1.05v-2.42l40.86,0a104.15,104.15,0,0,1,16.09,1.18,45.58,45.58,0,0,1,11.6,3.17c8.53,4.05,12.76,10.87,12.71,20.56.1,13.88-9,22.72-27.9,25l-3.16.51c4.24.15,10,1.56,12.66,2.18a33,33,0,0,1,7.79,2.91c10,5,15,13.08,14.85,24.22,0,13.52-6.53,22.3-19.91,26.45a66.93,66.93,0,0,1-11,2,137.79,137.79,0,0,1-14.48.74h-40.1v-2.44c4.73-.06,8-.78,9.41-2.47a5.11,5.11,0,0,0,1.3-1.93,13.26,13.26,0,0,0,.56-3.69"/><path d="M672.54,486.49c.05,5,1.26,9,3.66,12a12,12,0,0,0,9.69,4.7A23.6,23.6,0,0,0,697.4,500a23.18,23.18,0,0,0,8.46-8.22,25.24,25.24,0,0,0,2.73-8.37,77.45,77.45,0,0,0,.84-12.59v-7.8a142.9,142.9,0,0,0-16.27,2.13A39.59,39.59,0,0,0,683,468.65c-7,3.45-10.45,9.44-10.5,17.84m38.55,16.75c-.82-1.64-1.41-3.59-1.66-8.58l-.07-1.47-1,1.11a39.77,39.77,0,0,1-3.43,3.44c-1.14,1-2.45,2-3.91,3a33.17,33.17,0,0,1-9.31,5,31.67,31.67,0,0,1-10.08,1.4c-6.52,0-11.52-1.52-15.1-4.56a18.72,18.72,0,0,1-4.72-6.79,23.16,23.16,0,0,1-1.75-8.85c.07-11.65,7.22-19.16,21.85-22.49q5.8-1.36,12.26-2.21t14.68-1.43l.56-10.16a56.16,56.16,0,0,0-.5-8.43,19.23,19.23,0,0,0-1.69-5.66c-2.17-4.23-6.6-6.26-13-6.26-10.26-.06-15.82,4.83-16.4,14.54a13.41,13.41,0,0,1-.41,3.28,2.61,2.61,0,0,1-1,1.42,9.22,9.22,0,0,1-5,1.11c-5,.07-6.92-1.42-6.84-3.94a13.23,13.23,0,0,1,2.66-7.63,22.78,22.78,0,0,1,7.36-6.43q8.52-4.73,21.88-4.79c9.76,0,16.31,2.24,19.88,6.47a17.09,17.09,0,0,1,3.22,6.64,40.62,40.62,0,0,1,1,10.13l0,.86-.07,4-.22,10.49-.15,14.43-.15,7c0,3.29.15,5.8.38,8.6s1.2,5.79,3.39,6.59,4.47,1.18,8.65,1.2a19.64,19.64,0,0,0,7-1.09c1.82-.77,3-2.42,3.44-4.76a53.28,53.28,0,0,0,.62-10.39V447.28c.1-5.55-.54-9.45-2.12-11.49S737,433,733.09,433v-2.17l21.72-1.57v17.3l1.14-2q4.81-8.58,10.92-12.2c4.06-2.43,9.15-3.65,15.27-3.58,9.22-.13,15.63,2.95,19.39,9.12a20.83,20.83,0,0,1,3,7.48,55,55,0,0,1,.88,11.18V488a56,56,0,0,0,.59,10.46c.47,2.34,1.57,4,3.41,4.72,1.52.64,5,1,8,1.05a18.34,18.34,0,0,0,6.5-1.08c1.77-.78,2.86-2.43,3.31-4.76a55.74,55.74,0,0,0,.58-10.39V414a47.47,47.47,0,0,0-.54-9.41A5.25,5.25,0,0,0,824,400.4a22.73,22.73,0,0,0-6.92-.81v-2.16l22.59-1.16c-.28,5-.5,10.15-.65,15.4q-.21,8.2-.22,14.34v49.7l24.89-27.27c3.52-3.9,5.45-7.18,5.48-9.81.18-3.65-3.51-5.3-9.57-5.6v-2.16h32.35v2.19a22.19,22.19,0,0,0-9.87,3.36q-2.49,1.51-4.19,2.77a37,37,0,0,0-4.05,3.66c-1.56,1.59-3.82,4-6.78,7.2l-8.22,8.85,21.51,33.83c2.45,4,4.71,6.84,6.79,8.45a15.94,15.94,0,0,0,7.55,3v2.21H875c-.54-1.09-1.29-2.52-2.24-4.27l-3.13-5.71-2.39-4.3-15.91-25.94-12.52,14,0,7.83a54.63,54.63,0,0,0,.59,10.39c.46,2.34,1.55,4,3.36,4.76a19.31,19.31,0,0,0,7,1.09v2.14H783.21v-2.14c4.5-.12,7.6-.85,8.83-2.5a7,7,0,0,0,1.14-2.18,12.9,12.9,0,0,0,.5-3.16c.09-1,.18-2.49.28-4.41s.17-3.27.18-4V457.45c0-7.53-.78-13.11-2.48-16.66-2.6-5.58-7.28-8.37-13.91-8.4-7.41,0-13.31,3.5-17.68,10.46a33.56,33.56,0,0,0-3.85,9,37.58,37.58,0,0,0-1.41,9.87V488a56,56,0,0,0,.59,10.46c.47,2.34,1.57,4,3.41,4.72a20.2,20.2,0,0,0,7.09,1.06v2.14H733.2c-2.9.1-8.43.25-11.17.21s-4.25-.34-6.87-.54c-2.32-.68-3.3-1.28-4.07-2.81"/><path d="M32.8,456.29h7q12.61,0,18.57-6a22.24,22.24,0,0,0,4.92-9A44.6,44.6,0,0,0,65,428.62q-.08-26.91-23.56-26.94H32.8Zm0,4.22V487.6a39.78,39.78,0,0,0,.75,9.68,5.68,5.68,0,0,0,3.62,4.18,27.75,27.75,0,0,0,8.56,1.13v3.79H3.18v-3.79a24.66,24.66,0,0,0,8.05-1.13,5.55,5.55,0,0,0,3.38-4.18,42.09,42.09,0,0,0,.69-9.68V416.38a43.53,43.53,0,0,0-.67-9.68,5.58,5.58,0,0,0-3.24-4.22,23,23,0,0,0-7.67-1.24v-3.79H44.24q20.49-.07,30,7.23t9.43,23.07q.07,22.13-17.23,29A52.67,52.67,0,0,1,55,459.49a111.38,111.38,0,0,1-15.55,1Z"/><path d="M102.82,460.88h31q-.18-6.72-.71-10.82a36.19,36.19,0,0,0-1.66-7.33q-3.93-11.43-12-11.33-9.12.09-13.6,12.78a48,48,0,0,0-1.84,7.21,95.48,95.48,0,0,0-1.1,9.49m49.36,4.2h-49.5a92,92,0,0,0,.93,13.29,42.16,42.16,0,0,0,2.71,9.79q6.18,14.38,19.06,14.38a22.49,22.49,0,0,0,13.24-4.3A32.23,32.23,0,0,0,148.49,486l3.51,2.32q-5.17,10.29-12.63,15.12t-18.2,4.77c-11.26-.15-21.63-3.75-28.11-10.8s-9.81-16.72-9.94-29q.19-18.53,9.6-29.32c6.27-7.2,16.27-10.87,27.05-11,7.17,0,14.1,1.65,19,4.9a28.31,28.31,0,0,1,10.88,14.26,35.64,35.64,0,0,1,1.73,7.13,94.71,94.71,0,0,1,.79,10.72"/><path d="M155.35,430.14l27.45-1.89c.15,2.74.26,5,.33,6.89s.11,3.51.11,4.94v4.38q9-16.36,21.61-16.5a13.16,13.16,0,0,1,8.89,3.18,10.54,10.54,0,0,1,3.53,7.92,8.18,8.18,0,0,1-3,6.42,11.62,11.62,0,0,1-7.56,2.48c-3.75.12-6-1.43-6.86-4.67a12,12,0,0,0-1.68-4.09,3,3,0,0,0-2.56-1h-.29c-2.87.25-5.59,2.53-8.18,6.88a27.69,27.69,0,0,0-2.62,7.16,41.5,41.5,0,0,0-.88,9.05v27a43,43,0,0,0,.63,9.53,5.18,5.18,0,0,0,3.22,4,25.56,25.56,0,0,0,7.83,1.06v3.5h-40.6v-3.5a20.29,20.29,0,0,0,7.36-1,5.32,5.32,0,0,0,3.1-4.1,44.49,44.49,0,0,0,.65-9.53V447.81q.19-9-1.81-11.73c-1.34-1.8-4.25-2.62-8.71-2.43Z"/><path d="M249.89,428.25l.14,14.46q8.88-14.61,25.42-14.75,16.82-.1,20.73,15.34,4.76-8,10.86-11.67A26.47,26.47,0,0,1,321.3,428q12.88.06,19,8.46a20.1,20.1,0,0,1,3.39,7.78,56,56,0,0,1,1,11.95v32.13a43.82,43.82,0,0,0,.64,9.52,5.32,5.32,0,0,0,3.1,4.11,20.14,20.14,0,0,0,7.36,1v3.51H316.19v-3.51a18.51,18.51,0,0,0,7-1,5.28,5.28,0,0,0,3-4.11,44.61,44.61,0,0,0,.63-9.52v-32q.06-11.51-2.83-16.61t-9.29-5q-7.71-.15-13,8a25.84,25.84,0,0,0-4.53,14.75v30.82a45.29,45.29,0,0,0,.63,9.52,5.34,5.34,0,0,0,3,4.11,19.06,19.06,0,0,0,7.15,1v3.51H268.87v-3.51a18.6,18.6,0,0,0,7.05-1,5.32,5.32,0,0,0,3-4.11,45.44,45.44,0,0,0,.62-9.52V456.15q.11-21.7-11.83-21.47c-4.95.17-9.11,2.53-12.45,7s-5.09,10.16-5.22,16.91v29.65a45.7,45.7,0,0,0,.63,9.59,5.26,5.26,0,0,0,3,4.08,19.39,19.39,0,0,0,7.05.92v3.51H221.11v-3.51a21,21,0,0,0,7.36-.92,5.27,5.27,0,0,0,3.1-4.08,44.21,44.21,0,0,0,.64-9.59v-40.6q.24-8.93-1.79-11.56c-1.34-1.77-4.34-2.58-9-2.47v-3.51Z"/><path d="M459.6,434.93v48.78a74,74,0,0,0,.35,7.89,23.3,23.3,0,0,0,1.11,5.25,8.66,8.66,0,0,0,2.86,3.92,7.18,7.18,0,0,0,4.29,1.49c3.13-.05,6.53-1.56,10.23-4.52l2.05,3.64a30,30,0,0,1-20,7.31q-12.09-.18-16.51-8a17.35,17.35,0,0,1-1.35-4,39.56,39.56,0,0,1-.66-6q-.18-3.78-.18-10.18V434.93h-8.32v-4.38a18.14,18.14,0,0,0,8.09-2,16.34,16.34,0,0,0,5.79-5.74,30.2,30.2,0,0,0,3.19-6.61,59.82,59.82,0,0,0,2.21-9l7.3-.72q-.15,2.88-.24,5.88c-.07,2-.12,4.38-.15,7.17s0,6.39,0,10.74h17.67v4.68Z"/><path d="M406.14,475.46V464.22q-15.69,1.06-22.26,5.8t-6.37,14.78q.08,7.89,3.24,12.51a10.12,10.12,0,0,0,8.59,4.73,14.7,14.7,0,0,0,8.24-2.58,17.16,17.16,0,0,0,5.93-7.06,22.71,22.71,0,0,0,2-6.78,67.84,67.84,0,0,0,.6-10.16m27.25,27.84v3.08c-4.28.28-6,.28-10.49.28-3.57,0-7.26-.06-10.32-1.2a10.18,10.18,0,0,1-4.37-2.81c-1-1.57-1.61-1.66-1.93-6a38.64,38.64,0,0,1-11.77,9,30.3,30.3,0,0,1-13.2,2.85q-10.51-.12-16.45-5.81t-6-15.66q0-18.81,23.36-23.37a177.08,177.08,0,0,1,24-2.78v-9.5q.11-11.39-2.41-15.79c-1.68-2.93-4.68-4.34-9-4.2-4.58-.11-7.84,1.55-9.79,4.95a13.23,13.23,0,0,0-1.55,4.05,49.76,49.76,0,0,0-.79,6.33c-.11,2.6-.87,4.45-2.26,5.55s-3.61,1.63-6.65,1.61c-6.76-.05-10.17-2.3-10.22-6.72a13.23,13.23,0,0,1,2.4-7.4,21.36,21.36,0,0,1,6.66-6.19q9.12-5.61,23.95-5.55,15.08-.06,21.61,6a16.36,16.36,0,0,1,4.33,7.07,36.6,36.6,0,0,1,1.37,11l-.15,12.7-.14,12.7q-.18,6.25-.15,7.89a76.3,76.3,0,0,0,.5,11.53c.38,2.43.8,3.5,2.39,4.82a13.1,13.1,0,0,0,7.13,1.56"/><path d="M531.88,475.48V464.22Q516.2,465.3,509.63,470t-6.37,14.78q.06,7.89,3.23,12.51a10.15,10.15,0,0,0,8.6,4.73,14.67,14.67,0,0,0,8.23-2.58,17.08,17.08,0,0,0,5.93-7.06,22.44,22.44,0,0,0,2-6.77,68,68,0,0,0,.6-10.16m27.25,27.82v3.08c-4.27.28-6,.29-10.49.29-3.56,0-7.25-.05-10.32-1.2a9.9,9.9,0,0,1-4.36-2.82c-1-1.56-1.62-1.65-1.93-6a38.8,38.8,0,0,1-11.77,9,30.51,30.51,0,0,1-13.2,2.85q-10.51-.12-16.46-5.81t-6-15.66q0-18.81,23.37-23.37a177.11,177.11,0,0,1,23.95-2.78v-9.5q.12-11.39-2.41-15.8t-9-4.19c-4.58-.1-7.84,1.56-9.78,4.95a13.24,13.24,0,0,0-1.56,4.05,50.08,50.08,0,0,0-.78,6.33q-.17,3.89-2.27,5.55c-1.39,1.1-3.6,1.63-6.64,1.61q-10.15-.08-10.22-6.72a13.24,13.24,0,0,1,2.39-7.39,21.35,21.35,0,0,1,6.66-6.19q9.13-5.62,24-5.56,15.07-.06,21.61,6a16.45,16.45,0,0,1,4.33,7.07,36.6,36.6,0,0,1,1.36,11l-.14,12.71-.15,12.7q-.18,6.25-.14,7.89a76.55,76.55,0,0,0,.49,11.53c.39,2.43.81,3.5,2.4,4.82a13,13,0,0,0,7.12,1.55"/><polygon class="cls-1" points="859.85 323.67 859.56 329.3 967.48 455.9 971.36 456.52 971.84 456.28 973.74 452.78 927.72 298.73 919.9 293.46 859.85 323.67"/><polygon class="cls-2" points="859.56 329.3 967.48 455.9 971.35 456.52 891.77 335.45 859.56 329.3"/><polygon class="cls-3" points="919.9 293.46 892.39 325.85 903.63 330.76 927.72 298.73 927.72 298.73 919.9 293.46"/><polygon class="cls-4" points="859.56 329.3 891.77 335.45 892.39 325.85 859.84 323.69 859.56 329.3"/><polygon class="cls-4" points="903.62 330.76 971.84 456.28 973.74 452.77 927.72 298.74 903.62 330.76"/><polygon class="cls-5" points="1033.03 290.41 1102.82 322.49 1102.94 331.54 988.43 505.01 983.2 506.38 982.43 506.04 980.8 502.13 1026.95 293.79 1033.03 290.41"/><polygon class="cls-6" points="1056.46 335.51 983.21 506.38 988.42 505.01 1102.94 331.54 1056.46 335.51"/><polygon class="cls-7" points="1026.95 293.8 980.8 502.11 982.43 506.02 1043.28 328.25 1026.95 293.8"/><polygon class="cls-8" points="1053.82 323.13 1056.46 335.51 1102.94 331.54 1102.82 322.5 1102.81 322.5 1053.82 323.13"/><polygon class="cls-6" points="1026.95 293.79 1043.27 328.24 1053.82 323.13 1033.03 290.42 1026.95 293.79"/><polygon class="cls-9" points="926.44 241.06 929.23 235.71 1018.56 234.74 1024.34 240.73 981.54 383.74 978.82 385.31 978.74 385.3 975.8 383.32 926.44 241.06"/><polygon class="cls-10" points="926.45 241.04 961.06 258.29 967.49 250.67 929.22 235.71 926.45 241.04"/><polygon class="cls-11" points="926.44 241.06 975.8 383.32 978.72 385.3 961.06 258.28 926.44 241.05 926.44 241.06"/><polygon class="cls-10" points="977.85 258.3 978.82 385.31 981.54 383.73 1024.33 240.73 977.85 258.3"/><polygon class="cls-12" points="1018.56 234.74 967.5 250.68 977.85 258.3 1024.33 240.73 1018.56 234.74 1018.56 234.74"/></svg>