<svg id="Layer_1" data-name="Layer 1" xmlns="http://www.w3.org/2000/svg" viewBox="0 0 1106.13 743.43"><defs><style>.cls-1{fill:#551b38;}.cls-2{fill:#8c9198;}.cls-3{fill:#fdfdfd;}</style></defs><title>bank-saudara</title><path class="cls-1" d="M338.15,439.68c-12.53-.67-27.87-5.1-43.14-9.9-14.47-4.56-29.36-8.11-43.53-.41-9,4.91-17,11.95-25.15,18.35-18.88,14.75-36,31.8-57.51,43.07-20,10.51-37.7,6.88-46.43-9.92a65.84,65.84,0,0,1-7-27.15c-.67-12.77-1.21-25.56-1.53-38.35-.39-15.94-6.27-28.83-19.9-37.76-17.65-11.56-35.33-23.07-52.87-34.81-10.88-7.28-21.69-14.74-29.79-25.31-13-17-10.15-35.78,7.48-47.81a106.37,106.37,0,0,1,35.61-16.07c32.14-7.47,48.44-27.83,54.18-59.59a307.18,307.18,0,0,1,17.55-61.52,70.64,70.64,0,0,1,10.46-17.22c11.37-14.29,31.8-11.84,45-2.12,14.41,10.61,24.49,25.09,34.27,39.27,12.44,18,28.73,23.17,49,22q31.18-1.85,62.41-3c11.61-.43,23.22-.06,34.39,3.83,17.19,6,24.84,20.33,20.42,38-3.55,14.15-11.58,26-19.49,37.84-3.3,4.95-6.9,9.7-10.34,14.55-10.23,14.41-12,29.4-5.9,46.37,9.46,26.22,21.89,51.39,28.44,78.65a76.08,76.08,0,0,1,1.83,11.42C378.56,426.7,366.35,439.83,338.15,439.68ZM95,248.55c-8.12-.27-14.33.33-20.39,2C62,254,57.05,263.73,61.71,276c2.91,7.67,8.13,13.85,13.64,19.68,12.06,12.76,24.49,25.17,36.56,37.93,12.32,13,17.08,28.2,12.64,46-2.52,10.07-5.15,20.18-6.66,30.43-2.15,14.56,6.64,23.5,21.34,22.37a42.69,42.69,0,0,0,11.14-2.61c15.74-5.7,30.67-13.14,45.27-21.32,22.37-12.52,44.93-15.19,66.86.75a113.48,113.48,0,0,0,17.69,11.08c18,8.59,31.28.57,31.75-19.17.47-19.92-3.95-39.26-6.9-58.73-3.51-23.15.41-42.91,20.46-57.48a154.21,154.21,0,0,0,17.64-15.05c14-13.78,11-27.83-7.33-35.17A69.63,69.63,0,0,0,323,230.79c-13.72-2.61-27.41-5.73-41.27-7.13-28.71-2.91-48.49-16.13-56.63-44.81a86.58,86.58,0,0,0-7-16.27c-8.76-16.71-25.95-17.23-36.68-1.65-11,15.93-18.71,33.59-28.07,50.38-5.57,10-10.27,20.42-21,27.21C120.08,246.38,106.8,247.53,95,248.55Z"/><path class="cls-2" d="M1102.94,633.23c-13.21,3.67-26.37,2-40.06,1.11,4.24-9.24-2-16.18-4.55-23.64-5.5-16.18-5.92-16-22.63-16-19.91,0-19.9,0-27.24,18.78-.32.83-.74,1.62-1,2.46-4.42,12.1-4.11,12.89,7,17.67-.7.61-1.34,1.63-2,1.63-16.32.07-32.65.15-49,0-12.47-.14-19.77-8.74-26.59-17.47-6.41-8.2-12.78-16.53-18.11-25.44-4.69-7.85-11.53-5.76-18.11-5.78-2.38,0-2.64,2-2.6,3.86.2,11-.23,22,.72,33,.86,10,9.74,6.55,14.6,10.77-15.7,1.13-31.33,0-47.83.32,16.9-3.27,12.79-16,13-26.1.39-22.93.13-45.86.11-68.8,0-16.6,0-16.6-14.8-21.3.24-.47.48-1.35.73-1.35,19.32-.1,38.75-1.39,58,.14,24.12,1.92,34.64,23.5,23.31,45-1.11,2.09-2.67,3.93-3.91,6-3,4.93-11.2,7.43-10.3,13.24.75,4.87,6.28,9.09,9.93,13.4,8.06,9.54,15.7,19.53,24.57,28.27,13.15,13,21.49,10.82,28.3-6.19,12.61-31.48,25.14-63,37.85-94.41,1.37-3.38,1.52-9,6.11-8.89,4.31.12,4.63,5.69,6,9.06,11.49,28.08,22.71,56.27,34.07,84.4,1.78,4.41,4,8.62,5.72,13.06C1087.34,628.49,1093.94,632,1102.94,633.23ZM898,550.41c0,7.12.08,14.24,0,21.36-.06,3.56,1.26,5,4.94,5.86,16.06,3.56,25-2.34,27.57-18.76,3.11-19.65-6.48-34-23.14-35-6.41-.37-10.26,1.05-9.47,8.73C898.46,538.49,898,544.48,898,550.41Zm136.24-4.8c-3,7.69-5.27,13.38-7.44,19.1-9,23.72-8.63,24.07,16.84,21.57,4.3-.43,5-1.82,3.62-5.54C1043.1,569.77,1039.08,558.75,1034.23,545.61Z"/><path class="cls-2" d="M596,633c14.07-1.41,12.49-12,12.53-21.59.09-25.3.18-50.6.06-75.89-.06-13.41-.25-13.39-13.13-16-.67-.14-1.21-.94-1.71-1.34.16-.6.23-1.09.31-1.09,28.76-.15,57.74-3.74,86.18,2.32,22.53,4.8,36.62,20,40.53,42.51,4.23,24.43-1.89,46.34-22.66,61.85-11.18,8.35-24.39,11.87-38.42,12.67-19.93,1.14-39.75-3.42-59.68-.91C598.49,635.69,597,635.35,596,633Zm32.72-63.34h.64c0,13.64-.72,27.34.19,40.92,1,15.18,2.28,15.77,17.27,18,20.56,3.07,42.35-6.51,48.69-23.11,7.64-20,7.94-40.51-4.61-58.82-12.85-18.76-32.6-23.37-54.11-22.62-5.88.21-8.3,3.08-8.16,9.09C628.88,545.31,628.67,557.49,628.67,569.67Z"/><path class="cls-2" d="M420.13,338.08c20.4,0,38.52-.64,56.56.24,10.44.52,19.91,5.1,23.47,16.22s.4,21.34-8,29.27c-5,4.68-5.67,6.46,1.35,10,16.14,8.06,22.81,21.61,20.27,37.94-2.13,13.74-14.64,25-31.35,27.57-19.07,2.94-38.06-1.37-58.11-.94,14.65-1.21,12.89-11.45,12.93-20.43.12-27.06.23-54.12.09-81.18C437.25,343.44,437,343.45,424,341,423.34,340.86,422.77,340.08,420.13,338.08Zm37.92,83.52h0c0,6.55,0,13.1,0,19.65,0,3.37.72,6.39,3.85,8.51,8.23,5.57,23.63,2.83,28.76-5.74,6.63-11.06,3.3-22-2.21-32.21-5.08-9.41-12.85-15.34-24.36-15.24-4.7,0-6.35,1.69-6.15,6.27C458.25,409.09,458.05,415.35,458.05,421.6Zm0-54.68c0,5,.29,10.08-.07,15.09-.44,6.11,2.58,7.68,8,7.54,10.67-.28,16.95-6.15,17.68-16.93,1-14.39-6.17-26.1-16.74-27.59-6-.84-9.8.27-8.95,7.69C458.47,357.39,458,362.18,458,366.92Z"/><path class="cls-2" d="M317.86,526c-.72-2.48-1.38-5-2.18-7.44a24.58,24.58,0,0,0-34.05-14.65c-12.86,6-15.18,21.2-4.3,31.87,6.34,6.22,13.74,11.37,20.59,17.08,9.16,7.63,18.34,15.28,23.55,26.42,11.36,24.24-.73,50.25-26.59,56.81-13.57,3.45-27.08,2.69-40.47-1.53-5-1.59-7.34-4.33-6.84-9.73.84-9-1.11-18.25,2.67-27.76,4.16,3,3.35,6.91,4,10.07,4.39,20.89,23.67,24.4,38.17,18.95,12.4-4.66,16.38-18.4,10.19-30.71-5-10-14.16-15.85-22.52-22.48-12.23-9.69-23.93-19.71-27.64-36-4.06-17.89,4-33.42,21.1-40.27,14.47-5.79,29.13-4.43,43.85-1.3,2.46.52,4.83,1.48,4.67,4.47-.47,8.7-1.15,17.4-1.75,26.1Z"/><path class="cls-2" d="M452.12,517H498.7a9.64,9.64,0,0,1-.13,1.65c-10,1-12,7.28-11.67,16.17.87,22.58-1.85,45.26,1.73,67.75,2.62,16.46,15.27,27,30.9,26.17,16.45-.84,27.61-11.55,28.31-28.7.83-20.21.75-40.47.86-60.72.08-16.27-.05-16.27-16.7-22h43.34c0,.28,0,1.31,0,1.31-11.59.78-11.86,8.67-11.92,17.63-.13,20.82,1.45,41.69-1.45,62.44-3,21.48-15.81,34.49-37.59,38.22-23.37,4-43.64-4.07-52.46-21.21-4.58-8.91-5.79-18.74-5.93-28.59-.23-16.38,0-32.76-.08-49.14C465.87,522.34,465.84,522.34,452.12,517Z"/><path class="cls-2" d="M714.81,356.3h33.94c-12.23,2.21-9.77,11.72-10,19.58-.61,25.88-1,51.78-1.58,77.66-.06,2.47,1.37,5.92-1.91,7.1-3,1.08-4.68-1.92-6.52-3.76C706.9,435,684.4,413.71,663.7,390.65c-1.32-1.46-2.84-2.74-4.23-4.06v61.64c0,8.28,7.49,7.46,12.21,10.69H636.21c12.92-1.88,10.06-11.84,10.6-20.25,1.64-25.57.71-51.18,1.29-76.77.06-2.56-1.11-6,1.73-7.34,3.53-1.63,5.12,2.19,7,4.14C680,382.61,703.12,406.62,728,432.41c0-13.86.12-25.51,0-37.15-.1-6.83-.81-13.66-1-20.49C726.62,361.42,726.7,361.41,714.81,356.3Z"/><path class="cls-2" d="M368.85,634.51c-13.19-1-26.43,1.22-40.35-.59,19.24-1.29,20.45-17.36,25.55-29.63,11.63-28,22.68-56.25,34-84.38,1.06-2.65,1.28-6.61,4.92-6.63s4,4,5,6.58q17.52,42.95,34.79,86c.44,1.11.77,2.26,1.27,3.34,5,10.86,8.05,23.69,24.26,24.16-13.75,3.51-27,1.95-41.06.85,4.54-6.57.27-11.73-1.66-17.06-8.15-22.51-8.25-21.88-31.81-22.75-10.37-.38-16.26,2.4-18.31,12.74-.69,3.45-2.46,6.68-3.65,10C357.88,628.32,358.42,629.54,368.85,634.51ZM389.58,547c-4.6,5.64-5.53,11.95-7.8,17.59-9.25,23-9.17,23,15.62,21.63a8.81,8.81,0,0,1,.89,0c4,.26,5.43-1.2,3.88-5.28C398,569.9,394,558.81,389.58,547Z"/><path class="cls-2" d="M854.35,633.73c-13.06,3.19-26.25,1.54-40.05.54,4.55-8.91-1.43-15.7-4.13-22.71-7.9-20.55-2.2-16.81-23.95-16.78-23.7,0-17.05-3.93-25.85,18-.44,1.1-.73,2.26-1.15,3.37-4.57,12.33-4.58,12.33,6.6,18.54-13.09-1.07-26.17,1-39.91-.89,17.8-1.27,19.4-15.92,24.17-27.58,11.68-28.6,23.07-57.32,34.61-86,1.07-2.67,1.26-6.65,4.76-6.87,4.26-.26,4.38,4.29,5.5,7,11.79,28.88,23.4,57.84,35.06,86.77.67,1.65,1.33,3.3,2,4.94C839.08,628.33,839.08,628.33,854.35,633.73Zm-68.53-88.47c-3.15,8.16-5.46,13.81-7.53,19.55-8.09,22.47-8.07,22.3,15.79,21.5,6-.21,6.11-2.13,4.23-6.89C794.22,569,790.59,558.4,785.82,545.26Z"/><path class="cls-2" d="M772,459c9.3-2.24,9.81-9.27,9.83-16.53,0-23.81,0-47.63.13-71.44,0-6.14-.77-11.47-8.5-13.22,12.13-3.1,23.94-1.37,36.61-1-12.6,2.17-10.51,11.3-10.61,19.24-.09,7.65,0,15.3,0,23.44,18.78-12.66,35.46-34.39,33.35-43.05H865c-22.42,6-33.21,26-49.19,39.46-3.27,2.76-3,4.84-.15,7.93,14.05,15.36,27.4,31.37,43.35,44.91,5.47,4.65,12,7,20.74,8.76-21.74,5.87-34.28,2.68-47.59-11.73-10.65-11.53-20.85-23.48-32.28-36.41,0,14.43-.14,27.57.06,40.71.11,7.48,7.89,5.16,11.46,8.9Z"/><path class="cls-2" d="M628.91,459.35q-15.7,0-31.42,0c-1.61,0-2.61-.38-2.43-2.55.93-10.88-4.23-20.66-9.22-29.05-5.58-9.39-17.39-2.09-26.25-3.91-3.88-.8-6.84.53-8.19,4.84-1.69,5.38-3.75,10.65-5.78,15.92-2.56,6.65-3.8,12.55,6.35,14H518.39c17.35-3.52,17.37-19.9,22.65-32.11,9.46-21.82,17.86-44.09,26.75-66.16,1.08-2.68,1.46-6.77,4.69-7,4.11-.27,4.31,4.33,5.46,7.13,10.21,25.06,20.09,50.25,30.44,75.25C612.44,445.56,615,457.21,628.91,459.35ZM570,383.45c-4.59,5-5.28,10.49-7.17,15.27-7.61,19.17-6.17,20.78,14.67,17.94,2.94-.4,4.51-.88,3.22-4.28C577.2,403.08,573.8,393.73,570,383.45Z"/><path class="cls-3" d="M95,248.55c11.85-1,25.13-2.17,37.5-10,10.7-6.79,15.4-17.21,21-27.21,9.36-16.79,17.09-34.45,28.07-50.38,10.73-15.58,27.92-15.06,36.68,1.65a86.58,86.58,0,0,1,7,16.27c8.14,28.68,27.92,41.9,56.63,44.81,13.86,1.4,27.55,4.52,41.27,7.13a69.63,69.63,0,0,1,12.77,3.87c18.3,7.34,21.29,21.39,7.33,35.17a154.21,154.21,0,0,1-17.64,15.05c-20.05,14.57-24,34.33-20.46,57.48,2.95,19.47,7.37,38.81,6.9,58.73-.47,19.74-13.77,27.76-31.75,19.17a113.48,113.48,0,0,1-17.69-11.08c-21.93-15.94-44.49-13.27-66.86-.75-14.6,8.18-29.53,15.62-45.27,21.32a42.69,42.69,0,0,1-11.14,2.61c-14.7,1.13-23.49-7.81-21.34-22.37,1.51-10.25,4.14-20.36,6.66-30.43,4.44-17.77-.32-33-12.64-46-12.07-12.76-24.5-25.17-36.56-37.93-5.51-5.83-10.73-12-13.64-19.68-4.66-12.25.28-22,12.85-25.45C80.62,248.88,86.83,248.28,95,248.55Z"/></svg>