<svg id="Layer_1" data-name="Layer 1" xmlns="http://www.w3.org/2000/svg" viewBox="0 0 1106.13 743.43"><defs><style>.cls-1{fill:#ec2329;}.cls-2{fill:#434346;}.cls-3{fill:#fefefe;}</style></defs><title>bank-sinarmas</title><path class="cls-1" d="M246.44,240.41c1.79,1.7,4.35,1.62,6.42,2.78,8.43,4.73,12.9,11.82,12.9,21.46q.06,107.1.06,214.2c0,13.81-11.71,24.18-24.29,24.17q-106.83-.11-213.67,0A24.79,24.79,0,0,1,4.28,485.76a24.48,24.48,0,0,1-1.1-7.85q0-106.71,0-213.4c0-10.76,8-20.59,17.79-23,.66-.16,1.49-.1,1.51-1.12ZM34.08,369.31c5.64,0,11.28-.11,16.91.05,2.1.06,2.57-.69,2.58-2.57A75,75,0,0,1,56.07,349c15-60.69,81.89-92.4,138-64.74,34,16.77,52.2,45,55.07,82.88.23,3,2,1.95,3.43,2.15,2.08.28,1.75-1.11,1.7-2.38A119.6,119.6,0,0,0,115.78,253.54,116.91,116.91,0,0,0,46.34,290.9C26.84,312.2,16.46,337.43,15,366.3c-.11,2.19.14,3.19,2.75,3.08C23.15,369.14,28.62,369.31,34.08,369.31Zm100.38,122c29.42-.05,57.17-10.31,78.81-29.48,25.59-22.66,39.07-51.22,41-85.31.11-1.92-.51-2.44-2.38-2.43-11.27.07-22.55.09-33.82,0-2,0-2.31.81-2.4,2.49A84.41,84.41,0,0,1,212,398.21c-12,37.23-36.93,60.63-75.23,69-23.35,5.07-45.89,1.42-66.57-10.48C39.38,438.94,22.69,411.94,20,376.42c-.19-2.54-1.44-2.22-3.09-2.33-2.09-.13-2.06,1-2,2.51A119.48,119.48,0,0,0,134.46,491.31Zm-15.83-26.6a88.86,88.86,0,0,0,40.3-9.68q47.48-24.82,52-78.41c.15-1.78-.14-2.55-2.17-2.53q-16.92.12-33.83,0c-1.65,0-2.07.5-2.15,2.12a77.55,77.55,0,0,1-3,17.68c-12.85,44.47-66,65.32-105.5,41.13-21.82-13.39-33.48-33.12-35-58.7-.15-2.43-1.42-2.11-3-2.21-2-.13-1.79,1.07-1.77,2.41a76.76,76.76,0,0,0,1.34,11.72C33.68,432.12,72.73,464.68,118.63,464.71ZM77.11,369.3c5.55,0,11.1-.08,16.64.05,2,0,2.75-.43,2.79-2.61a65.92,65.92,0,0,1,6.51-26.91A71.57,71.57,0,0,1,191,302c28.77,9.64,47.08,34.49,48.91,65.28.13,2.28,1.36,2,2.81,2.07,1.73.14,2.22-.59,2-2.17-.45-3.64-.6-7.33-1.31-10.92-7.13-35.44-27.51-59.87-61.51-72.24-22.16-8-44.71-7.49-66.23,2-35.11,15.48-54.25,42.86-57.44,81.24-.16,1.82.39,2.09,2,2.07C65.84,369.26,71.47,369.31,77.11,369.3Zm24.16,71.33A48.67,48.67,0,0,0,111,440a66.73,66.73,0,0,0,11.17-2.75C148.55,428.47,167,404,168,376.49c.08-2-.47-2.41-2.31-2.4-9.22.08-18.43.16-27.64,0-2.79-.06-3.44.7-3.57,3.46-1.74,35.07-37.41,56.52-68.89,41.09-17.18-8.42-25.86-23-26.74-42.05-.12-2.68-1.39-2.38-3.14-2.47-2.16-.11-1.91,1.14-1.85,2.57C35.25,412.29,64.92,440.63,101.27,440.63Zm134-75.43c-1.32-17-7.9-32.15-20.77-43.92-20.22-18.49-43.67-23.23-69.64-14.32-24.74,8.48-43.15,34-43.75,60.12,0,1.75.4,2.28,2.19,2.27,9.57-.09,19.15-.11,28.72,0,2.12,0,2.66-.56,2.67-2.68.17-32.38,33.9-55.52,64.08-44,19.09,7.27,30.89,23.76,31.56,44.32.06,1.89.61,2.26,2.42,2.42C236.31,369.7,235.11,367.3,235.25,365.2Z"/><path class="cls-2" d="M1102.94,449.3c-.68.1-.78.68-.9,1.18-3.59,13.93-13,22.14-26.41,25.74-15.86,4.28-31.81,4.13-47.18-2.33-11.22-4.72-18.65-13.17-22.37-24.84-.46-1.46-.28-2,1.31-2.25,8-1.17,16.05-2.38,24.06-3.68,1.13-.18,1.36.15,1.61,1.08,3.65,13.33,14.35,15.76,25.51,15.1a26.19,26.19,0,0,0,11.54-2.94c4.33-2.43,6.07-6.24,5-10.71-.65-2.76-2.51-4.23-5-5.13-6-2.19-12.24-3.08-18.34-4.72-8.08-2.18-16.19-4.23-24-7.38-12.27-5-18.81-15-18.49-27.34a29.83,29.83,0,0,1,18.91-26.85c9.72-3.87,19.84-4.66,30.2-4.06,6.71.4,13.31,1.16,19.64,3.48,10.73,3.91,17.11,11.81,20.59,22.42.44,1.34-.37,1.36-1,1.48-7.63,1.4-15.28,2.71-22.9,4.17-1.13.22-1.42-.19-1.72-1-3.87-10.56-13-11.35-20.61-11.3a33.76,33.76,0,0,0-11.59,1.65c-4.26,1.58-6.3,3.72-6.32,7,0,4,2.64,5.82,5.9,7,8.62,3.21,17.67,4.89,26.55,7.16,8.21,2.1,16.34,4.44,23.69,8.9,6.34,3.86,10,9.51,11.59,16.64.11.48-.07,1.12.68,1.25Z"/><path class="cls-2" d="M318.93,240.41c0,7.87,0,15.73.07,23.6,0,.67-.41,1.56.3,2s1.23-.42,1.72-.89c11.59-11,30-5.23,34.31,10a39.85,39.85,0,0,1-.61,24c-4.5,13.33-20.16,18.78-31.09,10.86a39.58,39.58,0,0,1-3.92-3.64c-.38-.36-.73-.88-1.33-.61s-.41.91-.42,1.42c-.12,5.31-.12,5.37-5.37,5.28-2.28,0-5.32,1.06-6.62-.54-1.11-1.37-.35-4.28-.35-6.5q0-31.26,0-62.51c0-.8-.07-1.6-.1-2.4Zm0,44.17a32.66,32.66,0,0,0,1.13,9.74c1.54,5.23,5.9,8.75,10.85,8.88a10.54,10.54,0,0,0,10.73-7.63,28.72,28.72,0,0,0-.24-18.87,11.13,11.13,0,0,0-19.29-2.95C319.37,277.24,319.06,281.41,319,284.58Z"/><path class="cls-2" d="M485.4,240.41q0,18,0,35.93c0,.58-.41,1.35.3,1.71.89.44,1.22-.49,1.66-1,4.42-4.91,8.85-9.81,13.2-14.79a4.29,4.29,0,0,1,3.42-1.6,139.12,139.12,0,0,1,14.2.16c-2.4,2.63-4.45,4.92-6.55,7.16-3.17,3.39-6.33,6.79-9.6,10.09-1.13,1.14-.95,1.95-.2,3.22,5.68,9.57,11.27,19.21,16.89,28.82.35.6.67,1.21,1.23,2.24H506.33c-1.31,0-1.45-1.21-1.9-2-3.72-6.5-7.43-13-11.05-19.56-.89-1.61-1.41-1.73-2.9-.46-3.84,3.29-6,7-5.15,12.29.38,2.53,0,5.17.05,7.76,0,1.4-.32,2.08-1.94,2-3.21-.13-6.44-.12-9.65,0-1.61.06-1.89-.57-1.88-2q.07-35,.07-70Z"/><path class="cls-2" d="M766.7,386.47c3.78-3.66,6.81-6.93,10.5-9.46,12.92-8.88,29.68-9.45,41.84-1.43a28.2,28.2,0,0,1,8.56,9.1c1.07,1.76,1.76,1.72,3.09.19,8.19-9.41,18.33-15.13,31-14.89,11,.21,20.95,3.48,27.59,13.19a32.26,32.26,0,0,1,5.2,15.84c1.07,12.49.39,25,.51,37.52s0,25.06.06,37.59c0,1.81-.4,2.48-2.35,2.45-7.43-.11-14.86-.13-22.28,0-2.12,0-2.69-.55-2.68-2.68.09-19.05.07-38.11.05-57.17a101.39,101.39,0,0,0-1-14.13c-1.5-10.53-10-12.91-17.16-11.62-8.67,1.56-14.33,7.58-16.22,16.79a90.67,90.67,0,0,0-1.38,18.16q-.08,24,0,48.05c0,2-.43,2.63-2.49,2.6q-11.15-.18-22.28,0c-2.1,0-2.49-.68-2.48-2.61.07-18.17,0-36.33,0-54.5a124.11,124.11,0,0,0-.92-16.57c-1.43-10.74-8.84-13.19-17-12-10.19,1.54-16,8.3-17.44,19.48a112,112,0,0,0-.74,14.19c0,16.37,0,32.75.05,49.12,0,2-.38,2.88-2.6,2.84-7.51-.11-15-.09-22.54,0-1.85,0-2.19-.67-2.18-2.35q.06-49.65,0-99.32c0-1.8.38-2.49,2.34-2.46q10.2.19,20.4,0c2.1,0,2.56.67,2.48,2.6C766.6,378.58,766.7,382.13,766.7,386.47Z"/><path class="cls-2" d="M663.15,476.52c-8.56,0-16.7,0-24.84,0a2.21,2.21,0,0,1-2.5-1.81c-.74-2.57-1.64-5.09-2.34-7.66-.46-1.72-1-2-2.41-.72a43.49,43.49,0,0,1-17.58,10.4c-12.92,3.74-25.49,3.28-36.65-5.05-8.45-6.3-11.77-15.27-11-25.66,1-13.63,8.57-21.92,21.25-26.28,9.66-3.33,19.78-4.53,29.64-6.93a87.1,87.1,0,0,0,12.52-3.67c1-.41,1.7-.78,1.66-2a29.46,29.46,0,0,0-1-7.94,9.9,9.9,0,0,0-6.79-7,35.69,35.69,0,0,0-18.26-.72c-5.7,1.29-8.89,5.38-10.93,10.5-.54,1.36-1.13,1.74-2.56,1.47q-10.25-1.94-20.55-3.67c-1.69-.29-2.17-.7-1.57-2.55,4.61-14.25,13.86-23.21,28.85-25.83,12.81-2.24,25.63-2.29,38.16,1.3,10,2.88,17.77,8.68,19.86,19.8,1.48,7.87,1.32,15.84,1.29,23.79,0,13.86-.75,27.72.32,41.56a47.53,47.53,0,0,0,4.3,15.94C662.35,474.58,662.67,475.39,663.15,476.52ZM631,431h-.08v-1.34c0-3.5,0-3.44-3.3-2.6-4,1-7.94,1.86-11.89,2.87-5.26,1.34-10.72,2-15.66,4.47-7.58,3.74-9.58,12.41-4.52,19.23,4.1,5.52,9.75,6.64,16.17,6,9.11-.9,17.16-7.85,18.52-16.62C630.8,439.07,630.72,435,631,431Z"/><path class="cls-2" d="M1002.93,476.52c-8.39,0-16.53,0-24.67,0a2.22,2.22,0,0,1-2.44-1.91c-.7-2.4-1.53-4.77-2.12-7.19-.49-2-1.23-2.38-2.81-.91-7.06,6.55-15.31,10.86-24.9,11.91-13,1.41-25-.69-33.91-11.48-10.78-13-8.45-37.57,11.13-45.69,8.56-3.54,17.56-5.2,26.57-7a134.42,134.42,0,0,0,19.11-4.95,2.41,2.41,0,0,0,2-2.67,29,29,0,0,0-.55-6.11c-1-4.53-3.66-7.66-8.31-8.81a42.58,42.58,0,0,0-13.31-1c-7,.49-11.91,4-14.4,10.61-.73,1.93-1.51,2.25-3.5,1.85-7.26-1.44-14.58-2.61-22.06-3.92,3.84-13.72,11.57-23.63,25.74-27.09a84.13,84.13,0,0,1,42,.47A29.59,29.59,0,0,1,991,381.5c4.68,5.15,5.6,11.64,6,18.17,1.08,15.72-.17,31.45.11,47.17.18,9.91,1.14,19.61,5.62,28.65A4.38,4.38,0,0,1,1002.93,476.52Zm-32.12-43.43c0-1.68-.1-3,0-4.36.2-2.05-.6-2.48-2.47-2-3.25.92-6.52,1.73-9.8,2.55-5.62,1.39-11.35,2.32-16.82,4.31-8.83,3.22-11.64,12.84-6,20.22,4.06,5.27,9.52,6.41,15.75,5.78,9-.9,17-7.61,18.6-16.23A45.1,45.1,0,0,0,970.81,433.09Z"/><path class="cls-2" d="M459.61,424.33c0-16.38.05-32.75-.06-49.12,0-2.28.65-2.83,2.85-2.78,6.62.14,13.24.12,19.86,0,1.94,0,2.7.36,2.56,2.47-.2,3.12-.08,6.26,0,9.39,0,.84-.49,2.1.37,2.42,1.11.42,1.51-1,2.12-1.66,5.1-5.81,11.09-10.41,18.51-12.79,13.06-4.18,25.56-3,37,4.9,6.56,4.52,9.44,11.41,10.68,19.06a85.3,85.3,0,0,1,1,13.63c.08,21.11,0,42.23.1,63.34,0,2.73-.73,3.48-3.46,3.4-7.06-.2-14.13-.15-21.2,0-2.12,0-2.68-.56-2.67-2.69q.1-29.25,0-58.51a55.33,55.33,0,0,0-1.14-12c-2.1-9.15-10.2-14.2-19.75-12.49-11.25,2-17.88,9.51-18.83,21.1-1.18,14.37-.4,28.78-.61,43.16q-.14,9.39,0,18.79c0,2-.45,2.65-2.52,2.61q-11.14-.18-22.28,0c-2.05,0-2.52-.62-2.51-2.59C459.64,457.43,459.61,440.88,459.61,424.33Z"/><path class="cls-2" d="M301.86,447.16c8.8-1.37,17.43-2.67,26-4.08,1.2-.19,1.43.4,1.62,1.2,3.24,13.15,14.74,15.76,25.23,15,4.18-.29,8.33-.93,12-3.15,3.09-1.88,5-4.44,4.9-8.29s-1.41-5.89-5-7.32c-4.58-1.81-9.46-2.5-14.2-3.71-10-2.56-20.11-4.81-29.58-9.07-10.76-4.85-16.86-13-17.19-24.94-.35-12.62,5.75-21.63,16.59-27.5,6.11-3.31,12.88-4.49,19.79-5,10.85-.85,21.57-.33,31.95,3.18,10.71,3.63,17.19,11.41,20.82,21.86.41,1.18.53,2-1,2.26-7.38,1.29-14.74,2.59-22.1,4-1.41.27-2-.11-2.52-1.44-2.83-7.19-8.57-10.17-15.92-10.52-5-.24-10-.36-14.88,1.08a17.16,17.16,0,0,0-3.93,1.63c-5,3-4.89,9.13.27,11.8,5.5,2.86,11.61,4,17.56,5.48,9.83,2.48,19.78,4.49,29.15,8.58s16,10.49,17.35,21c1.46,11.57-2.4,21.25-11.22,28.94-6.78,5.91-14.93,8.71-23.59,9.89-10.86,1.49-21.74,1.34-32.39-1.68C316.51,472.12,306.4,462.7,301.86,447.16Z"/><path class="cls-2" d="M696.88,386.42c1.51-2.07,3.06-4.11,4.55-6.2,7.55-10.6,18.31-12.35,29.93-8.22,7.12,2.52,7,2.65,4.44,9.73-2,5.6-4,11.22-6.09,16.92-3.89-2.38-7.79-4.16-12.29-4.29-6.62-.2-11.49,2.55-14.58,8.43-3.25,6.17-3.8,12.93-4.2,19.71-1,17.07-.37,34.16-.48,51.24,0,2.22-.59,2.88-2.83,2.83-7.34-.14-14.68-.12-22,0-2.06,0-2.54-.62-2.54-2.59q.09-49.55,0-99.07c0-2.08.59-2.51,2.54-2.48q10.34.19,20.68,0c1.92,0,2.38.54,2.31,2.38-.15,3.81,0,7.63,0,11.45Z"/><path class="cls-2" d="M440.89,424.6c0,16.46,0,32.92,0,49.38,0,1.93-.36,2.63-2.47,2.6-7.51-.14-15-.13-22.54,0-1.93,0-2.38-.63-2.38-2.45q.07-49.67,0-99.31c0-1.9.52-2.38,2.38-2.35,7.51.1,15,.12,22.54,0,2,0,2.5.52,2.49,2.51C440.85,391.49,440.89,408,440.89,424.6Z"/><path class="cls-2" d="M408.87,312.39c-4.37,0-8.2-.06-12,0-2.21,0-2-1.78-2.27-3-.54-2.24-1.13-2.84-3.16-1.09-6,5.18-13,6.25-20.59,4.45a14.58,14.58,0,0,1-11-13,14,14,0,0,1,8.37-14.5c4.82-2.2,10-2.9,15.16-4,2.44-.52,4.85-1.23,7.29-1.76,1.63-.35,2.07-1.31,2-2.88-.16-4.17-1.9-6.15-6-6.83a18.41,18.41,0,0,0-6.62,0,7,7,0,0,0-5.4,3.93c-1,2.14-2.17,2.29-4.18,1.73a56.2,56.2,0,0,0-7.11-1.24c-1.6-.22-2-.7-1.41-2.41,2.59-7,7.74-10.72,14.88-11.9a44.24,44.24,0,0,1,16.22.32c8.92,1.83,12.75,6.5,12.8,15.72q.06,10.2,0,20.4C405.75,301.71,405.91,307,408.87,312.39Zm-16.24-20.12c0-1.16,0-2.33,0-3.49,0-.94-.44-1.42-1.28-1.16-4.85,1.47-10.08,1.61-14.67,3.94-4,2-4.71,6.8-1.7,10.16a8.17,8.17,0,0,0,6.72,2.67C388.55,304.16,392.41,299.87,392.63,292.27Z"/><path class="cls-2" d="M415.05,286.49c0-7.87,0-15.74,0-23.6,0-1.7.41-2.46,2.23-2.35q4.15.22,8.31.13c1.51,0,2,.47,1.94,2s-.86,4.17.41,4.73c1.45.64,2.34-1.93,3.63-2.94,6.85-5.43,14.22-6.54,22.3-3.16,5.15,2.14,7.58,6.19,8.41,11.48a56.48,56.48,0,0,1,.52,8.81c0,9.48-.06,19,0,28.44,0,1.8-.34,2.55-2.31,2.43a60.65,60.65,0,0,0-8.31,0c-2.28.16-3-.4-3-2.86.19-7.51.09-15,.06-22.54,0-2.67-.15-5.35-.28-8-.27-5.64-2.85-8.88-7.52-9.53-5-.69-10.62,2.78-11.95,7.51a33.57,33.57,0,0,0-1,9.27c0,8,0,15.92,0,23.88,0,1.71-.38,2.38-2.21,2.29-3-.15-6.09-.15-9.12,0-1.88.1-2.19-.67-2.18-2.33C415.08,302.23,415,294.36,415.05,286.49Z"/><path class="cls-2" d="M427.07,357.55a101.28,101.28,0,0,1-11.81.1c-1.25,0-1.72-.31-1.71-1.64q.09-10.85,0-21.7c0-1.46.54-1.84,1.85-1.83,7.86,0,15.71,0,23.56,0,1.81,0,2,.84,2,2.31-.05,6.87-.1,13.75,0,20.62,0,2-.73,2.55-2.45,2.35C434.66,357.3,430.83,358.22,427.07,357.55Z"/><path class="cls-3" d="M34.08,369.31c-5.46,0-10.93-.17-16.38.07-2.61.11-2.86-.89-2.75-3.08,1.51-28.87,11.89-54.1,31.39-75.4a116.91,116.91,0,0,1,69.44-37.36A119.6,119.6,0,0,1,254.22,366.93c.05,1.27.38,2.66-1.7,2.38-1.45-.2-3.2.87-3.43-2.15C246.22,329.29,228,301.05,194,284.28,138,256.62,71.11,288.33,56.07,349a75,75,0,0,0-2.5,17.77c0,1.88-.48,2.63-2.58,2.57C45.36,369.2,39.72,369.31,34.08,369.31Z"/><path class="cls-3" d="M134.46,491.31A119.48,119.48,0,0,1,14.93,376.6c-.06-1.48-.09-2.64,2-2.51,1.65.11,2.9-.21,3.09,2.33,2.67,35.52,19.36,62.52,50.2,80.26,20.68,11.9,43.22,15.55,66.57,10.48,38.3-8.32,63.25-31.72,75.23-69a84.41,84.41,0,0,0,3.66-21.64c.09-1.68.4-2.51,2.4-2.49,11.27.1,22.55.08,33.82,0,1.87,0,2.49.51,2.38,2.43-1.94,34.09-15.42,62.65-41,85.31C191.63,481,163.88,491.26,134.46,491.31Z"/><path class="cls-3" d="M118.63,464.71c-45.9,0-84.95-32.59-92.75-76.47a76.76,76.76,0,0,1-1.34-11.72c0-1.34-.24-2.54,1.77-2.41,1.53.1,2.8-.22,3,2.21,1.55,25.58,13.21,45.31,35,58.7,39.45,24.19,92.65,3.34,105.5-41.13a77.55,77.55,0,0,0,3-17.68c.08-1.62.5-2.13,2.15-2.12q16.9.11,33.83,0c2,0,2.32.75,2.17,2.53q-4.47,53.49-52,78.41A88.86,88.86,0,0,1,118.63,464.71Z"/><path class="cls-3" d="M77.11,369.3c-5.64,0-11.27,0-16.91,0-1.57,0-2.12-.25-2-2.07,3.19-38.38,22.33-65.76,57.44-81.24,21.52-9.49,44.07-10,66.23-2,34,12.37,54.38,36.8,61.51,72.24.71,3.59.86,7.28,1.31,10.92.19,1.58-.3,2.31-2,2.17-1.45-.12-2.68.21-2.81-2.07C238.06,336.49,219.75,311.64,191,302a71.57,71.57,0,0,0-87.93,37.83,65.92,65.92,0,0,0-6.51,26.91c0,2.18-.77,2.66-2.79,2.61C88.21,369.22,82.66,369.3,77.11,369.3Z"/><path class="cls-3" d="M101.27,440.63c-36.35,0-66-28.34-67.41-64-.06-1.43-.31-2.68,1.85-2.57,1.75.09,3-.21,3.14,2.47.88,19.07,9.56,33.63,26.74,42.05,31.48,15.43,67.15-6,68.89-41.09.13-2.76.78-3.52,3.57-3.46,9.21.19,18.42.11,27.64,0,1.84,0,2.39.41,2.31,2.4-1,27.48-19.45,52-45.81,60.71A66.73,66.73,0,0,1,111,440,48.67,48.67,0,0,1,101.27,440.63Z"/><path class="cls-3" d="M235.25,365.2c-.14,2.1,1.06,4.5-2.52,4.19-1.81-.16-2.36-.53-2.42-2.42-.67-20.56-12.47-37.05-31.56-44.32-30.18-11.49-63.91,11.65-64.08,44,0,2.12-.55,2.7-2.67,2.68-9.57-.12-19.15-.1-28.72,0-1.79,0-2.23-.52-2.19-2.27.6-26.12,19-51.64,43.75-60.12,26-8.91,49.42-4.17,69.64,14.32C227.35,333.05,233.93,348.18,235.25,365.2Z"/></svg>