<svg id="Layer_1" data-name="Layer 1" xmlns="http://www.w3.org/2000/svg" viewBox="0 0 1106.13 743.43"><defs><style>.cls-1{fill:#85c227;}.cls-2{fill:#2a1870;}.cls-3{fill:#fefefe;}</style></defs><title>bank-sulsel</title><path class="cls-1" d="M556.08,100.66c.48-2.9-2-4.14-3.47-5.8a417,417,0,0,0-76.29-66.67c-1.55-1.05-3.4-1.6-2.88-4h3.17c5.82,3.9,12.76,4.45,19.22,6.31C559.78,48.92,621.15,73,675.61,112.23c51.11,36.84,90.09,83.83,117.76,140.36,2.16,4.42,1.57,6.67-2,9.9-9.62,8.66-20,16.54-28.58,26.31a40.48,40.48,0,0,0-4.52,3.09q-39.07,34.86-78.07,69.79c-9.11,8.14-18.28,16.2-28.56,25.3a543,543,0,0,0-6.38-88.83c-10-64.52-32.27-124.08-71.21-176.9-4.94-6.7-9.16-14.17-16.38-19,.05-1.16-.29-2-1.68-1.79Z"/><path class="cls-2" d="M1102.94,563.08c-4.83,10.45-4.47,21.91-6.13,32.93-5.73,37.9-11,75.88-16.28,113.85-.63,4.49-2.21,6.36-7,6a139.14,139.14,0,0,0-20.62,0c-6.51.54-8-1.62-7-7.87,3.51-22.47,6.58-45,9.83-67.5,4.08-28.27,8.33-56.5,12.15-84.8.68-5,2.32-6.72,7.39-6.58,9.23.24,18.48-.22,27.72-.39Z"/><path class="cls-2" d="M557.64,102.3c7.22,4.78,11.44,12.25,16.38,19,38.94,52.82,61.23,112.38,71.21,176.9A543,543,0,0,1,651.61,387c10.28-9.1,19.45-17.16,28.56-25.3q39-34.87,78.07-69.79a40.48,40.48,0,0,1,4.52-3.09c16.1,29.78,26.21,61.69,34.12,94.44,1.35,5.56-2.73,5.53-5.44,6.83Q717.74,425.4,644,460.55L496.47,531c-2.56,1.22-5.18,2.33-9.58,4.29,2.23-3.61,3.44-5.73,4.8-7.75,34.65-51.74,59.11-107.72,66.6-169.84,13.42-111.16-17.22-207.3-100.55-284.54-1.31-1.22-2.75-2.31-4.53-3.79,3-1.27,5.53-.4,8.18.29a648,648,0,0,1,87.27,29c2.34,1,4.54,2.9,7.42,2.07l-.12-.15C555.59,102,556.84,101.93,557.64,102.3Z"/><path class="cls-1" d="M105.3,626.71c17.94,13.31,22.11,26,16.38,49.07-5.55,22.29-18.93,35.43-39.18,38.31-25,3.57-50.19.81-75.27,1.71-4.64.16-4.24-2.45-3.78-5.63q7.25-49.81,14.4-99.64c2.45-17,5.31-33.95,7.21-51,.84-7.58,2.75-10.92,11.37-10.55,18.22.8,36.5.24,54.75.25,30.05,0,43.55,17.55,36.35,47C124.3,609.42,117.63,620.06,105.3,626.71Zm-45.9,53c4.21-.23,8.49,0,12.62-.78,8.58-1.53,14.22-10.25,13.67-20.46-.43-8.12-4-11.12-14.56-11.93-3.94-.3-7.95.23-11.86-.24-6.44-.79-9.09,1.67-9.07,8.17,0,4.17-1.05,8.35-1.73,12.51C46.44,679.57,46.42,679.57,59.4,679.74Zm8.26-65.39c16.36-.06,23.47-6.41,22.57-20.15-.35-5.31-2.66-9.59-8.16-10.1-6.78-.62-14.44-1.94-20.24.51-4.34,1.83-2.77,9.94-3.63,15.29-.51,3.13-.84,6.28-1.43,9.38-.71,3.78.63,5.45,4.56,5.09C63.42,614.19,65.55,614.34,67.66,614.35Z"/><path class="cls-2" d="M554.48,658.73l1.59-.14c4.74-.35,10.22-2.34,14-.63,4.63,2.08,1.48,8.49,2.68,12.92,2.72,10,7.68,14.68,16.9,14.61s16.41-6.23,18.44-15.57c1.8-8.23-1.82-14.66-10.9-18.65-4.59-2-9.42-3.48-14.13-5.23-37-13.82-46.32-50.78-20.52-80.85,15.85-18.46,50-24.84,71.53-13.36,12.7,6.77,21.59,28,17.85,42.09-.66,2.49-2,2.65-3.93,2.8-9.49.78-19,1.4-28.47,2.42-5.62.61-4.15-3.35-4.46-6.17-1.24-11.54-8.26-17-18.8-14.52-7,1.6-10.18,6.61-10.93,13-.7,6.06,3.77,8.89,8.8,10.68,6.22,2.22,12.56,4.12,18.73,6.46,30.85,11.72,41,32.57,31.17,64.1-13.53,43.35-49.34,52.35-83.44,42.75-17.36-4.89-22.72-19.47-25-35.32C532.92,660.67,533.32,660.52,554.48,658.73Z"/><path class="cls-1" d="M408.56,633.37c9.11-11.66,17.52-22.09,25.51-32.83,3-4,6.11-5.8,11.23-5.62,11.09.41,22.21.13,33.94.13-1.17,4.74-4.88,7.11-7.5,10.12-8.17,9.38-16.46,18.65-25,27.72-3.06,3.27-3.73,6.12-2.4,10.57,6.44,21.52,12.26,43.23,18.67,64.77,1.74,5.84,1.08,8.09-5.61,7.67a187.13,187.13,0,0,0-24.61,0c-5.57.38-7.22-2.14-8.22-6.89-2.75-13.12-5.84-26.16-9-40.25-9.41,8.2-16.19,16.11-17.08,28.67-1.29,18.37-1.93,18.43-19.8,18.26-5.75-.05-13.49,2.56-16.66-1.32-2.41-2.95.71-10.49,1.5-16,6.84-47.64,13.81-95.25,20.41-142.92.72-5.23,2.55-6.62,7.41-6.38a163.38,163.38,0,0,0,20.64,0c6.53-.51,8.17,1.72,7.17,8-3.75,23.76-7.11,47.59-10.59,71.39A46.16,46.16,0,0,0,408.56,633.37Z"/><path class="cls-1" d="M196.61,702.8c-8.11,8.26-17,13.53-27.8,15.35-23.22,3.91-37.71-9.42-35.4-32.86,1.87-19,11.46-30.68,30.21-36.47,11.85-3.66,24-6.3,35.64-10.72,6-2.27,6.56-6,5.92-11.11-.69-5.51-4.66-6.53-9.19-6.65-7.74-.2-14.23,2.26-17.53,9.74-1.78,4-4.12,4.5-8.11,3.72-8.51-1.64-17.14-2.68-25.78-4,6.33-25.32,20.23-36.09,48.67-37.46a108.63,108.63,0,0,1,22.9,1.61c13.35,2.24,19.78,9.67,22.28,23.3,2.46,13.41-1.35,26.28-2.63,39.38-1.81,18.61-7.87,36.85-4.88,55.85.56,3.58-1.68,3.23-3.73,3.25-7.94,0-15.88-.08-23.82.07-3.29.06-4.84-1.18-5.16-4.46C197.94,708.81,197.27,706.3,196.61,702.8Zm4.95-43.62c-9.17,4.05-18,5.85-25.71,10.49-6.5,3.92-9.31,12.86-6.17,18.51,2.73,4.94,10.57,5.65,17.68,1.4C198.49,682.92,200.14,671.83,201.56,659.18Z"/><path class="cls-2" d="M718.83,698.42c-8.73,9.37-15.73,17.19-26.88,19.43-16.64,3.35-28.05-4.12-31.3-20.65-2.63-13.4.68-26.36,2.31-39.41,2.3-18.36,5.47-36.61,7.7-55,.77-6.34,3.09-8.47,9.44-7.9a144.94,144.94,0,0,0,20.63.05c4.6-.23,5.83,1,5.11,5.74-3.14,20.65-5.93,41.35-8.84,62-.08.53-.19,1-.26,1.57q-2.1,15.24,6.56,17.55c6.1,1.63,13.25-3.44,16.19-12.29,5-14.91,5.44-30.67,8.12-46,1.18-6.77,2.7-13.58,2.82-20.4.13-7.33,3.44-8.69,9.83-8.2a173.32,173.32,0,0,0,20.64,0c4.56-.21,5.19,1.57,4.59,5.63q-8,54.54-15.68,109.14c-.62,4.41-2,6.5-6.92,6.15a154.52,154.52,0,0,0-19.84,0c-5.32.3-7.27-1.18-5.62-6.63C718.25,706.52,718.21,703.53,718.83,698.42Z"/><path class="cls-2" d="M1001.45,667.06c-9.27,0-18.56.3-27.81-.11-5.19-.23-6.41,1.79-6,6.45.58,6.83,1.56,13.73,8.73,16.52s13.65,0,18.4-5.81c2.49-3.06,5.09-4,8.87-3.44,7.58,1.18,15.2,2.22,22.83,3,3.89.38,4.27,1.5,2.56,4.87-12.87,25.38-47.78,38-73.81,26.43-9.69-4.29-15.48-12.26-18.11-22-8.82-32.56-2.94-62.22,21.08-86.49,16-16.14,36.19-17.78,56.81-10.32,15.65,5.67,20.77,19.53,22.58,34.61,1.27,10.54.37,21.13-1.12,31.68-.55,3.86-2.13,4.71-5.6,4.66C1021.05,667,1011.25,667.06,1001.45,667.06Zm-14.31-22.63c4.24,0,8.47,0,12.7,0,1.54,0,3.19.21,4.16-1.53,1.81-3.23-1.12-16.36-4.56-19.49-4.77-4.32-10.09-4.06-15.44-1.22-3.87,2.06-6.34,5.5-8.38,9.28-6.5,12.08-6,13,7.56,13Z"/><path class="cls-1" d="M295.36,610.71c2.85-2.67,5.69-5.37,8.56-8,10.76-10,25.11-13.41,35.69-8,12.55,6.47,15,18.73,13.69,30.68-3,28.64-7.65,57.11-11.44,85.67-.5,3.74-2,4.85-5.54,4.76-8.2-.2-16.42-.25-24.62,0-4.57.14-5.08-1.56-4.44-5.67,3-19.06,5.74-38.17,8.38-57.29a105.65,105.65,0,0,0,.74-14.24c0-3.88-1.16-7.52-5.37-8.8a11,11,0,0,0-11.12,2.28c-6.37,5.73-8,13.61-9.21,21.43-2.89,18.27-5.62,36.59-7.92,55-.7,5.6-2.48,7.84-8.35,7.39a143.48,143.48,0,0,0-20.63,0c-5.64.38-6.67-1.85-5.91-6.88,4-26.93,7.86-53.9,11.77-80.85,1.32-9.16,2.91-18.29,3.89-27.48.46-4.42,2.21-6.09,6.52-5.66,2.36.23,4.76,0,7.14,0,5.83.05,12.74-1.83,17.17.69,4.9,2.77-1.32,10,1.12,15.14-1-.44-1.1,0-.8.81C294.9,611.36,295.13,611,295.36,610.71Z"/><path class="cls-2" d="M888.28,592.37c22.76,1.48,32.44,9.21,35.3,27.7.57,3.67.19,5.23-3.89,5.55-5.78.45-11.5,1.75-17.27,2.36-5.57.59-11.09,2.94-13.88-6-2.08-6.64-14.54-6.47-19.11-.76-4.37,5.46-2.7,11.46,4.23,13.43s14,2.94,20.86,4.68c20.69,5.2,29.48,19.68,24.77,40.52-5.31,23.51-22,37.38-46.78,38.8a88.45,88.45,0,0,1-20.54-1.2c-16.24-2.89-25.61-13.1-27.2-29.45-.4-4.16.37-6.24,5-6.66,8.42-.77,16.82-1.84,25.15-3.26,4.42-.76,4.4,1.84,5.28,4.77a14.12,14.12,0,0,0,23.93,5.77c5.94-6.06,4.52-13.41-3.45-16.08-8.26-2.77-16.8-4.69-25.06-7.45-14-4.68-20-13.18-20.18-27.8C835,608.36,856.27,590.29,888.28,592.37Z"/><path class="cls-2" d="M787.32,715.79c-17.07,0-17.31,0-14.88-17.23,6.78-47.93,13.81-95.81,20.57-143.74.61-4.37,2.32-5.8,6.61-5.63a211.51,211.51,0,0,0,22.24,0c5.74-.37,6.57,1.87,5.82,6.89-4.43,29.83-8.63,59.68-12.95,89.52-3,20.42-6.44,40.77-8.71,61.26-.85,7.69-3.56,10.14-10.76,9C792.67,715.45,790,715.79,787.32,715.79Z"/><path class="cls-3" d="M557.64,102.3c-.8-.37-2-.33-1.68-1.79C557.35,100.33,557.69,101.14,557.64,102.3Z"/><path class="cls-3" d="M295.36,610.71l-.68,1c-.3-.83-.18-1.25.8-.81Z"/></svg>