<svg id="Layer_1" data-name="Layer 1" xmlns="http://www.w3.org/2000/svg" viewBox="0 0 1106.13 743.43"><defs><style>.cls-1{fill:#c38d10;}.cls-2{fill:#011244;}</style></defs><title>bank-sultra</title><path class="cls-1" d="M620.06,499.2C761.47,385.35,921.31,325.63,1102.94,327c-12.06,1.92-24.15,3.72-36.19,5.78a568.77,568.77,0,0,0-63.24,14.8,612.88,612.88,0,0,0-90.64,34.51,659.25,659.25,0,0,0-100.56,59.3,732.77,732.77,0,0,0-69.5,56.26,6.23,6.23,0,0,1-4.45,1.9q-58.15-.07-116.3,0A17.69,17.69,0,0,1,620.06,499.2Z"/><path class="cls-2" d="M775.8,345.24c-8.48,0-16.31,0-24.14,0-1.75,0-2-1.31-2.67-2.36-5.3-8.69-10.56-17.4-15.9-26.07-3.3-5.36-7.12-9.78-14.43-9.08-2.37.22-3,.7-2.95,3.05.13,10.2,0,20.41.12,30.62,0,2.86-.45,4.1-3.71,3.9-5.15-.31-10.33-.17-15.49,0-2.17,0-3.18-.24-3.17-2.85q.15-46.12,0-92.24c0-2.5.8-3,3.08-3,12.66.18,25.32.17,38,.34a41.18,41.18,0,0,1,16.81,4c17.08,7.91,17.08,34.44,1.28,44.9-3,2-6.39,3.25-10,5,6.52,3,10.39,8.34,14,13.79C763,324.91,769.12,334.75,775.8,345.24Zm-60-67.79c0,3.87,0,7.73,0,11.59,0,1-.3,2.15,1.39,2.1,5.38-.14,10.83.61,16-1.84,5.32-2.55,8.29-8.18,7.65-14.7-.53-5.42-3.72-8.57-10-10.1-4.46-1.09-9-.33-13.44-.59-1.92-.11-1.54,1.26-1.54,2.34C715.76,270,715.77,273.72,715.77,277.45Z"/><path class="cls-2" d="M449,278.77c0-9.94.1-19.89-.06-29.84,0-2.72.76-3.55,3.47-3.44,5.16.21,10.34.26,15.49,0,3.1-.16,3.56,1,3.54,3.77-.11,17.82-.06,35.65-.05,53.48,0,5.06.47,10,2.78,14.68,3,6.05,9.14,9.17,17.21,8.58,7.48-.55,12.46-4.21,14.63-10.65,1.55-4.61,1.75-9.36,1.75-14.15,0-17.18.12-34.37-.1-51.55,0-3.55,1-4.34,4.32-4.16,5.15.29,10.33.13,15.5.05,1.7,0,2.6.28,2.57,2.29-.29,20.79.82,41.62-.57,62.37-.82,12.32-5.57,23.16-16.89,29.66-9.55,5.49-20.1,6.17-30.81,5-8.81-1-16.84-3.83-23-10.64-6.45-7.15-9-15.92-9.41-25.22-.44-10.05-.1-20.14-.1-30.22Z"/><path class="cls-2" d="M781.34,345.25c6.63-18.3,13-35.95,19.42-53.58C805.82,277.77,811,263.91,816,250c.75-2.1,1.68-2.79,3.84-2.75,6.71.13,13.43.18,20.13,0,2.49-.07,3.63.74,4.44,3.06,5.87,16.75,11.88,33.46,17.81,50.19q7.56,21.27,15.05,42.58l.8,2.21c-7.8,0-15.23,0-22.65,0-1.87,0-2-1.3-2.35-2.5-1.77-5.64-3.58-11.28-5.28-16.95a2.83,2.83,0,0,0-3.25-2.38c-9.94.11-19.88.09-29.82,0-1.84,0-2.71.52-3.24,2.35-1.62,5.69-3.43,11.33-5.2,17-.41,1.32-.66,2.57-2.7,2.53C796.32,345.16,789.11,345.25,781.34,345.25Zm48-79.89a44.92,44.92,0,0,1-2.14,9.33c-3.12,9.53-6.07,19.12-9.27,28.62-.88,2.61-.18,3,2.28,3,5.68-.15,11.36,0,17,0,4.69,0,4.63,0,3.18-4.51C836.64,289.85,832.21,278.17,829.34,265.36Z"/><path class="cls-2" d="M363.94,317.92a43.25,43.25,0,0,0,20.27,9.23c5.86.92,11.79,1.2,17.43-1.39,6.59-3,7.73-9.67,2.46-14.72-4.68-4.48-10.76-6.5-16.54-9a66.34,66.34,0,0,1-11.95-6.27c-9-6.3-13.23-15-12.05-25.94,1.28-11.82,8.35-19.15,19.25-22.79,13.49-4.51,27.11-4,40.73-.26,2.26.62,3.12,1.51,3,3.93-.19,5.63-.06,11.26-.06,17.48a45.73,45.73,0,0,0-25-6.69,23.1,23.1,0,0,0-9.34,2.2c-6.14,2.94-7.14,9.68-2.06,14.2,4.51,4,10.16,6,15.56,8.37,7.57,3.35,14.91,6.92,20.23,13.71,7.84,10,7.66,33.07-10.29,40.8C403.52,346,391,346,378.37,344.16c-4.86-.72-10.63-1-13.66-4.49-2.58-3-.56-8.41-.75-12.75C363.84,324.14,363.94,321.34,363.94,317.92Z"/><path class="cls-2" d="M242.56,328.45V315.92c0-22,.07-43.92-.09-65.87,0-3.25,1.08-3.79,4-3.73,8,.16,8,0,8,8.13,0,29.06,0,58.12.07,87.18,0,2.79-.63,3.36-3.51,3.78-8.25,1.18-12.67-2.18-17-9.25-14.44-23.62-29.82-46.67-44.84-70-.82-1.28-1.57-2.62-2.74-4.58V266c0,25.44,0,50.89.15,76.33,0,2.42-.69,3-3,3-8.77,0-8.77.13-8.77-8.47,0-28.81.05-57.61-.07-86.41,0-3.1.71-3.8,3.92-4.22,8.34-1.06,12.93,2.16,17.31,9.43,13.89,23.07,28.77,45.53,43.29,68.22C240,325.2,241.06,326.43,242.56,328.45Z"/><path class="cls-2" d="M628.53,305.05c0-12-.08-24,.07-36,0-2.73-.39-3.8-3.5-3.68-7.1.29-14.21,0-21.31.15-2.36,0-3.2-.59-3.09-3,.19-4.13.11-8.27,0-12.4,0-1.82.24-2.83,2.48-2.83q36.62.11,73.25,0c1.8,0,2.52.51,2.47,2.41-.12,4.26-.17,8.54,0,12.79.1,2.39-.62,3.1-3,3-7-.16-14,.21-20.92-.16-3.69-.2-4.09,1.18-4.08,4.33.12,23.9,0,47.8.15,71.7,0,3.28-.85,4.15-4,4-5.15-.28-10.33-.2-15.49,0-2.43.09-3-.68-3-3C628.59,329.86,628.53,317.45,628.53,305.05Z"/><path class="cls-2" d="M43.08,292.46c3.47,1.2,6.53,1.78,9.26,3.32,14.7,8.29,16.08,30,2.62,41.63a31.93,31.93,0,0,1-20.57,7.77c-9.43.25-18.87,0-28.3.11-2.11,0-2.91-.46-2.91-2.76q.12-46.71,0-93.42c0-1.89.35-2.84,2.53-2.76,10.32.34,20.66-.45,31,.56,11.42,1.11,20.48,8.29,22.18,17.83,2.07,11.65-3.47,21.88-14.62,27C43.94,291.91,43.63,292.13,43.08,292.46ZM15,316.9c0,5.16,0,10.33,0,15.5,0,.9-.55,2.27,1.22,2.21,8.23-.27,16.6,1.07,24.63-1.62,7-2.35,11.08-8.74,11-16.52S48.13,303.7,40.7,301.12c-7.91-2.76-16.1-1.4-24.18-1.74-1.92-.08-1.51,1.32-1.51,2.4C15,306.82,15,311.86,15,316.9Zm0-43.66c0,4.39,0,8.78,0,13.17,0,.87-.66,2.38,1,2.36,7.94-.08,16.11,1.24,23.45-3.13,5.93-3.52,8.56-10.68,6.9-18.28-1.2-5.52-5.78-9.21-12.87-9.76-5.39-.43-10.84-.24-16.25-.45-2-.08-2.37.77-2.33,2.52C15.07,264.19,15,268.71,15,273.24Z"/><path class="cls-2" d="M551,296c0-15.1.07-30.21-.06-45.31,0-2.73.73-3.55,3.44-3.44,5,.21,10.08.25,15.1,0,3.17-.17,4.13.73,4.11,4-.14,24,0,48-.15,72,0,3.23.88,4.08,4.06,4,9.67-.21,19.36,0,29-.12,2.24,0,3.24.42,3.1,3-.22,4.25-.13,8.52,0,12.77,0,1.87-.58,2.43-2.43,2.42q-26.91-.09-53.83,0c-2.76,0-2.36-1.59-2.36-3.25Z"/><path class="cls-2" d="M72.53,345.25c5.35-14,10.49-27.63,15.71-41.19,7.07-18.38,14.24-36.72,21.23-55.13.73-1.92,1.52-2.56,3.53-2.6,9.56-.18,9.37-.17,12.81,8.84,10.55,27.68,21.26,55.29,31.9,82.93.87,2.25,1.68,4.52,2.55,6.87-12.81,1.19-12.77,1.18-16.84-10.33-1.76-5-3.82-9.85-5.52-14.84-.58-1.73-1.48-2.08-3.09-2.07-12.27,0-24.54.07-36.81,0-2,0-2.9.67-3.56,2.6-2.51,7.44-5.33,14.77-7.86,22.2-.68,2-1.52,2.95-3.79,2.79C79.58,345.08,76.34,345.25,72.53,345.25ZM99.4,306.76h33.68q-8.58-23.53-16.89-46.33C110.68,275.62,105.1,291,99.4,306.76Z"/><path class="cls-2" d="M291.78,296.94c0,15.37-.09,30.07.07,44.77,0,2.93-.75,3.67-3.64,3.61-8.23-.15-8.23,0-8.23-8.26,0-28.8,0-57.59-.07-86.39,0-3.17.42-4.55,4.11-4.39,7.75.32,7.76.08,7.76,8V292.6c7.82-9.09,15.09-17.52,22.34-26,4.95-5.77,10-11.49,14.78-17.39,1.7-2.08,3.44-3.11,6.19-2.91,3.29.24,6.61,0,10.84,0-4,4.53-7.44,8.44-10.9,12.33-9.88,11.06-19.7,22.17-29.7,33.11-1.64,1.8-1.36,2.59.08,4.2q20.44,23,40.72,46.09c.74.84,1.39,1.75,2.49,3.14-5.19,0-9.78-.09-14.36,0-1.75,0-2.5-1-3.4-2.09Z"/><path class="cls-2" d="M59.47,403Q46.92,424,34.38,445.11c-.83,1.4-1.5,2.6-3.47,2.41-2.19-.22-1.7-1.87-1.95-3.16q-3.84-20.31-7.63-40.63a6.69,6.69,0,0,0-1.38-3q-4.44,21.93-8.88,43.85c-.48,2.37-5.46,4.19-7.22,2.68-.72-.62-.35-1.42-.2-2.13C7.28,427.6,11,410.08,14.51,392.54,15,390,16,389,18.79,389.08c6.6.22,6.52.06,7.7,6.63,2.26,12.67,4.63,25.31,7.14,39,1.95-3.6,3.41-6.46,5-9.22q9.83-16.86,19.73-33.66c1.26-2.15,9.3-3.88,11.42-2.5,1.26.82.39,1.9.21,2.78-2.4,11.73-4.87,23.45-7.31,35.17C61.46,433.17,60.25,439.1,59,445c-.2,1-.07,2.31-1.45,2.38a18.41,18.41,0,0,1-5.71-.31c-.91-.26-.15-1.85,0-2.81q3.95-18.32,7.9-36.62c.27-1.26.37-2.54.54-3.81.52-.85,1.06-2,.13-2.52C59.94,401,59.78,402.35,59.47,403Z"/><path class="cls-2" d="M234.76,417.71c6.16,1.9,9.12,5.48,9.27,10.75.2,6.64-3.2,11.45-8.83,14.8-5.41,3.21-11.45,3.8-17.49,4.13-5,.27-10.06,0-15.09.13-1.92,0-2.44-.47-2-2.44q5.75-26.79,11.31-53.6c.3-1.44.52-2.41,2.28-2.34,6.31.25,12.66-.53,18.93.55,10.26,1.77,15.25,9.76,12,19.14C243.53,413.29,239.76,415.55,234.76,417.71Zm-26,23c4.35,0,8.49.27,12.58-.07,4.24-.36,8.47-1.24,11.75-4.34,2.85-2.69,4-6.06,2.9-9.82s-4.1-5.17-7.74-5.31c-4.51-.17-9-.13-13.55-.24-1.42,0-2,.5-2.23,1.95C211.37,428.77,210.07,434.64,208.79,440.69Zm12.62-26.45c4.23-.07,8.54.33,12.38-2.05,5.75-3.56,6.48-11.82,1.14-14.74-5-2.72-10.77-2.15-15.88-1.23-2.84.51-1.59,5.65-2.65,8.57a18.75,18.75,0,0,0-.59,2.23C214.15,414.24,214.16,414.24,221.41,414.24Z"/><path class="cls-2" d="M414.9,411c10.39-9,21.36-7.34,23.77,1.93,4.07-4.93,8.87-8.22,15.6-7.82,5.88.35,9.72,4,9.51,9.92-.31,9.07-3.33,17.7-4.84,26.59-.13.75-.4,1.48-.53,2.23a4.66,4.66,0,0,1-6.61,3.63c-1.48-.67-.69-1.76-.51-2.65,1.51-7.31,3.11-14.6,4.6-21.92a33.78,33.78,0,0,0,.75-5.75c.19-5-2.31-7.16-7.31-6C443,412.54,439.41,417,437.89,423c-1.82,7.1-3.16,14.33-4.71,21.5-.54,2.49-4.74,4.3-6.73,2.85-1.28-.93-.35-2.19-.15-3.19,1.47-7.33,3.08-14.63,4.6-21.95a31.29,31.29,0,0,0,.63-4.2c.41-6-3-8.65-8.74-6.54a15.63,15.63,0,0,0-10,11.48c-1.77,7.11-3.12,14.33-4.64,21.51-.53,2.52-4.64,4.34-6.75,3-.88-.57-.53-1.37-.38-2.09q4-18.9,7.95-37.79c.57-2.7,2.68-1.21,4.09-1.5,1.57-.33,2,.65,1.89,2.06C414.85,408.85,414.9,409.63,414.9,411Z"/><path class="cls-2" d="M387.58,409.77c1-1.31,1.08-3.15,2.46-3.6a6.22,6.22,0,0,1,4.17,0c1.44.68.45,2.31.21,3.49-1.89,9.21-3.83,18.4-5.74,27.6-.58,2.8-.84,5.39,3.42,4.68.82-.14,1.82,0,1.44,1.09-.64,1.74.24,4.29-2.72,4.92-5,1.05-8.16-.95-9.52-6.52-2.15,2-4,4.08-6.59,5.38-8.25,4.22-16.42.28-17.48-8.92a34.7,34.7,0,0,1,7.65-26.76C370.55,404.15,381.82,402.29,387.58,409.77Zm-23.67,22.05c-.06,6.2,1,9,3.48,10.05,3.19,1.38,6.06.32,8.65-1.61a18.78,18.78,0,0,0,3-2.95c5.19-6.13,5.11-14.06,7.16-21.26.31-1.07-.65-1.61-1.23-2.24-4.12-4.45-10.86-3.89-15.11,1.34S364.36,426.6,363.91,431.82Z"/><path class="cls-2" d="M501.84,409.62c.89-1.37,1.36-2.95,2.31-3.33a6.52,6.52,0,0,1,4.52-.1c1.67.69.2,2.32,0,3.36-1.86,9.33-4,18.61-5.86,27.93-.41,2-1.33,4.62,2.51,4.53.86,0,2.84-1,2.4,1.13-.34,1.65.43,4-2.32,4.72-4.92,1.28-8.24-.77-9.94-6.53a19.83,19.83,0,0,1-9.3,6.61c-6.19,1.88-11.67-.95-13.79-7.07-3.43-9.92,1.32-25.92,9.51-32.38C486.91,404.51,496.13,402.8,501.84,409.62ZM478,433.71c.53,2.9.08,6.59,3.67,8.15,3.79,1.66,7-.08,9.86-2.59a19.26,19.26,0,0,0,3.74-4.89c3.19-5.51,3.44-11.82,5-17.76.4-1.49-.53-2.4-1.52-3.3C494,409,487.06,410.41,483,416.63,479.66,421.75,478.58,427.54,478,433.71Z"/><path class="cls-2" d="M104.45,409.46c.76-1.11,1.29-2.77,2.34-3.22a6,6,0,0,1,4.49,0c1.38.67.24,2.33,0,3.49-1.86,9.22-3.81,18.41-5.74,27.62-.55,2.66-.78,5.1,3.23,4.55,1-.14,2,.14,1.47,1.41-.62,1.62.17,4-2.56,4.56-5.25,1.15-8.32-1-9.32-6.92a22.56,22.56,0,0,1-8.16,6.45c-7.12,3-14.51-.46-15.78-8-1.76-10.53.46-20.39,7.65-28.54C88.66,403.39,97,403.07,104.45,409.46Zm-23.7,23.72c0,.68,0,1.59.14,2.48.7,6.36,5,8.59,10.64,5.51a15.2,15.2,0,0,0,5-4.7c3.77-5.2,4.58-11.36,5.74-17.42.88-4.57-.64-7.05-5.22-8-4.21-.86-7.61.72-10.23,3.93C82.6,420.21,81.14,426.41,80.75,433.18Z"/><path class="cls-2" d="M282.63,440.28c.67,5.4-2.52,6.91-6.73,7.65a27.28,27.28,0,0,1-10.38.17c-6.26-1.35-10.51-4.8-12-11.51-2.42-11.14,3.16-24.43,12.76-29.54,4.59-2.44,9.45-2.53,14.29-1.36a9.7,9.7,0,0,1,7.53,8,10.28,10.28,0,0,1-3.66,10.39c-3.68,3.16-8.27,4-12.84,4.8a32.84,32.84,0,0,1-7.7.63c-3.88-.28-4.55,1.36-3.82,4.73,1.07,5,3.06,7,8.17,7.88a19.47,19.47,0,0,0,7.3-.25C277.93,441.38,280.27,440.81,282.63,440.28Zm-19.29-16.82c5.34-.54,10-.41,14.29-2.66,2.6-1.38,4.38-3.36,3.46-6.51s-3.55-3.59-6.2-3.43c-6.4.37-10.12,4.3-12.67,9.82C261.15,423,261.57,423.78,263.34,423.46Z"/><path class="cls-2" d="M154.42,448.47c-11,0-16.15-6.15-14-16.92,1.52-7.71,3.33-15.35,4.73-23.07.8-4.39,4-2.44,6-2.31,2.69.18.73,2.47.53,3.59-1.34,7.47-3,14.88-4.4,22.33-1,5.42,0,8.34,3.21,9.67,4.45,1.86,10.22.39,12.89-3.34,3-4.27,3.09-9.48,4.31-14.3,1.34-5.23,2.26-10.56,3.23-15.88.76-4.12,3.92-2,5.88-2.1,2.5-.08,1,2.1.84,3.18-1.67,8.33-3.32,16.66-5.24,24.93C170.2,443.73,164.08,448.44,154.42,448.47Z"/><path class="cls-2" d="M340,405.19a25,25,0,0,1,9.11,1.37c2.07.66,2.81,1.65,2.25,3.89s-1.3,2.95-3.62,2a17.36,17.36,0,0,0-11.33-1.19c-2.75.74-5,2.22-5.14,5.49s1.81,4.6,4.35,5.63c1.67.67,3.29,1.47,5,2,4.43,1.4,7.57,4,8,8.85s-1.21,9.3-5.48,12c-7.1,4.52-14.72,4-22.27,1.24-2.87-1.05-.68-3.28-.52-4.94.22-2.27,1.7-.84,2.54-.58,4.5,1.39,9,2.2,13.67.8,3.18-.95,5.2-3,5.3-6.35.09-3.13-2.13-4.76-4.83-5.8-1.56-.59-3.14-1.14-4.68-1.8-6.8-2.92-8.8-6.1-7.83-12.32.83-5.29,5.74-9.68,11.59-10.28A38.41,38.41,0,0,1,340,405.19Z"/><path class="cls-2" d="M107.58,468.52a13.46,13.46,0,0,1-2.41-.19c-1.51-.31-3.72-.05-2.76-2.86.6-1.74-.15-4.14,3.53-3.28,5.89,1.36,9.22-.74,10.57-6.66,3.44-15.2,6.62-30.47,9.69-45.75.59-2.94,1.58-3.95,4.68-3.92s3,1.14,2.52,3.43c-2.44,11.34-4.8,22.69-7.18,34-.93,4.41-1.79,8.84-2.81,13.23C121.48,464.86,116.73,468.56,107.58,468.52Z"/><path class="cls-2" d="M307.12,410.59c3.18-3.37,6.94-5.93,12-5.46,1,.09,3.13-.85,2.68,1.38-.38,1.87.58,4.8-2.43,5.34-11.51,2-14,4.53-16.19,16-1.07,5.7-2.55,11.33-3.47,17.06C299,449,296,447.47,294,447.37c-2.88-.13-1.32-2.54-1.07-3.78,2.34-11.62,5-23.17,7.19-34.82.59-3.15,2.26-2.71,4.3-2.8,2.75-.13,1.77,1.85,2,3.19C306.49,409.62,306.21,410.2,307.12,410.59Z"/><path class="cls-2" d="M132.34,396.5c-.75-.84-3.09,1.5-3.22-1.41-.19-4.53,1.15-6.27,4.92-6.06,1.13.07,3.39-1.39,3.29,1.6C137.17,395.42,136.32,396.5,132.34,396.5Z"/><path class="cls-2" d="M59.47,403c.31-.6.47-1.93,1-1.61.93.56.39,1.67-.13,2.52C60.06,403.55,59.76,403.25,59.47,403Z"/></svg>