<svg id="Layer_1" data-name="Layer 1" xmlns="http://www.w3.org/2000/svg" xmlns:xlink="http://www.w3.org/1999/xlink" viewBox="0 0 1106.13 743.43"><defs><style>.cls-1{fill:url(#linear-gradient);}.cls-2{fill:#085092;}.cls-3{fill:#f1383f;}</style><linearGradient id="linear-gradient" x1="3.18" y1="354.66" x2="148.01" y2="354.66" gradientUnits="userSpaceOnUse"><stop offset="0" stop-color="#085092"/><stop offset="1" stop-color="#2aa7de"/></linearGradient></defs><title>bank-sulut-go</title><path class="cls-1" d="M130,336.74c8.77,11.54-.73,26-11.78,29.17-6.72,1.9-13.42,1.29-20-.44-8.29-2.16-16.06-6.12-24.7-7.15-4.31-.52-8.37-.2-12.53,2.65a5.68,5.68,0,0,0,1.22.66c13.83,2.74,26.7,8.16,39.48,13.91,6.64,3,13.53,5.37,20.95,5.44,12,.11,17.4-6.2,15.53-18-.13-.82-.27-1.64-.54-3.26,5,6.12,6.39,12.22,4.23,19.07-3.43,10.82-13.72,17.06-26,15.91-9.62-.9-18.65-4-27.69-7.06-8-2.73-15.8-6.12-24.11-8A33.92,33.92,0,0,0,50,379a7.6,7.6,0,0,0-2.08.55c-1.77.93-4.68,1.51-4.33,3.7.29,1.84,3.06.76,4.7.86a78.64,78.64,0,0,1,26.13,6.48c11.68,5,22.68,11.55,34.8,15.42,7.35,2.34,15,3.7,22.75,1.87,7.15-1.68,11.56-6.62,14.51-13.46a17.43,17.43,0,0,1-1,16.12c-5.53,9.55-13.78,14.72-25,14.71-10,0-19.32-3-28.49-6.63C82.61,415,73.6,410.31,64.45,406q-31.2-14.7-57.28,7.73c-1,.83-1.68,2.07-4,1.94,2.84-3.46,5.34-6.58,7.9-9.64q28.07-33.57,56.16-67.1c5.15-6.15,11.45-9.95,19.79-9.68a40.2,40.2,0,0,0,12.9-1.83c5.45-1.65,9.09-4.67,9.16-11.4.09-9.76,1.66-19.31,7.23-27.72.6-.9,1.35-1.71,2-2.62.4-.61.64-1.32,1.46-1.62-3.46,9.82-2.43,19.3.14,28.76,4.29,15.81-8.09,25.08-19.61,25.44-5.06.16-10.15-.47-15.23-.5a19.66,19.66,0,0,0-10.72,2.86,2.69,2.69,0,0,0-1.34,1.9c-.06.67.75.88,1.59,1,7,.95,13.47,3.79,20.15,5.87,7.3,2.28,14.65,4.22,22.41,4C127.29,353.14,132.81,347,130,336.74Z"/><path class="cls-2" d="M214.35,377.31c2.12.72,4.26,1.4,6.36,2.17,7.59,2.78,13,7.6,13.64,16.11.62,7.71-2.89,13.49-9.25,17.66-7.11,4.66-15.17,5.37-23.32,5.45-12.36.12-24.71.05-37.07,0-.92,0-2.48.69-2.59-1s1.48-1.13,2.42-1.25c6.77-.91,7.36-1.46,8.27-8.15a31,31,0,0,0,.24-4q0-24.89,0-49.78a27.27,27.27,0,0,0-.16-3.26c-.89-7.26-1.32-7.68-8.54-8.61-.87-.11-2.2.26-2.25-1.18s1.25-1.2,2.14-1.18c15.74.23,31.5-.73,47.21.61,7.34.63,13.33,3.89,17.12,10.62,4.59,8.17,1.92,17.69-6.37,22C219.74,374.82,217.23,376,214.35,377.31Zm-23.11,17.93V406.5c0,.24,0,.49,0,.73.09,5.32,2.09,7.14,7.44,6.72,14.7-1.15,16.83-15.8,12.86-25a12.67,12.67,0,0,0-8.71-7.57,46.53,46.53,0,0,0-9.36-1.06c-1.7-.11-2.33.42-2.28,2.22C191.33,386.76,191.24,391,191.24,395.24Zm0-35.65v7.63c0,9.24,0,9.24,9.11,7.21,6.51-1.44,10.33-6,10.66-12.83.41-8.42-2.63-13.58-9.39-15.64a30.61,30.61,0,0,0-7.88-1c-2.17-.09-2.61.74-2.54,2.69C191.34,351.6,191.24,355.6,191.24,359.59Z"/><path class="cls-2" d="M441.4,377.68c7.91-6.37,15.16-12.19,22.4-18,3.38-2.74,7-5.23,9.92-8.47,1.54-1.69,2.81-3.6,1.82-5.87-.92-2.11-3-2.5-5.23-2.57-1.06,0-2.86.52-2.84-1.3s1.83-1.13,2.86-1.13q12.36-.1,24.73,0c1.05,0,2.83-.74,2.9,1.13s-1.74,1.2-2.81,1.41a14.3,14.3,0,0,0-6.2,2.87c-9.65,7.69-19.25,15.44-28.94,23.08-1.64,1.29-1.63,2.17-.36,3.75,9.24,11.5,18.3,23.15,27.63,34.58,3.42,4.2,7.07,8.41,13,9.21.72.1,1.48.24,1.47,1.24,0,1.29-1,1.17-1.8,1.17H462.88c-.81,0-1.83.22-1.95-1s.81-1.28,1.64-1.54c5.35-1.69,5.75-2.35,2.63-7.14-5.16-7.91-11.6-14.87-17.29-22.39a24,24,0,0,0-2.25-2.84c-.62-.61-1-2.05-2.12-1.53s-2.25,1.12-2.24,2.58c.06,9-.13,18,.35,26.9.19,3.37,3.57,4.14,6.6,4.58,1,.14,2.89-.57,2.64,1.47-.19,1.59-1.75.92-2.71.92q-17.08.07-34.18,0c-1,0-2.88.77-2.83-1.16s1.87-1,2.92-1.08c6.11-.46,7.85-1.93,7.88-8q.18-29.08,0-58.18c0-5.6-1.88-7.28-7.4-7.72-.84-.07-1.69-.06-2.54-.13a1,1,0,0,1-.94-.92,1,1,0,0,1,1-1.21c.6-.06,1.21-.06,1.81-.06,11.16,0,22.31,0,33.46,0,1.05,0,2.81-.7,2.85,1.18,0,1.52-1.6,1.11-2.58,1.27-4.42.69-6.21,2.51-6.25,6.93C441.34,358.73,441.4,367.78,441.4,377.68Z"/><path class="cls-2" d="M1058.62,420.55c-16.27-.37-29.88-8.18-36.58-25.68-8-21,.39-45.19,22.76-53.14,16.83-6,38.68-3.42,50.3,13.52,9.77,14.25,10.26,29.48,2.32,44.58C1089.76,414.39,1076.87,420.66,1058.62,420.55ZM1040.46,380a63.33,63.33,0,0,0,3.11,22.16c3.09,8.81,8.91,13.53,17.12,13.6,8.49.06,14.09-4.3,17.49-13.09a53.72,53.72,0,0,0,3.13-17.74c.33-9.91.45-19.85-3.32-29.3-2.79-7-7.53-11.73-15.52-12.24s-13.68,3.2-17.29,10.16C1041,361.65,1040.42,370.44,1040.46,380Z"/><path class="cls-2" d="M994.89,385.64c5.57,0,11.14,0,16.72,0,.86,0,2.11-.44,2.22,1.1s-1.11,1.29-2,1.5c-6.24,1.41-7.16,2.52-7.23,9.08-.05,4.72,0,9.45,0,14.17,0,1.22.12,2.39-1.39,3-15.37,5.91-31.19,8.82-47.15,3.68-15.22-4.9-25.52-15.28-27.77-31.73-2.37-17.3,4-31.25,18.53-40.85,13-8.59,27.18-9.08,41.72-4.25,1.72.56,3.39,1.27,5.11,1.79,5.08,1.51,5.54,1.32,8.23-3.07.49-.79.73-2,2-1.51,1.1.39.65,1.45.66,2.21,0,7.63,0,15.26,0,22.89,0,.84.61,2.1-.79,2.43s-1.7-1-2.08-1.95a35.64,35.64,0,0,0-11.28-15.26c-11.43-8.67-33.14-8.85-38.92,12.7a69.48,69.48,0,0,0,.45,39c4.62,15.1,20.58,17.64,32.07,13.57,1.68-.6,1.64-1.79,1.63-3.16,0-4.85,0-9.69,0-14.54,0-6-1.56-7.66-7.56-8.42-.93-.12-2.54.58-2.46-1.22s1.62-1.09,2.57-1.1C983.74,385.62,989.32,385.64,994.89,385.64Z"/><path class="cls-2" d="M341,355.72V369c0,11.51.06,23,0,34.54-.05,7.39,1.69,12.87,10.48,12.87.82,0,1.45.19,1.44,1.17s-.67,1.14-1.47,1.14l-25.1,0c-.77,0-1.49-.15-1.51-1.13s.73-1,1.47-1.2c9.4-2.57,10.2-3.62,10.21-13.37V353.57a11,11,0,0,0-9.19-10.79c-1-.17-2.52.12-2.35-1.52.13-1.35,1.47-1,2.36-1,7.88,0,15.76,0,23.64-.07,1.94,0,2.78,1.09,3.77,2.33q17.94,22.6,35.92,45.22c1.14-.69.57-1.77.58-2.61q.08-15.45,0-30.91c0-6.43-1.9-9.73-6.16-11.09a23.29,23.29,0,0,0-3.57-.55c-.83-.12-1.84-.09-1.72-1.34.1-1,.93-1,1.65-1h22.92c.74,0,1.54.06,1.65,1,.12,1.12-.7,1.29-1.6,1.53-7.58,2-8.49,3.13-8.51,11.32-.05,20.85,0,41.7-.07,62.55,0,1.28,1,3.19-1,3.79-1.77.54-2.37-1.33-3.24-2.4q-23.79-29.31-47.56-58.65C343.34,358.5,342.56,357.57,341,355.72Z"/><path class="cls-2" d="M771.88,372.22c0-7.27.08-14.54,0-21.8-.09-5.8-1.45-7.12-7.2-7.78-1-.12-2.89.51-2.76-1.38.1-1.51,1.72-1,2.71-1q17.63,0,35.25,0c.94,0,2.54-.61,2.46,1.18s-1.64,1-2.59,1.07c-7.35.58-8.49,1.68-8.5,9.11q0,23.81.1,47.61c.07,12.57,9.61,16.25,19.28,14.67,9-1.47,14.27-7.28,15.08-16.47,1.35-15.23.79-30.51.46-45.76-.15-6.59-2-8.07-8.5-9-.85-.12-2.2.28-2.23-1.19,0-1.84,1.49-1.21,2.41-1.21q11.08-.07,22.18,0c1,0,2.5-.52,2.54,1.15,0,1.41-1.35,1-2.24,1.14-6.47.88-8.52,3.15-8.61,10.19-.12,9.44,0,18.9-.07,28.35-.07,5.67-.42,11.33-.86,17-.83,10.76-7,16.95-16.39,20.41A39.57,39.57,0,0,1,789,419c-11.24-3.37-16.87-11.9-17.07-24.56-.11-7.38,0-14.78,0-22.17Z"/><path class="cls-2" d="M607.93,373.82c0-8.24.19-16.48-.07-24.71-.15-4.7-1.76-5.93-6.55-6.39-.72-.07-1.45-.13-2.17-.21s-1.13-.44-1.09-1.17.56-1,1.23-1,1.21,0,1.81,0c11.52,0,23,0,34.55,0,1,0,2.84-.85,2.85,1.1s-1.85,1-2.86,1.13c-6.92.56-8.12,1.72-8.14,8.69,0,15.28.14,30.55-.06,45.82-.17,12.29,5.54,16.48,13.88,17.11,11.22.85,19.58-5.52,20.5-15.92,1.42-16,.83-32,.43-48-.13-5-2.61-6.9-8-7.54-1-.12-2.87.46-2.65-1.5.18-1.56,1.75-.93,2.71-.93q10.92-.07,21.82,0c1,0,2.5-.57,2.49,1.19,0,1.45-1.4,1-2.26,1.11-6.26.87-8.6,3.54-8.64,10.32q-.11,16.18,0,32.37a122.71,122.71,0,0,1-.93,14.85c-1,9-8.87,17.34-19.15,19.36-9.73,1.92-19.49,2.09-28.52-3.34-7.93-4.77-10.61-12.24-10.87-20.88-.21-7.14,0-14.3,0-21.45Z"/><path class="cls-2" d="M535.82,405.75c0-3.75-.09-7.51.06-11.26,0-1.26-1-3.35,1-3.67s1.72,1.92,2.05,3.17c2,7.33,5.51,13.57,11.86,18.07s15.92,5.4,21.48,1.67a10.67,10.67,0,0,0,2.18-16.35c-4.79-5.45-11.59-7.69-17.7-11-6.47-3.53-13-7-17.24-13.41a22.06,22.06,0,0,1,10.75-32.69c8-2.87,15.65-2.17,23.22,1.31,1.2.56,2.42,1.07,3.65,1.58,2.88,1.18,4.91.61,5.81-2.69.2-.75.17-2.21,1.66-1.88s.94,1.53,1,2.41q.27,10.72.43,21.44c0,1,.56,2.33-1.12,2.6s-1.61-1.19-1.83-2.13a26,26,0,0,0-12.06-17c-6.12-3.72-14.85-3.55-19.09.38a9.24,9.24,0,0,0-.61,13.56c3.74,4.16,8.84,6.25,13.65,8.73a141.44,141.44,0,0,1,14.51,8.16c8.92,6,13,14.79,11.08,24.12s-10.33,17.22-20.17,19.06a35,35,0,0,1-21.24-2.69c-4.17-1.87-7.95-2.34-10.56,2.44a1.59,1.59,0,0,1-1.83.85c-1.19-.26-.92-1.26-.93-2.06C535.81,414.23,535.82,410,535.82,405.75Z"/><path class="cls-2" d="M717.62,418.74c-10.54,0-21.09,0-31.63,0-1,0-2.82.81-3-1-.14-2,1.73-1.15,2.74-1.23,6.09-.47,7.79-1.9,7.83-8q.18-29.26,0-58.54c0-5.16-1.86-6.86-6.91-7.32-.49-.05-1,0-1.45-.1-.87-.12-2.2.38-2.24-1.1s1.3-1.14,2.17-1.15c3.15-.05,6.3,0,9.45,0,9.21,0,18.42,0,27.63,0,1,0,2.57-.52,2.55,1.13s-1.61,1-2.58,1.11c-1.2.14-2.43.09-3.62.3-3.19.57-5.31,2.22-5.35,5.75-.08,8.85-.22,17.69-.21,26.54,0,11.15.17,22.29.18,33.44,0,3.49,1.68,5.11,5.06,5.24a137,137,0,0,0,14.89-.06c6.83-.49,11.36-4.27,14.56-10A61.33,61.33,0,0,0,752.05,393c.35-1.08.7-2.22,2.13-2,1.72.3,1,1.73.89,2.64-.75,7.7-1.66,15.38-2.38,23.09-.21,2.24-1.62,2-3.07,2Z"/><path class="cls-2" d="M303.07,418.74c-5.45,0-10.91,0-16.36,0-.83,0-2.14.56-2.27-1s1.13-1.2,2-1.3c7.79-.9,8.51-2.19,5.26-9.44-1.52-3.4-2.19-8-4.8-9.88-2.82-2.06-7.48-.49-11.34-.6-2.66-.08-5.33-.12-8,0s-6.48-1.29-7.6.62c-2.44,4.16-5.09,8.66-4.75,13.86.21,3.32,2.54,4.55,5.7,4.95,1.51.19,4.47-.72,4.19,1.88-.21,2-2.89.81-4.41.84-6.54.15-13.08.07-19.63.05-.79,0-1.8.24-2-1a1.31,1.31,0,0,1,1.18-1.55c7-1.55,9-7.63,11.44-13,9.43-20.65,18.66-41.39,28-62.08.38-.85.42-2.25,1.49-2.3,1.35-.06,1.37,1.46,1.78,2.39q14,31.57,27.94,63.14c1.17,2.64,2.61,5.17,4,7.69a7.32,7.32,0,0,0,5.65,4.11c.83.1,1.78.31,1.74,1.46-.06,1.52-1.28,1.16-2.18,1.16C314.46,418.75,308.76,418.74,303.07,418.74Zm-17.93-27c-3.82-8.75-7.49-17.14-11.36-26-3.95,8.92-7.66,17.3-11.5,26Z"/><path class="cls-2" d="M884.16,340.27c10.53,0,21.07.1,31.61-.07,2.77,0,3.53.77,3.41,3.48-.22,4.83,0,9.68-.11,14.53,0,1.16.9,3-.93,3.41-2.1.47-1.61-1.71-2-2.76-1.67-4.56-3.25-9.06-7.78-11.82s-9.36-2-14.14-2c-1.7,0-1,1.66-1,2.58-.05,9.56,0,19.13,0,28.7,0,10.42,0,20.83,0,31.25,0,6.42,2,8.44,8.31,8.86,1,.06,2.55-.71,2.65,1,.12,2.05-1.7,1.26-2.7,1.27q-17.81.07-35.61,0c-1,0-2.52.61-2.59-1.07s1.52-1.12,2.46-1.19c7-.47,8.54-2.19,8.57-10.49.06-19.38,0-38.76,0-58.14,0-.36,0-.73,0-1.09.09-1.17-.28-1.73-1.6-1.77-10.55-.31-17.48.72-21.06,14-.28,1,.11,2.78-1.69,2.69-2-.1-1.08-1.84-1.09-2.81-.1-5.21.09-10.42-.11-15.62-.1-2.49.77-3,3.07-3C862.6,340.33,873.38,340.27,884.16,340.27Z"/><path class="cls-3" d="M148.62,442.84c.89-.08,1.73-1.23,2.66-.26a2.12,2.12,0,0,1,.1,3c-1.37,1.51.41,2.12.53,3,.2,1.51-1.69,2.44-2.83,3.48a2,2,0,0,1-3,.08,20.9,20.9,0,0,1-1.82-2.22c-1.24.17-2,3.71-3.78.59-.31.19-.63.36-.93.55-1.06.69-1.94,2.16-3.45,1.35-1.86-1,.11-2.6-.3-3.9-1.29.29-1.44,1.56-2.18,2.27-.42.4-.92.72-1.38,1.08-2.32-3.2-3.54.31-5.24.86-1,.31-1.66.17-2.07-.81-.27-.64-.74-1.05-1.39-.59-3.81,2.72-3.83-.81-4.77-3.27-2,3.06-4.92,4.18-8,4.86-2.14.47-4.19.21-5.58-1.64-1.27-1.69-.17-3.19.8-4.61.21-.3.61-.75.52-.92-1.66-3.24.23-3.5,2.83-4.08,2-.46,3-3.42,5.64-3.45.61,1.18-1.08,1.55-.74,2.57.17.1.35.3.53.3,2-.09,4.72-.41,4.51-2.5-.24-2.42-3-1.47-4.8-1.28-2,.21-3.86.4-5.49,2.07-1,1-3.57,2.2-4.48.87-1.12-1.64.94-3.29,2.34-4.27a15.49,15.49,0,0,1,4.36-1.64,21.45,21.45,0,0,1,6.49-.57c2.09,0,4,.51,4.41,2.88s-1.1,3.55-3,4.49a31.4,31.4,0,0,1-8.24,2.4c3.13.69,5.88.59,7.53,3.06.86,1.3,1.38.05,1.85-.44a18.63,18.63,0,0,1,4.89-3.72c1.15-.6,2.56-1.5,3.7-.45s.31,2.49.15,3.73-2.34,2.48-.87,3.35c1.71,1,2.37-1.25,3.36-2.4,1.2-1.38,1.58-5.09,4.87-2.17.22.19,1.4-.69,2.12-1.09s1.38-1.34,2.19-.46a1.86,1.86,0,0,1-.12,2.63c-.87,1-1.9,1.82-1.8,3.51,1.94.1,2.36-1.39,2.89-2.62,1.81-4.21,4.78-7.53,8-10.67.61-.6,1.36-1.83,2.37-.81s-.2,1.76-.73,2.48c-1.14,1.56-2.36,3.06-3.54,4.59-.22.27-.68.71-.63.78C147.6,443.45,148.13,443.18,148.62,442.84Zm-38,6.79c1.87-.36,4.6-.21,4.83-2.61.15-1.58-2.38-1.39-3.82-1.65-2.09-.37-3.26.84-3.45,2.71C108,449.57,109.48,449.49,110.63,449.63Zm10.61.33c2.67-.89,3.8-2.67,4.93-4.48C124.12,446.17,122,446.69,121.24,450Zm26.43-.39c1.18.57,2,.44,2.44-.71a1.08,1.08,0,0,0-.35-.81A2.31,2.31,0,0,0,147.67,449.57Z"/><path class="cls-3" d="M65.38,444c.79.18,2.13-.46,1.87,1.29-.17,1.17-2,2.94,1,3.1-.08.32,0,.79-.25.92-3.56,2.28-5.47,6-8.19,9.06-.63.7-1.52,1.55-2.47.71-.8-.72,0-1.65.45-2.23,1.11-1.53,2.41-2.91,3.93-4.68-1.77-.46-3.55.33-4.64-1.54-.6-1-1.68.41-2.31.94-2.52,2.1-3.53,1.23-3.61-1.95-1.75.22-2.94,4.36-5,.82-.59.42-1.21.8-1.77,1.25-1.93,1.58-3.64,2.46-3.91-1.41-1.92,1.25-3.55,3.81-5.29.26-.3-.63-1,.13-1.5.42-1.13.69-2.06,2.37-3.69.92-1.47-1.3-.32-2.67,0-4,.36-.41,1-.9.56-1.39s-1,0-1.3.53l-2,1.71-.45-.37c.05-.77.72-1.29.39-2.33a3.09,3.09,0,0,1,2.07-3.72,8.48,8.48,0,0,1,5,.89c1,.46.33,1.69-.36,2.47-.86,1-1.87,1.88-1.78,3.59,1.57.14,2.4-.69,3.11-1.91,1.47-2.52,3.9-3.92,6.39-5.18.93-.47,2.08-.94,3.11-.2,1.2.87,0,2,.17,3s-.73,1.45-1.14,2.16-.75,1.47-.07,2,1.67.06,2.2-.56c.68-.82,1-2,1.77-2.69,1.09-1.06,1.74-4.2,4.12-1.24.4.49.82-.1,1.21-.28,3.63-1.75,3.63-1.75,3.79,2.18,2.08-1.5,4-3,6.12-4.37a2.19,2.19,0,0,1,2.72-.07c.79.68-.47,1.26-.22,1.95a1.2,1.2,0,0,0-1.57.59,7.79,7.79,0,0,0-5,5.43,12.83,12.83,0,0,0,5.67-4.86C64.88,444.83,65.45,444.62,65.38,444ZM37,450c2.52-.87,3.7-2.35,5.07-4.6C39.3,446.17,37.61,447.12,37,450Zm17.22-.68c1.69-.34,2.62-.82,2.68-2.24,0-.18-.27-.55-.38-.54C55.14,446.64,54.59,447.57,54.18,449.27Zm7.25,2.24L62,452a4.66,4.66,0,0,0,.52-.84c0-.09-.28-.3-.43-.45Z"/><path class="cls-3" d="M85.22,449.26c1.61-.34,2.31-1.49,2.9-2.92.73-1.75,2.45-2.64,3.91-3.67,1.08-.77,2.58-1.42,3.57,0s-.24,2.49-1.14,3.41a22.39,22.39,0,0,1-2.36,1.69c-.68.53-2.33.62-1.67,1.86s2,.42,2.92,0a23.16,23.16,0,0,0,2.26-1.37c-1.63,4.62-4.49,5.56-8,2.84-.19-.15-.37-.44-.55-.45-2.24,0-3.57,3.07-6.2,1.79-3.31-1.59-3.42,1.21-4.25,3.08-.46,1.05-1,2.78-2.22,2.29-1.49-.58-.57-2.35,0-3.14,3-3.91,3.43-9,6.41-12.88a14.65,14.65,0,0,1,2-2.12c.53-.48,1.3-.89,1.92-.22s0,1.32-.43,1.88c-.59.74-1.5,1.26-1.63,2.33a1.66,1.66,0,0,0,.62.24c1.2-.08,2.3-2.12,3.49-.59,1,1.26-.34,2.47-1,3.58-.38.61-.85,1.18-1.27,1.77l-.72,1C84.38,450,84.84,449.78,85.22,449.26Z"/><path class="cls-3" d="M18.28,438.3c-3.56-.59-6.48.5-9.47.6-1.73.06-.61,3-2.88,2.29-1.44-.43-2.43-.36-1.89-2.45a5.53,5.53,0,0,1,4.25-4.4,26.87,26.87,0,0,1,9.74-.47c2.65.28,3.28,2.64,2.26,4.57-2.34,4.44-5.43,8.47-7,13.34-.3.92-1.1,2.68-2.54,2s-.71-2.43-.18-3.55C12.51,446,15.33,442.42,18.28,438.3Z"/><path class="cls-3" d="M27.26,448.67c-1.33,2.07-3.83,2.28-5.7,3.54s-2.88-.54-3.49-2c-1.24-2.91,2.63-8.47,5.78-8.09,2.49.3,2.4,2.53,2.13,4.47-.12.83-1.18,2,.83,1.68Zm-4.87-2.61a2.68,2.68,0,0,0-2.18,3.21c.05.63.62.69,1.08.64,2.16-.28.83-2.14,1.39-3.15a1,1,0,0,0,0-.36c.1-.25.31-.7.26-.73C22.59,445.43,22.49,445.76,22.39,446.06Z"/><path class="cls-3" d="M54.18,449.27c.41-1.7,1-2.63,2.3-2.78.11,0,.39.36.38.54C56.8,448.45,55.87,448.93,54.18,449.27Z"/><path class="cls-3" d="M29.25,447c.29-.56.77-1.11,1.3-.53s-.2,1-.56,1.39Z"/><path class="cls-3" d="M63.87,444.61a1.2,1.2,0,0,1,1.57-.59l-.06-.07c.07.67-.5.88-.88,1.23Z"/><path class="cls-3" d="M61.43,451.51l.62-.83c.15.15.46.36.43.45A4.66,4.66,0,0,1,62,452Z"/><path class="cls-3" d="M22.39,446.06c.1-.3.2-.63.59-.39.05,0-.16.48-.26.74Z"/></svg>