<svg id="Layer_1" data-name="Layer 1" xmlns="http://www.w3.org/2000/svg" viewBox="0 0 1106.13 743.43"><defs><style>.cls-1{fill:#4082f5;}</style></defs><title>bank-sumsel</title><path class="cls-1" d="M3.18,442.34c4.89-7.2,9.45-14.59,15.11-21.27,13.49-15.91,30.45-24,51.33-23.84,6.82.06,13.64.12,20.46.3,12.29.33,22.54-4.26,31.24-12.72a120.73,120.73,0,0,0,15.75-19.46c2.83-4.2,6.36-5.35,9.7-3.21s3.72,6.13.81,10.46c-6.28,9.31-13.23,18-21.89,25.3-11,9.24-23.81,12.72-38,12.22-8.22-.3-16.45-.68-24.68,0C48,411.47,36.47,419,27.1,430.39a112.58,112.58,0,0,0-10.83,15.46c-3.94,6.9-7.72,7.46-13.09,1.9Z"/><path class="cls-1" d="M189.46,202.74c4.85,4.26,5.15,6.85,1.51,12.18a137.08,137.08,0,0,1-19.48,23.32c-11.14,10.4-24.28,15.46-39.48,15.54-8.22,0-16.4-.91-24.64-.47-13.86.75-26,5.37-36,15.17-5.59.66-11.18,1.29-16.61-.89C67,251.75,82.65,242.14,103,240.47a158.53,158.53,0,0,1,24.27.11c17.79,1.29,31.43-6.07,42.37-19.41,3.43-4.18,6.64-8.53,9.8-12.92a32.71,32.71,0,0,1,4.65-5.51Z"/><path class="cls-1" d="M465.17,344.05c1.8-9.07,3.1-18,4.82-26.88q4.35-22.34,8.47-44.72c.4-2.21,1.36-2.59,3.32-2.63,8.15-.17,8.15-.23,6.65,7.63q-7.68,40.35-15.33,80.7c-.43,2.26-1.18,3.22-3.71,3.22-8.17,0-8.26.15-11.34-7.68-7.77-19.73-16.55-39.07-23.24-59.22-1.08-3.27-1.91-6.61-3.12-10.82-3.55,25.42-8.84,49.58-13.2,73.91-.57,3.19-1.8,3.88-4.75,3.8-6.72-.18-6.78-.05-5.59-6.4,5.16-27.41,10.39-54.8,15.51-82.21.41-2.2,1.27-2.91,3.53-2.95,9.62-.14,9.7-.25,13.13,8.53,7.46,19.16,16,37.88,22.42,57.46C463.63,338.52,464.36,341.29,465.17,344.05Z"/><path class="cls-1" d="M167.56,346.5c-10.2-.5-19.17-.43-28,1.76-13.23,3.28-22.46,12-30.61,22.25a111.06,111.06,0,0,0-10,15.1c-2.07,3.73-5.65,4.89-9.1,3.17a6.46,6.46,0,0,1-2.71-9c9.75-17.47,21.65-33,40.56-41.42,11.49-5.1,23.85-6,36.3-5.34a133,133,0,0,0,19.66,0c12.76-1.23,22.06-8.5,30.28-17.59a166.61,166.61,0,0,0,12.62-16.56c3-4.33,8-4.59,11-.72,2,2.57,1.86,5.26.13,7.89-6.75,10.26-14.29,19.86-23.77,27.76a53.22,53.22,0,0,1-36.7,12.67C173.59,346.41,170,346.5,167.56,346.5Z"/><path class="cls-1" d="M110.22,469.5c-7.85-.3-15.68-.42-23.47,1-14.54,2.6-24.58,11.67-33.25,22.78a114.73,114.73,0,0,0-8.94,13.5c-2.34,4.09-5.78,5.2-9.3,3.16-3-1.76-3.89-5.44-1.85-9.15,6.89-12.54,15.57-23.62,27-32.37,12.62-9.64,27.31-12,42.64-11.89,8.85.06,17.74,1.42,26.54-.46,12.46-2.65,21-11,28.65-20.38,3-3.68,5.64-7.66,8.41-11.53,2.56-3.58,6.09-4.54,9.29-2.48s3.79,5.77,1.35,9.46c-6.48,9.8-13.59,19.08-22.81,26.53a50.84,50.84,0,0,1-33.07,11.87C117.68,469.49,114,469.5,110.22,469.5Z"/><path class="cls-1" d="M95.11,426.89c7.45.21,14.93.88,22.25-1.16,10.39-2.9,17.86-9.91,24.66-17.79a139.74,139.74,0,0,0,9.92-13.28c2.59-3.84,6.37-4.84,9.53-2.69s3.58,6,1,9.87a141.44,141.44,0,0,1-18.56,22.61c-13.37,13.07-29.63,16.76-47.58,15.28a102.45,102.45,0,0,0-21.93.63C56.79,442.71,45.62,454.12,36,467.61c-2.25,3.12-4.13,6.51-6.15,9.8-2.16,3.52-5.64,4.69-8.82,2.93s-4.26-5.36-2.27-9c7.62-14,17.35-26.15,30.69-35.09,9.71-6.51,20.77-8.7,32.2-9.3C86.09,426.69,90.61,426.89,95.11,426.89Z"/><path class="cls-1" d="M123.67,486.29c6,.27,12.1.7,18.12-.12,9.45-1.28,17.07-6.15,23.75-12.66A122.83,122.83,0,0,0,181,454.28c2.74-4,6.11-5.08,9.41-3s3.94,6,1.18,10.11a146.93,146.93,0,0,1-17.2,21.28c-13.16,13.31-29.22,18.05-47.49,16.58a108.56,108.56,0,0,0-23.49.57c-14.79,2-25.32,10.62-34.25,21.78A101.5,101.5,0,0,0,59.46,536c-2.47,4.48-6,5.81-9.46,3.76-3.27-2-4-5.76-1.75-9.83a113.44,113.44,0,0,1,20.66-26.79c13.77-13.13,30.57-17.26,49-16.85C119.81,486.33,121.74,486.29,123.67,486.29Z"/><path class="cls-1" d="M136.31,271.47c7.27-.32,14.58.78,21.81-1.05,9.83-2.5,17.49-8.29,24.23-15.53a138.64,138.64,0,0,0,13.87-18,6.66,6.66,0,0,1,12.1,1.55,5.66,5.66,0,0,1-.69,5.17C197.85,258.46,187,272.29,170.24,280c-4.84,2.22-9.87,4.15-15.38,4-1.53.74-3.25-.08-4.79.57l-9.35,0c-6.92-.41-13.85-.32-20.77-.05-9.77,1.22-19.29,3.16-27.29,9.48-4.9,1-9.83.39-14.74.2-1,0-2.4-.28-2.21-2,12-13.94,27.56-20,45.6-20.68A70.29,70.29,0,0,1,136.31,271.47Z"/><path class="cls-1" d="M101.32,314c9.24-7.53,20.22-10.27,31.73-11.52a106.84,106.84,0,0,1,22.33,0c19.76,2,34.64-6.27,46.36-21.43,3.14-4.07,6.13-8.26,9.13-12.44,2.86-4,6.51-5.13,9.85-3s3.91,6.29,1.29,10.19c-6.6,9.85-13.83,19.14-23,26.87-12.45,10.53-27,13.84-42.8,12.92-9.76-.56-19.51-.65-29.2.9-7,.39-14.08.45-21.12.27C104,316.68,101.61,317,101.32,314Z"/><path class="cls-1" d="M542.55,293.91c-4.46,4.62-8.79,9.38-13.47,13.77a2.82,2.82,0,0,0-.79,3.75c3.46,7.59,7,15.14,10.53,22.7.09,1.19-.81,1.57-1.66,1.65-3.33.29-6.73,1.15-9.86-.88-2.86-4.95-4.88-10.3-7.13-15.53-1-2.36-2.07-2.94-4.07-.83a73.86,73.86,0,0,1-6.64,6.21c-3,2.5-2.17,6.73-3.2,10.15-4.17,2-8.77,1.69-10.76-.82.59-7.78,2.61-15.31,4-22.95,2.25-12.61,4.95-25.14,7.18-37.74.53-3,1.75-3.63,4.51-3.59,7.67.13,7.72,0,6.15,7.61-2.11,10.16-3.19,20.54-6.24,30.52a13.93,13.93,0,0,0-.22,3.05c-.06.88-1.07,2.14.89,2.21,5.86-7.5,12.61-14.16,19.28-20.91C534.81,293.23,538.91,291.93,542.55,293.91Z"/><path class="cls-1" d="M101.32,314c.79,1.82,2.41,1.6,4,1.6,5.77,0,11.54,0,17.31,0a8,8,0,0,1,4.46.89c-20.83,4.93-32.58,20.29-42.79,37.37-1.45,2.44-2.93,4.46-6.1,4.57-5.19.16-8.81-4.41-6.41-9C79,335.49,88.23,323.09,101.32,314Z"/><path class="cls-1" d="M75.71,292.16c1.23,1.65,3,.88,4.57,1,4.12.3,8.32-.62,12.38.78A112.88,112.88,0,0,0,68.2,324.24a6.61,6.61,0,0,1-9,2.46A6.41,6.41,0,0,1,56.64,318C61.76,308.51,67.73,299.58,75.71,292.16Z"/><path class="cls-1" d="M54.72,267.59c5.53.34,11.13-.52,16.61.89a123.69,123.69,0,0,0-18.2,24.68,6.58,6.58,0,1,1-11.58-6.26A89.72,89.72,0,0,1,54.72,267.59Z"/><path class="cls-1" d="M542.55,293.91c-3.84-.58-8,1.55-11.52-1.63q9.68-10.42,19.35-20.85a3.5,3.5,0,0,1,2.54-1.55h12.51l.64,1.06Z"/><path class="cls-1" d="M527.3,334.9c3.83-.44,7.78.94,11.52-.77l12.61,27.15c-4.13,0-7.64,0-11.14,0-1.24,0-1.79-.71-2.24-1.73Q532.7,347.22,527.3,334.9Z"/><path class="cls-1" d="M495.5,334.08c3.47,1.74,7.19.41,10.76.82-1.51,8.19-3.07,16.37-4.5,24.57-.27,1.53-1.05,1.85-2.35,1.83-2.44,0-4.88-.05-7.32,0-1.52,0-2-.47-1.72-2.05C492.11,350.87,493.79,342.47,495.5,334.08Z"/><path class="cls-1" d="M120,284.45a74.87,74.87,0,0,1,20.77.05Z"/><path class="cls-1" d="M136.31,271.47h-15A46.6,46.6,0,0,1,136.31,271.47Z"/><path class="cls-1" d="M265.18,403.62q0,3.61,0,7.23A9.44,9.44,0,0,1,265.18,403.62Z"/><path class="cls-1" d="M150.07,284.52c1.48-1.16,3.18-.45,4.79-.57C153.34,284.76,151.69,284.55,150.07,284.52Z"/><path class="cls-1" d="M511.75,313.19c-.26.57-.84,1.45-1.23.91a2.42,2.42,0,0,1,.34-3.12C511.19,311.7,510.26,312.93,511.75,313.19Z"/><path class="cls-1" d="M309.71,312.86c2.58-1.27,5.1-2.27,7.37-3.67C325.52,304,330,294.69,328.33,286c-1.6-8.49-8.11-14.37-18.44-16.17-8.83-1.53-17.67-.76-26.47.68-1.85.3-2.49,1.1-2.83,2.91q-7.8,42.26-15.81,84.46c-.47,2.44.15,3.12,2.53,3.38a132.81,132.81,0,0,0,22.73.62c7-.41,13.81-1.68,19.95-5.25,9.22-5.35,14.07-13.4,13.91-24.1C323.74,322.87,318.73,316.42,309.71,312.86Zm-19-32.18a2.25,2.25,0,0,1,2.23-2.17c4.62-.38,9.28-.78,13.82.25,9.82,2.23,13.24,12.61,7.1,21.21-2.9,4.08-7.07,6.24-11.75,7.55a45.85,45.85,0,0,1-16.61.73C287.25,299.06,289,289.87,290.71,280.68Zm14.4,66.73c-5.66,4.43-12.38,5.41-18.84,5.4-11.53-.31-9,.58-7.6-8.67,1.19-8,2.94-15.93,4.32-23.9.36-2.12,1.09-3.19,3.45-3,4,.27,8-.26,11.93.62,6.31,1.39,11.54,4.23,13.07,11C313.11,336.14,311.21,342.64,305.11,347.41Z"/><path class="cls-1" d="M397.88,358.71q-5.69-39.49-11.16-79c-.44-3.16.3-7.25-1.8-9.18s-6.16-.32-9.33-.67c-2.67-.29-4.08.73-5.33,3.18-9.17,18-18.54,35.85-27.83,53.77-5.85,11.27-11.68,22.56-17.87,34.51a82.34,82.34,0,0,1,8.41.06c2.91.32,4.32-.87,5.54-3.43,3.64-7.66,7.6-15.17,11.35-22.78.87-1.77,1.77-2.77,4-2.73q12.93.22,25.87,0c2.4-.05,3.05.83,3.3,3,.66,5.87,1.42,11.74,2.34,17.58,1.36,8.73,1.43,8.67,10.19,8.35C397.54,361.26,398.2,360.93,397.88,358.71Zm-18.54-35.36c-7.71-.1-15.43,0-23.56,0a11.58,11.58,0,0,1,.44-1.49c6.73-13.25,14.07-26.2,20.35-39.93.72,6,1.41,12.05,2.16,18.07.86,6.89,1.69,13.78,2.72,20.63C381.74,322.56,381.61,323.38,379.34,323.35Z"/><path class="cls-1" d="M441.56,403c-4.27,19.59-9.76,38.87-14.88,58.25-.57,2.16-1.47,3.23-3.92,3.09a91.31,91.31,0,0,0-11.58,0c-3.21.22-3.62-.81-2.79-3.68,4.56-15.66,9-31.37,13.44-47.07,2.67-9.39,5.41-18.77,7.93-28.2.61-2.26,1.48-3.16,3.91-3.1,6.69.17,13.39.19,20.08,0,2.86-.08,3.71.88,3.92,3.69,1.28,17.5,3.44,34.93,4.09,53.32,3.49-7.16,6.44-13.66,9.79-20,6.15-11.58,12.57-23,18.79-34.57a4.14,4.14,0,0,1,4.25-2.48c7,.13,13.9.09,20.86,0,2.19,0,3.18.24,2.74,3q-6,37.89-11.6,75.84c-.36,2.46-1.16,3.26-3.61,3.16-4.37-.18-8.75-.16-13.13,0-2.51.09-3.1-.84-2.68-3.18,3.3-18.08,5.79-36.3,9.62-54.28a28.35,28.35,0,0,0,.34-3.06.81.81,0,0,0,.1-.93c-.27-.4-.54-.07-.79.1-9.72,19.4-20.64,38.14-31.18,57.1-1.3,2.33-2.76,3.3-5.42,3.09a67.16,67.16,0,0,0-8.86,0c-2.27.11-3.13-.67-3.34-3-1.67-19.05-3.91-38.05-4.75-57.17-.76-.73-.26-1.64-.36-3A4.77,4.77,0,0,1,441.56,403Z"/><path class="cls-1" d="M1005.18,464.26c-8.24,0-16.48-.09-24.72.06-2.87.05-3.94-.55-3.26-3.67q8.2-37.66,16.17-75.39c.51-2.38,1.64-3,4-3q24.13.13,48.28,0c2.92,0,3.54.74,2.69,3.49a65,65,0,0,0-1.87,8.65c-.4,2.49-1.58,3.21-4.13,3.17-9.39-.18-18.8,0-28.19-.13-2.52,0-3.63.62-4,3.29a68.92,68.92,0,0,1-2.43,10.9c-.81,2.66.09,3,2.46,3,8.75-.1,17.51.09,26.26-.11,3.23-.07,3.73,1,2.86,3.8-1.11,3.54-.42,8.32-3,10.52-2.75,2.35-7.39.68-11.2.77-6,.15-12.11.11-18.16,0-2.2,0-3.22.65-3.62,2.9-.83,4.68-1.91,9.32-3,13.95-.48,2.08-.12,2.89,2.3,2.86,10.17-.14,20.35,0,30.52-.11,2.57,0,3.81.2,2.81,3.25a56.56,56.56,0,0,0-1.86,8.66c-.41,2.53-1.68,3.22-4.18,3.17C1021.66,464.16,1013.42,464.26,1005.18,464.26Z"/><path class="cls-1" d="M1072.58,464.26c-8.11,0-16.22-.09-24.32.05-2.77.05-3.62-.69-3-3.52q8.17-37.65,16.18-75.34c.45-2.14,1.19-3.32,3.76-3.18a132.15,132.15,0,0,0,13.5,0c3-.14,3.32.92,2.74,3.59-4.32,19.7-8.4,39.45-12.81,59.12-.8,3.58.21,4.13,3.42,4.07,9.13-.15,18.27,0,27.41-.09,2.65,0,4.26.13,3.1,3.54-1.26,3.72-.28,8.88-3.24,11.13-2.77,2.09-7.46.52-11.3.59C1082.87,464.33,1077.73,464.26,1072.58,464.26Z"/><path class="cls-1" d="M649.22,417.63a2.85,2.85,0,0,1,0,.77c-.89,3.6-.73,8.26-3,10.51s-7.11.67-10.81.75c-6.18.12-12.35.13-18.53,0-2.21-.05-3.22.64-3.63,2.84-.9,4.8-1.92,9.57-3.09,14.31-.58,2.33.43,2.54,2.32,2.53,10-.05,20.07.05,30.1-.07,2.88,0,4.4.26,3.21,3.74s-.43,8.34-3,10.5c-2.73,2.31-7.4.71-11.21.74-13.38.1-26.76.06-40.14,0-5.1,0-5.18.72-4-4.6,3-13.68,5.83-27.39,8.75-41.07a3.65,3.65,0,0,1,.55-1,11,11,0,0,1,3.79-.44q22.63,0,45.29,0A6.5,6.5,0,0,1,649.22,417.63Z"/><path class="cls-1" d="M562,416.2c8.61,3.5,16.27,8.19,18.45,18,2.26,10.17-2.68,20.56-12.34,25.6-15.86,8.27-32.2,7.32-48.6,1.49-2.28-.81-2.47-2-1.4-4.06,1.83-3.54,2.51-8.34,5.31-10.51s6.65,1.93,10.28,2.52c5.59.9,11.11,2.22,16.81.84a14.1,14.1,0,0,0,6.85-3.32c3.2-3.11,3.4-7.39.37-10.67-2.77-3-6.47-4.58-10-6.37-5.75-2.89-11.51-5.78-15.35-11.28,1.47-2.13,3.77-2,5.91-2,7.31,0,14.63-.27,21.94.16A2.56,2.56,0,0,0,562,416.2Z"/><path class="cls-1" d="M298.43,416.21A37.87,37.87,0,0,1,309,422.39c12.84,10.07,8.47,26.68.31,33.84-6.25,5.49-13.74,8-21.79,8.95-10.61,1.19-21.05.36-31.14-3.53-2.55-1-3.44-2.17-1.94-4.84a69.42,69.42,0,0,0,4-8.76c.84-2.15,1.68-2.49,3.94-1.52,7.65,3.29,15.62,5.24,24,3.55a17.73,17.73,0,0,0,5.06-1.78c5.57-3.07,6.08-9.32,1.16-13.37-3.41-2.8-7.51-4.43-11.37-6.48-4.89-2.6-9.72-5.3-12.89-10.11,1.09-2.22,3.21-1.88,5.05-1.88,7.71,0,15.41-.26,23.11.14A3,3,0,0,0,298.43,416.21Z"/><path class="cls-1" d="M349.27,431.52c-.2,2.42-.55,4.84-.56,7.25,0,6,3,9.9,8.76,11.51,8.54,2.38,16.83-1.46,21.2-9.75,1.81-3.42,2.51-7.22,3.91-10.78,4.89,1.07,9.85.47,14.78.63,1.51.05,3.05-.32,4.5.4-2.72,12.29-7.32,23.61-19.14,29.79-12.45,6.52-25.78,7-38.93,2.47-10.68-3.71-16.21-14-15-26,.26-2.39.05-4.91,1.26-7.15,4.68.68,9.4.36,14.11.47C346,430.41,347.82,430.11,349.27,431.52Z"/><path class="cls-1" d="M649.22,417.63a6.46,6.46,0,0,1-3.71.76q-22.75,0-45.53,0c-1.12,0-2.35.31-3.21-.79,2-11.71,4.16-23.4,7.61-34.8,1.22-.6,2.52-.31,3.78-.31q23.22,0,46.44,0c1.25,0,2.56-.33,3.76.36.12,4.54-1.67,8.72-2.4,13.1-.35,2.05-2,1.57-3.35,1.57-9.36,0-18.72.12-28.07-.05-2.84-.05-4.4.39-4.84,3.63-.61,4.45-1.83,8.81-2.78,13.21,1,1.22,2.38.58,3.56.59,8.68.06,17.36,0,26,.08,1,0,2.72-1,2.91,1.24Z"/><path class="cls-1" d="M562,416.2c.64,2.45-1.34,1.35-2.08,1.36-6.93.08-13.85.1-20.78,0a21.34,21.34,0,0,0-6.8.89c-5.71-6.28-5.09-16-.51-23,3.92-6,9.58-9.67,16.24-11.77a58.7,58.7,0,0,1,35.29.09c2.83.85,3.29,2,1.93,4.59-1.71,3.29-2.21,7.7-4.73,10-2.71,2.44-6.34-1.33-9.75-1.65-6.85-.66-13.6-1.59-19.53,3.22a4.2,4.2,0,0,0-1.88,3.05,6.15,6.15,0,0,0,.12,3.77C552,412.23,557.42,413.64,562,416.2Z"/><path class="cls-1" d="M298.43,416.21c-.52,2.09-2.23,1.36-3.5,1.37-7.33.06-14.66,0-22,0-1.53,0-3.1-.19-4.49.73-2-2.11-3.41-4.45-3.3-7.48a16.84,16.84,0,0,1,0-7.24c.53-8.07,5.72-12.93,12-16.7,10.21-6.09,21.49-6.48,32.93-5.25a42.9,42.9,0,0,1,9.75,2.28c2,.72,3,1.51,1.81,3.86a87,87,0,0,0-3.94,9.21c-.85,2.25-2,2.36-4.12,1.62-6.25-2.19-12.68-3.32-19.33-1.95a13.77,13.77,0,0,0-6.24,2.83c-3.55,3-3.72,8-.06,10.79A37.15,37.15,0,0,0,298.43,416.21Z"/><path class="cls-1" d="M681.6,430.79c-1,5-1.83,10.12-3.17,15.07-.8,3,.29,3.21,2.71,3.19,9.66-.08,19.31,0,29-.09,2.41,0,3.39.57,2.56,3-.08.24-.07.51-.14.76-1.1,3.67-.37,8.64-3,10.83s-7.42.64-11.25.67c-13.39.08-26.78,0-40.17.07-2.76,0-3.51-.53-2.8-3.47,2.35-9.73,4.38-19.54,6.53-29.32a3.78,3.78,0,0,1,2.77-1.08C670.24,430.48,675.94,429.84,681.6,430.79Z"/><path class="cls-1" d="M681.6,430.79c-4.36,1.58-8.86.4-13.29.71-2.16.14-4.34,0-6.52,0,1.3-9.44,3.83-18.62,5.69-27.95,1.23-6.12,2.84-12.17,4-18.3.43-2.22,1.27-3,3.51-3q7.13.19,14.25,0c2.4-.06,2.75.76,2.25,3-3.13,13.78-6.14,27.59-9.17,41.4C682,428,681.84,429.42,681.6,430.79Z"/><path class="cls-1" d="M349.27,431.52c-5.28,0-10.56,0-15.84,0-1.31,0-3,.53-3.33-1.6.62-6.72,2.47-13.21,3.86-19.78,1.77-8.36,3.65-16.69,5.35-25.06.36-1.76.86-2.78,2.89-2.74,5,.08,10,.09,15,0,2.32,0,2.5,1,2.08,2.89q-4.44,19.43-8.8,38.86C350,426.52,349.67,429,349.27,431.52Z"/><path class="cls-1" d="M401.86,430.78c-5.94,1.59-12,.45-17.95.62-.93,0-1.15-.89-1.33-1.65.93-8.51,3.43-16.71,5-25.1,1.22-6.53,3-13,4.28-19.48.41-2,1.08-2.91,3.22-2.86q7.33.17,14.67,0c2.27-.05,2.6,1,2.16,2.85q-4,17.41-8,34.85C403.13,423.57,402.54,427.19,401.86,430.78Z"/><path class="cls-1" d="M658.36,382.83l-54-.05c.23-.11.46-.32.69-.32q26.32,0,52.67,0C658,382.43,658.15,382.69,658.36,382.83Z"/><path class="cls-1" d="M649.43,416.2c-1.07-1.39-2.6-.88-3.95-.89-8.24,0-16.48,0-24.71-.05-1.32,0-2.9.64-3.85-1,10,.78,19.94.08,29.91.42C647.64,414.74,650.06,413.2,649.43,416.2Z"/><path class="cls-1" d="M441.56,403a5.29,5.29,0,0,1,1.33-3.56V403Z"/><path class="cls-1" d="M549.55,406.76a2.89,2.89,0,0,1-.12-3.77Z"/><path class="cls-1" d="M496.44,403l.82-2.11c1.06,1.22.39,2.07-.13,2.94Z"/><path class="cls-1" d="M797.91,420.76c4-1.4,7-2.55,9.64-4.35,12.38-8.39,11.35-23.78-2-30.31a29.08,29.08,0,0,0-4.66-1.83c-13.05-3.8-26.24-2.38-39.43-1-2.44.25-3.42,1.26-3.93,3.7q-7.69,36.79-15.72,73.5c-.6,2.77.21,3.28,2.66,3.54a185.44,185.44,0,0,0,30.08.58c9.27-.55,18.46-1.94,26.48-7.26,7.24-4.8,11.62-11.15,10.93-20.28C811.29,428.66,806.16,424,797.91,420.76Zm-11.53,26.33c-3.59,2.56-8.78,3.86-15.82,3.87-7.36,0-7.35,0-5.8-7,1-4.39,2-8.75,2.81-13.17.42-2.41,1.52-3.1,3.87-3,4.12.11,8.23.14,12.2,1.38,3.62,1.13,6.52,3.17,7.16,7.24A10.32,10.32,0,0,1,786.38,447.09Zm5.89-36c-4.36,3.25-9.44,3.78-14.65,3.77-6.27,0-6.27,0-4.87-6.28.58-2.63,1.53-5.24,1.63-7.89.16-4.11,2.27-5.1,5.88-4.95,3.2.14,6.43-.17,9.54.87s5.34,2.59,5.82,6A8.47,8.47,0,0,1,792.27,411Z"/><path class="cls-1" d="M959.58,422.12l-2.69-1.3c2.31-1.37,4.77-1.54,6.48-3.11-1.21-3.11-4-2.84-6.5-2.83q-19.57.09-39.16,0a17.68,17.68,0,0,1-7.13-1.16c-3.49,15.93-7,31.86-10.49,47.77-.6,2.66,1.25,2.35,2.68,2.49,12.46,1.2,24.93,1.53,37.37-.06,9.63-1.23,18.59-4.18,25.35-11.73C974.35,442.29,971.48,427.76,959.58,422.12Zm-14.36,24.72c-3.53,2.72-8.88,4.11-16.13,4.12s-7.29,0-5.67-7.34q1.44-6.58,2.76-13.18c.38-1.89,1.19-2.78,3.34-2.73,4.38.11,8.75.09,13,1.5,3.47,1.15,6.17,3.2,6.83,7.09A10.3,10.3,0,0,1,945.22,446.84Z"/><path class="cls-1" d="M892.05,460.13c-.89-5.84-1.51-11.72-2.35-17.57-1.29-8.89-1.94-17.86-3.77-26.67-1.28-10.43-2.63-20.85-3.8-31.3-.26-2.28-1.58-2.25-3.18-2.25-6.68,0-13.36,0-20,0-1.49,0-2.68.19-3.5,1.73-5.77,10.72-11.62,21.4-17.45,32.1q-12.74,22.89-25.51,45.78c-1.19,2.13-.21,2.35,1.58,2.34,5.4,0,10.81-.11,16.22,0,2.12.06,2.88-1.15,3.67-2.72,2.72-5.39,5.57-10.72,8.22-16.15a3.65,3.65,0,0,1,3.85-2.37c6.82.11,13.64.2,20.46,0,2.77-.1,3.53,1,3.68,3.43.28,4.49.86,9,1,13.46.12,3.1.94,4.69,4.5,4.41a87.24,87.24,0,0,1,12.73,0C891.87,464.59,892.52,463.19,892.05,460.13Zm-25.4-30.62c-5.52-.09-11,0-17.06,0,1.89-4,3.58-7.49,5.26-11l0-.09h.07c4.08-6.69,6.92-14,10.79-22.07,1.28,8,.82,15.16,2.33,22.07.22,2.82.37,5.64.67,8.45C868.86,428.47,868.77,429.55,866.65,429.51Z"/><path class="cls-1" d="M969.86,390.66a30.34,30.34,0,0,0-15.83-7.8c-10.12-1.54-20.27-1.18-30.38,0-6.85.81-6.87,1-8.45,8.07-1.68,7.55-3.72,15-4.62,22.75-.14,3,2,2.35,3.72,2.35,14.46,0,28.92.05,43.38,0a8.44,8.44,0,0,1,5.69,1.69c1.27-.8,2.57-1.56,3.81-2.4C975.07,409.91,977,397.06,969.86,390.66ZM951.77,410c-2.8,2.93-6.46,4-10.3,4.66a48.59,48.59,0,0,1-11.56-.14q1.64-8.52,3.28-17a1.83,1.83,0,0,1,1.92-1.53c4.49-.27,9-.82,13.39.66C954.65,398.71,956.25,405.32,951.77,410Z"/><path class="cls-1" d="M929.91,414.54c3.85.62,7.7.08,11.56.14A20.31,20.31,0,0,1,929.91,414.54Z"/></svg>