<svg id="Layer_1" data-name="Layer 1" xmlns="http://www.w3.org/2000/svg" viewBox="0 0 1106.13 743.43"><defs><style>.cls-1{fill:#10a75a;}.cls-2{fill:#fff;}</style></defs><title>bank-sumsel-syariah</title><path class="cls-1" d="M3.18,402.73c4.87-7.17,9.41-14.53,15.05-21.18,13.43-15.84,30.32-23.93,51.12-23.74,6.79.06,13.58.11,20.37.29,12.24.33,22.45-4.24,31.12-12.66a119.79,119.79,0,0,0,15.68-19.39c2.82-4.18,6.33-5.32,9.67-3.19s3.7,6.11.79,10.42c-6.25,9.27-13.16,18-21.8,25.19-11,9.21-23.71,12.68-37.81,12.17-8.19-.29-16.39-.67-24.58,0-15,1.31-26.45,8.8-35.78,20.15a110.87,110.87,0,0,0-10.79,15.4c-3.93,6.87-7.69,7.42-13,1.89Z"/><path class="cls-1" d="M188.69,164.11c4.83,4.24,5.13,6.83,1.51,12.14a137.19,137.19,0,0,1-19.39,23.22c-11.1,10.36-24.19,15.39-39.33,15.47-8.18,0-16.33-.9-24.53-.46-13.81.74-25.93,5.34-35.9,15.11-5.57.65-11.13,1.27-16.54-.9,12.2-15.77,27.81-25.34,48-27a157.37,157.37,0,0,1,24.18.11c17.71,1.28,31.3-6.05,42.19-19.33,3.41-4.16,6.61-8.5,9.76-12.87a32.38,32.38,0,0,1,4.63-5.49Z"/><path class="cls-1" d="M463.27,304.84c1.8-9,3.1-17.93,4.81-26.77,2.88-14.83,5.73-29.67,8.43-44.53.4-2.21,1.36-2.58,3.31-2.62,8.11-.17,8.11-.23,6.62,7.6q-7.65,40.17-15.27,80.37c-.42,2.24-1.17,3.2-3.68,3.2-8.15,0-8.23.15-11.3-7.64-7.74-19.65-16.48-38.91-23.15-59-1.08-3.24-1.9-6.58-3.1-10.77-3.54,25.32-8.81,49.38-13.15,73.61-.57,3.17-1.8,3.86-4.73,3.78-6.69-.18-6.76-.05-5.57-6.37q7.71-40.93,15.44-81.87c.41-2.19,1.28-2.9,3.52-2.94,9.58-.14,9.67-.25,13.08,8.5,7.43,19.07,16,37.72,22.33,57.22C461.75,299.33,462.47,302.1,463.27,304.84Z"/><path class="cls-1" d="M166.89,307.28c-10.16-.49-19.1-.42-27.91,1.76-13.17,3.26-22.37,12-30.49,22.16a108.89,108.89,0,0,0-10,15c-2.07,3.71-5.62,4.87-9.07,3.16a6.45,6.45,0,0,1-2.69-8.95c9.71-17.39,21.56-32.89,40.39-41.24,11.45-5.08,23.75-5.94,36.15-5.32a133.43,133.43,0,0,0,19.59,0c12.69-1.23,22-8.46,30.14-17.51a166.25,166.25,0,0,0,12.58-16.5c3-4.32,8-4.57,11-.71,2,2.56,1.85,5.23.13,7.85C230,277.25,222.47,286.81,213,294.67a53,53,0,0,1-36.55,12.63C172.89,307.2,169.3,307.28,166.89,307.28Z"/><path class="cls-1" d="M109.78,429.78c-7.82-.29-15.61-.42-23.38,1-14.47,2.59-24.47,11.62-33.1,22.68a114.73,114.73,0,0,0-8.91,13.45c-2.33,4.07-5.76,5.18-9.26,3.14-3-1.75-3.87-5.41-1.84-9.11,6.86-12.49,15.5-23.52,26.9-32.23,12.56-9.61,27.19-11.94,42.46-11.84,8.81.05,17.66,1.41,26.43-.46,12.41-2.65,20.89-10.95,28.53-20.3,3-3.66,5.62-7.63,8.38-11.49,2.55-3.56,6.07-4.52,9.26-2.47s3.77,5.75,1.34,9.43c-6.46,9.76-13.54,19-22.72,26.42a50.69,50.69,0,0,1-32.94,11.82C117.22,429.77,113.5,429.78,109.78,429.78Z"/><path class="cls-1" d="M94.73,387.35c7.42.2,14.87.87,22.16-1.16,10.35-2.88,17.79-9.87,24.56-17.71a139.94,139.94,0,0,0,9.88-13.23c2.58-3.83,6.34-4.83,9.49-2.68s3.57,6,1,9.83a140.3,140.3,0,0,1-18.48,22.51C130,397.93,113.83,401.6,96,400.14a102.24,102.24,0,0,0-21.84.62c-17.54,2.34-28.67,13.7-38.3,27.14-2.23,3.11-4.1,6.48-6.11,9.76-2.16,3.5-5.63,4.67-8.79,2.92s-4.24-5.34-2.26-9c7.58-13.92,17.27-26.05,30.56-35,9.67-6.47,20.68-8.66,32.07-9.26C85.75,387.15,90.25,387.35,94.73,387.35Z"/><path class="cls-1" d="M123.17,446.5c6,.27,12.06.69,18-.12,9.42-1.27,17-6.12,23.65-12.61a121.27,121.27,0,0,0,15.39-19.15c2.73-4,6.08-5.06,9.38-3s3.91,6,1.17,10.07a147,147,0,0,1-17.13,21.2c-13.11,13.25-29.1,18-47.3,16.5A108.28,108.28,0,0,0,103,460c-14.73,2-25.22,10.58-34.11,21.69A101.5,101.5,0,0,0,59.23,496c-2.46,4.46-6,5.79-9.42,3.74-3.26-1.94-4-5.74-1.74-9.78a113,113,0,0,1,20.57-26.69c13.72-13.08,30.44-17.19,48.77-16.77C119.33,446.54,121.25,446.5,123.17,446.5Z"/><path class="cls-1" d="M135.77,232.56c7.23-.32,14.52.78,21.71-1.05,9.79-2.48,17.43-8.25,24.13-15.46a139.15,139.15,0,0,0,13.82-18,6.64,6.64,0,0,1,12,1.54,5.62,5.62,0,0,1-.69,5.15c-9.73,14.83-20.56,28.59-37.24,36.24-4.82,2.21-9.82,4.13-15.31,4-1.53.74-3.23-.08-4.77.57l-9.32,0c-6.89-.41-13.78-.32-20.68,0-9.73,1.21-19.21,3.14-27.18,9.44-4.88,1-9.79.39-14.68.2-1,0-2.38-.28-2.19-2,12-13.89,27.44-20,45.41-20.6A70.39,70.39,0,0,1,135.77,232.56Z"/><path class="cls-1" d="M100.91,274.9c9.21-7.5,20.14-10.23,31.61-11.48a106,106,0,0,1,22.24,0c19.68,2,34.49-6.25,46.16-21.35,3.13-4,6.12-8.22,9.1-12.38,2.85-4,6.49-5.11,9.81-3s3.89,6.26,1.29,10.14c-6.58,9.82-13.78,19.07-22.89,26.77-12.39,10.48-26.85,13.78-42.61,12.87-9.73-.57-19.43-.66-29.09.88-7,.39-14,.46-21,.27C103.59,277.58,101.21,277.87,100.91,274.9Z"/><path class="cls-1" d="M540.34,254.91c-4.45,4.6-8.76,9.34-13.41,13.72a2.81,2.81,0,0,0-.79,3.73c3.45,7.55,7,15.07,10.49,22.6.09,1.19-.81,1.57-1.65,1.64-3.32.3-6.71,1.15-9.83-.86-2.85-4.94-4.85-10.26-7.09-15.48-1-2.35-2.07-2.92-4.06-.82a71.77,71.77,0,0,1-6.61,6.18c-3.05,2.5-2.17,6.71-3.19,10.12-4.16,2-8.74,1.67-10.72-.83.59-7.74,2.6-15.24,4-22.85,2.25-12.56,4.94-25,7.16-37.59.52-3,1.74-3.61,4.49-3.57,7.64.13,7.69,0,6.12,7.57-2.1,10.13-3.18,20.46-6.21,30.41a14.38,14.38,0,0,0-.22,3c-.06.88-1.06,2.13.88,2.2,5.84-7.47,12.57-14.1,19.21-20.83C532.63,254.23,536.72,252.93,540.34,254.91Z"/><path class="cls-1" d="M100.91,274.9c.8,1.81,2.41,1.59,3.94,1.59,5.75,0,11.5,0,17.24,0a8,8,0,0,1,4.44.88c-20.74,4.92-32.45,20.21-42.61,37.23C82.47,317,81,319,77.84,319.13c-5.17.17-8.77-4.39-6.39-8.95C78.7,296.32,87.88,284,100.91,274.9Z"/><path class="cls-1" d="M75.42,253.17c1.22,1.64,3,.87,4.54,1,4.11.31,8.29-.62,12.33.78a112.1,112.1,0,0,0-24.35,30.19,6.59,6.59,0,0,1-9,2.44,6.38,6.38,0,0,1-2.51-8.63C61.52,269.45,67.47,260.56,75.42,253.17Z"/><path class="cls-1" d="M54.51,228.69c5.51.35,11.08-.51,16.54.9a123,123,0,0,0-18.13,24.57,6.55,6.55,0,1,1-11.52-6.24A88.84,88.84,0,0,1,54.51,228.69Z"/><path class="cls-1" d="M540.34,254.91c-3.82-.57-8,1.54-11.47-1.63l19.26-20.76a3.54,3.54,0,0,1,2.54-1.54h12.46l.64,1.05Z"/><path class="cls-1" d="M525.15,295.74c3.81-.45,7.75.93,11.48-.78,4.07,8.78,8.14,17.56,12.55,27.05-4.11,0-7.6,0-11.09,0-1.24,0-1.79-.72-2.23-1.73Q530.53,308,525.15,295.74Z"/><path class="cls-1" d="M493.48,294.91c3.46,1.74,7.16.41,10.72.83-1.51,8.15-3.06,16.29-4.48,24.46-.27,1.53-1,1.84-2.34,1.83-2.43,0-4.87-.06-7.29,0-1.52,0-2-.47-1.72-2C490.11,311.64,491.79,303.27,493.48,294.91Z"/><path class="cls-1" d="M119.47,245.49a74.61,74.61,0,0,1,20.68,0Z"/><path class="cls-1" d="M135.77,232.56H120.83A46.8,46.8,0,0,1,135.77,232.56Z"/><path class="cls-1" d="M264.1,364.17q0,3.6,0,7.2A9.45,9.45,0,0,1,264.1,364.17Z"/><path class="cls-1" d="M149.47,245.56c1.47-1.16,3.17-.45,4.77-.57C152.72,245.8,151.09,245.59,149.47,245.56Z"/><path class="cls-1" d="M509.66,274.11c-.25.56-.83,1.45-1.22.9a2.41,2.41,0,0,1,.34-3.1C509.11,272.63,508.19,273.85,509.66,274.11Z"/><path class="cls-1" d="M308.45,273.79c2.57-1.27,5.08-2.27,7.35-3.67,8.4-5.18,12.82-14.43,11.19-23.1-1.58-8.47-8.07-14.32-18.35-16.11-8.8-1.52-17.6-.76-26.37.67-1.84.3-2.48,1.1-2.81,2.91q-7.79,42.08-15.76,84.11c-.46,2.43.16,3.11,2.52,3.37a132.81,132.81,0,0,0,22.64.61c6.95-.4,13.76-1.67,19.88-5.23,9.17-5.33,14-13.35,13.84-24C322.43,283.76,317.44,277.33,308.45,273.79Zm-18.92-32.06a2.25,2.25,0,0,1,2.22-2.16c4.6-.38,9.24-.78,13.77.25,9.77,2.22,13.18,12.56,7.07,21.13-2.89,4.05-7,6.21-11.71,7.52a45.65,45.65,0,0,1-16.53.72C286.08,260,287.84,250.89,289.53,241.73Zm14.34,66.47c-5.64,4.4-12.33,5.38-18.76,5.37-11.48-.31-8.95.58-7.57-8.64,1.19-8,2.93-15.86,4.3-23.8.37-2.11,1.09-3.18,3.44-3,4,.26,7.94-.26,11.88.61,6.28,1.38,11.49,4.22,13,10.94C311.84,297,310,303.44,303.87,308.2Z"/><path class="cls-1" d="M396.26,319.44q-5.65-39.33-11.11-78.7c-.44-3.15.3-7.22-1.8-9.14s-6.13-.32-9.29-.67c-2.66-.29-4.05.73-5.3,3.17-9.14,17.9-18.47,35.7-27.72,53.54-5.83,11.23-11.63,22.47-17.8,34.38,3.27,0,5.85-.22,8.38.05,2.9.32,4.3-.86,5.51-3.41,3.63-7.63,7.58-15.11,11.31-22.69.86-1.76,1.77-2.76,4-2.72q12.88.22,25.77,0c2.39,0,3,.83,3.28,3,.66,5.85,1.42,11.69,2.33,17.51,1.36,8.69,1.42,8.63,10.15,8.31C395.92,322,396.58,321.66,396.26,319.44ZM377.8,284.23c-7.68-.1-15.37,0-23.46,0a9.5,9.5,0,0,1,.44-1.48c6.69-13.2,14-26.1,20.26-39.77.72,6,1.41,12,2.16,18,.85,6.85,1.67,13.71,2.7,20.54C380.19,283.44,380.06,284.26,377.8,284.23Z"/><path class="cls-1" d="M439.76,363.54c-4.25,19.51-9.72,38.71-14.81,58-.57,2.16-1.47,3.22-3.91,3.08a92.41,92.41,0,0,0-11.53,0c-3.2.22-3.61-.81-2.78-3.66,4.54-15.6,8.95-31.25,13.39-46.88,2.66-9.35,5.38-18.69,7.89-28.08.61-2.26,1.47-3.15,3.89-3.09,6.67.17,13.34.19,20,0,2.85-.08,3.7.87,3.9,3.67,1.28,17.43,3.44,34.79,4.08,53.1,3.48-7.12,6.42-13.6,9.75-19.86,6.13-11.54,12.52-22.93,18.72-34.43a4.12,4.12,0,0,1,4.23-2.47c6.92.13,13.84.09,20.77,0,2.18,0,3.17.23,2.73,3q-6,37.74-11.55,75.54c-.36,2.44-1.16,3.24-3.59,3.14-4.36-.17-8.73-.16-13.08,0-2.51.09-3.09-.84-2.67-3.17,3.28-18,5.76-36.14,9.58-54.05.21-1,.23-2,.34-3.05a.81.81,0,0,0,.1-.93c-.27-.39-.54-.06-.79.1-9.68,19.32-20.56,38-31.06,56.87-1.29,2.32-2.74,3.28-5.39,3.07a68.31,68.31,0,0,0-8.82,0c-2.26.12-3.13-.67-3.33-3-1.67-19-3.89-37.9-4.73-56.93-.75-.73-.26-1.64-.36-3A4.79,4.79,0,0,1,439.76,363.54Z"/><path class="cls-1" d="M1001.07,424.57c-8.2,0-16.41-.1-24.62.05-2.85.05-3.92-.54-3.24-3.66q8.17-37.5,16.11-75.07c.5-2.37,1.62-3,3.93-3q24,.13,48.08,0c2.91,0,3.52.73,2.68,3.47a63,63,0,0,0-1.86,8.62c-.4,2.48-1.58,3.2-4.11,3.15-9.36-.18-18.73,0-28.08-.12-2.52,0-3.62.62-4,3.28a68.51,68.51,0,0,1-2.41,10.85c-.81,2.64.09,3,2.44,3,8.72-.09,17.44.09,26.16-.1,3.22-.07,3.71,1,2.84,3.78-1.1,3.53-.41,8.29-3,10.48-2.74,2.34-7.36.67-11.16.76-6,.15-12,.12-18.08,0-2.19,0-3.2.65-3.61,2.89-.83,4.66-1.9,9.28-3,13.89-.48,2.08-.11,2.88,2.3,2.85,10.13-.13,20.26,0,30.39-.1,2.56,0,3.8.2,2.8,3.23a58.38,58.38,0,0,0-1.86,8.63c-.4,2.52-1.66,3.2-4.16,3.15C1017.49,424.46,1009.28,424.57,1001.07,424.57Z"/><path class="cls-1" d="M1068.2,424.56c-8.08,0-16.15-.09-24.23.05-2.75.05-3.59-.68-3-3.5q8.15-37.5,16.11-75c.45-2.13,1.19-3.3,3.75-3.16a131.17,131.17,0,0,0,13.45,0c3-.14,3.3.93,2.72,3.58-4.3,19.62-8.36,39.29-12.75,58.88-.8,3.57.21,4.11,3.4,4.06,9.1-.16,18.2,0,27.3-.09,2.64,0,4.24.12,3.09,3.52-1.26,3.7-.28,8.85-3.23,11.08-2.76,2.09-7.43.52-11.25.59C1078.45,424.64,1073.32,424.56,1068.2,424.56Z"/><path class="cls-1" d="M646.58,378.12a3.32,3.32,0,0,1,0,.77c-.89,3.59-.74,8.23-3,10.47s-7.08.67-10.76.74c-6.15.12-12.3.13-18.45,0-2.21-.06-3.21.63-3.62,2.83-.9,4.77-1.91,9.53-3.08,14.24-.57,2.32.44,2.54,2.31,2.53,10-.06,20,.05,30-.07,2.86,0,4.38.25,3.2,3.72s-.43,8.3-3,10.45c-2.72,2.31-7.37.71-11.17.74-13.32.1-26.65.06-40,0-5.08,0-5.15.71-4-4.59,2.95-13.63,5.8-27.27,8.71-40.9a3.65,3.65,0,0,1,.55-1,11.14,11.14,0,0,1,3.77-.44q22.56,0,45.11,0A6.57,6.57,0,0,1,646.58,378.12Z"/><path class="cls-1" d="M559.74,376.7c8.57,3.49,16.2,8.16,18.38,17.95,2.25,10.13-2.67,20.48-12.3,25.5-15.79,8.23-32.06,7.29-48.39,1.48-2.27-.8-2.46-2-1.4-4,1.82-3.52,2.5-8.31,5.29-10.47s6.62,1.93,10.23,2.51c5.57.9,11.08,2.21,16.74.84a14.11,14.11,0,0,0,6.83-3.31c3.18-3.09,3.39-7.35.37-10.62-2.77-3-6.45-4.56-10-6.35-5.72-2.87-11.46-5.75-15.29-11.23,1.46-2.13,3.75-2,5.89-2,7.28,0,14.57-.27,21.85.15A2.53,2.53,0,0,0,559.74,376.7Z"/><path class="cls-1" d="M297.22,376.71a37.3,37.3,0,0,1,10.56,6.16c12.79,10,8.45,26.57.32,33.7-6.23,5.46-13.68,8-21.7,8.91-10.57,1.19-21,.36-31-3.52-2.55-1-3.43-2.16-1.94-4.82a68.78,68.78,0,0,0,4-8.72c.84-2.14,1.68-2.48,3.92-1.51,7.63,3.27,15.56,5.22,23.94,3.53a17.31,17.31,0,0,0,5-1.78c5.54-3.05,6.05-9.28,1.16-13.3-3.4-2.8-7.49-4.42-11.33-6.46-4.87-2.59-9.68-5.28-12.83-10.07,1.08-2.21,3.19-1.87,5-1.87,7.67,0,15.34-.26,23,.13A2.94,2.94,0,0,0,297.22,376.71Z"/><path class="cls-1" d="M347.85,392c-.19,2.4-.54,4.81-.56,7.22,0,6,3,9.85,8.73,11.46,8.5,2.37,16.76-1.46,21.11-9.71,1.8-3.41,2.5-7.2,3.9-10.74,4.87,1.07,9.81.47,14.72.63,1.5.05,3-.32,4.48.4-2.71,12.24-7.29,23.51-19.06,29.67-12.4,6.49-25.68,7-38.78,2.46-10.64-3.7-16.14-13.93-14.88-25.89.25-2.38,0-4.89,1.25-7.12,4.67.68,9.37.36,14.05.47C344.56,390.85,346.41,390.55,347.85,392Z"/><path class="cls-1" d="M646.58,378.12a6.42,6.42,0,0,1-3.7.76q-22.67,0-45.34,0c-1.11,0-2.34.31-3.2-.79,2-11.66,4.14-23.3,7.58-34.65,1.21-.6,2.51-.31,3.76-.32q23.13,0,46.25,0c1.25,0,2.56-.34,3.75.36.11,4.51-1.67,8.68-2.4,13-.34,2-2,1.56-3.33,1.57-9.32,0-18.64.11-28-.06-2.83,0-4.39.4-4.83,3.62-.6,4.43-1.81,8.77-2.76,13.15,1,1.22,2.36.59,3.54.6,8.64.06,17.29,0,25.93.08,1,0,2.72-1,2.9,1.23C646.71,377.17,646.64,377.65,646.58,378.12Z"/><path class="cls-1" d="M559.74,376.7c.64,2.44-1.33,1.34-2.07,1.35q-10.35.13-20.69,0a21.25,21.25,0,0,0-6.78.88c-5.68-6.25-5.06-15.93-.51-22.89,3.9-6,9.54-9.63,16.17-11.72a58.55,58.55,0,0,1,35.15.09c2.82.85,3.28,2,1.93,4.57-1.71,3.28-2.2,7.67-4.71,9.93-2.7,2.43-6.32-1.32-9.72-1.64-6.81-.66-13.54-1.58-19.45,3.2a4.25,4.25,0,0,0-1.87,3,6.19,6.19,0,0,0,.12,3.76C549.71,372.74,555.15,374.15,559.74,376.7Z"/><path class="cls-1" d="M297.22,376.71c-.51,2.08-2.22,1.35-3.48,1.36-7.3.06-14.61,0-21.91,0-1.53,0-3.09-.19-4.47.73-2-2.1-3.4-4.44-3.3-7.45a17,17,0,0,1,0-7.21c.54-8,5.71-12.88,12-16.63,10.17-6.06,21.4-6.45,32.79-5.23a43,43,0,0,1,9.71,2.27c2,.71,3,1.51,1.81,3.85a85.44,85.44,0,0,0-3.93,9.17c-.84,2.24-2,2.35-4.1,1.61-6.23-2.18-12.63-3.31-19.25-1.94a13.63,13.63,0,0,0-6.22,2.82c-3.53,3-3.7,8,0,10.75A37.15,37.15,0,0,0,297.22,376.71Z"/><path class="cls-1" d="M678.82,391.23c-1,5-1.82,10.08-3.15,15-.8,2.95.29,3.19,2.69,3.17,9.62-.08,19.24,0,28.85-.08,2.4,0,3.38.56,2.56,3-.08.24-.08.51-.15.76-1.09,3.65-.37,8.6-3,10.79s-7.39.64-11.21.66c-13.33.08-26.67,0-40,.08-2.75,0-3.5-.53-2.8-3.46,2.35-9.69,4.37-19.46,6.52-29.2a3.74,3.74,0,0,1,2.75-1.08C667.51,390.92,673.18,390.28,678.82,391.23Z"/><path class="cls-1" d="M678.82,391.23c-4.34,1.58-8.82.4-13.23.7-2.16.15-4.33,0-6.49,0,1.28-9.4,3.8-18.55,5.66-27.84,1.22-6.1,2.83-12.12,4-18.23.43-2.21,1.27-3,3.49-2.95,4.73.13,9.47.12,14.2,0,2.39-.06,2.74.77,2.24,3-3.12,13.72-6.11,27.48-9.13,41.22C679.26,388.49,679.06,389.87,678.82,391.23Z"/><path class="cls-1" d="M347.85,392c-5.26,0-10.51,0-15.77,0-1.31,0-3,.53-3.32-1.6.62-6.69,2.47-13.15,3.85-19.7,1.76-8.32,3.63-16.62,5.32-24.95.36-1.76.86-2.77,2.88-2.74,5,.09,10,.1,15,0,2.31-.05,2.49,1,2.07,2.88q-4.43,19.34-8.76,38.7C348.53,387,348.25,389.48,347.85,392Z"/><path class="cls-1" d="M400.23,391.22c-5.91,1.58-11.92.45-17.88.61-.92,0-1.14-.88-1.32-1.64.92-8.47,3.41-16.64,5-25,1.22-6.51,3-12.92,4.27-19.41.4-2,1.07-2.89,3.2-2.85,4.87.12,9.75.11,14.62,0,2.25-.05,2.59.95,2.15,2.84q-4,17.34-7.94,34.7C401.49,384,400.91,387.64,400.23,391.22Z"/><path class="cls-1" d="M655.68,343.47l-53.76-.05c.23-.11.45-.32.68-.32q26.24,0,52.46,0C655.26,343.07,655.47,343.33,655.68,343.47Z"/><path class="cls-1" d="M646.78,376.7c-1.06-1.39-2.58-.88-3.93-.88-8.2-.05-16.41,0-24.61-.05-1.31,0-2.89.63-3.83-1,9.92.77,19.86.07,29.78.41C645,375.24,647.41,373.71,646.78,376.7Z"/><path class="cls-1" d="M439.76,363.54a5.34,5.34,0,0,1,1.33-3.56v3.54Z"/><path class="cls-1" d="M547.31,367.3a2.87,2.87,0,0,1-.12-3.76Z"/><path class="cls-1" d="M494.42,363.51c.25-.65.51-1.3.81-2.1,1.06,1.22.39,2.07-.12,2.93Z"/><path class="cls-1" d="M794.66,381.24a40.51,40.51,0,0,0,9.6-4.33c12.32-8.36,11.3-23.68-2-30.19a29.78,29.78,0,0,0-4.64-1.82c-13-3.78-26.13-2.37-39.27-1-2.42.26-3.4,1.26-3.91,3.69q-7.67,36.63-15.65,73.2c-.61,2.76.21,3.27,2.65,3.52a183.82,183.82,0,0,0,30,.58c9.24-.55,18.38-1.93,26.37-7.23,7.21-4.78,11.58-11.1,10.89-20.19C808,389.11,802.88,384.45,794.66,381.24Zm-11.49,26.22c-3.58,2.55-8.74,3.85-15.76,3.86-7.32,0-7.32,0-5.77-7,1-4.37,2-8.71,2.8-13.11.42-2.41,1.51-3.09,3.85-3,4.11.11,8.2.14,12.15,1.38,3.61,1.12,6.5,3.15,7.13,7.2A10.27,10.27,0,0,1,783.17,407.46Zm5.86-35.9c-4.33,3.24-9.39,3.76-14.58,3.75-6.25,0-6.25,0-4.85-6.25.58-2.62,1.53-5.22,1.63-7.86.15-4.09,2.26-5.08,5.85-4.93,3.19.14,6.4-.16,9.5.87,2.95,1,5.32,2.58,5.79,5.95A8.41,8.41,0,0,1,789,371.56Z"/><path class="cls-1" d="M955.66,382.6,953,381.3c2.3-1.37,4.75-1.53,6.46-3.1-1.21-3.1-4-2.82-6.47-2.81-13,.05-26,.07-39,0a17.36,17.36,0,0,1-7.1-1.15c-3.47,15.86-6.92,31.73-10.45,47.58-.59,2.64,1.25,2.33,2.68,2.47,12.4,1.19,24.83,1.53,37.21-.05,9.6-1.23,18.51-4.17,25.25-11.69C970.37,402.68,967.52,388.21,955.66,382.6Zm-14.3,24.61c-3.51,2.72-8.84,4.09-16.06,4.11s-7.26,0-5.65-7.32q1.44-6.54,2.75-13.12c.38-1.88,1.18-2.77,3.33-2.72,4.36.11,8.71.09,12.89,1.49,3.46,1.16,6.15,3.19,6.81,7.07A10.25,10.25,0,0,1,941.36,407.21Z"/><path class="cls-1" d="M888.41,420.45c-.89-5.82-1.5-11.67-2.35-17.5-1.27-8.85-1.92-17.79-3.74-26.56-1.28-10.39-2.63-20.77-3.79-31.17C878.27,343,877,343,875.36,343c-6.65,0-13.3,0-20,0-1.48,0-2.66.19-3.48,1.72-5.75,10.68-11.58,21.31-17.38,32q-12.69,22.8-25.4,45.59c-1.19,2.12-.22,2.34,1.57,2.33,5.38,0,10.77-.1,16.15,0,2.12.06,2.87-1.14,3.66-2.71,2.7-5.37,5.54-10.68,8.18-16.08a3.64,3.64,0,0,1,3.83-2.36c6.8.11,13.6.2,20.38,0,2.77-.1,3.52,1,3.67,3.42.28,4.47.86,8.92,1,13.4.12,3.08.93,4.67,4.48,4.4a85.19,85.19,0,0,1,12.68,0C888.23,424.89,888.88,423.5,888.41,420.45ZM863.11,390c-5.49-.1-11,0-17,0,1.89-3.95,3.57-7.45,5.24-11l0-.09h.08c4.06-6.66,6.89-13.94,10.74-22,1.27,8,.82,15.09,2.32,22,.22,2.81.37,5.62.67,8.42C865.32,388.92,865.23,390,863.11,390Z"/><path class="cls-1" d="M965.9,351.27a30.28,30.28,0,0,0-15.77-7.78c-10.08-1.53-20.18-1.17-30.25,0-6.83.81-6.85,1-8.41,8-1.68,7.52-3.71,15-4.61,22.66-.14,3,2,2.34,3.71,2.34,14.4,0,28.8.05,43.2,0a8.43,8.43,0,0,1,5.67,1.68c1.27-.79,2.56-1.55,3.79-2.39C971.09,370.43,973,357.64,965.9,351.27Zm-18,19.27c-2.79,2.92-6.43,4-10.26,4.65a49.15,49.15,0,0,1-11.5-.14q1.62-8.49,3.26-17a1.82,1.82,0,0,1,1.92-1.52c4.46-.27,9-.82,13.32.66C950.75,359.28,952.35,365.86,947.88,370.54Z"/><path class="cls-1" d="M926.12,375.05c3.82.61,7.67.07,11.5.14A20.27,20.27,0,0,1,926.12,375.05Z"/><rect class="cls-1" x="252.72" y="463.85" width="850.22" height="115.46"/><path class="cls-2" d="M430.24,539.13a20.32,20.32,0,0,0,11.24,3.34c6.75,0,11.32-3.56,12.23-8.72.84-4.77-1.41-7.5-7.84-10.16-7.82-3-12.21-7.27-10.94-14.48,1.4-8,9-13.87,19-13.87,5.23,0,8.81,1.21,10.85,2.5L462,503.12a18,18,0,0,0-9.28-2.42c-7,0-10.36,4.17-11,7.66-.84,4.77,1.85,7.12,8.42,9.85,8.06,3.34,11.72,7.51,10.4,15-1.39,7.89-8.43,14.71-20.49,14.71-4.93,0-10.05-1.44-12.46-3.26Z"/><path class="cls-2" d="M516.38,547.17l3.82-21.68-11-29.42h7.51l4.71,14.11c1.29,3.86,2.26,7,3.22,10.53h.16c2-3.33,4.36-6.67,7-10.53l9.84-14.11h7.5l-22.3,29.34-3.84,21.76Z"/><path class="cls-2" d="M588.88,531.1l-8.14,16.07h-6.82l26.37-51.1h8l8.42,51.1h-7L607,531.1Zm17.66-5.16-2.41-14.7c-.55-3.34-.77-6.37-1-9.33H603c-1.29,3-2.67,6.14-4.21,9.25l-7.61,14.78Z"/><path class="cls-2" d="M671,496.76a71.07,71.07,0,0,1,12.84-1.06c7.05,0,11.38,1.28,14.05,4.16,2.18,2.28,3,5.77,2.31,9.71-1.19,6.75-6.22,11.22-11.93,13l0,.23c3.7,1.36,5.41,5,5.69,10.31.41,7.12.75,12.05,1.47,14h-6.82c-.58-1.44-.95-5.84-1.26-12.2-.28-7.05-2.54-9.71-8.49-9.94h-6.21l-3.91,22.14h-6.59ZM673.46,520h6.75c7,0,12.2-3.87,13.23-9.7,1.16-6.6-3.1-9.48-10.07-9.56a28.66,28.66,0,0,0-6.62.61Z"/><path class="cls-2" d="M756.37,496.07l-9,51.1h-6.6l9-51.1Z"/><path class="cls-2" d="M807.88,531.1l-8.14,16.07h-6.82l26.37-51.1h8l8.42,51.1h-7L826,531.1Zm17.66-5.16-2.41-14.7c-.55-3.34-.77-6.37-1-9.33H822c-1.29,3-2.67,6.14-4.21,9.25l-7.6,14.78Z"/><path class="cls-2" d="M896.69,496.07l-3.77,21.38h24.71l3.77-21.38h6.67l-9,51.1h-6.67l4.22-23.95H891.9l-4.22,23.95h-6.6l9-51.1Z"/></svg>