<svg id="Layer_1" data-name="Layer 1" xmlns="http://www.w3.org/2000/svg" viewBox="0 0 1106.13 743.43"><defs><style>.cls-1{fill:#e7791a;}.cls-2{fill:#2b1971;}</style></defs><title>bank-sumit</title><path class="cls-1" d="M288.24,209.75c2.7,1.3,5.71,1.23,8.55,1.95,15.95,4.06,28.62,12.66,37.38,26.75.28.45.52.94.84,1.52-1.53.42-2.28-.67-3.18-1.2a102.72,102.72,0,0,0-63.12-14c-27.95,2.6-52.7,13.52-75.42,29.45-18.41,12.91-34.29,28.42-46.83,47.17-8.23,12.32-14.71,25.41-16.64,40.38-2.5,19.34,6.1,33.89,24.43,41,11.66,4.5,23.9,5.41,36.23,5.31,10.89-.1,21.7-1.26,32.62-2.33-4.44,1.37-8.85,2.85-13.32,4.09-18.8,5.25-37.85,8.69-57.47,6.52-13.66-1.52-26.2-5.82-35.89-16.23-7.17-7.7-10.82-17-11.61-27.34-1.24-16.39,3.44-31.43,11.42-45.42a200.43,200.43,0,0,1,28.55-38.73c12.82-13.52,27.94-24.13,44.14-33.2,22.1-12.37,45.4-21.48,70.65-25,.47-.07.88-.18,1.07-.67Z"/><path class="cls-2" d="M1102.94,440.84c-2.76-.19-3.65-1.8-4.38-4.4-2.07-7.32-4.72-14.35-11.69-18.82-4.73-3-9.82-3.64-15.15-3.52-3.06.08-7-1.33-9,.64-1.77,1.79-.5,5.68-.5,8.64,0,30.12.12,60.24,0,90.36,0,9.15,4,11.93,12.29,12.62,1.37.12,2.75,0,4.13,0s1.33.94,1.35,1.9,0,1.89-1.35,1.9H1077q-30,0-60,0c-1,0-2.71.88-2.92-1.28-.15-1.57,0-2.7,2.1-2.52a24.86,24.86,0,0,0,7.54-.59c4.59-1,6.92-3.47,7.61-8.15a44.4,44.4,0,0,0,.51-6.51c0-31.27,0-62.54.09-93.81,0-2.5-.47-3.52-3.17-3.3-3.88.33-7.79,0-11.7.36-12,1.2-17.53,9.2-20.87,19.56a25.18,25.18,0,0,0-1.07,4.68c-.22,1.77-1.28,1.81-2.66,1.81-1.72,0-1.72-1-1.72-2.26,0-9.78.1-19.55,0-29.32,0-2.84,1.61-2.45,3.33-2.45h104.85c1.38,0,2.76,0,4.13-.06Z"/><path class="cls-2" d="M796.07,420.61l-27,63.28q-9.32,21.86-18.63,43.68c-.46,1.08-.47,2.57-2.23,2.65-2,.09-2-1.58-2.56-2.74q-22.5-51.57-45-103.17c-.44-1-.94-2-1.89-4-.09,1.85-.16,2.68-.16,3.5q0,43.62.08,87.24c0,4.51.66,8.63,4.45,11.75,3.24,2.67,7.08,3.1,11,3.53,1.33.15,2.72-.21,2.72,2s-1.4,1.9-2.74,1.9q-18.79,0-37.59,0c-1.24,0-2.79.57-2.85-1.79-.06-2.21,1.21-1.94,2.62-2,8.47-.6,14.87-4,14.82-15.89-.14-29-.22-57.93,0-86.9.08-10.11-4.62-13.11-13.4-13.15-.58,0-1.16,0-1.73,0-1.43.12-2.36-.08-2.34-1.95s.66-2.1,2.24-2.09c15.63,0,31.26.08,46.89,0,2.38,0,2.82,1.43,3.5,3q16.21,37.61,32.44,75.21c.27.63.58,1.24.89,1.9,1.41-.39,1.37-1.74,1.77-2.69,10.34-24.65,20.69-49.29,30.85-74,1.13-2.74,2.53-3.46,5.31-3.43,14.83.13,29.66,0,44.48.08,1.2,0,2.95-.69,2.93,1.7,0,1.46-.16,2.39-2,2.33-2.86-.08-5.74-.22-8.55.67-4.2,1.34-6.28,3.76-6.69,8.17-.25,2.63-.44,5.27-.45,7.91q0,41,0,82.07c0,2.53.16,5.06.38,7.57.43,5.11,2.86,7.82,7.89,8.95a25.24,25.24,0,0,0,7.19.59c1.54-.09,2.29.27,2.26,2.06s-.91,1.86-2.19,1.77c-.34,0-.69,0-1,0q-29.66,0-59.32,0c-1.22,0-3.21.95-3.21-1.74,0-1.39.28-2.14,1.88-2.06a29.15,29.15,0,0,0,6.52-.42c6.22-1.15,8.72-3.92,8.94-10.27.12-3.45.12-6.9.13-10.35V420.64Z"/><path class="cls-1" d="M85.37,464.5c5,1.67,9.59,3,14,4.78,11,4.48,18.46,12,19.4,24.43,1,12.67-5,21.82-15.49,28.26-9.89,6.07-21,8-32.32,8.18-21.6.26-43.21.1-64.81.08-1.22,0-2.85.64-3-1.71s1.46-2.07,2.92-2.17c1.84-.13,3.67-.29,5.49-.55,5.32-.77,7.91-3.73,8.49-9.15.86-8,.42-16.08.45-24.11.08-20.23,0-40.45,0-60.68a107.64,107.64,0,0,0-.5-12c-.56-5.08-2.73-7.62-7.68-8.74a27.59,27.59,0,0,0-7.18-.62c-1.49.05-2-.56-2-2s.49-2.08,2-2c26.18.55,52.41-1.39,78.54,1.36,11.24,1.18,20.22,6.47,25.84,16.66,7.4,13.42,3.11,27.58-10.46,34.79A85,85,0,0,1,85.37,464.5Zm-35.21,29c0,7-.06,14,0,21,0,4.53,2.15,7.55,6.38,8.13,8.77,1.19,16.87-.84,22.85-7.61,8.09-9.17,8.76-23.62,2.17-34a21.48,21.48,0,0,0-11.33-9.06c-5.62-2-11.47-2.07-17.3-2.43-2.39-.15-2.86.82-2.83,3C50.23,479.45,50.16,486.46,50.16,493.46Zm0-55.73v15.48c0,8.94,0,8.94,8.93,8.27,11.84-.88,20-7.4,22-17.7a38,38,0,0,0,.32-9.6A19.69,19.69,0,0,0,68,416c-4.81-1.72-9.84-1.95-14.9-2.11-2.21-.07-3,.49-2.94,2.81C50.25,423.73,50.16,430.73,50.16,437.73Z"/><path class="cls-2" d="M244.6,258.66c19.26-9.42,38.13-15.31,58.9-13.93,27.59,1.84,49.35,21.7,53.05,49.14,2.58,19.13-2.71,36.39-12.93,52.29-11.88,18.49-28.35,32.45-46.2,44.76-23.82,16.44-49.67,28.59-78,35.11-15.46,3.56-31.08,5.14-46.83,2.66-17.52-2.75-34.16-9.71-46.93-30.31,1-.8,1.79-.23,2.63.36,28.34,20,59.25,22.15,91.32,11.93,41.52-13.22,74.07-38.85,98.62-74.63,8-11.71,13.9-24.48,15.81-38.87,2.22-16.66-5.33-30-21.11-36.48-10.86-4.49-22.28-5.36-33.79-5.22a186.38,186.38,0,0,0-31.86,3.18A21.3,21.3,0,0,1,244.6,258.66Z"/><path class="cls-1" d="M366.82,486.45q12-11.68,23.89-23.38a15.3,15.3,0,0,0,2.24-3c3.38-5.61,1.7-9.49-4.67-10.86-.67-.15-1.35-.28-2-.37-1.62-.21-1.51-1.37-1.51-2.56,0-1.36.87-1.39,1.84-1.39h35.51c1.08,0,1.76.32,1.74,1.55,0,1.05.1,2.08-1.44,2.21-8.74.72-14.28,6.79-20.17,12.23-4.05,3.73-8,7.64-12,11.37-1.33,1.23-1.56,2.11-.45,3.69q15.58,22.1,31,44.29c2.11,3,4.71,5.37,8.49,6,1.52.24,2.14.89,2.06,2.48-.1,2.09-1.57,1.6-2.73,1.6q-19.83,0-39.65,0c-1.12,0-2.64.56-2.75-1.57-.08-1.62.58-2,2.08-2.4,3.76-.93,4.55-2.85,2.34-6.39-3.53-5.64-7.37-11.09-11.11-16.59-2.25-3.33-4.63-6.57-6.83-9.94-1-1.57-1.66-2-3.31-.48-2.45,2.24-3.73,4.56-3.5,8,.39,5.73.16,11.49.41,17.23.22,5.15,1.5,6.57,6.51,7.83,1.56.39,2.83.71,2.58,2.81s-1.76,1.46-2.87,1.46q-19.65.06-39.31,0c-1.08,0-2.61.68-2.89-1.42s1-2.41,2.55-2.83c5.12-1.4,6.35-2.86,6.49-8.26.66-24.47.17-49,.28-73.43q0-12.59-.3-25.16c-.15-5.64-1.37-7.11-6.72-8.43-1.57-.4-2.41-.76-2.31-2.58.1-2,1.46-1.7,2.67-1.71,10.11,0,20.22.1,30.33-.07,3,0,2.67,1.59,2.67,3.48q0,36.21,0,72.41v4Z"/><path class="cls-2" d="M868.45,460.53c0-12.93,0-23.39,0-33.85,0-1.84-.07-3.68-.16-5.51-.47-9-5.24-10.36-11.8-10.71a14.32,14.32,0,0,0-2.07,0c-1.4.12-2.1-.28-2.1-1.87s.49-2.19,2.17-2.19q30.35.08,60.7,0c1.45,0,2,.44,2.07,2,0,1.72-.67,2.13-2.25,2.11-3.09,0-6.2-.22-9.24.68-3.54,1-5.82,3.18-6.17,7-.25,2.74-.51,5.5-.51,8.25,0,23.22,0,46.44.1,69.66,0,5.72.09,11.62,3.24,16.7,5.08,8.2,13.16,10.73,22.19,10.69,16.84-.09,28-10.42,29.92-27.14,1.37-12.15.85-24.34.94-36.52.07-9.77,0-19.54,0-29.31,0-2.07-.05-4.14-.23-6.2-.83-9.8-4.68-13.44-14.44-13.79-1.44-.06-3.35.7-3.26-2.11s2.11-1.89,3.45-1.89q18.63-.1,37.25,0c1.31,0,3.1-.75,3.18,1.85.1,2.78-1.76,2.11-3.24,2.14-8.89.19-13,3.77-14.12,12.61a56,56,0,0,0-.42,7.21c0,18.17,0,36.33-.1,54.5A91.82,91.82,0,0,1,962,501.87c-3.17,16.39-14.33,25.13-29.48,29.31-11.24,3.09-22.77,2.81-34.13.19-15.13-3.49-27.78-14.36-29.38-33C867.85,485,868.91,471.5,868.45,460.53Z"/><path class="cls-2" d="M554.18,452.53c0-6.1.13-18.29,0-30.47-.12-8.4-3.42-11.44-11.86-11.61-.69,0-1.39-.06-2.07,0-1.39.11-2.09-.28-2.1-1.88s.53-2.18,2.19-2.18q30.33.08,60.68,0c1.58,0,2.26.41,2.28,2.12,0,1.88-1,2-2.41,1.95-3.1,0-6.2-.18-9.24.69a7.78,7.78,0,0,0-6.09,7.07,91,91,0,0,0-.63,9.62c0,20.92,0,41.84,0,62.75a108.75,108.75,0,0,0,1,14.42c1.28,9.66,7.22,15.19,16.25,17.35,10,2.41,19.64,1.13,28-5.5,7.53-6,10-14.35,10.57-23.41,1.47-22.62.37-45.26.61-67.9a23.57,23.57,0,0,0-.76-5.78c-1.53-6.26-5.75-9-13.88-9.33-1,0-2.61.72-3-.76s-.73-3.34,2.19-3.32c13,.13,26,.08,39,0,1.49,0,2.31.22,2.31,2s-.74,2.08-2.26,2c-11.87-.32-15.25,7.08-15.19,15.57.1,16.09,0,32.19,0,48.28a202.25,202.25,0,0,1-1.57,26.82c-1.78,12.82-9.5,21.65-20.59,26.59-18,8-36.57,8.21-54.5-.88-12.24-6.21-17.39-17.12-18.28-30.3C553.87,483.9,554.6,471.25,554.18,452.53Z"/><path class="cls-2" d="M438.7,509.49c0-7,0-14,0-21,0-1-.47-2.41,1.45-2.44,1.53,0,2.41.16,2.85,2,2.46,10.55,6.53,20.32,14.84,27.76s17.59,11.5,28.92,10.15c9.1-1.08,15.84-6.25,17.84-13.88,1.88-7.16-1.48-14.72-8.9-20.11-6.07-4.42-12.91-7.43-19.53-10.84-9.28-4.78-18.75-9.27-26.29-16.8-10.15-10.12-14-22.09-9.3-35.82s15-21.57,29.25-24.16a44.93,44.93,0,0,1,27.84,3.81c2,.93,4,1.78,6,2.6,6.48,2.61,8.72,1.61,10.57-5,.41-1.45.8-2.27,2.45-2.11,1.94.19,1.22,1.67,1.25,2.62.41,12.06.75,24.12,1.1,36.18,0,1.31.53,2.84-1.77,2.89-1.76,0-2.6-.37-3-2.32-2.67-13.16-9.73-23.24-22-29-8.83-4.17-18.06-5-26.56.91-8.22,5.68-8.8,15.72-1.83,22.93,6.07,6.26,14,9.47,21.56,13.31,9.52,4.84,19.18,9.4,27.5,16.25,18.93,15.59,18.34,42.2-1.41,56.76-13.18,9.73-27.84,11-43.23,6.64-4-1.12-7.75-2.86-11.65-4.19-6.14-2.09-10.1-.74-13.41,4.87a2.89,2.89,0,0,1-3.3,1.6c-2.11-.24-1.23-1.91-1.24-3C438.67,523.28,438.7,516.38,438.7,509.49Z"/><path class="cls-1" d="M261.29,455c2.94-2.46,5.32-4.55,7.81-6.5a28.47,28.47,0,0,1,21.29-6.07c9.7,1,17.72,9.69,18.66,20.45,1.41,15.94.37,31.93.66,47.89.05,2.87.19,5.72.49,8.59.41,3.89,2.31,6.06,6.16,6.67,1.44.23,3,.36,2.76,2.62s-1.87,1.63-3.07,1.63q-19.14.06-38.27,0c-1.11,0-2.71.6-2.79-1.51-.05-1.25.06-2.25,1.59-2.55,5-1,6.41-4.65,6.76-9.09.1-1.26.1-2.53.1-3.79q0-22.06,0-44.13c0-2.18-.28-4.35-.39-6.52-.36-6.82-6.93-9.74-12.92-6.06-5.44,3.33-9.22,7.62-9,15,.48,13.89.15,27.81.14,41.71a52.63,52.63,0,0,0,.57,6.51c.42,3.42,2.1,5.5,5.47,6.15,1.66.33,2.72,1,2.43,2.94s-1.86,1.36-2.94,1.37q-19.14.06-38.27,0c-1.11,0-2.62.63-2.91-1.43s1-2.5,2.54-2.8c4-.75,6.32-3,6.44-7.26,0-1.71.38-3.42.38-5.14q0-25.86,0-51.71c0-1.83-.36-3.66-.4-5.49-.11-4.37-2.34-6.76-6.61-7.38-1.51-.21-2.53-.77-2.36-2.65.2-2.12,1.71-1.49,2.82-1.49,10.11-.05,20.22,0,30.33-.07,1.94,0,2.67.55,2.54,2.52C261.18,449.62,261.29,451.92,261.29,455Z"/><path class="cls-1" d="M178.85,518.11c-5.25,4-10.07,7.86-15.8,10.38a29.75,29.75,0,0,1-12,2.85c-12.07,0-19.91-10.08-17-21.9,1.66-6.77,6-11.5,11.45-15.41,9.46-6.82,20-11.7,30.53-16.57,2.08-1,3-2,2.84-4.38a91.86,91.86,0,0,1-.22-11.37c.57-9.81-7.17-13.21-15.52-11.7a16.84,16.84,0,0,0-4.5,1.66c-3.49,1.78-4,4.39-1.68,7.58.41.55.89,1.05,1.33,1.58,3,3.65,4.41,7.64,2,12.08-2.6,4.77-7,6.54-12.19,6.15-11.17-.84-16.22-10.83-10.46-20.43a24.93,24.93,0,0,1,8.84-9c12.48-7.16,25.87-9.36,39.84-5.89,11.66,2.89,18.35,11.85,18.46,23.82.14,13.45.09,26.9.16,40.35,0,2.3.25,4.59.37,6.88.09,1.79.38,3.5,2.33,4.23a4,4,0,0,0,4.37-1.32c1.29-1.45,2.15-1.56,3.59-.28,1.64,1.46.13,2.26-.51,3.1-4.94,6.51-11,11-19.66,10.87C186.09,531.22,181.32,527.6,178.85,518.11Zm0-20.61c0-4,0-8,0-12,0-2.19-.7-2.25-2.37-1.25a48.39,48.39,0,0,0-13,11.07c-2.87,3.55-4.71,7.57-4.16,12.34s4.67,8.13,9.89,7.82c5.56-.33,9.64-4,9.64-8.68Q178.83,502.13,178.82,497.5Z"/></svg>