<svg id="Layer_1" data-name="Layer 1" xmlns="http://www.w3.org/2000/svg" viewBox="0 0 1106.13 743.43"><defs><style>.cls-1,.cls-2{fill:#095540;}.cls-1,.cls-10,.cls-11,.cls-12,.cls-13,.cls-14,.cls-15,.cls-16,.cls-17,.cls-18,.cls-19,.cls-20,.cls-21,.cls-22,.cls-23,.cls-24,.cls-25,.cls-26,.cls-27,.cls-28,.cls-29,.cls-3,.cls-30,.cls-31,.cls-32,.cls-33,.cls-34,.cls-35,.cls-36,.cls-37,.cls-38,.cls-39,.cls-4,.cls-40,.cls-5,.cls-6,.cls-7,.cls-8,.cls-9{fill-rule:evenodd;}.cls-3{fill:#f9bf00;}.cls-4{fill:#fac100;}.cls-5{fill:#fac300;}.cls-6{fill:#fac500;}.cls-7{fill:#fbc600;}.cls-8{fill:#fbc900;}.cls-9{fill:#fccb00;}.cls-10{fill:#fccc00;}.cls-11{fill:#fcce00;}.cls-12{fill:#fccf00;}.cls-13{fill:#fdd100;}.cls-14{fill:#fdd300;}.cls-15{fill:#ffd500;}.cls-16{fill:gold;}.cls-17{fill:#f9bc00;}.cls-18{fill:#f8ba00;}.cls-19{fill:#f8b600;}.cls-20{fill:#f7b400;}.cls-21{fill:#f7b200;}.cls-22{fill:#f6ae00;}.cls-23{fill:#f6ad00;}.cls-24{fill:#f5aa00;}.cls-25{fill:#f5a700;}.cls-26{fill:#f4a400;}.cls-27{fill:#f4a000;}.cls-28{fill:#f39e00;}.cls-29{fill:#f29c00;}.cls-30{fill:#f29800;}.cls-31{fill:#f19600;}.cls-32{fill:#f19400;}.cls-33{fill:#f29b00;}.cls-34{fill:#f3a000;}.cls-35{fill:#f4a300;}.cls-36{fill:#f5a900;}.cls-37{fill:#f7b100;}.cls-38{fill:#f8b800;}.cls-39{fill:#f9be00;}.cls-40{fill:#f3a200;}</style></defs><title>bank-mandiri-syariah</title><path class="cls-1" d="M15.08,315.25c0-15.91-.29-29.25-1.15-41.17H44l1.41,20.44h.87C53.06,283.75,65.56,271,88.83,271c18.17,0,32.34,10.22,38.32,25.53h.56a52.34,52.34,0,0,1,17-17.31c7.65-5.37,16.44-8.22,27.8-8.22,23,0,46.24,15.6,46.24,59.86v81.45H184.73V335.93c0-23-7.95-36.59-24.67-36.59-11.91,0-20.71,8.52-24.42,18.45a49.23,49.23,0,0,0-1.7,11.62v82.87h-34v-80c0-19.28-7.67-32.89-23.85-32.89-13,0-21.84,10.2-25,19.87a29.76,29.76,0,0,0-2,11.35v81.72h-34Z"/><path class="cls-1" d="M314.66,344.73c-24.65-.56-48.21,4.84-48.21,25.83,0,13.63,8.78,19.88,19.84,19.88,13.91,0,24.14-9.1,27.26-19a25.06,25.06,0,0,0,1.11-7.67v-19Zm34.07,34.35c0,12.49.56,24.68,2,33.2H319.22L317,397h-.86c-8.5,10.78-23,18.45-40.86,18.45-27.8,0-43.41-20.16-43.41-41.15,0-34.9,30.93-52.48,82-52.2v-2.27c0-9.08-3.67-24.14-28.08-24.14-13.6,0-27.81,4.27-37.15,10.21l-6.82-22.7C252,276.92,269.85,271,291.7,271c44.26,0,57,28.09,57,58.16Z"/><path class="cls-1" d="M371.41,315.25c0-15.91-.29-29.25-1.12-41.17h30.65l1.69,20.72h.86c5.95-10.77,21-23.83,44-23.83,24.14,0,49.1,15.6,49.1,59.31v82H461.63v-78c0-19.87-7.35-34.91-26.39-34.91-13.88,0-23.54,9.93-27.22,20.44-1.14,3.11-1.44,7.36-1.44,11.33v81.17H371.41Z"/><path class="cls-1" d="M612,331.68a49.61,49.61,0,0,0-.83-9.07C608,309,597,297.91,581.1,297.91c-22.43,0-34.91,19.88-34.91,45.69,0,25.25,12.48,43.69,34.62,43.69,14.18,0,26.67-9.64,30.07-24.67A38.59,38.59,0,0,0,612,352.4V331.68Zm34.91-120.86V373.38c0,14.2.55,29.53,1.13,38.9H616.84l-1.4-21.84h-.59c-8.23,15.29-25,25-45.11,25-32.92,0-59-28.11-59-70.67-.29-46.24,28.67-73.76,61.85-73.76,19,0,32.64,7.93,38.87,18.15H612v-78.3Z"/><rect class="cls-2" x="671.86" y="273.83" width="35.39" height="138.45"/><path class="cls-1" d="M731.71,318.62c0-18.71-.27-32.05-1.13-44.53H761l1.11,26.38h1.14C770,280.9,786.2,271,801,271a37.86,37.86,0,0,1,8.24.83v32.93A48.5,48.5,0,0,0,799,303.59c-16.77,0-28.11,10.79-31.21,26.39a57.28,57.28,0,0,0-1.14,10.8v71.5H731.71Z"/><rect class="cls-2" x="820.23" y="273.83" width="35.37" height="138.45"/><path class="cls-1" d="M7.71,587c6.92,4.18,17.29,8.64,28.75,8.64,20.23,0,29.79-10.73,29.79-23.79,0-13.86-8.51-21.17-26.86-28.49-21-7.86-32.47-19.08-32.47-34.24,0-18.29,14.63-34,39.39-34,11.71,0,21.83,3.41,28.21,7.86l-4.8,10.16C65.2,490,57,485.61,44.18,485.61c-16.23,0-24.75,10.18-24.75,21.67,0,13.08,9,18.55,26.33,25.62,20.78,8.08,33,18.29,33,37.36,0,21.43-17,35.8-43.1,35.8-12.25,0-24-3.37-32.48-8.61Z"/><path class="cls-1" d="M104.33,641.05c8.69-6.52,19.68-20.86,26.07-35.76,1.07-2.6,1.58-4.2,1.58-5.5a17.37,17.37,0,0,0-1.58-5.48L83,478H96.61l33.52,82.07c3.48,8.86,6.92,19.09,9.31,26.91H140c2.67-7.58,5.86-17.51,9.84-27.71L181,478h13.56l-38.31,93.55c-15.42,39-29,67.43-47,79.78Z"/><path class="cls-1" d="M274.91,536.31c-27.93-.82-64.66,3.39-64.66,33.43,0,18,12.24,26.13,25.55,26.13,21.3,0,33.53-12.8,37.8-25.09a20.75,20.75,0,0,0,1.31-7.58V536.31Zm12.79,37.36c0,9.92.25,20.12,1.86,29.8H277.85L276,585.41h-.54c-6.38,9.68-20.48,20.91-41,20.91-25.81,0-37.49-17.76-37.49-34.48,0-29,25.8-46.52,78-46v-3.4c0-12.28-2.38-37.09-32.74-36.82-11.14,0-22.88,2.85-32.2,9.38l-4-9.13c11.72-7.59,26.09-10.72,37.54-10.72,37,0,44.17,27.16,44.17,49.4Z"/><path class="cls-1" d="M318,515.64c0-12.54-.27-25.34-1.07-37.63h11.71l.53,25.35h.8c5.58-15.94,18.89-28.22,36.19-28.22a32.64,32.64,0,0,1,5.35.53v11.75a44.48,44.48,0,0,0-6.13-.26c-17.56,0-30.07,14.9-33.54,35a56.78,56.78,0,0,0-1.07,12v69.28H318Z"/><rect class="cls-2" x="388.04" y="478.01" width="12.77" height="125.46"/><path class="cls-1" d="M499.82,536.31c-27.93-.82-64.67,3.39-64.67,33.43,0,18,12.22,26.13,25.54,26.13,21.3,0,33.53-12.8,37.79-25.09a20.84,20.84,0,0,0,1.34-7.58V536.31Zm12.77,37.36c0,9.92.27,20.12,1.84,29.8H502.74l-1.84-18.06h-.55c-6.38,9.68-20.49,20.91-41,20.91-25.8,0-37.51-17.76-37.51-34.48,0-29,25.81-46.52,78-46v-3.4c0-12.28-2.41-37.09-32.74-36.82-11.19,0-22.89,2.85-32.21,9.38l-4-9.13c11.72-7.59,26.08-10.72,37.52-10.72,37,0,44.19,27.16,44.19,49.4Z"/><path class="cls-1" d="M544.86,441.68H556v58.81h.53a47.14,47.14,0,0,1,17.29-18,50.37,50.37,0,0,1,25.82-7.32c12,0,44.46,6,44.46,52.78v75.55H631.3V529.22c0-22.44-9-43.12-35.13-43.12-18.1,0-33,12.82-38.6,28.24-1.34,3.92-1.6,7.33-1.6,12.55v76.58H544.69Z"/><polygon class="cls-3" points="433.25 186.05 433.37 186.21 433.24 186.06 433.25 186.05"/><polygon class="cls-3" points="435.17 184.95 451.58 208.39 433.37 186.21 433.25 186.05 435.17 184.95"/><path class="cls-3" d="M437.09,183.86l26.6,38a36.29,36.29,0,0,1-3.49-3l-8.62-10.49L435.17,185Z"/><path class="cls-3" d="M439,182.76l29.78,42.54a53,53,0,0,1-5.1-3.44l-26.6-38Z"/><path class="cls-3" d="M440.92,181.67l32.17,45.94c-1.56-.75-3-1.53-4.3-2.31L439,182.76Z"/><path class="cls-3" d="M442.84,180.58l34.09,48.68q-2-.78-3.84-1.65l-32.17-45.94Z"/><path class="cls-3" d="M444.76,179.48l35.69,51c-1.22-.37-2.39-.77-3.52-1.2l-34.09-48.68Z"/><path class="cls-3" d="M446.68,178.39l37.05,52.91c-1.13-.24-2.22-.53-3.28-.84l-35.69-51Z"/><path class="cls-3" d="M448.59,177.29l38.21,54.58c-1.05-.16-2.07-.35-3.07-.57l-37.05-52.91Z"/><path class="cls-3" d="M450.51,176.2l39.21,56c-1-.08-2-.19-2.92-.33l-38.21-54.58Z"/><path class="cls-3" d="M452.43,175.1l40.07,57.23c-.94,0-1.87-.06-2.78-.13l-39.21-56Z"/><path class="cls-4" d="M454.34,174l40.81,58.28c-.9,0-1.78.05-2.65,0L452.43,175.1Z"/><path class="cls-4" d="M456.26,172.91l41.44,59.18c-.86.09-1.71.16-2.55.2L454.34,174Z"/><path class="cls-4" d="M458.18,171.82l42,59.94c-.82.14-1.64.25-2.45.33l-41.44-59.18Z"/><path class="cls-4" d="M460.1,170.72l42.42,60.59q-1.2.25-2.37.45l-42-59.94Z"/><path class="cls-4" d="M462,169.63l42.8,61.11c-.77.22-1.54.4-2.29.57L460.1,170.72Z"/><path class="cls-4" d="M463.93,168.54,507,230.08c-.74.24-1.48.46-2.21.66L462,169.63Z"/><path class="cls-5" d="M465.85,167.44l43.32,61.87c-.72.28-1.44.53-2.15.77l-43.09-61.54Z"/><path class="cls-5" d="M467.77,166.35l43.49,62.11c-.7.31-1.4.59-2.09.85l-43.32-61.87Z"/><path class="cls-5" d="M469.68,165.25l43.61,62.28c-.68.33-1.36.64-2,.93l-43.49-62.11Z"/><path class="cls-5" d="M471.6,164.16l43.64,62.33-.92.54h0l-1,.5-43.61-62.28Z"/><polygon class="cls-5" points="473.52 163.06 517.15 225.37 515.24 226.49 471.6 164.16 473.52 163.06"/><polygon class="cls-5" points="475.44 161.97 519.05 224.26 517.15 225.37 473.52 163.06 475.44 161.97"/><polygon class="cls-5" points="477.35 160.87 520.95 223.15 519.05 224.26 475.44 161.97 477.35 160.87"/><polygon class="cls-6" points="479.27 159.78 522.86 222.03 520.95 223.15 477.35 160.87 479.27 159.78"/><polygon class="cls-6" points="481.19 158.68 524.76 220.92 522.86 222.03 479.27 159.78 481.19 158.68"/><polygon class="cls-6" points="483.1 157.59 526.67 219.8 524.76 220.92 481.19 158.68 483.1 157.59"/><polygon class="cls-7" points="485.02 156.5 528.57 218.69 526.67 219.8 483.1 157.59 485.02 156.5"/><polygon class="cls-7" points="486.94 155.4 530.47 217.58 528.57 218.69 485.02 156.5 486.94 155.4"/><polygon class="cls-7" points="488.86 154.31 532.38 216.46 530.47 217.58 486.94 155.4 488.86 154.31"/><polygon class="cls-7" points="490.77 153.21 534.28 215.35 532.38 216.46 488.86 154.31 490.77 153.21"/><polygon class="cls-7" points="492.69 152.12 536.19 214.24 534.28 215.35 490.77 153.21 492.69 152.12"/><polygon class="cls-7" points="494.61 151.02 538.09 213.12 536.19 214.24 492.69 152.12 494.61 151.02"/><polygon class="cls-8" points="496.53 149.93 539.99 212.01 538.09 213.12 494.61 151.02 496.53 149.93"/><polygon class="cls-8" points="498.44 148.83 541.9 210.89 539.99 212.01 496.53 149.93 498.44 148.83"/><polygon class="cls-8" points="500.36 147.74 543.8 209.78 541.9 210.89 498.44 148.83 500.36 147.74"/><polygon class="cls-8" points="502.28 146.64 545.71 208.67 543.8 209.78 500.36 147.74 502.28 146.64"/><polygon class="cls-9" points="504.19 145.55 547.61 207.55 545.71 208.67 502.28 146.64 504.19 145.55"/><polygon class="cls-9" points="506.11 144.46 549.51 206.44 547.61 207.55 504.19 145.55 506.11 144.46"/><polygon class="cls-9" points="508.03 143.36 551.42 205.33 549.51 206.44 506.11 144.46 508.03 143.36"/><polygon class="cls-10" points="509.95 142.27 553.32 204.21 551.42 205.33 508.03 143.36 509.95 142.27"/><polygon class="cls-10" points="511.86 141.17 555.23 203.1 553.32 204.21 509.95 142.27 511.86 141.17"/><polygon class="cls-10" points="513.78 140.08 557.13 201.99 555.23 203.1 511.86 141.17 513.78 140.08"/><polygon class="cls-10" points="515.7 138.98 559.03 200.87 557.13 201.99 513.78 140.08 515.7 138.98"/><polygon class="cls-11" points="517.62 137.89 560.94 199.76 559.03 200.87 515.7 138.98 517.62 137.89"/><polygon class="cls-11" points="519.53 136.79 562.84 198.64 560.94 199.76 517.62 137.89 519.53 136.79"/><polygon class="cls-11" points="521.45 135.7 564.75 197.53 562.84 198.64 519.53 136.79 521.45 135.7"/><polygon class="cls-12" points="523.37 134.6 566.65 196.42 564.75 197.53 521.45 135.7 523.37 134.6"/><polygon class="cls-12" points="525.29 133.51 568.55 195.3 566.65 196.42 523.37 134.6 525.29 133.51"/><polygon class="cls-12" points="527.2 132.41 570.46 194.19 568.55 195.3 525.29 133.51 527.2 132.41"/><polygon class="cls-12" points="529.12 131.32 572.36 193.07 570.46 194.19 527.2 132.41 529.12 131.32"/><polygon class="cls-13" points="531.04 130.23 574.26 191.96 572.36 193.07 529.12 131.32 531.04 130.23"/><polygon class="cls-13" points="532.96 129.13 576.17 190.85 574.26 191.96 531.04 130.23 532.96 129.13"/><polygon class="cls-13" points="534.87 128.04 578.07 189.73 576.17 190.85 532.96 129.13 534.87 128.04"/><polygon class="cls-14" points="536.79 126.94 579.98 188.62 578.07 189.73 534.87 128.04 536.79 126.94"/><polygon class="cls-14" points="538.71 125.85 581.88 187.51 579.98 188.62 536.79 126.94 538.71 125.85"/><polygon class="cls-14" points="540.62 124.75 583.78 186.39 581.88 187.51 538.71 125.85 540.62 124.75"/><polygon class="cls-15" points="542.54 123.66 585.69 185.28 583.78 186.39 540.62 124.75 542.54 123.66"/><polygon class="cls-15" points="544.46 122.56 587.59 184.16 585.69 185.28 542.54 123.66 544.46 122.56"/><polygon class="cls-16" points="546.38 121.47 589.5 183.05 587.59 184.16 544.46 122.56 546.38 121.47"/><polygon class="cls-16" points="548.29 120.38 591.4 181.94 589.5 183.05 546.38 121.47 548.29 120.38"/><polygon class="cls-16" points="550.21 119.28 593.3 180.82 591.4 181.94 548.29 120.38 550.21 119.28"/><path class="cls-16" d="M552.13,118.19l43.08,61.52c-.57.32-.87.51-.87.51l-1,.6-43.09-61.54Z"/><path class="cls-16" d="M554.05,117.09l43.1,61.56c-.82.43-1.47.8-1.94,1.06l-43.08-61.52Z"/><path class="cls-16" d="M556,116l43.15,61.62c-.73.38-1.39.72-2,1l-43.1-61.56Z"/><path class="cls-16" d="M557.88,114.9l43.22,61.73-2,1L556,116Z"/><path class="cls-16" d="M559.8,113.81l43.31,61.86-2,1L557.88,114.9Z"/><path class="cls-16" d="M561.71,112.71l43.44,62-2,.93L559.8,113.81Z"/><path class="cls-16" d="M563.63,111.62l43.57,62.23-2.05.89-43.44-62Z"/><path class="cls-16" d="M565.54,110.5,609.28,173l-2.08.87-43.57-62.23,1.08-.62h0Z"/><path class="cls-16" d="M567.44,109.39l43.94,62.76c-.72.27-1.42.55-2.1.83L565.54,110.5C566.17,110.13,566.8,109.75,567.44,109.39Z"/><path class="cls-15" d="M569.37,108.32l44.13,63-2.12.81-43.94-62.76C568.08,109,568.72,108.67,569.37,108.32Z"/><path class="cls-15" d="M571.33,107.28l44.32,63.3-2.15.76-44.13-63C570,108,570.67,107.62,571.33,107.28Z"/><path class="cls-15" d="M573.32,106.3l44.5,63.54-2.17.74-44.32-63.3Z"/><path class="cls-15" d="M575.35,105.35,620,169.14l-2.2.7-44.5-63.54C574,106,574.67,105.66,575.35,105.35Z"/><path class="cls-14" d="M577.4,104.45l44.84,64-2.22.65-44.67-63.79C576,105,576.71,104.74,577.4,104.45Z"/><path class="cls-14" d="M579.49,103.6l45,64.27c-.76.2-1.51.4-2.25.62l-44.84-64C578.09,104.16,578.79,103.87,579.49,103.6Z"/><path class="cls-14" d="M581.61,102.79l45.16,64.5-2.28.58-45-64.27C580.19,103.32,580.9,103.05,581.61,102.79Z"/><path class="cls-14" d="M583.76,102l45.32,64.73-2.31.53-45.16-64.5Z"/><path class="cls-13" d="M586,101.33l45.47,64.94c-.79.15-1.57.32-2.34.49L583.76,102C584.49,101.79,585.22,101.55,586,101.33Z"/><path class="cls-13" d="M588.17,100.67l45.63,65.17-2.38.43L586,101.33Q587.06,101,588.17,100.67Z"/><path class="cls-12" d="M590.44,100.08l45.78,65.38-2.42.38-45.63-65.17C588.93,100.46,589.68,100.26,590.44,100.08Z"/><path class="cls-12" d="M592.74,99.53l46,65.62c-.83.09-1.65.2-2.47.31l-45.78-65.38C591.21,99.88,592,99.7,592.74,99.53Z"/><path class="cls-12" d="M595.09,99.06l46.1,65.84c-.84.07-1.67.15-2.5.25l-46-65.62C593.53,99.36,594.31,99.21,595.09,99.06Z"/><path class="cls-11" d="M597.49,98.65l46.27,66.07c-.86.05-1.71.11-2.57.18l-46.1-65.84C595.89,98.91,596.69,98.77,597.49,98.65Z"/><path class="cls-11" d="M599.93,98.31l46.44,66.32c-.87,0-1.74.05-2.61.09L597.49,98.65C598.3,98.52,599.12,98.41,599.93,98.31Z"/><path class="cls-10" d="M602.43,98l46.63,66.59c-.9,0-1.79,0-2.69,0L599.93,98.31C600.77,98.2,601.6,98.12,602.43,98Z"/><path class="cls-10" d="M605,97.86l46.82,66.87c-.92-.06-1.84-.09-2.75-.1L602.43,98Z"/><path class="cls-10" d="M607.61,97.77l47,67.18c-.94-.09-1.89-.17-2.84-.22L605,97.86C605.86,97.81,606.74,97.78,607.61,97.77Z"/><path class="cls-9" d="M610.3,97.78l47.29,67.53c-1-.15-2-.26-2.94-.36l-47-67.18C608.51,97.76,609.41,97.76,610.3,97.78Z"/><path class="cls-8" d="M613.08,97.91l47.57,67.94q-1.53-.32-3.06-.54L610.3,97.78C611.23,97.81,612.16,97.85,613.08,97.91Z"/><path class="cls-8" d="M615.94,98.17l47.91,68.42c-1.06-.28-2.13-.53-3.2-.74L613.08,97.91C614,98,615,98.06,615.94,98.17Z"/><path class="cls-7" d="M618.91,98.58l48.33,69c-1.13-.37-2.26-.7-3.39-1L615.94,98.17C616.93,98.28,617.93,98.42,618.91,98.58Z"/><path class="cls-7" d="M622,99.17,670.87,169c-1.2-.5-2.42-.95-3.63-1.36l-48.33-69C620,98.75,621,98.94,622,99.17Z"/><path class="cls-6" d="M625.26,100l49.59,70.82c-1.32-.69-2.64-1.3-4-1.85L622,99.17C623.1,99.4,624.18,99.68,625.26,100Z"/><path class="cls-5" d="M628.7,101.06l50.67,72.36c-.61-.4-.93-.58-.93-.58h0c-1.18-.74-2.38-1.42-3.59-2L625.26,100C626.42,100.3,627.56,100.66,628.7,101.06Z"/><path class="cls-5" d="M632.41,102.52,685,177.69a67.84,67.84,0,0,0-5.67-4.27L628.7,101.06C630,101.5,631.19,102,632.41,102.52Z"/><path class="cls-4" d="M636.48,104.51l55.79,79.68c-2.82-2.72-5.24-4.85-7.23-6.5l-52.63-75.17C633.79,103.12,635.15,103.79,636.48,104.51Z"/><path class="cls-3" d="M641.18,107.39l60.91,87c-3.67-4.07-7-7.43-9.82-10.19l-55.79-79.68A51.9,51.9,0,0,1,641.18,107.39Z"/><path class="cls-17" d="M647.27,112.24l74.67,106.64c-7.49-10.13-14.14-18.17-19.85-24.5l-60.91-87a54.16,54.16,0,0,1,6.09,4.85Zm74.8,106.84.27.39Z"/><path class="cls-18" d="M661.19,128.3l67.47,96.36a18.63,18.63,0,0,1-6.32-5.19l-.27-.39L722,219h0l-.08-.12L647.27,112.24a58.59,58.59,0,0,1,4.5,4.66h0S653.81,119,661.19,128.3Z"/><path class="cls-19" d="M680.12,151.5l52.29,74.68a22.52,22.52,0,0,1-3.75-1.52L661.19,128.3c3.66,4.58,8.62,10.91,15.3,19.6h0A27,27,0,0,0,680.12,151.5Z"/><path class="cls-20" d="M685.4,155.2l50.21,71.72a25.11,25.11,0,0,1-3.2-.74L680.12,151.5A37.23,37.23,0,0,0,685.4,155.2Z"/><path class="cls-21" d="M689.52,157.26l49,70a25.7,25.7,0,0,1-2.91-.31L685.4,155.2A35.94,35.94,0,0,0,689.52,157.26Z"/><path class="cls-22" d="M693.12,158.57l48.1,68.69q-1.41,0-2.7,0l-49-70A37,37,0,0,0,693.12,158.57Z"/><path class="cls-23" d="M696.39,159.41l47.39,67.67c-.88.1-1.74.16-2.56.18l-48.1-68.69Q694.7,159,696.39,159.41Z"/><path class="cls-24" d="M699.43,159.91l46.8,66.84c-.84.14-1.66.25-2.45.33l-47.39-67.67C697.37,159.61,698.38,159.78,699.43,159.91Z"/><path class="cls-25" d="M702.28,160.16l46.3,66.12c-.8.18-1.59.34-2.35.47l-46.8-66.84C700.35,160,701.3,160.11,702.28,160.16Z"/><path class="cls-26" d="M705,160.19l45.87,65.51c-.77.22-1.53.41-2.28.58l-46.3-66.12C703.16,160.2,704.07,160.21,705,160.19Z"/><path class="cls-27" d="M707.58,160.05l45.5,65c-.75.25-1.49.47-2.22.67L705,160.19C705.84,160.17,706.7,160.13,707.58,160.05Z"/><path class="cls-28" d="M710.07,159.77l45.17,64.51q-1.1.41-2.16.75l-45.5-65C708.4,160,709.22,159.89,710.07,159.77Z"/><path class="cls-29" d="M712.47,159.37l44.88,64.09c-.72.29-1.42.57-2.11.82l-45.17-64.51C710.86,159.66,711.66,159.53,712.47,159.37Z"/><path class="cls-30" d="M714.79,158.85l44.63,63.73c-.71.32-1.39.6-2.07.88l-44.88-64.09C713.23,159.22,714,159.05,714.79,158.85Z"/><path class="cls-31" d="M717.05,158.24l44.39,63.4c-.68.33-1.36.65-2,.94l-44.63-63.73C715.53,158.67,716.28,158.47,717.05,158.24Z"/><path class="cls-32" d="M719.24,157.54l44.19,63.12c-.67.34-1.33.67-2,1l-44.39-63.4C717.77,158,718.5,157.79,719.24,157.54Z"/><path class="cls-32" d="M721.38,156.76l44,62.8-1.64.95h0l-.28.15-44.19-63.12C719.94,157.3,720.66,157,721.38,156.76Z"/><path class="cls-32" d="M723.46,155.91l43.79,62.53-1.9,1.12-44-62.8C722.07,156.5,722.76,156.21,723.46,155.91Z"/><path class="cls-32" d="M725.51,155l43.64,62.33-1.9,1.12-43.79-62.53C724.14,155.62,724.82,155.31,725.51,155Z"/><path class="cls-32" d="M727.51,154l43.54,62.2-1.9,1.11L725.51,155C726.17,154.68,726.83,154.36,727.51,154Z"/><path class="cls-32" d="M729.46,153,773,215.09l-1.91,1.12L727.51,154C728.15,153.69,728.81,153.34,729.46,153Z"/><path class="cls-32" d="M731.39,151.89,774.86,214l-1.9,1.11L729.46,153C730.1,152.63,730.74,152.27,731.39,151.89Z"/><path class="cls-32" d="M733.28,150.76l43.48,62.1-1.9,1.12-43.47-62.09,1.25-.74h0Z"/><path class="cls-32" d="M735.16,149.62l43.51,62.13-1.91,1.11-43.48-62.1Z"/><path class="cls-32" d="M737.05,148.48l43.52,62.15-1.9,1.12-43.51-62.13Z"/><path class="cls-31" d="M738.94,147.35l43.53,62.16-1.9,1.12-43.52-62.15Z"/><path class="cls-31" d="M740.83,146.22l43.54,62.18-1.9,1.11-43.53-62.16Z"/><path class="cls-31" d="M742.72,145.09l43.55,62.19-1.9,1.12-43.54-62.18Z"/><path class="cls-31" d="M744.62,144l43.56,62.21-1.91,1.11-43.55-62.19Z"/><path class="cls-31" d="M746.51,142.83l43.57,62.22-1.9,1.12L744.62,144Z"/><path class="cls-31" d="M748.41,141.71,792,203.94l-1.9,1.11-43.57-62.22Z"/><polygon class="cls-30" points="750.31 140.59 793.88 202.82 791.98 203.94 748.41 141.71 750.31 140.59"/><path class="cls-30" d="M752.21,139.47l43.58,62.23-1.9,1.12-43.58-62.23Z"/><path class="cls-30" d="M754.12,138.36l43.57,62.23-1.9,1.11-43.58-62.23Z"/><polygon class="cls-30" points="756.02 137.24 799.59 199.47 797.69 200.59 754.12 138.36 756.02 137.24"/><path class="cls-33" d="M757.92,136.13l43.58,62.23-1.91,1.11L756,137.24Z"/><polygon class="cls-33" points="759.83 135.02 803.4 197.24 801.5 198.36 757.92 136.13 759.83 135.02"/><polygon class="cls-33" points="761.74 133.91 805.3 196.13 803.4 197.24 759.83 135.02 761.74 133.91"/><path class="cls-29" d="M763.65,132.8,807.2,195l-1.9,1.12-43.56-62.22Z"/><polygon class="cls-29" points="765.56 131.7 809.11 193.89 807.2 195.01 763.65 132.81 765.56 131.7"/><polygon class="cls-29" points="767.47 130.59 811.01 192.78 809.11 193.89 765.56 131.7 767.47 130.59"/><polygon class="cls-28" points="769.38 129.49 812.91 191.66 811.01 192.78 767.47 130.59 769.38 129.49"/><polygon class="cls-34" points="771.29 128.39 814.81 190.55 812.91 191.66 769.38 129.49 771.29 128.39"/><polygon class="cls-34" points="773.21 127.29 816.72 189.43 814.81 190.55 771.29 128.39 773.21 127.29"/><polygon class="cls-35" points="775.12 126.19 818.62 188.32 816.72 189.43 773.21 127.29 775.12 126.19"/><polygon class="cls-35" points="777.04 125.1 820.52 187.2 818.62 188.32 775.12 126.19 777.04 125.1"/><polygon class="cls-26" points="778.95 124 822.42 186.08 820.52 187.2 777.04 125.1 778.95 124"/><polygon class="cls-26" points="780.87 122.91 824.33 184.97 822.42 186.08 778.95 124 780.87 122.91"/><polygon class="cls-25" points="782.79 121.81 826.23 183.85 824.33 184.97 780.87 122.91 782.79 121.81"/><polygon class="cls-36" points="784.71 120.72 828.13 182.74 826.23 183.85 782.79 121.81 784.71 120.72"/><polygon class="cls-24" points="786.63 119.63 830.03 181.62 828.13 182.74 784.71 120.72 786.63 119.63"/><polygon class="cls-24" points="788.55 118.54 831.94 180.51 830.03 181.62 786.63 119.63 788.55 118.54"/><polygon class="cls-23" points="790.47 117.45 833.84 179.39 831.94 180.51 788.55 118.54 790.47 117.45"/><polygon class="cls-22" points="792.39 116.37 835.74 178.27 833.84 179.39 790.47 117.45 792.39 116.37"/><polygon class="cls-37" points="794.32 115.28 837.64 177.16 835.74 178.27 792.39 116.37 794.32 115.28"/><path class="cls-21" d="M796.24,114.2,839.53,176l-.43.28-1.46.86-43.32-61.88Z"/><path class="cls-20" d="M798.16,113.11l43.23,61.73L839.53,176,796.24,114.2Z"/><path class="cls-19" d="M800.09,112l43.2,61.69c-.72.42-1.36.79-1.9,1.12l-43.23-61.73Z"/><path class="cls-38" d="M802,111l43.19,61.69c-.69.38-1.34.74-1.92,1.08L800.09,112Z"/><path class="cls-18" d="M804,109.87l43.21,61.72q-1,.54-1.95,1L802,111Z"/><path class="cls-17" d="M805.87,108.79l43.27,61.78-2,1L804,109.87Z"/><path class="cls-39" d="M807.8,107.71l43.33,61.88-2,1-43.27-61.78Z"/><path class="cls-3" d="M809.73,106.64l43.43,62-2,.94L807.8,107.71Z"/><path class="cls-5" d="M811.66,105.56l43.54,62.18-2,.91-43.43-62Z"/><path class="cls-6" d="M813.6,104.49l43.67,62.38-2.07.87-43.54-62.18Z"/><path class="cls-8" d="M815.53,103.42,859.37,166l-2.1.84L813.6,104.49l1.85-1h0Z"/><path class="cls-9" d="M817.48,102.38l44,62.85c-.72.26-1.42.53-2.12.8l-43.84-62.61C816.19,103.06,816.84,102.71,817.48,102.38Z"/><path class="cls-10" d="M819.46,101.37l44.18,63.09c-.73.25-1.44.51-2.15.77l-44-62.85Z"/><path class="cls-10" d="M821.47,100.4l44.35,63.34c-.74.23-1.46.48-2.18.72l-44.18-63.09C820.14,101,820.8,100.71,821.47,100.4Z"/><path class="cls-11" d="M823.5,99.47,868,163.06c-.74.22-1.48.44-2.2.68L821.47,100.4Z"/><path class="cls-11" d="M825.56,98.58l44.7,63.84-2.24.64L823.5,99.47C824.19,99.16,824.88,98.86,825.56,98.58Z"/><path class="cls-12" d="M827.65,97.73l44.88,64.1c-.76.19-1.52.38-2.27.59l-44.7-63.84C826.26,98.29,827,98,827.65,97.73Z"/><path class="cls-12" d="M829.77,96.93l45.07,64.35-2.31.55-44.88-64.1C828.36,97.45,829.07,97.18,829.77,96.93Z"/><path class="cls-12" d="M831.93,96.17l45.25,64.62-2.34.49L829.77,96.93Z"/><path class="cls-13" d="M834.12,95.47l45.43,64.89c-.8.13-1.59.28-2.37.43L831.93,96.17C832.66,95.93,833.39,95.69,834.12,95.47Z"/><path class="cls-13" d="M836.35,94.82,882,160c-.81.11-1.62.24-2.42.38L834.12,95.47C834.87,95.24,835.61,95,836.35,94.82Z"/><path class="cls-14" d="M838.62,94.22l45.81,65.44c-.82.09-1.64.2-2.46.32L836.35,94.82Z"/><path class="cls-14" d="M840.93,93.69l46,65.72c-.84.07-1.67.16-2.51.25L838.62,94.22C839.39,94,840.16,93.86,840.93,93.69Z"/><path class="cls-14" d="M843.28,93.23l46.23,66c-.86,0-1.72.09-2.57.16l-46-65.72C841.72,93.52,842.5,93.37,843.28,93.23Z"/><path class="cls-15" d="M845.69,92.83l46.45,66.33c-.88,0-1.76,0-2.63.09l-46.23-66C844.09,93.08,844.9,93,845.69,92.83Z"/><path class="cls-16" d="M848.15,92.51l46.67,66.66c-.9,0-1.79,0-2.68,0L845.69,92.83C846.52,92.71,847.34,92.6,848.15,92.51Z"/><path class="cls-16" d="M850.67,92.27l46.91,67c-.92-.05-1.84-.09-2.76-.1L848.15,92.51Z"/><path class="cls-16" d="M853.25,92.13l47.17,67.36c-.95-.09-1.9-.16-2.84-.22l-46.91-67C851.54,92.21,852.4,92.16,853.25,92.13Z"/><path class="cls-16" d="M855.9,92.09l47.44,67.74c-1-.14-2-.24-2.92-.34L853.25,92.13c.82,0,1.62,0,2.41,0h.24Z"/><path class="cls-14" d="M858.64,92.16l47.74,68.18c-1-.19-2-.36-3-.51L855.9,92.09C856.83,92.09,857.74,92.11,858.64,92.16Z"/><path class="cls-13" d="M861.45,92.35,909.54,161c-1-.26-2.11-.49-3.16-.69L858.64,92.16C859.59,92.2,860.53,92.26,861.45,92.35Z"/><path class="cls-12" d="M864.38,92.69l48.46,69.21c-1.1-.33-2.2-.61-3.3-.87L861.45,92.35C862.45,92.44,863.42,92.55,864.38,92.69Z"/><path class="cls-10" d="M867.41,93.19l48.93,69.88c-1.16-.42-2.33-.82-3.5-1.17L864.38,92.69C865.41,92.83,866.42,93,867.41,93.19Z"/><path class="cls-9" d="M870.58,93.88l49.48,70.66c-1.24-.54-2.48-1-3.72-1.47L867.41,93.19C868.5,93.4,869.55,93.63,870.58,93.88Z"/><path class="cls-7" d="M873.92,94.81l50.19,71.68c-1.35-.7-2.7-1.36-4.05-2L870.58,93.88C871.73,94.17,872.84,94.48,873.92,94.81Z"/><path class="cls-5" d="M877.46,96l51.14,73c-1.49-.93-3-1.8-4.49-2.59L873.92,94.81Q875.75,95.38,877.46,96Z"/><path class="cls-3" d="M881.26,97.63l52.58,75.1c-1.73-1.33-3.48-2.54-5.24-3.65L877.46,96C878.79,96.54,880.06,97.08,881.26,97.63Z"/><path class="cls-39" d="M885.44,99.77l55.32,79a74.68,74.68,0,0,0-6.92-6.05l-52.58-75.1C882.75,98.32,884.15,99,885.44,99.77Z"/><path class="cls-18" d="M890.22,102.77l73.3,104.68A65.72,65.72,0,0,1,954,195.39h0a93.5,93.5,0,0,0-13.22-16.61l-55.32-79A56,56,0,0,1,890.22,102.77Z"/><path class="cls-19" d="M896.65,108.12l73.62,105.13a55.71,55.71,0,0,1-6.75-5.8l-73.3-104.68A44,44,0,0,1,896.65,108.12Z"/><path class="cls-21" d="M918.41,135.36l56.69,81a45.53,45.53,0,0,1-4.83-3.07L896.65,108.12l.22.23h0C904.52,116.81,910.87,126.45,918.41,135.36Z"/><path class="cls-22" d="M928.17,145.47l50.94,72.75a38.79,38.79,0,0,1-4-1.9l-56.69-81a110.75,110.75,0,0,0,7.62,8.2h0C926.73,144.24,927.44,144.87,928.17,145.47Z"/><path class="cls-24" d="M933.33,149l49.31,70.42a34.06,34.06,0,0,1-3.53-1.2l-50.94-72.75A35,35,0,0,0,933.33,149Z"/><path class="cls-25" d="M937.38,151l48.45,69.19c-1.09-.19-2.15-.43-3.19-.72L933.33,149A34.89,34.89,0,0,0,937.38,151Z"/><path class="cls-34" d="M940.92,152.18l47.84,68.32a27.91,27.91,0,0,1-2.93-.36L937.38,151A37.15,37.15,0,0,0,940.92,152.18Z"/><path class="cls-29" d="M944.17,153l47.32,67.59c-.92,0-1.83,0-2.73-.07l-47.84-68.32C942,152.5,943.09,152.76,944.17,153Z"/><path class="cls-30" d="M947.2,153.48l46.87,66.93c-.87.09-1.73.14-2.58.16L944.17,153C945.18,153.19,946.2,153.35,947.2,153.48Z"/><path class="cls-32" d="M950.08,153.76l46.42,66.3c-.82.15-1.63.27-2.43.35L947.2,153.48C948.17,153.61,949.13,153.7,950.08,153.76Z"/><path class="cls-32" d="M952.83,153.86l46,65.68c-.78.21-1.55.38-2.32.52l-46.42-66.3C951,153.82,951.93,153.85,952.83,153.86Z"/><path class="cls-31" d="M955.48,153.81,1001,218.87c-.75.25-1.48.48-2.22.67l-46-65.68C953.73,153.86,954.61,153.84,955.48,153.81Z"/><path class="cls-31" d="M958,153.63l45.13,64.45c-.72.29-1.43.56-2.13.79l-45.56-65.06C956.35,153.77,957.21,153.71,958,153.63Z"/><path class="cls-30" d="M960.53,153.35l44.63,63.73-1.1.63h0l-.89.37L958,153.63C958.9,153.56,959.73,153.46,960.53,153.35Z"/><path class="cls-30" d="M963,153l44.12,63-1.91,1.09-44.63-63.73C961.37,153.24,962.17,153.11,963,153Z"/><path class="cls-30" d="M965.31,152.51,1009,214.9l-1.92,1.09L963,153C963.77,152.83,964.56,152.67,965.31,152.51Z"/><path class="cls-33" d="M967.6,152l43.31,61.84-1.92,1.1-43.68-62.39C966.13,152.33,966.9,152.14,967.6,152Z"/><path class="cls-33" d="M969.85,151.33l43,61.38-1.92,1.09L967.6,152Q968.86,151.63,969.85,151.33Z"/><path class="cls-29" d="M972,150.61l42.71,61-1.91,1.09-43-61.38C970.78,151,971.51,150.79,972,150.61Z"/><path class="cls-29" d="M974,149.64l42.63,60.88-1.92,1.1-42.71-61,.84-.32Z"/><polygon class="cls-28" points="975.96 148.56 1018.58 209.43 1016.66 210.52 974.03 149.64 975.96 148.56"/><polygon class="cls-34" points="977.88 147.47 1020.5 208.34 1018.58 209.43 975.96 148.56 977.88 147.47"/><polygon class="cls-34" points="979.81 146.39 1022.42 207.24 1020.5 208.34 977.88 147.47 979.81 146.39"/><polygon class="cls-40" points="981.74 145.31 1024.34 206.15 1022.42 207.24 979.81 146.39 981.74 145.31"/><polygon class="cls-35" points="983.66 144.23 1026.25 205.05 1024.34 206.15 981.74 145.31 983.66 144.23"/><polygon class="cls-26" points="985.59 143.15 1028.17 203.96 1026.25 205.05 983.66 144.23 985.59 143.15"/><polygon class="cls-25" points="987.51 142.06 1030.09 202.87 1028.17 203.96 985.59 143.15 987.51 142.06"/><polygon class="cls-25" points="989.44 140.98 1032.01 201.77 1030.09 202.87 987.51 142.06 989.44 140.98"/><polygon class="cls-36" points="991.37 139.9 1033.92 200.68 1032.01 201.77 989.44 140.98 991.37 139.9"/><polygon class="cls-24" points="993.29 138.82 1035.84 199.59 1033.92 200.68 991.37 139.9 993.29 138.82"/><polygon class="cls-24" points="995.22 137.74 1037.76 198.49 1035.84 199.59 993.29 138.82 995.22 137.74"/><polygon class="cls-23" points="997.14 136.65 1039.68 197.4 1037.76 198.49 995.22 137.74 997.14 136.65"/><polygon class="cls-22" points="999.07 135.57 1041.6 196.31 1039.68 197.4 997.14 136.65 999.07 135.57"/><polygon class="cls-22" points="1001 134.49 1043.52 195.21 1041.6 196.31 999.07 135.57 1001 134.49"/><polygon class="cls-37" points="1002.92 133.41 1045.43 194.12 1043.52 195.21 1001 134.49 1002.92 133.41"/><polygon class="cls-21" points="1004.85 132.33 1047.35 193.02 1045.43 194.12 1002.92 133.41 1004.85 132.33"/><polygon class="cls-20" points="1006.77 131.24 1049.27 191.93 1047.35 193.02 1004.85 132.33 1006.77 131.24"/><polygon class="cls-20" points="1008.7 130.16 1051.19 190.84 1049.27 191.93 1006.77 131.24 1008.7 130.16"/><polygon class="cls-19" points="1010.63 129.08 1053.11 189.74 1051.19 190.84 1008.7 130.16 1010.63 129.08"/><polygon class="cls-38" points="1012.55 128 1055.02 188.65 1053.11 189.74 1010.63 129.08 1012.55 128"/><polygon class="cls-18" points="1014.48 126.92 1056.94 187.56 1055.02 188.65 1012.55 128 1014.48 126.92"/><polygon class="cls-17" points="1016.41 125.83 1058.86 186.46 1056.94 187.56 1014.48 126.92 1016.41 125.83"/><polygon class="cls-17" points="1018.33 124.75 1060.78 185.37 1058.86 186.46 1016.41 125.83 1018.33 124.75"/><polygon class="cls-39" points="1020.26 123.67 1062.69 184.28 1060.78 185.37 1018.33 124.75 1020.26 123.67"/><polygon class="cls-3" points="1022.18 122.59 1064.61 183.18 1062.69 184.28 1020.26 123.67 1022.18 122.59"/><polygon class="cls-4" points="1024.11 121.51 1066.53 182.09 1064.61 183.18 1022.18 122.59 1024.11 121.51"/><path class="cls-5" d="M1026,120.4,1068.45,181l-1.92,1.1-42.42-60.58.12-.07h0Z"/><path class="cls-6" d="M1028,119.35l42.4,60.55-1.92,1.09L1026,120.4Z"/><path class="cls-7" d="M1030,118.35l42.34,60.46-1.92,1.09L1028,119.35C1028.64,119,1029.3,118.66,1030,118.35Z"/><path class="cls-7" d="M1032,117.41l42.22,60.3-1.91,1.1L1030,118.35C1030.63,118,1031.31,117.7,1032,117.41Z"/><path class="cls-8" d="M1034,116.53l42.08,60.09-1.92,1.09L1032,117.41C1032.67,117.1,1033.37,116.8,1034,116.53Z"/><path class="cls-9" d="M1036.17,115.73l41.87,59.8-1.92,1.09L1034,116.53C1034.76,116.24,1035.47,116,1036.17,115.73Z"/><path class="cls-10" d="M1038.35,115,1080,174.43l-1.92,1.1-41.87-59.8C1036.91,115.47,1037.63,115.23,1038.35,115Z"/><path class="cls-11" d="M1040.59,114.38l41.28,59-1.91,1.09L1038.35,115C1039.11,114.78,1039.86,114.57,1040.59,114.38Z"/><path class="cls-12" d="M1042.91,113.86l40.88,58.39-1.92,1.09-41.28-59C1041.38,114.18,1042.15,114,1042.91,113.86Z"/><path class="cls-12" d="M1045.32,113.46l40.39,57.69-1.92,1.1-40.88-58.39C1043.73,113.7,1044.53,113.57,1045.32,113.46Z"/><path class="cls-12" d="M1047.82,113.21l39.81,56.85-1.92,1.09-40.39-57.69C1046.17,113.35,1047,113.26,1047.82,113.21Z"/><path class="cls-13" d="M1050.45,113.13l39.1,55.84-1.92,1.09-39.81-56.85C1048.72,113.14,1049.6,113.12,1050.45,113.13Z"/><path class="cls-13" d="M1053.23,113.27l38.24,54.6-1.92,1.1-39.1-55.84C1051.41,113.14,1052.34,113.19,1053.23,113.27Z"/><path class="cls-14" d="M1056.22,113.7l37.16,53.08-1.91,1.09-38.24-54.6C1054.28,113.37,1055.27,113.52,1056.22,113.7Z"/><path class="cls-14" d="M1059.5,114.56l35.8,51.12-1.92,1.1-37.16-53.08A26.54,26.54,0,0,1,1059.5,114.56Z"/><path class="cls-15" d="M1063.25,116.08l34,48.51-1.92,1.09-35.8-51.12A27.34,27.34,0,0,1,1063.25,116.08Z"/><path class="cls-15" d="M1068.15,119.25l31,44.25-1.92,1.09-34-48.51A25.55,25.55,0,0,1,1068.15,119.25Z"/><path class="cls-16" d="M1078,129.46l23.07,32.94-1.92,1.1-31-44.25a17.09,17.09,0,0,1,2.49,2.43h0S1073.45,124.41,1078,129.46Z"/><path class="cls-16" d="M1101.06,162.4,1078,129.46a310.07,310.07,0,0,1,25,31.87Z"/></svg>