<svg id="Layer_1" data-name="Layer 1" xmlns="http://www.w3.org/2000/svg" viewBox="0 0 1106.13 743.43"><defs><style>.cls-1{fill:#00205c;}.cls-2{fill:#ed1c2b;}</style></defs><title>bank-uob</title><path class="cls-1" d="M1004.32,460.69c29.82,0,41.9-11.32,41.9-35,0-22.62-13.3-35.28-37.8-35.28H950.5v70.27Zm-2.88-109.92c22.48,0,33.84-10.92,33.84-31.27,0-19.88-11.93-32-29.85-32H950.5v63.26ZM1077.66,375c16,11.52,25.28,31.58,25.28,53.32,0,22.78-8.72,40.94-25.91,54.24-17.08,12.78-35.27,17.69-65.07,17.69H904.07a9.52,9.52,0,0,1-9.5-9.45V257.66a9.59,9.59,0,0,1,9.5-9.43H1006.9c30.71,0,43.77,3.67,57.67,14,14.85,10.85,24.15,30.45,24.15,50,0,24.92-9,43.1-29.31,52.77,7,2.44,11.81,5.28,18.25,10M469.6,500.43c-32.22.05-55.08-6-73.49-20.15-23.2-17.72-29.85-36.52-29.85-77.65V255.14a9.51,9.51,0,0,1,9.4-9.41H413.5a9.53,9.53,0,0,1,9.43,9.41V400.45c0,26.48,2.91,33.79,13.56,42.58,8.8,7.23,18.77,11.6,33.14,11.6S494,450.32,502.85,443c10.64-8.79,13.54-16.1,13.54-42.58V255.14a9.58,9.58,0,0,1,9.45-9.41h37.85a9.49,9.49,0,0,1,9.42,9.41V402.63c0,41.13-6.76,59.93-29.81,77.65-18.52,14.21-41.38,20.07-73.7,20.15M734,242.47c71.24,0,116.3,50.89,116.3,129.54s-45.13,129-117,129c-71.55,0-115.92-50.53-115.92-130,0-78.1,44.77-128.52,116.62-128.52m-.3,213.18c37.58,0,61-29.31,61-83.95,0-54.2-23.7-83.92-61.41-83.92-36.95,0-61.37,30.47-61.37,82.86,0,55.74,23.11,85,61.77,85"/><path class="cls-2" d="M143.82,233.05V356.91h26.82V233.05a15.16,15.16,0,0,1,14.87-15.38c8.17,0,14.86,6.9,14.86,15.38V356.91h26.81V233.05a14.88,14.88,0,1,1,29.74,0V356.91h38.92c8.58,0,15.49,6.6,15.49,14.81s-6.91,14.88-15.49,14.88H256.92V510.39a14.88,14.88,0,1,1-29.74,0V386.6H200.37V510.39a14.87,14.87,0,1,1-29.73,0V386.6H143.82V510.39a14.89,14.89,0,1,1-29.77,0V386.6H87.2V510.39a14.87,14.87,0,1,1-29.73,0V386.6H18.55a14.85,14.85,0,1,1,0-29.69H57.47V233.05a14.87,14.87,0,1,1,29.73,0V356.91h26.85V233.05a14.89,14.89,0,1,1,29.77,0"/></svg>