<?xml version="1.0" encoding="utf-8"?>
<!-- Generator: Adobe Illustrator 16.0.0, SVG Export Plug-In . SVG Version: 6.00 Build 0)  -->
<!DOCTYPE svg PUBLIC "-//W3C//DTD SVG 1.1//EN" "http://www.w3.org/Graphics/SVG/1.1/DTD/svg11.dtd">
<svg version="1.1" id="Layer_1" xmlns="http://www.w3.org/2000/svg" xmlns:xlink="http://www.w3.org/1999/xlink" x="0px" y="0px"
	 width="208px" height="201px" viewBox="0 0 208 201" enable-background="new 0 0 208 201" xml:space="preserve">
<title>ilus-tidak-ada-data</title>
<path id="Combined-Shape" fill="#F5F5F5" stroke="#028B43" stroke-linecap="round" stroke-linejoin="round" stroke-dasharray="17.1" d="
	M67.646,28.934c-0.737,1.355-1.156,2.908-1.156,4.558c0,5.286,4.3,9.571,9.604,9.571s9.605-4.285,9.605-9.571
	c0-1.65-0.419-3.203-1.157-4.558h33.467c9.941,0,18,8.059,18,18v48.771c0,9.941-8.059,18-18,18H34.179c-9.941,0-18-8.059-18-18
	l0-15.968c-1.36,0.735-2.918,1.153-4.574,1.153C6.3,80.891,2,76.605,2,71.319c0-5.286,4.3-9.571,9.605-9.571
	c1.656,0,3.214,0.417,4.574,1.153l0-15.967c0-9.941,8.059-18,18-18H67.646z"/>
<path id="Path-70" fill="#F5F5F5" d="M138.041,30.457c9.475,4.399,14.89,7.953,16.243,10.66c2.03,4.061,24.873,41.625,19.797,49.239
	s-18.274,7.614-21.827,5.076c-2.273-1.624-2.209,30.244,0.191,95.604c0.018,0.472-2.504,0.946-2.486,1.421
	c0.057,1.536,0.991,3.881,2.803,7.035l-14.213-0.508L124.843,31.979L138.041,30.457z"/>
<polygon id="Path-62" fill="#282F80" points="113.875,191.371 101.185,198.984 122.251,198.984 120.475,190.102 "/>
<polygon id="Path-63" fill="#282F80" points="139.51,190.609 126.313,198.984 147.125,198.984 144.078,190.102 "/>
<g id="Group-6" transform="translate(9.083700, 84.010152)">
	<path id="Path-56" fill="#A7B4FF" d="M100.867,0l34.74,1.766l1.178,99.513l1.178,0.589v5.3l-15.898,1.767l-1.178-6.478h1.767
		l-8.243-67.716l-9.422,25.909l7.066,41.807h1.178l0.588,5.889l-15.898,0.589l-1.177-5.889l1.767-0.589L86.735,64.183
		c-0.785-2.748-0.589-6.085,0.589-10.011C88.502,50.248,93.016,32.189,100.867,0z"/>
	<path id="Path" fill="#435FFF" d="M123.35,61.637c1.053,3.159-1.362,8.052-4.747,7.538l-1.468-12.061
		C120.591,58.068,122.662,59.576,123.35,61.637z"/>
	<path id="Path_1_" fill="#435FFF" d="M90.886,64.72l-0.115,0.26c-1.042,2.262-2.214,2.558-3.518,0.887l-0.518-1.684
		c-0.762-2.668-0.6-5.89,0.488-9.666C91.569,56.877,92.79,60.278,90.886,64.72z"/>
	<path id="Combined-Shape_1_" fill="#889AFF" d="M109.951,47.002l-3.588,9.866L88.61,49.437c0.093-0.355,0.19-0.729,0.291-1.119
		L109.951,47.002z M136.146,47.24l0.112,9.497l-19.916-6.128l-0.178-1.449L136.146,47.24z"/>
	<path id="Combined-Shape_2_" fill="#2B46AA" d="M100.214,10.153c19.075,0.013,30.908,0.159,35.499,0.439l0.009,0.716
		c-5.723,0.788-18.777,2.89-39.163,6.305c0.582-2.373,1.191-4.861,1.828-7.461L100.214,10.153z"/>
	
		<line id="Path-57" fill="none" stroke="#282F80" stroke-width="0.5" stroke-linecap="round" stroke-linejoin="round" stroke-dasharray="5" x1="128.542" y1="5.888" x2="132.664" y2="101.868"/>
	
		<path id="Path-58" fill="none" stroke="#282F80" stroke-width="0.5" stroke-linecap="round" stroke-linejoin="round" stroke-dasharray="5" d="
		M113.233,27.675c-8.335,19.185-12.653,29.195-12.955,30.03c-0.451,1.253-0.588,2.355,0,5.888
		c0.393,2.355,2.945,15.113,7.655,38.274"/>
	
		<line id="Path-59" fill="none" stroke="#282F80" stroke-width="0.5" stroke-linecap="round" stroke-linejoin="round" x1="98.512" y1="102.457" x2="111.466" y2="102.457"/>
	
		<line id="Path-60" fill="none" stroke="#282F80" stroke-width="0.5" stroke-linecap="round" stroke-linejoin="round" x1="122.654" y1="102.457" x2="136.785" y2="101.868"/>
	
		<line id="Path-61" fill="none" stroke="#282F80" stroke-width="0.5" stroke-linecap="round" stroke-linejoin="round" x1="112.644" y1="19.35" x2="114.41" y2="34.66"/>
</g>
<path id="Path-13" fill="#1B1C1B" d="M125.357,1.267c-1.182-1.689-2.783-1.689-4.809,0c-3.205,0-4.977,1.859-5.314,5.576
	c-3.036,1.352-4.555,2.619-4.555,3.801c1.35-0.338,1.855-0.338,1.519,0c-0.507,0.507-2.024,0.507-1.013,3.802
	c1.013,3.295-2.783,4.309-2.783,6.843s1.266,2.535-1.012,4.562c-2.278,2.027,0.252,6.083,1.771,6.083c1.518,0,1.771,2.534,0,5.322
	c-1.771,2.788-1.52,4.815,0,6.083c1.518,1.267,31.632,2.788,31.632-1.521c0-2.873-0.844-4.055-2.53-3.548
	c2.53-1.858,3.374-3.042,2.53-3.548c-1.265-0.76-1.519-1.267,0-2.027s2.277-1.014,1.265-3.802c-1.012-2.788-2.277-5.323-1.265-7.097
	s-1.265-3.802-0.759-6.083c0.506-2.281,1.012-2.028,0.253-3.295s-1.266-3.042-0.759-4.055c0.506-1.014-1.52,0.253-2.025,0.76
	s0.506-4.815-2.783-2.281c1.012-0.845,1.266-1.521,0.759-2.028c-0.759-0.76-3.796-3.802-6.326-2.788
	C127.635,1.014,126.369,0.76,125.357,1.267z"/>
<rect id="Rectangle" x="121.454" y="25.127" fill="#FF9E8B" width="6.599" height="11.421"/>
<path id="Combined-Shape_3_" fill="#FF7F66" d="M128.053,25.381l0.002,3.215c-0.082,0.029-0.168,0.058-0.256,0.084
	c-1.921,0.591-4.035,0.149-6.344-1.325l-0.001-1.975H128.053z"/>
<path id="Rectangle_1_" fill="#FF9E8B" d="M124.754,3.807L124.754,3.807c4.485,0,8.121,3.636,8.121,8.122v7.361
	c0,4.485-3.636,8.122-8.121,8.122l0,0c-4.486,0-8.122-3.636-8.122-8.122v-7.361C116.632,7.443,120.268,3.807,124.754,3.807z"/>
<path id="Combined-Shape_4_" fill="#282F80" d="M125.708,2.792l5.045,2.512c3.7,3.684,4.372,5.693,2.019,6.028
	c-0.943,0.134-1.762-0.072-2.462-0.452c0.076-0.544,0.224-0.979,0.443-1.307c-0.556,0.111-0.817,0.478-0.785,1.102
	c-1.706-1.113-2.651-3.189-2.999-3.362c-0.504-0.251-3.279,1.507-4.287,3.516c-0.277,0.55-0.822,0.959-1.638,1.227
	c-0.36-0.896-0.233-1.724,0.376-2.482c-0.805,0-1.146,0.843-1.028,2.528l0.01,0.124l-0.246,0.049
	c-1.014,0.179-2.309,0.211-3.885,0.095l-0.399-0.032l1.008-6.53L125.708,2.792z"/>
<path id="Path-15" fill="none" stroke="#4B52A4" stroke-width="0.5" stroke-linecap="round" stroke-linejoin="round" d="
	M125.807,3.553c0.686,3.046-0.258,5.415-2.83,7.107"/>
<path id="Path-17" fill="none" stroke="#4B52A4" stroke-width="0.5" stroke-linecap="round" stroke-linejoin="round" d="
	M129.537,5.837c-0.911,0.677-1.185,1.185-0.82,1.523c0.365,0.338,0.82,0.338,1.367,0c-0.183,0.677-0.639,1.354-1.367,2.03"/>
<path id="Path-18" fill="none" stroke="#4B52A4" stroke-width="0.5" stroke-linecap="round" stroke-linejoin="round" d="
	M131.606,7.614c-0.169,1.861-0.593,3.046-1.269,3.553"/>
<path id="Path-19" fill="none" stroke="#4B52A4" stroke-width="0.5" stroke-linecap="round" stroke-linejoin="round" d="
	M137.443,9.898c-1.015,1.015-1.269,1.861-0.761,2.538c0.761,1.015,1.015,1.523,0.254,3.299c-0.762,1.777,2.792,1.523,3.554,4.823"/>
<path id="Path-20" fill="none" stroke="#4B52A4" stroke-width="0.5" stroke-linecap="round" stroke-linejoin="round" d="
	M137.951,15.276c0.508-0.159,0.932,0.08,1.27,0.714"/>
<path id="Path-21" fill="none" stroke="#4B52A4" stroke-width="0.5" stroke-linecap="round" stroke-linejoin="round" d="
	M136.429,21.711c1.354-1.198,2.03-1.198,2.03,0c0,1.797-1.522,3.595-1.016,4.879c0.508,1.284,2.793,1.027,3.047,5.136"/>
<path id="Path-22" fill="none" stroke="#4B52A4" stroke-width="0.5" stroke-linecap="round" stroke-linejoin="round" d="
	M132.875,27.411c-0.846,0.338-1.269,0.846-1.269,1.523c0,1.015,3.3,0.761,3.3,1.523c0,0.761-1.523,2.284-1.523,3.045"/>
<path id="Path-23" fill="none" stroke="#4B52A4" stroke-width="0.5" stroke-linecap="round" stroke-linejoin="round" d="
	M115.109,19.644c-2.369-0.335-3.554,0.167-3.554,1.507c0,2.01,2.03,2.764,1.776,4.773c-0.169,1.34-0.762,2.512-1.776,3.517"/>
<path id="Path-24" fill="none" stroke="#4B52A4" stroke-width="0.5" stroke-linecap="round" stroke-linejoin="round" d="
	M112.68,21.827c-1.178,2.031-1.43,3.384-0.757,4.061c1.01,1.015,2.019-0.507,2.776,1.523s-1.515,1.777-1.01,5.33"/>
<path id="Path-25" fill="none" stroke="#4B52A4" stroke-width="0.5" stroke-linecap="round" stroke-linejoin="round" d="
	M113.332,10.406c-0.338,2.03-0.93,3.384-1.776,4.061"/>
<path id="Path-26" fill="none" stroke="#4B52A4" stroke-width="0.5" stroke-linecap="round" stroke-linejoin="round" d="
	M120.186,4.314c0.676,0,1.184-0.169,1.522-0.507c0.169-1.692,1.1-2.538,2.792-2.538"/>
<path id="Path-27" fill="none" stroke="#4B52A4" stroke-width="0.5" stroke-linecap="round" stroke-linejoin="round" d="
	M130.084,4.314c1.015-0.677,1.522-1.184,1.522-1.522"/>
<path id="Path-28" fill="none" stroke="#4B52A4" stroke-width="0.5" stroke-linecap="round" stroke-linejoin="round" d="
	M119.932,27.411c-2.031,3.553-3.977,5.584-5.838,6.091"/>
<path id="Path-29" fill="none" stroke="#4B52A4" stroke-width="0.5" stroke-linecap="round" stroke-linejoin="round" d="
	M119.875,29.441c0.15,2.2,0,3.554-0.451,4.061"/>
<path id="Path-30" fill="none" stroke="#4B52A4" stroke-width="0.5" stroke-linecap="round" stroke-linejoin="round" d="
	M117.9,31.472c-0.169,1.015-0.846,1.692-2.029,2.03"/>
<path id="Path-31" fill="none" stroke="#4B52A4" stroke-width="0.5" stroke-linecap="round" stroke-linejoin="round" d="
	M134.906,24.365c0.677,0.508,1.184,0.762,1.522,0.762"/>
<path id="Path-32" fill="none" stroke="#4B52A4" stroke-width="0.5" stroke-linecap="round" stroke-linejoin="round" d="
	M134.906,15.229c-1.129,2.2-1.316,3.638-0.564,4.314s0.752,1.607,0,2.792"/>
<path id="Path-33" fill="none" stroke="#4B52A4" stroke-width="0.5" stroke-linecap="round" stroke-linejoin="round" d="
	M118.154,6.853c0.508,0.508,0.254,1.354-0.762,2.538"/>
<path id="Combined-Shape_5_" fill="#FFC33F" d="M101.763,38.438c7.144-5.362,39.638-6.707,47.37,0.795
	c7.87,7.634,26.986,41.748,15.469,48.33c-4.738,2.707-10.31,1.692-16.716-3.046l0,0l-0.036,8.63h-43.146l0.188-21.643
	c-7.419,4.776-12.969,5.814-16.65,3.114c-7.462-5.472,8.233-32.395,13.402-36.097L101.763,38.438z"/>
<path id="Path_2_" fill="#EBA100" d="M86.718,69.289c3.364,0,6.091,2.728,6.091,6.092c0,0.236-0.014,0.47-0.04,0.699
	c-1.737-0.033-3.246-0.52-4.529-1.461c-1.454-1.066-2.029-2.947-1.974-5.313C86.417,69.295,86.567,69.289,86.718,69.289z"/>
<path id="Path_3_" fill="#EBA100" d="M133.975,45.242c2.168,1.447,2.938,2.986,2.157,4.548l-0.083,0.163
	c-0.086,0.164-0.18,0.334-0.295,0.539l-0.374,0.654l-0.177,0.316c-0.385,0.705-0.49,0.995-0.523,1.375
	c-0.052,0.598,0.291,1.066,1.27,1.511c0.191,0.087,0.275,0.313,0.188,0.504s-0.312,0.276-0.503,0.189
	c-1.25-0.568-1.795-1.316-1.712-2.271l0.008-0.083c0.059-0.544,0.22-0.916,0.819-1.974l0.342-0.596l0.104-0.187
	c0.099-0.177,0.179-0.329,0.255-0.481c0.572-1.146-0.012-2.314-1.898-3.574c-0.175-0.116-0.223-0.353-0.105-0.528
	C133.563,45.172,133.8,45.125,133.975,45.242z"/>
<path id="Path_4_" fill="#FFE19F" d="M118.407,46.468c0.187,0.065,0.29,0.262,0.244,0.45l-0.011,0.035l-1.776,5.076
	c-0.069,0.198-0.286,0.303-0.485,0.233c-0.187-0.065-0.29-0.262-0.244-0.45l0.011-0.035l1.776-5.076
	C117.992,46.503,118.209,46.399,118.407,46.468z"/>
<path id="Path_5_" fill="#EBA100" d="M146.319,42.545c1.021,1.31,1.021,2.896,0.033,4.706c-0.103,0.188-0.353,0.264-0.558,0.17
	c-0.205-0.094-0.287-0.323-0.186-0.511c0.859-1.575,0.859-2.864,0.033-3.923c-0.133-0.171-0.09-0.409,0.098-0.531
	C145.926,42.334,146.186,42.374,146.319,42.545z"/>
<path id="Path_6_" fill="#FFE19F" d="M105.084,41.117c0.21,0,0.381,0.17,0.381,0.381c0,0.21-0.171,0.38-0.381,0.38
	c-1.166,0-1.865,0.63-2.167,1.986c-0.046,0.205-0.249,0.334-0.455,0.289c-0.205-0.046-0.334-0.249-0.289-0.454
	C102.549,42.01,103.542,41.117,105.084,41.117z"/>
<path id="Path_7_" fill="#EBA100" d="M128.242,38.584c0.208,0.035,0.348,0.23,0.313,0.438c-0.351,2.103-1.06,3.698-2.137,4.775
	c-0.149,0.149-0.39,0.149-0.538,0c-0.148-0.148-0.148-0.39,0-0.538c0.953-0.953,1.598-2.404,1.924-4.362
	C127.839,38.689,128.035,38.549,128.242,38.584z"/>
<path id="Path_8_" fill="#EBA100" d="M108.521,35.787l1.731,3.78c0.088,0.192-0.001,0.417-0.199,0.502
	c-0.187,0.081-0.402,0.009-0.501-0.16l-0.017-0.033l-1.788-3.902C108.002,35.91,108.26,35.848,108.521,35.787z"/>
<path id="Path_9_" opacity="0.9" fill="#FFE19F" enable-background="new    " d="M139.223,35.279
	c0.289,0.056,0.576,0.115,0.859,0.175c-0.374,0.355-0.607,0.86-0.607,1.421c0,1.072,0.852,1.941,1.903,1.941
	s1.903-0.869,1.903-1.941c0-0.215-0.034-0.422-0.098-0.616c0.287,0.089,0.566,0.181,0.84,0.276c0.013,0.111,0.02,0.225,0.02,0.34
	c0,1.501-1.193,2.718-2.665,2.718s-2.665-1.217-2.665-2.718c0-0.59,0.186-1.137,0.498-1.583L139.223,35.279z"/>
<path id="Path-2" fill="#FFB614" d="M116.378,31.472c-1.015,1.861-1.522,3.384-1.522,4.568c6.26,1.692,12.775,1.692,19.543,0
	c0-2.2-0.592-3.722-1.777-4.568C128.053,32.656,122.639,32.656,116.378,31.472z"/>
<path id="Combined-Shape_6_" fill="#EBA100" d="M124.086,32.412c0.086,0.002,0.17,0.004,0.255,0.006l0.001-0.148
	c-0.02,2.379-0.193,4.056-0.526,5.041c-0.09-0.002-0.179-0.003-0.269-0.005c0.325-0.896,0.506-2.489,0.537-4.772L124.086,32.412z
	 M126.896,32.382l-0.002,0.139c-0.018,2.152-0.161,3.73-0.436,4.74l-0.268,0.013c0.284-0.99,0.436-2.62,0.449-4.881
	C126.727,32.39,126.812,32.386,126.896,32.382z M121.438,32.26c0.085,0.007,0.17,0.015,0.254,0.021l0.018-0.221
	c-0.191,2.448-0.494,4.138-0.916,5.082c-0.088-0.008-0.178-0.017-0.267-0.026c0.405-0.852,0.71-2.459,0.907-4.811L121.438,32.26z
	 M129.191,32.188l0.002-0.168c-0.021,2.399-0.197,4.083-0.535,5.064c-0.095,0.01-0.188,0.02-0.282,0.029
	c0.342-0.893,0.53-2.528,0.56-4.895C129.021,32.208,129.106,32.198,129.191,32.188z M119.141,32.004
	c0.085,0.011,0.17,0.022,0.254,0.033l0.018-0.227c-0.189,2.416-0.486,4.093-0.899,5.043c-0.087-0.014-0.173-0.028-0.26-0.042
	c0.394-0.864,0.69-2.453,0.883-4.756L119.141,32.004z M131.492,31.813l-0.002,0.207c-0.018,2.151-0.162,3.728-0.436,4.738
	l-0.275,0.044c0.29-0.991,0.443-2.64,0.457-4.938L131.492,31.813L131.492,31.813z M117.019,31.677
	c0.085,0.015,0.169,0.029,0.253,0.043c-0.332,2.186-0.71,3.742-1.143,4.675c-0.084-0.019-0.169-0.039-0.253-0.058
	c0.415-0.872,0.79-2.374,1.118-4.499L117.019,31.677z M132.641,31.548c0.012,0.007,0.021,0.015,0.032,0.022l-0.024-0.101
	c0.525,2.185,0.766,3.794,0.72,4.839c-0.087,0.019-0.173,0.037-0.259,0.056c0.059-0.992-0.171-2.582-0.691-4.761L132.641,31.548z"/>
<path id="Combined-Shape_7_" fill="#FFD474" d="M124.354,32.348c0.085,0.001,0.17,0.003,0.254,0.004l0.002-0.154
	c-0.021,2.415-0.193,4.116-0.527,5.113c-0.089-0.001-0.178-0.003-0.268-0.004c0.326-0.913,0.507-2.539,0.537-4.87L124.354,32.348z
	 M127.159,32.297l-0.001,0.154c-0.018,2.172-0.16,3.767-0.432,4.791c-0.089,0.004-0.178,0.009-0.268,0.014
	c0.282-1.007,0.432-2.659,0.445-4.946C126.99,32.307,127.074,32.302,127.159,32.297z M121.711,32.209
	c0.084,0.007,0.168,0.014,0.252,0.021l0.02-0.245c-0.195,2.503-0.503,4.225-0.93,5.176c-0.09-0.01-0.18-0.018-0.27-0.027
	c0.395-0.819,0.695-2.352,0.896-4.587L121.711,32.209z M129.453,32.081v-0.138c-0.021,2.408-0.193,4.106-0.525,5.105l-0.279,0.031
	c0.335-0.915,0.52-2.573,0.547-4.964L129.453,32.081L129.453,32.081z M119.414,31.962c0.084,0.011,0.169,0.022,0.253,0.033
	l0.021-0.264c-0.194,2.479-0.497,4.191-0.919,5.148c-0.087-0.012-0.174-0.026-0.261-0.04c0.384-0.828,0.679-2.347,0.877-4.547
	L119.414,31.962z M131.748,31.679l-0.001,0.264c-0.018,2.147-0.157,3.729-0.422,4.755c-0.092,0.016-0.184,0.032-0.275,0.047
	c0.283-1.018,0.433-2.691,0.443-5.013C131.578,31.716,131.664,31.698,131.748,31.679z M117.295,31.641
	c0.084,0.014,0.168,0.028,0.251,0.042c-0.339,2.233-0.726,3.813-1.166,4.747c-0.086-0.019-0.171-0.038-0.257-0.058
	c0.43-0.877,0.817-2.428,1.158-4.641L117.295,31.641z M132.652,31.474c0.114,0.082,0.223,0.17,0.326,0.265l-0.084-0.35
	c0.521,2.172,0.77,3.784,0.738,4.843l-0.256,0.059c0.041-0.983-0.184-2.521-0.675-4.607L132.652,31.474z"/>
<path id="Path-4" fill="none" stroke="#EBA100" stroke-width="0.5" stroke-linecap="round" stroke-linejoin="round" d="
	M104.703,52.03c-0.677,2.2-1.861,4.907-3.554,8.122"/>
<path id="Path-5" fill="none" stroke="#EBA100" stroke-linecap="round" stroke-linejoin="round" d="M141.505,51.777
	c0.759,1.586,2.112,3.278,4.062,5.076"/>
<path id="Path-40" fill="#282F80" d="M117.646,10.914c-0.676,0.508-0.846,1.185-0.507,2.031c0.507,1.269-0.508,2.284-1.269,2.538
	c0.507-0.677,0.761-1.269,0.761-1.777C116.124,12.521,116.463,11.59,117.646,10.914z"/>
<path id="Path-14" fill="none" stroke="#4B52A4" stroke-width="0.5" stroke-linecap="round" stroke-linejoin="round" d="
	M113.84,13.452c2.877-0.677,4.314-1.523,4.314-2.538c0-1.523,1.777-1.776,2.539-2.538c0.507-0.507,0.846-1.523,1.015-3.045"/>
<path id="Path-37" fill="#282F80" d="M127.639,7.36c-1.385,1.523-1.473,2.792-0.26,3.807c-0.693-2.03,0.174-2.707,2.598-2.03
	S131.621,9.222,127.639,7.36z"/>
<path id="Path-41" fill="#282F80" d="M133.361,10.406c-1.376,0-1.807,0.687-1.29,2.062c0.774,2.062,2.251,2.59,2.581,2.062
	C133.447,12.983,133.018,11.609,133.361,10.406z"/>
<path id="Path-55" fill="#FFB614" d="M104.504,91.117c-1.224,1.269-1.796,4.061-0.734,5.076s41.863,0.761,44.557,0
	c0.722-1.692,0.722-3.045,0-4.061C136.33,89.594,114.787,90.102,104.504,91.117z"/>
<polygon id="Rectangle_2_" fill="#FFC33F" points="127.074,66.498 133.926,66.498 139.764,68.528 127.074,68.528 "/>
<line id="Path-64" fill="none" stroke="#FFC33F" stroke-linecap="round" stroke-linejoin="round" x1="109.053" y1="193.654" x2="110.83" y2="195.432"/>
<line id="Path-64-Copy-2" fill="none" stroke="#FFC33F" stroke-linecap="round" stroke-linejoin="round" x1="133.165" y1="193.654" x2="134.941" y2="195.432"/>
<line id="Path-64-Copy" fill="none" stroke="#FFC33F" stroke-linecap="round" stroke-linejoin="round" x1="107.276" y1="194.67" x2="109.053" y2="196.447"/>
<line id="Path-64-Copy-3" fill="none" stroke="#FFC33F" stroke-linecap="round" stroke-linejoin="round" x1="131.389" y1="194.67" x2="133.165" y2="196.447"/>
<path id="Shape" fill="#EBA100" d="M125.793,90.511l0.045-0.219l0.259,0.002l0,0l-0.048,0.232l-0.111,0.562
	c-0.495,2.517-0.784,4.443-0.869,5.771l-0.254,0.001C124.904,95.418,125.23,93.305,125.793,90.511L125.793,90.511z M118.152,96.722
	l0.005,0.122l-0.254-0.002l0,0c-0.08-1.662,0.356-3.831,1.308-6.51l0.271-0.005C118.539,92.964,118.098,95.097,118.152,96.722
	L118.152,96.722z M133.939,90.975l-0.055-0.461l0.257,0.013l0,0l0.031,0.257c0.298,2.485,0.396,4.482,0.292,5.996l-0.255,0.004l0,0
	C134.312,95.323,134.223,93.386,133.939,90.975L133.939,90.975z M112.039,96.754v0.004l-0.254-0.006l0,0
	c-0.12-1.466,0.283-3.537,1.205-6.218l0.272-0.013l0,0l-0.114,0.336C112.289,93.409,111.921,95.376,112.039,96.754z M140.164,91.101
	l-0.031-0.148l0.266,0.025l0,0c0.429,2.11,0.602,3.998,0.52,5.664l-0.254,0.007l0,0C140.746,95.02,140.58,93.171,140.164,91.101z
	 M106.221,96.487l-0.006,0.052l-0.252-0.017l0,0c0.096-1.334,0.544-3.214,1.342-5.647l0.273-0.021l0,0l-0.113,0.344
	C106.732,93.469,106.318,95.234,106.221,96.487z M145.786,91.965l-0.042-0.311l0.262,0.043l0,0l0.052,0.385
	c0.233,1.771,0.349,3.213,0.348,4.327l-0.253,0.017l0,0C146.154,95.294,146.032,93.807,145.786,91.965L145.786,91.965z"/>
<path id="Shape_1_" fill="#FFD474" d="M126.047,90.511l0.044-0.217l0.259,0.002l0,0l-0.047,0.23l-0.111,0.562
	c-0.495,2.517-0.784,4.443-0.869,5.771l-0.254,0.001l0.014-0.201C125.188,95.224,125.51,93.177,126.047,90.511L126.047,90.511z
	 M118.406,96.722l0.005,0.125l-0.255-0.002l0,0c-0.08-1.664,0.357-3.835,1.311-6.517l0.271-0.005l0,0
	C118.793,92.961,118.352,95.096,118.406,96.722L118.406,96.722z M134.193,90.974l-0.054-0.448l0.257,0.013l0,0
	c0.32,2.596,0.429,4.673,0.322,6.235l-0.255,0.004C134.565,95.319,134.477,93.383,134.193,90.974z M112.287,96.663l0.008,0.101
	l-0.257-0.005l0,0c-0.12-1.469,0.284-3.546,1.21-6.235l0.273-0.012C112.597,93.174,112.188,95.227,112.287,96.663L112.287,96.663z
	 M140.463,91.329l-0.07-0.352l0.264,0.026l0,0c0.426,2.097,0.598,3.973,0.516,5.63l-0.254,0.007
	C140.996,95.075,140.846,93.304,140.463,91.329L140.463,91.329z M106.475,96.487l-0.008,0.068l-0.252-0.016l0,0
	c0.095-1.339,0.545-3.231,1.35-5.684l0.273-0.02C107.031,93.281,106.578,95.168,106.475,96.487z M146.039,91.964l-0.035-0.268
	l0.263,0.044l0,0l0.052,0.392c0.227,1.739,0.341,3.158,0.34,4.258l-0.252,0.018l0,0C146.406,95.279,146.285,93.797,146.039,91.964
	L146.039,91.964z"/>
<g id="Group-3" transform="translate(28.845040, 11.928934)">
	<circle id="Oval" fill="#282F80" cx="90.668" cy="4.061" r="1"/>
	<circle id="Oval_1_" fill="#282F80" cx="98.79" cy="4.061" r="1"/>
	
		<circle id="Oval_2_" fill="none" stroke="#FFF8EE" stroke-width="0.5" stroke-linecap="round" stroke-linejoin="round" cx="90.325" cy="4.061" r="4.061"/>
	
		<circle id="Oval-Copy-6" fill="none" stroke="#FFF8EE" stroke-width="0.5" stroke-linecap="round" stroke-linejoin="round" cx="99.462" cy="4.061" r="4.061"/>
</g>
<g id="puzzle-piece" transform="translate(40.101523, 40.100749)">
	<path id="Combined-Shape_8_" fill="#028B43" d="M74.857,0c-0.818,1.509-1.283,3.239-1.283,5.077c0,5.887,4.771,10.66,10.659,10.66
		s10.66-4.773,10.66-10.66c0-1.838-0.466-3.567-1.284-5.077l37.121,0.001c11.046,0,20,8.954,20,20v54.416c0,11.046-8.954,20-20,20
		H37.736c-11.045,0-20-8.954-20-20l0.001-17.833c-1.51,0.819-3.239,1.284-5.077,1.284C6.772,57.868,2,53.096,2,47.209
		c0-5.888,4.772-10.66,10.66-10.66c1.838,0,3.567,0.465,5.077,1.284l-0.001-17.832c0-11.046,8.955-20,20-20L74.857,0z"/>
	
		<g id="Group" transform="translate(146.700508, 26.396713) rotate(12.000000) translate(-146.700508, -26.396713) translate(141.624365, 22.843414)">
		<path id="Rectangle-Copy-2" fill="#FF9E8B" d="M5.509-0.416l3.046,0c1.962,0,3.554,1.591,3.554,3.553l0,0
			c0,1.963-1.591,3.553-3.554,3.553l-3.045,0c-1.963,0-3.554-1.59-3.554-3.553l0,0C1.956,1.175,3.547-0.416,5.509-0.416z"/>
		<path id="Combined-Shape_9_" fill="#FF7F66" d="M2.053,3.647l5.53,0.777c0.139,0.019,0.22,0.257,0.183,0.53
			C7.731,5.198,7.613,5.388,7.489,5.413L7.443,5.415L2.314,4.694c-0.156-0.322-0.267-0.672-0.321-1.04l0.013-0.005l0,0L2.053,3.647z
			 M2.101,2.131l5.481,0.771c0.14,0.019,0.22,0.257,0.183,0.53C7.73,3.675,7.613,3.865,7.49,3.89L7.443,3.892L1.958,3.12
			l0.004-0.171C1.976,2.666,2.024,2.393,2.101,2.131z M2.903,0.722l4.678,0.657c0.14,0.019,0.22,0.257,0.183,0.53
			C7.73,2.153,7.613,2.342,7.489,2.368L7.443,2.369L2.285,1.643C2.442,1.303,2.653,0.993,2.903,0.722z"/>
	</g>
	
		<g id="Group-Copy" transform="translate(17.766497, 26.396713) scale(-1, 1) rotate(12.000000) translate(-17.766497, -26.396713) translate(12.690355, 22.843414)">
		<path id="Rectangle-Copy-2_1_" fill="#FF9E8B" d="M1.597,0.416l3.046,0c1.962,0,3.553,1.591,3.553,3.553l0,0
			c0,1.963-1.591,3.553-3.553,3.553l-3.046,0c-1.963,0-3.553-1.59-3.553-3.553l0,0C-1.956,2.007-0.366,0.416,1.597,0.416z"/>
		<path id="Combined-Shape_10_" fill="#FF7F66" d="M-1.86,4.479l5.53,0.777c0.139,0.019,0.22,0.257,0.182,0.53
			C3.817,6.03,3.7,6.219,3.577,6.245L3.531,6.247l-5.129-0.721c-0.157-0.322-0.267-0.672-0.321-1.04l0.013-0.005l0,0L-1.86,4.479z
			 M-1.812,2.963L3.67,3.733c0.138,0.019,0.22,0.257,0.182,0.53C3.818,4.507,3.7,4.696,3.577,4.722L3.531,4.724l-5.486-0.772
			l0.004-0.171C-1.936,3.498-1.889,3.224-1.812,2.963z M-1.008,1.553L3.67,2.21c0.139,0.019,0.22,0.257,0.182,0.53
			C3.817,2.984,3.7,3.174,3.577,3.199L3.531,3.201l-5.158-0.726C-1.47,2.135-1.26,1.824-1.008,1.553z"/>
	</g>
</g>
<line id="Path-69" fill="none" stroke="#028B43" stroke-width="3" stroke-linecap="round" stroke-linejoin="round" x1="2" y1="199.492" x2="205.553" y2="199.492"/>
<g id="plant" transform="translate(29.949239, 118.274112)">
	<polygon id="Path-7" fill="none" stroke="#028B43" stroke-linecap="round" stroke-linejoin="round" points="3.617,47.714 
		34.074,47.714 25.699,80.646 11.231,80.646 	"/>
	<path id="Combined-Shape_11_" fill="#028B43" d="M34.074,47.714l-8.375,32.932h-3.569c-1.962-2.977-1.788-5.578,0.523-7.805
		c5.14-4.949,4.949-3.807,2.665-15.609c-0.807-4.171-0.099-7.344,2.125-9.518H34.074z"/>
	<path id="Path-67" fill="#FFFFFF" stroke="#25D876" stroke-linecap="round" stroke-linejoin="round" d="M5.902,0.574
		C2.856-1.52-0.19,2.097,4.188,11.804c4.378,9.709-0.571,9.898-1.142,14.848c-0.571,4.949,9.518,4.188,10.089,12.945
		c0.571,8.756,8.947-2.095,7.233-6.854s-6.472-3.617-2.855-11.23c3.617-7.615-2.665-4.949-3.807-11.041S8.947,2.667,5.902,0.574z"/>
	<path id="Path-77" fill="none" stroke="#25D876" stroke-linecap="round" stroke-linejoin="round" d="M7.044,6.665
		c4.061,7.867,6.662,17.766,7.804,29.695"/>
	<path id="Path-66" fill="#FFC33F" d="M19.036,43.784c2.855,0.57,3.807-2.855,5.901-6.092c2.094-3.236,2.665-3.426,4.949-5.52
		c2.285-2.095-1.333-5.711,1.523-10.09c2.855-4.378,6.663-9.137,5.14-12.373s-12.373,1.333-14.657,11.422
		c-2.284,10.088-8.186,6.853-8.186,12.563C13.706,39.406,16.181,43.213,19.036,43.784z"/>
	<path id="Combined-Shape_12_" fill="#EBA100" d="M35.751,15.214c-1.116,2.215-2.857,4.594-4.342,6.869
		c-2.855,4.379,0.762,7.995-1.523,10.09c-2.284,2.094-2.855,2.283-4.949,5.52c-2.094,3.236-3.045,6.662-5.901,6.092
		c-0.127-0.025-0.254-0.058-0.38-0.096c0.525-2.598,2.112-5.611,4.758-9.041c4.145-5.373,3.957-7.404,3.729-8.986l-0.027-0.188l0,0
		l-0.026-0.185c-0.033-0.245-0.058-0.484-0.058-0.73c0-1.799,4.083-8.023,8.712-9.34L35.751,15.214z"/>
	<path id="Path-76" fill="none" stroke="#EBA100" stroke-linecap="round" stroke-linejoin="round" d="M18.846,39.597
		c2.919-12.057,7.36-20.877,13.325-26.46"/>
</g>
</svg>
