<?xml version="1.0" encoding="UTF-8"?>
<svg width="12px" height="11px" viewBox="0 0 12 11" version="1.1" xmlns="http://www.w3.org/2000/svg" xmlns:xlink="http://www.w3.org/1999/xlink">
    <title>Untitled</title>
    <g id="Page-1" stroke="none" stroke-width="1" fill="none" fill-rule="evenodd">
        <g id="Group-2334" fill-rule="nonzero">
            <g id="Group_2333">
                <g id="Group_2218" transform="translate(0.052000, 0.915000)">
                    <path d="M5.94301814,0.0232155845 C7.7061568,-0.000134094989 9.34526397,0.927745915 10.2326039,2.45150149 C11.1199437,3.97525706 11.1180173,5.85877237 10.2275622,7.3807096 C9.33710717,8.90264683 7.69610535,9.82717192 5.93301814,9.80021558 C4.16987949,9.82356526 2.53077232,8.89568525 1.64343243,7.37192968 C0.756092542,5.84817411 0.758019018,3.9646588 1.64847407,2.44272157 C2.53892912,0.920784337 4.17993094,-0.00374074924 5.94301814,0.0232155845 L5.94301814,0.0232155845 Z" id="Path_2184" fill="#ffffff" transform="translate(5.938018, 4.911716) rotate(179.730000) translate(-5.938018, -4.911716) "></path>
                    <path d="M6.0257408,1.02756746 C7.06112579,1.02038436 8.05687046,1.42522253 8.79350394,2.1528521 C9.53013743,2.88048166 9.94719043,3.87117243 9.9527408,4.90656746 C9.93677938,7.06573158 8.17694333,8.80499521 6.0177408,8.79556746 C4.9823558,8.80275056 3.98661114,8.39791238 3.24997765,7.67028282 C2.51334416,6.94265325 2.09629116,5.95196249 2.0907408,4.91656746 C2.10670221,2.75740334 3.86653826,1.0181397 6.0257408,1.02756746 Z" id="Path_2185" fill="#FFFFFF" transform="translate(6.021741, 4.911567) rotate(179.730000) translate(-6.021741, -4.911567) "></path>
                    <ellipse id="Ellipse_67" fill="#ffffff" transform="translate(5.949000, 4.819000) rotate(180.000000) translate(-5.949000, -4.819000) " cx="5.949" cy="4.819" rx="3.128" ry="3.063"></ellipse>
                </g>
            </g>
        </g>
    </g>
</svg>